<?xml version="1.0" encoding="utf-8"?>
<!-- Generator: Adobe Illustrator 16.2.0, SVG Export Plug-In . SVG Version: 6.00 Build 0)  -->
<svg version="1.2" baseProfile="tiny" id="Слой_1"
	 xmlns="http://www.w3.org/2000/svg" xmlns:xlink="http://www.w3.org/1999/xlink" x="0px" y="0px" width="90px" height="90px"
	 viewBox="0 0 90 90" xml:space="preserve">
<path fill-rule="evenodd" fill="#E0EDF3" d="M45,89.72c24.441,0,44.375-19.934,44.375-44.375C89.375,20.904,69.44,0.97,45,0.97
	S0.625,20.904,0.625,45.345C0.625,69.786,20.559,89.72,45,89.72z"/>
<path fill-rule="evenodd" fill="#CBDEE4" d="M44.999,0.97c24.508,0,44.375,19.867,44.375,44.375S69.507,89.72,44.999,89.72
	c-0.062,0-0.123-0.003-0.185-0.003V0.972C44.875,0.972,44.937,0.97,44.999,0.97z"/>
<g>
	<polygon fill-rule="evenodd" fill="#E8E9E8" points="13.204,52.785 17.88,48.443 41.515,48.404 46.286,52.836 	"/>
	<polygon fill-rule="evenodd" fill="#E8E9E8" points="29.804,48.424 41.515,48.404 46.286,52.836 29.804,52.811 	"/>
	<polygon fill-rule="evenodd" fill="#D6D7D8" points="29.619,48.425 41.515,48.404 46.286,52.836 29.619,52.811 	"/>
	<path fill-rule="evenodd" fill="#D6D7D8" d="M18.416,30.841h22.546c0.766,0,1.394,0.627,1.394,1.395v9.171v6.546v1.395h-1.394
		H18.416h-1.395v-1.395v-6.546v-9.171C17.021,31.468,17.649,30.841,18.416,30.841z"/>
	<path fill-rule="evenodd" fill="#B2BABF" d="M29.619,30.841h11.343c0.766,0,1.394,0.627,1.394,1.395v9.171v6.546v1.395h-1.394
		H29.619V30.841z"/>
	<path fill-rule="evenodd" fill="#3193D1" d="M19.22,32.578h20.945c0.174,0,0.316,0.142,0.316,0.316v14.401
		c0,0.174-0.142,0.315-0.316,0.315H19.22c-0.173,0-0.315-0.142-0.315-0.315V32.894C18.905,32.72,19.047,32.578,19.22,32.578z"/>
	<path fill-rule="evenodd" fill="#1A88C9" d="M29.682,32.578H40.15c0.182,0,0.331,0.142,0.331,0.316v14.401
		c0,0.174-0.149,0.315-0.331,0.315H29.682V32.578z"/>
	<path fill-rule="evenodd" fill="#D6D7D8" d="M46.275,52.77c0,1.114-0.917,2.025-2.037,2.025h-28.98
		c-1.12,0-2.037-0.911-2.037-2.025H46.275z"/>
	<path fill-rule="evenodd" fill="#B2BABF" d="M46.275,52.77c0,1.114-0.917,2.025-2.037,2.025H29.619V52.77H46.275z"/>
</g>
<rect x="33.635" y="38.184" fill-rule="evenodd" fill="#007E41" width="37.343" height="18.999"/>
<path fill-rule="evenodd" fill="#D6D7D8" d="M38.746,43h30.04c1.829,0,3.323,1.588,3.323,3.53v8.915H35.421V46.53
	C35.421,44.588,36.917,43,38.746,43z"/>
<path fill-rule="evenodd" fill="#B2BABF" d="M53.761,43h15.024c1.829,0,3.323,1.588,3.323,3.53v8.915H53.761V43z"/>
<rect x="35.143" y="39.678" fill-rule="evenodd" fill="#3AB76D" width="37.344" height="17.499"/>
<rect x="36.668" y="41.382" fill-rule="evenodd" fill="#55BC7D" width="1.398" height="13.712"/>
<rect x="53.797" y="39.678" fill-rule="evenodd" fill="#14B368" width="18.685" height="17.499"/>
<rect x="69.672" y="41.085" fill-rule="evenodd" fill="#3AB76D" width="1.398" height="14.429"/>
<rect x="36.931" y="41.079" fill-rule="evenodd" fill="#55BC7D" width="16.866" height="1.399"/>
<rect x="53.801" y="41.079" fill-rule="evenodd" fill="#3AB76D" width="16.749" height="1.399"/>
<rect x="37.456" y="54.488" fill-rule="evenodd" fill="#55BC7D" width="16.341" height="1.398"/>
<rect x="53.801" y="54.488" fill-rule="evenodd" fill="#3AB76D" width="16.69" height="1.398"/>
<path fill-rule="evenodd" fill="#55BC7D" d="M40.737,41.079c0.048,0.235,0.072,0.479,0.072,0.729c0,2.045-1.658,3.703-3.703,3.703
	c-0.148,0-0.294-0.009-0.438-0.025v-4.406H40.737z"/>
<path fill-rule="evenodd" fill="#3AB76D" d="M66.521,41.44c-0.047,0.236-0.073,0.479-0.073,0.729c0,2.045,1.659,3.703,3.704,3.703
	c0.149,0,0.293-0.009,0.437-0.026V41.44H66.521z"/>
<path fill-rule="evenodd" fill="#55BC7D" d="M40.737,55.886c0.048-0.236,0.073-0.479,0.073-0.729c0-2.045-1.659-3.703-3.703-3.703
	c-0.149,0-0.295,0.009-0.438,0.026v4.406H40.737z"/>
<path fill-rule="evenodd" fill="#3AB76D" d="M66.579,55.376c-0.047-0.235-0.073-0.479-0.073-0.729c0-2.045,1.659-3.704,3.703-3.704
	c0.148,0,0.295,0.01,0.438,0.026v4.406H66.579z"/>
<g>
	<path fill="#FFFFFF" d="M55.443,49.904h-2.396v0.832h3.561c0.126,0,0.225,0.099,0.225,0.226v0.902c0,0.127-0.099,0.226-0.225,0.226
		h-3.561v1.354c0,0.127-0.099,0.226-0.226,0.226h-1.177c-0.127,0-0.227-0.099-0.227-0.226V52.09H49.84
		c-0.127,0-0.227-0.099-0.227-0.226v-0.902c0-0.127,0.1-0.226,0.227-0.226h1.578v-0.832H49.84c-0.127,0-0.227-0.099-0.227-0.226
		v-1.05c0-0.127,0.1-0.227,0.227-0.227h1.578v-4.434c0-0.127,0.1-0.226,0.227-0.226h3.799c1.883,0,3.193,1.269,3.193,3.081
		C58.637,48.636,57.326,49.904,55.443,49.904z M55.303,45.245h-2.256v3.158h2.256c0.994,0,1.664-0.634,1.664-1.578
		C56.967,45.879,56.297,45.245,55.303,45.245z"/>
</g>
<path fill-rule="evenodd" fill="#3A5365" d="M66.559,32.959l-3.283-0.475l-3.283-0.476l-1.156-0.167l0.901-0.739l1.876-1.535
	l-0.37-0.462c-0.323-0.404-0.646-0.806-0.823-1.023c-2.962-3.672-7.287-6.051-11.938-6.733c-4.438-0.651-9.17,0.245-13.297,3.036
	c-0.098,0.066-0.173,0.118-0.23,0.159c-0.082,0.057-0.154,0.111-0.222,0.161c-0.069,0.052-0.141,0.106-0.214,0.163l0.001,0.001
	c-0.107,0.083-0.182,0.142-0.221,0.173c-0.096,0.078-0.199,0.164-0.31,0.256c-0.115,0.098-0.209,0.18-0.284,0.245
	c-0.073,0.064-0.165,0.149-0.276,0.253c-0.102,0.093-0.198,0.186-0.289,0.274c-0.103,0.099-0.199,0.194-0.289,0.285l-0.003,0.002
	c-0.086,0.088-0.175,0.18-0.264,0.274c-0.112,0.118-0.2,0.213-0.268,0.289c-0.074,0.08-0.159,0.178-0.257,0.291l-0.215,0.248
	l-0.17,0.199l-0.186,0.213l-0.277-0.041l-0.256-0.038l-0.319-0.047l-0.851-0.125l-1.037-0.152l-0.831-0.122l-0.898-0.132
	l0.577-0.702l0.532-0.649l0.665-0.811c0.123-0.15,0.243-0.292,0.356-0.424c0.108-0.125,0.229-0.263,0.365-0.412
	c0.146-0.162,0.272-0.298,0.379-0.41c0.122-0.128,0.246-0.255,0.371-0.38c0.125-0.125,0.252-0.247,0.38-0.369
	c0.143-0.134,0.28-0.26,0.412-0.378c0.128-0.115,0.269-0.238,0.419-0.367c0.132-0.114,0.269-0.227,0.409-0.341
	c0.091-0.073,0.184-0.146,0.276-0.219c0.093-0.072,0.19-0.146,0.289-0.219c0.104-0.076,0.201-0.147,0.293-0.213
	c0.104-0.075,0.201-0.142,0.288-0.202c4.874-3.319,10.622-4.457,16.06-3.659c5.504,0.807,10.692,3.599,14.332,8.118l0.013,0.016
	l0.01,0.015l1.134,1.528l2.091-1.71l0.901-0.739l-0.064,1.165l-0.182,3.313l-0.184,3.313l-0.029,0.56L66.559,32.959z"/>
<path fill-rule="evenodd" fill="#3A5365" d="M24.023,57.729l3.284,0.477l3.283,0.476l1.156,0.166l-0.903,0.739l-1.874,1.535
	l0.369,0.462c0.323,0.403,0.646,0.806,0.821,1.023c2.964,3.672,7.289,6.051,11.94,6.732c4.438,0.651,9.168-0.244,13.297-3.035
	c0.098-0.065,0.174-0.118,0.23-0.159c0.08-0.058,0.154-0.111,0.223-0.161c0.069-0.052,0.142-0.105,0.215-0.163l-0.002-0.001
	c0.107-0.084,0.181-0.142,0.22-0.174c0.096-0.077,0.201-0.163,0.311-0.256c0.116-0.098,0.21-0.18,0.284-0.245
	c0.073-0.063,0.165-0.148,0.275-0.253c0.103-0.092,0.198-0.186,0.29-0.274c0.103-0.099,0.199-0.194,0.288-0.284l0.003-0.003
	c0.087-0.087,0.175-0.179,0.264-0.274c0.112-0.118,0.201-0.212,0.269-0.287c0.073-0.081,0.158-0.179,0.257-0.292l0.213-0.248
	l0.172-0.197l0.186-0.214l0.277,0.041l0.255,0.037l0.32,0.048l0.85,0.124l1.038,0.151l0.83,0.123l0.898,0.132l-0.577,0.701
	l-0.532,0.648l-0.664,0.812c-0.123,0.151-0.243,0.291-0.357,0.425c-0.107,0.125-0.23,0.263-0.364,0.411
	c-0.146,0.161-0.271,0.298-0.379,0.41c-0.122,0.127-0.245,0.254-0.371,0.38c-0.125,0.124-0.253,0.248-0.382,0.367
	c-0.142,0.136-0.278,0.262-0.41,0.38c-0.129,0.115-0.269,0.237-0.42,0.367c-0.132,0.113-0.269,0.227-0.411,0.34
	c-0.09,0.075-0.182,0.146-0.275,0.22c-0.094,0.072-0.188,0.145-0.287,0.219c-0.103,0.077-0.201,0.147-0.293,0.214
	c-0.104,0.074-0.201,0.142-0.288,0.201c-4.874,3.319-10.622,4.457-16.061,3.66c-5.503-0.808-10.691-3.6-14.332-8.119l-0.012-0.016
	l-0.01-0.016L26,63.552l-2.089,1.71l-0.902,0.739l0.064-1.165l0.183-3.313l0.182-3.313l0.031-0.56L24.023,57.729z"/>
</svg>
