<?xml version="1.0" encoding="iso-8859-1"?>
<svg version="1.1" xmlns="http://www.w3.org/2000/svg" xmlns:xlink="http://www.w3.org/1999/xlink" x="0px" y="0px"
	 width="78.025px" height="78.009px" viewBox="0 0 78.025 78.009" style="enable-background:new 0 0 78.025 78.009;"
	 xml:space="preserve">
<g>
	<g>
		<radialGradient id="SVGID_1_" cx="39" cy="39" r="52.214" fx="59.8718" fy="39" gradientUnits="userSpaceOnUse">
			<stop  offset="0" style="stop-color:#FFFFFF"/>
			<stop  offset="1" style="stop-color:#B8B8B8"/>
		</radialGradient>
		<path style="fill:url(#SVGID_1_);" d="M39,76C18.598,76,2,59.402,2,39C2,18.598,18.598,2,39,2c20.402,0,37,16.598,37,37
			C76,59.402,59.402,76,39,76z"/>
		<path style="fill:#3D3C3A;" d="M39,4c19.299,0,35,15.701,35,35S58.299,74,39,74C19.701,74,4,58.299,4,39S19.701,4,39,4 M39,0
			C17.461,0,0,17.461,0,39s17.461,39,39,39c21.539,0,39-17.461,39-39S60.539,0,39,0L39,0z"/>
	</g>
	<g style="opacity:0.1;">
		<path style="fill:#2D2D2A;" d="M72,51.667c-0.736,0,0.405-8.581,0.499-9.372c0.608-5.151-0.766-10.554-2.919-15.216
			C64.388,15.838,53.164,6.904,40.56,6.209C28.277,5.531,16.937,13.245,10.666,23.42c-3.305,5.36-5.332,11.586-5.332,17.913
			C5.334,42.299,6.525,51,5.667,51c-1.119,0-1.648-10.089-1.736-11.189c-0.444-5.491,0.82-11.189,3.118-16.167
			C12.744,11.306,25.405,3.166,39,3.166c13.595,0,26.256,8.14,31.951,20.478c2.265,4.907,3.639,10.665,3.102,16.087
			C73.935,40.921,73.177,51.667,72,51.667z"/>
	</g>
	<g style="opacity:0.5;">
		<path style="fill:#FFFFFF;" d="M39,2.4c20.144,0,36.52,16.078,37.025,36.1c0.009-0.316,0.024-0.632,0.024-0.95
			C76.05,17.088,59.462,0.5,39,0.5C18.538,0.5,1.95,17.088,1.95,37.55c0,0.318,0.016,0.634,0.024,0.95
			C2.479,18.479,18.856,2.4,39,2.4z"/>
	</g>
	<g>
		<path d="M39.334,76.024c-21.036,0-38.139-16.79-38.666-37.699c-0.01,0.331-0.025,0.659-0.025,0.992
			c0,21.368,17.323,38.691,38.691,38.691c21.368,0,38.691-17.323,38.691-38.691c0-0.333-0.016-0.661-0.025-0.992
			C77.473,59.234,60.37,76.024,39.334,76.024z"/>
	</g>
	<g style="opacity:0.6;">
		<path style="fill:#FFFFFF;" d="M72.25,50.666c-0.736,0,0.405-8.863,0.499-9.681c0.226-1.975,0.177-3.984-0.082-5.979
			c-0.088,0.879,0.03,2.086,0.03,2.603c0,18.48-15.556,33.516-33.447,33.516c-17.892,0-33.447-15.035-33.447-33.516
			c0-0.357,0.056-1.041,0.063-1.72c-0.172,1.358-0.281,2.727-0.281,4.103c0,0.997,1.191,9.985,0.333,9.985
			c-0.011,0-0.021-0.008-0.031-0.01c4.919,14.126,18.016,24.256,33.364,24.256c15.111,0,28.037-9.821,33.128-23.606
			C72.336,50.646,72.293,50.666,72.25,50.666z"/>
	</g>
	<g>
		<polygon style="fill:#2D2D2A;" points="45.051,44.143 42.223,46.971 16.625,20.242 18.322,18.545 		"/>
		<polygon style="fill:#2D2D2A;" points="35.505,47.324 32.677,44.496 51.626,26.676 53.323,28.373 		"/>
	</g>
	<rect x="38" y="7" style="opacity:0.9;fill:#2D2D2A;" width="2" height="10"/>
	<rect x="38" y="60" style="opacity:0.9;fill:#2D2D2A;" width="2" height="10"/>
	<rect x="60.5" y="38" style="opacity:0.9;fill:#2D2D2A;" width="10" height="2"/>
	<rect x="7.5" y="38" style="opacity:0.9;fill:#2D2D2A;" width="10" height="2"/>
	
		<rect x="63.773" y="21.953" transform="matrix(0.5086 0.861 -0.861 0.5086 52.8534 -43.202)" style="opacity:0.8;fill:#2D2D2A;" width="1" height="5.496"/>
	
		<rect x="14.208" y="51.172" transform="matrix(0.5074 0.8617 -0.8617 0.5074 53.6884 13.8741)" style="opacity:0.8;fill:#2D2D2A;" width="1.001" height="5.452"/>
	
		<rect x="53.49" y="10.847" transform="matrix(0.8713 0.4907 -0.4907 0.8713 13.6204 -24.7462)" style="opacity:0.8;fill:#2D2D2A;" width="1.001" height="5.496"/>
	
		<rect x="25.196" y="60.955" transform="matrix(0.8706 0.4919 -0.4919 0.8706 34.651 -4.4029)" style="opacity:0.8;fill:#2D2D2A;" width="1.001" height="5.453"/>
	
		<rect x="22.582" y="12.305" transform="matrix(0.8257 -0.5641 0.5641 0.8257 -4.4682 15.6434)" style="opacity:0.8;fill:#2D2D2A;" width="1.001" height="5.496"/>
	
		<rect x="54.956" y="59.878" transform="matrix(0.8268 -0.5625 0.5625 0.8268 -25.6098 42.0384)" style="opacity:0.8;fill:#2D2D2A;" width="1.002" height="5.452"/>
	
		<rect x="12.172" y="23.291" transform="matrix(0.4331 -0.9013 0.9013 0.4331 -16.286 26.1831)" style="opacity:0.8;fill:#2D2D2A;" width="1.001" height="5.495"/>
	
		<rect x="64" y="48.274" transform="matrix(0.4342 -0.9008 0.9008 0.4342 -9.4479 86.9576)" style="opacity:0.8;fill:#2D2D2A;" width="1.001" height="5.452"/>
</g>
</svg>
