<?xml version="1.0" encoding="iso-8859-1"?>
<!-- Generator: Adobe Illustrator 17.0.0, SVG Export Plug-In . SVG Version: 6.00 Build 0)  -->
<!DOCTYPE svg PUBLIC "-//W3C//DTD SVG 1.1//EN" "http://www.w3.org/Graphics/SVG/1.1/DTD/svg11.dtd">
<svg version="1.1" id="Capa_1" xmlns="http://www.w3.org/2000/svg" xmlns:xlink="http://www.w3.org/1999/xlink" x="0px" y="0px"
	 width="125.141px" height="125.141px" viewBox="0 0 125.141 125.141" style="enable-background:new 0 0 125.141 125.141;"
	 xml:space="preserve">
<path style="fill:#FFFFFF;" d="M124.49,51.776c-0.436-0.571-1.005-0.911-1.711-1.019l-14.909-2.281
	c-0.815-2.607-1.929-5.268-3.341-7.984c0.977-1.358,2.443-3.272,4.398-5.744s3.34-4.277,4.155-5.418
	c0.435-0.598,0.651-1.222,0.651-1.874c0-0.76-0.189-1.357-0.57-1.792c-1.955-2.771-6.436-7.387-13.443-13.851
	c-0.65-0.543-1.33-0.814-2.035-0.814c-0.815,0-1.467,0.244-1.956,0.732l-11.568,8.718c-2.228-1.141-4.672-2.146-7.333-3.015
	l-2.281-14.99c-0.054-0.706-0.367-1.29-0.937-1.752C73.039,0.23,72.375,0,71.613,0H53.527c-1.575,0-2.553,0.76-2.933,2.281
	c-0.706,2.715-1.494,7.766-2.363,15.153c-2.553,0.816-5.024,1.848-7.414,3.097l-11.243-8.718c-0.706-0.543-1.412-0.814-2.118-0.814
	c-1.195,0-3.761,1.941-7.699,5.825s-6.612,6.803-8.025,8.758c-0.489,0.706-0.733,1.331-0.733,1.874c0,0.652,0.271,1.304,0.814,1.955
	c3.639,4.4,6.545,8.147,8.718,11.244c-1.358,2.498-2.417,4.997-3.177,7.495L2.2,50.431c-0.597,0.109-1.113,0.462-1.548,1.06
	C0.217,52.088,0,52.713,0,53.364v18.087c0,0.707,0.217,1.344,0.652,1.914c0.435,0.571,1.005,0.912,1.711,1.02l14.91,2.2
	c0.76,2.661,1.873,5.349,3.34,8.064c-0.977,1.358-2.444,3.272-4.399,5.744s-3.341,4.277-4.155,5.418
	c-0.435,0.599-0.652,1.222-0.652,1.874c0,0.706,0.19,1.33,0.57,1.873c2.118,2.934,6.599,7.497,13.443,13.688
	c0.598,0.598,1.277,0.896,2.037,0.896c0.815,0,1.494-0.244,2.037-0.732l11.488-8.719c2.228,1.141,4.672,2.146,7.333,3.016
	l2.281,14.99c0.055,0.706,0.367,1.29,0.937,1.752c0.57,0.463,1.236,0.692,1.996,0.692h18.087c1.577,0,2.554-0.76,2.935-2.281
	c0.705-2.716,1.492-7.766,2.361-15.153c2.553-0.815,5.025-1.848,7.414-3.097l11.244,8.8c0.76,0.488,1.467,0.732,2.118,0.732
	c1.194,0,3.747-1.927,7.657-5.784c3.912-3.856,6.6-6.79,8.065-8.8c0.489-0.543,0.734-1.167,0.734-1.873
	c0-0.706-0.271-1.387-0.815-2.037c-3.91-4.78-6.816-8.527-8.718-11.243c1.086-2.01,2.146-4.481,3.178-7.414l15.072-2.28
	c0.651-0.109,1.196-0.463,1.63-1.061c0.434-0.598,0.65-1.223,0.65-1.874V53.69C125.142,52.984,124.926,52.347,124.49,51.776z
	 M77.319,77.317c-4.073,4.074-8.989,6.111-14.747,6.111s-10.673-2.037-14.747-6.111c-4.073-4.073-6.11-8.988-6.11-14.746
	s2.036-10.673,6.11-14.747c4.074-4.073,8.99-6.11,14.747-6.11c5.758,0,10.674,2.037,14.747,6.11c4.073,4.074,6.11,8.989,6.11,14.747
	S81.392,73.244,77.319,77.317z"/>
</svg>
