<?xml version="1.0" encoding="utf-8"?>
<!-- Generator: Adobe Illustrator 16.2.0, SVG Export Plug-In . SVG Version: 6.00 Build 0)  -->
<svg version="1.2" baseProfile="tiny" id="Слой_1"
	 xmlns="http://www.w3.org/2000/svg" xmlns:xlink="http://www.w3.org/1999/xlink" x="0px" y="0px" width="90px" height="90px"
	 viewBox="0 0 90 90" xml:space="preserve">
<path fill-rule="evenodd" fill="#E7F2F8" d="M45.325,89.654c24.44,0,44.375-19.935,44.375-44.375
	c0-24.441-19.935-44.375-44.375-44.375C20.884,0.905,0.95,20.839,0.95,45.28C0.95,69.72,20.884,89.654,45.325,89.654z"/>
<path fill-rule="evenodd" fill="#D7E4EB" d="M45.325,0.905c24.509,0,44.374,19.868,44.374,44.375
	c0,24.508-19.865,44.375-44.374,44.375c-0.063,0-0.124-0.002-0.185-0.002V0.907C45.202,0.907,45.263,0.905,45.325,0.905z"/>
<path fill-rule="evenodd" fill="#E8E9E8" d="M20.928,25.905h26.576c0.941,0,1.714,0.771,1.714,1.714V62.88
	c0,0.943-0.772,1.714-1.714,1.714H20.928c-0.943,0-1.714-0.771-1.714-1.714V27.619C19.214,26.676,19.985,25.905,20.928,25.905z"/>
<path fill-rule="evenodd" fill="#D6D7D8" d="M34.236,25.905h13.268c0.941,0,1.714,0.771,1.714,1.713V62.88
	c0,0.943-0.772,1.714-1.714,1.714H34.236V25.905z"/>
<path fill-rule="evenodd" fill="#F0513F" d="M20.928,25.905h26.576c0.941,0,1.714,0.771,1.714,1.713v3.447H19.214v-3.447
	C19.214,26.676,19.985,25.905,20.928,25.905z"/>
<path fill-rule="evenodd" fill="#FFFFFF" d="M25.356,30.294c1.043,0,1.894-0.851,1.894-1.895c0-1.043-0.851-1.895-1.894-1.895
	c-1.044,0-1.896,0.851-1.896,1.895C23.46,29.443,24.312,30.294,25.356,30.294z"/>
<path fill-rule="evenodd" fill="#D63E2D" d="M34.236,25.905h13.268c0.941,0,1.714,0.771,1.714,1.713v3.447H34.236V25.905z"/>
<path fill-rule="evenodd" fill="#FFFFFF" d="M43.437,30.294c1.044,0,1.895-0.851,1.895-1.895c0-1.043-0.85-1.895-1.895-1.895
	c-1.043,0-1.895,0.851-1.895,1.895C41.542,29.443,42.394,30.294,43.437,30.294z"/>
<path fill-rule="evenodd" fill="#173141" d="M43.015,23.989h0.91c0.338,0,0.617,0.277,0.617,0.617v4.074
	c0,0.339-0.279,0.617-0.617,0.617h-0.91c-0.339,0-0.617-0.277-0.617-0.617v-4.074C42.398,24.266,42.675,23.989,43.015,23.989z"/>
<path fill-rule="evenodd" fill="#3A5365" d="M24.9,23.989h0.91c0.339,0,0.617,0.277,0.617,0.617v4.074
	c0,0.339-0.277,0.617-0.617,0.617H24.9c-0.339,0-0.616-0.277-0.616-0.617v-4.074C24.284,24.266,24.561,23.989,24.9,23.989z"/>
<path fill-rule="evenodd" fill="#B2BABF" d="M25.795,51.568h3.21c0.571,0,1.038,0.467,1.038,1.038v3.21
	c0,0.571-0.467,1.038-1.038,1.038h-3.21c-0.57,0-1.037-0.467-1.037-1.038v-3.21C24.758,52.035,25.225,51.568,25.795,51.568
	L25.795,51.568z M32.512,51.568h3.21c0.571,0,1.037,0.467,1.037,1.038v3.21c0,0.571-0.466,1.038-1.037,1.038h-3.21
	c-0.57,0-1.037-0.467-1.037-1.038v-3.21C31.475,52.035,31.941,51.568,32.512,51.568L32.512,51.568z M25.795,38.204h3.21
	c0.571,0,1.038,0.467,1.038,1.037v3.21c0,0.571-0.467,1.037-1.038,1.037h-3.21c-0.57,0-1.037-0.466-1.037-1.037v-3.21
	C24.758,38.671,25.225,38.204,25.795,38.204L25.795,38.204z M32.512,38.204h3.21c0.571,0,1.037,0.467,1.037,1.037v3.21
	c0,0.571-0.466,1.037-1.037,1.037h-3.21c-0.57,0-1.037-0.466-1.037-1.037v-3.21C31.475,38.671,31.941,38.204,32.512,38.204
	L32.512,38.204z M39.427,38.204h3.21c0.57,0,1.037,0.467,1.037,1.037v3.21c0,0.571-0.467,1.037-1.037,1.037h-3.21
	c-0.571,0-1.038-0.466-1.038-1.037v-3.21C38.389,38.671,38.856,38.204,39.427,38.204L39.427,38.204z M25.795,44.876h3.21
	c0.571,0,1.038,0.466,1.038,1.037v3.21c0,0.57-0.467,1.037-1.038,1.037h-3.21c-0.57,0-1.037-0.467-1.037-1.037v-3.21
	C24.758,45.342,25.225,44.876,25.795,44.876L25.795,44.876z M39.427,44.876h3.21c0.57,0,1.037,0.466,1.037,1.037v3.21
	c0,0.57-0.467,1.037-1.037,1.037h-3.21c-0.571,0-1.038-0.467-1.038-1.037v-3.21C38.389,45.342,38.856,44.876,39.427,44.876z"/>
<path fill-rule="evenodd" fill="#889D9E" d="M34.274,38.204v5.285h1.448c0.571,0,1.037-0.466,1.037-1.037v-3.21
	c0-0.57-0.466-1.037-1.037-1.037H34.274L34.274,38.204z M34.274,51.568v5.286h1.448c0.571,0,1.037-0.467,1.037-1.038v-3.21
	c0-0.571-0.466-1.038-1.037-1.038H34.274L34.274,51.568z M39.427,38.204h3.21c0.57,0,1.037,0.467,1.037,1.037v3.21
	c0,0.571-0.467,1.037-1.037,1.037h-3.21c-0.571,0-1.038-0.466-1.038-1.037v-3.21C38.389,38.671,38.856,38.204,39.427,38.204
	L39.427,38.204z M39.427,44.876h3.21c0.57,0,1.037,0.466,1.037,1.037v3.21c0,0.57-0.467,1.037-1.037,1.037h-3.21
	c-0.571,0-1.038-0.467-1.038-1.037v-3.21C38.389,45.342,38.856,44.876,39.427,44.876z"/>
<rect x="19.227" y="31.013" fill-rule="evenodd" fill="#D63E2D" width="15.01" height="1.486"/>
<rect x="34.235" y="31.013" fill-rule="evenodd" fill="#BA271C" width="15.009" height="1.486"/>
<path fill-rule="evenodd" fill="#F0513F" d="M25.794,51.563h3.211c0.57,0,1.037,0.467,1.037,1.036v3.211
	c0,0.57-0.466,1.037-1.037,1.037h-3.211c-0.571,0-1.037-0.467-1.037-1.037v-3.211C24.757,52.029,25.223,51.563,25.794,51.563z"/>
<path fill-rule="evenodd" fill="#B2BABF" d="M32.512,44.867h3.21c0.571,0,1.037,0.467,1.037,1.037v3.211
	c0,0.57-0.466,1.037-1.037,1.037h-3.21c-0.57,0-1.037-0.467-1.037-1.037v-3.211C31.475,45.334,31.941,44.867,32.512,44.867z"/>
<path fill-rule="evenodd" fill="#889D9E" d="M34.274,44.851v5.286h1.448c0.571,0,1.037-0.467,1.037-1.037v-3.211
	c0-0.571-0.466-1.037-1.037-1.037H34.274z"/>
<rect x="39.652" y="47.482" fill-rule="evenodd" fill="#007E41" width="33.624" height="17.106"/>
<path fill-rule="evenodd" fill="#D6D7D8" d="M44.253,51.818h27.047c1.647,0,2.994,1.43,2.994,3.18v8.026H41.26v-8.026
	C41.26,53.248,42.607,51.818,44.253,51.818z"/>
<path fill-rule="evenodd" fill="#B2BABF" d="M57.773,51.818h13.527c1.647,0,2.994,1.43,2.994,3.18v8.026H57.773V51.818z"/>
<rect x="41.009" y="48.828" fill-rule="evenodd" fill="#3AB76D" width="33.625" height="15.756"/>
<rect x="42.383" y="50.361" fill-rule="evenodd" fill="#55BC7D" width="1.259" height="12.348"/>
<rect x="57.806" y="48.828" fill-rule="evenodd" fill="#14B368" width="16.824" height="15.756"/>
<rect x="72.099" y="50.094" fill-rule="evenodd" fill="#3AB76D" width="1.259" height="12.992"/>
<rect x="42.62" y="50.088" fill-rule="evenodd" fill="#55BC7D" width="15.187" height="1.261"/>
<rect x="57.809" y="50.088" fill-rule="evenodd" fill="#3AB76D" width="15.081" height="1.261"/>
<rect x="43.093" y="62.162" fill-rule="evenodd" fill="#55BC7D" width="14.714" height="1.259"/>
<rect x="57.809" y="62.162" fill-rule="evenodd" fill="#3AB76D" width="15.029" height="1.259"/>
<path fill-rule="evenodd" fill="#55BC7D" d="M46.047,50.088c0.043,0.213,0.064,0.433,0.064,0.657c0,1.841-1.493,3.334-3.333,3.334
	c-0.133,0-0.265-0.008-0.394-0.023v-3.968H46.047z"/>
<path fill-rule="evenodd" fill="#3AB76D" d="M69.262,50.414c-0.042,0.211-0.064,0.432-0.064,0.656c0,1.842,1.492,3.334,3.334,3.334
	c0.134,0,0.265-0.009,0.394-0.023v-3.967H69.262z"/>
<path fill-rule="evenodd" fill="#55BC7D" d="M46.047,63.42c0.043-0.213,0.065-0.432,0.065-0.656c0-1.842-1.494-3.334-3.334-3.334
	c-0.133,0-0.265,0.008-0.394,0.023v3.967H46.047z"/>
<path fill-rule="evenodd" fill="#3AB76D" d="M69.314,62.962c-0.042-0.213-0.065-0.432-0.065-0.656c0-1.842,1.494-3.334,3.335-3.334
	c0.133,0,0.265,0.008,0.395,0.022v3.968H69.314z"/>
<g>
	<path fill="#FFFFFF" d="M59.152,57.855h-1.981v0.688h2.943c0.104,0,0.187,0.082,0.187,0.187v0.746c0,0.104-0.082,0.187-0.187,0.187
		h-2.943v1.119c0,0.104-0.082,0.187-0.187,0.187h-0.974c-0.104,0-0.187-0.082-0.187-0.187v-1.119h-1.306
		c-0.104,0-0.187-0.082-0.187-0.187v-0.746c0-0.104,0.082-0.187,0.187-0.187h1.306v-0.688h-1.306c-0.104,0-0.187-0.082-0.187-0.187
		V56.8c0-0.104,0.082-0.187,0.187-0.187h1.306v-3.666c0-0.105,0.082-0.187,0.187-0.187h3.142c1.557,0,2.641,1.049,2.641,2.547
		S60.709,57.855,59.152,57.855z M59.036,54.002h-1.865v2.611h1.865c0.821,0,1.375-0.524,1.375-1.306
		C60.411,54.527,59.857,54.002,59.036,54.002z"/>
</g>
</svg>
