<svg version="1.1" id="stud-svg-icon-wm"
     xmlns="http://www.w3.org/2000/svg" xmlns:xlink="http://www.w3.org/1999/xlink" x="0px" y="0px" width="45px" height="45px"
     viewBox="0 0 500 500" style="enable-background:new 0 0 500 500;" xml:space="preserve">
<path style="fill-rule:evenodd;clip-rule:evenodd;fill:#FFFFFF;" d="M249.369,499.737c137.348,0,249.369-112.021,249.369-249.369
	C498.737,113.021,386.716,1,249.369,1S0,113.021,0,250.369C0,387.716,112.021,499.737,249.369,499.737z"/>
                        <g>
                            <path style="fill-rule:evenodd;clip-rule:evenodd;fill:#0C71B8;" d="M248.976,97.253c16.302,0,31.74,3.795,45.487,10.534
		c2.161,1.024,4.315,2.153,6.474,3.396l-9.556,8.554l-14.358-14.847l-24.236,21.616l-14.394-15.71L193.25,151.49l28.94,31.896
		l-11.373,10.002l28.507,31.943l-11.307,9.981l40.735,45.342l24.181-22.261l20.904,23.855c-4.157,3.233-8.687,6.274-13.676,9.085
		c-15.12,8.621-32.592,13.556-51.184,13.556c-57.18,0-103.815-46.642-103.815-103.815
		C145.161,143.888,191.796,97.253,248.976,97.253z"/>
                            <path style="fill-rule:evenodd;clip-rule:evenodd;fill:#3692D0;" d="M248.976,97.253c9.769,0,19.228,1.364,28.198,3.906
		l-0.151,3.732l-24.236,21.616l-14.394-15.711L193.25,151.49l28.94,31.896l-11.373,10.002l28.507,31.943l-11.307,9.981
		l40.735,45.342l-0.805,22.491c-6.153,1.144-12.494,1.744-18.971,1.744c-57.18,0-103.815-46.642-103.815-103.815
		C145.161,143.888,191.796,97.253,248.976,97.253z"/>
                            <polygon style="fill-rule:evenodd;clip-rule:evenodd;fill:#0C71B8;" points="230.057,194.51 254.745,172.279 276.974,196.972
		252.289,219.197 	"/>
                            <polygon style="fill-rule:evenodd;clip-rule:evenodd;fill:#0C71B8;" points="247.611,237.17 272.299,214.943 294.531,239.63
		269.844,261.863 	"/>

                            <rect x="219.24" y="136.975" transform="matrix(-0.7432 0.6691 -0.6691 -0.7432 513.8882 109.9214)" style="fill-rule:evenodd;clip-rule:evenodd;fill:#0C71B8;" width="33.217" height="33.217"/>
                            <polygon style="fill-rule:evenodd;clip-rule:evenodd;fill:#0C71B8;" points="257.694,140.39 276.209,123.72 292.878,142.235
		274.363,158.911 	"/>
                            <polygon style="fill-rule:evenodd;clip-rule:evenodd;fill:#3692D0;" points="257.694,140.39 276.209,123.72 274.363,158.911 	"/>
                            <polygon style="fill-rule:evenodd;clip-rule:evenodd;fill:#0C71B8;" points="290.592,216.748 309.112,200.073 325.782,218.593
		307.268,235.262 	"/>
                            <polygon style="fill-rule:evenodd;clip-rule:evenodd;fill:#3692D0;" points="290.592,216.748 309.112,200.073 307.268,235.262 	"/>
                            <polygon style="fill-rule:evenodd;clip-rule:evenodd;fill:#0C71B8;" points="306.88,254.146 325.39,237.471 342.065,255.985
		323.549,272.655 	"/>

                            <rect x="317.762" y="160.741" transform="matrix(-0.7431 0.6692 -0.6692 -0.7431 681.4914 76.4795)" style="fill-rule:evenodd;clip-rule:evenodd;fill:#0C71B8;" width="16.608" height="16.61"/>
                            <polygon style="fill-rule:evenodd;clip-rule:evenodd;fill:#3692D0;" points="314.338,168.431 326.68,157.317 325.456,180.774 	"/>

                            <rect x="301.991" y="124.066" transform="matrix(-0.7432 0.669 -0.669 -0.7432 629.4757 23.1507)" style="fill-rule:evenodd;clip-rule:evenodd;fill:#0C71B8;" width="16.608" height="16.609"/>
                            <polygon style="fill-rule:evenodd;clip-rule:evenodd;fill:#3692D0;" points="298.567,131.756 310.91,120.644 309.742,144.043
		309.679,144.099 	"/>

                            <rect x="333.544" y="197.414" transform="matrix(-0.7431 0.6692 -0.6692 -0.7431 733.541 129.8445)" style="fill-rule:evenodd;clip-rule:evenodd;fill:#0C71B8;" width="16.608" height="16.61"/>
                            <polygon style="fill-rule:evenodd;clip-rule:evenodd;fill:#3692D0;" points="330.12,205.105 342.462,193.991 341.232,217.447 	"/>
                            <polygon style="fill-rule:evenodd;clip-rule:evenodd;fill:#0C71B8;" points="274.761,177.626 293.276,160.949 309.945,179.464
		291.436,196.133 	"/>
                            <g>
                                <polygon style="fill-rule:evenodd;clip-rule:evenodd;fill:#3692D0;" points="120.566,355.993 120.1,355.993 111.32,389.184
			104.138,389.184 93.362,342.027 100.811,342.027 108.26,377.212 108.726,377.212 117.373,342.027 123.293,342.027
			132.539,377.212 133.003,377.212 139.786,342.027 147.57,342.027 136.794,389.184 129.61,389.184 		"/>
                                <path style="fill-rule:evenodd;clip-rule:evenodd;fill:#3692D0;" d="M177.042,381.867v5.055
			c-2.992,1.731-6.983,3.062-11.773,3.062c-11.172,0-15.763-6.918-15.763-17.429c0-10.108,5.122-17.425,15.098-17.425
			c8.313,0,13.435,5.39,13.435,16.229v2.46h-21.682c0,7.98,3.258,11.507,10.109,11.507
			C170.06,385.325,173.385,384.063,177.042,381.867L177.042,381.867z M156.493,369.364h15.228c-0.33-6.985-3.723-9.777-7.315-9.777
			C160.347,359.587,157.222,362.713,156.493,369.364z"/>
                                <path style="fill-rule:evenodd;clip-rule:evenodd;fill:#3692D0;" d="M191.008,357.592c1.995-1.064,5.386-2.462,8.979-2.462
			c8.248,0,12.703,5.721,12.703,16.365c0,12.435-5.984,18.489-15.628,18.489c-3.527,0-8.98-1.131-12.971-3.263v-46.423l6.918-1.662
			V357.592L191.008,357.592z M190.942,384.263c2.128,0.931,4.456,1.063,6.12,1.063c4.922,0,8.646-3.059,8.646-13.83
			c0-8.449-3.06-11.175-7.517-11.175c-2.661,0-4.588,0.731-7.249,2.194V384.263z"/>
                                <polygon style="fill-rule:evenodd;clip-rule:evenodd;fill:#0C71B8;" points="242.953,379.207 243.286,379.207 257.519,342.027
			265.768,342.027 265.768,389.184 258.585,389.184 258.585,354.998 257.984,354.998 244.417,389.184 240.161,389.184
			226.591,355.796 225.993,355.796 225.993,389.184 220.007,389.184 220.007,342.027 228.055,342.027 		"/>
                                <path style="fill-rule:evenodd;clip-rule:evenodd;fill:#0076B8;" d="M273.084,372.555c0-11.64,6.385-17.425,15.164-17.425
			c8.781,0,15.166,5.786,15.166,17.425c0,11.375-6.054,17.429-15.166,17.429C279.135,389.984,273.084,383.93,273.084,372.555
			L273.084,372.555z M296.429,372.555c0-8.978-3.659-12.767-8.182-12.767c-4.389,0-8.181,3.79-8.181,12.767
			c0,9.116,3.46,12.77,8.181,12.77C292.97,385.325,296.429,381.671,296.429,372.555z"/>
                                <path style="fill-rule:evenodd;clip-rule:evenodd;fill:#0076B8;" d="M309.731,360.051c2.993-1.795,9.312-4.921,16.957-4.921
			c7.986,0,10.976,3.125,10.976,9.976v24.078h-6.917v-22.547c0-5.253-2.592-6.186-5.983-6.186c-2.662,0-6.055,1.199-8.116,2.394
			v26.339h-6.918V360.051z"/>
                                <path style="fill-rule:evenodd;clip-rule:evenodd;fill:#0076B8;" d="M371.384,381.867v5.055
			c-2.992,1.731-6.982,3.062-11.771,3.062c-11.173,0-15.763-6.918-15.763-17.429c0-10.108,5.122-17.425,15.098-17.425
			c8.317,0,13.439,5.39,13.439,16.229v2.46h-21.684c0,7.98,3.257,11.507,10.108,11.507
			C364.402,385.325,367.729,384.063,371.384,381.867L371.384,381.867z M350.835,369.364h15.23c-0.331-6.985-3.726-9.777-7.317-9.777
			C354.69,359.587,351.569,362.713,350.835,369.364z"/>
                                <path style="fill-rule:evenodd;clip-rule:evenodd;fill:#0076B8;" d="M398.259,356.26h7.116l-12.039,33.256
			c-3.326,9.18-7.386,13.967-15.031,13.967v-5.451c4.523,0,7.314-3.595,8.913-8.516l-12.771-33.256h7.317l8.513,24.476h0.396
			L398.259,356.26z"/>
                            </g>
                            <polygon style="fill-rule:evenodd;clip-rule:evenodd;fill:#3692D0;" points="237.081,130.128 234.617,177.04 212.393,152.353 	"/>
                            <polygon style="fill-rule:evenodd;clip-rule:evenodd;fill:#3692D0;" points="254.744,172.279 252.289,219.197 230.057,194.51 	"/>
                            <polygon style="fill-rule:evenodd;clip-rule:evenodd;fill:#3692D0;" points="272.299,214.943 269.844,261.862 247.611,237.17 	"/>
                            <polygon style="fill-rule:evenodd;clip-rule:evenodd;fill:#3692D0;" points="293.276,160.949 291.436,196.133 274.761,177.626 	"/>
                            <polygon style="fill-rule:evenodd;clip-rule:evenodd;fill:#3692D0;" points="325.389,237.471 323.549,272.655 306.88,254.146 	"/>
                        </g>
</svg>