<svg version="1.1" id="stud-svg-icon-ya"
     xmlns="http://www.w3.org/2000/svg" xmlns:xlink="http://www.w3.org/1999/xlink" x="0px" y="0px" width="45px" height="45px"
     viewBox="0 0 500 500" style="enable-background:new 0 0 500 500;" xml:space="preserve">
<path style="fill-rule:evenodd;clip-rule:evenodd;fill:#FFFFFF;" d="M250,500c137.695,0,250-112.305,250-250
	C500,112.304,387.695,0,250,0S0,112.304,0,250C0,387.695,112.305,500,250,500z"/>
                        <g>
                            <path style="fill-rule:evenodd;clip-rule:evenodd;fill:#F28F3E;" d="M253.817,177.499c9.567-6.374,18.677-4.298,20.337,4.603
		c1.633,8.936-3.9,20.273-13.485,26.643c-9.561,6.358-18.686,4.312-20.329-4.614C238.706,195.218,244.222,183.872,253.817,177.499
		L253.817,177.499z M351.994,188.744h-15.025v93.673c0,16.783-7.184,26.495-28.484,31.392l-136.162,38.507
		c0,0-11.602,3.132-11.602-7.387c0-8.752,10.369-9.826,11.975-11.386l-0.637,0.241l124.252-49.381
		c10.166-5.702,18.508-18.803,18.508-29.145V107.555c0-23.33-22.729-15.341-27.685-12.382
		c-5.429,3.214-143.932,80.813-143.932,80.813c-10.168,5.704-18.481,18.844-18.481,29.191v147.139
		c0,10.325,14.743,24.092,24.253,24.157v0.007h203.02c12.182,0.034,22.149-8.422,22.149-18.771V207.547
		C374.144,197.197,364.176,188.744,351.994,188.744z"/>
                            <path style="fill-rule:evenodd;clip-rule:evenodd;fill:#ED7402;" d="M253.817,177.499c9.567-6.374,18.677-4.298,20.337,4.603
		c1.633,8.936-3.9,20.273-13.485,26.643c-3.992,2.656-7.91,3.843-11.237,3.679v90.609l46.878-18.631
		c10.166-5.702,18.508-18.803,18.508-29.145V107.555c0-23.33-22.729-15.341-27.685-12.382c-1.751,1.037-17.365,9.823-37.701,21.242
		v64.596C250.775,179.728,252.24,178.546,253.817,177.499L253.817,177.499z M249.433,330.508l59.052-16.7
		c21.3-4.897,28.484-14.608,28.484-31.392v-93.673h15.025c12.182,0,22.149,8.453,22.149,18.803v150.162
		c0,10.35-9.968,18.805-22.149,18.771H249.433V330.508z"/>
                        </g>
</svg>