<svg version="1.1" id="stud-svg-icon-card"
     xmlns="http://www.w3.org/2000/svg" xmlns:xlink="http://www.w3.org/1999/xlink" x="0px" y="0px" width="45px" height="45px"
     viewBox="0 0 500 500" style="enable-background:new 0 0 500 500;" xml:space="preserve">
<path style="fill-rule:evenodd;clip-rule:evenodd;fill:#FFFFFF;" d="M250,500c137.695,0,250-112.305,250-250
	C500,112.305,387.695,0,250,0S0,112.305,0,250C0,387.695,112.305,500,250,500z"/>
<g>
<g>
    <path style="fill-rule:evenodd;clip-rule:evenodd;fill:#EAF4F9;" d="M140.604,68.981h218.465c13.43,0,24.417,10.988,24.417,24.417
			v119.513c0,13.43-10.988,24.417-24.417,24.417H140.604c-13.43,0-24.417-10.988-24.417-24.417V93.398
			C116.187,79.968,127.174,68.981,140.604,68.981z"/>
    <path style="fill-rule:evenodd;clip-rule:evenodd;fill:#D6E3EB;" d="M249.497,68.981h109.572c13.43,0,24.417,10.988,24.417,24.417
			v119.513c0,13.43-10.988,24.417-24.417,24.417H249.497V68.981z"/>
    <g>
        <rect x="170.727" y="106.834" style="fill-rule:evenodd;clip-rule:evenodd;fill:#7467AB;" width="158.219" height="23.053"/>
        <rect x="170.727" y="176.424" style="fill-rule:evenodd;clip-rule:evenodd;fill:#F28F3E;" width="158.219" height="23.053"/>
        <path style="fill-rule:evenodd;clip-rule:evenodd;fill:#7467AB;" d="M226.136,136.543h8.117l-22.024,35.769h-9.578l-0.865-28.303
				c-0.039-1.283-0.074-2.613-0.559-3.64c-0.484-1.027-1.245-1.746-2.255-2.247c-1.011-0.501-2.273-0.783-3.517-0.768v-0.811h15.8
				l0.774,24.346L226.136,136.543z"/>
        <polygon style="fill-rule:evenodd;clip-rule:evenodd;fill:#7467AB;" points="235.822,172.312 247.131,136.543 237.066,136.543
				225.757,172.312 			"/>
        <path style="fill-rule:evenodd;clip-rule:evenodd;fill:#7467AB;" d="M241.665,169.281c1.529,1.549,3.499,2.63,6.187,3.161
				c2.689,0.533,6.097,0.515,9.329-0.037c3.233-0.55,6.288-1.638,8.448-3.285c2.158-1.647,3.422-3.852,4.037-6.241
				c0.614-2.388,0.581-4.961-0.716-6.966c-1.295-2.007-3.855-3.448-5.985-4.808c-2.131-1.359-3.83-2.637-4.536-4.073
				c-0.707-1.438-0.418-3.036,0.409-4.06c0.827-1.025,2.192-1.478,3.872-1.582c1.679-0.104,3.674,0.136,5.327,0.601
				c1.653,0.463,2.967,1.147,4.093,2.071l3.355-5.356c-1.557-1.114-3.327-1.906-5.826-2.489c-2.5-0.583-5.729-0.957-8.536-0.748
				c-2.807,0.207-5.192,0.998-7.305,2.397c-2.113,1.4-3.954,3.407-4.987,5.57c-1.034,2.164-1.26,4.484-0.627,6.489
				c0.634,2.007,2.125,3.699,3.666,4.913c1.541,1.212,3.128,1.946,4.523,2.785c1.395,0.841,2.598,1.788,3.244,2.923
				c0.646,1.135,0.736,2.46-0.042,3.558c-0.78,1.099-2.427,1.972-4.325,2.284c-1.898,0.31-4.046,0.057-6.045-0.548
				c-1.998-0.606-3.845-1.568-5.449-2.836L241.665,169.281z"/>
        <path style="fill-rule:evenodd;clip-rule:evenodd;fill:#352A82;" d="M279.335,164.031l-4.554,8.281h-8.116l21.59-35.769h9.144
				l3.085,35.769h-9.524l-0.668-8.281H279.335L279.335,164.031z M288.888,146.665l-6.993,12.713h8.02L288.888,146.665z"/>
    </g>
    <g>
        <rect x="249.497" y="106.834" style="fill-rule:evenodd;clip-rule:evenodd;fill:#554595;" width="79.449" height="23.053"/>
        <rect x="249.497" y="176.424" style="fill-rule:evenodd;clip-rule:evenodd;fill:#ED7402;" width="79.449" height="23.053"/>
        <path style="fill-rule:evenodd;clip-rule:evenodd;fill:#554595;" d="M249.497,142.232v10.185
				c0.685,0.933,1.521,1.749,2.373,2.421c1.541,1.212,3.128,1.944,4.523,2.785c1.395,0.841,2.597,1.788,3.244,2.923
				c0.646,1.135,0.736,2.46-0.042,3.558c-0.78,1.099-2.427,1.972-4.326,2.284c-1.811,0.296-3.851,0.08-5.772-0.468v6.771
				c2.364,0.256,5.081,0.16,7.684-0.285c3.233-0.55,6.288-1.638,8.448-3.285c2.158-1.647,3.422-3.852,4.037-6.241
				c0.615-2.388,0.581-4.959-0.715-6.966c-1.296-2.007-3.857-3.448-5.986-4.808c-2.131-1.359-3.83-2.637-4.536-4.073
				c-0.707-1.438-0.418-3.036,0.409-4.06c0.827-1.025,2.192-1.478,3.872-1.582c1.679-0.104,3.674,0.137,5.327,0.601
				c1.654,0.463,2.967,1.147,4.093,2.071l3.355-5.356c-1.557-1.114-3.327-1.906-5.826-2.489c-2.499-0.583-5.729-0.957-8.536-0.748
				c-2.807,0.207-5.192,0.998-7.305,2.397C252.103,139.001,250.567,140.538,249.497,142.232z"/>
        <path style="fill-rule:evenodd;clip-rule:evenodd;fill:#554595;" d="M279.335,164.031l-4.554,8.279h-8.116l21.59-35.767h9.144
				l3.085,35.767h-9.524l-0.668-8.279H279.335L279.335,164.031z M288.888,146.665l-6.993,12.713h8.02L288.888,146.665z"/>
    </g>
</g>
<g>
<path style="fill-rule:evenodd;clip-rule:evenodd;fill:#EAF4F9;" d="M140.802,258.575h218.465
			c13.43,0,24.417,10.988,24.417,24.416v119.515c0,13.428-10.987,24.416-24.417,24.416H140.802
			c-13.429,0-24.417-10.988-24.417-24.416V282.991C116.385,269.563,127.373,258.575,140.802,258.575z"/>
<path style="fill-rule:evenodd;clip-rule:evenodd;fill:#D6E3EB;" d="M249.695,258.575h109.572
			c13.43,0,24.417,10.988,24.417,24.417v119.513c0,13.428-10.987,24.416-24.417,24.416H249.695V258.575z"/>
<polygon style="fill-rule:evenodd;clip-rule:evenodd;fill:#F9B41D;" points="284.394,394.114 287.045,394.046 289.661,393.854
			292.225,393.525 294.774,393.076 297.251,392.503 299.693,391.811 302.085,390.996 304.425,390.077 306.711,389.037
			308.929,387.911 311.078,386.665 313.174,385.33 315.184,383.892 317.125,382.367 318.996,380.755 320.781,379.04
			322.496,377.256 324.107,375.383 325.632,373.444 327.07,371.433 328.404,369.337 329.652,367.189 330.778,364.972
			331.819,362.683 332.736,360.345 333.551,357.953 334.244,355.51 334.816,353.032 335.266,350.485 335.595,347.921
			335.786,345.305 335.856,342.653 335.786,340.02 335.595,337.421 335.266,334.857 334.816,332.343 334.244,329.866
			333.551,327.441 332.736,325.049 331.819,322.727 330.778,320.457 329.652,318.239 328.404,316.109 327.07,314.011
			325.632,312.002 324.107,310.079 322.496,308.207 320.781,306.423 318.996,304.724 317.125,303.112 315.184,301.587
			313.174,300.149 311.078,298.816 308.929,297.585 306.711,296.459 304.425,295.42 302.085,294.501 299.693,293.686
			297.251,292.993 294.774,292.422 292.225,291.971 289.661,291.642 287.045,291.453 284.394,291.383 281.76,291.453
			279.144,291.642 276.579,291.971 274.05,292.422 271.571,292.993 269.129,293.686 266.755,294.501 264.416,295.42
			262.146,296.459 259.945,297.585 257.797,298.816 255.717,300.149 253.708,301.587 251.767,303.112 249.913,304.724
			248.129,306.423 246.43,308.207 244.819,310.079 243.295,312.002 241.873,314.011 240.539,316.109 239.308,318.239
			238.165,320.457 237.143,322.727 236.225,325.049 235.428,327.441 234.734,329.866 234.163,332.343 233.712,334.857
			233.383,337.421 233.192,340.02 233.123,342.653 233.192,345.305 233.383,347.921 233.712,350.485 234.163,353.032
			234.734,355.51 235.428,357.953 236.225,360.345 237.143,362.683 238.165,364.972 239.308,367.189 240.539,369.337
			241.873,371.433 243.295,373.444 244.819,375.383 246.43,377.256 248.129,379.04 249.913,380.755 251.767,382.367
			253.708,383.892 255.717,385.33 257.797,386.665 259.945,387.911 262.146,389.037 264.416,390.077 266.755,390.996
			269.129,391.811 271.571,392.503 274.05,393.076 276.579,393.525 279.144,393.854 281.76,394.046 		"/>
<polygon style="fill-rule:evenodd;clip-rule:evenodd;fill:#E74333;" points="215.674,394.114 218.308,394.046 220.924,393.854
			223.489,393.525 226.019,393.076 228.496,392.503 230.94,391.811 233.313,390.996 235.653,390.077 237.923,389.037
			240.123,387.911 242.272,386.665 244.351,385.33 246.361,383.892 248.301,382.367 250.156,380.755 251.941,379.04
			253.638,377.256 255.25,375.383 256.775,373.444 258.195,371.433 259.53,369.337 260.76,367.189 261.903,364.972 262.926,362.683
			263.844,360.345 264.642,357.953 265.334,355.51 265.906,353.032 266.356,350.485 266.685,347.921 266.877,345.305
			266.945,342.653 266.877,340.02 266.685,337.421 266.356,334.857 265.906,332.343 265.334,329.866 264.642,327.441
			263.844,325.049 262.926,322.727 261.903,320.457 260.76,318.239 259.53,316.109 258.195,314.011 256.775,312.002 255.25,310.079
			253.638,308.207 251.941,306.423 250.156,304.724 248.301,303.112 246.361,301.587 244.351,300.149 242.272,298.816
			240.123,297.585 237.923,296.459 235.653,295.42 233.313,294.501 230.94,293.686 228.496,292.993 226.019,292.422
			223.489,291.971 220.924,291.642 218.308,291.453 215.674,291.383 213.023,291.453 210.407,291.642 207.842,291.971
			205.296,292.422 202.819,292.993 200.375,293.686 197.984,294.501 195.645,295.42 193.358,296.459 191.14,297.585
			188.991,298.816 186.894,300.149 184.884,301.587 182.943,303.112 181.072,304.724 179.287,306.423 177.573,308.207
			175.961,310.079 174.436,312.002 172.998,314.011 171.664,316.109 170.416,318.239 169.29,320.457 168.251,322.727
			167.332,325.049 166.519,327.441 165.825,329.866 165.253,332.343 164.802,334.857 164.473,337.421 164.283,340.02
			164.214,342.653 164.283,345.305 164.473,347.921 164.802,350.485 165.253,353.032 165.825,355.51 166.519,357.953
			167.332,360.345 168.251,362.683 169.29,364.972 170.416,367.189 171.664,369.337 172.998,371.433 174.436,373.444
			175.961,375.383 177.573,377.256 179.287,379.04 181.072,380.755 182.943,382.367 184.884,383.892 186.894,385.33
			188.991,386.665 191.14,387.911 193.358,389.037 195.645,390.077 197.984,390.996 200.375,391.811 202.819,392.503
			205.296,393.076 207.842,393.525 210.407,393.854 213.023,394.046 		"/>
<polygon style="fill-rule:evenodd;clip-rule:evenodd;fill:#F9B41D;" points="244.022,311.083 271.312,311.083 271.312,308.293
			246.378,308.293 		"/>
<polygon style="fill-rule:evenodd;clip-rule:evenodd;fill:#F9B41D;" points="239.933,317.287 271.312,317.287 271.312,314.497
			241.578,314.497 		"/>
<polygon style="fill-rule:evenodd;clip-rule:evenodd;fill:#F9B41D;" points="236.883,323.472 271.312,323.472 271.312,320.682
			238.097,320.682 		"/>
<polygon style="fill-rule:evenodd;clip-rule:evenodd;fill:#F9B41D;" points="234.787,329.674 271.312,329.674 271.312,326.886
			235.653,326.886 		"/>
<polygon style="fill-rule:evenodd;clip-rule:evenodd;fill:#F9B41D;" points="235.999,359.652 271.399,359.652 271.399,356.862
			235.133,356.862 		"/>
<polygon style="fill-rule:evenodd;clip-rule:evenodd;fill:#F9B41D;" points="238.616,365.854 271.399,365.854 271.399,363.065
			237.316,363.065 		"/>
<polygon style="fill-rule:evenodd;clip-rule:evenodd;fill:#F9B41D;" points="242.288,372.041 271.399,372.041 271.399,369.25
			240.539,369.25 		"/>
<polygon style="fill-rule:evenodd;clip-rule:evenodd;fill:#F9B41D;" points="247.349,378.243 271.399,378.243 271.399,375.437
			244.905,375.437 		"/>
<polygon style="fill-rule:evenodd;clip-rule:evenodd;fill:#F9B41D;" points="233.556,335.861 271.312,335.861 271.312,333.071
			234.093,333.071 		"/>
<polygon style="fill-rule:evenodd;clip-rule:evenodd;fill:#F9B41D;" points="256.566,353.465 270.966,353.465 270.966,350.676
			257.087,350.676 		"/>
<polygon style="fill-rule:evenodd;clip-rule:evenodd;fill:#F9B41D;" points="257.71,347.28 270.966,347.28 270.966,344.473
			258.23,344.473 		"/>
<polygon style="fill-rule:evenodd;clip-rule:evenodd;fill:#F9B41D;" points="232.603,344.473 236.345,344.473 236.345,347.28
			232.777,347.28 		"/>
<polygon style="fill-rule:evenodd;clip-rule:evenodd;fill:#FFFFFF;" points="225.621,341.094 225.377,341.076 225.135,341.042
			224.911,341.007 224.685,340.972 224.477,340.937 224.251,340.902 224.026,340.869 223.784,340.834 223.541,340.799
			223.264,340.782 222.952,340.765 222.623,340.747 222.259,340.747 221.861,340.765 221.41,340.799 220.907,340.834
			220.56,340.886 220.231,340.937 219.937,341.042 219.677,341.146 219.434,341.266 219.21,341.405 219.036,341.579
			218.881,341.734 218.776,341.926 218.689,342.116 218.654,342.324 218.654,342.532 218.706,342.758 218.776,342.982
			218.915,343.207 219.088,343.433 219.434,343.762 219.85,344.022 220.336,344.248 220.855,344.438 221.41,344.612
			221.982,344.801 222.553,345.009 223.108,345.235 223.628,345.529 224.113,345.893 224.546,346.326 224.911,346.864
			225.187,347.522 225.36,348.302 225.429,349.237 225.36,350.328 225.24,351.143 225.032,351.853 224.754,352.513 224.407,353.084
			224.009,353.587 223.558,354.019 223.074,354.402 222.536,354.731 221.982,354.99 221.41,355.215 220.821,355.389
			220.214,355.526 219.626,355.631 219.053,355.683 218.482,355.718 217.944,355.735 217.199,355.735 216.506,355.718
			215.9,355.718 215.328,355.7 214.808,355.683 214.341,355.648 213.925,355.613 213.526,355.561 213.162,355.526 212.833,355.458
			212.504,355.406 212.21,355.319 211.915,355.25 211.637,355.147 211.36,355.042 211.065,354.938 211.846,351.108 212.001,351.143
			212.192,351.195 212.435,351.265 212.729,351.335 213.041,351.404 213.388,351.472 213.769,351.559 214.184,351.629
			214.617,351.698 215.068,351.768 215.537,351.819 216.021,351.871 216.524,351.888 217.027,351.906 217.528,351.906
			218.031,351.888 218.534,351.785 218.933,351.646 219.244,351.455 219.486,351.213 219.66,350.971 219.798,350.692
			219.885,350.415 219.955,350.156 219.989,349.653 219.833,349.219 219.538,348.873 219.105,348.579 218.586,348.32
			217.979,348.06 217.303,347.816 216.628,347.54 215.934,347.228 215.275,346.864 214.67,346.413 214.115,345.876 213.682,345.217
			213.369,344.438 213.214,343.503 213.232,342.392 213.318,341.717 213.439,341.076 213.613,340.488 213.82,339.933
			214.097,339.414 214.41,338.963 214.774,338.53 215.207,338.148 215.709,337.819 216.264,337.543 216.887,337.281 217.58,337.092
			218.36,336.935 219.21,336.813 220.144,336.745 221.168,336.728 221.809,336.728 222.397,336.745 222.935,336.763 223.42,336.78
			223.853,336.813 224.251,336.848 224.598,336.883 224.911,336.918 225.205,336.952 225.448,337.005 225.672,337.039
			225.88,337.074 226.054,337.109 226.21,337.127 226.366,337.161 226.503,337.179 		"/>
<g>
    <g>

        <polygon style="fill-rule:evenodd;clip-rule:evenodd;fill:none;stroke:#FFFFFF;stroke-width:0.216;stroke-miterlimit:22.9256;" points="
					225.621,341.094 225.377,341.076 225.135,341.042 224.911,341.007 224.685,340.972 224.477,340.937 224.251,340.902
					224.026,340.869 223.784,340.834 223.541,340.799 223.264,340.782 222.952,340.765 222.623,340.747 222.259,340.747
					221.861,340.765 221.41,340.799 220.907,340.834 220.56,340.886 220.231,340.937 219.937,341.042 219.677,341.146
					219.434,341.266 219.21,341.405 219.036,341.579 218.881,341.734 218.776,341.926 218.689,342.116 218.654,342.324
					218.654,342.532 218.706,342.758 218.776,342.982 218.915,343.207 219.088,343.433 219.434,343.762 219.85,344.022
					220.336,344.248 220.855,344.438 221.41,344.612 221.982,344.801 222.553,345.009 223.108,345.235 223.628,345.529
					224.113,345.893 224.546,346.326 224.911,346.864 225.187,347.522 225.36,348.302 225.429,349.237 225.36,350.328
					225.24,351.143 225.032,351.853 224.754,352.513 224.407,353.084 224.009,353.587 223.558,354.019 223.074,354.402
					222.536,354.731 221.982,354.99 221.41,355.215 220.821,355.389 220.214,355.526 219.626,355.631 219.053,355.683
					218.482,355.718 217.944,355.735 217.199,355.735 216.506,355.718 215.9,355.718 215.328,355.7 214.808,355.683
					214.341,355.648 213.925,355.613 213.526,355.561 213.162,355.526 212.833,355.458 212.504,355.406 212.21,355.319
					211.915,355.25 211.637,355.147 211.36,355.042 211.065,354.938 211.846,351.108 212.001,351.143 212.192,351.195
					212.435,351.265 212.729,351.335 213.041,351.404 213.388,351.472 213.769,351.559 214.184,351.629 214.617,351.698
					215.068,351.768 215.537,351.819 216.021,351.871 216.524,351.888 217.027,351.906 217.528,351.906 218.031,351.888
					218.534,351.785 218.933,351.646 219.244,351.455 219.486,351.213 219.66,350.971 219.798,350.692 219.885,350.415
					219.955,350.156 219.989,349.653 219.833,349.219 219.538,348.873 219.105,348.579 218.586,348.32 217.979,348.06
					217.303,347.816 216.628,347.54 215.934,347.228 215.275,346.864 214.67,346.413 214.115,345.876 213.682,345.217
					213.369,344.438 213.214,343.503 213.232,342.392 213.318,341.717 213.439,341.076 213.613,340.488 213.82,339.933
					214.097,339.414 214.41,338.963 214.774,338.53 215.207,338.148 215.709,337.819 216.264,337.543 216.887,337.281
					217.58,337.092 218.36,336.935 219.21,336.813 220.144,336.745 221.168,336.728 221.809,336.728 222.397,336.745
					222.935,336.763 223.42,336.78 223.853,336.813 224.251,336.848 224.598,336.883 224.911,336.918 225.205,336.952
					225.448,337.005 225.672,337.039 225.88,337.074 226.054,337.109 226.21,337.127 226.366,337.161 226.503,337.179 				"/>
    </g>
</g>
<polygon style="fill-rule:evenodd;clip-rule:evenodd;fill:#FFFFFF;" points="229.727,332.898 234.526,332.898 233.816,337.092
			236.709,337.092 236.086,341.007 233.036,340.921 231.372,350.589 231.356,350.936 231.443,351.23 231.616,351.455
			231.84,351.646 232.153,351.768 232.498,351.871 232.881,351.94 233.296,351.975 233.677,351.958 234.023,351.923
			234.336,351.871 234.614,351.803 234.838,351.733 234.995,351.681 235.098,351.646 235.133,351.629 234.526,354.851
			234.405,354.938 234.284,355.007 234.163,355.077 234.041,355.147 233.92,355.197 233.782,355.25 233.626,355.302 233.47,355.354
			233.296,355.406 233.123,355.441 232.914,355.476 232.707,355.51 232.482,355.545 232.222,355.578 231.945,355.613
			231.651,355.648 230.333,355.648 229.64,355.596 229.034,355.526 228.479,355.424 228.012,355.302 227.613,355.147
			227.284,354.973 226.989,354.766 226.764,354.539 226.59,354.297 226.47,354.003 226.383,353.707 226.331,353.378
			226.314,353.014 226.314,352.633 226.366,352.235 226.418,351.803 		"/>
<g>
    <g>

        <polygon style="fill-rule:evenodd;clip-rule:evenodd;fill:none;stroke:#FFFFFF;stroke-width:0.216;stroke-miterlimit:22.9256;" points="
					229.727,332.898 234.526,332.898 233.816,337.092 236.709,337.092 236.086,341.007 233.036,340.921 231.372,350.589
					231.356,350.936 231.443,351.23 231.616,351.455 231.84,351.646 232.153,351.768 232.498,351.871 232.881,351.94
					233.296,351.975 233.677,351.958 234.023,351.923 234.336,351.871 234.614,351.803 234.838,351.733 234.995,351.681
					235.098,351.646 235.133,351.629 234.526,354.851 234.405,354.938 234.284,355.007 234.163,355.077 234.041,355.147
					233.92,355.197 233.782,355.25 233.626,355.302 233.47,355.354 233.296,355.406 233.123,355.441 232.914,355.476
					232.707,355.51 232.482,355.545 232.222,355.578 231.945,355.613 231.651,355.648 230.333,355.648 229.64,355.596
					229.034,355.526 228.479,355.424 228.012,355.302 227.613,355.147 227.284,354.973 226.989,354.766 226.764,354.539
					226.59,354.297 226.47,354.003 226.383,353.707 226.331,353.378 226.314,353.014 226.314,352.633 226.366,352.235
					226.418,351.803 				"/>
    </g>
</g>
<polygon style="fill-rule:evenodd;clip-rule:evenodd;fill:#FFFFFF;" points="240.539,347.54 240.487,347.834 240.469,348.145
			240.504,348.475 240.574,348.804 240.695,349.134 240.833,349.446 241.025,349.775 241.232,350.069 241.476,350.363
			241.735,350.624 242.012,350.884 242.323,351.091 242.636,351.282 242.982,351.439 243.329,351.559 243.676,351.629
			244.126,351.698 244.558,351.751 245.009,351.803 245.46,351.836 245.911,351.853 246.378,351.853 246.828,351.836
			247.297,351.803 247.765,351.733 248.232,351.646 248.717,351.542 249.185,351.387 249.671,351.195 250.173,350.988
			250.658,350.71 251.161,350.415 250.467,354.678 250.19,354.818 249.913,354.955 249.636,355.06 249.376,355.162 249.116,355.25
			248.839,355.337 248.562,355.406 248.267,355.458 247.955,355.51 247.608,355.545 247.244,355.578 246.846,355.613
			246.397,355.631 245.928,355.631 245.391,355.648 244.819,355.648 243.97,355.631 243.103,355.545 242.237,355.424
			241.371,355.215 240.522,354.955 239.707,354.626 238.928,354.193 238.199,353.691 237.524,353.101 236.936,352.391
			236.433,351.594 236.017,350.676 235.722,349.653 235.531,348.492 235.48,347.211 235.566,345.79 235.635,345.235 235.74,344.594
			235.878,343.917 236.069,343.189 236.328,342.445 236.641,341.701 237.039,340.937 237.524,340.211 238.078,339.517
			238.755,338.858 239.517,338.27 240.383,337.75 241.388,337.316 242.515,337.005 243.762,336.796 245.166,336.728
			245.841,336.745 246.552,336.813 247.262,336.935 247.972,337.109 248.666,337.368 249.341,337.68 249.965,338.096
			250.537,338.582 251.057,339.17 251.49,339.863 251.837,340.66 252.078,341.579 252.218,342.619 252.235,343.797 252.113,345.113
			251.854,346.57 251.767,347.627 239.136,347.627 239.933,344.213 247.521,344.213 247.556,343.78 247.539,343.364
			247.505,342.982 247.436,342.636 247.314,342.307 247.192,342.013 247.02,341.752 246.846,341.51 246.638,341.301
			246.413,341.129 246.153,340.972 245.894,340.834 245.616,340.73 245.339,340.66 245.044,340.608 244.732,340.575
			244.403,340.591 244.092,340.643 243.797,340.712 243.502,340.817 243.207,340.954 242.947,341.111 242.687,341.301
			242.463,341.51 242.237,341.752 242.029,342.013 241.839,342.29 241.683,342.584 241.526,342.895 241.406,343.242 241.301,343.59
			241.232,343.954 		"/>
<g>
    <g>

        <polygon style="fill-rule:evenodd;clip-rule:evenodd;fill:none;stroke:#FFFFFF;stroke-width:0.216;stroke-miterlimit:22.9256;" points="
					240.539,347.54 240.487,347.834 240.469,348.145 240.504,348.475 240.574,348.804 240.695,349.134 240.833,349.446
					241.025,349.775 241.232,350.069 241.476,350.363 241.735,350.624 242.012,350.884 242.323,351.091 242.636,351.282
					242.982,351.439 243.329,351.559 243.676,351.629 244.126,351.698 244.558,351.751 245.009,351.803 245.46,351.836
					245.911,351.853 246.378,351.853 246.828,351.836 247.297,351.803 247.765,351.733 248.232,351.646 248.717,351.542
					249.185,351.387 249.671,351.195 250.173,350.988 250.658,350.71 251.161,350.415 250.467,354.678 250.19,354.818
					249.913,354.955 249.636,355.06 249.376,355.162 249.116,355.25 248.839,355.337 248.562,355.406 248.267,355.458
					247.955,355.51 247.608,355.545 247.244,355.578 246.846,355.613 246.397,355.631 245.928,355.631 245.391,355.648
					244.819,355.648 243.97,355.631 243.103,355.545 242.237,355.424 241.371,355.215 240.522,354.955 239.707,354.626
					238.928,354.193 238.199,353.691 237.524,353.101 236.936,352.391 236.433,351.594 236.017,350.676 235.722,349.653
					235.531,348.492 235.48,347.211 235.566,345.79 235.635,345.235 235.74,344.594 235.878,343.917 236.069,343.189
					236.328,342.445 236.641,341.701 237.039,340.937 237.524,340.211 238.078,339.517 238.755,338.858 239.517,338.27
					240.383,337.75 241.388,337.316 242.515,337.005 243.762,336.796 245.166,336.728 245.841,336.745 246.552,336.813
					247.262,336.935 247.972,337.109 248.666,337.368 249.341,337.68 249.965,338.096 250.537,338.582 251.057,339.17
					251.49,339.863 251.837,340.66 252.078,341.579 252.218,342.619 252.235,343.797 252.113,345.113 251.854,346.57
					251.767,347.627 239.136,347.627 239.933,344.213 247.521,344.213 247.556,343.78 247.539,343.364 247.505,342.982
					247.436,342.636 247.314,342.307 247.192,342.013 247.02,341.752 246.846,341.51 246.638,341.301 246.413,341.129
					246.153,340.972 245.894,340.834 245.616,340.73 245.339,340.66 245.044,340.608 244.732,340.575 244.403,340.591
					244.092,340.643 243.797,340.712 243.502,340.817 243.207,340.954 242.947,341.111 242.687,341.301 242.463,341.51
					242.237,341.752 242.029,342.013 241.839,342.29 241.683,342.584 241.526,342.895 241.406,343.242 241.301,343.59
					241.232,343.954 				"/>
    </g>
</g>
<polygon style="fill-rule:evenodd;clip-rule:evenodd;fill:#FFFFFF;" points="281.865,338.131 281.639,338.009 281.414,337.906
			281.172,337.784 280.911,337.663 280.651,337.558 280.357,337.455 280.062,337.351 279.75,337.247 279.421,337.161
			279.091,337.092 278.728,337.022 278.364,336.97 277.965,336.935 277.566,336.9 277.15,336.9 276.718,336.9 276.285,336.9
			275.835,336.935 275.366,336.987 274.881,337.074 274.397,337.212 273.911,337.403 273.425,337.645 272.94,337.959
			272.473,338.338 272.022,338.789 271.589,339.344 271.174,339.985 270.792,340.747 270.428,341.614 270.099,342.584
			269.822,343.693 269.717,344.317 269.649,344.923 269.614,345.529 269.631,346.119 269.683,346.708 269.804,347.263
			269.96,347.782 270.151,348.302 270.411,348.77 270.723,349.219 271.087,349.618 271.502,349.982 271.97,350.294 272.508,350.555
			273.096,350.779 273.755,350.936 273.981,350.988 274.24,351.04 274.552,351.075 274.898,351.108 275.28,351.143 275.678,351.143
			276.111,351.143 276.545,351.108 276.996,351.056 277.446,350.971 277.878,350.849 278.312,350.71 278.745,350.52
			279.144,350.294 279.507,350.017 279.854,349.705 279.074,354.332 278.97,354.419 278.867,354.522 278.728,354.644
			278.572,354.746 278.381,354.886 278.139,355.007 277.862,355.129 277.55,355.232 277.15,355.354 276.701,355.441 276.181,355.51
			275.575,355.578 274.898,355.613 274.119,355.631 273.235,355.613 272.265,355.561 271.469,355.476 270.671,355.302
			269.874,355.042 269.077,354.696 268.314,354.28 267.587,353.759 266.893,353.154 266.253,352.459 265.681,351.681
			265.195,350.814 264.78,349.844 264.467,348.788 264.26,347.627 264.191,346.396 264.225,345.045 264.416,343.606
			264.554,342.895 264.71,342.202 264.883,341.527 265.058,340.886 265.247,340.279 265.474,339.673 265.698,339.101
			265.94,338.564 266.201,338.027 266.461,337.523 266.755,337.039 267.066,336.589 267.379,336.155 267.725,335.739
			268.072,335.358 268.435,334.994 268.834,334.648 269.233,334.319 269.649,334.024 270.081,333.748 270.55,333.487
			271.018,333.262 271.502,333.055 272.005,332.863 272.543,332.691 273.079,332.552 273.634,332.43 274.223,332.327
			274.813,332.24 275.436,332.171 276.059,332.136 276.718,332.118 277.272,332.136 277.809,332.171 278.329,332.223
			278.85,332.291 279.334,332.36 279.802,332.465 280.253,332.552 280.669,332.655 281.067,332.759 281.414,332.863
			281.743,332.968 282.02,333.071 282.263,333.158 282.47,333.227 282.627,333.297 282.73,333.332 		"/>
<g>
    <g>

        <polygon style="fill-rule:evenodd;clip-rule:evenodd;fill:none;stroke:#FFFFFF;stroke-width:0.216;stroke-miterlimit:22.9256;" points="
					281.865,338.131 281.639,338.009 281.414,337.906 281.172,337.784 280.911,337.663 280.651,337.558 280.357,337.455
					280.062,337.351 279.75,337.247 279.421,337.161 279.091,337.092 278.728,337.022 278.364,336.97 277.965,336.935
					277.566,336.9 277.15,336.9 276.718,336.9 276.285,336.9 275.835,336.935 275.366,336.987 274.881,337.074 274.397,337.212
					273.911,337.403 273.425,337.645 272.94,337.959 272.473,338.338 272.022,338.789 271.589,339.344 271.174,339.985
					270.792,340.747 270.428,341.614 270.099,342.584 269.822,343.693 269.717,344.317 269.649,344.923 269.614,345.529
					269.631,346.119 269.683,346.708 269.804,347.263 269.96,347.782 270.151,348.302 270.411,348.77 270.723,349.219
					271.087,349.618 271.502,349.982 271.97,350.294 272.508,350.555 273.096,350.779 273.755,350.936 273.981,350.988
					274.24,351.04 274.552,351.075 274.898,351.108 275.28,351.143 275.678,351.143 276.111,351.143 276.545,351.108
					276.996,351.056 277.446,350.971 277.878,350.849 278.312,350.71 278.745,350.52 279.144,350.294 279.507,350.017
					279.854,349.705 279.074,354.332 278.97,354.419 278.867,354.522 278.728,354.644 278.572,354.746 278.381,354.886
					278.139,355.007 277.862,355.129 277.55,355.232 277.15,355.354 276.701,355.441 276.181,355.51 275.575,355.578
					274.898,355.613 274.119,355.631 273.235,355.613 272.265,355.561 271.469,355.476 270.671,355.302 269.874,355.042
					269.077,354.696 268.314,354.28 267.587,353.759 266.893,353.154 266.253,352.459 265.681,351.681 265.195,350.814
					264.78,349.844 264.467,348.788 264.26,347.627 264.191,346.396 264.225,345.045 264.416,343.606 264.554,342.895
					264.71,342.202 264.883,341.527 265.058,340.886 265.247,340.279 265.474,339.673 265.698,339.101 265.94,338.564
					266.201,338.027 266.461,337.523 266.755,337.039 267.066,336.589 267.379,336.155 267.725,335.739 268.072,335.358
					268.435,334.994 268.834,334.648 269.233,334.319 269.649,334.024 270.081,333.748 270.55,333.487 271.018,333.262
					271.502,333.055 272.005,332.863 272.543,332.691 273.079,332.552 273.634,332.43 274.223,332.327 274.813,332.24
					275.436,332.171 276.059,332.136 276.718,332.118 277.272,332.136 277.809,332.171 278.329,332.223 278.85,332.291
					279.334,332.36 279.802,332.465 280.253,332.552 280.669,332.655 281.067,332.759 281.414,332.863 281.743,332.968
					282.02,333.071 282.263,333.158 282.47,333.227 282.627,333.297 282.73,333.332 				"/>
    </g>
</g>
<polygon style="fill-rule:evenodd;clip-rule:evenodd;fill:#FFFFFF;" points="324.523,355.648 319.724,355.648 320.071,353.725
			320.071,353.552 319.793,353.899 319.499,354.21 319.204,354.487 318.892,354.731 318.58,354.955 318.269,355.147
			317.956,355.302 317.627,355.458 317.298,355.578 316.968,355.666 316.64,355.753 316.293,355.805 315.947,355.857
			315.618,355.89 315.271,355.909 314.924,355.909 314.023,355.84 313.191,355.648 312.429,355.354 311.736,354.955
			311.113,354.452 310.558,353.864 310.073,353.223 309.657,352.496 309.311,351.716 309.033,350.901 308.843,350.052
			308.703,349.167 308.652,348.285 308.67,347.383 308.756,346.501 308.912,345.616 309.172,344.594 309.483,343.623
			309.847,342.74 310.281,341.908 310.731,341.129 311.25,340.436 311.788,339.811 312.36,339.24 312.966,338.737 313.607,338.305
			314.267,337.922 314.924,337.628 315.618,337.386 316.311,337.229 317.003,337.127 317.714,337.092 318.217,337.109
			318.702,337.161 319.152,337.247 319.568,337.368 319.966,337.508 320.312,337.663 320.66,337.854 320.971,338.044
			321.249,338.253 321.508,338.477 321.734,338.702 321.942,338.928 322.115,339.153 322.271,339.379 322.409,339.586
			322.514,339.795 323.726,332.985 328.44,332.985 		"/>
<g>
    <g>

        <polygon style="fill-rule:evenodd;clip-rule:evenodd;fill:none;stroke:#FFFFFF;stroke-width:0.216;stroke-miterlimit:22.9256;" points="
					324.523,355.648 319.724,355.648 320.071,353.725 320.071,353.552 319.793,353.899 319.499,354.21 319.204,354.487
					318.892,354.731 318.58,354.955 318.269,355.147 317.956,355.302 317.627,355.458 317.298,355.578 316.968,355.666
					316.64,355.753 316.293,355.805 315.947,355.857 315.618,355.89 315.271,355.909 314.924,355.909 314.023,355.84
					313.191,355.648 312.429,355.354 311.736,354.955 311.113,354.452 310.558,353.864 310.073,353.223 309.657,352.496
					309.311,351.716 309.033,350.901 308.843,350.052 308.703,349.167 308.652,348.285 308.67,347.383 308.756,346.501
					308.912,345.616 309.172,344.594 309.483,343.623 309.847,342.74 310.281,341.908 310.731,341.129 311.25,340.436
					311.788,339.811 312.36,339.24 312.966,338.737 313.607,338.305 314.267,337.922 314.924,337.628 315.618,337.386
					316.311,337.229 317.003,337.127 317.714,337.092 318.217,337.109 318.702,337.161 319.152,337.247 319.568,337.368
					319.966,337.508 320.312,337.663 320.66,337.854 320.971,338.044 321.249,338.253 321.508,338.477 321.734,338.702
					321.942,338.928 322.115,339.153 322.271,339.379 322.409,339.586 322.514,339.795 323.726,332.985 328.44,332.985 				"/>
    </g>
</g>
<polygon style="fill-rule:evenodd;clip-rule:evenodd;fill:#F9B41D;" points="316.674,351.455 317.16,351.42 317.611,351.317
			318.026,351.195 318.424,351.004 318.788,350.797 319.135,350.537 319.464,350.243 319.759,349.93 320.018,349.583
			320.26,349.202 320.487,348.804 320.676,348.388 320.85,347.956 320.988,347.505 321.11,347.037 321.197,346.57 321.283,346.084
			321.335,345.581 321.335,345.113 321.318,344.629 321.266,344.178 321.197,343.745 321.075,343.329 320.937,342.93
			320.763,342.584 320.555,342.255 320.33,341.978 320.071,341.734 319.776,341.527 319.464,341.388 319.135,341.301
			318.771,341.266 318.303,341.301 317.87,341.37 317.472,341.51 317.073,341.682 316.727,341.908 316.38,342.185 316.086,342.479
			315.79,342.808 315.531,343.189 315.288,343.59 315.062,344.004 314.873,344.455 314.699,344.923 314.56,345.392 314.422,345.893
			314.318,346.396 314.231,347.158 314.267,347.991 314.387,348.838 314.612,349.653 314.959,350.363 315.41,350.936
			315.981,351.317 		"/>
<polygon style="fill-rule:evenodd;clip-rule:evenodd;fill:#FFFFFF;" points="210.269,351.803 209.575,355.648 205.209,355.648
			205.33,354.938 205.417,354.297 205.485,353.812 205.556,353.552 205.313,353.829 205.036,354.106 204.707,354.367
			204.343,354.609 203.927,354.851 203.494,355.06 203.043,355.267 202.575,355.441 202.073,355.596 201.57,355.718
			201.067,355.822 200.548,355.89 200.046,355.925 199.542,355.944 199.058,355.89 198.59,355.822 197.984,355.666 197.429,355.493
			196.944,355.267 196.511,355.007 196.13,354.731 195.783,354.419 195.506,354.088 195.264,353.742 195.056,353.378
			194.883,352.997 194.743,352.616 194.64,352.235 194.571,351.836 194.519,351.439 194.484,351.056 194.484,350.676
			194.536,349.999 194.64,349.359 194.813,348.751 195.037,348.163 195.315,347.609 195.628,347.106 195.991,346.621
			196.407,346.187 196.84,345.79 197.326,345.425 197.828,345.096 198.347,344.819 198.902,344.577 199.475,344.385 200.063,344.23
			200.669,344.126 200.704,344.126 200.791,344.109 200.912,344.091 201.102,344.074 201.31,344.039 201.553,344.022
			201.812,343.987 202.108,343.954 202.402,343.917 202.697,343.884 203.008,343.867 203.285,343.832 203.564,343.814
			203.823,343.797 204.066,343.78 204.257,343.78 204.655,343.78 205.071,343.797 205.452,343.814 205.833,343.814 206.145,343.832
			206.387,343.849 206.561,343.867 206.613,343.867 206.647,343.745 206.751,343.433 206.838,343.07 206.873,342.74
			206.803,342.359 206.647,342.013 206.439,341.701 206.163,341.44 205.833,341.216 205.469,341.059 205.053,340.954
			204.603,340.921 204.117,340.902 203.598,340.886 203.061,340.886 202.506,340.902 201.934,340.937 201.379,340.989
			200.825,341.042 200.288,341.111 199.769,341.181 199.266,341.266 198.815,341.353 198.4,341.44 198.019,341.545 197.706,341.649
			197.464,341.769 197.273,341.874 198.503,337.698 198.884,337.543 199.266,337.403 199.682,337.281 200.098,337.194
			200.514,337.109 200.964,337.039 201.415,336.97 201.882,336.935 202.368,336.9 202.87,336.883 203.39,336.865 203.927,336.865
			204.481,336.865 205.053,336.865 205.66,336.883 206.266,336.9 206.751,336.935 207.271,337.022 207.809,337.144 208.363,337.299
			208.9,337.508 209.42,337.75 209.939,338.044 210.425,338.373 210.857,338.754 211.239,339.17 211.585,339.638 211.846,340.159
			212.019,340.712 212.123,341.301 212.123,341.961 212.019,342.653 		"/>
<g>
    <g>

        <polygon style="fill-rule:evenodd;clip-rule:evenodd;fill:none;stroke:#FFFFFF;stroke-width:0.216;stroke-miterlimit:22.9256;" points="
					210.269,351.803 209.575,355.648 205.209,355.648 205.33,354.938 205.417,354.297 205.485,353.812 205.556,353.552
					205.313,353.829 205.036,354.106 204.707,354.367 204.343,354.609 203.927,354.851 203.494,355.06 203.043,355.267
					202.575,355.441 202.073,355.596 201.57,355.718 201.067,355.822 200.548,355.89 200.046,355.925 199.542,355.944
					199.058,355.89 198.59,355.822 197.984,355.666 197.429,355.493 196.944,355.267 196.511,355.007 196.13,354.731
					195.783,354.419 195.506,354.088 195.264,353.742 195.056,353.378 194.883,352.997 194.743,352.616 194.64,352.235
					194.571,351.836 194.519,351.439 194.484,351.056 194.484,350.676 194.536,349.999 194.64,349.359 194.813,348.751
					195.037,348.163 195.315,347.609 195.628,347.106 195.991,346.621 196.407,346.187 196.84,345.79 197.326,345.425
					197.828,345.096 198.347,344.819 198.902,344.577 199.475,344.385 200.063,344.23 200.669,344.126 200.704,344.126
					200.791,344.109 200.912,344.091 201.102,344.074 201.31,344.039 201.553,344.022 201.812,343.987 202.108,343.954
					202.402,343.917 202.697,343.884 203.008,343.867 203.285,343.832 203.564,343.814 203.823,343.797 204.066,343.78
					204.257,343.78 204.655,343.78 205.071,343.797 205.452,343.814 205.833,343.814 206.145,343.832 206.387,343.849
					206.561,343.867 206.613,343.867 206.647,343.745 206.751,343.433 206.838,343.07 206.873,342.74 206.803,342.359
					206.647,342.013 206.439,341.701 206.163,341.44 205.833,341.216 205.469,341.059 205.053,340.954 204.603,340.921
					204.117,340.902 203.598,340.886 203.061,340.886 202.506,340.902 201.934,340.937 201.379,340.989 200.825,341.042
					200.288,341.111 199.769,341.181 199.266,341.266 198.815,341.353 198.4,341.44 198.019,341.545 197.706,341.649
					197.464,341.769 197.273,341.874 198.503,337.698 198.884,337.543 199.266,337.403 199.682,337.281 200.098,337.194
					200.514,337.109 200.964,337.039 201.415,336.97 201.882,336.935 202.368,336.9 202.87,336.883 203.39,336.865 203.927,336.865
					204.481,336.865 205.053,336.865 205.66,336.883 206.266,336.9 206.751,336.935 207.271,337.022 207.809,337.144
					208.363,337.299 208.9,337.508 209.42,337.75 209.939,338.044 210.425,338.373 210.857,338.754 211.239,339.17 211.585,339.638
					211.846,340.159 212.019,340.712 212.123,341.301 212.123,341.961 212.019,342.653 				"/>
    </g>
</g>
<polygon style="fill-rule:evenodd;clip-rule:evenodd;fill:#E74333;" points="206.093,347.28 206.076,347.193 206.006,347.106
			205.901,347.054 205.729,347.019 205.538,346.984 205.313,346.967 205.053,346.967 204.794,346.967 204.516,346.984
			204.222,347.019 203.944,347.054 203.667,347.089 203.407,347.124 203.164,347.176 202.956,347.228 202.766,347.28
			202.645,347.313 202.506,347.366 202.316,347.435 202.125,347.522 201.899,347.627 201.674,347.747 201.431,347.869
			201.207,348.008 200.964,348.18 200.738,348.354 200.531,348.561 200.34,348.77 200.167,348.995 200.046,349.237 199.941,349.516
			199.889,349.792 199.872,350.381 199.958,350.849 200.133,351.195 200.357,351.455 200.617,351.629 200.912,351.733
			201.189,351.785 201.466,351.803 201.986,351.785 202.454,351.733 202.906,351.663 203.303,351.559 203.65,351.439
			203.979,351.282 204.274,351.126 204.533,350.936 204.758,350.762 204.967,350.555 205.14,350.363 205.278,350.156 205.4,349.949
			205.504,349.74 205.59,349.548 205.642,349.359 205.781,348.856 205.901,348.285 206.006,347.729 		"/>
<polygon style="fill-rule:evenodd;clip-rule:evenodd;fill:#FFFFFF;" points="173.812,355.648 169.099,355.648 173.033,332.898
			181.228,332.898 182.008,346.396 187.674,332.898 196.233,332.898 192.214,355.648 187.501,355.648 190.481,338.65 190.29,338.65
			183.239,355.648 177.919,355.648 177.884,354.938 177.763,353.049 177.607,350.363 177.433,347.28 177.261,344.178
			177.104,341.458 176.982,339.482 176.948,338.65 176.897,338.65 176.793,338.65 176.688,338.65 		"/>
<g>
    <g>

        <polygon style="fill-rule:evenodd;clip-rule:evenodd;fill:none;stroke:#FFFFFF;stroke-width:0.216;stroke-miterlimit:22.9256;" points="
					173.812,355.648 169.099,355.648 173.033,332.898 181.228,332.898 182.008,346.396 187.674,332.898 196.233,332.898
					192.214,355.648 187.501,355.648 190.481,338.65 190.29,338.65 183.239,355.648 177.919,355.648 177.884,354.938
					177.763,353.049 177.607,350.363 177.433,347.28 177.261,344.178 177.104,341.458 176.982,339.482 176.948,338.65
					176.897,338.65 176.793,338.65 176.688,338.65 				"/>
    </g>
</g>
<polygon style="fill-rule:evenodd;clip-rule:evenodd;fill:#FFFFFF;" points="296.264,351.803 295.553,355.648 291.204,355.648
			291.238,354.938 291.256,354.315 291.256,353.847 291.29,353.639 291.065,353.899 290.805,354.158 290.493,354.402
			290.147,354.644 289.783,354.868 289.367,355.077 288.934,355.284 288.5,355.458 288.032,355.596 287.548,355.735
			287.062,355.822 286.577,355.89 286.075,355.925 285.59,355.944 285.121,355.89 284.654,355.822 284.03,355.666 283.476,355.493
			282.991,355.267 282.54,355.007 282.159,354.731 281.83,354.419 281.552,354.088 281.309,353.742 281.102,353.378
			280.945,352.997 280.808,352.616 280.721,352.235 280.651,351.836 280.599,351.439 280.565,351.056 280.565,350.676
			280.599,349.999 280.703,349.359 280.859,348.751 281.085,348.163 281.344,347.609 281.673,347.106 282.038,346.621
			282.435,346.187 282.886,345.79 283.355,345.425 283.857,345.096 284.394,344.819 284.931,344.577 285.503,344.385
			286.075,344.23 286.664,344.126 286.699,344.126 286.785,344.109 286.907,344.091 287.08,344.074 287.304,344.039
			287.548,344.022 287.807,343.987 288.084,343.954 288.379,343.917 288.692,343.884 288.986,343.867 289.28,343.832
			289.557,343.814 289.801,343.797 290.043,343.78 290.234,343.78 290.649,343.78 291.065,343.797 291.463,343.814 291.844,343.814
			292.173,343.832 292.451,343.849 292.607,343.867 292.676,343.867 292.711,343.745 292.763,343.433 292.815,343.07 292.85,342.74
			292.78,342.359 292.642,342.013 292.416,341.701 292.156,341.44 291.844,341.216 291.48,341.059 291.099,340.954 290.683,340.921
			290.198,340.902 289.679,340.886 289.141,340.886 288.587,340.902 288.016,340.937 287.461,340.989 286.907,341.042
			286.37,341.111 285.849,341.181 285.347,341.266 284.897,341.353 284.481,341.44 284.1,341.545 283.788,341.649 283.545,341.769
			283.355,341.874 284.567,337.698 284.949,337.543 285.347,337.403 285.745,337.281 286.161,337.194 286.594,337.109
			287.028,337.039 287.478,336.97 287.946,336.935 288.431,336.9 288.934,336.883 289.437,336.865 289.973,336.865 290.511,336.865
			291.065,336.865 291.654,336.883 292.243,336.9 292.729,336.935 293.247,337.022 293.785,337.144 294.34,337.299 294.877,337.508
			295.414,337.75 295.934,338.044 296.419,338.373 296.852,338.754 297.251,339.17 297.597,339.638 297.857,340.159
			298.048,340.712 298.168,341.301 298.168,341.961 298.083,342.653 		"/>
<polygon style="fill-rule:evenodd;clip-rule:evenodd;fill:#FFFFFF;" points="295.553,355.77 295.656,355.666 296.367,351.819
			296.16,351.785 295.448,355.631 295.553,355.526 295.553,355.77 295.639,355.753 295.656,355.666 		"/>
<polygon style="fill-rule:evenodd;clip-rule:evenodd;fill:#FFFFFF;" points="291.099,355.648 291.204,355.77 295.553,355.77
			295.553,355.526 291.204,355.526 291.308,355.648 291.099,355.648 291.082,355.77 291.204,355.77 		"/>
<polygon style="fill-rule:evenodd;clip-rule:evenodd;fill:#FFFFFF;" points="291.377,353.707 291.221,353.57 291.151,353.847
			291.134,354.315 291.134,354.938 291.099,355.648 291.308,355.648 291.342,354.938 291.377,354.315 291.358,353.847
			291.358,353.707 291.204,353.57 		"/>
<polygon style="fill-rule:evenodd;clip-rule:evenodd;fill:#FFFFFF;" points="284.636,355.925 285.121,355.994 285.59,356.047
			286.075,356.029 286.577,355.994 287.08,355.925 287.565,355.84 288.049,355.7 288.535,355.561 288.968,355.389 289.419,355.182
			289.835,354.973 290.198,354.731 290.562,354.487 290.875,354.245 291.151,353.968 291.377,353.707 291.204,353.57
			290.978,353.829 290.735,354.071 290.424,354.315 290.095,354.557 289.731,354.766 289.315,354.973 288.899,355.182
			288.465,355.354 288.016,355.493 287.531,355.631 287.045,355.718 286.577,355.787 286.075,355.822 285.59,355.84
			285.121,355.787 284.671,355.718 		"/>
<polygon style="fill-rule:evenodd;clip-rule:evenodd;fill:#FFFFFF;" points="280.444,350.676 280.461,351.056 280.495,351.439
			280.547,351.853 280.616,352.252 280.703,352.633 280.842,353.032 280.997,353.43 281.223,353.794 281.466,354.158
			281.743,354.487 282.089,354.818 282.488,355.094 282.939,355.371 283.441,355.596 284.012,355.77 284.636,355.925
			284.671,355.718 284.047,355.561 283.509,355.389 283.042,355.162 282.592,354.92 282.228,354.644 281.916,354.35
			281.639,354.019 281.396,353.691 281.206,353.328 281.05,352.962 280.911,352.598 280.824,352.217 280.756,351.819
			280.703,351.439 280.669,351.056 280.686,350.676 		"/>
<polygon style="fill-rule:evenodd;clip-rule:evenodd;fill:#FFFFFF;" points="286.664,344.022 286.057,344.126 285.468,344.281
			284.897,344.473 284.342,344.714 283.804,344.993 283.285,345.339 282.817,345.703 282.367,346.119 281.951,346.551
			281.587,347.037 281.24,347.557 280.98,348.128 280.756,348.718 280.599,349.341 280.495,349.999 280.444,350.676
			280.686,350.676 280.703,349.999 280.808,349.376 280.963,348.788 281.188,348.198 281.448,347.66 281.76,347.176 282.124,346.69
			282.505,346.257 282.956,345.876 283.424,345.512 283.909,345.2 284.446,344.923 284.966,344.681 285.537,344.49 286.092,344.333
			286.664,344.23 		"/>
<polygon style="fill-rule:evenodd;clip-rule:evenodd;fill:#FFFFFF;" points="290.234,343.658 290.043,343.658 289.801,343.693
			289.557,343.71 289.28,343.727 288.986,343.762 288.692,343.78 288.379,343.814 288.084,343.849 287.807,343.884 287.548,343.917
			287.304,343.935 287.08,343.969 286.907,343.987 286.768,344.004 286.699,344.022 286.664,344.022 286.664,344.23 286.699,344.23
			286.803,344.213 286.907,344.196 287.08,344.178 287.304,344.143 287.548,344.126 287.807,344.091 288.084,344.057
			288.379,344.022 288.692,343.987 288.986,343.969 289.28,343.935 289.557,343.917 289.801,343.902 290.043,343.902
			290.234,343.902 		"/>
<polygon style="fill-rule:evenodd;clip-rule:evenodd;fill:#FFFFFF;" points="292.572,343.849 292.676,343.762 292.607,343.762
			292.451,343.745 292.173,343.727 291.844,343.693 291.463,343.693 291.065,343.693 290.649,343.658 290.234,343.658
			290.234,343.902 290.649,343.902 291.065,343.902 291.463,343.935 291.844,343.935 292.173,343.935 292.451,343.954
			292.607,343.969 292.676,343.969 292.78,343.884 292.676,343.969 292.763,343.987 292.78,343.884 		"/>
<polygon style="fill-rule:evenodd;clip-rule:evenodd;fill:#FFFFFF;" points="292.746,342.74 292.729,342.74 292.711,343.07
			292.659,343.416 292.607,343.727 292.572,343.849 292.78,343.884 292.815,343.762 292.867,343.451 292.919,343.07 292.97,342.74
			292.953,342.74 		"/>
<polygon style="fill-rule:evenodd;clip-rule:evenodd;fill:#FFFFFF;" points="290.683,341.024 290.683,341.042 291.082,341.059
			291.446,341.163 291.793,341.318 292.087,341.527 292.33,341.769 292.537,342.065 292.676,342.377 292.746,342.74 292.953,342.74
			292.883,342.342 292.746,341.961 292.503,341.632 292.225,341.353 291.896,341.111 291.515,340.954 291.117,340.852
			290.683,340.799 290.683,340.817 		"/>
<polygon style="fill-rule:evenodd;clip-rule:evenodd;fill:#FFFFFF;" points="283.25,341.856 283.424,341.961 283.596,341.874
			283.823,341.752 284.117,341.649 284.498,341.545 284.914,341.458 285.364,341.37 285.866,341.285 286.37,341.216
			286.907,341.146 287.461,341.094 288.016,341.042 288.587,341.007 289.141,341.007 289.679,341.007 290.198,341.007
			290.683,341.024 290.683,340.817 290.198,340.799 289.679,340.765 289.141,340.765 288.587,340.799 288.016,340.834
			287.461,340.886 286.907,340.937 286.37,341.007 285.832,341.076 285.33,341.163 284.879,341.25 284.463,341.337 284.082,341.44
			283.753,341.545 283.493,341.665 283.285,341.786 283.458,341.891 		"/>
<polygon style="fill-rule:evenodd;clip-rule:evenodd;fill:#FFFFFF;" points="284.533,337.595 284.463,337.68 283.25,341.856
			283.458,341.891 284.671,337.715 284.603,337.802 284.533,337.595 284.481,337.611 284.463,337.68 		"/>
<polygon style="fill-rule:evenodd;clip-rule:evenodd;fill:#FFFFFF;" points="292.243,336.796 291.654,336.763 291.065,336.745
			290.511,336.745 289.973,336.745 289.437,336.745 288.934,336.78 288.431,336.796 287.946,336.831 287.478,336.865
			287.01,336.935 286.577,337.005 286.144,337.092 285.728,337.179 285.313,337.299 284.914,337.438 284.533,337.595
			284.603,337.802 284.983,337.645 285.382,337.508 285.762,337.386 286.178,337.299 286.612,337.212 287.045,337.144
			287.478,337.074 287.946,337.039 288.431,337.005 288.934,336.987 289.437,336.987 289.973,336.987 290.511,336.987
			291.065,336.987 291.654,337.005 292.243,337.005 		"/>
<polygon style="fill-rule:evenodd;clip-rule:evenodd;fill:#FFFFFF;" points="298.186,342.671 298.273,341.961 298.273,341.301
			298.152,340.695 297.961,340.124 297.684,339.586 297.337,339.101 296.921,338.669 296.489,338.286 295.985,337.959
			295.466,337.645 294.911,337.403 294.374,337.194 293.802,337.039 293.266,336.918 292.729,336.831 292.243,336.796
			292.243,337.005 292.729,337.039 293.231,337.127 293.768,337.247 294.305,337.403 294.843,337.611 295.362,337.854
			295.882,338.131 296.349,338.46 296.783,338.841 297.164,339.24 297.51,339.691 297.753,340.192 297.944,340.73 298.065,341.301
			298.065,341.961 297.979,342.636 		"/>
<polygon style="fill-rule:evenodd;clip-rule:evenodd;fill:#FFFFFF;" points="296.367,351.819 298.186,342.671 297.979,342.636
			296.16,351.785 		"/>
<polygon style="fill-rule:evenodd;clip-rule:evenodd;fill:#F9B41D;" points="292.07,347.28 292.036,347.176 291.966,347.089
			291.844,347.037 291.672,346.984 291.48,346.967 291.256,346.95 290.995,346.95 290.735,346.967 290.459,347.002 290.182,347.037
			289.904,347.071 289.644,347.106 289.384,347.158 289.158,347.193 288.934,347.245 288.76,347.28 288.639,347.298 288.5,347.348
			288.328,347.4 288.136,347.47 287.911,347.575 287.703,347.677 287.461,347.799 287.236,347.956 287.01,348.111 286.785,348.302
			286.594,348.492 286.404,348.718 286.248,348.96 286.126,349.219 286.023,349.498 285.971,349.792 285.953,350.381
			286.04,350.849 286.178,351.195 286.387,351.455 286.646,351.629 286.94,351.733 287.236,351.785 287.531,351.803
			288.049,351.785 288.535,351.733 288.986,351.646 289.384,351.524 289.766,351.387 290.095,351.23 290.406,351.056
			290.683,350.849 290.926,350.657 291.134,350.433 291.326,350.226 291.48,349.999 291.602,349.792 291.689,349.583
			291.758,349.376 291.809,349.186 291.879,348.701 291.966,348.198 292.036,347.712 		"/>
<polygon style="fill-rule:evenodd;clip-rule:evenodd;fill:#FFFFFF;" points="297.563,355.648 302.449,355.648 304.199,345.79
			304.268,345.409 304.372,345.028 304.476,344.645 304.614,344.265 304.788,343.884 304.996,343.52 305.221,343.174
			305.499,342.843 305.81,342.549 306.157,342.272 306.555,342.013 307.006,341.804 307.507,341.632 308.063,341.492
			308.67,341.388 309.345,341.353 309.588,341.353 309.726,341.353 309.778,341.353 310.558,336.9 310.073,336.935 309.605,336.987
			309.172,337.074 308.756,337.194 308.374,337.334 308.011,337.508 307.664,337.698 307.335,337.906 307.023,338.148
			306.729,338.39 306.451,338.669 306.174,338.946 305.915,339.24 305.655,339.569 305.394,339.88 305.152,340.227 305.672,337.092
			300.803,337.092 		"/>
<g>
    <g>

        <polygon style="fill-rule:evenodd;clip-rule:evenodd;fill:none;stroke:#FFFFFF;stroke-width:0.216;stroke-miterlimit:22.9256;" points="
					297.563,355.648 302.449,355.648 304.199,345.79 304.268,345.409 304.372,345.028 304.476,344.645 304.614,344.265
					304.788,343.884 304.996,343.52 305.221,343.174 305.499,342.843 305.81,342.549 306.157,342.272 306.555,342.013
					307.006,341.804 307.507,341.632 308.063,341.492 308.67,341.388 309.345,341.353 309.588,341.353 309.726,341.353
					309.778,341.353 310.558,336.9 310.073,336.935 309.605,336.987 309.172,337.074 308.756,337.194 308.374,337.334
					308.011,337.508 307.664,337.698 307.335,337.906 307.023,338.148 306.729,338.39 306.451,338.669 306.174,338.946
					305.915,339.24 305.655,339.569 305.394,339.88 305.152,340.227 305.672,337.092 300.803,337.092 				"/>
    </g>
</g>
<polygon style="fill-rule:evenodd;clip-rule:evenodd;fill:#FFFFFF;" points="251.68,355.648 256.566,355.648 256.653,355.648
			258.317,345.79 258.385,345.409 258.472,345.045 258.559,344.681 258.681,344.333 258.819,343.987 258.993,343.658 259.2,343.346
			259.443,343.052 259.72,342.793 260.032,342.532 260.413,342.324 260.829,342.133 261.315,341.978 261.851,341.839
			262.441,341.752 263.117,341.701 263.169,341.701 263.238,341.717 263.324,341.734 263.411,341.734 263.498,341.752
			263.567,341.769 263.618,341.786 263.636,341.786 263.654,341.717 263.705,341.51 263.775,341.198 263.862,340.817
			263.983,340.366 264.104,339.88 264.26,339.396 264.416,338.911 264.554,338.582 264.728,338.253 264.901,337.922
			265.074,337.628 265.23,337.368 265.352,337.161 265.438,337.039 265.474,336.987 265.455,336.987 265.386,336.97
			265.299,336.952 265.178,336.935 265.058,336.935 264.918,336.918 264.796,336.9 264.676,336.9 264.138,336.935 263.654,336.987
			263.203,337.074 262.787,337.179 262.389,337.316 262.025,337.49 261.696,337.663 261.384,337.871 261.089,338.096
			260.812,338.355 260.552,338.617 260.291,338.911 260.032,339.205 259.79,339.534 259.53,339.88 259.27,340.227 259.894,337.092
			254.921,337.092 		"/>
<g>
    <g>

        <polygon style="fill-rule:evenodd;clip-rule:evenodd;fill:none;stroke:#FFFFFF;stroke-width:0.216;stroke-miterlimit:22.9256;" points="
					251.68,355.648 256.566,355.648 256.653,355.648 258.317,345.79 258.385,345.409 258.472,345.045 258.559,344.681
					258.681,344.333 258.819,343.987 258.993,343.658 259.2,343.346 259.443,343.052 259.72,342.793 260.032,342.532
					260.413,342.324 260.829,342.133 261.315,341.978 261.851,341.839 262.441,341.752 263.117,341.701 263.169,341.701
					263.238,341.717 263.324,341.734 263.411,341.734 263.498,341.752 263.567,341.769 263.618,341.786 263.636,341.786
					263.654,341.717 263.705,341.51 263.775,341.198 263.862,340.817 263.983,340.366 264.104,339.88 264.26,339.396
					264.416,338.911 264.554,338.582 264.728,338.253 264.901,337.922 265.074,337.628 265.23,337.368 265.352,337.161
					265.438,337.039 265.474,336.987 265.455,336.987 265.386,336.97 265.299,336.952 265.178,336.935 265.058,336.935
					264.918,336.918 264.796,336.9 264.676,336.9 264.138,336.935 263.654,336.987 263.203,337.074 262.787,337.179
					262.389,337.316 262.025,337.49 261.696,337.663 261.384,337.871 261.089,338.096 260.812,338.355 260.552,338.617
					260.291,338.911 260.032,339.205 259.79,339.534 259.53,339.88 259.27,340.227 259.894,337.092 254.921,337.092 				"/>
    </g>
</g>
<g>
<polygon style="fill-rule:evenodd;clip-rule:evenodd;fill:#F28F3E;" points="284.394,394.114 287.045,394.046 289.661,393.854
				292.225,393.525 294.773,393.076 297.251,392.503 299.693,391.811 302.085,390.996 304.425,390.077 306.711,389.037
				308.93,387.911 311.078,386.665 313.174,385.33 315.184,383.892 317.125,382.367 318.996,380.755 320.781,379.04
				322.495,377.256 324.107,375.385 325.632,373.444 327.07,371.433 328.405,369.337 329.652,367.189 330.778,364.972
				331.817,362.683 332.736,360.345 333.551,357.953 334.244,355.51 334.816,353.032 335.266,350.485 335.595,347.921
				335.786,345.305 335.856,342.653 335.786,340.02 335.595,337.421 335.266,334.857 334.816,332.343 334.244,329.866
				333.551,327.439 332.736,325.049 331.817,322.727 330.778,320.457 329.652,318.239 328.405,316.109 327.07,314.011
				325.632,312.001 324.107,310.079 322.495,308.207 320.781,306.423 318.996,304.724 317.125,303.112 315.184,301.587
				313.174,300.149 311.078,298.816 308.93,297.585 306.711,296.459 304.425,295.42 302.085,294.503 299.693,293.686
				297.251,292.993 294.773,292.422 292.225,291.971 289.661,291.642 287.045,291.453 284.394,291.383 281.761,291.453
				279.144,291.642 276.579,291.971 274.05,292.422 271.571,292.993 269.129,293.686 266.755,294.503 264.416,295.42
				262.146,296.459 259.945,297.585 257.797,298.816 255.718,300.149 253.708,301.587 251.768,303.112 249.913,304.724
				249.695,304.93 249.695,380.548 249.913,380.755 251.768,382.367 253.708,383.892 255.718,385.33 257.797,386.665
				259.945,387.911 262.146,389.037 264.416,390.077 266.755,390.996 269.129,391.811 271.571,392.503 274.05,393.076
				276.579,393.525 279.144,393.854 281.761,394.046 			"/>
<polygon style="fill-rule:evenodd;clip-rule:evenodd;fill:#D43624;" points="249.695,381.155 250.156,380.755 251.94,379.04
				253.638,377.256 255.25,375.385 256.773,373.444 258.195,371.433 259.529,369.337 260.76,367.189 261.903,364.972
				262.925,362.683 263.844,360.345 264.642,357.953 265.334,355.51 265.906,353.032 266.356,350.485 266.685,347.921
				266.876,345.305 266.946,342.653 266.876,340.02 266.685,337.421 266.356,334.857 265.906,332.343 265.334,329.866
				264.642,327.439 263.844,325.049 262.925,322.727 261.903,320.457 260.76,318.239 259.529,316.109 258.195,314.011
				256.773,312.001 255.25,310.079 253.638,308.207 251.94,306.423 250.156,304.724 249.695,304.324 			"/>
<rect x="249.695" y="308.293" style="fill-rule:evenodd;clip-rule:evenodd;fill:#F28F3E;" width="21.617" height="2.79"/>
<rect x="249.695" y="314.497" style="fill-rule:evenodd;clip-rule:evenodd;fill:#F28F3E;" width="21.617" height="2.79"/>
<rect x="249.695" y="320.683" style="fill-rule:evenodd;clip-rule:evenodd;fill:#F28F3E;" width="21.617" height="2.789"/>
<rect x="249.695" y="326.886" style="fill-rule:evenodd;clip-rule:evenodd;fill:#F28F3E;" width="21.617" height="2.789"/>
<rect x="249.695" y="356.862" style="fill-rule:evenodd;clip-rule:evenodd;fill:#F28F3E;" width="21.704" height="2.789"/>
<rect x="249.695" y="363.064" style="fill-rule:evenodd;clip-rule:evenodd;fill:#F28F3E;" width="21.704" height="2.79"/>
<rect x="249.695" y="369.25" style="fill-rule:evenodd;clip-rule:evenodd;fill:#F28F3E;" width="21.704" height="2.79"/>
<rect x="249.695" y="375.437" style="fill-rule:evenodd;clip-rule:evenodd;fill:#F28F3E;" width="21.704" height="2.806"/>
<rect x="249.695" y="333.072" style="fill-rule:evenodd;clip-rule:evenodd;fill:#F9B41D;" width="21.617" height="2.789"/>
<polygon style="fill-rule:evenodd;clip-rule:evenodd;fill:#F28F3E;" points="256.566,353.465 270.966,353.465 270.966,350.676
				257.086,350.676 			"/>
<polygon style="fill-rule:evenodd;clip-rule:evenodd;fill:#F28F3E;" points="257.71,347.279 270.966,347.279 270.966,344.473
				258.23,344.473 			"/>
<path style="fill-rule:evenodd;clip-rule:evenodd;fill:#FFFFFF;" d="M249.695,351.185l0.478-0.197l0.485-0.277l0.502-0.296
				l-0.692,4.263l-0.279,0.138l-0.277,0.139l-0.218,0.082V351.185L249.695,351.185z M249.695,337.917l0.27,0.179l0.572,0.486
				l0.52,0.588l0.433,0.693l0.346,0.797l0.243,0.919l0.139,1.039l0.017,1.179l-0.122,1.316l-0.259,1.457l-0.086,1.057h-2.072
				V337.917z"/>
<path style="fill-rule:evenodd;clip-rule:evenodd;fill:none;stroke:#FFFFFF;stroke-width:0.216;stroke-miterlimit:22.9256;" d="
				M249.695,351.185l0.478-0.197l0.485-0.277l0.502-0.296l-0.692,4.263l-0.279,0.138l-0.277,0.139l-0.218,0.082V351.185
				L249.695,351.185z M249.695,337.917l0.27,0.179l0.572,0.486l0.52,0.588l0.433,0.693l0.346,0.797l0.243,0.919l0.139,1.039
				l0.017,1.179l-0.122,1.316l-0.259,1.457l-0.086,1.057h-2.072V337.917z"/>
<polygon style="fill-rule:evenodd;clip-rule:evenodd;fill:#FFFFFF;" points="281.865,338.131 281.638,338.009 281.414,337.906
				281.172,337.784 280.911,337.663 280.651,337.558 280.357,337.455 280.061,337.351 279.749,337.247 279.421,337.161
				279.091,337.092 278.728,337.022 278.364,336.97 277.965,336.935 277.566,336.902 277.15,336.902 276.718,336.902
				276.285,336.902 275.835,336.935 275.366,336.987 274.882,337.074 274.397,337.214 273.911,337.403 273.426,337.645
				272.94,337.959 272.473,338.338 272.022,338.789 271.589,339.344 271.173,339.985 270.792,340.747 270.428,341.614
				270.099,342.584 269.822,343.693 269.717,344.317 269.648,344.923 269.615,345.529 269.63,346.119 269.683,346.708
				269.804,347.263 269.96,347.782 270.151,348.302 270.41,348.77 270.722,349.221 271.087,349.618 271.502,349.982 271.97,350.294
				272.508,350.555 273.097,350.779 273.754,350.936 273.981,350.988 274.24,351.04 274.552,351.075 274.898,351.108
				275.28,351.143 275.678,351.143 276.111,351.143 276.545,351.108 276.995,351.056 277.446,350.971 277.878,350.849
				278.312,350.711 278.745,350.52 279.144,350.294 279.507,350.017 279.854,349.705 279.074,354.332 278.97,354.419
				278.867,354.522 278.728,354.644 278.572,354.748 278.381,354.886 278.139,355.007 277.862,355.128 277.55,355.232
				277.15,355.354 276.7,355.441 276.181,355.51 275.575,355.578 274.898,355.613 274.119,355.631 273.235,355.613 272.265,355.563
				271.469,355.474 270.671,355.302 269.874,355.042 269.077,354.696 268.314,354.28 267.587,353.759 266.893,353.154
				266.253,352.461 265.681,351.681 265.195,350.814 264.781,349.844 264.467,348.788 264.26,347.627 264.191,346.396
				264.225,345.045 264.416,343.606 264.554,342.895 264.709,342.202 264.883,341.527 265.057,340.886 265.247,340.279
				265.473,339.673 265.698,339.101 265.94,338.564 266.2,338.027 266.461,337.525 266.755,337.039 267.066,336.589
				267.378,336.155 267.725,335.739 268.072,335.358 268.436,334.994 268.834,334.648 269.232,334.319 269.648,334.024
				270.081,333.746 270.55,333.487 271.018,333.262 271.502,333.055 272.005,332.863 272.543,332.691 273.079,332.552
				273.634,332.43 274.223,332.327 274.813,332.24 275.436,332.171 276.059,332.136 276.718,332.118 277.272,332.136
				277.81,332.171 278.329,332.223 278.85,332.291 279.333,332.36 279.802,332.465 280.253,332.552 280.669,332.655
				281.067,332.759 281.414,332.863 281.743,332.968 282.02,333.072 282.263,333.158 282.47,333.227 282.627,333.297
				282.73,333.332 			"/>

<polygon style="fill-rule:evenodd;clip-rule:evenodd;fill:none;stroke:#FFFFFF;stroke-width:0.216;stroke-miterlimit:22.9256;" points="
				281.865,338.131 281.638,338.009 281.414,337.906 281.172,337.784 280.911,337.663 280.651,337.558 280.357,337.455
				280.061,337.351 279.749,337.247 279.421,337.161 279.091,337.092 278.728,337.022 278.364,336.97 277.965,336.935
				277.566,336.902 277.15,336.902 276.718,336.902 276.285,336.902 275.835,336.935 275.366,336.987 274.882,337.074
				274.397,337.214 273.911,337.403 273.426,337.645 272.94,337.959 272.473,338.338 272.022,338.789 271.589,339.344
				271.173,339.985 270.792,340.747 270.428,341.614 270.099,342.584 269.822,343.693 269.717,344.317 269.648,344.923
				269.615,345.529 269.63,346.119 269.683,346.708 269.804,347.263 269.96,347.782 270.151,348.302 270.41,348.77 270.722,349.221
				271.087,349.618 271.502,349.982 271.97,350.294 272.508,350.555 273.097,350.779 273.754,350.936 273.981,350.988
				274.24,351.04 274.552,351.075 274.898,351.108 275.28,351.143 275.678,351.143 276.111,351.143 276.545,351.108
				276.995,351.056 277.446,350.971 277.878,350.849 278.312,350.711 278.745,350.52 279.144,350.294 279.507,350.017
				279.854,349.705 279.074,354.332 278.97,354.419 278.867,354.522 278.728,354.644 278.572,354.748 278.381,354.886
				278.139,355.007 277.862,355.128 277.55,355.232 277.15,355.354 276.7,355.441 276.181,355.51 275.575,355.578 274.898,355.613
				274.119,355.631 273.235,355.613 272.265,355.563 271.469,355.474 270.671,355.302 269.874,355.042 269.077,354.696
				268.314,354.28 267.587,353.759 266.893,353.154 266.253,352.461 265.681,351.681 265.195,350.814 264.781,349.844
				264.467,348.788 264.26,347.627 264.191,346.396 264.225,345.045 264.416,343.606 264.554,342.895 264.709,342.202
				264.883,341.527 265.057,340.886 265.247,340.279 265.473,339.673 265.698,339.101 265.94,338.564 266.2,338.027
				266.461,337.525 266.755,337.039 267.066,336.589 267.378,336.155 267.725,335.739 268.072,335.358 268.436,334.994
				268.834,334.648 269.232,334.319 269.648,334.024 270.081,333.746 270.55,333.487 271.018,333.262 271.502,333.055
				272.005,332.863 272.543,332.691 273.079,332.552 273.634,332.43 274.223,332.327 274.813,332.24 275.436,332.171
				276.059,332.136 276.718,332.118 277.272,332.136 277.81,332.171 278.329,332.223 278.85,332.291 279.333,332.36
				279.802,332.465 280.253,332.552 280.669,332.655 281.067,332.759 281.414,332.863 281.743,332.968 282.02,333.072
				282.263,333.158 282.47,333.227 282.627,333.297 282.73,333.332 			"/>
<polygon style="fill-rule:evenodd;clip-rule:evenodd;fill:#FFFFFF;" points="324.523,355.648 319.723,355.648 320.071,353.725
				320.071,353.552 319.793,353.899 319.499,354.21 319.204,354.487 318.892,354.731 318.58,354.955 318.269,355.147
				317.956,355.302 317.627,355.458 317.298,355.578 316.968,355.666 316.64,355.753 316.293,355.805 315.947,355.855
				315.618,355.89 315.271,355.909 314.924,355.909 314.023,355.838 313.192,355.648 312.429,355.354 311.736,354.955
				311.113,354.452 310.558,353.864 310.073,353.222 309.657,352.496 309.31,351.716 309.033,350.901 308.843,350.052
				308.703,349.169 308.652,348.285 308.67,347.383 308.756,346.499 308.911,345.616 309.172,344.594 309.483,343.623
				309.847,342.74 310.281,341.908 310.731,341.129 311.252,340.436 311.788,339.811 312.36,339.24 312.966,338.737
				313.607,338.305 314.267,337.922 314.924,337.628 315.618,337.386 316.311,337.231 317.003,337.127 317.714,337.092
				318.217,337.109 318.702,337.161 319.152,337.247 319.567,337.368 319.966,337.508 320.312,337.663 320.66,337.854
				320.971,338.044 321.249,338.253 321.508,338.477 321.733,338.704 321.942,338.928 322.115,339.153 322.271,339.379
				322.409,339.586 322.514,339.795 323.726,332.985 328.44,332.985 			"/>

<polygon style="fill-rule:evenodd;clip-rule:evenodd;fill:none;stroke:#FFFFFF;stroke-width:0.216;stroke-miterlimit:22.9256;" points="
				324.523,355.648 319.723,355.648 320.071,353.725 320.071,353.552 319.793,353.899 319.499,354.21 319.204,354.487
				318.892,354.731 318.58,354.955 318.269,355.147 317.956,355.302 317.627,355.458 317.298,355.578 316.968,355.666
				316.64,355.753 316.293,355.805 315.947,355.855 315.618,355.89 315.271,355.909 314.924,355.909 314.023,355.838
				313.192,355.648 312.429,355.354 311.736,354.955 311.113,354.452 310.558,353.864 310.073,353.222 309.657,352.496
				309.31,351.716 309.033,350.901 308.843,350.052 308.703,349.169 308.652,348.285 308.67,347.383 308.756,346.499
				308.911,345.616 309.172,344.594 309.483,343.623 309.847,342.74 310.281,341.908 310.731,341.129 311.252,340.436
				311.788,339.811 312.36,339.24 312.966,338.737 313.607,338.305 314.267,337.922 314.924,337.628 315.618,337.386
				316.311,337.231 317.003,337.127 317.714,337.092 318.217,337.109 318.702,337.161 319.152,337.247 319.567,337.368
				319.966,337.508 320.312,337.663 320.66,337.854 320.971,338.044 321.249,338.253 321.508,338.477 321.733,338.704
				321.942,338.928 322.115,339.153 322.271,339.379 322.409,339.586 322.514,339.795 323.726,332.985 328.44,332.985 			"/>
<polygon style="fill-rule:evenodd;clip-rule:evenodd;fill:#F28F3E;" points="316.674,351.455 317.16,351.42 317.611,351.317
				318.026,351.195 318.424,351.004 318.788,350.797 319.135,350.537 319.464,350.243 319.759,349.93 320.018,349.585
				320.26,349.202 320.487,348.805 320.676,348.388 320.85,347.956 320.99,347.505 321.11,347.037 321.197,346.57 321.283,346.084
				321.335,345.581 321.335,345.113 321.318,344.629 321.266,344.178 321.197,343.745 321.075,343.329 320.937,342.93
				320.763,342.584 320.555,342.255 320.33,341.978 320.071,341.736 319.776,341.527 319.464,341.388 319.135,341.301
				318.771,341.266 318.303,341.301 317.87,341.37 317.472,341.51 317.073,341.682 316.727,341.908 316.38,342.185 316.086,342.479
				315.79,342.808 315.531,343.191 315.288,343.59 315.062,344.004 314.873,344.455 314.699,344.923 314.559,345.392
				314.422,345.893 314.318,346.396 314.231,347.158 314.267,347.991 314.387,348.838 314.612,349.653 314.959,350.363
				315.41,350.936 315.981,351.317 			"/>
<polygon style="fill-rule:evenodd;clip-rule:evenodd;fill:#FFFFFF;" points="296.263,351.803 295.552,355.648 291.204,355.648
				291.238,354.938 291.256,354.315 291.256,353.847 291.29,353.639 291.065,353.899 290.805,354.16 290.493,354.4 290.147,354.644
				289.783,354.868 289.367,355.077 288.934,355.284 288.5,355.458 288.032,355.596 287.548,355.735 287.062,355.822
				286.577,355.89 286.075,355.927 285.59,355.944 285.121,355.89 284.654,355.822 284.03,355.666 283.476,355.493 282.991,355.267
				282.54,355.007 282.159,354.731 281.829,354.419 281.552,354.088 281.31,353.742 281.101,353.378 280.945,352.997
				280.808,352.616 280.721,352.235 280.651,351.838 280.599,351.439 280.565,351.056 280.565,350.676 280.599,349.999
				280.703,349.359 280.859,348.751 281.085,348.163 281.344,347.609 281.674,347.106 282.038,346.621 282.436,346.187
				282.886,345.788 283.355,345.426 283.856,345.096 284.394,344.819 284.932,344.577 285.503,344.385 286.075,344.23
				286.664,344.126 286.699,344.126 286.785,344.109 286.906,344.091 287.08,344.074 287.304,344.039 287.548,344.022
				287.807,343.987 288.084,343.954 288.379,343.917 288.691,343.884 288.986,343.867 289.28,343.832 289.557,343.814
				289.801,343.797 290.043,343.78 290.234,343.78 290.648,343.78 291.065,343.797 291.463,343.814 291.844,343.814
				292.173,343.832 292.451,343.848 292.607,343.867 292.676,343.867 292.711,343.745 292.763,343.433 292.815,343.07
				292.85,342.74 292.78,342.359 292.642,342.013 292.416,341.701 292.156,341.44 291.844,341.216 291.48,341.059 291.099,340.954
				290.683,340.921 290.198,340.902 289.679,340.886 289.141,340.886 288.587,340.902 288.016,340.937 287.461,340.989
				286.906,341.042 286.37,341.111 285.849,341.181 285.346,341.266 284.896,341.353 284.481,341.44 284.1,341.545 283.788,341.649
				283.544,341.769 283.355,341.874 284.567,337.698 284.948,337.541 285.346,337.403 285.745,337.281 286.161,337.194
				286.595,337.109 287.028,337.039 287.478,336.97 287.946,336.935 288.431,336.902 288.934,336.883 289.437,336.865
				289.973,336.865 290.511,336.865 291.065,336.865 291.655,336.883 292.243,336.902 292.729,336.935 293.247,337.022
				293.785,337.144 294.34,337.299 294.877,337.508 295.414,337.75 295.934,338.044 296.419,338.373 296.852,338.754
				297.251,339.17 297.597,339.638 297.857,340.159 298.048,340.712 298.168,341.301 298.168,341.961 298.081,342.653 			"/>
<polygon style="fill-rule:evenodd;clip-rule:evenodd;fill:#FFFFFF;" points="295.552,355.77 295.656,355.666 296.367,351.819
				296.16,351.784 295.448,355.631 295.552,355.526 295.552,355.77 295.639,355.753 295.656,355.666 			"/>
<polygon style="fill-rule:evenodd;clip-rule:evenodd;fill:#FFFFFF;" points="291.099,355.648 291.204,355.77 295.552,355.77
				295.552,355.526 291.204,355.526 291.307,355.648 291.099,355.648 291.082,355.77 291.204,355.77 			"/>
<polygon style="fill-rule:evenodd;clip-rule:evenodd;fill:#FFFFFF;" points="291.377,353.707 291.221,353.57 291.151,353.847
				291.134,354.315 291.134,354.938 291.099,355.648 291.307,355.648 291.342,354.938 291.377,354.315 291.358,353.847
				291.358,353.707 291.204,353.57 			"/>
<polygon style="fill-rule:evenodd;clip-rule:evenodd;fill:#FFFFFF;" points="284.636,355.927 285.121,355.994 285.59,356.047
				286.075,356.029 286.577,355.994 287.08,355.927 287.565,355.838 288.049,355.7 288.535,355.563 288.968,355.389
				289.419,355.182 289.834,354.973 290.198,354.731 290.562,354.487 290.875,354.245 291.151,353.968 291.377,353.707
				291.204,353.57 290.979,353.829 290.735,354.071 290.424,354.315 290.095,354.557 289.731,354.764 289.315,354.973
				288.899,355.182 288.465,355.354 288.016,355.493 287.531,355.631 287.045,355.718 286.577,355.787 286.075,355.822
				285.59,355.838 285.121,355.787 284.671,355.718 			"/>
<polygon style="fill-rule:evenodd;clip-rule:evenodd;fill:#FFFFFF;" points="280.444,350.676 280.461,351.056 280.495,351.439
				280.547,351.853 280.616,352.254 280.703,352.633 280.842,353.032 280.997,353.43 281.223,353.794 281.466,354.16
				281.743,354.487 282.089,354.816 282.489,355.094 282.939,355.371 283.441,355.596 284.012,355.77 284.636,355.927
				284.671,355.718 284.047,355.563 283.509,355.389 283.042,355.162 282.592,354.92 282.228,354.644 281.917,354.35
				281.638,354.021 281.396,353.691 281.206,353.328 281.05,352.962 280.911,352.6 280.824,352.217 280.756,351.819
				280.703,351.439 280.669,351.056 280.686,350.676 			"/>
<polygon style="fill-rule:evenodd;clip-rule:evenodd;fill:#FFFFFF;" points="286.664,344.022 286.057,344.126 285.469,344.281
				284.896,344.473 284.342,344.714 283.804,344.993 283.285,345.339 282.817,345.703 282.367,346.119 281.95,346.553
				281.587,347.037 281.24,347.557 280.98,348.128 280.756,348.718 280.599,349.341 280.495,349.999 280.444,350.676
				280.686,350.676 280.703,349.999 280.808,349.376 280.963,348.788 281.188,348.198 281.448,347.66 281.761,347.176
				282.125,346.69 282.505,346.257 282.956,345.876 283.424,345.512 283.909,345.2 284.446,344.923 284.966,344.681 285.537,344.49
				286.092,344.333 286.664,344.23 			"/>
<polygon style="fill-rule:evenodd;clip-rule:evenodd;fill:#FFFFFF;" points="290.234,343.658 290.043,343.658 289.801,343.693
				289.557,343.71 289.28,343.727 288.986,343.762 288.691,343.78 288.379,343.814 288.084,343.848 287.807,343.884
				287.548,343.917 287.304,343.935 287.08,343.969 286.906,343.987 286.768,344.004 286.699,344.022 286.664,344.022
				286.664,344.23 286.699,344.23 286.802,344.213 286.906,344.196 287.08,344.178 287.304,344.143 287.548,344.126
				287.807,344.091 288.084,344.057 288.379,344.022 288.691,343.987 288.986,343.969 289.28,343.935 289.557,343.917
				289.801,343.902 290.043,343.902 290.234,343.902 			"/>
<polygon style="fill-rule:evenodd;clip-rule:evenodd;fill:#FFFFFF;" points="292.572,343.848 292.676,343.762 292.607,343.762
				292.451,343.745 292.173,343.727 291.844,343.693 291.463,343.693 291.065,343.693 290.648,343.658 290.234,343.658
				290.234,343.902 290.648,343.902 291.065,343.902 291.463,343.935 291.844,343.935 292.173,343.935 292.451,343.954
				292.607,343.969 292.676,343.969 292.78,343.884 292.676,343.969 292.763,343.987 292.78,343.884 			"/>
<polygon style="fill-rule:evenodd;clip-rule:evenodd;fill:#FFFFFF;" points="292.746,342.74 292.729,342.74 292.711,343.07
				292.659,343.416 292.607,343.727 292.572,343.848 292.78,343.884 292.815,343.762 292.867,343.451 292.918,343.07 292.97,342.74
				292.954,342.74 			"/>
<polygon style="fill-rule:evenodd;clip-rule:evenodd;fill:#FFFFFF;" points="290.683,341.024 290.683,341.042 291.082,341.059
				291.446,341.163 291.793,341.32 292.087,341.527 292.33,341.769 292.538,342.065 292.676,342.377 292.746,342.74 292.954,342.74
				292.883,342.342 292.746,341.961 292.502,341.632 292.225,341.353 291.896,341.111 291.515,340.954 291.117,340.852
				290.683,340.799 290.683,340.817 			"/>
<polygon style="fill-rule:evenodd;clip-rule:evenodd;fill:#FFFFFF;" points="283.25,341.856 283.424,341.961 283.596,341.874
				283.823,341.752 284.117,341.649 284.497,341.545 284.914,341.458 285.363,341.37 285.866,341.285 286.37,341.216
				286.906,341.146 287.461,341.094 288.016,341.042 288.587,341.008 289.141,341.008 289.679,341.008 290.198,341.008
				290.683,341.024 290.683,340.817 290.198,340.799 289.679,340.765 289.141,340.765 288.587,340.799 288.016,340.834
				287.461,340.886 286.906,340.937 286.37,341.008 285.832,341.076 285.33,341.163 284.879,341.25 284.463,341.337 284.082,341.44
				283.753,341.545 283.492,341.665 283.285,341.788 283.458,341.891 			"/>
<polygon style="fill-rule:evenodd;clip-rule:evenodd;fill:#FFFFFF;" points="284.532,337.593 284.463,337.68 283.25,341.856
				283.458,341.891 284.671,337.715 284.603,337.802 284.532,337.593 284.481,337.611 284.463,337.68 			"/>
<polygon style="fill-rule:evenodd;clip-rule:evenodd;fill:#FFFFFF;" points="292.243,336.797 291.655,336.763 291.065,336.745
				290.511,336.745 289.973,336.745 289.437,336.745 288.934,336.78 288.431,336.797 287.946,336.831 287.478,336.865
				287.01,336.935 286.577,337.005 286.144,337.092 285.728,337.177 285.312,337.299 284.914,337.438 284.532,337.593
				284.603,337.802 284.983,337.645 285.382,337.508 285.762,337.386 286.178,337.299 286.612,337.214 287.045,337.144
				287.478,337.074 287.946,337.039 288.431,337.005 288.934,336.987 289.437,336.987 289.973,336.987 290.511,336.987
				291.065,336.987 291.655,337.005 292.243,337.005 			"/>
<polygon style="fill-rule:evenodd;clip-rule:evenodd;fill:#FFFFFF;" points="298.186,342.671 298.273,341.961 298.273,341.301
				298.153,340.695 297.961,340.124 297.684,339.586 297.338,339.101 296.922,338.669 296.489,338.286 295.985,337.959
				295.466,337.645 294.911,337.403 294.374,337.194 293.802,337.039 293.266,336.918 292.729,336.831 292.243,336.797
				292.243,337.005 292.729,337.039 293.23,337.127 293.768,337.247 294.306,337.403 294.843,337.611 295.362,337.854
				295.881,338.131 296.349,338.46 296.783,338.841 297.164,339.24 297.51,339.691 297.753,340.192 297.944,340.73 298.066,341.301
				298.066,341.961 297.979,342.636 			"/>
<polygon style="fill-rule:evenodd;clip-rule:evenodd;fill:#FFFFFF;" points="296.367,351.819 298.186,342.671 297.979,342.636
				296.16,351.784 			"/>
<polygon style="fill-rule:evenodd;clip-rule:evenodd;fill:#F28F3E;" points="292.07,347.279 292.036,347.176 291.966,347.089
				291.844,347.037 291.672,346.984 291.48,346.967 291.256,346.95 290.996,346.95 290.735,346.967 290.459,347.002
				290.182,347.037 289.904,347.071 289.644,347.106 289.384,347.158 289.158,347.193 288.934,347.245 288.76,347.279
				288.639,347.298 288.5,347.348 288.328,347.4 288.136,347.47 287.912,347.575 287.703,347.677 287.461,347.799 287.236,347.956
				287.01,348.111 286.785,348.302 286.595,348.494 286.404,348.718 286.248,348.96 286.126,349.221 286.023,349.498
				285.971,349.792 285.953,350.381 286.04,350.849 286.178,351.195 286.387,351.455 286.646,351.629 286.94,351.733
				287.236,351.784 287.531,351.803 288.049,351.784 288.535,351.733 288.986,351.646 289.384,351.526 289.766,351.387
				290.095,351.23 290.406,351.056 290.683,350.849 290.926,350.657 291.134,350.433 291.324,350.226 291.48,349.999
				291.602,349.792 291.689,349.585 291.758,349.376 291.809,349.186 291.879,348.701 291.966,348.198 292.036,347.712 			"/>
<polygon style="fill-rule:evenodd;clip-rule:evenodd;fill:#FFFFFF;" points="297.563,355.648 302.449,355.648 304.199,345.788
				304.268,345.409 304.371,345.026 304.476,344.647 304.614,344.265 304.788,343.884 304.996,343.52 305.221,343.172
				305.499,342.843 305.81,342.549 306.157,342.272 306.555,342.013 307.006,341.804 307.507,341.632 308.063,341.492
				308.67,341.388 309.346,341.353 309.588,341.353 309.725,341.353 309.777,341.353 310.558,336.902 310.073,336.935
				309.605,336.987 309.172,337.074 308.756,337.194 308.374,337.334 308.011,337.508 307.664,337.698 307.335,337.906
				307.023,338.148 306.729,338.392 306.451,338.669 306.174,338.946 305.914,339.24 305.654,339.569 305.394,339.88
				305.152,340.227 305.672,337.092 300.802,337.092 			"/>

<polygon style="fill-rule:evenodd;clip-rule:evenodd;fill:none;stroke:#FFFFFF;stroke-width:0.216;stroke-miterlimit:22.9256;" points="
				297.563,355.648 302.449,355.648 304.199,345.788 304.268,345.409 304.371,345.026 304.476,344.647 304.614,344.265
				304.788,343.884 304.996,343.52 305.221,343.172 305.499,342.843 305.81,342.549 306.157,342.272 306.555,342.013
				307.006,341.804 307.507,341.632 308.063,341.492 308.67,341.388 309.346,341.353 309.588,341.353 309.725,341.353
				309.777,341.353 310.558,336.902 310.073,336.935 309.605,336.987 309.172,337.074 308.756,337.194 308.374,337.334
				308.011,337.508 307.664,337.698 307.335,337.906 307.023,338.148 306.729,338.392 306.451,338.669 306.174,338.946
				305.914,339.24 305.654,339.569 305.394,339.88 305.152,340.227 305.672,337.092 300.802,337.092 			"/>
<polygon style="fill-rule:evenodd;clip-rule:evenodd;fill:#FFFFFF;" points="251.68,355.648 256.566,355.648 256.653,355.648
				258.317,345.788 258.385,345.409 258.472,345.045 258.559,344.681 258.681,344.333 258.819,343.987 258.993,343.658
				259.2,343.346 259.442,343.052 259.72,342.793 260.032,342.532 260.413,342.324 260.829,342.133 261.314,341.978
				261.851,341.839 262.441,341.752 263.117,341.701 263.169,341.701 263.238,341.717 263.325,341.736 263.411,341.736
				263.498,341.752 263.567,341.769 263.62,341.788 263.636,341.788 263.653,341.717 263.705,341.51 263.775,341.198
				263.862,340.817 263.982,340.366 264.104,339.88 264.26,339.396 264.416,338.911 264.554,338.582 264.728,338.253
				264.901,337.922 265.074,337.628 265.232,337.368 265.352,337.161 265.437,337.039 265.473,336.987 265.456,336.987
				265.386,336.97 265.299,336.952 265.178,336.935 265.057,336.935 264.918,336.918 264.796,336.902 264.676,336.902
				264.138,336.935 263.653,336.987 263.203,337.074 262.788,337.177 262.388,337.316 262.024,337.49 261.696,337.663
				261.384,337.87 261.089,338.096 260.812,338.355 260.552,338.617 260.291,338.911 260.032,339.205 259.79,339.534
				259.529,339.88 259.27,340.227 259.893,337.092 254.92,337.092 			"/>

<polygon style="fill-rule:evenodd;clip-rule:evenodd;fill:none;stroke:#FFFFFF;stroke-width:0.216;stroke-miterlimit:22.9256;" points="
				251.68,355.648 256.566,355.648 256.653,355.648 258.317,345.788 258.385,345.409 258.472,345.045 258.559,344.681
				258.681,344.333 258.819,343.987 258.993,343.658 259.2,343.346 259.442,343.052 259.72,342.793 260.032,342.532
				260.413,342.324 260.829,342.133 261.314,341.978 261.851,341.839 262.441,341.752 263.117,341.701 263.169,341.701
				263.238,341.717 263.325,341.736 263.411,341.736 263.498,341.752 263.567,341.769 263.62,341.788 263.636,341.788
				263.653,341.717 263.705,341.51 263.775,341.198 263.862,340.817 263.982,340.366 264.104,339.88 264.26,339.396
				264.416,338.911 264.554,338.582 264.728,338.253 264.901,337.922 265.074,337.628 265.232,337.368 265.352,337.161
				265.437,337.039 265.473,336.987 265.456,336.987 265.386,336.97 265.299,336.952 265.178,336.935 265.057,336.935
				264.918,336.918 264.796,336.902 264.676,336.902 264.138,336.935 263.653,336.987 263.203,337.074 262.788,337.177
				262.388,337.316 262.024,337.49 261.696,337.663 261.384,337.87 261.089,338.096 260.812,338.355 260.552,338.617
				260.291,338.911 260.032,339.205 259.79,339.534 259.529,339.88 259.27,340.227 259.893,337.092 254.92,337.092 			"/>
</g>
<path style="fill-rule:evenodd;clip-rule:evenodd;fill:#FFFFFF;" d="M241.181,344.213c1.18,1.779-1.7-2.538-1.823,0.571
			c-0.02,0.506-1.836,5.616,1.505,2.616C242.624,345.818,242.114,345.62,241.181,344.213z"/>
</g>
</g>
</svg>