<svg version="1.1" id="stud-svg-icon-qiwi"
     xmlns="http://www.w3.org/2000/svg" xmlns:xlink="http://www.w3.org/1999/xlink" x="0px" y="0px" width="45px" height="45px"
     viewBox="0 0 500 500" style="enable-background:new 0 0 500 500;" xml:space="preserve">
<path style="fill-rule:evenodd;clip-rule:evenodd;fill:#FFFFFF;" d="M250,500c137.695,0,250-112.302,250-249.992
	C500,112.317,387.695,0.017,250,0.017S0,112.317,0,250.008C0,387.698,112.305,500,250,500z"/>
                        <g>
                            <path style="fill-rule:evenodd;clip-rule:evenodd;fill:#ED7402;" d="M321.853,236.387c-0.355-1.617-1.591-5.005-3.704-5.824
		c-2.071-0.769-2.259,1.681-1.738,3.27c1.162,3.73,2.729,6.59,3.867,7.158C321.383,241.657,322.676,240.124,321.853,236.387z"/>
                            <path style="fill-rule:evenodd;clip-rule:evenodd;fill:#ED7402;" d="M305.312,240.298c-0.934-1.379-2.189-2.338-3.549-2.822
		c-0.031-0.023-0.056-0.023-0.094-0.05c-0.064,0-0.111-0.026-0.152-0.036c-0.072-0.028-0.131-0.058-0.19-0.074
		c-0.044,0-0.098,0-0.117-0.02c-0.104-0.026-0.205-0.052-0.315-0.093l0,0c-1.314-0.234-2.61-0.036-3.698,0.662
		c-2.442,1.669-2.817,5.432-0.814,8.434c0.935,1.36,2.192,2.308,3.543,2.822c0.018,0,0.05,0,0.104,0.037
		c0.037,0.008,0.103,0.039,0.139,0.05c0.068,0.027,0.129,0.027,0.186,0.045c0.056,0,0.079,0.017,0.123,0.034
		c0.103,0.023,0.192,0.068,0.304,0.077l0,0c1.297,0.259,2.609,0.065,3.699-0.661C306.94,247.035,307.314,243.289,305.312,240.298z"
                                />
                            <path style="fill-rule:evenodd;clip-rule:evenodd;fill:#F28F3E;" d="M319.444,263.283c3.926,1.286,8.419,2.966,12.405,5.342
		c11.498,6.845,22.101,15.782,28.078,27.941c0.923,1.857,1.434,3.182,1.698,4.129v2.254c-0.03,0.028-0.058,0.047-0.083,0.059
		c-1.045,0.534-1.433-0.581-1.433-0.581c-1.325-3.18-3.769-5.973-3.769-5.973c-28.247-33.365-68.829-29.816-80.681-26.087
		c-31.351,9.921-86.035-1.065-109.349-37.067c-28.379-43.764-13.909-103.509,32.314-133.484
		c17.325-11.231,36.659-16.681,55.553-16.795c31.494-0.19,61.771,14.436,79.498,41.795c22.266,34.335,18.112,78.555-7.057,110.478
		c-0.883-5.079-2.954-10.09-6.273-14.599c-0.283-0.422-0.582-0.821-0.866-1.211c-1.291-1.607-2.699-3.061-4.173-4.365
		c0.606-1.555,1.175-3.131,1.658-4.75c6.404-21.013,2.577-46.85-12.364-69.053c-23.808-35.388-68.271-49.216-97.433-29.61
		c-29.165,19.595-36.882,63.965-15.001,100.582c11.886,19.893,37.837,36.302,67.433,37.633c-3.217-9.131-1.594-15.645-1.594-15.645
		c-0.238,0.98,2.103,3.822,2.568,4.55c2.491,3.633,5.475,7.05,9.132,9.548c7.005,4.76,13.541,8.162,21.813,9.578
		C301.694,259.688,310.427,260.367,319.444,263.283z"/>
                            <path style="fill-rule:evenodd;clip-rule:evenodd;fill:#ED7402;" d="M319.444,263.283c3.926,1.286,8.419,2.966,12.405,5.342
		c11.498,6.845,22.101,15.782,28.078,27.941c0.923,1.857,1.434,3.182,1.698,4.129v2.254c-0.03,0.028-0.058,0.047-0.083,0.059
		c-1.045,0.534-1.433-0.581-1.433-0.581c-1.325-3.18-3.769-5.973-3.769-5.973c-28.247-33.365-68.829-29.816-80.681-26.087
		c-7.598,2.402-16.566,3.576-26.125,3.466v-24.955c3.297,0.536,6.658,0.892,10.068,1.045c-3.217-9.131-1.594-15.645-1.594-15.645
		c-0.238,0.98,2.103,3.822,2.568,4.55c2.491,3.633,5.475,7.05,9.132,9.548c7.005,4.76,13.541,8.162,21.813,9.578
		C301.694,259.688,310.427,260.367,319.444,263.283L319.444,263.283z M249.534,83.157v20.695c20.627,3.75,41.3,17.004,55.068,37.466
		c14.941,22.203,18.768,48.04,12.364,69.053c-0.483,1.619-1.052,3.194-1.658,4.75c1.474,1.304,2.882,2.758,4.173,4.365
		c0.284,0.39,0.583,0.789,0.866,1.211c3.319,4.509,5.39,9.52,6.273,14.599c25.169-31.923,29.323-76.143,7.057-110.478
		c-17.728-27.359-48.005-41.985-79.498-41.795C252.633,83.03,251.085,83.076,249.534,83.157z"/>
                            <path style="fill-rule:evenodd;clip-rule:evenodd;fill:#ED7402;" d="M315.308,215.121c0,0-10.024-10.089-22.698-8.784
		c0,0,11.677-4.753,24.405,4.649L315.308,215.121z"/>
                            <path style="fill-rule:evenodd;clip-rule:evenodd;fill:#3692D0;" d="M189.007,342.274c-4.207-6.552-9.948-7.107-12.083-7.107
		c-4.511,0-9.355,2.446-12.56,7.398c-3.266,5.257-4.114,12.73-4.114,19.004c0,5.79,0.759,13.566,4.114,19.282
		c4.696,7.776,11.247,7.776,12.463,7.776c4.582,0,9.649-2.46,13.01-8.345c3.178-5.717,3.748-13.588,3.65-19.087
		C193.488,356.7,192.931,348.367,189.007,342.274L189.007,342.274z M206.218,411.276c2.338,0.545,3.736,0.931,3.736,2.978
		c0,1.031-0.64,2.726-3.268,2.726c-1.865,0-26.399-2.834-34.066-20.882c-18.532-2.991-25.556-18.614-25.556-33.802
		c0-23.194,13.655-35.015,29.945-35.015c17.686,0,29.677,14.074,29.677,34.288c0,11.13-4.029,27.326-20.766,33.6
		C189.007,405.728,200.611,409.761,206.218,411.276z"/>
                            <path style="fill-rule:evenodd;clip-rule:evenodd;fill:#3692D0;" d="M236.63,392.805c0,1.807-0.828,2.058-2.046,2.058h-8.716
		c-1.302-0.083-2.039-0.338-2.039-2.058v-62.037c0.084-1.307,0.262-1.962,1.937-1.962h8.907c1.408,0,1.957,0.293,1.957,1.962
		V392.805z"/>
                            <path style="fill-rule:evenodd;clip-rule:evenodd;fill:#1C85C7;" d="M291.019,353.128l-12.542,39.896
		c-0.473,1.391-0.675,1.671-1.593,1.755c-0.273,0.083-2.805,0.083-4.191,0.083c-1.679,0-2.173-0.251-2.642-1.755l-17.506-61.407
		c-0.299-1.017-0.299-1.126-0.299-1.488c0-1.114,0.869-1.407,1.801-1.407h8.793c1.575,0,1.967,0.075,2.434,2.049l10.792,42.694
		l13.089-42.864c0.456-1.333,0.653-1.878,1.676-1.878h3.567c0.646,0.193,0.736,0.364,1.297,2.145l13.296,42.598l10.868-42.864
		c0.362-1.514,0.847-1.878,2.148-1.878h6.362c1.038,0,1.87,0,1.87,1.212c0,0.364-0.089,0.75-0.263,1.683l-17.242,61.323
		c-0.474,1.501-0.743,1.838-2.048,1.838h-4.614c-0.917-0.083-1.208-0.338-1.675-1.755L291.019,353.128z"/>
                            <path style="fill-rule:evenodd;clip-rule:evenodd;fill:#1C85C7;" d="M358.785,392.805c0,1.807-0.838,2.058-2.05,2.058h-8.718
		c-1.296-0.083-2.042-0.338-2.042-2.058v-62.037c0.073-1.307,0.266-1.962,1.957-1.962h8.895c1.382,0,1.958,0.293,1.958,1.962
		V392.805z"/>
                        </g>
</svg>