<?xml version="1.0" encoding="UTF-8" standalone="no"?>
<svg
   xmlns:dc="http://purl.org/dc/elements/1.1/"
   xmlns:cc="http://creativecommons.org/ns#"
   xmlns:rdf="http://www.w3.org/1999/02/22-rdf-syntax-ns#"
   xmlns:svg="http://www.w3.org/2000/svg"
   xmlns="http://www.w3.org/2000/svg"
   xmlns:sodipodi="http://sodipodi.sourceforge.net/DTD/sodipodi-0.dtd"
   xmlns:inkscape="http://www.inkscape.org/namespaces/inkscape"
   version="1.1"
   id="stud-svg-icon-card"
   x="0px"
   y="0px"
   width="45px"
   height="45px"
   viewBox="0 0 500 500"
   style="enable-background:new 0 0 500 500;"
   xml:space="preserve"
   inkscape:version="0.48.4 r9939"
   sodipodi:docname="foot_icon-card.svg"><metadata
     id="metadata4804"><rdf:RDF><cc:Work
         rdf:about=""><dc:format>image/svg+xml</dc:format><dc:type
           rdf:resource="http://purl.org/dc/dcmitype/StillImage" /><dc:title></dc:title></cc:Work></rdf:RDF></metadata><defs
     id="defs4802" /><sodipodi:namedview
     pagecolor="#ffffff"
     bordercolor="#666666"
     borderopacity="1"
     objecttolerance="10"
     gridtolerance="10"
     guidetolerance="10"
     inkscape:pageopacity="0"
     inkscape:pageshadow="2"
     inkscape:window-width="1920"
     inkscape:window-height="1176"
     id="namedview4800"
     showgrid="false"
     inkscape:zoom="5.2444444"
     inkscape:cx="22.5"
     inkscape:cy="21.50181"
     inkscape:window-x="0"
     inkscape:window-y="24"
     inkscape:window-maximized="1"
     inkscape:current-layer="stud-svg-icon-card" /><path
     style="fill-rule:evenodd;clip-rule:evenodd;fill:#FFFFFF;"
     d="M250,500c137.695,0,250-112.305,250-250  C500,112.305,387.695,0,250,0S0,112.305,0,250C0,387.695,112.305,500,250,500z"
     id="path4536" /><path
     style="fill:#e2f0f5;fill-rule:evenodd"
     inkscape:connector-curvature="0"
     d="m 150.55,82.968269 h 198.73333 c 12.21112,0 22.21112,9.98889 22.21112,22.211111 v 108.71111 c 0,12.21111 -10,22.21111 -22.21112,22.21111 H 150.55 c -12.21111,0 -22.21111,-9.98889 -22.21111,-22.21111 V 105.17938 c 0,-12.211111 10,-22.211111 22.21111,-22.211111 z"
     id="path3" /><path
     style="fill:#ccdde4;fill-rule:evenodd"
     inkscape:connector-curvature="0"
     d="m 249.60556,82.968269 h 99.67777 c 12.21112,0 22.21112,9.98889 22.21112,22.211111 v 108.71111 c 0,12.21111 -10,22.21111 -22.21112,22.21111 H 249.60556 V 82.968269 z"
     id="path5" /><rect
     style="fill:#6e6bb1;fill-rule:evenodd"
     x="177.95"
     y="117.40161"
     width="143.93333"
     height="42.133335"
     id="rect7" /><rect
     style="fill:#f79147;fill-rule:evenodd"
     x="177.95"
     y="159.53494"
     width="143.93333"
     height="42.133335"
     id="rect9" /><rect
     style="fill:#524fa1;fill-rule:evenodd"
     x="249.60555"
     y="117.40161"
     width="72.277779"
     height="42.133335"
     id="rect11" /><rect
     style="fill:#f47b20;fill-rule:evenodd"
     x="249.60555"
     y="159.53494"
     width="72.277779"
     height="42.133335"
     id="rect13" /><path
     style="fill:#e2f0f5;fill-rule:evenodd"
     inkscape:connector-curvature="0"
     d="m 150.72778,255.42383 h 198.71111 c 12.24444,0 22.22222,10 22.22222,22.22222 v 108.7 c 0,12.23333 -9.97778,22.21111 -22.22222,22.21111 H 150.72778 c -12.22222,0 -22.21111,-9.97778 -22.21111,-22.21111 v -108.7 c 0.0111,-12.22222 10,-22.22222 22.21111,-22.22222 z"
     id="path15" /><path
     style="fill:#ccdde4;fill-rule:evenodd"
     inkscape:connector-curvature="0"
     d="m 249.78333,255.42383 h 99.65556 c 12.24444,0 22.22222,10 22.22222,22.22222 v 108.7 c 0,12.23333 -9.97778,22.21111 -22.22222,22.21111 H 249.78333 V 255.42383 z"
     id="path17" /><polygon
     transform="matrix(11.111111,0,0,11.111111,82.81667,78.401599)"
     style="fill:#f0513f;fill-rule:evenodd"
     points="13.492,26.839 13.686,26.773 13.877,26.697 14.063,26.612 14.243,26.521 14.419,26.419 14.59,26.31 14.754,26.191 14.913,26.067 15.064,25.934 15.21,25.794 15.349,25.648 15.481,25.495 15.606,25.335 15.723,25.172 15.831,25 15.934,24.824 16.026,24.643 16.109,24.455 16.185,24.265 16.25,24.067 16.307,23.868 16.354,23.665 16.392,23.457 16.417,23.247 16.434,23.032 16.438,22.814 16.434,22.6 16.417,22.388 16.392,22.177 16.354,21.972 16.307,21.768 16.25,21.569 16.185,21.374 16.109,21.184 16.026,20.997 15.934,20.817 15.831,20.642 15.723,20.472 15.606,20.306 15.481,20.149 15.349,19.996 15.21,19.85 15.064,19.71 14.913,19.578 14.754,19.453 14.59,19.336 14.419,19.227 14.243,19.126 14.063,19.033 13.877,18.948 13.686,18.873 13.492,18.807 13.292,18.75 13.089,18.702 12.881,18.667 12.671,18.64 12.458,18.624 12.242,18.618 12.024,18.624 11.81,18.64 11.601,18.667 11.392,18.702 11.189,18.75 10.989,18.807 10.793,18.873 10.602,18.948 10.415,19.033 10.233,19.126 10.057,19.227 9.886,19.336 9.721,19.453 9.563,19.578 9.409,19.71 9.263,19.85 9.122,19.996 8.99,20.149 8.866,20.306 8.748,20.472 8.639,20.642 8.536,20.817 8.444,20.997 8.359,21.184 8.284,21.374 8.218,21.569 8.161,21.768 8.114,21.972 8.077,22.177 8.05,22.388 8.035,22.6 8.028,22.814 8.035,23.032 8.05,23.247 8.077,23.457 8.114,23.665 8.161,23.868 8.218,24.067 8.284,24.265 8.359,24.455 8.444,24.643 8.536,24.824 8.639,25 8.748,25.172 8.866,25.335 8.99,25.495 9.122,25.648 9.263,25.794 9.409,25.934 9.563,26.067 9.721,26.191 9.886,26.31 10.057,26.419 10.233,26.521 10.415,26.612 10.602,26.697 10.793,26.773 10.989,26.839 11.189,26.897 11.392,26.942 11.601,26.979 11.81,27.007 12.024,27.023 12.242,27.027 12.458,27.023 12.671,27.007 12.881,26.979 13.089,26.942 13.292,26.897 "
     id="polygon21" /><polygon
     points="20.053,26.419 20.224,26.31 20.388,26.191 20.547,26.067 20.7,25.934 20.847,25.794 20.985,25.648 21.119,25.495 21.243,25.335 21.36,25.172 21.471,25 21.572,24.824 21.665,24.643 21.75,24.455 21.824,24.265 21.892,24.067 21.948,23.868 21.995,23.665 22.031,23.457 22.059,23.247 22.075,23.032 22.08,22.814 22.075,22.6 22.059,22.388 22.031,22.177 21.995,21.972 21.948,21.768 21.892,21.569 21.824,21.374 21.75,21.184 21.665,20.997 21.572,20.817 21.471,20.642 21.36,20.472 21.243,20.306 21.119,20.149 20.985,19.996 20.847,19.85 20.7,19.71 20.547,19.578 20.388,19.453 20.224,19.336 20.053,19.227 19.876,19.126 19.695,19.033 19.507,18.948 19.315,18.873 19.121,18.807 18.92,18.75 18.717,18.702 18.508,18.667 18.299,18.64 18.085,18.624 17.868,18.618 17.652,18.624 17.437,18.64 17.228,18.667 17.021,18.702 16.818,18.75 16.618,18.807 16.424,18.873 16.231,18.948 16.047,19.033 15.866,19.126 15.69,19.227 15.52,19.336 15.355,19.453 15.197,19.578 15.044,19.71 15.027,19.727 15.027,25.918 15.044,25.934 15.197,26.067 15.355,26.191 15.52,26.31 15.69,26.419 15.866,26.521 16.047,26.612 16.231,26.697 16.424,26.773 16.618,26.839 16.818,26.897 17.021,26.942 17.228,26.979 17.437,27.007 17.652,27.023 17.868,27.027 18.085,27.023 18.299,27.007 18.508,26.979 18.717,26.942 18.92,26.897 19.121,26.839 19.315,26.773 19.507,26.697 19.695,26.612 19.876,26.521 "
     id="polygon41"
     transform="matrix(11.111111,0,0,11.111111,84.2291,78.401599)"
     style="fill:#f79147;fill-rule:evenodd" /></svg>