<?xml version="1.0" encoding="utf-8"?>
<!-- Generator: Adobe Illustrator 16.2.0, SVG Export Plug-In . SVG Version: 6.00 Build 0)  -->
<svg version="1.2" baseProfile="tiny" id="Слой_1"
	 xmlns="http://www.w3.org/2000/svg" xmlns:xlink="http://www.w3.org/1999/xlink" x="0px" y="0px" width="90px" height="90px"
	 viewBox="0 0 90 90" xml:space="preserve">
<path fill-rule="evenodd" fill="#E7F2F8" d="M45.022,89.609c24.57,0,44.609-20.039,44.609-44.609
	c0-24.571-20.039-44.61-44.609-44.61S0.413,20.43,0.413,45C0.413,69.57,20.452,89.609,45.022,89.609z"/>
<path fill-rule="evenodd" fill="#D7E4EB" d="M45.022,0.39c24.637,0,44.609,19.973,44.609,44.61
	c0,24.638-19.973,44.609-44.609,44.609c-0.063,0-0.125-0.002-0.187-0.002V0.393C44.898,0.392,44.96,0.39,45.022,0.39z"/>
<g>
	<path fill-rule="evenodd" fill="#FCDC70" d="M34.048,52.484c10.522,0,19.103-7.126,19.103-15.865
		c0-8.74-8.581-15.868-19.103-15.868c-10.522,0-19.104,7.128-19.104,15.868C14.944,45.358,23.526,52.484,34.048,52.484z"/>
	<path fill-rule="evenodd" fill="#DEB839" d="M34.048,52.848c10.522,0,19.103-6.479,19.103-14.421
		c0-7.944-8.581-14.423-19.103-14.423c-10.522,0-19.104,6.479-19.104,14.423C14.944,46.369,23.526,52.848,34.048,52.848z"/>
	<path fill-rule="evenodd" fill="#EFC849" d="M33.99,24.004c-10.524,0.023-19.046,6.471-19.046,14.421
		c0,7.952,8.522,14.397,19.046,14.422V24.004z"/>
	<path fill-rule="evenodd" fill="#FCDC70" d="M33.962,40.664c1.384,0,2.513-1.129,2.513-2.513c0-1.384-1.129-2.513-2.513-2.513
		c-1.385,0-2.514,1.129-2.514,2.513C31.448,39.535,32.577,40.664,33.962,40.664z"/>
	<path fill-rule="evenodd" fill="#EFC849" d="M33.986,35.637c1.377,0.013,2.489,1.134,2.489,2.513s-1.111,2.5-2.489,2.513V35.637z"
		/>
	<path fill-rule="evenodd" fill="#FCDC70" d="M24.853,40.664c1.384,0,2.513-1.129,2.513-2.513c0-1.384-1.129-2.513-2.513-2.513
		s-2.513,1.129-2.513,2.513C22.34,39.535,23.469,40.664,24.853,40.664z"/>
	<path fill-rule="evenodd" fill="#EFC849" d="M43.313,40.664c1.385,0,2.514-1.129,2.514-2.513c0-1.384-1.129-2.513-2.514-2.513
		c-1.384,0-2.513,1.129-2.513,2.513C40.8,39.535,41.929,40.664,43.313,40.664z"/>
	<polygon fill-rule="evenodd" fill="#EFC849" points="31.249,49.592 21.937,57.945 21.869,49.455 	"/>
	<path fill-rule="evenodd" fill="#58ABDF" d="M55.997,63.789c10.521,0,19.104-7.129,19.104-15.867
		c0-8.739-8.582-15.867-19.104-15.867c-10.522,0-19.104,7.127-19.104,15.867C36.894,56.66,45.475,63.789,55.997,63.789z"/>
	<path fill-rule="evenodd" fill="#3E98D3" d="M55.997,64.15c10.521,0,19.104-6.479,19.104-14.422
		c0-7.943-8.582-14.421-19.104-14.421c-10.522,0-19.104,6.479-19.104,14.421C36.894,57.672,45.475,64.15,55.997,64.15z"/>
	<path fill-rule="evenodd" fill="#2180C4" d="M56.055,35.308c10.523,0.024,19.046,6.471,19.046,14.42
		c0,7.951-8.522,14.398-19.046,14.422V35.308z"/>
	<path fill-rule="evenodd" fill="#7AC0EA" d="M56.071,51.828c1.384,0,2.514-1.131,2.514-2.514c0-1.385-1.13-2.514-2.514-2.514
		c-1.386,0-2.514,1.129-2.514,2.514C53.558,50.697,54.686,51.828,56.071,51.828z"/>
	<path fill-rule="evenodd" fill="#58ABDF" d="M56.095,46.801c1.377,0.014,2.488,1.133,2.488,2.514c0,1.379-1.111,2.498-2.488,2.512
		V46.801z"/>
	<path fill-rule="evenodd" fill="#7AC0EA" d="M46.962,51.828c1.385,0,2.514-1.131,2.514-2.514c0-1.385-1.129-2.514-2.514-2.514
		c-1.384,0-2.513,1.129-2.513,2.514C44.449,50.697,45.578,51.828,46.962,51.828z"/>
	<path fill-rule="evenodd" fill="#58ABDF" d="M65.423,51.828c1.384,0,2.513-1.131,2.513-2.514c0-1.385-1.129-2.514-2.513-2.514
		c-1.385,0-2.514,1.129-2.514,2.514C62.909,50.697,64.038,51.828,65.423,51.828z"/>
	<polygon fill-rule="evenodd" fill="#2180C4" points="58.796,60.896 68.107,69.248 68.176,60.758 	"/>
</g>
</svg>
