<?xml version="1.0" encoding="utf-8"?>
<!-- Generator: Adobe Illustrator 16.2.0, SVG Export Plug-In . SVG Version: 6.00 Build 0)  -->
<svg version="1.2" baseProfile="tiny" id="Слой_1"
	 xmlns="http://www.w3.org/2000/svg" xmlns:xlink="http://www.w3.org/1999/xlink" x="0px" y="0px" width="90px" height="90px"
	 viewBox="0 0 90 90" xml:space="preserve">
<path fill-rule="evenodd" fill="#E7F2F8" d="M44.927,89.686c24.625,0,44.711-20.085,44.711-44.711
	c0-24.625-20.086-44.71-44.711-44.71s-44.71,20.085-44.71,44.71C0.217,69.601,20.302,89.686,44.927,89.686z"/>
<path fill-rule="evenodd" fill="#D7E4EB" d="M44.927,0.264c24.694,0,44.711,20.018,44.711,44.71
	c0,24.694-20.018,44.711-44.711,44.711c-0.04,0-0.081-0.002-0.122-0.002V0.266C44.847,0.266,44.887,0.264,44.927,0.264z"/>
<g>
	<polygon fill-rule="evenodd" fill="#992620" points="78.939,41.284 53.26,41.284 53.26,52.367 78.939,52.367 78.939,52.354 
		76.961,49.839 74.592,46.825 76.961,43.813 78.939,41.296 	"/>
	<polygon fill-rule="evenodd" fill="#661810" points="70.49,47.783 56.477,52.363 55.545,45.719 69.434,46.476 	"/>
	<polygon fill-rule="evenodd" fill="#C03B2B" points="10.819,41.284 36.5,41.284 36.5,52.367 10.819,52.367 10.819,52.354 
		12.798,49.839 15.167,46.825 12.798,43.813 10.819,41.296 	"/>
	<polygon fill-rule="evenodd" fill="#992620" points="19.269,47.783 33.283,52.363 34.213,45.719 20.326,46.476 	"/>
	<path fill-rule="evenodd" fill="#50BA6F" d="M44.908,72.892c-18.025-5.706-23.985-24.727-24.542-41.828
		c4.083-0.375,10.064-3.887,9.933-10.305c4.881-0.705,9.694-1.087,14.608-1.315V72.892z"/>
	<path fill-rule="evenodd" fill="#27AE61" d="M44.892,72.892c18.024-5.706,23.983-24.727,24.54-41.828
		c-4.082-0.375-10.064-3.887-9.932-10.305c-4.883-0.705-9.693-1.087-14.608-1.315V72.892z"/>
	<path fill-rule="evenodd" fill="#FFFFFF" d="M45.005,70.983c-7.256-2.464-12.369-7.282-15.859-13.266
		c-4.388-7.521-6.203-16.875-6.488-25.683l-0.013-0.41l0.41-0.038c2.022-0.188,4.575-1.254,6.407-3.165
		c1.415-1.477,2.392-3.46,2.341-5.934l-0.008-0.386l0.382-0.056c2.264-0.328,4.503-0.582,6.738-0.778
		c2.004-0.176,4.031-0.308,6.089-0.411v0.875c-2.001,0.1-3.999,0.232-6.014,0.409c-2.11,0.186-4.21,0.419-6.315,0.717
		c-0.049,2.556-1.098,4.617-2.585,6.169c-1.861,1.943-4.419,3.08-6.546,3.38c0.322,8.559,2.116,17.6,6.357,24.869
		c3.346,5.736,8.219,10.366,15.103,12.783V70.983z"/>
	<path fill-rule="evenodd" fill="#BEC3C7" d="M44.96,70.983c7.256-2.464,12.37-7.282,15.86-13.266
		c4.387-7.521,6.201-16.875,6.486-25.683l0.014-0.41l-0.41-0.038c-2.021-0.188-4.574-1.254-6.406-3.165
		c-1.414-1.477-2.393-3.46-2.342-5.934l0.008-0.386l-0.383-0.056c-2.264-0.328-4.502-0.582-6.738-0.778
		c-2.004-0.176-4.031-0.308-6.088-0.411v0.875c2.002,0.1,4,0.232,6.014,0.409c2.109,0.186,4.209,0.419,6.314,0.717
		c0.049,2.556,1.098,4.617,2.584,6.169c1.861,1.943,4.422,3.08,6.549,3.38c-0.324,8.559-2.117,17.6-6.357,24.869
		c-3.348,5.736-8.221,10.366-15.104,12.783V70.983z"/>
	<rect x="19.217" y="36.725" fill-rule="evenodd" fill="#E74D3D" width="25.679" height="11.083"/>
	<rect x="44.864" y="36.725" fill-rule="evenodd" fill="#C03B2B" width="25.679" height="11.083"/>
	<polygon fill-rule="evenodd" fill="#27AE61" points="45.052,55.13 46.359,57.475 48.99,57.993 47.166,59.96 47.486,62.624 
		45.052,61.495 42.617,62.624 42.938,59.96 41.112,57.993 43.746,57.475 	"/>
	<polygon fill-rule="evenodd" fill="#229753" points="45.066,55.155 46.359,57.475 48.99,57.993 47.166,59.96 47.486,62.624 
		45.066,61.503 	"/>
	<path fill-rule="evenodd" fill="#FFFFFF" d="M23.794,39.325h3.987v0.994h-2.795v4.892h-1.192V39.325L23.794,39.325z M33.18,45.21
		l-2.358-5.886h-1.259l-2.285,5.886h1.26l0.489-1.341h2.361l0.508,1.341H33.18L33.18,45.21z M31.001,42.875h-1.612l0.795-2.178
		L31.001,42.875L31.001,42.875z M33.814,45.21v-5.886h1.906c0.722,0,1.191,0.028,1.411,0.087c0.337,0.088,0.62,0.28,0.846,0.576
		c0.228,0.297,0.341,0.678,0.341,1.147c0,0.361-0.065,0.664-0.195,0.91c-0.132,0.247-0.297,0.44-0.5,0.581
		c-0.201,0.14-0.406,0.232-0.614,0.278c-0.283,0.056-0.694,0.084-1.231,0.084h-0.772v2.221H33.814L33.814,45.21z M35.006,40.319
		v1.677h0.648c0.467,0,0.778-0.033,0.936-0.094c0.157-0.062,0.281-0.158,0.37-0.29c0.089-0.132,0.134-0.284,0.134-0.459
		c0-0.215-0.063-0.392-0.188-0.532c-0.125-0.14-0.283-0.227-0.477-0.262c-0.141-0.027-0.425-0.04-0.853-0.04H35.006L35.006,40.319z
		 M43.876,45.21l-2.358-5.886H40.26l-2.285,5.886h1.26l0.489-1.341h2.361l0.508,1.341H43.876L43.876,45.21z M41.699,42.875h-1.612
		l0.794-2.178L41.699,42.875L41.699,42.875z M44.511,45.21v-5.886h0.447v5.886H44.511z"/>
	<path fill-rule="evenodd" fill="#BEC3C7" d="M44.917,39.325v5.886h0.786v-2.574h2.317v2.574h1.193v-5.886H48.02v2.317h-2.317
		v-2.317H44.917L44.917,39.325z M51.771,45.21v-4.892h-1.744v-0.994h4.67v0.994h-1.734v4.892H51.771L51.771,45.21z M55.484,39.325
		h1.109v3.917l2.385-3.917h1.184v5.886h-1.109v-3.856l-2.385,3.856h-1.184V39.325L55.484,39.325z M64.895,45.21v-2.458h-0.24
		c-0.377,0-0.643,0.056-0.797,0.168c-0.154,0.111-0.418,0.446-0.791,1.004l-0.852,1.286h-1.422l0.719-1.149
		c0.281-0.456,0.508-0.775,0.674-0.958c0.17-0.183,0.381-0.349,0.633-0.492c-0.547-0.086-0.941-0.276-1.184-0.572
		s-0.365-0.649-0.365-1.062c0-0.359,0.092-0.677,0.271-0.954c0.182-0.276,0.42-0.463,0.715-0.558
		c0.297-0.094,0.74-0.141,1.328-0.141h2.502v5.886H64.895L64.895,45.21z M64.895,40.319h-0.928c-0.471,0-0.781,0.011-0.928,0.031
		c-0.148,0.022-0.277,0.094-0.383,0.218c-0.107,0.123-0.162,0.284-0.162,0.482c0,0.207,0.053,0.371,0.156,0.493
		c0.102,0.122,0.234,0.197,0.393,0.227c0.158,0.029,0.484,0.044,0.973,0.044h0.879V40.319z"/>
	<polygon fill-rule="evenodd" fill="#27AE61" points="35.902,50.561 36.855,52.271 38.776,52.65 37.444,54.085 37.679,56.029 
		35.902,55.206 34.126,56.029 34.359,54.085 33.028,52.65 34.949,52.271 	"/>
	<polygon fill-rule="evenodd" fill="#229753" points="54.861,50.561 55.814,52.271 57.734,52.65 56.404,54.085 56.639,56.029 
		54.861,55.206 53.086,56.029 53.32,54.085 51.988,52.65 53.908,52.271 	"/>
	<polygon fill-rule="evenodd" fill="#27AE61" points="38.042,28.354 38.995,30.063 40.917,30.441 39.584,31.877 39.818,33.82 
		38.042,32.998 36.266,33.82 36.5,31.877 35.168,30.441 37.089,30.063 	"/>
	<polygon fill-rule="evenodd" fill="#229753" points="52.027,28.354 52.98,30.063 54.902,30.441 53.57,31.877 53.805,33.82 
		52.027,32.998 50.252,33.82 50.484,31.877 49.154,30.441 51.074,30.063 	"/>
</g>
</svg>
