<?xml version="1.0" encoding="utf-8"?>
<!-- Generator: Adobe Illustrator 15.0.2, SVG Export Plug-In . SVG Version: 6.00 Build 0)  -->
<!DOCTYPE svg PUBLIC "-//W3C//DTD SVG 1.1//EN" "http://www.w3.org/Graphics/SVG/1.1/DTD/svg11.dtd">
<svg version="1.1" id="Capa_1" xmlns="http://www.w3.org/2000/svg" xmlns:xlink="http://www.w3.org/1999/xlink" x="0px" y="0px"
	 width="612px" height="792px" viewBox="0 0 612 792" enable-background="new 0 0 612 792" xml:space="preserve">
<path fill="#AFB6BB" d="M419.685,654.518H192.316c-2.364,0-3.282-3.239-1.309-4.611l19.046-13.433
	c20.544-14.487,30.262-41.057,24.269-66.37l0,0h143.377v0.021c-5.994,25.323,3.735,51.883,24.29,66.37l19.024,13.411
	C422.966,651.288,422.037,654.518,419.685,654.518z"/>
<path fill="#E7ECED" d="M575.09,570.104H36.91c-20.386,0-36.91-16.524-36.91-36.91V142.737c0-20.386,16.524-36.91,36.91-36.91
	h538.169c20.396,0,36.921,16.524,36.921,36.91v390.445C612,553.579,595.476,570.104,575.09,570.104z"/>
<path fill="#38454F" d="M612,475.138H0v-332.4c0-20.386,16.524-36.91,36.91-36.91h538.169c20.396,0,36.921,16.524,36.921,36.91
	V475.138z"/>
<g display="none">
	<path display="inline" fill="#839CAA" d="M42.207,200.793c2.701,0,5.402-1.034,7.46-3.091l42.207-42.207
		c4.125-4.126,4.125-10.794,0-14.92c-4.126-4.125-10.794-4.125-14.92,0l-42.207,42.207c-4.126,4.126-4.126,10.794,0,14.92
		C36.804,199.759,39.506,200.793,42.207,200.793z"/>
	<path display="inline" fill="#839CAA" d="M42.207,253.552c2.701,0,5.402-1.034,7.46-3.092l21.104-21.104
		c4.125-4.125,4.125-10.794,0-14.92c-4.126-4.126-10.794-4.126-14.92,0L34.747,235.54c-4.126,4.125-4.126,10.794,0,14.92
		C36.804,252.518,39.506,253.552,42.207,253.552z"/>
	<path display="inline" fill="#839CAA" d="M76.922,193.301c-1.91,2.005-3.06,4.749-3.06,7.492c0,2.744,1.15,5.487,3.06,7.492
		c1.995,1.899,4.632,3.06,7.492,3.06c2.744,0,5.487-1.161,7.492-3.06c1.899-2.004,3.06-4.748,3.06-7.492
		c0-2.743-1.161-5.487-3.06-7.492C87.896,189.397,80.932,189.397,76.922,193.301z"/>
	<path display="inline" fill="#839CAA" d="M98.057,187.15c2.058,2.058,4.759,3.091,7.46,3.091s5.403-1.034,7.46-3.091l31.655-31.655
		c4.126-4.126,4.126-10.794,0-14.92c-4.125-4.125-10.794-4.125-14.92,0l-31.655,31.655C93.932,176.355,93.932,183.024,98.057,187.15
		z"/>
	<path display="inline" fill="#839CAA" d="M129.712,193.333l-94.965,94.965c-4.126,4.126-4.126,10.794,0,14.92
		c2.057,2.058,4.759,3.092,7.46,3.092s5.402-1.034,7.46-3.092l94.965-94.966c4.126-4.125,4.126-10.794,0-14.92
		C140.507,189.208,133.838,189.208,129.712,193.333z"/>
	<path display="inline" fill="#839CAA" d="M150.784,172.198c-1.91,2.005-3.06,4.643-3.06,7.492c0,2.849,1.15,5.487,3.06,7.492
		c1.994,1.899,4.632,3.06,7.492,3.06c2.849,0,5.487-1.161,7.492-3.06c1.899-2.005,3.06-4.643,3.06-7.492
		c0-2.849-1.161-5.487-3.06-7.492C161.863,168.294,154.688,168.294,150.784,172.198z"/>
	<path display="inline" fill="#839CAA" d="M197.391,140.574c-4.125-4.125-10.794-4.125-14.92,0l-10.552,10.552
		c-4.126,4.126-4.126,10.794,0,14.92c2.058,2.058,4.759,3.091,7.46,3.091s5.402-1.034,7.46-3.091l10.552-10.552
		C201.517,151.369,201.517,144.7,197.391,140.574z"/>
</g>
<path fill="#E7ECED" d="M427.345,686.173H184.655c-8.705,0-15.828-7.123-15.828-15.828l0,0c0-8.705,7.123-15.827,15.828-15.827
	h242.689c8.705,0,15.828,7.122,15.828,15.827l0,0C443.173,679.05,436.05,686.173,427.345,686.173z"/>
</svg>
