<?xml version="1.0" encoding="iso-8859-1"?>
<svg version="1.1" id="_x31_" xmlns="http://www.w3.org/2000/svg" xmlns:xlink="http://www.w3.org/1999/xlink" x="0px" y="0px"
	 width="280.5px" height="280.5px" viewBox="0 0 280.5 280.5" style="enable-background:new 0 0 280.5 280.5;" xml:space="preserve"
	>
<path style="fill-rule:evenodd;clip-rule:evenodd;fill:#E9F4F9;" d="M140.25,280.499c77.247,0,140.25-63.002,140.25-140.25
	C280.5,63.002,217.497,0,140.25,0C63.003,0,0,63.002,0,140.249C0,217.498,63.003,280.499,140.25,280.499z"/>
<path style="fill-rule:evenodd;clip-rule:evenodd;fill:#D6E3EA;" d="M140.25,0C217.708,0,280.5,62.792,280.5,140.25
	c0,77.458-62.792,140.25-140.25,140.25l-0.19-0.003V0.002L140.25,0z"/>
<path style="fill-rule:evenodd;clip-rule:evenodd;fill:#F5CBA4;" d="M104.754,161.167c2.17,9.573,9.018,20.476,16.38,26.554
	c-0.497,14.711-1.742,22.36-15.935,28.399c11.756,10.763,23.509,21.529,35.263,32.294c0-53.869,0.045-140.791,0.028-158.501
	l-29.719,6.114l-16.612,14.611c0,0,3.079,19.567,4.969,27.381c-12.124-3.527-12.603,8.513-8.006,15.869
	C93.941,158.396,98.995,164.042,104.754,161.167z"/>
<path style="fill-rule:evenodd;clip-rule:evenodd;fill:#EDB785;" d="M176.151,161.167c-2.17,9.573-9.016,20.476-16.378,26.554
	c0.497,14.711,1.74,22.36,15.935,28.399c-11.754,10.763-23.507,21.529-35.261,32.294c0-53.869-0.045-140.791-0.03-158.501
	l29.718,6.114l16.611,14.611c0,0-3.077,19.567-4.967,27.381c12.124-3.527,12.603,8.513,8.004,15.869
	C186.967,158.396,181.912,164.042,176.151,161.167z"/>
<path style="fill-rule:evenodd;clip-rule:evenodd;fill:#555555;" d="M163.712,102.278c0,0-15.557,9.416-35.806,10.923
	c-30.081,2.241-23.145,34.922-23.145,34.922c-17.249-16.894-14.268-57.451,5.793-70.223c21.587-13.746,52.619-7.587,57.719,5.599
	c12.669,2.57,18.429,7.837,20.532,17.802c3.253,15.419-1.984,32.765-9.763,43.981C183.097,119.596,167.657,118.753,163.712,102.278z
	"/>
<path style="fill-rule:evenodd;clip-rule:evenodd;fill:#3D3D3D;" d="M163.712,102.278c0,0-9.305,5.629-22.886,8.879v-40.97
	c13.205,0.565,24.539,5.796,27.447,13.313c12.669,2.57,18.429,7.837,20.532,17.802c3.253,15.419-1.984,32.765-9.763,43.981
	C183.097,119.596,167.657,118.753,163.712,102.278z"/>
<path style="fill-rule:evenodd;clip-rule:evenodd;fill:#FFFFFF;" d="M127.035,177.306c2.474-0.927,7.309-2.487,13.472-2.662
	c6.163-0.176,10.88,1.248,13.817,2.485c-1.856-3.093-8.141-7.903-13.558-8.254C135.352,168.525,128.735,175.14,127.035,177.306z"/>
<path style="fill-rule:evenodd;clip-rule:evenodd;fill:#3D3D3D;" d="M163.621,205.564c-6.793,7.606-13.41,10.666-23.55,11.916
	c0.034,23.44,0.165,39.583,0.197,63.02c28.064-0.752,49.647-6.544,73.975-21.085c0,0,0.19,1.089-0.129-23.09
	c-0.238-18.112-10.831-18.777-29.844-24.669C174.794,208.722,163.621,205.564,163.621,205.564z"/>
<path style="fill-rule:evenodd;clip-rule:evenodd;fill:#EDB785;" d="M121.355,188.113c6.431,4.545,12.866,6.247,19.098,6.125
	c0.079,2.773-0.064,2.985,0.015,5.757C135.311,199.349,123.896,197.737,121.355,188.113z"/>
<path style="fill-rule:evenodd;clip-rule:evenodd;fill:#E0A670;" d="M159.665,188.113c-6.433,4.545-12.868,6.247-19.1,6.125
	c-0.079,2.773,0.064,2.985-0.017,5.757C145.706,199.349,157.121,197.737,159.665,188.113z"/>
<path style="fill-rule:evenodd;clip-rule:evenodd;fill:#555555;" d="M118.041,205.949c6.793,7.608,12.87,10.433,23.01,11.683
	c-0.034,23.438-0.749,39.431-0.783,62.868c-27.897-0.92-49.436-6.586-73.968-21.167c0,0-0.197,1.172,0.123-23.007
	c0.238-18.112,10.831-18.777,29.842-24.669C105.741,208.722,118.041,205.949,118.041,205.949z"/>
</svg>
