<?xml version="1.0" encoding="utf-8"?>
<!-- Generator: Adobe Illustrator 15.0.2, SVG Export Plug-In . SVG Version: 6.00 Build 0)  -->
<!DOCTYPE svg PUBLIC "-//W3C//DTD SVG 1.1//EN" "http://www.w3.org/Graphics/SVG/1.1/DTD/svg11.dtd">
<svg version="1.1" id="Capa_1" xmlns="http://www.w3.org/2000/svg" xmlns:xlink="http://www.w3.org/1999/xlink" x="0px" y="0px"
	 width="612px" height="792px" viewBox="0 0 612 792" enable-background="new 0 0 612 792" xml:space="preserve">
<g>
	<path fill="#555A53" d="M476.375,669.787c0,17.801-14.425,32.213-32.213,32.213H167.831c-17.793,0-32.206-14.419-32.206-32.213
		V122.212c0-17.793,14.413-32.212,32.206-32.212h276.331c17.794,0,32.213,14.419,32.213,32.212V669.787z"/>
	<path display="none" opacity="0.15" enable-background="new    " d="M444.162,669.463H167.831
		c-17.793,0-32.206-14.419-32.206-32.213v32.537c0,17.801,14.419,32.213,32.206,32.213h276.331
		c17.794,0,32.213-14.419,32.213-32.213V637.25C476.375,655.044,461.956,669.463,444.162,669.463z"/>
	<rect x="167.212" y="169.331" fill="#54A2BD" width="277.55" height="429.8"/>
	<path display="none" opacity="0.2" fill="#FFFFFF" enable-background="new    " d="M240.225,169.331h-73.013v73.013
		C191.55,218.006,215.888,193.669,240.225,169.331z"/>
	<path display="none" opacity="0.2" fill="#FFFFFF" enable-background="new    " d="M444.769,202.044v-32.707h-74.975
		L167.212,371.906v107.682C259.731,387.075,352.25,294.556,444.769,202.044z"/>
	<path opacity="0.15" enable-background="new    " d="M167.212,169.331v429.8h277.55v-429.8H167.212z M431.281,578.25H180.7V179.006
		h250.587V578.25H431.281z"/>
	<path display="none" opacity="0.15" enable-background="new    " d="M379.175,139.9c0,5.056-4.1,9.144-9.162,9.144h-128.05
		c-5.056,0-9.144-4.088-9.144-9.144l0,0c0-5.063,4.087-9.163,9.144-9.163h128.05C375.075,130.737,379.175,134.837,379.175,139.9
		L379.175,139.9z"/>
	<path fill="#A6B3A4" d="M379.175,134.369c0,5.056-4.1,9.144-9.162,9.144h-128.05c-5.056,0-9.144-4.088-9.144-9.144l0,0
		c0-5.056,4.087-9.163,9.144-9.163h128.05C375.075,125.206,379.175,129.306,379.175,134.369L379.175,134.369z"/>
	<circle fill="#A6B3A4" cx="305.994" cy="651.462" r="28.707"/>
	<path display="none" opacity="0.15" enable-background="new    " d="M305.994,665.956c-13.388,0-24.544-9.206-27.719-21.6
		c-0.587,2.281-0.994,4.638-0.994,7.106c0,15.844,12.862,28.699,28.713,28.699c15.855,0,28.706-12.855,28.706-28.699
		c0-2.469-0.406-4.819-0.987-7.106C330.537,656.756,319.388,665.956,305.994,665.956z"/>
</g>
</svg>
