<?xml version="1.0" encoding="UTF-8" standalone="no"?>
<!-- Generator: Adobe Illustrator 17.0.0, SVG Export Plug-In . SVG Version: 6.00 Build 0)  -->

<svg
   xmlns:dc="http://purl.org/dc/elements/1.1/"
   xmlns:cc="http://creativecommons.org/ns#"
   xmlns:rdf="http://www.w3.org/1999/02/22-rdf-syntax-ns#"
   xmlns:svg="http://www.w3.org/2000/svg"
   xmlns="http://www.w3.org/2000/svg"
   xmlns:sodipodi="http://sodipodi.sourceforge.net/DTD/sodipodi-0.dtd"
   xmlns:inkscape="http://www.inkscape.org/namespaces/inkscape"
   version="1.1"
   id="pay-webmoney-icon"
   x="0px"
   y="0px"
   width="90px"
   height="90px"
   viewBox="0 0 90 90"
   style="enable-background:new 0 0 90 90;"
   xml:space="preserve"
   inkscape:version="0.48.4 r9939"
   sodipodi:docname="webmoney.html"><metadata
     id="metadata3362"><rdf:RDF><cc:Work
         rdf:about=""><dc:format>image/svg+xml</dc:format><dc:type
           rdf:resource="http://purl.org/dc/dcmitype/StillImage" /><dc:title></dc:title></cc:Work></rdf:RDF></metadata><defs
     id="defs3360" /><sodipodi:namedview
     pagecolor="#ffffff"
     bordercolor="#666666"
     borderopacity="1"
     objecttolerance="10"
     gridtolerance="10"
     guidetolerance="10"
     inkscape:pageopacity="0"
     inkscape:pageshadow="2"
     inkscape:window-width="1920"
     inkscape:window-height="1176"
     id="namedview3358"
     showgrid="true"
     inkscape:zoom="7.4167645"
     inkscape:cx="58.834219"
     inkscape:cy="49.865659"
     inkscape:window-x="0"
     inkscape:window-y="24"
     inkscape:window-maximized="1"
     inkscape:current-layer="pay-webmoney-icon"><inkscape:grid
       type="xygrid"
       id="grid3421" /></sodipodi:namedview><path
     style="fill-rule:evenodd;clip-rule:evenodd;fill:#EAF4F9;"
     d="M45.002,90.004c24.786,0,45.002-20.216,45.002-45.002  C90.004,20.216,69.788,0,45.002,0S0,20.216,0,45.002C0,69.788,20.216,90.004,45.002,90.004z"
     id="path3290" /><path
     style="fill-rule:evenodd;clip-rule:evenodd;fill:#D6E3EB;"
     d="M45.002,0c24.854,0,45.002,20.148,45.002,45.002  S69.856,90.004,45.002,90.004l-0.061-0.001V0.001L45.002,0z"
     id="path3292" /><g
     id="g3"
     transform="matrix(0.66979985,0,0,0.66979236,14.757626,14.989861)"><path
       d="m 24.243,25.931 34.396,-5.605 c 4.444,-0.725 8.642,2.324 9.327,6.775 L 71.3,48.736 c 0.686,4.451 -2.39,8.685 -6.834,9.409 L 30.071,63.75 C 25.627,64.474 21.43,61.425 20.744,56.975 L 17.41,35.34 c -0.686,-4.451 2.39,-8.684 6.833,-9.409 z"
       id="path5"
       inkscape:connector-curvature="0"
       style="fill:#b88f13;fill-rule:evenodd" /><path
       d="m 23.268,28.199 41.512,0.035 c 3.296,0.002 5.992,2.704 5.989,6 l -0.024,28.474 c -0.003,3.298 -2.703,5.993 -5.999,5.989 L 23.233,68.663 c -3.297,-0.004 -5.992,-2.703 -5.989,-6 l 0.024,-28.475 c 0.003,-3.296 2.702,-5.991 6,-5.989 z"
       id="path7"
       inkscape:connector-curvature="0"
       style="fill:#b88f13;fill-rule:evenodd" /><path
       d="m 26.246,28.205 41.514,0.036 c 3.296,0.002 5.991,2.702 5.988,6 l -0.024,28.474 c -0.003,3.297 -2.702,5.992 -6,5.988 L 26.212,68.668 c -3.297,-0.002 -5.991,-2.702 -5.989,-5.999 l 0.024,-28.475 c 0.003,-3.296 2.703,-5.991 5.999,-5.989 z"
       id="path9"
       inkscape:connector-curvature="0"
       style="fill:#e1b32c;fill-rule:evenodd" /><path
       d="m 73.736,48.642 -0.013,14.073 c -0.003,3.297 -2.702,5.992 -6,5.988 L 26.211,68.668 C 22.914,68.666 20.22,65.966 20.222,62.669 l 0.012,-14.136 53.502,0.109 z"
       id="path11"
       inkscape:connector-curvature="0"
       style="fill:#d1a41f;fill-rule:evenodd" /><path
       d="m 62.144,42.123 2.455,0.001 9.745,0.008 c 1.392,0.001 2.53,1.142 2.529,2.534 l -0.006,7.674 c -0.002,1.392 -1.143,2.53 -2.535,2.529 L 64.587,54.861 62.132,54.859 60.06,54.857 c -3.502,-0.003 -6.365,-2.871 -6.362,-6.374 l 0,0 c 0.003,-3.504 2.871,-6.366 6.374,-6.364 l 2.072,0.004 z"
       id="path13"
       inkscape:connector-curvature="0"
       style="fill:#fbd86c;fill-rule:evenodd" /><path
       d="m 76.869,48.647 -0.002,3.693 c -0.002,1.392 -1.143,2.53 -2.535,2.529 L 64.587,54.861 62.133,54.859 60.06,54.857 C 56.597,54.854 53.759,52.048 53.7,48.599 l 23.169,0.048 z"
       id="path15"
       inkscape:connector-curvature="0"
       style="fill:#eac34d;fill-rule:evenodd" /><circle
       cx="61.306"
       cy="48.957001"
       r="4.3660002"
       id="circle17"
       sodipodi:cx="61.306"
       sodipodi:cy="48.957001"
       sodipodi:rx="4.3660002"
       sodipodi:ry="4.3660002"
       style="fill:#173141;fill-rule:evenodd"
       d="m 65.672,48.957001 c 0,2.411275 -1.954725,4.366 -4.366,4.366 -2.411276,0 -4.366,-1.954725 -4.366,-4.366 0,-2.411276 1.954724,-4.366 4.366,-4.366 2.411275,0 4.366,1.954724 4.366,4.366 z" /><circle
       cx="60.631001"
       cy="48.433998"
       r="4.0770001"
       id="circle19"
       sodipodi:cx="60.631001"
       sodipodi:cy="48.433998"
       sodipodi:rx="4.0770001"
       sodipodi:ry="4.0770001"
       style="fill:#60768a;fill-rule:evenodd"
       d="m 64.708001,48.433998 c 0,2.251665 -1.825335,4.077 -4.077,4.077 -2.251665,0 -4.077001,-1.825335 -4.077001,-4.077 0,-2.251665 1.825336,-4.077 4.077001,-4.077 2.251665,0 4.077,1.825335 4.077,4.077 z" /><path
       d="m 64.707,48.484 c -0.028,2.232 -1.848,4.03 -4.085,4.025 -2.237,-0.005 -4.049,-1.81 -4.067,-4.041 l 8.152,0.016 z"
       id="path21"
       inkscape:connector-curvature="0"
       style="fill:#3a5365;fill-rule:evenodd" /></g><path
     d="m 44.897949,15.101716 c 8.284085,0 15.784499,3.358339 21.213229,8.787676 5.4294,5.427997 8.78711,12.928332 8.78711,21.212324 0,8.283991 -3.35771,15.783657 -8.78711,21.213664 -5.42806,5.428667 -12.929144,8.786336 -21.213229,8.786336 -8.283415,0 -15.783163,-3.357669 -21.212561,-8.786336 -5.429397,-5.430007 -8.787104,-12.929673 -8.787104,-21.213664 0,-8.283992 3.357707,-15.783657 8.787104,-21.212324 5.429398,-5.429337 12.929146,-8.787676 21.212561,-8.787676 l 0,0 z m 17.456319,12.544541 c -4.46756,-4.467515 -10.638426,-7.229739 -17.456319,-7.229739 -6.816553,0 -12.988089,2.762894 -17.455653,7.229739 -4.466896,4.466846 -7.22982,10.638982 -7.22982,17.455459 0,6.817146 2.762924,12.989283 7.230489,17.455459 4.466895,4.467515 10.638431,7.230408 17.455654,7.230408 6.817892,0 12.988759,-2.762893 17.456319,-7.230408 4.4669,-4.466176 7.23049,-10.638313 7.23049,-17.455459 -10e-4,-6.816477 -2.76493,-12.988613 -7.23116,-17.455459 z"
     id="path23"
     inkscape:connector-curvature="0"
     style="fill:#f0513f;fill-rule:evenodd" /><path
     d="m 45.052672,15.102386 c 8.223134,0.0422 15.663936,3.391159 21.058506,8.787006 5.4294,5.427997 8.78711,12.928332 8.78711,21.212324 0,8.283991 -3.35771,15.783657 -8.78711,21.213664 -5.39457,5.394507 -12.835372,8.744139 -21.057835,8.785666 v -5.314802 c 6.755601,-0.0422 12.868195,-2.795714 17.300925,-7.229739 4.4669,-4.466176 7.23049,-10.638312 7.23049,-17.455459 0,-6.816477 -2.76359,-12.988613 -7.23049,-17.455458 -4.4334,-4.432017 -10.545994,-7.186203 -17.301596,-7.2284 v -5.314802 z"
     id="path25"
     inkscape:connector-curvature="0"
     style="fill:#d63e2d;fill-rule:evenodd" /><polygon
     points="8.412,61.02 77.352,22.111 79.796,31.853 10.857,70.762 "
     id="polygon27"
     style="fill:#f0513f;fill-rule:evenodd"
     transform="matrix(0.66979985,0,0,0.66979236,14.757626,14.989861)" /><polygon
     points="45.23,41.699 45.23,40.263 77.614,21.8 80.059,31.542 45.235,51.372 "
     id="polygon29"
     style="fill:#d63e2d;fill-rule:evenodd"
     transform="matrix(0.66979985,0,0,0.66979236,14.757626,14.989861)" /></svg>