<svg version="1.1" id="owl-cust"
	 xmlns="http://www.w3.org/2000/svg" xmlns:xlink="http://www.w3.org/1999/xlink" x="0px" y="0px"
	  viewBox="0 0 172.774 152.333" style="enable-background:new 0 0 172.774 152.333;" xml:space="preserve">
<g>
	<path style="fill-rule:evenodd;clip-rule:evenodd;fill:#3B89B8;" d="M98.124,8.379c5.938-4.658,18.705-7.274,28.5-7
		c-0.592,10.01-0.615,17.321-5.5,27.75C113.874,23.462,105.374,14.045,98.124,8.379z"/>
	<path style="fill-rule:evenodd;clip-rule:evenodd;fill:#3B89B8;" d="M68.784,142.523c0.151-0.002,0.301,0,0.455-0.003
		c52.932-1.353,52.057-57.288,54.536-91.76c1.94-26.943-20.454-50.379-54.991-50.322V142.523z"/>
	<path style="fill-rule:evenodd;clip-rule:evenodd;fill:#51A6D8;" d="M68.784,142.523c0.151-0.002,0.301,0,0.455-0.003
		c15.637-0.4,26.575-5.564,34.295-13.53c0.49-2.139,0.75-4.356,0.75-6.631c0-17.53-15.318-31.742-34.211-31.742
		c-0.433,0-0.861,0.01-1.289,0.024V142.523z"/>
	<path style="fill-rule:evenodd;clip-rule:evenodd;fill:#4B9DCD;" d="M42.262,7.987c-5.938-4.657-18.703-7.272-28.5-6.999
		c0.595,10.01,0.618,17.319,5.5,27.75C26.512,23.07,35.012,13.654,42.262,7.987z"/>
	<path style="fill-rule:evenodd;clip-rule:evenodd;fill:#4B9DCD;" d="M69.829,142.523c-0.152-0.002-0.302,0-0.455-0.003
		c-52.932-1.353-52.057-57.288-54.537-91.76C12.897,23.817,35.292,0.381,69.829,0.438V142.523z"/>
	<path style="fill-rule:evenodd;clip-rule:evenodd;fill:#61B5E5;" d="M69.829,142.523c-0.152-0.002-0.302,0-0.455-0.003
		c-14.299-0.365-24.666-4.719-32.238-11.551c-0.829-2.739-1.274,1.609-1.274-8.61c0-10.22,9.688-31.847,34.263-31.718
		L69.829,142.523z"/>
	<path style="fill-rule:evenodd;clip-rule:evenodd;fill:#0C618C;" d="M96.471,18.057c-11.175,0-21.056,5.536-27.05,14.016
		c-0.147-0.197-0.297-0.392-0.453-0.584c-5.67-6.967-15.831-12.211-26.073-12.211C24.61,19.278,9.788,34.1,9.788,52.385
		c0,18.286,14.822,33.108,33.106,33.108c11.808,0,21.047-6.385,26.116-15.829c5.949,8.812,16.027,14.608,27.46,14.608
		c18.286,0,33.108-14.823,33.108-33.108S114.757,18.057,96.471,18.057z"/>
	<path style="fill-rule:evenodd;clip-rule:evenodd;fill:#005278;" d="M96.471,18.057c-10.845,0-20.47,5.214-26.509,13.271v39.673
		c6.039,8.058,15.666,13.271,26.509,13.271c18.286,0,33.108-14.823,33.108-33.108S114.757,18.057,96.471,18.057z"/>
	<path style="fill-rule:evenodd;clip-rule:evenodd;fill:#FFFFFF;" d="M98.245,74.891c11.524,0,20.924-9.4,20.924-20.925
		c0-11.524-9.399-20.924-20.924-20.924c-11.524,0-20.925,9.399-20.925,20.924C77.32,65.49,86.721,74.891,98.245,74.891z"/>
	<path style="fill-rule:evenodd;clip-rule:evenodd;fill:#FFFFFF;" d="M42.721,74.891c11.524,0,20.925-9.4,20.925-20.925
		c0-11.524-9.4-20.924-20.925-20.924s-20.923,9.399-20.923,20.924C21.798,65.49,31.196,74.891,42.721,74.891z"/>
	<path style="fill-rule:evenodd;clip-rule:evenodd;fill:#3B89B8;" d="M73.569,97.845c0.157,0.434,0.243,0.902,0.243,1.391
		c0,2.25-1.823,4.074-4.073,4.074s-4.076-1.824-4.076-4.074c0-0.488,0.088-0.957,0.244-1.391c0.567,1.565,2.069,2.684,3.832,2.684
		C71.501,100.529,73.001,99.41,73.569,97.845z"/>
	<path style="fill-rule:evenodd;clip-rule:evenodd;fill:#3B89B8;" d="M61.19,103.825c0.157,0.435,0.243,0.901,0.243,1.391
		c0,2.251-1.823,4.075-4.074,4.075c-2.251,0-4.075-1.824-4.075-4.075c0-0.489,0.086-0.956,0.244-1.391
		c0.567,1.565,2.067,2.685,3.831,2.685C59.122,106.51,60.622,105.391,61.19,103.825z"/>
	<path style="fill-rule:evenodd;clip-rule:evenodd;fill:#3B89B8;" d="M85.532,103.825c0.157,0.435,0.244,0.901,0.244,1.391
		c0,2.251-1.824,4.075-4.076,4.075c-2.25,0-4.074-1.824-4.074-4.075c0-0.489,0.086-0.956,0.244-1.391
		c0.567,1.565,2.068,2.685,3.83,2.685C83.462,106.51,84.964,105.391,85.532,103.825z"/>
	<path style="fill-rule:evenodd;clip-rule:evenodd;fill:#3B89B8;" d="M73.569,112.032c0.157,0.434,0.243,0.901,0.243,1.391
		c0,2.251-1.823,4.074-4.073,4.074s-4.076-1.823-4.076-4.074c0-0.489,0.088-0.957,0.244-1.391c0.567,1.565,2.069,2.684,3.832,2.684
		C71.501,114.716,73.001,113.598,73.569,112.032z"/>
	<path style="fill-rule:evenodd;clip-rule:evenodd;fill:#3B89B8;" d="M61.19,118.013c0.157,0.435,0.243,0.902,0.243,1.392
		c0,2.25-1.823,4.073-4.074,4.073c-2.251,0-4.075-1.823-4.075-4.073c0-0.489,0.086-0.957,0.244-1.392
		c0.567,1.565,2.067,2.684,3.831,2.684C59.122,120.696,60.622,119.578,61.19,118.013z"/>
	<path style="fill-rule:evenodd;clip-rule:evenodd;fill:#3B89B8;" d="M85.532,118.013c0.157,0.435,0.244,0.902,0.244,1.392
		c0,2.25-1.824,4.073-4.076,4.073c-2.25,0-4.074-1.823-4.074-4.073c0-0.489,0.086-0.957,0.244-1.392
		c0.567,1.565,2.068,2.684,3.83,2.684C83.462,120.696,84.964,119.578,85.532,118.013z"/>
	<path style="fill-rule:evenodd;clip-rule:evenodd;fill:#3B89B8;" d="M97.354,112.032c0.158,0.434,0.244,0.901,0.244,1.391
		c0,2.251-1.824,4.074-4.074,4.074s-4.073-1.823-4.073-4.074c0-0.489,0.086-0.957,0.242-1.391c0.568,1.565,2.069,2.684,3.831,2.684
		C95.286,114.716,96.786,113.598,97.354,112.032z"/>
	<path style="fill-rule:evenodd;clip-rule:evenodd;fill:#3B89B8;" d="M50.62,112.032c0.156,0.434,0.242,0.901,0.242,1.391
		c0,2.251-1.824,4.074-4.074,4.074s-4.074-1.823-4.074-4.074c0-0.489,0.086-0.957,0.244-1.391c0.568,1.565,2.068,2.684,3.83,2.684
		C48.55,114.716,50.052,113.598,50.62,112.032z"/>
	<path style="fill-rule:evenodd;clip-rule:evenodd;fill:#3B89B8;" d="M73.569,123.994c0.157,0.436,0.243,0.901,0.243,1.391
		c0,2.251-1.823,4.075-4.073,4.075s-4.076-1.824-4.076-4.075c0-0.489,0.088-0.955,0.244-1.391c0.567,1.564,2.069,2.684,3.832,2.684
		C71.501,126.678,73.001,125.559,73.569,123.994z"/>
	<path style="fill-rule:evenodd;clip-rule:evenodd;fill:#3B89B8;" d="M61.19,129.975c0.157,0.434,0.243,0.902,0.243,1.392
		c0,2.25-1.823,4.074-4.074,4.074c-2.251,0-4.075-1.824-4.075-4.074c0-0.489,0.086-0.958,0.244-1.392
		c0.567,1.566,2.067,2.685,3.831,2.685C59.122,132.659,60.622,131.541,61.19,129.975z"/>
	<path style="fill-rule:evenodd;clip-rule:evenodd;fill:#3B89B8;" d="M85.532,129.975c0.157,0.434,0.244,0.902,0.244,1.392
		c0,2.25-1.824,4.074-4.076,4.074c-2.25,0-4.074-1.824-4.074-4.074c0-0.489,0.086-0.958,0.244-1.392
		c0.567,1.566,2.068,2.685,3.83,2.685C83.462,132.659,84.964,131.541,85.532,129.975z"/>
	<path style="fill-rule:evenodd;clip-rule:evenodd;fill:#3B89B8;" d="M97.354,123.994c0.158,0.436,0.244,0.901,0.244,1.391
		c0,2.251-1.824,4.075-4.074,4.075s-4.073-1.824-4.073-4.075c0-0.489,0.086-0.955,0.242-1.391c0.568,1.564,2.069,2.684,3.831,2.684
		C95.286,126.678,96.786,125.559,97.354,123.994z"/>
	<path style="fill-rule:evenodd;clip-rule:evenodd;fill:#3B89B8;" d="M50.62,123.994c0.156,0.436,0.242,0.901,0.242,1.391
		c0,2.251-1.824,4.075-4.074,4.075s-4.074-1.824-4.074-4.075c0-0.489,0.086-0.955,0.244-1.391c0.568,1.564,2.068,2.684,3.83,2.684
		C48.55,126.678,50.052,125.559,50.62,123.994z"/>
	<path style="fill-rule:evenodd;clip-rule:evenodd;fill:#3B89B8;" d="M73.569,133.564c0.157,0.435,0.243,0.902,0.243,1.392
		c0,2.25-1.823,4.074-4.073,4.074s-4.076-1.824-4.076-4.074c0-0.489,0.088-0.957,0.244-1.392c0.567,1.566,2.069,2.685,3.832,2.685
		C71.501,136.248,73.001,135.13,73.569,133.564z"/>
	<path style="fill-rule:evenodd;clip-rule:evenodd;fill:#0C618C;" d="M144.07,73.681c5.274,0.498,1.213,1.079,2.779,1.438
		c2.037,1.284,3.833,1.837,2.361,6.184c-4.151,12.27-5.292,17.896-15.48,22.174c-20.045,8.419-30.058-14.457-14.215-23.875
		c5.841-3.471,11.86-4.957,18.884-5.953C140.115,73.404,142.258,74.682,144.07,73.681z"/>
	<path style="fill-rule:evenodd;clip-rule:evenodd;fill:#36495F;" d="M46.138,67.664c7.506,0,13.625-6.12,13.625-13.625
		c0-7.504-6.119-13.625-13.625-13.625c-7.503,0-13.626,6.121-13.626,13.625C32.512,61.544,38.635,67.664,46.138,67.664z"/>
	
		<rect x="93.749" y="17.118" transform="matrix(-0.979 -0.2041 0.2041 -0.979 198.7796 59.3151)" style="fill-rule:evenodd;clip-rule:evenodd;fill:#36495F;" width="17.398" height="4.58"/>
	
		<rect x="29.221" y="17.118" transform="matrix(0.979 -0.204 0.204 0.979 -3.1623 8.1461)" style="fill-rule:evenodd;clip-rule:evenodd;fill:#36495F;" width="17.401" height="4.58"/>
	<path style="fill-rule:evenodd;clip-rule:evenodd;fill:#EAC252;" d="M48.189,136.146l2.708,0.455
		c1.009,0.17,1.694,1.133,1.524,2.142l-1.422,8.444c-0.168,1.008-1.133,1.693-2.142,1.524l-2.706-0.456
		c-1.009-0.17-1.695-1.133-1.525-2.141l1.422-8.444C46.218,136.662,47.18,135.976,48.189,136.146z"/>
	<path style="fill-rule:evenodd;clip-rule:evenodd;fill:#D0A32A;" d="M48.189,136.146l1.245,0.209l-2.037,12.11l-1.245-0.21
		c-1.009-0.17-1.695-1.133-1.525-2.141l1.422-8.444C46.218,136.662,47.18,135.976,48.189,136.146z"/>
	<path style="fill-rule:evenodd;clip-rule:evenodd;fill:#EAC252;" d="M54.657,135.433l2.709,0.457
		c1.008,0.168,1.692,1.133,1.522,2.141l-1.998,11.865c-0.168,1.01-1.132,1.695-2.14,1.525l-2.707-0.456
		c-1.008-0.169-1.696-1.132-1.526-2.141l1.998-11.866C52.686,135.949,53.649,135.264,54.657,135.433z"/>
	<path style="fill-rule:evenodd;clip-rule:evenodd;fill:#D0A32A;" d="M54.657,135.433l1.358,0.23l-2.612,15.532l-1.359-0.23
		c-1.008-0.169-1.696-1.132-1.526-2.141l1.998-11.867C52.686,135.949,53.649,135.264,54.657,135.433z"/>
	<path style="fill-rule:evenodd;clip-rule:evenodd;fill:#EAC252;" d="M60.583,138.232l2.707,0.455
		c1.01,0.17,1.695,1.134,1.524,2.142l-1.421,8.444c-0.171,1.007-1.133,1.693-2.141,1.524l-2.709-0.456
		c-1.008-0.17-1.694-1.133-1.524-2.141l1.422-8.444C58.612,138.747,59.575,138.062,60.583,138.232z"/>
	<path style="fill-rule:evenodd;clip-rule:evenodd;fill:#D0A32A;" d="M60.583,138.232l1.426,0.24l-2.038,12.109l-1.427-0.24
		c-1.008-0.17-1.694-1.133-1.524-2.141l1.422-8.444C58.612,138.747,59.575,138.062,60.583,138.232z"/>
	<path style="fill-rule:evenodd;clip-rule:evenodd;fill:#EAC252;" d="M76.833,138.486l2.72-0.364c1.015-0.138,1.954,0.58,2.09,1.594
		l1.142,8.486c0.137,1.014-0.582,1.953-1.595,2.09l-2.722,0.365c-1.014,0.137-1.954-0.581-2.088-1.594l-1.141-8.487
		C75.102,139.562,75.819,138.623,76.833,138.486z"/>
	<path style="fill-rule:evenodd;clip-rule:evenodd;fill:#D0A32A;" d="M76.833,138.486l1.252-0.168l1.636,12.171l-1.253,0.168
		c-1.014,0.137-1.954-0.581-2.088-1.594l-1.141-8.487C75.102,139.562,75.819,138.623,76.833,138.486z"/>
	<path style="fill-rule:evenodd;clip-rule:evenodd;fill:#EAC252;" d="M82.802,135.892l2.721-0.365
		c1.014-0.136,1.952,0.58,2.09,1.595l1.602,11.927c0.136,1.013-0.58,1.953-1.594,2.089l-2.722,0.366
		c-0.073,0.01-0.147,0.015-0.22,0.017h-0.063c-0.899-0.018-1.683-0.692-1.808-1.611l-1.603-11.927
		C81.071,136.969,81.788,136.029,82.802,135.892z"/>
	<path style="fill-rule:evenodd;clip-rule:evenodd;fill:#D0A32A;" d="M82.802,135.892l1.365-0.183l2.097,15.608l-1.365,0.186
		c-0.073,0.01-0.147,0.015-0.22,0.017h-0.063c-0.899-0.018-1.683-0.692-1.808-1.611l-1.603-11.927
		C81.071,136.969,81.788,136.029,82.802,135.892z"/>
	<path style="fill-rule:evenodd;clip-rule:evenodd;fill:#EAC252;" d="M89.288,136.812l2.723-0.364
		c1.013-0.137,1.953,0.579,2.089,1.594l1.142,8.485c0.135,1.015-0.582,1.953-1.595,2.091l-2.722,0.364
		c-1.014,0.138-1.954-0.58-2.09-1.593l-1.141-8.487C87.557,137.889,88.276,136.948,89.288,136.812z"/>
	<path style="fill-rule:evenodd;clip-rule:evenodd;fill:#D0A32A;" d="M89.288,136.812l1.433-0.191l1.638,12.17l-1.434,0.191
		c-1.014,0.138-1.954-0.58-2.09-1.593l-1.141-8.487C87.557,137.889,88.276,136.949,89.288,136.812z"/>
	<path style="fill-rule:evenodd;clip-rule:evenodd;fill:#EAC252;" d="M59.93,66.726c5.231-8.044,14.479-8.466,20.386-0.145
		c-3.27,5.184-7.027,11.543-10.365,16.226C67.846,79.503,61.743,69.184,59.93,66.726z"/>
	<path style="fill-rule:evenodd;clip-rule:evenodd;fill:#DDAF34;" d="M69.893,60.516c3.698-0.062,7.476,1.913,10.423,6.065
		c-3.27,5.184-7.027,11.543-10.365,16.226l-0.058-0.089V60.516z"/>
	<path style="fill-rule:evenodd;clip-rule:evenodd;fill:#0C618C;" d="M28.347,102.039c-1.942,7.162-6.735,19.631-11.368,34.864
		C7.752,122.075-2.817,108.835,1.22,95.204C7.447,74.192,33.875,81.658,28.347,102.039z"/>
	<path style="fill-rule:evenodd;clip-rule:evenodd;fill:#36495F;" d="M94.673,68.373c7.505,0,13.625-6.119,13.625-13.625
		c0-7.504-6.12-13.625-13.625-13.625c-7.504,0-13.626,6.121-13.626,13.625C81.047,62.254,87.169,68.373,94.673,68.373z"/>
	<path style="fill-rule:evenodd;clip-rule:evenodd;fill:#FFFFFF;" d="M100.799,51.281c2.048,0,3.72-1.672,3.72-3.724
		c0-2.048-1.672-3.72-3.72-3.72c-2.049,0-3.721,1.672-3.721,3.72C97.078,49.61,98.75,51.281,100.799,51.281z"/>
	<circle style="fill-rule:evenodd;clip-rule:evenodd;fill:#FFFFFF;" cx="96.731" cy="51.164" r="1.394"/>
	<path style="fill-rule:evenodd;clip-rule:evenodd;fill:#FFFFFF;" d="M39.726,51.281c-2.128,0-3.864-1.672-3.864-3.724
		c0-2.048,1.736-3.72,3.864-3.72c2.128,0,3.865,1.672,3.865,3.72C43.591,49.61,41.854,51.281,39.726,51.281z"/>
	<path style="fill-rule:evenodd;clip-rule:evenodd;fill:#FFFFFF;" d="M43.951,52.558c-0.796,0-1.446-0.626-1.446-1.394
		c0-0.769,0.65-1.394,1.446-1.394c0.797,0,1.446,0.625,1.446,1.394C45.397,51.932,44.748,52.558,43.951,52.558z"/>
	<path style="fill-rule:evenodd;clip-rule:evenodd;fill:#D1D3D4;" d="M132.086,77.292l40.42-0.199l0.269,54.317l-40.151,0.205
		C132.375,113.37,132.176,95.606,132.086,77.292z"/>
	
		<rect x="153.139" y="77.141" transform="matrix(-1 0.005 -0.005 -1 326.2946 207.7908)" style="fill-rule:evenodd;clip-rule:evenodd;fill:#C1C3C5;" width="19.501" height="54.318"/>
	
		<rect x="137.542" y="87.366" transform="matrix(-1 0.0049 -0.0049 -1 305.1392 176.2799)" style="fill-rule:evenodd;clip-rule:evenodd;fill:#A9ABAC;" width="29.619" height="2.302"/>
	
		<rect x="153.059" y="87.328" transform="matrix(-1 0.005 -0.005 -1 320.6589 176.159)" style="fill-rule:evenodd;clip-rule:evenodd;fill:#959798;" width="14.103" height="2.302"/>
	
		<rect x="137.516" y="82.235" transform="matrix(-1 0.0049 -0.0049 -1 305.0627 166.0168)" style="fill-rule:evenodd;clip-rule:evenodd;fill:#A9ABAC;" width="29.62" height="2.302"/>
	
		<rect x="153.035" y="82.196" transform="matrix(-1 0.005 -0.005 -1 320.5846 165.8954)" style="fill-rule:evenodd;clip-rule:evenodd;fill:#959798;" width="14.101" height="2.302"/>
	<path style="fill-rule:evenodd;clip-rule:evenodd;fill:#3B89B8;" d="M135.978,74.008c6.808,2.692,15.525,12.538,17.021,16.846
		c2.507-6.033,1.615-13.712,0.612-17.39C150.215,72.416,142.536,72.32,135.978,74.008z"/>
	<path style="fill-rule:evenodd;clip-rule:evenodd;fill:#C24947;" d="M155.854,121.12l3.229-0.35
		c0.098,0.73,0.372,1.311,0.826,1.736c0.458,0.427,0.982,0.636,1.575,0.633c0.676-0.003,1.248-0.281,1.713-0.838
		c0.465-0.556,0.697-1.391,0.691-2.502c-0.005-1.046-0.241-1.827-0.711-2.347c-0.467-0.521-1.073-0.777-1.819-0.773
		c-0.932,0.005-1.767,0.417-2.501,1.238l-2.619-0.364l1.606-8.779l8.56-0.042l0.015,3.018l-6.102,0.03l-0.497,2.875
		c0.718-0.36,1.455-0.545,2.21-0.549c1.439-0.007,2.659,0.51,3.662,1.554c1.007,1.04,1.514,2.397,1.521,4.072
		c0.007,1.395-0.392,2.639-1.192,3.738c-1.093,1.499-2.613,2.254-4.563,2.263c-1.561,0.008-2.836-0.406-3.822-1.238
		C156.645,123.659,156.054,122.538,155.854,121.12z"/>
	
		<rect x="137.568" y="92.761" transform="matrix(-1 0.0049 -0.0049 -1 305.2154 187.0738)" style="fill-rule:evenodd;clip-rule:evenodd;fill:#A9ABAC;" width="29.619" height="2.301"/>
	
		<rect x="153.086" y="92.723" transform="matrix(-1 0.0049 -0.0049 -1 320.7338 186.9592)" style="fill-rule:evenodd;clip-rule:evenodd;fill:#959798;" width="14.102" height="2.301"/>
	
		<rect x="137.594" y="97.893" transform="matrix(-1 0.0049 -0.0049 -1 305.2947 197.3322)" style="fill-rule:evenodd;clip-rule:evenodd;fill:#A9ABAC;" width="29.619" height="2.302"/>
	
		<rect x="153.113" y="97.855" transform="matrix(-1 0.005 -0.005 -1 320.8178 197.2112)" style="fill-rule:evenodd;clip-rule:evenodd;fill:#959798;" width="14.1" height="2.302"/>
	
		<rect x="137.618" y="102.811" transform="matrix(-1 0.0049 -0.0049 -1 285.3839 207.2281)" style="fill-rule:evenodd;clip-rule:evenodd;fill:#A9ABAC;" width="9.644" height="2.301"/>
</g>
</svg>
