<svg version="1.1" id="owl-take"
	 xmlns="http://www.w3.org/2000/svg" xmlns:xlink="http://www.w3.org/1999/xlink" x="0px" y="0px" width="41.831px" height="44px"
	 viewBox="0 0 41.831 44" style="enable-background:new 0 0 41.831 44;" xml:space="preserve">
<g>
	<polygon style="fill-rule:evenodd;clip-rule:evenodd;fill:#32302D;" points="21.907,0.559 9.231,1.081 0.19,9.982 12.866,9.46 	"/>
	<polygon style="fill-rule:evenodd;clip-rule:evenodd;fill:#3C3C3B;" points="21.912,0.561 9.277,1.129 8.992,0.443 21.651,0 	"/>
	<polygon style="fill-rule:evenodd;clip-rule:evenodd;fill:#3C3C3B;" points="0.231,9.968 9.287,1.111 8.994,0.434 0,9.394 	"/>
	<path style="fill-rule:evenodd;clip-rule:evenodd;fill:#AE8152;" d="M18.762,41.376c-0.038-0.001-0.075,0-0.114-0.001
		C5.466,41.038,5.684,27.107,5.067,18.522c-0.483-6.71,5.094-12.547,13.696-12.533V41.376z"/>
	<path style="fill-rule:evenodd;clip-rule:evenodd;fill:#E3B524;" d="M18.762,41.376c-0.038-0.001-0.075,0-0.114-0.001
		c-3.894-0.099-6.619-1.386-8.541-3.369c-0.122-0.533-0.187-1.085-0.187-1.651c0-4.366,3.815-7.905,8.52-7.905
		c0.108,0,0.215,0.002,0.321,0.006V41.376z"/>
	<path style="fill-rule:evenodd;clip-rule:evenodd;fill:#C39669;" d="M25.367,7.87c1.479-1.16,4.659-1.811,7.098-1.743
		c-0.148,2.493-0.153,4.314-1.37,6.911C29.29,11.626,27.173,9.281,25.367,7.87z"/>
	<path style="fill-rule:evenodd;clip-rule:evenodd;fill:#C39669;" d="M18.502,41.376c0.038-0.001,0.075,0,0.114-0.001
		c13.183-0.337,12.965-14.267,13.582-22.853c0.483-6.71-5.095-12.547-13.696-12.533V41.376z"/>
	<path style="fill-rule:evenodd;clip-rule:evenodd;fill:#7B5223;" d="M24.98,10.681c4.554,0,8.246,3.692,8.246,8.245
		c0,4.554-3.692,8.246-8.246,8.246c-2.863,0-5.12-1.507-6.402-3.758c-1.496,2.091-3.944,3.454-6.711,3.454
		c-4.554,0-8.246-3.692-8.246-8.246c0-4.554,3.692-8.246,8.246-8.246c2.715,0,5.124,1.313,6.626,3.338
		C19.906,11.984,22.433,10.681,24.98,10.681z"/>
	<path style="fill-rule:evenodd;clip-rule:evenodd;fill:#6D4713;" d="M18.367,23.696c-1.509,1.931-3.86,3.172-6.5,3.172
		c-4.554,0-8.246-3.692-8.246-8.246c0-4.554,3.692-8.246,8.246-8.246c2.641,0,4.991,1.242,6.5,3.173V23.696z"/>
	<path style="fill-rule:evenodd;clip-rule:evenodd;fill:#F0C749;" d="M18.502,41.376c0.038-0.001,0.075,0,0.114-0.001
		c3.561-0.091,6.143-1.175,8.029-2.876c0.207-0.682,0.318,0.401,0.318-2.144c0-2.545-2.413-7.932-8.533-7.9L18.502,41.376z"/>
	<path style="fill-rule:evenodd;clip-rule:evenodd;fill:#FFFFFF;" d="M11.425,24.283c-2.87,0-5.211-2.341-5.211-5.211
		s2.341-5.211,5.211-5.211s5.211,2.341,5.211,5.211S14.295,24.283,11.425,24.283z"/>
	<path style="fill-rule:evenodd;clip-rule:evenodd;fill:#312F2D;" d="M15.55,14.947c1.056,1.055,1.709,2.514,1.709,4.125
		c0,1.611-0.653,3.069-1.709,4.125c-1.055,1.056-2.514,1.709-4.125,1.709c-1.611,0-3.07-0.653-4.125-1.709
		c-1.055-1.056-1.709-2.514-1.709-4.125c0-1.611,0.653-3.07,1.709-4.125c1.056-1.056,2.514-1.709,4.125-1.709
		C13.036,13.238,14.494,13.891,15.55,14.947L15.55,14.947z M11.425,14.483c-1.267,0-2.415,0.514-3.245,1.344
		c-0.83,0.83-1.344,1.977-1.344,3.244c0,1.267,0.514,2.414,1.344,3.244c0.83,0.83,1.977,1.344,3.245,1.344
		c1.267,0,2.414-0.514,3.244-1.344c0.83-0.83,1.344-1.978,1.344-3.244c0-1.267-0.514-2.414-1.344-3.244
		C13.839,14.997,12.692,14.483,11.425,14.483L11.425,14.483z"/>
	<path style="fill-rule:evenodd;clip-rule:evenodd;fill:#FFFFFF;" d="M25.253,24.283c-2.87,0-5.211-2.341-5.211-5.211
		s2.341-5.211,5.211-5.211s5.211,2.341,5.211,5.211S28.123,24.283,25.253,24.283z"/>
	<path style="fill-rule:evenodd;clip-rule:evenodd;fill:#312F2D;" d="M29.378,14.947c1.056,1.055,1.709,2.514,1.709,4.125
		c0,1.611-0.653,3.069-1.709,4.125c-1.056,1.056-2.514,1.709-4.125,1.709c-1.611,0-3.069-0.653-4.125-1.709
		c-1.056-1.056-1.709-2.514-1.709-4.125c0-1.611,0.653-3.07,1.709-4.125c1.056-1.056,2.514-1.709,4.125-1.709
		C26.864,13.238,28.323,13.891,29.378,14.947L29.378,14.947z M25.253,14.483c-1.267,0-2.414,0.514-3.245,1.344
		c-0.83,0.83-1.344,1.977-1.344,3.244c0,1.267,0.514,2.414,1.344,3.244c0.83,0.83,1.978,1.344,3.245,1.344
		c1.267,0,2.414-0.514,3.245-1.344c0.83-0.83,1.344-1.978,1.344-3.244c0-1.267-0.514-2.414-1.344-3.244
		C27.668,14.997,26.52,14.483,25.253,14.483L25.253,14.483z"/>
	<path style="fill-rule:evenodd;clip-rule:evenodd;fill:#F0C749;" d="M20.827,22.98c-1.303-2.004-3.606-2.109-5.077-0.036
		c0.815,1.291,1.75,2.875,2.582,4.041C18.855,26.162,20.376,23.592,20.827,22.98z"/>
	<path style="fill-rule:evenodd;clip-rule:evenodd;fill:#E3B524;" d="M18.346,21.434c-0.921-0.016-1.862,0.476-2.596,1.51
		c0.815,1.291,1.75,2.875,2.582,4.041l0.014-0.022V21.434z"/>
	<path style="fill-rule:evenodd;clip-rule:evenodd;fill:#AE8152;" d="M17.57,30.249c-0.039,0.108-0.061,0.225-0.061,0.347
		c0,0.56,0.454,1.014,1.015,1.014c0.56,0,1.015-0.454,1.015-1.014c0-0.122-0.021-0.238-0.061-0.347
		c-0.142,0.39-0.515,0.669-0.954,0.669C18.086,30.917,17.712,30.639,17.57,30.249z"/>
	<path style="fill-rule:evenodd;clip-rule:evenodd;fill:#AE8152;" d="M20.654,31.738c-0.039,0.108-0.061,0.224-0.061,0.346
		c0,0.561,0.454,1.015,1.015,1.015c0.56,0,1.015-0.454,1.015-1.015c0-0.122-0.021-0.238-0.061-0.346
		c-0.141,0.39-0.515,0.668-0.954,0.668C21.169,32.407,20.795,32.128,20.654,31.738z"/>
	<path style="fill-rule:evenodd;clip-rule:evenodd;fill:#AE8152;" d="M14.591,31.738c-0.039,0.108-0.06,0.224-0.06,0.346
		c0,0.561,0.454,1.015,1.015,1.015s1.015-0.454,1.015-1.015c0-0.122-0.022-0.238-0.061-0.346c-0.141,0.39-0.515,0.668-0.954,0.668
		C15.107,32.407,14.733,32.128,14.591,31.738z"/>
	<path style="fill-rule:evenodd;clip-rule:evenodd;fill:#AE8152;" d="M17.57,33.782c-0.039,0.108-0.061,0.225-0.061,0.346
		c0,0.56,0.454,1.015,1.015,1.015c0.56,0,1.015-0.454,1.015-1.015c0-0.122-0.021-0.238-0.061-0.346
		c-0.142,0.39-0.515,0.668-0.954,0.668C18.086,34.451,17.712,34.172,17.57,33.782z"/>
	<path style="fill-rule:evenodd;clip-rule:evenodd;fill:#AE8152;" d="M20.654,35.271c-0.039,0.108-0.061,0.225-0.061,0.347
		c0,0.561,0.454,1.015,1.015,1.015c0.56,0,1.015-0.454,1.015-1.015c0-0.122-0.021-0.238-0.061-0.347
		c-0.141,0.39-0.515,0.669-0.954,0.669C21.169,35.94,20.795,35.662,20.654,35.271z"/>
	<path style="fill-rule:evenodd;clip-rule:evenodd;fill:#AE8152;" d="M14.591,35.271c-0.039,0.108-0.06,0.225-0.06,0.347
		c0,0.561,0.454,1.015,1.015,1.015s1.015-0.454,1.015-1.015c0-0.122-0.022-0.238-0.061-0.347c-0.141,0.39-0.515,0.669-0.954,0.669
		C15.107,35.94,14.733,35.662,14.591,35.271z"/>
	<path style="fill-rule:evenodd;clip-rule:evenodd;fill:#AE8152;" d="M11.646,33.782c-0.039,0.108-0.061,0.225-0.061,0.346
		c0,0.56,0.454,1.015,1.015,1.015c0.56,0,1.015-0.454,1.015-1.015c0-0.122-0.021-0.238-0.061-0.346
		c-0.142,0.39-0.515,0.668-0.954,0.668C12.162,34.451,11.788,34.172,11.646,33.782z"/>
	<path style="fill-rule:evenodd;clip-rule:evenodd;fill:#AE8152;" d="M23.286,33.782c-0.039,0.108-0.061,0.225-0.061,0.346
		c0,0.56,0.454,1.015,1.015,1.015c0.561,0,1.015-0.454,1.015-1.015c0-0.122-0.021-0.238-0.061-0.346
		c-0.141,0.39-0.515,0.668-0.954,0.668C23.802,34.451,23.428,34.172,23.286,33.782z"/>
	<path style="fill-rule:evenodd;clip-rule:evenodd;fill:#AE8152;" d="M17.57,36.761c-0.039,0.108-0.061,0.225-0.061,0.346
		c0,0.56,0.454,1.015,1.015,1.015c0.56,0,1.015-0.455,1.015-1.015c0-0.122-0.021-0.238-0.061-0.346
		c-0.142,0.39-0.515,0.668-0.954,0.668C18.086,37.43,17.712,37.151,17.57,36.761z"/>
	<path style="fill-rule:evenodd;clip-rule:evenodd;fill:#AE8152;" d="M20.654,38.251c-0.039,0.108-0.061,0.225-0.061,0.347
		c0,0.56,0.454,1.015,1.015,1.015c0.56,0,1.015-0.454,1.015-1.015c0-0.122-0.021-0.238-0.061-0.347
		c-0.141,0.39-0.515,0.669-0.954,0.669C21.169,38.919,20.795,38.641,20.654,38.251z"/>
	<path style="fill-rule:evenodd;clip-rule:evenodd;fill:#AE8152;" d="M14.591,38.251c-0.039,0.108-0.06,0.225-0.06,0.347
		c0,0.56,0.454,1.015,1.015,1.015s1.015-0.454,1.015-1.015c0-0.122-0.022-0.238-0.061-0.347c-0.141,0.39-0.515,0.669-0.954,0.669
		C15.107,38.919,14.733,38.641,14.591,38.251z"/>
	<path style="fill-rule:evenodd;clip-rule:evenodd;fill:#AE8152;" d="M11.646,36.761c-0.039,0.108-0.061,0.225-0.061,0.346
		c0,0.56,0.454,1.015,1.015,1.015c0.56,0,1.015-0.455,1.015-1.015c0-0.122-0.021-0.238-0.061-0.346
		c-0.142,0.39-0.515,0.668-0.954,0.668C12.162,37.43,11.788,37.151,11.646,36.761z"/>
	<path style="fill-rule:evenodd;clip-rule:evenodd;fill:#AE8152;" d="M23.286,36.761c-0.039,0.108-0.061,0.225-0.061,0.346
		c0,0.56,0.454,1.015,1.015,1.015c0.561,0,1.015-0.455,1.015-1.015c0-0.122-0.021-0.238-0.061-0.346
		c-0.141,0.39-0.515,0.668-0.954,0.668C23.802,37.43,23.428,37.151,23.286,36.761z"/>
	<path style="fill-rule:evenodd;clip-rule:evenodd;fill:#AE8152;" d="M17.57,39.144c-0.039,0.108-0.061,0.225-0.061,0.347
		c0,0.56,0.454,1.015,1.015,1.015c0.56,0,1.015-0.454,1.015-1.015c0-0.122-0.021-0.238-0.061-0.347
		c-0.142,0.39-0.515,0.669-0.954,0.669C18.086,39.813,17.712,39.535,17.57,39.144z"/>
	<rect x="16.831" y="18.37" style="fill-rule:evenodd;clip-rule:evenodd;fill:#312F2D;" width="3.042" height="1.275"/>
	<path style="fill-rule:evenodd;clip-rule:evenodd;fill:#6D4713;" d="M32.75,25.538c1.845,0.104,5.13,0.629,9.081,0.972
		c-3.137,3.013-5.818,6.271-9.347,5.99C27.043,32.066,27.499,25.242,32.75,25.538z"/>
	<path style="fill-rule:evenodd;clip-rule:evenodd;fill:#7B5223;" d="M1.234,29.776c-0.055,1.847,0.185,5.166,0.187,9.131
		c3.271-2.866,6.748-5.257,6.772-8.797C8.23,24.652,1.392,24.518,1.234,29.776z"/>
	<path style="fill-rule:evenodd;clip-rule:evenodd;fill:#3C3C3B;" d="M18.428,6.006C14.23,7.454,10.326,8.604,7.11,11.343
		c-1.945-3.734-0.54-6.066,2.922-7.586C14.607,1.748,16.98,2.53,18.428,6.006z"/>
	<path style="fill-rule:evenodd;clip-rule:evenodd;fill:#F0C843;" d="M1.139,15.525c-0.363,0.472-0.612,1.439-0.612,2.556
		c0,0.314,0.02,0.616,0.056,0.898H2.7c0.037-0.283,0.056-0.585,0.056-0.898c0-1.117-0.249-2.084-0.612-2.556
		c0.223-0.157,0.368-0.417,0.368-0.711c0-0.333-0.187-0.623-0.462-0.769V7.319L1.234,7.935v6.11
		c-0.275,0.146-0.462,0.436-0.462,0.769C0.771,15.107,0.917,15.367,1.139,15.525z"/>
	<path style="fill-rule:evenodd;clip-rule:evenodd;fill:#E3B524;" d="M1.139,15.525c-0.363,0.472-0.612,1.439-0.612,2.556
		c0,0.314,0.02,0.616,0.056,0.898h1.092V7.602L1.234,7.935v6.11c-0.275,0.146-0.462,0.436-0.462,0.769
		C0.771,15.107,0.917,15.367,1.139,15.525z"/>
	<rect x="23.438" y="9.762" style="fill-rule:evenodd;clip-rule:evenodd;fill:#312F2D;" width="4.334" height="1.14"/>
	<rect x="9.458" y="9.762" style="fill-rule:evenodd;clip-rule:evenodd;fill:#312F2D;" width="4.334" height="1.14"/>
	<path style="fill-rule:evenodd;clip-rule:evenodd;fill:#AE8152;" d="M23.904,39.851l-0.643,0.234
		c-0.239,0.087-0.364,0.354-0.277,0.593l0.729,2.004c0.087,0.239,0.354,0.364,0.593,0.277l0.643-0.234
		c0.239-0.087,0.364-0.354,0.276-0.593l-0.729-2.004C24.41,39.889,24.143,39.764,23.904,39.851z"/>
	<path style="fill-rule:evenodd;clip-rule:evenodd;fill:#7B5223;" d="M23.904,39.851l-0.296,0.108l1.046,2.874l0.296-0.108
		c0.239-0.087,0.364-0.354,0.276-0.593l-0.729-2.004C24.41,39.889,24.143,39.764,23.904,39.851z"/>
	<path style="fill-rule:evenodd;clip-rule:evenodd;fill:#AE8152;" d="M22.287,39.969l-0.643,0.234
		c-0.239,0.087-0.364,0.354-0.277,0.593l1.025,2.816c0.087,0.239,0.354,0.364,0.593,0.277l0.643-0.234
		c0.239-0.087,0.364-0.354,0.277-0.593l-1.025-2.816C22.793,40.007,22.527,39.882,22.287,39.969z"/>
	<path style="fill-rule:evenodd;clip-rule:evenodd;fill:#7B5223;" d="M22.287,39.969l-0.323,0.117l1.342,3.686l0.323-0.117
		c0.239-0.087,0.364-0.354,0.277-0.593l-1.025-2.816C22.793,40.007,22.527,39.882,22.287,39.969z"/>
	<path style="fill-rule:evenodd;clip-rule:evenodd;fill:#AE8152;" d="M20.962,40.922l-0.643,0.234
		c-0.239,0.087-0.364,0.354-0.277,0.593l0.729,2.004c0.087,0.239,0.354,0.364,0.593,0.276l0.643-0.234
		c0.239-0.087,0.364-0.354,0.277-0.593l-0.73-2.004C21.468,40.959,21.202,40.835,20.962,40.922z"/>
	<path style="fill-rule:evenodd;clip-rule:evenodd;fill:#7B5223;" d="M20.962,40.922l-0.338,0.123l1.046,2.874l0.338-0.123
		c0.239-0.087,0.364-0.354,0.277-0.593l-0.729-2.004C21.469,40.959,21.202,40.835,20.962,40.922z"/>
	<path style="fill-rule:evenodd;clip-rule:evenodd;fill:#AE8152;" d="M16.578,41.116l-0.643-0.234
		c-0.239-0.087-0.506,0.037-0.593,0.277l-0.73,2.004c-0.087,0.239,0.037,0.506,0.277,0.593l0.643,0.234
		c0.239,0.087,0.506-0.037,0.593-0.277l0.73-2.004C16.942,41.47,16.817,41.203,16.578,41.116z"/>
	<path style="fill-rule:evenodd;clip-rule:evenodd;fill:#7B5223;" d="M16.578,41.116l-0.296-0.108l-1.046,2.874l0.296,0.108
		c0.239,0.087,0.506-0.037,0.593-0.277l0.73-2.004C16.942,41.47,16.817,41.203,16.578,41.116z"/>
	<path style="fill-rule:evenodd;clip-rule:evenodd;fill:#AE8152;" d="M15.264,40.168l-0.643-0.234
		c-0.239-0.087-0.506,0.037-0.593,0.277l-1.025,2.816c-0.087,0.239,0.037,0.506,0.276,0.593l0.643,0.234
		c0.239,0.087,0.506-0.037,0.593-0.277l1.025-2.816C15.628,40.521,15.503,40.254,15.264,40.168z"/>
	<path style="fill-rule:evenodd;clip-rule:evenodd;fill:#7B5223;" d="M15.264,40.168l-0.323-0.117L13.6,43.736l0.323,0.117
		c0.239,0.087,0.506-0.037,0.593-0.277l1.025-2.816C15.628,40.521,15.503,40.254,15.264,40.168z"/>
	<path style="fill-rule:evenodd;clip-rule:evenodd;fill:#AE8152;" d="M13.637,40.046l-0.643-0.234
		c-0.239-0.087-0.506,0.037-0.593,0.277l-0.729,2.004c-0.087,0.239,0.037,0.506,0.276,0.593l0.643,0.234
		c0.239,0.087,0.506-0.037,0.593-0.277l0.729-2.004C14.001,40.4,13.876,40.133,13.637,40.046z"/>
	<path style="fill-rule:evenodd;clip-rule:evenodd;fill:#7B5223;" d="M13.637,40.046l-0.339-0.123l-1.046,2.874l0.338,0.123
		c0.239,0.087,0.506-0.037,0.593-0.277l0.729-2.004C14.001,40.4,13.876,40.133,13.637,40.046z"/>
	<path style="fill-rule:evenodd;clip-rule:evenodd;fill:#333E50;" d="M24.297,22.504c-1.869,0-3.393-1.524-3.393-3.393
		c0-1.869,1.524-3.393,3.393-3.393c1.869,0,3.393,1.524,3.393,3.393C27.69,20.98,26.165,22.504,24.297,22.504z"/>
	<path style="fill-rule:evenodd;clip-rule:evenodd;fill:#333E50;" d="M12.209,22.68c-1.869,0-3.393-1.524-3.393-3.393
		c0-1.869,1.524-3.393,3.393-3.393c1.869,0,3.394,1.524,3.394,3.393C15.603,21.156,14.078,22.68,12.209,22.68z"/>
	<circle style="fill-rule:evenodd;clip-rule:evenodd;fill:#FFFFFF;" cx="10.683" cy="17.497" r="0.927"/>
	<circle style="fill-rule:evenodd;clip-rule:evenodd;fill:#FFFFFF;" cx="11.696" cy="18.395" r="0.347"/>
	<ellipse style="fill-rule:evenodd;clip-rule:evenodd;fill:#FFFFFF;" cx="25.893" cy="17.497" rx="0.962" ry="0.927"/>
	<ellipse style="fill-rule:evenodd;clip-rule:evenodd;fill:#FFFFFF;" cx="24.841" cy="18.395" rx="0.36" ry="0.347"/>
</g>
</svg>
