<svg version="1.1" id="owl-author_vip"
	 xmlns="http://www.w3.org/2000/svg" xmlns:xlink="http://www.w3.org/1999/xlink" x="0px" y="0px" width="60px" height="60px"
	 viewBox="0 0 60 60" style="enable-background:new 0 0 60 60;" xml:space="preserve">
<circle style="fill-rule:evenodd;clip-rule:evenodd;fill:#FFFFFF;" cx="30" cy="30" r="30"/>
<g>
	<defs>
		<circle id="SVGID_1_" cx="30" cy="30" r="30"/>
	</defs>
	<clipPath id="SVGID_2_">
		<use xlink:href="#SVGID_1_"  style="overflow:visible;"/>
	</clipPath>
	<g style="clip-path:url(#SVGID_2_);">
		<g>
			<polygon style="fill-rule:evenodd;clip-rule:evenodd;fill:#32302D;" points="28.239,4.892 46.522,10.117 56.558,26.27 
				38.274,21.044 			"/>
			<polygon style="fill-rule:evenodd;clip-rule:evenodd;fill:#3C3C3B;" points="28.23,4.892 46.439,10.171 47.095,9.271 
				28.808,4.167 			"/>
			<polygon style="fill-rule:evenodd;clip-rule:evenodd;fill:#3C3C3B;" points="56.503,26.235 46.429,10.141 47.095,9.258 
				57.042,25.48 			"/>
			<path style="fill-rule:evenodd;clip-rule:evenodd;fill:#AE8152;" d="M18.441,65.465c0.056,0.012,0.11,0.027,0.166,0.039
				c19.324,4.153,23.914-16.219,27.838-28.509c3.068-9.606-3.002-20.075-15.538-23.084L18.441,65.465z"/>
			<path style="fill-rule:evenodd;clip-rule:evenodd;fill:#E3B524;" d="M18.441,65.465c0.056,0.012,0.11,0.027,0.166,0.039
				c5.709,1.227,10.131,0.313,13.63-1.9c0.365-0.733,0.654-1.515,0.854-2.34c1.538-6.361-2.773-12.861-9.628-14.519
				c-0.157-0.038-0.313-0.072-0.47-0.104L18.441,65.465z"/>
			<path style="fill-rule:evenodd;clip-rule:evenodd;fill:#C39669;" d="M20.622,14.323c-1.746-2.211-6.149-4.28-9.727-5.04
				c-0.663,3.684-1.296,6.339-0.439,10.551C13.584,18.414,17.494,15.743,20.622,14.323z"/>
			<path style="fill-rule:evenodd;clip-rule:evenodd;fill:#C39669;" d="M18.821,65.557c-0.056-0.015-0.109-0.027-0.165-0.042
				C-0.432,60.381,4.794,40.162,6.918,27.437c1.66-9.946,11.842-16.485,24.369-13.435L18.821,65.557z"/>
			<path style="fill-rule:evenodd;clip-rule:evenodd;fill:#7B5223;" d="M20.195,18.556c-6.635-1.604-13.313,2.474-14.918,9.108
				c-1.604,6.635,2.473,13.313,9.108,14.918c4.171,1.009,7.991-0.392,10.651-3.22c1.442,3.573,4.529,6.422,8.56,7.397
				c6.635,1.604,13.313-2.474,14.918-9.108c1.604-6.634-2.474-13.314-9.108-14.918c-3.956-0.957-7.927,0.108-10.83,2.529
				C27.129,22.241,23.906,19.453,20.195,18.556z"/>
			<path style="fill-rule:evenodd;clip-rule:evenodd;fill:#6D4713;" d="M25.245,39.847c1.519,3.345,4.506,5.981,8.353,6.911
				c6.635,1.604,13.313-2.474,14.918-9.108c1.604-6.634-2.474-13.314-9.108-14.918c-3.847-0.93-7.709,0.051-10.588,2.332
				L25.245,39.847z"/>
			<path style="fill-rule:evenodd;clip-rule:evenodd;fill:#F0C749;" d="M18.821,65.557c-0.056-0.015-0.109-0.027-0.165-0.042
				c-5.156-1.387-8.535-3.876-10.684-7.019c-0.061-1.067-0.604,0.472,0.293-3.236c0.897-3.708,6.309-10.706,15.214-8.503
				L18.821,65.557z"/>
			<path style="fill-rule:evenodd;clip-rule:evenodd;fill:#FFFFFF;" d="M35.153,43.147c4.182,1.011,8.417-1.574,9.428-5.756
				c1.011-4.182-1.574-8.417-5.756-9.428c-4.182-1.011-8.417,1.575-9.428,5.756C28.385,37.901,30.971,42.136,35.153,43.147z"/>
			<path style="fill-rule:evenodd;clip-rule:evenodd;fill:#312F2D;" d="M32.432,28.092c1.91-1.166,4.264-1.604,6.611-1.036
				c2.347,0.567,4.242,2.033,5.408,3.943c1.166,1.909,1.604,4.265,1.036,6.612c-0.567,2.346-2.033,4.242-3.943,5.407
				c-1.91,1.166-4.265,1.604-6.612,1.036c-2.347-0.567-4.242-2.033-5.407-3.943c-1.166-1.91-1.604-4.265-1.036-6.611
				C29.057,31.153,30.522,29.258,32.432,28.092L32.432,28.092z M38.605,28.87c-1.846-0.446-3.698-0.102-5.2,0.815
				c-1.502,0.917-2.655,2.408-3.101,4.254c-0.446,1.846-0.102,3.698,0.815,5.2c0.917,1.502,2.408,2.655,4.253,3.101
				c1.846,0.446,3.699,0.102,5.2-0.815c1.502-0.917,2.655-2.408,3.101-4.253c0.446-1.846,0.102-3.698-0.815-5.201
				C41.941,30.469,40.451,29.316,38.605,28.87L38.605,28.87z"/>
			<path style="fill-rule:evenodd;clip-rule:evenodd;fill:#FFFFFF;" d="M15.006,38.275c4.182,1.011,8.417-1.575,9.428-5.756
				c1.011-4.182-1.575-8.417-5.756-9.428s-8.417,1.575-9.428,5.756C8.239,33.029,10.825,37.264,15.006,38.275z"/>
			<path style="fill-rule:evenodd;clip-rule:evenodd;fill:#312F2D;" d="M12.285,23.221c1.91-1.166,4.265-1.604,6.612-1.036
				c2.347,0.567,4.242,2.033,5.408,3.943c1.166,1.909,1.604,4.265,1.036,6.612c-0.567,2.347-2.033,4.242-3.943,5.407
				c-1.91,1.166-4.265,1.604-6.612,1.036c-2.347-0.567-4.242-2.033-5.408-3.943c-1.166-1.909-1.604-4.265-1.036-6.611
				C8.91,26.282,10.376,24.386,12.285,23.221L12.285,23.221z M18.458,23.999c-1.846-0.446-3.698-0.102-5.2,0.815
				c-1.502,0.917-2.654,2.408-3.101,4.254c-0.446,1.846-0.102,3.698,0.815,5.2c0.917,1.502,2.407,2.655,4.254,3.101
				c1.846,0.446,3.698,0.102,5.2-0.815c1.502-0.917,2.654-2.408,3.101-4.253c0.446-1.846,0.102-3.698-0.815-5.201
				C21.795,25.597,20.304,24.445,18.458,23.999L18.458,23.999z"/>
			<path style="fill-rule:evenodd;clip-rule:evenodd;fill:#F0C749;" d="M21.913,37.937c2.604-2.46,5.997-1.802,7.41,1.736
				c-1.642,1.594-3.563,3.572-5.185,4.978C23.665,43.267,22.356,38.988,21.913,37.937z"/>
			<path style="fill-rule:evenodd;clip-rule:evenodd;fill:#E3B524;" d="M26.073,36.558c1.347,0.302,2.545,1.35,3.25,3.115
				c-1.642,1.594-3.563,3.572-5.185,4.978l-0.012-0.037L26.073,36.558z"/>
			<path style="fill-rule:evenodd;clip-rule:evenodd;fill:#AE8152;" d="M24.098,49.674c0.019,0.171,0.009,0.349-0.034,0.526
				c-0.197,0.816-1.019,1.318-1.836,1.121c-0.816-0.197-1.318-1.019-1.121-1.836c0.043-0.177,0.115-0.34,0.21-0.483
				c0.069,0.618,0.515,1.155,1.155,1.31C23.111,50.466,23.754,50.192,24.098,49.674z"/>
			<path style="fill-rule:evenodd;clip-rule:evenodd;fill:#AE8152;" d="M19.081,50.758c0.019,0.172,0.009,0.349-0.034,0.526
				c-0.198,0.817-1.019,1.319-1.836,1.121c-0.817-0.197-1.318-1.019-1.121-1.836c0.043-0.177,0.115-0.339,0.211-0.483
				c0.069,0.618,0.515,1.155,1.154,1.31C18.095,51.55,18.738,51.276,19.081,50.758z"/>
			<path style="fill-rule:evenodd;clip-rule:evenodd;fill:#AE8152;" d="M27.913,52.893c0.019,0.172,0.009,0.349-0.034,0.526
				c-0.198,0.817-1.019,1.319-1.836,1.121c-0.817-0.197-1.319-1.019-1.121-1.836c0.043-0.177,0.115-0.339,0.211-0.483
				c0.069,0.618,0.515,1.155,1.155,1.31C26.927,53.686,27.57,53.411,27.913,52.893z"/>
			<path style="fill-rule:evenodd;clip-rule:evenodd;fill:#AE8152;" d="M22.853,54.822c0.019,0.171,0.009,0.349-0.034,0.526
				c-0.197,0.817-1.019,1.318-1.836,1.121c-0.817-0.197-1.318-1.019-1.121-1.836c0.043-0.177,0.115-0.34,0.211-0.483
				c0.069,0.618,0.515,1.155,1.155,1.31C21.867,55.614,22.509,55.34,22.853,54.822z"/>
			<path style="fill-rule:evenodd;clip-rule:evenodd;fill:#AE8152;" d="M17.836,55.905c0.019,0.172,0.009,0.349-0.034,0.526
				c-0.197,0.817-1.019,1.319-1.836,1.121c-0.817-0.197-1.318-1.019-1.121-1.836c0.043-0.177,0.115-0.339,0.211-0.483
				c0.069,0.618,0.515,1.155,1.154,1.31C16.85,56.698,17.493,56.424,17.836,55.905z"/>
			<path style="fill-rule:evenodd;clip-rule:evenodd;fill:#AE8152;" d="M26.668,58.041c0.019,0.172,0.009,0.349-0.034,0.526
				c-0.197,0.817-1.019,1.319-1.836,1.121c-0.817-0.197-1.319-1.019-1.121-1.836c0.043-0.177,0.115-0.339,0.211-0.483
				c0.069,0.618,0.515,1.155,1.155,1.31C25.682,58.833,26.325,58.559,26.668,58.041z"/>
			<path style="fill-rule:evenodd;clip-rule:evenodd;fill:#AE8152;" d="M31.483,56.908c0.019,0.171,0.009,0.349-0.034,0.526
				c-0.197,0.816-1.019,1.318-1.836,1.121c-0.816-0.197-1.319-1.019-1.121-1.836c0.043-0.177,0.115-0.34,0.211-0.483
				c0.069,0.618,0.515,1.155,1.155,1.31S31.14,57.427,31.483,56.908z"/>
			<path style="fill-rule:evenodd;clip-rule:evenodd;fill:#AE8152;" d="M14.525,52.808c0.019,0.171,0.009,0.349-0.033,0.526
				c-0.197,0.816-1.019,1.318-1.836,1.121c-0.817-0.198-1.319-1.019-1.121-1.836c0.043-0.177,0.115-0.34,0.211-0.483
				c0.069,0.618,0.515,1.155,1.155,1.31C13.539,53.6,14.182,53.326,14.525,52.808z"/>
			<path style="fill-rule:evenodd;clip-rule:evenodd;fill:#AE8152;" d="M21.803,59.162c0.019,0.171,0.009,0.349-0.034,0.526
				c-0.197,0.816-1.019,1.319-1.836,1.121c-0.817-0.197-1.318-1.02-1.121-1.836c0.043-0.177,0.115-0.34,0.211-0.483
				c0.069,0.618,0.515,1.155,1.155,1.31C20.817,59.954,21.46,59.68,21.803,59.162z"/>
			<path style="fill-rule:evenodd;clip-rule:evenodd;fill:#AE8152;" d="M16.787,60.246c0.019,0.172,0.009,0.349-0.034,0.526
				c-0.197,0.816-1.019,1.318-1.836,1.121c-0.817-0.197-1.318-1.019-1.121-1.836c0.043-0.177,0.115-0.34,0.211-0.484
				c0.069,0.618,0.515,1.156,1.154,1.31C15.801,61.038,16.443,60.764,16.787,60.246z"/>
			<path style="fill-rule:evenodd;clip-rule:evenodd;fill:#AE8152;" d="M25.619,62.381c0.019,0.172,0.009,0.349-0.034,0.526
				c-0.197,0.816-1.019,1.318-1.836,1.121c-0.817-0.197-1.319-1.019-1.121-1.836c0.043-0.177,0.115-0.34,0.211-0.484
				c0.069,0.618,0.515,1.156,1.155,1.31C24.633,63.174,25.276,62.9,25.619,62.381z"/>
			<path style="fill-rule:evenodd;clip-rule:evenodd;fill:#AE8152;" d="M30.434,61.249c0.019,0.171,0.009,0.349-0.034,0.526
				c-0.197,0.816-1.019,1.319-1.836,1.121c-0.816-0.197-1.318-1.02-1.121-1.836c0.043-0.178,0.115-0.34,0.211-0.483
				c0.069,0.618,0.515,1.155,1.155,1.31C29.447,62.041,30.09,61.767,30.434,61.249z"/>
			<path style="fill-rule:evenodd;clip-rule:evenodd;fill:#AE8152;" d="M13.476,57.148c0.019,0.171,0.009,0.349-0.033,0.526
				c-0.197,0.816-1.02,1.318-1.836,1.121c-0.817-0.198-1.319-1.02-1.121-1.836c0.043-0.177,0.115-0.34,0.211-0.483
				c0.069,0.618,0.515,1.156,1.155,1.31C12.49,57.941,13.133,57.666,13.476,57.148z"/>
			<path style="fill-rule:evenodd;clip-rule:evenodd;fill:#AE8152;" d="M20.964,62.634c0.019,0.172,0.009,0.349-0.034,0.526
				c-0.197,0.816-1.019,1.318-1.836,1.121c-0.816-0.197-1.318-1.019-1.121-1.836c0.043-0.177,0.115-0.34,0.211-0.484
				c0.069,0.619,0.515,1.156,1.154,1.31C19.977,63.427,20.62,63.153,20.964,62.634z"/>
			
				<rect x="24.639" y="32.065" transform="matrix(-0.972 -0.235 0.235 -0.972 45.3229 71.4428)" style="fill-rule:evenodd;clip-rule:evenodd;fill:#312F2D;" width="4.56" height="1.912"/>
			<path style="fill-rule:evenodd;clip-rule:evenodd;fill:#7B5223;" d="M-1.975,42.64c-0.731,2.672-1.55,7.591-2.944,13.369
				c5.776-3.023,11.683-5.281,12.965-10.431C10.021,37.639,0.106,35.036-1.975,42.64z"/>
			<path style="fill-rule:evenodd;clip-rule:evenodd;fill:#3C3C3B;" d="M31.388,14.053c5.607,3.587,10.89,6.639,14.61,11.761
				c4.149-4.754,2.924-8.647-1.585-12.081C38.455,9.196,34.723,9.498,31.388,14.053z"/>
			<path style="fill-rule:evenodd;clip-rule:evenodd;fill:#F0C843;" d="M53.223,34.011c0.363,0.815,0.385,2.312-0.009,3.939
				c-0.111,0.457-0.245,0.89-0.398,1.289l-3.083-0.746c0.046-0.425,0.124-0.872,0.235-1.329c0.393-1.627,1.096-2.948,1.792-3.508
				c-0.269-0.308-0.39-0.737-0.286-1.165c0.117-0.486,0.492-0.842,0.945-0.958l2.37-9.799l0.972,1.186l-2.152,8.901
				c0.349,0.31,0.52,0.798,0.403,1.283C53.906,33.533,53.603,33.86,53.223,34.011z"/>
			<path style="fill-rule:evenodd;clip-rule:evenodd;fill:#E3B524;" d="M53.223,34.011c0.363,0.815,0.385,2.312-0.009,3.939
				c-0.111,0.457-0.245,0.89-0.398,1.289l-1.59-0.384l4.008-16.575l0.526,0.642l-2.152,8.901c0.349,0.31,0.52,0.798,0.403,1.283
				C53.906,33.533,53.603,33.86,53.223,34.011z"/>
			
				<rect x="16.16" y="16.973" transform="matrix(-0.972 -0.235 0.235 -0.972 34.0829 39.7177)" style="fill-rule:evenodd;clip-rule:evenodd;fill:#312F2D;" width="6.496" height="1.709"/>
			
				<rect x="36.527" y="21.898" transform="matrix(-0.972 -0.235 0.235 -0.972 73.0885 54.2153)" style="fill-rule:evenodd;clip-rule:evenodd;fill:#312F2D;" width="6.496" height="1.709"/>
			<path style="fill-rule:evenodd;clip-rule:evenodd;fill:#AE8152;" d="M11.488,61.433L12.342,62
				c0.318,0.211,0.405,0.643,0.194,0.961l-1.769,2.663c-0.211,0.318-0.644,0.405-0.962,0.194l-0.854-0.567
				c-0.318-0.211-0.405-0.644-0.194-0.962l1.769-2.663C10.737,61.309,11.17,61.222,11.488,61.433z"/>
			<path style="fill-rule:evenodd;clip-rule:evenodd;fill:#7B5223;" d="M11.488,61.433l0.393,0.261l-2.536,3.818l-0.393-0.261
				c-0.318-0.211-0.405-0.644-0.194-0.962l1.769-2.663C10.737,61.309,11.17,61.222,11.488,61.433z"/>
			<path style="fill-rule:evenodd;clip-rule:evenodd;fill:#AE8152;" d="M13.801,62.174l0.854,0.567
				c0.318,0.211,0.405,0.644,0.194,0.962l-2.486,3.742c-0.211,0.318-0.644,0.405-0.962,0.194l-0.854-0.567
				c-0.318-0.211-0.405-0.644-0.194-0.962l2.486-3.742C13.051,62.05,13.483,61.962,13.801,62.174z"/>
			<path style="fill-rule:evenodd;clip-rule:evenodd;fill:#7B5223;" d="M13.801,62.174l0.429,0.285l-3.253,4.898l-0.429-0.285
				c-0.318-0.211-0.405-0.644-0.194-0.962l2.486-3.742C13.051,62.05,13.483,61.962,13.801,62.174z"/>
			<path style="fill-rule:evenodd;clip-rule:evenodd;fill:#AE8152;" d="M15.396,64.029l0.854,0.567
				c0.318,0.211,0.405,0.644,0.194,0.962l-1.769,2.663c-0.211,0.318-0.644,0.405-0.961,0.194l-0.854-0.567
				c-0.318-0.211-0.405-0.644-0.194-0.962l1.769-2.663C14.645,63.904,15.078,63.817,15.396,64.029z"/>
			<path style="fill-rule:evenodd;clip-rule:evenodd;fill:#7B5223;" d="M15.396,64.029l0.45,0.299l-2.536,3.818l-0.45-0.299
				c-0.318-0.211-0.405-0.644-0.194-0.962l1.769-2.663C14.645,63.905,15.078,63.817,15.396,64.029z"/>
			<path style="fill-rule:evenodd;clip-rule:evenodd;fill:#AE8152;" d="M21.714,65.856l1.019-0.114
				c0.379-0.042,0.724,0.233,0.767,0.612l0.357,3.176c0.043,0.379-0.233,0.724-0.612,0.767l-1.019,0.114
				c-0.379,0.043-0.724-0.233-0.766-0.612l-0.357-3.177C21.06,66.243,21.335,65.899,21.714,65.856z"/>
			<path style="fill-rule:evenodd;clip-rule:evenodd;fill:#7B5223;" d="M21.714,65.856l0.469-0.052l0.512,4.555l-0.469,0.052
				c-0.379,0.043-0.724-0.233-0.766-0.612l-0.357-3.177C21.06,66.243,21.335,65.899,21.714,65.856z"/>
			<path style="fill-rule:evenodd;clip-rule:evenodd;fill:#AE8152;" d="M23.963,64.937l1.019-0.115
				c0.379-0.042,0.724,0.233,0.767,0.612l0.501,4.464c0.043,0.379-0.233,0.724-0.612,0.767l-1.019,0.115
				c-0.379,0.042-0.724-0.233-0.767-0.612l-0.501-4.464C23.309,65.324,23.584,64.979,23.963,64.937z"/>
			<path style="fill-rule:evenodd;clip-rule:evenodd;fill:#7B5223;" d="M23.963,64.937l0.512-0.058l0.656,5.843l-0.512,0.058
				c-0.379,0.042-0.724-0.233-0.767-0.612l-0.501-4.464C23.309,65.324,23.584,64.979,23.963,64.937z"/>
			<path style="fill-rule:evenodd;clip-rule:evenodd;fill:#AE8152;" d="M26.377,65.333l1.019-0.114
				c0.379-0.043,0.725,0.232,0.767,0.612l0.357,3.177c0.043,0.379-0.233,0.724-0.612,0.767l-1.019,0.115
				c-0.379,0.042-0.724-0.233-0.767-0.612l-0.356-3.177C25.722,65.72,25.998,65.375,26.377,65.333z"/>
			<path style="fill-rule:evenodd;clip-rule:evenodd;fill:#7B5223;" d="M26.377,65.333l0.537-0.06l0.512,4.555l-0.537,0.06
				c-0.379,0.042-0.724-0.233-0.767-0.612l-0.356-3.177C25.722,65.72,25.998,65.375,26.377,65.333z"/>
			<path style="fill-rule:evenodd;clip-rule:evenodd;fill:#333E50;" d="M17.027,36.021c2.723,0.658,5.481-1.025,6.139-3.748
				c0.658-2.723-1.025-5.481-3.748-6.139c-2.723-0.658-5.481,1.025-6.139,3.748C12.62,32.605,14.304,35.363,17.027,36.021z"/>
			<path style="fill-rule:evenodd;clip-rule:evenodd;fill:#333E50;" d="M34.575,40.536c2.724,0.659,5.481-1.025,6.139-3.748
				c0.658-2.723-1.025-5.48-3.748-6.139c-2.723-0.658-5.481,1.025-6.139,3.748C30.167,37.121,31.852,39.878,34.575,40.536z"/>
			<circle style="fill-rule:evenodd;clip-rule:evenodd;fill:#FFFFFF;" cx="38.623" cy="33.522" r="1.389"/>
			<circle style="fill-rule:evenodd;clip-rule:evenodd;fill:#FFFFFF;" cx="36.832" cy="34.473" r="0.52"/>
			
				<ellipse transform="matrix(-0.235 0.972 -0.972 -0.235 47.7081 18.7803)" style="fill-rule:evenodd;clip-rule:evenodd;fill:#FFFFFF;" cx="16.464" cy="28.164" rx="1.389" ry="1.442"/>
			
				<ellipse transform="matrix(-0.235 0.972 -0.972 -0.235 50.8426 19.6715)" style="fill-rule:evenodd;clip-rule:evenodd;fill:#FFFFFF;" cx="17.681" cy="29.842" rx="0.52" ry="0.54"/>
			<path style="fill-rule:evenodd;clip-rule:evenodd;fill:#7B5223;" d="M48.005,54.725c-0.571,2.711-2.089,7.46-3.489,13.237
				c-3.756-5.328-7.979-10.036-6.766-15.202C39.619,44.796,49.628,47.011,48.005,54.725z"/>
		</g>
	</g>
</g>
</svg>
