<svg version="1.1" id="owl-cust-vip"
	 xmlns="http://www.w3.org/2000/svg" xmlns:xlink="http://www.w3.org/1999/xlink" x="0px" y="0px" width="60px" height="60px"
	 viewBox="0 0 60 60" style="enable-background:new 0 0 60 60;" xml:space="preserve">
<circle style="fill-rule:evenodd;clip-rule:evenodd;fill:#FFFFFF;" cx="30" cy="30" r="30"/>
<g>
	<defs>
		<circle id="SVGID_1_" cx="30" cy="30" r="30"/>
	</defs>
	<clipPath id="SVGID_2_">
		<use xlink:href="#SVGID_1_"  style="overflow:visible;"/>
	</clipPath>
	<g style="clip-path:url(#SVGID_2_);">
		<g>
			<path style="fill-rule:evenodd;clip-rule:evenodd;fill:#3E8ABD;" d="M36.869,11.836c1.757-2.202,6.17-4.25,9.752-4.992
				c0.645,3.687,1.265,6.345,0.387,10.554C43.887,15.962,39.99,13.272,36.869,11.836z"/>
			<path style="fill-rule:evenodd;clip-rule:evenodd;fill:#3E8ABD;" d="M37.739,63.088c0.055-0.014,0.109-0.026,0.165-0.04
				c19.112-5.04,13.987-25.285,11.926-38.02c-1.611-9.955-11.76-16.543-24.302-13.554L37.739,63.088z"/>
			<path style="fill-rule:evenodd;clip-rule:evenodd;fill:#5BA7DA;" d="M37.739,63.088c0.055-0.014,0.109-0.026,0.165-0.04
				c5.646-1.489,9.176-4.305,11.296-7.863c-0.006-0.819-0.102-1.647-0.297-2.473c-1.507-6.368-8.293-10.214-15.156-8.591
				c-0.157,0.037-0.312,0.078-0.466,0.12L37.739,63.088z"/>
			<path style="fill-rule:evenodd;clip-rule:evenodd;fill:#529FD1;" d="M16.543,16.495c-2.558-1.181-7.419-1.034-10.955-0.093
				c1.076,3.585,1.713,6.239,4.383,9.608C12.117,23.328,14.396,19.177,16.543,16.495z"/>
			<path style="fill-rule:evenodd;clip-rule:evenodd;fill:#529FD1;" d="M38.119,62.999c-0.055,0.012-0.109,0.026-0.166,0.038
				C18.609,67.094,14.119,46.699,10.256,34.39c-3.02-9.621,3.101-20.059,15.652-23.007L38.119,62.999z"/>
			<path style="fill-rule:evenodd;clip-rule:evenodd;fill:#70B7E6;" d="M38.119,62.999c-0.055,0.012-0.109,0.026-0.166,0.038
				c-5.226,1.096-9.366,0.406-12.704-1.425c-0.537-0.924-0.325,0.694-1.203-3.019c-0.878-3.712,0.783-12.401,9.721-14.466
				L38.119,62.999z"/>
			<path style="fill-rule:evenodd;clip-rule:evenodd;fill:#0B608D;" d="M37.101,15.494c-4.06,0.96-7.173,3.821-8.622,7.416
				c-0.07-0.059-0.141-0.116-0.215-0.173c-2.659-2.044-6.8-3.075-10.521-2.195c-6.642,1.572-10.753,8.23-9.181,14.872
				c1.572,6.643,8.23,10.753,14.872,9.182c4.289-1.015,7.097-4.128,8.127-7.995c2.918,2.69,7.077,3.929,11.231,2.947
				c6.643-1.572,10.753-8.23,9.182-14.873C50.402,18.033,43.743,13.923,37.101,15.494z"/>
			<path style="fill-rule:evenodd;clip-rule:evenodd;fill:#00527B;" d="M37.101,15.494c-3.94,0.932-6.988,3.653-8.489,7.099
				l3.41,14.412c2.886,2.408,6.832,3.475,10.77,2.543c6.643-1.572,10.753-8.23,9.182-14.873
				C50.402,18.033,43.743,13.923,37.101,15.494z"/>
			<path style="fill-rule:evenodd;clip-rule:evenodd;fill:#FFFFFF;" d="M42.629,35.988c4.187-0.99,6.793-5.213,5.803-9.399
				c-0.99-4.187-5.213-6.793-9.399-5.803c-4.186,0.99-6.793,5.213-5.803,9.399C34.22,34.371,38.443,36.978,42.629,35.988z"/>
			<path style="fill-rule:evenodd;clip-rule:evenodd;fill:#FFFFFF;" d="M22.459,40.759c4.186-0.99,6.793-5.213,5.803-9.399
				c-0.99-4.187-5.213-6.793-9.399-5.803c-4.187,0.99-6.793,5.213-5.802,9.399C14.051,39.143,18.272,41.75,22.459,40.759z"/>
			<path style="fill-rule:evenodd;clip-rule:evenodd;fill:#3E8ABD;" d="M35.638,46.447c0.095,0.144,0.166,0.307,0.208,0.484
				c0.193,0.817-0.312,1.637-1.13,1.83c-0.817,0.193-1.638-0.313-1.831-1.13c-0.042-0.177-0.05-0.355-0.031-0.526
				c0.341,0.52,0.983,0.797,1.623,0.645C35.117,47.6,35.566,47.065,35.638,46.447z"/>
			<path style="fill-rule:evenodd;clip-rule:evenodd;fill:#3E8ABD;" d="M31.655,49.683c0.095,0.144,0.166,0.307,0.208,0.484
				c0.193,0.818-0.312,1.637-1.13,1.83c-0.818,0.194-1.637-0.312-1.831-1.13c-0.042-0.178-0.051-0.355-0.031-0.526
				c0.341,0.52,0.982,0.798,1.623,0.646C31.134,50.836,31.583,50.301,31.655,49.683z"/>
			<path style="fill-rule:evenodd;clip-rule:evenodd;fill:#3E8ABD;" d="M40.498,47.591c0.095,0.145,0.166,0.307,0.208,0.484
				c0.193,0.818-0.312,1.637-1.13,1.831c-0.817,0.193-1.637-0.312-1.83-1.13c-0.042-0.178-0.051-0.355-0.031-0.526
				c0.341,0.52,0.982,0.798,1.622,0.646C39.977,48.745,40.426,48.209,40.498,47.591z"/>
			<path style="fill-rule:evenodd;clip-rule:evenodd;fill:#3E8ABD;" d="M36.857,51.601c0.095,0.144,0.166,0.307,0.208,0.484
				c0.194,0.818-0.312,1.637-1.13,1.83c-0.817,0.193-1.637-0.312-1.831-1.13c-0.042-0.178-0.05-0.355-0.031-0.526
				c0.341,0.52,0.983,0.797,1.623,0.646C36.337,52.753,36.785,52.218,36.857,51.601z"/>
			<path style="fill-rule:evenodd;clip-rule:evenodd;fill:#3E8ABD;" d="M32.874,54.837c0.095,0.144,0.166,0.307,0.208,0.484
				c0.193,0.817-0.312,1.637-1.13,1.83c-0.818,0.194-1.637-0.312-1.831-1.13c-0.042-0.178-0.051-0.355-0.031-0.526
				c0.341,0.52,0.982,0.797,1.623,0.645C32.354,55.99,32.802,55.455,32.874,54.837z"/>
			<path style="fill-rule:evenodd;clip-rule:evenodd;fill:#3E8ABD;" d="M41.717,52.745c0.095,0.144,0.166,0.307,0.208,0.484
				c0.193,0.817-0.312,1.637-1.131,1.83c-0.817,0.193-1.637-0.312-1.83-1.13c-0.042-0.178-0.051-0.355-0.031-0.526
				c0.341,0.52,0.982,0.797,1.622,0.646C41.196,53.898,41.645,53.363,41.717,52.745z"/>
			<path style="fill-rule:evenodd;clip-rule:evenodd;fill:#3E8ABD;" d="M45.498,49.557c0.095,0.144,0.166,0.307,0.208,0.484
				c0.194,0.818-0.312,1.637-1.13,1.83c-0.817,0.193-1.637-0.312-1.83-1.13c-0.042-0.178-0.051-0.355-0.032-0.526
				c0.341,0.52,0.982,0.797,1.623,0.646C44.977,50.709,45.426,50.174,45.498,49.557z"/>
			<path style="fill-rule:evenodd;clip-rule:evenodd;fill:#3E8ABD;" d="M28.52,53.573c0.094,0.144,0.165,0.307,0.208,0.484
				c0.194,0.818-0.312,1.637-1.13,1.83c-0.817,0.193-1.637-0.312-1.83-1.13c-0.042-0.178-0.051-0.355-0.031-0.526
				c0.341,0.52,0.982,0.797,1.622,0.646C27.999,54.726,28.449,54.191,28.52,53.573z"/>
			<path style="fill-rule:evenodd;clip-rule:evenodd;fill:#3E8ABD;" d="M37.885,55.946c0.095,0.145,0.166,0.307,0.208,0.484
				c0.193,0.818-0.312,1.637-1.13,1.83c-0.817,0.193-1.637-0.312-1.831-1.13c-0.042-0.178-0.05-0.355-0.031-0.526
				c0.341,0.52,0.983,0.797,1.623,0.646C37.365,57.099,37.813,56.564,37.885,55.946z"/>
			<path style="fill-rule:evenodd;clip-rule:evenodd;fill:#3E8ABD;" d="M33.902,59.183c0.095,0.144,0.166,0.307,0.208,0.484
				c0.193,0.817-0.312,1.637-1.13,1.83c-0.818,0.193-1.637-0.312-1.831-1.13c-0.042-0.178-0.051-0.355-0.031-0.526
				c0.341,0.52,0.982,0.797,1.623,0.646C33.382,60.336,33.831,59.801,33.902,59.183z"/>
			<path style="fill-rule:evenodd;clip-rule:evenodd;fill:#3E8ABD;" d="M42.745,57.091c0.095,0.144,0.166,0.307,0.208,0.484
				c0.193,0.817-0.312,1.637-1.13,1.83c-0.817,0.193-1.637-0.313-1.83-1.13c-0.042-0.178-0.051-0.355-0.031-0.526
				c0.341,0.52,0.982,0.797,1.622,0.646C42.224,58.244,42.673,57.709,42.745,57.091z"/>
			<path style="fill-rule:evenodd;clip-rule:evenodd;fill:#3E8ABD;" d="M46.526,53.902c0.095,0.145,0.166,0.307,0.208,0.484
				c0.193,0.818-0.312,1.637-1.13,1.83c-0.817,0.193-1.637-0.312-1.83-1.13c-0.042-0.178-0.051-0.355-0.032-0.526
				c0.341,0.52,0.983,0.797,1.623,0.646C46.005,55.055,46.454,54.519,46.526,53.902z"/>
			<path style="fill-rule:evenodd;clip-rule:evenodd;fill:#3E8ABD;" d="M29.548,57.918c0.094,0.145,0.166,0.307,0.208,0.485
				c0.193,0.818-0.312,1.637-1.13,1.83c-0.817,0.193-1.637-0.312-1.83-1.13c-0.042-0.178-0.051-0.355-0.031-0.526
				c0.341,0.52,0.982,0.797,1.622,0.646C29.027,59.071,29.477,58.536,29.548,57.918z"/>
			<path style="fill-rule:evenodd;clip-rule:evenodd;fill:#3E8ABD;" d="M38.708,59.423c0.095,0.144,0.166,0.307,0.208,0.484
				c0.193,0.817-0.312,1.637-1.13,1.83c-0.817,0.193-1.637-0.312-1.831-1.13c-0.042-0.178-0.05-0.355-0.031-0.526
				c0.341,0.52,0.983,0.797,1.623,0.646C38.187,60.575,38.636,60.04,38.708,59.423z"/>
			<path style="fill-rule:evenodd;clip-rule:evenodd;fill:#39485E;" d="M23.079,37.841c2.727-0.645,4.424-3.394,3.779-6.121
				c-0.645-2.726-3.394-4.424-6.121-3.779c-2.726,0.645-4.424,3.395-3.779,6.121C17.603,36.789,20.354,38.485,23.079,37.841z"/>
			
				<rect x="36.14" y="14.617" transform="matrix(-0.9996 0.0268 -0.0268 -0.9996 79.1759 29.8829)" style="fill-rule:evenodd;clip-rule:evenodd;fill:#39485E;" width="6.495" height="1.709"/>
			
				<rect x="12.699" y="20.162" transform="matrix(0.9057 -0.424 0.424 0.9057 -7.4062 8.7435)" style="fill-rule:evenodd;clip-rule:evenodd;fill:#39485E;" width="6.496" height="1.71"/>
			<path style="fill-rule:evenodd;clip-rule:evenodd;fill:#F0C749;" d="M29.709,62.542l1.023-0.067
				c0.381-0.025,0.713,0.266,0.738,0.647l0.209,3.19c0.026,0.381-0.266,0.713-0.647,0.738l-1.023,0.067
				c-0.381,0.025-0.713-0.266-0.738-0.647l-0.209-3.19C29.038,62.899,29.329,62.567,29.709,62.542z"/>
			<path style="fill-rule:evenodd;clip-rule:evenodd;fill:#D7A916;" d="M29.709,62.542l0.471-0.031l0.301,4.574l-0.471,0.031
				c-0.381,0.025-0.713-0.266-0.738-0.647l-0.209-3.19C29.038,62.899,29.329,62.567,29.709,62.542z"/>
			<path style="fill-rule:evenodd;clip-rule:evenodd;fill:#F0C749;" d="M31.998,61.727l1.023-0.067
				c0.381-0.026,0.712,0.266,0.737,0.646l0.294,4.482c0.026,0.381-0.266,0.713-0.646,0.738l-1.022,0.067
				c-0.381,0.025-0.713-0.265-0.738-0.647l-0.294-4.482C31.327,62.084,31.617,61.752,31.998,61.727z"/>
			<path style="fill-rule:evenodd;clip-rule:evenodd;fill:#D7A916;" d="M31.998,61.727l0.513-0.034l0.386,5.867l-0.513,0.034
				c-0.381,0.025-0.713-0.265-0.738-0.647l-0.294-4.483C31.327,62.084,31.617,61.752,31.998,61.727z"/>
			<path style="fill-rule:evenodd;clip-rule:evenodd;fill:#F0C749;" d="M34.391,62.234l1.023-0.067
				c0.381-0.025,0.713,0.266,0.738,0.647l0.209,3.19c0.025,0.381-0.266,0.713-0.646,0.738l-1.023,0.067
				c-0.381,0.025-0.713-0.266-0.738-0.647l-0.209-3.189C33.72,62.591,34.011,62.259,34.391,62.234z"/>
			<path style="fill-rule:evenodd;clip-rule:evenodd;fill:#D7A916;" d="M34.391,62.234l0.539-0.035l0.3,4.574l-0.539,0.035
				c-0.381,0.025-0.713-0.266-0.738-0.647l-0.209-3.189C33.72,62.591,34.011,62.259,34.391,62.234z"/>
			<path style="fill-rule:evenodd;clip-rule:evenodd;fill:#F0C749;" d="M40.316,60.93l0.957-0.366c0.357-0.137,0.76,0.043,0.896,0.4
				l1.144,2.985c0.137,0.357-0.044,0.76-0.4,0.896l-0.957,0.367c-0.357,0.137-0.76-0.043-0.896-0.4l-1.144-2.985
				C39.78,61.47,39.96,61.067,40.316,60.93z"/>
			<path style="fill-rule:evenodd;clip-rule:evenodd;fill:#D7A916;" d="M40.316,60.93l0.44-0.169l1.64,4.281l-0.441,0.169
				c-0.357,0.137-0.76-0.043-0.896-0.4l-1.144-2.985C39.78,61.47,39.96,61.067,40.316,60.93z"/>
			<path style="fill-rule:evenodd;clip-rule:evenodd;fill:#F0C749;" d="M42.262,59.475l0.957-0.367
				c0.357-0.136,0.759,0.043,0.896,0.4l1.607,4.195c0.136,0.356-0.043,0.759-0.399,0.896l-0.957,0.367
				c-0.026,0.01-0.052,0.018-0.079,0.025l-0.023,0.005c-0.328,0.071-0.671-0.107-0.795-0.43l-1.607-4.195
				C41.726,60.015,41.905,59.612,42.262,59.475z"/>
			<path style="fill-rule:evenodd;clip-rule:evenodd;fill:#D7A916;" d="M42.262,59.475l0.48-0.184l2.103,5.49l-0.48,0.185
				c-0.026,0.01-0.052,0.018-0.079,0.025l-0.023,0.005c-0.328,0.071-0.671-0.107-0.795-0.43l-1.607-4.195
				C41.726,60.015,41.905,59.612,42.262,59.475z"/>
			<path style="fill-rule:evenodd;clip-rule:evenodd;fill:#F0C749;" d="M44.697,59.252l0.958-0.367
				c0.356-0.137,0.759,0.043,0.896,0.399l1.144,2.985c0.136,0.357-0.044,0.76-0.399,0.896l-0.958,0.366
				c-0.356,0.137-0.76-0.043-0.896-0.399l-1.144-2.985C44.161,59.792,44.341,59.388,44.697,59.252z"/>
			<path style="fill-rule:evenodd;clip-rule:evenodd;fill:#D7A916;" d="M44.697,59.252l0.504-0.193l1.641,4.28l-0.504,0.193
				c-0.356,0.137-0.76-0.043-0.896-0.399l-1.144-2.985C44.161,59.792,44.341,59.389,44.697,59.252z"/>
			<path style="fill-rule:evenodd;clip-rule:evenodd;fill:#F0C749;" d="M28.009,36.315c1.209-3.372,4.532-4.32,7.393-1.805
				c-0.742,2.164-1.561,4.797-2.371,6.785C31.983,40.276,28.879,37.051,28.009,36.315z"/>
			<path style="fill-rule:evenodd;clip-rule:evenodd;fill:#E3B524;" d="M31.094,33.202c1.338-0.34,2.88,0.053,4.307,1.308
				c-0.742,2.164-1.561,4.797-2.371,6.785l-0.028-0.027L31.094,33.202z"/>
			<path style="fill-rule:evenodd;clip-rule:evenodd;fill:#0B608D;" d="M19.571,51.857c-0.09,2.769-0.76,7.71-1.134,13.642
				c-4.626-4.594-9.603-8.495-9.308-13.794C9.585,43.537,19.827,43.978,19.571,51.857z"/>
			<path style="fill-rule:evenodd;clip-rule:evenodd;fill:#39485E;" d="M40.772,33.927c2.726-0.645,4.424-3.394,3.779-6.121
				c-0.645-2.726-3.394-4.424-6.121-3.779c-2.726,0.645-4.424,3.394-3.779,6.121C35.296,32.875,38.046,34.572,40.772,33.927z"/>
			<circle style="fill-rule:evenodd;clip-rule:evenodd;fill:#FFFFFF;" cx="41.208" cy="25.84" r="1.389"/>
			<circle style="fill-rule:evenodd;clip-rule:evenodd;fill:#FFFFFF;" cx="40.04" cy="27.499" r="0.52"/>
			
				<ellipse transform="matrix(0.2302 0.9731 -0.9731 0.2302 44.8963 5.4199)" style="fill-rule:evenodd;clip-rule:evenodd;fill:#FFFFFF;" cx="19.022" cy="31.088" rx="1.389" ry="1.443"/>
			
				<ellipse transform="matrix(0.2302 0.9731 -0.9731 0.2302 47.2367 4.3529)" style="fill-rule:evenodd;clip-rule:evenodd;fill:#FFFFFF;" cx="20.867" cy="32.035" rx="0.52" ry="0.54"/>
			<path style="fill-rule:evenodd;clip-rule:evenodd;fill:#0B608D;" d="M50.242,44.601c1.321,2.435,4.134,6.552,7.126,11.688
				c2.077-6.18,4.779-11.898,2.141-16.502C55.442,32.689,46.483,37.672,50.242,44.601z"/>
		</g>
	</g>
</g>
</svg>
