<svg version="1.1" id="owl-author"
	 xmlns="http://www.w3.org/2000/svg" xmlns:xlink="http://www.w3.org/1999/xlink" x="0px" y="0px"
	 viewBox="0 0 197.108 177.901" style="enable-background:new 0 0 197.108 177.901;" xml:space="preserve">
<g>
	<polygon style="fill-rule:evenodd;clip-rule:evenodd;fill:#2A2B2B;" points="109.146,3.245 160.043,5.34 196.343,41.079 
		145.446,38.983 	"/>
	<polygon style="fill-rule:evenodd;clip-rule:evenodd;fill:#414042;" points="109.124,3.253 159.86,5.533 161.002,2.777 110.173,1 	
		"/>
	<polygon style="fill-rule:evenodd;clip-rule:evenodd;fill:#414042;" points="196.178,41.024 159.817,5.462 160.995,2.743 
		197.108,38.72 	"/>
	<path style="fill-rule:evenodd;clip-rule:evenodd;fill:#A57B54;" d="M121.772,167.135c0.154-0.004,0.302,0,0.456-0.005
		c52.931-1.352,52.056-57.287,54.536-91.759c1.94-26.942-20.455-50.38-54.992-50.324V167.135z"/>
	<path style="fill-rule:evenodd;clip-rule:evenodd;fill:#DDAF34;" d="M121.772,167.135c0.154-0.004,0.302,0,0.456-0.005
		c15.637-0.398,26.575-5.563,34.294-13.529c0.49-2.14,0.75-4.356,0.75-6.631c0-17.53-15.317-31.742-34.211-31.742
		c-0.432,0-0.861,0.01-1.289,0.023V167.135z"/>
	<path style="fill-rule:evenodd;clip-rule:evenodd;fill:#BB8F68;" d="M95.252,32.599c-5.939-4.658-18.705-7.272-28.5-7
		c0.593,10.011,0.616,17.322,5.5,27.75C79.502,47.683,88.002,38.266,95.252,32.599z"/>
	<path style="fill-rule:evenodd;clip-rule:evenodd;fill:#BB8F68;" d="M122.819,167.135c-0.154-0.004-0.302,0-0.456-0.005
		c-52.931-1.352-52.056-57.287-54.536-91.759c-1.94-26.942,20.456-50.38,54.993-50.324V167.135z"/>
	<path style="fill-rule:evenodd;clip-rule:evenodd;fill:#714C23;" d="M96.806,43.889c-18.285,0-33.108,14.822-33.108,33.107
		c0,18.286,14.823,33.108,33.108,33.108c11.496,0,20.56-6.053,25.707-15.09c6.006,8.396,15.837,13.869,26.947,13.869
		c18.285,0,33.108-14.823,33.108-33.108c0-18.285-14.823-33.109-33.108-33.109c-10.903,0-20.573,5.272-26.606,13.403
		C117.18,49.118,107.033,43.889,96.806,43.889z"/>
	<path style="fill-rule:evenodd;clip-rule:evenodd;fill:#654112;" d="M123.36,96.146c6.06,7.753,15.498,12.737,26.1,12.737
		c18.285,0,33.108-14.823,33.108-33.108c0-18.285-14.823-33.109-33.108-33.109c-10.603,0-20.04,4.986-26.1,12.739V96.146z"/>
	<path style="fill-rule:evenodd;clip-rule:evenodd;fill:#EAC252;" d="M122.819,167.135c-0.154-0.004-0.302,0-0.456-0.005
		c-14.299-0.364-24.665-4.717-32.237-11.55c-0.83-2.738-1.275,1.609-1.275-8.61s9.688-31.848,34.261-31.72L122.819,167.135z"/>
	<path style="fill-rule:evenodd;clip-rule:evenodd;fill:#FFFFFF;" d="M151.235,98.5c11.525,0,20.924-9.398,20.924-20.923
		s-9.399-20.924-20.924-20.924s-20.924,9.399-20.924,20.924S139.71,98.5,151.235,98.5z"/>
	<path style="fill-rule:evenodd;clip-rule:evenodd;fill:#292A2A;" d="M134.672,61.015c4.238-4.239,10.094-6.861,16.562-6.861
		c6.468,0,12.325,2.622,16.564,6.861c4.238,4.237,6.861,10.095,6.861,16.562s-2.623,12.324-6.861,16.563
		c-4.239,4.239-10.096,6.861-16.564,6.861c-6.468,0-12.324-2.622-16.562-6.861c-4.239-4.238-6.861-10.095-6.861-16.563
		S130.432,65.252,134.672,61.015L134.672,61.015z M151.234,59.153c-5.087,0-9.693,2.063-13.027,5.397
		c-3.333,3.334-5.396,7.939-5.396,13.027c0,5.087,2.063,9.693,5.396,13.027c3.335,3.334,7.94,5.396,13.027,5.396
		c5.088,0,9.695-2.063,13.028-5.396c3.334-3.334,5.396-7.94,5.396-13.027c0-5.088-2.062-9.693-5.396-13.027
		C160.928,61.216,156.321,59.153,151.234,59.153L151.234,59.153z"/>
	<path style="fill-rule:evenodd;clip-rule:evenodd;fill:#FFFFFF;" d="M95.71,98.5c11.524,0,20.924-9.398,20.924-20.923
		s-9.4-20.924-20.924-20.924s-20.924,9.399-20.924,20.924S84.186,98.5,95.71,98.5z"/>
	<path style="fill-rule:evenodd;clip-rule:evenodd;fill:#292A2A;" d="M79.147,61.015c4.239-4.239,10.096-6.861,16.563-6.861
		c6.468,0,12.324,2.622,16.563,6.861c4.239,4.237,6.861,10.095,6.861,16.562s-2.622,12.324-6.861,16.563
		c-4.238,4.239-10.095,6.861-16.563,6.861c-6.468,0-12.325-2.622-16.563-6.861c-4.238-4.238-6.861-10.095-6.861-16.563
		S74.908,65.252,79.147,61.015L79.147,61.015z M95.71,59.153c-5.088,0-9.694,2.063-13.028,5.397
		c-3.334,3.334-5.396,7.939-5.396,13.027c0,5.087,2.062,9.693,5.396,13.027c3.334,3.334,7.94,5.396,13.028,5.396
		c5.087,0,9.694-2.063,13.028-5.396c3.333-3.334,5.396-7.94,5.396-13.027c0-5.088-2.062-9.693-5.396-13.027
		C105.404,61.216,100.798,59.153,95.71,59.153L95.71,59.153z"/>
	<path style="fill-rule:evenodd;clip-rule:evenodd;fill:#EAC252;" d="M113.482,93.271c5.23-8.045,14.48-8.467,20.386-0.146
		c-3.27,5.184-7.027,11.543-10.366,16.225C121.399,106.047,115.295,95.729,113.482,93.271z"/>
	<path style="fill-rule:evenodd;clip-rule:evenodd;fill:#DDAF34;" d="M123.446,87.062c3.696-0.063,7.475,1.912,10.422,6.063
		c-3.27,5.184-7.027,11.543-10.366,16.225l-0.056-0.088V87.062z"/>
	<path style="fill-rule:evenodd;clip-rule:evenodd;fill:#A57B54;" d="M126.559,122.455c0.157,0.435,0.243,0.902,0.243,1.392
		c0,2.25-1.824,4.073-4.075,4.073c-2.25,0-4.075-1.823-4.075-4.073c0-0.489,0.086-0.957,0.244-1.392
		c0.568,1.566,2.069,2.685,3.831,2.685C124.489,125.14,125.99,124.021,126.559,122.455z"/>
	<path style="fill-rule:evenodd;clip-rule:evenodd;fill:#A57B54;" d="M114.179,128.436c0.158,0.436,0.244,0.901,0.244,1.391
		c0,2.251-1.824,4.075-4.075,4.075c-2.251,0-4.075-1.824-4.075-4.075c0-0.489,0.086-0.955,0.244-1.391
		c0.568,1.565,2.069,2.684,3.831,2.684C112.11,131.12,113.611,130.002,114.179,128.436z"/>
	<path style="fill-rule:evenodd;clip-rule:evenodd;fill:#A57B54;" d="M138.521,128.436c0.158,0.436,0.243,0.901,0.243,1.391
		c0,2.251-1.823,4.075-4.074,4.075c-2.251,0-4.075-1.824-4.075-4.075c0-0.489,0.086-0.955,0.244-1.391
		c0.568,1.565,2.069,2.684,3.831,2.684C136.451,131.12,137.952,130.002,138.521,128.436z"/>
	<path style="fill-rule:evenodd;clip-rule:evenodd;fill:#A57B54;" d="M126.559,136.643c0.157,0.434,0.243,0.902,0.243,1.391
		c0,2.25-1.824,4.074-4.075,4.074c-2.25,0-4.075-1.824-4.075-4.074c0-0.488,0.086-0.957,0.244-1.391
		c0.568,1.565,2.069,2.684,3.831,2.684C124.489,139.327,125.99,138.209,126.559,136.643z"/>
	<path style="fill-rule:evenodd;clip-rule:evenodd;fill:#A57B54;" d="M114.179,142.623c0.158,0.436,0.244,0.903,0.244,1.392
		c0,2.251-1.824,4.075-4.075,4.075c-2.251,0-4.075-1.824-4.075-4.075c0-0.488,0.086-0.956,0.244-1.392
		c0.568,1.566,2.069,2.685,3.831,2.685C112.11,145.308,113.611,144.189,114.179,142.623z"/>
	<path style="fill-rule:evenodd;clip-rule:evenodd;fill:#A57B54;" d="M138.521,142.623c0.158,0.436,0.243,0.903,0.243,1.392
		c0,2.251-1.823,4.075-4.074,4.075c-2.251,0-4.075-1.824-4.075-4.075c0-0.488,0.086-0.956,0.244-1.392
		c0.568,1.566,2.069,2.685,3.831,2.685C136.451,145.308,137.952,144.189,138.521,142.623z"/>
	<path style="fill-rule:evenodd;clip-rule:evenodd;fill:#A57B54;" d="M150.344,136.643c0.157,0.434,0.243,0.902,0.243,1.391
		c0,2.25-1.824,4.074-4.075,4.074c-2.25,0-4.075-1.824-4.075-4.074c0-0.488,0.086-0.957,0.244-1.391
		c0.568,1.565,2.069,2.684,3.831,2.684C148.275,139.327,149.776,138.209,150.344,136.643z"/>
	<path style="fill-rule:evenodd;clip-rule:evenodd;fill:#A57B54;" d="M103.608,136.643c0.158,0.434,0.244,0.902,0.244,1.391
		c0,2.25-1.824,4.074-4.075,4.074c-2.251,0-4.075-1.824-4.075-4.074c0-0.488,0.086-0.957,0.244-1.391
		c0.568,1.565,2.069,2.684,3.831,2.684S103.04,138.209,103.608,136.643z"/>
	<path style="fill-rule:evenodd;clip-rule:evenodd;fill:#A57B54;" d="M126.559,148.605c0.157,0.434,0.243,0.902,0.243,1.391
		c0,2.25-1.824,4.075-4.075,4.075c-2.25,0-4.075-1.825-4.075-4.075c0-0.488,0.086-0.957,0.244-1.391
		c0.568,1.564,2.069,2.684,3.831,2.684C124.489,151.289,125.99,150.17,126.559,148.605z"/>
	<path style="fill-rule:evenodd;clip-rule:evenodd;fill:#A57B54;" d="M114.179,154.586c0.158,0.435,0.244,0.902,0.244,1.392
		c0,2.25-1.824,4.074-4.075,4.074c-2.251,0-4.075-1.824-4.075-4.074c0-0.489,0.086-0.957,0.244-1.392
		c0.568,1.565,2.069,2.685,3.831,2.685C112.11,157.27,113.611,156.151,114.179,154.586z"/>
	<path style="fill-rule:evenodd;clip-rule:evenodd;fill:#A57B54;" d="M138.521,154.586c0.158,0.435,0.243,0.902,0.243,1.392
		c0,2.25-1.823,4.074-4.074,4.074c-2.251,0-4.075-1.824-4.075-4.074c0-0.489,0.086-0.957,0.244-1.392
		c0.568,1.565,2.069,2.685,3.831,2.685C136.451,157.27,137.952,156.151,138.521,154.586z"/>
	<path style="fill-rule:evenodd;clip-rule:evenodd;fill:#A57B54;" d="M150.344,148.605c0.157,0.434,0.243,0.902,0.243,1.391
		c0,2.25-1.824,4.075-4.075,4.075c-2.25,0-4.075-1.825-4.075-4.075c0-0.488,0.086-0.957,0.244-1.391
		c0.568,1.564,2.069,2.684,3.831,2.684C148.275,151.289,149.776,150.17,150.344,148.605z"/>
	<path style="fill-rule:evenodd;clip-rule:evenodd;fill:#A57B54;" d="M103.608,148.605c0.158,0.434,0.244,0.902,0.244,1.391
		c0,2.25-1.824,4.075-4.075,4.075c-2.251,0-4.075-1.825-4.075-4.075c0-0.488,0.086-0.957,0.244-1.391
		c0.568,1.564,2.069,2.684,3.831,2.684S103.04,150.17,103.608,148.605z"/>
	<path style="fill-rule:evenodd;clip-rule:evenodd;fill:#A57B54;" d="M126.559,158.174c0.157,0.435,0.243,0.903,0.243,1.393
		c0,2.25-1.824,4.074-4.075,4.074c-2.25,0-4.075-1.824-4.075-4.074c0-0.489,0.086-0.957,0.244-1.393
		c0.568,1.567,2.069,2.685,3.831,2.685C124.489,160.859,125.99,159.741,126.559,158.174z"/>
	<rect x="117.312" y="74.758" style="fill-rule:evenodd;clip-rule:evenodd;fill:#292A2A;" width="12.214" height="5.121"/>
	<path style="fill-rule:evenodd;clip-rule:evenodd;fill:#654112;" d="M65.61,103.539c-7.409,0.418-20.6,2.525-36.463,3.903
		c12.596,12.097,23.359,25.18,37.531,24.051C88.523,129.754,86.693,102.354,65.61,103.539z"/>
	<path style="fill-rule:evenodd;clip-rule:evenodd;fill:#714C23;" d="M192.151,120.556c0.221,7.417-0.743,20.741-0.751,36.663
		c-13.136-11.509-27.095-21.106-27.19-35.323C164.062,99.982,191.52,99.447,192.151,120.556z"/>
	<path style="fill-rule:evenodd;clip-rule:evenodd;fill:#414042;" d="M123.114,25.117c16.858,5.811,32.534,10.43,45.447,21.426
		c7.809-14.991,2.168-24.356-11.734-30.458C138.458,8.019,128.93,11.157,123.114,25.117z"/>
	<path style="fill-rule:evenodd;clip-rule:evenodd;fill:#EAC34D;" d="M192.533,63.335c1.458,1.896,2.457,5.778,2.457,10.263
		c0,1.26-0.079,2.472-0.226,3.607h-8.497c-0.147-1.136-0.225-2.348-0.225-3.607c0-4.484,0.999-8.367,2.457-10.263
		c-0.895-0.632-1.479-1.675-1.479-2.854c0-1.339,0.752-2.502,1.857-3.088V30.386l3.277,2.477v24.531
		c1.104,0.586,1.856,1.749,1.856,3.088C194.011,61.66,193.427,62.703,192.533,63.335z"/>
	<path style="fill-rule:evenodd;clip-rule:evenodd;fill:#DDAF34;" d="M192.533,63.335c1.458,1.896,2.457,5.778,2.457,10.263
		c0,1.26-0.079,2.472-0.226,3.607h-4.383V31.523l1.773,1.339v24.531c1.104,0.586,1.856,1.749,1.856,3.088
		C194.011,61.66,193.427,62.703,192.533,63.335z"/>
	<rect x="85.598" y="40.198" style="fill-rule:evenodd;clip-rule:evenodd;fill:#292A2A;" width="17.4" height="4.579"/>
	<rect x="141.729" y="40.198" style="fill-rule:evenodd;clip-rule:evenodd;fill:#292A2A;" width="17.401" height="4.579"/>
	<path style="fill-rule:evenodd;clip-rule:evenodd;fill:#A57B54;" d="M101.129,161.013l2.58,0.939c0.961,0.35,1.461,1.42,1.11,2.382
		l-2.929,8.046c-0.35,0.96-1.42,1.46-2.381,1.111l-2.581-0.939c-0.96-0.35-1.46-1.421-1.11-2.382l2.928-8.047
		C99.096,161.163,100.168,160.663,101.129,161.013z"/>
	<path style="fill-rule:evenodd;clip-rule:evenodd;fill:#714C23;" d="M101.129,161.013l1.188,0.433l-4.2,11.539l-1.188-0.433
		c-0.96-0.35-1.46-1.421-1.11-2.382l2.928-8.047C99.096,161.163,100.168,160.663,101.129,161.013z"/>
	<path style="fill-rule:evenodd;clip-rule:evenodd;fill:#A57B54;" d="M107.619,161.485l2.581,0.939
		c0.96,0.351,1.46,1.422,1.111,2.383l-4.116,11.308c-0.35,0.961-1.422,1.461-2.382,1.111l-2.58-0.939
		c-0.961-0.35-1.461-1.421-1.111-2.382l4.116-11.309C105.587,161.636,106.658,161.136,107.619,161.485z"/>
	<path style="fill-rule:evenodd;clip-rule:evenodd;fill:#714C23;" d="M107.619,161.485l1.295,0.472l-5.387,14.801l-1.295-0.472
		c-0.961-0.35-1.461-1.421-1.111-2.382l4.116-11.309C105.587,161.636,106.658,161.136,107.619,161.485z"/>
	<path style="fill-rule:evenodd;clip-rule:evenodd;fill:#A57B54;" d="M112.939,165.311l2.581,0.939c0.96,0.35,1.46,1.422,1.11,2.383
		l-2.929,8.047c-0.35,0.96-1.421,1.46-2.381,1.109l-2.581-0.939c-0.961-0.35-1.46-1.421-1.111-2.382l2.929-8.047
		C110.907,165.461,111.978,164.961,112.939,165.311z"/>
	<path style="fill-rule:evenodd;clip-rule:evenodd;fill:#714C23;" d="M112.939,165.311l1.359,0.495l-4.2,11.538l-1.359-0.494
		c-0.961-0.35-1.46-1.421-1.111-2.382l2.929-8.047C110.906,165.461,111.978,164.961,112.939,165.311z"/>
	<path style="fill-rule:evenodd;clip-rule:evenodd;fill:#A57B54;" d="M130.542,166.092l2.581-0.939
		c0.961-0.349,2.032,0.15,2.382,1.111l2.929,8.046c0.35,0.961-0.15,2.032-1.111,2.382l-2.581,0.939
		c-0.96,0.35-2.032-0.15-2.381-1.11l-2.929-8.047C129.081,167.513,129.582,166.441,130.542,166.092z"/>
	<path style="fill-rule:evenodd;clip-rule:evenodd;fill:#714C23;" d="M130.542,166.092l1.189-0.433l4.2,11.539l-1.189,0.433
		c-0.96,0.35-2.032-0.15-2.381-1.11l-2.929-8.047C129.081,167.513,129.582,166.441,130.542,166.092z"/>
	<path style="fill-rule:evenodd;clip-rule:evenodd;fill:#A57B54;" d="M135.818,162.282l2.581-0.939
		c0.961-0.35,2.032,0.15,2.382,1.11l4.115,11.308c0.35,0.961-0.15,2.032-1.11,2.382l-2.581,0.939
		c-0.961,0.35-2.032-0.149-2.381-1.11l-4.116-11.308C134.358,163.703,134.858,162.631,135.818,162.282z"/>
	<path style="fill-rule:evenodd;clip-rule:evenodd;fill:#714C23;" d="M135.818,162.282l1.296-0.472l5.387,14.8l-1.296,0.472
		c-0.961,0.35-2.032-0.149-2.381-1.11l-4.116-11.308C134.358,163.703,134.858,162.631,135.818,162.282z"/>
	<path style="fill-rule:evenodd;clip-rule:evenodd;fill:#A57B54;" d="M142.352,161.793l2.58-0.938
		c0.961-0.351,2.033,0.149,2.382,1.11l2.929,8.047c0.35,0.96-0.15,2.03-1.11,2.381l-2.581,0.94c-0.961,0.349-2.032-0.15-2.382-1.111
		l-2.928-8.047C140.891,163.215,141.392,162.143,142.352,161.793z"/>
	<path style="fill-rule:evenodd;clip-rule:evenodd;fill:#714C23;" d="M142.352,161.793l1.359-0.494l4.2,11.539l-1.359,0.495
		c-0.961,0.349-2.032-0.15-2.382-1.111l-2.928-8.047C140.891,163.215,141.392,162.143,142.352,161.793z"/>
	<path style="fill-rule:evenodd;clip-rule:evenodd;fill:#2E3D50;" d="M99.551,91.358c7.506,0,13.625-6.119,13.625-13.625
		c0-7.504-6.119-13.625-13.625-13.625c-7.504,0-13.625,6.121-13.625,13.625C85.926,85.239,92.048,91.358,99.551,91.358z"/>
	<path style="fill-rule:evenodd;clip-rule:evenodd;fill:#2E3D50;" d="M148.086,92.067c7.506,0,13.625-6.119,13.625-13.625
		c0-7.504-6.119-13.625-13.625-13.625c-7.504,0-13.626,6.121-13.626,13.625C134.46,85.948,140.582,92.067,148.086,92.067z"/>
	<path style="fill-rule:evenodd;clip-rule:evenodd;fill:#FFFFFF;" d="M154.212,74.975c2.049,0,3.721-1.672,3.721-3.722
		s-1.672-3.722-3.721-3.722c-2.049,0-3.72,1.672-3.72,3.722S152.162,74.975,154.212,74.975z"/>
	<path style="fill-rule:evenodd;clip-rule:evenodd;fill:#FFFFFF;" d="M150.145,76.252c0.766,0,1.392-0.625,1.392-1.394
		c0-0.767-0.627-1.393-1.392-1.393c-0.768,0-1.394,0.626-1.394,1.393C148.751,75.627,149.377,76.252,150.145,76.252z"/>
	<path style="fill-rule:evenodd;clip-rule:evenodd;fill:#FFFFFF;" d="M93.139,74.975c-2.128,0-3.864-1.672-3.864-3.724
		c0-2.048,1.736-3.72,3.864-3.72c2.128,0,3.864,1.672,3.864,3.72C97.004,73.304,95.268,74.975,93.139,74.975z"/>
	<path style="fill-rule:evenodd;clip-rule:evenodd;fill:#FFFFFF;" d="M97.364,76.252c-0.795,0-1.446-0.627-1.446-1.394
		c0-0.768,0.651-1.393,1.446-1.393c0.797,0,1.447,0.625,1.447,1.393C98.811,75.625,98.161,76.252,97.364,76.252z"/>
	<path style="fill-rule:evenodd;clip-rule:evenodd;fill:#BCBEC0;" d="M4.959,152.142h51.088c-1.808,0.956-3.084,3.276-3.084,5.986
		c0,2.517,1.101,4.698,2.708,5.761H4.959V152.142z"/>
	<path style="fill-rule:evenodd;clip-rule:evenodd;fill:#D1D3D4;" d="M4.959,152.142h51.088c-1.702,0.9-2.933,3.008-3.072,5.511
		H4.959V152.142z"/>
	<path style="fill-rule:evenodd;clip-rule:evenodd;fill:#BCBEC0;" d="M13.329,134.304h36.587v11.747H12.459
		c1.963-0.852,3.376-3.273,3.376-6.126C15.836,137.513,14.826,135.411,13.329,134.304z"/>
	<path style="fill-rule:evenodd;clip-rule:evenodd;fill:#D1D3D4;" d="M13.329,134.304h36.587v5.617H15.836
		C15.836,137.511,14.825,135.411,13.329,134.304z"/>
	<path style="fill-rule:evenodd;clip-rule:evenodd;fill:#A57B54;" d="M11.629,130.681h33.604c2.34,0,4.469,0.958,6.013,2.503
		l0.009,0.009c1.543,1.544,2.503,3.673,2.503,6.013v1.437c0,2.341-0.959,4.47-2.503,6.014l-0.009,0.009
		c-1.544,1.544-3.674,2.503-6.013,2.503H11.629v-5.076h33.604c0.95,0,1.814-0.387,2.439-1.01c0.623-0.625,1.01-1.489,1.01-2.44
		v-1.437c0-0.95-0.387-1.814-1.01-2.439c-0.625-0.623-1.489-1.01-2.439-1.01H11.629V130.681z"/>
	<path style="fill-rule:evenodd;clip-rule:evenodd;fill:#BB8F68;" d="M11.629,130.681h33.604c2.34,0,4.469,0.958,6.013,2.503
		l0.009,0.009c1.543,1.544,2.503,3.673,2.503,6.013v0.715h-5.076v-0.715c0-0.95-0.387-1.814-1.01-2.439
		c-0.625-0.623-1.489-1.01-2.439-1.01H11.629V130.681z"/>
	<path style="fill-rule:evenodd;clip-rule:evenodd;fill:#2E3D50;" d="M9.526,148.883h46.771v5.076H9.526
		c-0.952,0-1.814,0.386-2.434,1.006v0.009c-0.627,0.626-1.016,1.489-1.016,2.435v1.438c0,0.952,0.385,1.814,1.005,2.434l0.01,0.01
		c0.62,0.62,1.482,1.005,2.434,1.005h46.771v5.076H9.526c-2.336,0-4.465-0.958-6.013-2.503l-0.005-0.005l-0.005-0.005
		C1.959,163.31,1,161.182,1,158.846v-1.438c0-2.347,0.959-4.479,2.503-6.023l0.005,0.005C5.057,149.843,7.188,148.883,9.526,148.883
		z"/>
	<path style="fill-rule:evenodd;clip-rule:evenodd;fill:#455871;" d="M9.526,148.883h46.771v5.076H9.526
		c-0.952,0-1.814,0.386-2.434,1.006v0.009c-0.627,0.626-1.016,1.489-1.016,2.435v0.244H1v-0.244c0-2.347,0.959-4.479,2.503-6.023
		l0.005,0.005C5.057,149.843,7.188,148.883,9.526,148.883z"/>
	<polygon style="fill-rule:evenodd;clip-rule:evenodd;fill:#654112;" points="36.985,139.981 42.409,139.981 42.409,148.24 
		39.697,145.528 36.985,148.24 	"/>
</g>
</svg>
