<?xml version="1.0" encoding="iso-8859-1"?>
<svg version="1.1"
	 xmlns="http://www.w3.org/2000/svg" xmlns:xlink="http://www.w3.org/1999/xlink" x="0px" y="0px" width="162.498px"
	 height="151.082px" viewBox="0 0 162.498 151.082" style="enable-background:new 0 0 162.498 151.082;" xml:space="preserve">
<path style="fill-rule:evenodd;clip-rule:evenodd;fill:#3B89B8;" d="M123.347,7.942c5.939-4.658,18.705-7.274,28.5-7
	c-0.592,10.01-0.615,17.321-5.5,27.75C139.097,23.025,130.597,13.608,123.347,7.942z"/>
<path style="fill-rule:evenodd;clip-rule:evenodd;fill:#3B89B8;" d="M94.007,142.085c0.151-0.002,0.301,0,0.455-0.003
	c52.932-1.352,52.057-57.288,54.536-91.76C150.939,23.379,128.544-0.056,94.007,0V142.085z"/>
<path style="fill-rule:evenodd;clip-rule:evenodd;fill:#51A6D8;" d="M94.007,142.085c0.151-0.002,0.301,0,0.455-0.003
	c15.637-0.399,26.575-5.564,34.295-13.53c0.49-2.139,0.75-4.356,0.75-6.631c0-17.53-15.318-31.742-34.211-31.742
	c-0.433,0-0.861,0.01-1.289,0.024V142.085z"/>
<path style="fill-rule:evenodd;clip-rule:evenodd;fill:#4B9DCD;" d="M67.485,7.55c-5.939-4.657-18.703-7.272-28.5-6.999
	c0.595,10.01,0.618,17.319,5.5,27.75C51.735,22.633,60.235,13.217,67.485,7.55z"/>
<path style="fill-rule:evenodd;clip-rule:evenodd;fill:#4B9DCD;" d="M95.052,142.085c-0.152-0.002-0.302,0-0.455-0.003
	c-52.932-1.352-52.057-57.288-54.537-91.76C38.121,23.379,60.515-0.056,95.052,0V142.085z"/>
<path style="fill-rule:evenodd;clip-rule:evenodd;fill:#61B5E5;" d="M95.052,142.085c-0.152-0.002-0.302,0-0.455-0.003
	c-14.299-0.365-24.666-4.719-32.238-11.551c-0.829-2.739-1.274,1.609-1.274-8.61s9.688-31.847,34.263-31.718L95.052,142.085z"/>
<path style="fill-rule:evenodd;clip-rule:evenodd;fill:#0C618C;" d="M121.694,17.619c-11.175,0-21.056,5.536-27.05,14.016
	c-0.147-0.197-0.297-0.392-0.453-0.584C88.521,24.084,78.36,18.84,68.118,18.84c-18.284,0-33.107,14.822-33.107,33.107
	c0,18.286,14.822,33.108,33.107,33.108c11.808,0,21.047-6.385,26.116-15.829c5.949,8.812,16.027,14.608,27.46,14.608
	c18.286,0,33.108-14.823,33.108-33.108C154.802,32.442,139.98,17.619,121.694,17.619z"/>
<path style="fill-rule:evenodd;clip-rule:evenodd;fill:#005278;" d="M121.694,17.619c-10.845,0-20.47,5.214-26.509,13.271v39.673
	c6.039,8.058,15.666,13.271,26.509,13.271c18.286,0,33.108-14.823,33.108-33.108C154.802,32.442,139.98,17.619,121.694,17.619z"/>
<path style="fill-rule:evenodd;clip-rule:evenodd;fill:#FFFFFF;" d="M123.468,74.453c11.524,0,20.924-9.4,20.924-20.925
	s-9.399-20.924-20.924-20.924s-20.925,9.399-20.925,20.924S111.944,74.453,123.468,74.453z"/>
<path style="fill-rule:evenodd;clip-rule:evenodd;fill:#FFFFFF;" d="M67.944,74.453c11.524,0,20.925-9.4,20.925-20.925
	s-9.4-20.924-20.925-20.924c-11.525,0-20.923,9.399-20.923,20.924S56.419,74.453,67.944,74.453z"/>
<path style="fill-rule:evenodd;clip-rule:evenodd;fill:#3B89B8;" d="M98.792,97.407c0.157,0.434,0.243,0.902,0.243,1.391
	c0,2.25-1.823,4.074-4.073,4.074s-4.076-1.824-4.076-4.074c0-0.488,0.088-0.957,0.244-1.391c0.567,1.565,2.069,2.684,3.832,2.684
	C96.724,100.091,98.224,98.973,98.792,97.407z"/>
<path style="fill-rule:evenodd;clip-rule:evenodd;fill:#3B89B8;" d="M86.414,103.388c0.157,0.435,0.243,0.901,0.243,1.391
	c0,2.251-1.823,4.075-4.074,4.075c-2.251,0-4.075-1.824-4.075-4.075c0-0.489,0.086-0.956,0.244-1.391
	c0.567,1.565,2.067,2.685,3.831,2.685C84.345,106.072,85.845,104.953,86.414,103.388z"/>
<path style="fill-rule:evenodd;clip-rule:evenodd;fill:#3B89B8;" d="M110.755,103.388c0.157,0.435,0.244,0.901,0.244,1.391
	c0,2.251-1.824,4.075-4.076,4.075c-2.25,0-4.074-1.824-4.074-4.075c0-0.489,0.086-0.956,0.244-1.391
	c0.567,1.565,2.068,2.685,3.83,2.685C108.685,106.072,110.187,104.953,110.755,103.388z"/>
<path style="fill-rule:evenodd;clip-rule:evenodd;fill:#3B89B8;" d="M98.792,111.595c0.157,0.434,0.243,0.901,0.243,1.391
	c0,2.251-1.823,4.074-4.073,4.074s-4.076-1.823-4.076-4.074c0-0.489,0.088-0.957,0.244-1.391c0.567,1.565,2.069,2.684,3.832,2.684
	C96.724,114.278,98.224,113.16,98.792,111.595z"/>
<path style="fill-rule:evenodd;clip-rule:evenodd;fill:#3B89B8;" d="M86.414,117.575c0.157,0.435,0.243,0.902,0.243,1.392
	c0,2.25-1.823,4.073-4.074,4.073c-2.251,0-4.075-1.823-4.075-4.073c0-0.489,0.086-0.957,0.244-1.392
	c0.567,1.565,2.067,2.684,3.831,2.684C84.345,120.259,85.845,119.141,86.414,117.575z"/>
<path style="fill-rule:evenodd;clip-rule:evenodd;fill:#3B89B8;" d="M110.755,117.575c0.157,0.435,0.244,0.902,0.244,1.392
	c0,2.25-1.824,4.073-4.076,4.073c-2.25,0-4.074-1.823-4.074-4.073c0-0.489,0.086-0.957,0.244-1.392
	c0.567,1.565,2.068,2.684,3.83,2.684C108.685,120.259,110.187,119.141,110.755,117.575z"/>
<path style="fill-rule:evenodd;clip-rule:evenodd;fill:#3B89B8;" d="M122.577,111.595c0.158,0.434,0.244,0.901,0.244,1.391
	c0,2.251-1.824,4.074-4.074,4.074s-4.073-1.823-4.073-4.074c0-0.489,0.086-0.957,0.242-1.391c0.568,1.565,2.069,2.684,3.831,2.684
	C120.509,114.278,122.009,113.16,122.577,111.595z"/>
<path style="fill-rule:evenodd;clip-rule:evenodd;fill:#3B89B8;" d="M75.843,111.595c0.156,0.434,0.242,0.901,0.242,1.391
	c0,2.251-1.824,4.074-4.074,4.074s-4.074-1.823-4.074-4.074c0-0.489,0.086-0.957,0.244-1.391c0.568,1.565,2.068,2.684,3.83,2.684
	C73.773,114.278,75.275,113.16,75.843,111.595z"/>
<path style="fill-rule:evenodd;clip-rule:evenodd;fill:#3B89B8;" d="M98.792,123.557c0.157,0.436,0.243,0.901,0.243,1.391
	c0,2.251-1.823,4.075-4.073,4.075s-4.076-1.824-4.076-4.075c0-0.489,0.088-0.955,0.244-1.391c0.567,1.564,2.069,2.684,3.832,2.684
	C96.724,126.24,98.224,125.121,98.792,123.557z"/>
<path style="fill-rule:evenodd;clip-rule:evenodd;fill:#3B89B8;" d="M86.414,129.537c0.157,0.434,0.243,0.902,0.243,1.392
	c0,2.25-1.823,4.074-4.074,4.074c-2.251,0-4.075-1.824-4.075-4.074c0-0.489,0.086-0.958,0.244-1.392
	c0.567,1.566,2.067,2.685,3.831,2.685C84.345,132.222,85.845,131.104,86.414,129.537z"/>
<path style="fill-rule:evenodd;clip-rule:evenodd;fill:#3B89B8;" d="M110.755,129.537c0.157,0.434,0.244,0.902,0.244,1.392
	c0,2.25-1.824,4.074-4.076,4.074c-2.25,0-4.074-1.824-4.074-4.074c0-0.489,0.086-0.958,0.244-1.392
	c0.567,1.566,2.068,2.685,3.83,2.685C108.685,132.222,110.187,131.104,110.755,129.537z"/>
<path style="fill-rule:evenodd;clip-rule:evenodd;fill:#3B89B8;" d="M122.577,123.557c0.158,0.436,0.244,0.901,0.244,1.391
	c0,2.251-1.824,4.075-4.074,4.075s-4.073-1.824-4.073-4.075c0-0.489,0.086-0.955,0.242-1.391c0.568,1.564,2.069,2.684,3.831,2.684
	C120.509,126.24,122.009,125.121,122.577,123.557z"/>
<path style="fill-rule:evenodd;clip-rule:evenodd;fill:#3B89B8;" d="M75.843,123.557c0.156,0.436,0.242,0.901,0.242,1.391
	c0,2.251-1.824,4.075-4.074,4.075s-4.074-1.824-4.074-4.075c0-0.489,0.086-0.955,0.244-1.391c0.568,1.564,2.068,2.684,3.83,2.684
	C73.773,126.24,75.275,125.121,75.843,123.557z"/>
<path style="fill-rule:evenodd;clip-rule:evenodd;fill:#3B89B8;" d="M98.792,133.126c0.157,0.435,0.243,0.902,0.243,1.392
	c0,2.25-1.823,4.074-4.073,4.074s-4.076-1.824-4.076-4.074c0-0.489,0.088-0.957,0.244-1.392c0.567,1.566,2.069,2.685,3.832,2.685
	C96.724,135.811,98.224,134.693,98.792,133.126z"/>
<path style="fill-rule:evenodd;clip-rule:evenodd;fill:#36495F;" d="M71.361,67.227c7.506,0,13.625-6.12,13.625-13.625
	c0-7.504-6.119-13.625-13.625-13.625c-7.503,0-13.626,6.121-13.626,13.625C57.735,61.107,63.858,67.227,71.361,67.227z"/>
<rect x="118.972" y="16.68" transform="matrix(-0.979 -0.2041 0.2041 -0.979 248.784 63.5975)" style="fill-rule:evenodd;clip-rule:evenodd;fill:#36495F;" width="17.398" height="4.58"/>
<rect x="54.444" y="16.68" transform="matrix(0.979 -0.2041 0.2041 0.979 -2.5424 13.284)" style="fill-rule:evenodd;clip-rule:evenodd;fill:#36495F;" width="17.401" height="4.58"/>
<path style="fill-rule:evenodd;clip-rule:evenodd;fill:#EAC252;" d="M73.412,135.708l2.708,0.455
	c1.009,0.17,1.694,1.133,1.524,2.142l-1.422,8.444c-0.168,1.008-1.133,1.693-2.142,1.524l-2.706-0.456
	c-1.009-0.17-1.695-1.133-1.525-2.141l1.422-8.444C71.441,136.225,72.403,135.538,73.412,135.708z"/>
<path style="fill-rule:evenodd;clip-rule:evenodd;fill:#D0A32A;" d="M73.412,135.708l1.245,0.209l-2.037,12.11l-1.245-0.21
	c-1.009-0.17-1.695-1.133-1.525-2.141l1.422-8.444C71.441,136.225,72.403,135.538,73.412,135.708z"/>
<path style="fill-rule:evenodd;clip-rule:evenodd;fill:#EAC252;" d="M79.88,134.995l2.709,0.457
	c1.008,0.168,1.692,1.133,1.522,2.141l-1.998,11.865c-0.168,1.01-1.132,1.695-2.14,1.525l-2.707-0.456
	c-1.008-0.169-1.696-1.132-1.526-2.141l1.998-11.866C77.909,135.512,78.873,134.826,79.88,134.995z"/>
<path style="fill-rule:evenodd;clip-rule:evenodd;fill:#D0A32A;" d="M79.88,134.995l1.358,0.23l-2.612,15.532l-1.359-0.229
	c-1.008-0.169-1.696-1.132-1.526-2.141l1.998-11.867C77.909,135.512,78.873,134.826,79.88,134.995z"/>
<path style="fill-rule:evenodd;clip-rule:evenodd;fill:#EAC252;" d="M85.806,137.794l2.707,0.455c1.01,0.17,1.695,1.134,1.524,2.142
	l-1.421,8.444c-0.171,1.007-1.133,1.693-2.141,1.524l-2.709-0.456c-1.008-0.17-1.694-1.133-1.524-2.141l1.422-8.444
	C83.835,138.31,84.798,137.624,85.806,137.794z"/>
<path style="fill-rule:evenodd;clip-rule:evenodd;fill:#D0A32A;" d="M85.806,137.794l1.426,0.24l-2.038,12.109l-1.427-0.24
	c-1.008-0.17-1.694-1.133-1.524-2.141l1.422-8.444C83.835,138.31,84.798,137.624,85.806,137.794z"/>
<path style="fill-rule:evenodd;clip-rule:evenodd;fill:#EAC252;" d="M102.056,138.048l2.72-0.364c1.015-0.138,1.954,0.58,2.09,1.594
	l1.142,8.486c0.137,1.014-0.582,1.953-1.595,2.09l-2.722,0.365c-1.014,0.137-1.954-0.581-2.088-1.594l-1.141-8.487
	C100.325,139.124,101.042,138.186,102.056,138.048z"/>
<path style="fill-rule:evenodd;clip-rule:evenodd;fill:#D0A32A;" d="M102.056,138.048l1.252-0.168l1.636,12.171l-1.253,0.168
	c-1.014,0.137-1.954-0.581-2.088-1.594l-1.141-8.487C100.325,139.124,101.042,138.186,102.056,138.048z"/>
<path style="fill-rule:evenodd;clip-rule:evenodd;fill:#EAC252;" d="M108.025,135.454l2.721-0.365
	c1.014-0.136,1.952,0.58,2.09,1.595l1.602,11.927c0.136,1.013-0.58,1.953-1.594,2.089l-2.722,0.366
	c-0.073,0.01-0.146,0.015-0.22,0.017h-0.063c-0.899-0.017-1.683-0.692-1.808-1.611l-1.603-11.927
	C106.294,136.531,107.011,135.591,108.025,135.454z"/>
<path style="fill-rule:evenodd;clip-rule:evenodd;fill:#D0A32A;" d="M108.025,135.454l1.365-0.183l2.097,15.608l-1.365,0.186
	c-0.073,0.01-0.146,0.015-0.22,0.017h-0.063c-0.899-0.017-1.683-0.692-1.808-1.611l-1.603-11.927
	C106.294,136.531,107.011,135.591,108.025,135.454z"/>
<path style="fill-rule:evenodd;clip-rule:evenodd;fill:#EAC252;" d="M114.511,136.374l2.723-0.364
	c1.013-0.137,1.953,0.579,2.089,1.594l1.142,8.485c0.135,1.015-0.582,1.953-1.595,2.091l-2.722,0.364
	c-1.014,0.138-1.954-0.58-2.09-1.593l-1.141-8.487C112.78,137.451,113.499,136.511,114.511,136.374z"/>
<path style="fill-rule:evenodd;clip-rule:evenodd;fill:#D0A32A;" d="M114.511,136.374l1.433-0.191l1.638,12.17l-1.434,0.191
	c-1.014,0.138-1.954-0.58-2.09-1.593l-1.141-8.487C112.78,137.451,113.499,136.512,114.511,136.374z"/>
<path style="fill-rule:evenodd;clip-rule:evenodd;fill:#EAC252;" d="M85.153,66.288c5.231-8.044,14.479-8.466,20.386-0.145
	c-3.27,5.184-7.027,11.543-10.365,16.226C93.069,79.066,86.966,68.746,85.153,66.288z"/>
<path style="fill-rule:evenodd;clip-rule:evenodd;fill:#DDAF34;" d="M95.116,60.078c3.698-0.062,7.476,1.913,10.423,6.065
	c-3.27,5.184-7.027,11.543-10.365,16.226l-0.058-0.089V60.078z"/>
<path style="fill-rule:evenodd;clip-rule:evenodd;fill:#36495F;" d="M119.896,67.936c7.505,0,13.625-6.119,13.625-13.625
	c0-7.504-6.12-13.625-13.625-13.625c-7.504,0-13.626,6.121-13.626,13.625C106.27,61.817,112.392,67.936,119.896,67.936z"/>
<path style="fill-rule:evenodd;clip-rule:evenodd;fill:#FFFFFF;" d="M126.022,50.844c2.048,0,3.72-1.672,3.72-3.724
	c0-2.048-1.672-3.72-3.72-3.72c-2.049,0-3.721,1.672-3.721,3.72C122.301,49.172,123.973,50.844,126.022,50.844z"/>
<circle style="fill-rule:evenodd;clip-rule:evenodd;fill:#FFFFFF;" cx="121.955" cy="50.727" r="1.394"/>
<path style="fill-rule:evenodd;clip-rule:evenodd;fill:#FFFFFF;" d="M64.949,50.844c-2.128,0-3.864-1.672-3.864-3.724
	c0-2.048,1.736-3.72,3.864-3.72c2.128,0,3.865,1.672,3.865,3.72C68.814,49.172,67.077,50.844,64.949,50.844z"/>
<path style="fill-rule:evenodd;clip-rule:evenodd;fill:#FFFFFF;" d="M69.174,52.12c-0.796,0-1.446-0.626-1.446-1.394
	c0-0.769,0.65-1.394,1.446-1.394c0.797,0,1.446,0.625,1.446,1.394C70.621,51.494,69.971,52.12,69.174,52.12z"/>
<path style="fill-rule:evenodd;clip-rule:evenodd;fill:#0C618C;" d="M134.487,100.86c1.942,7.162,6.735,19.631,11.368,34.864
	c9.227-14.828,19.796-28.068,15.759-41.699C155.386,73.013,128.958,80.479,134.487,100.86z"/>
<path style="fill-rule:evenodd;clip-rule:evenodd;fill:#0C618C;" d="M36.463,81.504c-7.408,0.418-20.6,2.525-36.463,3.903
	c12.596,12.097,23.359,25.18,37.531,24.051C59.377,107.718,57.547,80.318,36.463,81.504z"/>
</svg>
