<?xml version="1.0" encoding="iso-8859-1"?>
<svg version="1.1" xmlns="http://www.w3.org/2000/svg" xmlns:xlink="http://www.w3.org/1999/xlink" x="0px" y="0px"
	 width="85px" height="98px" viewBox="0 0 85 98" style="enable-background:new 0 0 85 98;" xml:space="preserve">
<g>
	<path style="fill-rule:evenodd;clip-rule:evenodd;fill:#474A4B;" d="M28.96,66.415L8.977,77.634l6.717-8.19l10.669-5.577
		C26.363,63.868,29.398,66.193,28.96,66.415z"/>
	<path style="fill-rule:evenodd;clip-rule:evenodd;fill:#714C23;" d="M26.987,65.436c12.01-8.365,28.268-22.542,35.693-31.316
		C86.808,5.614,77.246,14.286,84.502,0.429c-2.05,15.863-3.454,24.903-6.94,32.34l-8.224,4.293l6.035-0.263
		c-4.14,6.669-10.615,12.772-21.767,22.783c-2.979,0.377-4.831,0.386-8.97,1.077c2.513,0.906,4.553,1.403,6.363,1.776
		c-9.41,8.998-7.384,9.682-23.11,4.57C27.586,66.542,27.135,65.735,26.987,65.436z"/>
	<path style="fill-rule:evenodd;clip-rule:evenodd;fill:#654112;" d="M26.988,65.447C55.178,47.849,76.626,37.225,84.508,0
		c-15.503,25.635-19.65,28.323-42.254,41.019c-0.89,2.368-2.043,3.558-3.212,7.062c-0.324-1.651-0.501-2.652-0.843-5.023
		c-11.002,7.326-8.918,7.297-9.243,16.86c-0.422-2.107-0.53-3.127-1.118-3.625c-0.557-0.47-1.543-0.475-3.631-0.491
		c2.741,2.372,2.535,1.893,2.062,5.955c-1.152-1.214-0.735-1.318-3.684-0.313C26.201,62.789,26.184,64.184,26.988,65.447z"/>
</g>
<g>
	<path style="fill-rule:evenodd;clip-rule:evenodd;fill:#474A4B;" d="M13.378,90.19L0,86.758l6.566-0.86l6.949,2.02
		C13.514,87.919,13.659,90.276,13.378,90.19z"/>
	<path style="fill-rule:evenodd;clip-rule:evenodd;fill:#EAC252;" d="M13.034,88.9c8.8,1.323,22.046,1.813,29.173,0.989
		c23.154-2.677,15.207-2.812,24.645-6.026C49.205,97.438,47.338,98.078,26.596,97.614c-1.387-1.102-2.145-1.89-4.151-3.344
		c0.598,1.487,1.194,2.587,1.755,3.53c-8.038,0.078-7.535,1.256-11.534-7.799C12.759,89.661,12.954,89.1,13.034,88.9z"/>
	<path style="fill-rule:evenodd;clip-rule:evenodd;fill:#DDAF34;" d="M13.029,88.906c19.699,4.033,33.393,8.362,54.026-5.235
		c-18.305,5.056-21.25,4.507-36.383,0.628c-1.47,0.699-2.496,0.748-4.612,1.846c0.641-0.891,1.038-1.423,2.009-2.651
		c-7.903-1.366-7.042-0.488-11.652,3.733c0.815-1.141,1.249-1.653,1.243-2.13c-0.006-0.453-0.405-0.877-1.246-1.777
		c0.004,2.253,0.144,1.947-1.95,3.596c0.1-1.046,0.319-0.915-1.351-1.718C13.953,87.357,13.293,87.986,13.029,88.906z"/>
</g>
</svg>
