<?xml version="1.0" encoding="iso-8859-1"?>
<svg version="1.1" xmlns="http://www.w3.org/2000/svg" xmlns:xlink="http://www.w3.org/1999/xlink" x="0px" y="0px"
	 width="85px" height="98px" viewBox="0 0 85 98" style="enable-background:new 0 0 85 98;" xml:space="preserve">
<g>
	<path style="fill-rule:evenodd;clip-rule:evenodd;fill:#474A4B;" d="M55.356,66.186l19.915,11.18l-6.693-8.162l-10.632-5.558
		C57.945,63.647,54.92,65.964,55.356,66.186z"/>
	<path style="fill-rule:evenodd;clip-rule:evenodd;fill:#4B9DCD;" d="M57.322,65.209c-11.968-8.336-28.17-22.464-35.57-31.208
		C-2.291,5.594,7.237,14.237,0.006,0.427c2.043,15.808,3.442,24.817,6.916,32.228l8.196,4.278l-6.014-0.262
		c4.125,6.646,10.578,12.728,21.692,22.704c2.968,0.376,4.814,0.385,8.939,1.074c-2.505,0.903-4.537,1.398-6.341,1.77
		c9.377,8.967,7.359,9.649,23.03,4.554C56.726,66.312,57.175,65.508,57.322,65.209z"/>
	<path style="fill-rule:evenodd;clip-rule:evenodd;fill:#3B89B8;" d="M57.322,65.22C29.229,47.684,7.855,37.097,0,0
		c15.45,25.546,19.583,28.225,42.108,40.877c0.887,2.36,2.036,3.546,3.201,7.038c0.323-1.645,0.499-2.643,0.84-5.006
		c10.964,7.3,8.887,7.272,9.211,16.802c0.421-2.1,0.528-3.116,1.114-3.613c0.555-0.469,1.538-0.474,3.619-0.49
		c-2.731,2.364-2.526,1.886-2.055,5.935c1.148-1.21,0.732-1.313,3.671-0.312C58.106,62.572,58.123,63.963,57.322,65.22z"/>
</g>
<g>
	<path style="fill-rule:evenodd;clip-rule:evenodd;fill:#474A4B;" d="M71.206,90.282l13.382-3.213L78.06,86.11l-6.955,1.906
		C71.104,88.017,70.924,90.364,71.206,90.282z"/>
	<path style="fill-rule:evenodd;clip-rule:evenodd;fill:#61B5E5;" d="M71.568,89.002c-8.788,1.183-21.995,1.467-29.084,0.536
		c-23.031-3.024-15.11-3.037-24.464-6.384c17.375,13.799,19.225,14.465,39.9,14.322c1.4-1.076,2.166-1.85,4.188-3.269
		c-0.618,1.473-1.23,2.559-1.803,3.491c8.008,0.201,7.489,1.367,11.614-7.594C71.83,89.764,71.645,89.203,71.568,89.002z"/>
	<path style="fill-rule:evenodd;clip-rule:evenodd;fill:#51A6D8;" d="M71.573,89.008c-19.691,3.715-33.403,7.818-53.753-6.049
		c18.161,5.319,21.104,4.818,36.244,1.187c1.454,0.719,2.476,0.784,4.567,1.91c-0.625-0.898-1.012-1.434-1.961-2.672
		c7.895-1.239,7.025-0.377,11.552,3.899c-0.794-1.15-1.219-1.665-1.205-2.142c0.013-0.45,0.416-0.867,1.269-1.751
		c-0.038,2.245-0.174,1.938,1.888,3.613c-0.084-1.044-0.303-0.916,1.373-1.691C70.676,87.451,71.324,88.087,71.573,89.008z"/>
</g>
</svg>
