<?xml version="1.0" encoding="iso-8859-1"?>
<svg version="1.1" xmlns="http://www.w3.org/2000/svg" xmlns:xlink="http://www.w3.org/1999/xlink" x="0px" y="0px"
	 width="97.205px" height="79.002px" viewBox="0 0 97.205 79.002" style="enable-background:new 0 0 97.205 79.002;"
	 xml:space="preserve">
<g>
	<path style="fill-rule:evenodd;clip-rule:evenodd;fill:#BF9600;" d="M11.41,9.311l56.068-9.138
		c7.245-1.181,14.087,3.789,15.205,11.045l5.436,35.269c1.117,7.255-3.896,14.156-11.141,15.337L20.91,70.962
		c-7.244,1.181-14.087-3.789-15.205-11.044l-5.435-35.27C-0.848,17.393,4.166,10.492,11.41,9.311z"/>
	<path style="fill-rule:evenodd;clip-rule:evenodd;fill:#BF9600;" d="M9.82,13.008l67.67,0.058c5.375,0.005,9.769,4.406,9.764,9.78
		l-0.04,46.417c-0.004,5.375-4.405,9.769-9.779,9.764L9.764,78.968C4.389,78.964-0.005,74.563,0,69.188l0.039-46.417
		C0.044,17.396,4.445,13.004,9.82,13.008z"/>
	<path style="fill-rule:evenodd;clip-rule:evenodd;fill:#E7B913;" d="M14.676,13.017l67.671,0.059
		c5.374,0.004,9.768,4.405,9.764,9.779l-0.04,46.417c-0.005,5.375-4.405,9.769-9.78,9.764l-67.671-0.058
		c-5.375-0.005-9.768-4.405-9.764-9.78l0.04-46.417C4.9,17.406,9.301,13.013,14.676,13.017z"/>
	<path style="fill-rule:evenodd;clip-rule:evenodd;fill:#D7AB00;" d="M92.09,46.331l-0.02,22.941
		c-0.005,5.375-4.405,9.769-9.78,9.764l-67.671-0.058c-5.375-0.005-9.768-4.405-9.764-9.78l0.02-23.044L92.09,46.331z"/>
	<path style="fill-rule:evenodd;clip-rule:evenodd;fill:#FDDB65;" d="M73.192,35.705l4.002,0.003l15.886,0.014
		c2.271,0.002,4.126,1.861,4.124,4.131l-0.012,12.509c-0.002,2.271-1.861,4.126-4.131,4.124l-15.885-0.014l-4.003-0.003
		l-3.377-0.003c-5.71-0.005-10.378-4.681-10.373-10.391l0,0c0.005-5.711,4.681-10.378,10.391-10.373L73.192,35.705z"/>
	<path style="fill-rule:evenodd;clip-rule:evenodd;fill:#F0C943;" d="M97.199,46.341l-0.006,6.021
		c-0.002,2.271-1.861,4.126-4.131,4.124l-15.885-0.014l-4.002-0.003l-3.378-0.003c-5.646-0.005-10.272-4.578-10.37-10.201
		L97.199,46.341z"/>
	<circle style="fill-rule:evenodd;clip-rule:evenodd;fill:#203343;" cx="71.827" cy="46.845" r="7.118"/>
	<circle style="fill-rule:evenodd;clip-rule:evenodd;fill:#657B8F;" cx="70.727" cy="45.992" r="6.646"/>
	<path style="fill-rule:evenodd;clip-rule:evenodd;fill:#3F5569;" d="M77.372,46.076c-0.046,3.638-3.012,6.569-6.658,6.563
		c-3.647-0.008-6.602-2.951-6.632-6.589L77.372,46.076z"/>
</g>
</svg>
