<?xml version="1.0" encoding="iso-8859-1"?>
<!DOCTYPE svg PUBLIC "-//W3C//DTD SVG 1.1//EN" "http://www.w3.org/Graphics/SVG/1.1/DTD/svg11.dtd">
<svg version="1.1" id=""
	 xmlns="http://www.w3.org/2000/svg" xmlns:xlink="http://www.w3.org/1999/xlink" x="0px" y="0px" width="60px" height="60px"
	 viewBox="0 0 60 60" style="enable-background:new 0 0 60 60;" xml:space="preserve">
<circle style="fill:#FFFFFF;" cx="30" cy="30" r="30"/>
<g>
	<path style="fill-rule:evenodd;clip-rule:evenodd;fill:#EFC849;" d="M18.695,14.918H40.51c0.774,0,1.406,0.633,1.406,1.406v28.944
		c0,0.774-0.633,1.406-1.406,1.406H18.695c-0.774,0-1.406-0.633-1.406-1.406V16.324C17.288,15.55,17.921,14.918,18.695,14.918z"/>
	<path style="fill-rule:evenodd;clip-rule:evenodd;fill:#DEB735;" d="M29.619,14.918H40.51c0.773,0,1.406,0.633,1.406,1.406v28.944
		c0,0.774-0.633,1.406-1.406,1.406H29.619V14.918z"/>
	<rect x="23.309" y="24.632" style="fill-rule:evenodd;clip-rule:evenodd;fill:#FFFFFF;" width="12.586" height="8.835"/>
	<rect x="29.636" y="24.633" style="fill-rule:evenodd;clip-rule:evenodd;fill:#DDDDDD;" width="6.184" height="8.835"/>
	<polygon style="fill-rule:evenodd;clip-rule:evenodd;fill:#C99224;" points="41.904,43.407 40.201,37.055 40.027,37.038 
		38.735,37.461 38.398,37.293 36.49,44.415 35.442,42.6 33.627,43.648 35.622,36.199 35.262,35.805 34.021,35.266 33.545,34.02 
		32.588,33.076 32.603,31.743 32.061,30.523 32.566,29.284 32.51,27.952 33.437,26.973 33.876,25.71 35.1,25.124 35.974,24.099 
		37.329,23.985 38.521,23.338 39.824,23.711 41.172,23.528 42.248,24.338 43.382,24.601 41.904,24.601 	"/>
	<polygon style="fill-rule:evenodd;clip-rule:evenodd;fill:#BEC3C7;" points="33.015,33.498 32.588,33.076 32.603,31.743 
		32.061,30.523 32.566,29.284 32.51,27.952 33.437,26.973 33.876,25.71 35.1,25.124 35.519,24.633 38.32,24.633 38.32,33.498 	"/>
	<polygon style="fill-rule:evenodd;clip-rule:evenodd;fill:#344759;" points="40.373,33.515 43.237,32.748 46.036,43.195 
		44.221,42.146 43.173,43.962 	"/>
	<path style="fill-rule:evenodd;clip-rule:evenodd;fill:#E84C3D;" d="M18.695,14.918H40.51c0.773,0,1.406,0.633,1.406,1.406v2.829
		H17.288v-2.829C17.288,15.551,17.921,14.918,18.695,14.918z"/>
	<path style="fill-rule:evenodd;clip-rule:evenodd;fill:#D43C2F;" d="M29.619,14.918H40.51c0.773,0,1.406,0.633,1.406,1.406v2.829
		H29.619V14.918z"/>
	<path style="fill-rule:evenodd;clip-rule:evenodd;fill:#DDDDDD;" d="M29.307,13.344h0.746c0.279,0,0.507,0.228,0.507,0.506v3.344
		c0,0.279-0.228,0.506-0.507,0.506h-0.746c-0.279,0-0.506-0.228-0.506-0.506v-3.344C28.801,13.572,29.028,13.344,29.307,13.344z"/>
	<path style="fill-rule:evenodd;clip-rule:evenodd;fill:#BEC3C7;" d="M29.653,13.344h0.4c0.279,0,0.507,0.26,0.507,0.579v3.199
		c0,0.318-0.228,0.579-0.507,0.579h-0.4V13.344z"/>
	<path style="fill-rule:evenodd;clip-rule:evenodd;fill:#BEC3C7;" d="M38.593,13.344h0.746c0.279,0,0.506,0.228,0.506,0.506v3.344
		c0,0.279-0.227,0.506-0.506,0.506h-0.746c-0.279,0-0.507-0.228-0.507-0.506v-3.344C38.087,13.572,38.315,13.344,38.593,13.344z"/>
	<path style="fill-rule:evenodd;clip-rule:evenodd;fill:#BEC3C7;" d="M35.453,13.344h0.746c0.278,0,0.506,0.228,0.506,0.506v3.344
		c0,0.279-0.228,0.506-0.506,0.506h-0.746c-0.279,0-0.506-0.228-0.506-0.506v-3.344C34.947,13.572,35.174,13.344,35.453,13.344z"/>
	<path style="fill-rule:evenodd;clip-rule:evenodd;fill:#BEC3C7;" d="M32.44,13.344h0.747c0.278,0,0.506,0.228,0.506,0.506v3.344
		c0,0.279-0.228,0.506-0.506,0.506H32.44c-0.278,0-0.506-0.228-0.506-0.506v-3.344C31.934,13.572,32.162,13.344,32.44,13.344z"/>
	<path style="fill-rule:evenodd;clip-rule:evenodd;fill:#DDDDDD;" d="M26.34,13.344h0.747c0.278,0,0.506,0.228,0.506,0.506v3.344
		c0,0.279-0.227,0.506-0.506,0.506H26.34c-0.279,0-0.506-0.228-0.506-0.506v-3.344C25.834,13.572,26.061,13.344,26.34,13.344z"/>
	<path style="fill-rule:evenodd;clip-rule:evenodd;fill:#DDDDDD;" d="M23.199,13.344h0.746c0.279,0,0.506,0.228,0.506,0.506v3.344
		c0,0.279-0.227,0.506-0.506,0.506h-0.746c-0.279,0-0.506-0.228-0.506-0.506v-3.344C22.693,13.572,22.92,13.344,23.199,13.344z"/>
	<path style="fill-rule:evenodd;clip-rule:evenodd;fill:#DDDDDD;" d="M20.187,13.344h0.747c0.278,0,0.506,0.228,0.506,0.506v3.344
		c0,0.279-0.228,0.506-0.506,0.506h-0.747c-0.278,0-0.506-0.228-0.506-0.506v-3.344C19.68,13.572,19.908,13.344,20.187,13.344z"/>
	<polygon style="fill-rule:evenodd;clip-rule:evenodd;fill:#475A6C;" points="40.288,33.515 37.424,32.748 34.625,43.195 
		36.44,42.146 37.489,43.962 	"/>
	<polygon style="fill-rule:evenodd;clip-rule:evenodd;fill:#E84C3D;" points="39.519,22.884 40.823,23.257 42.17,23.074 
		43.246,23.884 44.568,24.191 45.271,25.329 46.389,26.083 46.624,27.394 47.386,28.495 47.121,29.803 47.425,31.101 46.697,32.23 
		46.502,33.549 45.408,34.346 44.74,35.509 43.428,35.866 42.378,36.716 41.025,36.584 39.733,37.007 38.523,36.405 37.165,36.342 
		36.261,35.351 35.02,34.812 34.543,33.566 33.586,32.622 33.601,31.289 33.059,30.07 33.564,28.83 33.509,27.499 34.435,26.52 
		34.874,25.256 36.099,24.67 36.973,23.645 38.328,23.531 	"/>
	<polygon style="fill-rule:evenodd;clip-rule:evenodd;fill:#D43C2F;" points="40.27,23.099 40.823,23.257 42.17,23.074 
		43.246,23.884 44.569,24.191 45.271,25.328 46.389,26.083 46.624,27.394 47.386,28.495 47.121,29.803 47.425,31.101 46.697,32.23 
		46.502,33.549 45.408,34.346 44.74,35.509 43.428,35.866 42.378,36.716 41.025,36.584 40.27,36.832 	"/>
	<path style="fill-rule:evenodd;clip-rule:evenodd;fill:#DDDDDD;" d="M40.242,24.661c1.459,0,2.78,0.592,3.736,1.548
		c0.957,0.956,1.548,2.278,1.548,3.737c0,1.459-0.592,2.781-1.548,3.736c-0.956,0.957-2.277,1.548-3.736,1.548
		s-2.781-0.592-3.737-1.548c-0.957-0.956-1.548-2.277-1.548-3.736c0-1.459,0.592-2.78,1.548-3.737
		C37.462,25.252,38.783,24.661,40.242,24.661L40.242,24.661z M43.523,26.665c-0.839-0.839-1.999-1.359-3.28-1.359
		c-1.281,0-2.441,0.519-3.281,1.359c-0.839,0.839-1.358,1.999-1.358,3.28c0,1.281,0.52,2.441,1.358,3.28
		c0.84,0.839,2,1.359,3.281,1.359c1.281,0,2.441-0.52,3.28-1.359c0.839-0.839,1.358-1.999,1.358-3.28
		C44.881,28.664,44.362,27.504,43.523,26.665z"/>
	<path style="fill-rule:evenodd;clip-rule:evenodd;fill:#BEC3C7;" d="M40.27,24.661c1.448,0.007,2.758,0.597,3.709,1.548
		c0.957,0.956,1.548,2.278,1.548,3.737c0,1.459-0.592,2.781-1.548,3.736c-0.95,0.951-2.261,1.541-3.709,1.548v-0.646
		c1.27-0.008,2.419-0.525,3.253-1.359c0.839-0.839,1.358-1.999,1.358-3.28c0-1.281-0.519-2.441-1.358-3.28
		c-0.834-0.833-1.983-1.351-3.253-1.358V24.661z"/>
	<polygon style="fill-rule:evenodd;clip-rule:evenodd;fill:#EFC849;" points="40.242,26.689 41.28,28.459 43.284,28.899 
		41.921,30.433 42.122,32.475 40.242,31.653 38.363,32.475 38.564,30.433 37.201,28.899 39.205,28.459 	"/>
	<polygon style="fill-rule:evenodd;clip-rule:evenodd;fill:#D6AF2D;" points="40.276,26.746 41.28,28.46 43.284,28.899 
		41.921,30.433 42.122,32.475 40.276,31.667 	"/>
</g>
</svg>
