<svg version="1.1" id="stud-vector-phone" xmlns="http://www.w3.org/2000/svg" xmlns:xlink="http://www.w3.org/1999/xlink" x="0px" y="0px"
	 viewBox="0 0 199.776 319.642" style="enable-background:new 0 0 199.776 319.642;"
	 xml:space="preserve">
<g>
	<path style="fill:#2C3E50;" d="M179.798,0H19.978C8.935,0,0,8.935,0,19.978v279.686c0,11.042,8.935,19.978,19.978,19.978h159.821
		c11.042,0,19.978-8.935,19.978-19.978V19.978C199.776,8.935,190.84,0,179.798,0z"/>
	<path style="fill:#ECF0F1;" d="M74.916,14.983h49.944c2.751,0,4.994,2.234,4.994,4.994s-2.244,4.994-4.994,4.994H74.916
		c-2.77,0-4.994-2.234-4.994-4.994S72.146,14.983,74.916,14.983z"/>
	<path style="fill:#ECF0F1;" d="M49.944,14.983c2.751,0,4.994,2.234,4.994,4.994s-2.244,4.994-4.994,4.994
		c-2.751,0-4.994-2.234-4.994-4.994S47.193,14.983,49.944,14.983z"/>
	<path style="fill:#ECF0F1;" d="M99.888,309.653c-8.272,0-14.983-6.711-14.983-14.983c0-8.272,6.711-14.983,14.983-14.983
		c8.272,0,14.983,6.711,14.983,14.983C114.871,302.942,108.16,309.653,99.888,309.653z"/>
	<polygon style="fill:#7F8C8D;" points="19.978,39.955 19.978,269.698 179.798,269.698 	"/>
	<polygon style="fill:#95A5A6;" points="179.798,269.698 179.798,39.955 19.978,39.955 	"/>
</g>
</svg>
