<?xml version="1.0" encoding="UTF-8" standalone="no"?>
<!-- Generator: Adobe Illustrator 17.0.0, SVG Export Plug-In . SVG Version: 6.00 Build 0)  -->

<svg
   xmlns:dc="http://purl.org/dc/elements/1.1/"
   xmlns:cc="http://creativecommons.org/ns#"
   xmlns:rdf="http://www.w3.org/1999/02/22-rdf-syntax-ns#"
   xmlns:svg="http://www.w3.org/2000/svg"
   xmlns="http://www.w3.org/2000/svg"
   xmlns:sodipodi="http://sodipodi.sourceforge.net/DTD/sodipodi-0.dtd"
   xmlns:inkscape="http://www.inkscape.org/namespaces/inkscape"
   version="1.1"
   id="pay-webmoney-icon"
   x="0px"
   y="0px"
   width="90px"
   height="90px"
   viewBox="0 0 90 90"
   style="enable-background:new 0 0 90 90;"
   xml:space="preserve"
   inkscape:version="0.48.4 r9939"
   sodipodi:docname="nedostatochno_sredstv.svg"><metadata
     id="metadata3362"><rdf:RDF><cc:Work
         rdf:about=""><dc:format>image/svg+xml</dc:format><dc:type
           rdf:resource="http://purl.org/dc/dcmitype/StillImage" /><dc:title></dc:title></cc:Work></rdf:RDF></metadata><defs
     id="defs3360" /><sodipodi:namedview
     pagecolor="#ffffff"
     bordercolor="#666666"
     borderopacity="1"
     objecttolerance="10"
     gridtolerance="10"
     guidetolerance="10"
     inkscape:pageopacity="0"
     inkscape:pageshadow="2"
     inkscape:window-width="1920"
     inkscape:window-height="1176"
     id="namedview3358"
     showgrid="true"
     inkscape:zoom="7.4167645"
     inkscape:cx="58.834219"
     inkscape:cy="49.865659"
     inkscape:window-x="0"
     inkscape:window-y="24"
     inkscape:window-maximized="1"
     inkscape:current-layer="pay-webmoney-icon"><inkscape:grid
       type="xygrid"
       id="grid3686" /></sodipodi:namedview><path
     style="fill-rule:evenodd;clip-rule:evenodd;fill:#EAF4F9;"
     d="M45.002,90.004c24.786,0,45.002-20.216,45.002-45.002  C90.004,20.216,69.788,0,45.002,0S0,20.216,0,45.002C0,69.788,20.216,90.004,45.002,90.004z"
     id="path3290" /><path
     style="fill-rule:evenodd;clip-rule:evenodd;fill:#D6E3EB;"
     d="M45.002,0c24.854,0,45.002,20.148,45.002,45.002  S69.856,90.004,45.002,90.004l-0.061-0.001V0.001L45.002,0z"
     id="path3292" /><path
     style="fill:#4d6579;fill-rule:evenodd"
     inkscape:connector-curvature="0"
     d="m 38.215268,31.485621 h 13.690638 c 0.421763,0 0.805739,-0.202341 1.084716,-0.527909 0.278964,-0.325562 0.452343,-0.773658 0.452343,-1.265153 v -7.260452 c 0,-0.491507 -0.173379,-0.939592 -0.452343,-1.265155 -0.278977,-0.325569 -0.662341,-0.52791 -1.084716,-0.52791 H 38.215268 c -0.421165,0 -0.80514,0.202341 -1.084117,0.52791 -0.278374,0.325563 -0.451741,0.773648 -0.451741,1.265155 v 7.260452 c 0,0.491495 0.173367,0.939591 0.451741,1.265153 0.279586,0.325568 0.662952,0.527909 1.084117,0.527909 l 0,0 z m 13.690638,2.868471 H 38.215268 c -1.099727,0 -2.098598,-0.524407 -2.822133,-1.368073 -0.723519,-0.844369 -1.172281,-2.010103 -1.172281,-3.29346 v -7.260452 c 0,-1.28337 0.448762,-2.449094 1.172281,-3.293468 0.723535,-0.844369 1.721846,-1.368084 2.822133,-1.368084 h 13.690638 c 1.100319,0 2.099196,0.523715 2.822132,1.368084 0.723521,0.844374 1.172289,2.009412 1.172289,3.293468 v 7.260452 c 0,1.283357 -0.448768,2.449091 -1.172289,3.29346 -0.722936,0.844368 -1.721813,1.368073 -2.822132,1.368073 z"
     id="path3601" /><path
     style="fill:#173141;fill-rule:evenodd"
     inkscape:connector-curvature="0"
     d="m 45.043781,31.485621 h 6.862125 c 0.421763,0 0.805739,-0.202341 1.084716,-0.527909 0.278964,-0.325562 0.452343,-0.773658 0.452343,-1.265153 v -7.260452 c 0,-0.491507 -0.173379,-0.939592 -0.452343,-1.265155 -0.278977,-0.325569 -0.662341,-0.52791 -1.084716,-0.52791 h -6.862125 v -2.868487 h 6.862125 c 1.100319,0 2.099196,0.523715 2.822132,1.368084 0.723521,0.844374 1.172289,2.009412 1.172289,3.293468 v 7.260452 c 0,1.283357 -0.448768,2.449091 -1.172289,3.29346 -0.722936,0.844368 -1.721813,1.368073 -2.822132,1.368073 h -6.862125 v -2.868471 z"
     id="path3603" /><path
     style="fill:#e1b32c;fill-rule:evenodd"
     inkscape:connector-curvature="0"
     d="M 20.458788,46.857906 V 66.92533 c 0,1.424782 0.980304,2.591225 2.178392,2.591225 h 44.846824 c 1.199283,0 2.178988,-1.166443 2.178988,-2.591225 V 46.857906 H 20.458788 z"
     id="path3605" /><path
     style="fill:#d1a41f;fill-rule:evenodd"
     inkscape:connector-curvature="0"
     d="m 45.043781,69.516555 h 22.440223 c 1.199283,0 2.178988,-1.166443 2.178988,-2.591225 V 46.857906 H 45.043781 v 22.658649 z"
     id="path3607" /><path
     style="fill:#fbd86c;fill-rule:evenodd"
     inkscape:connector-curvature="0"
     d="M 18.442386,50.425115 V 29.371894 c 0,-1.495501 1.061291,-2.718646 2.357771,-2.718646 h 48.522061 c 1.29646,0 2.357168,1.223851 2.357168,2.718646 v 21.053221 h -53.237 z"
     id="path3609" /><path
     style="fill:#eac34d;fill-rule:evenodd"
     inkscape:connector-curvature="0"
     d="m 45.043781,26.652543 h 24.278437 c 1.29646,0 2.357168,1.22385 2.357168,2.719351 V 50.425115 H 45.043781 V 26.652543 z"
     id="path3611" /><path
     style="fill:#474a4b;fill-rule:evenodd"
     inkscape:connector-curvature="0"
     d="m 36.858195,53.761984 h 15.396873 v 1.323987 H 36.858195 v -1.323987 l 0,0 z m 15.357298,-6.57851 v 5.826575 h -0.01974 -1.271274 -5.209907 -1.271885 -1.130287 -5.350273 -1.130299 -0.0175 v -5.820986 c -0.416968,-0.04414 -0.742736,-0.452986 -0.742736,-0.950793 0,-0.527894 0.36658,-0.955678 0.818922,-0.955678 0.452348,0 0.818936,0.427784 0.818936,0.955678 0,0.312286 -0.129002,0.590222 -0.327581,0.765264 l 2.690131,2.724934 0.565155,0.572035 0.565159,-0.572035 2.718325,-2.753627 c -0.181192,-0.175052 -0.296962,-0.439712 -0.296962,-0.736571 0,-0.527894 0.366544,-0.955678 0.818896,-0.955678 0.452373,0 0.819531,0.427784 0.819531,0.955678 0,0.296859 -0.115783,0.561519 -0.296964,0.736571 l 2.718327,2.753627 0.635328,0.644142 0.635958,-0.644142 2.673318,-2.706737 c -0.210561,-0.172926 -0.348537,-0.45858 -0.348537,-0.782742 0,-0.527917 0.367142,-0.955688 0.819513,-0.955688 0.451752,0 0.818293,0.427771 0.818293,0.955688 0,0.480294 -0.305366,0.87938 -0.701896,0.944485 z"
     id="path3613" /><rect
     style="fill:#f0513f;fill-rule:evenodd"
     x="37.524158"
     y="53.003746"
     width="15.397505"
     height="1.3225645"
     id="rect3615" /><rect
     style="fill:#d63e2d;fill-rule:evenodd"
     x="45.039566"
     y="53.003746"
     width="7.8820333"
     height="1.3225645"
     id="rect3617" /><path
     style="fill:#f0513f;fill-rule:evenodd"
     inkscape:connector-curvature="0"
     d="m 52.880807,46.42523 v 5.825165 h -0.01976 -1.271868 -5.208694 -1.271878 -1.130295 -5.350273 -1.130868 -0.01742 v -5.820278 c -0.416367,-0.04413 -0.742737,-0.452984 -0.742737,-0.951494 0,-0.527893 0.366598,-0.954984 0.819523,-0.954984 0.451774,0 0.818348,0.427091 0.818348,0.954984 0,0.312963 -0.128407,0.590916 -0.32758,0.765958 l 2.690735,2.724949 0.565124,0.572007 0.565176,-0.572007 2.718335,-2.753652 c -0.181802,-0.175027 -0.297579,-0.440395 -0.297579,-0.737255 0,-0.527893 0.366555,-0.954984 0.818902,-0.954984 0.451779,0 0.818926,0.427091 0.818926,0.954984 0,0.29686 -0.115168,0.562228 -0.296975,0.737255 l 2.71836,2.753652 0.635911,0.644125 0.636556,-0.644125 2.672732,-2.708144 C 52.08234,46.089144 51.94493,45.8035 51.94493,45.47933 c 0,-0.527911 0.366566,-0.954986 0.818346,-0.954986 0.453559,0 0.81952,0.427075 0.81952,0.954986 5.8e-4,0.48099 -0.304174,0.880083 -0.701956,0.9459 z"
     id="path3619" /><path
     style="fill:#d63e2d;fill-rule:evenodd"
     inkscape:connector-curvature="0"
     d="m 52.880807,46.42523 v 5.825165 h -0.01977 -1.271869 -5.208689 -1.27188 -0.0697 v -7.723256 c 0.02352,-0.003 0.04613,-0.004 0.0697,-0.004 0.451769,0 0.818919,0.427089 0.818919,0.954992 0,0.296853 -0.115194,0.562213 -0.296948,0.737248 l 2.718323,2.753656 0.63593,0.644125 0.63655,-0.644125 2.672728,-2.708144 c -0.211169,-0.172202 -0.348551,-0.457853 -0.348551,-0.782019 0,-0.527912 0.366545,-0.954994 0.818317,-0.954994 0.45355,0 0.819499,0.427082 0.819499,0.954994 0,0.48029 -0.304748,0.879374 -0.702535,0.945183 z"
     id="path3621" /><rect
     style="fill:#fbd86c;fill-rule:evenodd"
     x="-3.0248764"
     y="-68.16433"
     transform="matrix(-0.65089162,0.75917066,-0.6504671,-0.75953443,0,0)"
     width="1.841061"
     height="1.8412248"
     id="rect3623" /><polygon
     transform="matrix(0.59994117,0,0,0.70014047,18.216808,12.742152)"
     style="fill:#eac34d;fill-rule:evenodd"
     points="44.825,50.474 46.822,52.47 44.825,54.468 44.744,54.387 44.744,50.554 "
     id="polygon3625" /><circle
     transform="matrix(0.59994117,0,0,0.70014047,18.216808,12.742152)"
     style="fill:#fbd86c;fill-rule:evenodd"
     sodipodi:ry="0.52700001"
     sodipodi:rx="0.52700001"
     sodipodi:cy="58.472"
     sodipodi:cx="33.289001"
     cx="33.289001"
     cy="58.472"
     r="0.52700001"
     id="circle3627" /><circle
     transform="matrix(0.59994117,0,0,0.70014047,18.216808,12.742152)"
     style="fill:#fbd86c;fill-rule:evenodd"
     sodipodi:ry="0.52700001"
     sodipodi:rx="0.52700001"
     sodipodi:cy="58.472"
     sodipodi:cx="44.665001"
     cx="44.665001"
     cy="58.472"
     r="0.52700001"
     id="circle3629" /><path
     style="fill:#eac34d;fill-rule:evenodd"
     inkscape:connector-curvature="0"
     d="m 45.060603,53.315996 c 0.151743,0.02734 0.268757,0.179251 0.268757,0.364768 0,0.184852 -0.116395,0.337473 -0.268757,0.364086 v -0.728854 z"
     id="path3631" /><circle
     transform="matrix(0.59994117,0,0,0.70014047,18.216808,12.742152)"
     style="fill:#fbd86c;fill-rule:evenodd"
     sodipodi:ry="0.52700001"
     sodipodi:rx="0.52700001"
     sodipodi:cy="58.472"
     sodipodi:cx="38.938999"
     cx="38.938999"
     cy="58.472"
     r="0.52700001"
     id="circle3633" /><circle
     transform="matrix(0.59994117,0,0,0.70014047,18.216808,12.742152)"
     style="fill:#fbd86c;fill-rule:evenodd"
     sodipodi:ry="0.52700001"
     sodipodi:rx="0.52700001"
     sodipodi:cy="58.472"
     sodipodi:cx="41.824001"
     cx="41.824001"
     cy="58.472"
     r="0.52700001"
     id="circle3635" /><circle
     transform="matrix(0.59994117,0,0,0.70014047,18.216808,12.742152)"
     style="fill:#fbd86c;fill-rule:evenodd"
     sodipodi:ry="0.52700001"
     sodipodi:rx="0.52700001"
     sodipodi:cy="58.472"
     sodipodi:cx="36.131001"
     cx="36.131001"
     cy="58.472"
     r="0.52700001"
     id="circle3637" /><circle
     transform="matrix(0.59994117,0,0,0.70014047,18.216808,12.742152)"
     style="fill:#eac34d;fill-rule:evenodd"
     sodipodi:ry="0.52700001"
     sodipodi:rx="0.52700001"
     sodipodi:cy="58.472"
     sodipodi:cx="56.088001"
     cx="56.088001"
     cy="58.472"
     r="0.52700001"
     id="circle3639" /><circle
     transform="matrix(0.59994117,0,0,0.70014047,18.216808,12.742152)"
     style="fill:#eac34d;fill-rule:evenodd"
     sodipodi:ry="0.52700001"
     sodipodi:rx="0.52700001"
     sodipodi:cy="58.472"
     sodipodi:cx="50.362999"
     cx="50.362999"
     cy="58.472"
     r="0.52700001"
     id="circle3641" /><circle
     transform="matrix(0.59994117,0,0,0.70014047,18.216808,12.742152)"
     style="fill:#eac34d;fill-rule:evenodd"
     sodipodi:ry="0.52700001"
     sodipodi:rx="0.52700001"
     sodipodi:cy="58.472"
     sodipodi:cx="53.247002"
     cx="53.247002"
     cy="58.472"
     r="0.52700001"
     id="circle3643" /><circle
     transform="matrix(0.59994117,0,0,0.70014047,18.216808,12.742152)"
     style="fill:#eac34d;fill-rule:evenodd"
     sodipodi:ry="0.52700001"
     sodipodi:rx="0.52700001"
     sodipodi:cy="58.472"
     sodipodi:cx="47.555"
     cx="47.555"
     cy="58.472"
     r="0.52700001"
     id="circle3645" /></svg>