<?xml version="1.0" encoding="UTF-8" standalone="no"?>
<!-- Generator: Adobe Illustrator 16.2.0, SVG Export Plug-In . SVG Version: 6.00 Build 0)  -->

<svg
   xmlns:dc="http://purl.org/dc/elements/1.1/"
   xmlns:cc="http://creativecommons.org/ns#"
   xmlns:rdf="http://www.w3.org/1999/02/22-rdf-syntax-ns#"
   xmlns:svg="http://www.w3.org/2000/svg"
   xmlns="http://www.w3.org/2000/svg"
   xmlns:sodipodi="http://sodipodi.sourceforge.net/DTD/sodipodi-0.dtd"
   xmlns:inkscape="http://www.inkscape.org/namespaces/inkscape"
   version="1.2"
   id="Слой_1"
   x="0px"
   y="0px"
   width="90px"
   height="90px"
   viewBox="0 0 90 90"
   xml:space="preserve"
   inkscape:version="0.48.5 r10040"
   sodipodi:docname="Dolg_90x90_2.svg"><metadata
   id="metadata3058"><rdf:RDF><cc:Work
       rdf:about=""><dc:format>image/svg+xml</dc:format><dc:type
         rdf:resource="http://purl.org/dc/dcmitype/StillImage" /><dc:title></dc:title></cc:Work></rdf:RDF></metadata><defs
   id="defs3056" /><sodipodi:namedview
   pagecolor="#ffffff"
   bordercolor="#666666"
   borderopacity="1"
   objecttolerance="10"
   gridtolerance="10"
   guidetolerance="10"
   inkscape:pageopacity="0"
   inkscape:pageshadow="2"
   inkscape:window-width="1571"
   inkscape:window-height="944"
   id="namedview3054"
   showgrid="false"
   inkscape:zoom="16.467731"
   inkscape:cx="63.776145"
   inkscape:cy="39.654376"
   inkscape:window-x="0"
   inkscape:window-y="0"
   inkscape:window-maximized="0"
   inkscape:current-layer="Слой_1" />
<path
   d="m 45.153244,89.825756 c 24.44,0 44.375,-19.935 44.375,-44.375 0,-24.441 -19.935,-44.3750003 -44.375,-44.3750003 -24.441,0.001 -44.37499973,19.9350003 -44.37499973,44.3760003 0,24.44 19.93399973,44.374 44.37499973,44.374 z"
   id="path2986"
   inkscape:connector-curvature="0"
   style="fill:#e7f2f8;fill-rule:evenodd" />
<path
   fill-rule="evenodd"
   fill="#D7E4EB"
   d="M45.325,0.905c24.509,0,44.374,19.868,44.374,44.375  c0,24.508-19.865,44.375-44.374,44.375c-0.063,0-0.124-0.002-0.185-0.002V0.907C45.202,0.907,45.263,0.905,45.325,0.905z"
   id="path2988" />































<path
   style="fill:#4d6579;fill-rule:evenodd"
   inkscape:connector-curvature="0"
   d="m 37.312715,29.566309 h 15.646251 c 0.482004,0 0.920812,-0.185728 1.239633,-0.484564 0.318822,-0.298834 0.516971,-0.710136 0.516971,-1.161281 v -6.664355 c 0,-0.451145 -0.198149,-0.862446 -0.516971,-1.161282 -0.318821,-0.298835 -0.756943,-0.484563 -1.239633,-0.484563 H 37.312715 c -0.481316,0 -0.920124,0.185728 -1.238946,0.484563 -0.318136,0.298836 -0.516285,0.710137 -0.516285,1.161282 v 6.664355 c 0,0.451145 0.198149,0.862447 0.516285,1.161281 0.319507,0.298836 0.75763,0.484564 1.238946,0.484564 l 0,0 z m 15.646251,2.632967 H 37.312715 c -1.256774,0 -2.39836,-0.481351 -3.225239,-1.255752 -0.826879,-0.775046 -1.339737,-1.84507 -1.339737,-3.02306 v -6.664355 c 0,-1.177991 0.512858,-2.248015 1.339737,-3.023059 0.826879,-0.775045 1.967779,-1.255752 3.225239,-1.255752 h 15.646251 c 1.25746,0 2.399046,0.480707 3.22524,1.255752 0.82688,0.775044 1.339736,1.844426 1.339736,3.023059 v 6.664355 c 0,1.17799 -0.512856,2.248014 -1.339736,3.02306 -0.826194,0.775044 -1.96778,1.255752 -3.22524,1.255752 z"
   id="path3125" /><path
   style="fill:#173141;fill-rule:evenodd"
   inkscape:connector-curvature="0"
   d="m 45.116642,29.566309 h 7.842324 c 0.482004,0 0.920812,-0.185728 1.239633,-0.484564 0.318822,-0.298834 0.516971,-0.710136 0.516971,-1.161281 v -6.664355 c 0,-0.451145 -0.198149,-0.862446 -0.516971,-1.161282 -0.318821,-0.298835 -0.756943,-0.484563 -1.239633,-0.484563 h -7.842324 v -2.632966 h 7.842324 c 1.25746,0 2.399046,0.480707 3.22524,1.255752 0.82688,0.775044 1.339736,1.844426 1.339736,3.023059 v 6.664355 c 0,1.17799 -0.512856,2.248014 -1.339736,3.02306 -0.826194,0.775044 -1.96778,1.255752 -3.22524,1.255752 h -7.842324 v -2.632967 z"
   id="path3127" /><path
   style="fill:#e1b32c;fill-rule:evenodd"
   inkscape:connector-curvature="0"
   d="m 17.019898,43.67649 v 18.419839 c 0,1.307807 1.120331,2.378474 2.489551,2.378474 h 51.252785 c 1.37059,0 2.490236,-1.070667 2.490236,-2.378474 V 43.67649 H 17.019898 z"
   id="path3129" /><path
   style="fill:#d1a41f;fill-rule:evenodd"
   inkscape:connector-curvature="0"
   d="m 45.116642,64.474803 h 25.645592 c 1.37059,0 2.490236,-1.070667 2.490236,-2.378474 V 43.67649 H 45.116642 v 20.798313 z"
   id="path3131" /><path
   style="fill:#fbd86c;fill-rule:evenodd"
   inkscape:connector-curvature="0"
   d="M 14.715469,46.950828 V 27.626127 c 0,-1.372717 1.212894,-2.495438 2.694556,-2.495438 h 55.453003 c 1.481663,0 2.693871,1.123365 2.693871,2.495438 v 19.324701 h -60.84143 z"
   id="path3133" /><path
   style="fill:#eac34d;fill-rule:evenodd"
   inkscape:connector-curvature="0"
   d="m 45.116642,25.130046 h 27.746386 c 1.481663,0 2.693871,1.123364 2.693871,2.496081 V 46.950828 H 45.116642 V 25.130046 z"
   id="path3135" /><path
   style="fill:#474a4b;fill-rule:evenodd"
   inkscape:connector-curvature="0"
   d="m 35.761803,50.013731 h 17.596205 v 1.215266 H 35.761803 v -1.215266 l 0,0 z m 17.550954,-6.038406 v 5.348192 H 53.290137 51.83727 45.883192 44.429641 43.1379 37.023383 35.731642 35.711752 v -5.343051 c -0.476519,-0.04048 -0.848819,-0.4158 -0.848819,-0.872728 0,-0.484563 0.418923,-0.877227 0.935895,-0.877227 0.51697,0 0.935895,0.392664 0.935895,0.877227 0,0.286626 -0.147412,0.54176 -0.374359,0.702424 l 3.0744,2.501222 0.64587,0.525051 0.645871,-0.525051 3.106625,-2.527571 c -0.207063,-0.160664 -0.33939,-0.403589 -0.33939,-0.676075 0,-0.484563 0.418923,-0.877227 0.935894,-0.877227 0.516972,0 0.936582,0.392664 0.936582,0.877227 0,0.272486 -0.132328,0.515411 -0.339391,0.676075 l 3.106624,2.527571 0.72609,0.591245 0.726776,-0.591245 3.055202,-2.484514 c -0.24066,-0.158735 -0.398356,-0.420939 -0.398356,-0.718489 0,-0.484564 0.41961,-0.877227 0.936581,-0.877227 0.516286,0 0.935209,0.392663 0.935209,0.877227 0,0.440863 -0.348988,0.807177 -0.802194,0.866944 z"
   id="path3137" /><rect
   style="fill:#f0513f;fill-rule:evenodd"
   x="36.522861"
   y="49.317738"
   width="17.596889"
   height="1.2139794"
   id="rect3139" /><rect
   style="fill:#d63e2d;fill-rule:evenodd"
   x="45.111843"
   y="49.317738"
   width="9.0079069"
   height="1.2139794"
   id="rect3141" /><path
   style="fill:#f0513f;fill-rule:evenodd"
   inkscape:connector-curvature="0"
   d="m 54.073128,43.279327 v 5.346908 h -0.02262 -1.453551 -5.952706 -1.453552 -1.291741 -6.114517 -1.292426 -0.01989 v -5.342408 c -0.475832,-0.04048 -0.84882,-0.415799 -0.84882,-0.873371 0,-0.484564 0.418925,-0.876584 0.936582,-0.876584 0.516284,0 0.93521,0.39202 0.93521,0.876584 0,0.287266 -0.146727,0.542401 -0.374359,0.703065 l 3.075084,2.501222 0.645871,0.525052 0.645871,-0.525052 3.106624,-2.52757 c -0.207747,-0.160664 -0.340076,-0.404231 -0.340076,-0.676717 0,-0.484564 0.418924,-0.876584 0.935895,-0.876584 0.516285,0 0.935895,0.39202 0.935895,0.876584 0,0.272486 -0.131641,0.516053 -0.339389,0.676717 l 3.106623,2.52757 0.726776,0.591245 0.727462,-0.591245 3.054516,-2.485798 c -0.241345,-0.158093 -0.398355,-0.420297 -0.398355,-0.717849 0,-0.484562 0.418924,-0.876583 0.93521,-0.876583 0.518341,0 0.936579,0.392021 0.936579,0.876583 6.87e-4,0.441508 -0.347618,0.807821 -0.802195,0.868231 z"
   id="path3143" /><path
   style="fill:#d63e2d;fill-rule:evenodd"
   inkscape:connector-curvature="0"
   d="m 54.073128,43.279327 v 5.346908 h -0.02262 -1.453551 -5.952706 -1.453552 -0.07953 v -7.089152 c 0.02674,-0.0019 0.05279,-0.0026 0.07953,-0.0026 0.516286,0 0.935895,0.39202 0.935895,0.876584 0,0.272487 -0.131641,0.516054 -0.33939,0.676718 l 3.106625,2.52757 0.726775,0.591245 0.727462,-0.591245 3.054515,-2.485797 c -0.241344,-0.158094 -0.398355,-0.420298 -0.398355,-0.717848 0,-0.484564 0.418924,-0.876585 0.93521,-0.876585 0.518341,0 0.93658,0.392021 0.93658,0.876585 0,0.440863 -0.348303,0.807177 -0.802881,0.867586 z"
   id="path3145" /><rect
   style="fill:#fbd86c;fill-rule:evenodd"
   x="1.7641268"
   y="-65.598549"
   transform="matrix(-0.72979823,0.6836626,-0.72941218,-0.68407446,0,0)"
   width="1.8765502"
   height="1.8764818"
   id="rect3147" /><polygon
   transform="matrix(0.68563767,0,0,0.64265716,14.45767,12.361734)"
   style="fill:#eac34d;fill-rule:evenodd"
   points="44.744,54.387 44.744,50.554 44.825,50.474 46.822,52.47 44.825,54.468 "
   id="polygon3149" /><circle
   transform="matrix(0.68563767,0,0,0.64265716,14.45767,12.361734)"
   style="fill:#fbd86c;fill-rule:evenodd"
   sodipodi:ry="0.52700001"
   sodipodi:rx="0.52700001"
   sodipodi:cy="58.472"
   sodipodi:cx="33.289001"
   cx="33.289001"
   cy="58.472"
   r="0.52700001"
   id="circle3151" /><circle
   transform="matrix(0.68563767,0,0,0.64265716,14.45767,12.361734)"
   style="fill:#fbd86c;fill-rule:evenodd"
   sodipodi:ry="0.52700001"
   sodipodi:rx="0.52700001"
   sodipodi:cy="58.472"
   sodipodi:cx="44.665001"
   cx="44.665001"
   cy="58.472"
   r="0.52700001"
   id="circle3153" /><path
   style="fill:#eac34d;fill-rule:evenodd"
   inkscape:connector-curvature="0"
   d="m 45.135841,49.60436 c 0.173466,0.02506 0.307165,0.164519 0.307165,0.334824 0,0.169661 -0.133014,0.309762 -0.307165,0.334181 V 49.60436 z"
   id="path3155" /><circle
   transform="matrix(0.68563767,0,0,0.64265716,14.45767,12.361734)"
   style="fill:#fbd86c;fill-rule:evenodd"
   sodipodi:ry="0.52700001"
   sodipodi:rx="0.52700001"
   sodipodi:cy="58.472"
   sodipodi:cx="38.938999"
   cx="38.938999"
   cy="58.472"
   r="0.52700001"
   id="circle3157" /><circle
   transform="matrix(0.68563767,0,0,0.64265716,14.45767,12.361734)"
   style="fill:#fbd86c;fill-rule:evenodd"
   sodipodi:ry="0.52700001"
   sodipodi:rx="0.52700001"
   sodipodi:cy="58.472"
   sodipodi:cx="41.824001"
   cx="41.824001"
   cy="58.472"
   r="0.52700001"
   id="circle3159" /><circle
   transform="matrix(0.68563767,0,0,0.64265716,14.45767,12.361734)"
   style="fill:#fbd86c;fill-rule:evenodd"
   sodipodi:ry="0.52700001"
   sodipodi:rx="0.52700001"
   sodipodi:cy="58.472"
   sodipodi:cx="36.131001"
   cx="36.131001"
   cy="58.472"
   r="0.52700001"
   id="circle3161" /><circle
   transform="matrix(0.68563767,0,0,0.64265716,14.45767,12.361734)"
   style="fill:#eac34d;fill-rule:evenodd"
   sodipodi:ry="0.52700001"
   sodipodi:rx="0.52700001"
   sodipodi:cy="58.472"
   sodipodi:cx="56.088001"
   cx="56.088001"
   cy="58.472"
   r="0.52700001"
   id="circle3163" /><circle
   transform="matrix(0.68563767,0,0,0.64265716,14.45767,12.361734)"
   style="fill:#eac34d;fill-rule:evenodd"
   sodipodi:ry="0.52700001"
   sodipodi:rx="0.52700001"
   sodipodi:cy="58.472"
   sodipodi:cx="50.362999"
   cx="50.362999"
   cy="58.472"
   r="0.52700001"
   id="circle3165" /><circle
   transform="matrix(0.68563767,0,0,0.64265716,14.45767,12.361734)"
   style="fill:#eac34d;fill-rule:evenodd"
   sodipodi:ry="0.52700001"
   sodipodi:rx="0.52700001"
   sodipodi:cy="58.472"
   sodipodi:cx="53.247002"
   cx="53.247002"
   cy="58.472"
   r="0.52700001"
   id="circle3167" /><circle
   transform="matrix(0.68563767,0,0,0.64265716,14.45767,12.361734)"
   style="fill:#eac34d;fill-rule:evenodd"
   sodipodi:ry="0.52700001"
   sodipodi:rx="0.52700001"
   sodipodi:cy="58.472"
   sodipodi:cx="47.555"
   cx="47.555"
   cy="58.472"
   r="0.52700001"
   id="circle3169" /></svg>