<?xml version="1.0" encoding="iso-8859-1"?>
<svg version="1.1" id="_x31_" xmlns="http://www.w3.org/2000/svg" xmlns:xlink="http://www.w3.org/1999/xlink" x="0px" y="0px"
	 width="243.588px" height="243.588px" viewBox="0 0 243.588 243.588" style="enable-background:new 0 0 243.588 243.588;"
	 xml:space="preserve">
<path style="fill-rule:evenodd;clip-rule:evenodd;fill:#E7F2F8;" d="M121.794,243.588c67.082,0,121.794-54.713,121.794-121.794
	C243.588,54.712,188.876,0,121.794,0S0,54.712,0,121.794C0,188.875,54.712,243.588,121.794,243.588z"/>
<path style="fill-rule:evenodd;clip-rule:evenodd;fill:#D6E4EB;" d="M121.794,0c67.265,0,121.794,54.53,121.794,121.794
	c0,67.265-54.529,121.794-121.794,121.794c-0.111,0-0.222-0.004-0.333-0.005V0.004C121.572,0.004,121.683,0,121.794,0z"/>
<g>
	<polygon style="fill-rule:evenodd;clip-rule:evenodd;fill:#992316;" points="214.445,111.739 144.493,111.739 144.493,141.932 
		214.445,141.932 214.445,141.898 209.055,135.042 202.601,126.835 209.055,118.627 214.445,111.772 	"/>
	<polygon style="fill-rule:evenodd;clip-rule:evenodd;fill:#66140B;" points="191.428,129.446 153.254,141.919 150.718,123.825 
		188.55,125.881 	"/>
	<polygon style="fill-rule:evenodd;clip-rule:evenodd;fill:#C0392B;" points="28.88,111.739 98.833,111.739 98.833,141.932 
		28.88,141.932 28.88,141.898 34.271,135.042 40.725,126.835 34.271,118.627 28.88,111.772 	"/>
	<polygon style="fill-rule:evenodd;clip-rule:evenodd;fill:#992316;" points="51.897,129.446 90.071,141.919 92.607,123.825 
		54.776,125.881 	"/>
	<path style="fill-rule:evenodd;clip-rule:evenodd;fill:#2FCC71;" d="M121.739,197.842c-49.101-15.544-65.335-67.358-66.851-113.941
		c11.121-1.022,27.416-10.588,27.057-28.072c13.298-1.92,26.407-2.961,39.794-3.582V197.842z"/>
	<path style="fill-rule:evenodd;clip-rule:evenodd;fill:#27AE61;" d="M121.696,197.842c49.101-15.544,65.334-67.358,66.85-113.941
		c-11.121-1.022-27.416-10.588-27.057-28.072c-13.299-1.92-26.407-2.961-39.793-3.582V197.842z"/>
	<path style="fill-rule:evenodd;clip-rule:evenodd;fill:#FFFFFF;" d="M122.005,192.646c-19.766-6.713-33.694-19.841-43.201-36.136
		c-11.951-20.485-16.895-45.974-17.672-69.964l-0.035-1.117l1.117-0.103c5.507-0.509,12.462-3.416,17.451-8.622
		c3.854-4.021,6.516-9.426,6.378-16.165l-0.021-1.051l1.042-0.151c6.168-0.895,12.267-1.583,18.354-2.119
		c5.46-0.479,10.98-0.84,16.587-1.119v2.383c-5.451,0.273-10.894,0.632-16.381,1.114c-5.748,0.504-11.469,1.142-17.203,1.953
		c-0.132,6.962-2.99,12.578-7.041,16.805c-5.07,5.291-12.038,8.39-17.832,9.208c0.877,23.315,5.763,47.943,17.316,67.746
		c9.113,15.621,22.39,28.239,41.141,34.822V192.646z"/>
	<path style="fill-rule:evenodd;clip-rule:evenodd;fill:#BEC3C7;" d="M121.884,192.646c19.766-6.713,33.694-19.841,43.201-36.136
		c11.951-20.485,16.895-45.974,17.672-69.964l0.036-1.117l-1.118-0.103c-5.508-0.509-12.461-3.416-17.451-8.622
		c-3.854-4.021-6.516-9.426-6.378-16.165l0.021-1.051l-1.042-0.151c-6.168-0.895-12.267-1.583-18.355-2.119
		c-5.458-0.479-10.98-0.84-16.586-1.119v2.383c5.451,0.273,10.893,0.632,16.382,1.114c5.747,0.504,11.469,1.142,17.202,1.953
		c0.132,6.962,2.99,12.578,7.041,16.805c5.07,5.291,12.039,8.39,17.833,9.208c-0.878,23.315-5.764,47.943-17.317,67.746
		c-9.113,15.621-22.391,28.239-41.141,34.822V192.646z"/>
	<rect x="51.756" y="99.321" style="fill-rule:evenodd;clip-rule:evenodd;fill:#E84C3D;" width="69.952" height="30.192"/>
	<rect x="121.618" y="99.321" style="fill-rule:evenodd;clip-rule:evenodd;fill:#C0392B;" width="69.952" height="30.192"/>
	<polygon style="fill-rule:evenodd;clip-rule:evenodd;fill:#27AE61;" points="122.132,149.462 125.691,155.845 132.862,157.257 
		127.891,162.615 128.764,169.873 122.132,166.799 115.5,169.873 116.373,162.615 111.401,157.257 118.572,155.845 	"/>
	<polygon style="fill-rule:evenodd;clip-rule:evenodd;fill:#209653;" points="122.169,149.528 125.691,155.845 132.862,157.257 
		127.891,162.615 128.764,169.873 122.169,166.817 	"/>
	<path style="fill-rule:evenodd;clip-rule:evenodd;fill:#FFFFFF;" d="M64.225,106.401h10.86v2.71h-7.613v13.323h-3.247V106.401
		L64.225,106.401z M89.792,122.434l-6.422-16.032h-3.43l-6.225,16.032h3.433l1.332-3.65h6.43l1.386,3.65H89.792L89.792,122.434z
		 M83.858,116.074h-4.393l2.165-5.934L83.858,116.074L83.858,116.074z M91.521,122.434v-16.032h5.191
		c1.966,0,3.246,0.078,3.844,0.239c0.918,0.242,1.687,0.765,2.306,1.57c0.619,0.807,0.929,1.848,0.929,3.124
		c0,0.985-0.178,1.81-0.533,2.481c-0.358,0.673-0.81,1.198-1.358,1.583c-0.548,0.381-1.108,0.634-1.675,0.758
		c-0.773,0.152-1.89,0.231-3.353,0.231h-2.104v6.046H91.521L91.521,122.434z M94.767,109.111v4.568h1.766
		c1.272,0,2.119-0.086,2.549-0.254c0.43-0.168,0.766-0.43,1.008-0.791c0.242-0.358,0.365-0.773,0.365-1.25
		c0-0.586-0.171-1.067-0.511-1.447c-0.344-0.381-0.772-0.62-1.299-0.717c-0.385-0.071-1.157-0.108-2.321-0.108H94.767
		L94.767,109.111z M118.931,122.434l-6.422-16.032h-3.431l-6.225,16.032h3.434l1.332-3.65h6.431l1.384,3.65H118.931L118.931,122.434
		z M112.998,116.074h-4.393l2.163-5.934L112.998,116.074L112.998,116.074z M120.659,122.434v-16.032h1.218v16.032H120.659z"/>
	<path style="fill-rule:evenodd;clip-rule:evenodd;fill:#BEC3C7;" d="M121.763,106.401v16.032h2.144v-7.008h6.313v7.008h3.247
		v-16.032h-3.247v6.314h-6.313v-6.314H121.763L121.763,106.401z M140.434,122.434v-13.323h-4.747v-2.71h12.719v2.71h-4.725v13.323
		H140.434L140.434,122.434z M150.552,106.401h3.023v10.673l6.493-10.673h3.224v16.032h-3.022v-10.501l-6.493,10.501h-3.225V106.401
		L150.552,106.401z M176.186,122.434v-6.695h-0.657c-1.026,0-1.747,0.153-2.169,0.459c-0.421,0.302-1.138,1.217-2.156,2.735
		l-2.321,3.5h-3.87l1.956-3.127c0.769-1.243,1.384-2.112,1.839-2.608c0.46-0.5,1.034-0.949,1.721-1.34
		c-1.488-0.235-2.563-0.754-3.225-1.56c-0.66-0.806-0.992-1.77-0.992-2.893c0-0.978,0.246-1.844,0.738-2.598
		c0.493-0.754,1.142-1.261,1.948-1.519c0.807-0.257,2.012-0.388,3.616-0.388h6.818v16.032H176.186L176.186,122.434z
		 M176.186,109.111h-2.527c-1.283,0-2.127,0.03-2.53,0.086c-0.402,0.06-0.754,0.257-1.044,0.593
		c-0.292,0.336-0.438,0.773-0.438,1.313c0,0.564,0.143,1.011,0.422,1.344c0.28,0.332,0.639,0.537,1.071,0.619
		c0.433,0.079,1.317,0.12,2.649,0.12h2.396V109.111z"/>
	<polygon style="fill-rule:evenodd;clip-rule:evenodd;fill:#27AE61;" points="97.207,137.013 99.804,141.671 105.036,142.701 
		101.409,146.61 102.047,151.904 97.207,149.662 92.369,151.904 93.006,146.61 89.379,142.701 94.61,141.671 	"/>
	<polygon style="fill-rule:evenodd;clip-rule:evenodd;fill:#209653;" points="148.854,137.013 151.451,141.671 156.683,142.701 
		153.056,146.61 153.693,151.904 148.854,149.662 144.016,151.904 144.653,146.61 141.025,142.701 146.258,141.671 	"/>
	<polygon style="fill-rule:evenodd;clip-rule:evenodd;fill:#27AE61;" points="103.036,76.518 105.633,81.175 110.865,82.205 
		107.238,86.114 107.875,91.409 103.036,89.167 98.198,91.409 98.835,86.114 95.208,82.205 100.44,81.175 	"/>
	<polygon style="fill-rule:evenodd;clip-rule:evenodd;fill:#209653;" points="141.135,76.518 143.731,81.175 148.964,82.205 
		145.336,86.114 145.974,91.409 141.135,89.167 136.296,91.409 136.933,86.114 133.306,82.205 138.538,81.175 	"/>
</g>
</svg>
