<?xml version="1.0" encoding="iso-8859-1"?>
<!-- Generator: Adobe Illustrator 17.0.0, SVG Export Plug-In . SVG Version: 6.00 Build 0)  -->
<!DOCTYPE svg PUBLIC "-//W3C//DTD SVG 1.1//EN" "http://www.w3.org/Graphics/SVG/1.1/DTD/svg11.dtd">
<svg version="1.1" id="advego_icon"
	 xmlns="http://www.w3.org/2000/svg" xmlns:xlink="http://www.w3.org/1999/xlink" x="0px" y="0px" width="60px" height="60px"
	 viewBox="0 0 60 60" style="enable-background:new 0 0 60 60;" xml:space="preserve">
<path style="fill-rule:evenodd;clip-rule:evenodd;fill:#3F5568;" d="M29.992,59.984c16.519,0,29.992-13.473,29.992-29.992
	S46.511,0,29.992,0C13.473,0,0,13.473,0,29.992S13.473,59.984,29.992,59.984z"/>
<path style="fill-rule:evenodd;clip-rule:evenodd;fill:#284259;" d="M29.992,0c16.564,0,29.992,13.428,29.992,29.992
	c0,16.564-13.428,29.992-29.992,29.992h-0.041V0L29.992,0z"/>
<g>
	<path style="fill-rule:evenodd;clip-rule:evenodd;fill:#FFFFFF;" d="M13.821,34.255h-1.847l-0.675-1.847H8.136L7.45,34.255H5.626
		l3.375-8.527h1.457L13.821,34.255L13.821,34.255z M10.789,30.963l-1.054-3.138l-1.078,3.138H10.789L10.789,30.963z M14.378,34.255
		v-8.527h2.984c1.287,0,2.311,0.389,3.073,1.166c0.762,0.778,1.143,1.814,1.143,3.109c0,1.358-0.418,2.416-1.255,3.174
		c-0.805,0.718-1.899,1.078-3.281,1.078H14.378L14.378,34.255z M19.884,30.027c0-0.865-0.233-1.542-0.701-2.033
		c-0.468-0.491-1.129-0.738-1.984-0.738h-1.129v5.471h1.2c0.839,0,1.484-0.239,1.936-0.715
		C19.659,31.537,19.884,30.876,19.884,30.027L19.884,30.027z M29.465,25.729l-2.961,8.527h-1.729l-2.961-8.527h1.776l2.049,6.502
		l2.049-6.502H29.465L29.465,25.729z M34.794,34.255h-4.583v-8.527h4.583v1.528h-2.89v1.918h2.854v1.528h-2.854v2.001h2.89V34.255
		L34.794,34.255z M44.742,29.672c0,1.358-0.399,2.479-1.196,3.364c-0.829,0.923-1.915,1.385-3.257,1.385
		c-1.239,0-2.289-0.436-3.15-1.309c-0.861-0.872-1.291-1.928-1.291-3.168c0-1.248,0.438-2.289,1.314-3.126
		c0.876-0.837,1.939-1.255,3.186-1.255c0.9,0,1.709,0.233,2.428,0.699c0.758,0.482,1.283,1.137,1.575,1.966h-1.99
		c-0.497-0.727-1.188-1.09-2.072-1.09c-0.758,0-1.399,0.274-1.924,0.823c-0.525,0.549-0.787,1.206-0.787,1.972
		c0,0.798,0.254,1.484,0.764,2.061c0.509,0.576,1.159,0.865,1.948,0.865c1.177,0,2.005-0.572,2.487-1.717h-3.209v-1.469H44.742
		L44.742,29.672z M54.358,29.968c0,1.248-0.426,2.301-1.279,3.162c-0.853,0.861-1.903,1.291-3.15,1.291
		c-1.232,0-2.278-0.434-3.138-1.303C45.93,32.25,45.5,31.2,45.5,29.968c0-1.224,0.434-2.264,1.303-3.121
		c0.868-0.857,1.915-1.285,3.138-1.285c1.232,0,2.276,0.426,3.132,1.279C53.93,27.694,54.358,28.736,54.358,29.968L54.358,29.968z
		 M52.629,29.956c0-0.766-0.261-1.427-0.782-1.984c-0.521-0.557-1.161-0.835-1.918-0.835c-0.75,0-1.388,0.282-1.913,0.847
		c-0.525,0.565-0.788,1.226-0.788,1.984c0,0.766,0.261,1.437,0.782,2.013c0.521,0.576,1.161,0.865,1.919,0.865
		c0.789,0,1.441-0.288,1.954-0.865C52.38,31.429,52.629,30.754,52.629,29.956z"/>
	<path style="fill-rule:evenodd;clip-rule:evenodd;fill:#D6E3EA;" d="M34.794,34.255h-4.583v-8.527h4.583v1.528h-2.89v1.918h2.854
		v1.528h-2.854v2.001h2.89V34.255L34.794,34.255z M44.742,29.672c0,1.358-0.399,2.479-1.196,3.364
		c-0.829,0.923-1.915,1.385-3.257,1.385c-1.239,0-2.289-0.436-3.15-1.309c-0.861-0.872-1.291-1.928-1.291-3.168
		c0-1.248,0.438-2.289,1.314-3.126c0.876-0.837,1.939-1.255,3.186-1.255c0.9,0,1.709,0.233,2.428,0.699
		c0.758,0.482,1.283,1.137,1.575,1.966h-1.99c-0.497-0.727-1.188-1.09-2.072-1.09c-0.758,0-1.399,0.274-1.924,0.823
		c-0.525,0.549-0.787,1.206-0.787,1.972c0,0.798,0.254,1.484,0.764,2.061c0.509,0.576,1.159,0.865,1.948,0.865
		c1.177,0,2.005-0.572,2.487-1.717h-3.209v-1.469H44.742L44.742,29.672z M54.358,29.968c0,1.248-0.426,2.301-1.279,3.162
		c-0.853,0.861-1.903,1.291-3.15,1.291c-1.232,0-2.278-0.434-3.138-1.303C45.93,32.25,45.5,31.2,45.5,29.968
		c0-1.224,0.434-2.264,1.303-3.121c0.868-0.857,1.915-1.285,3.138-1.285c1.232,0,2.276,0.426,3.132,1.279
		C53.93,27.694,54.358,28.736,54.358,29.968L54.358,29.968z M52.629,29.956c0-0.766-0.261-1.427-0.782-1.984
		c-0.521-0.557-1.161-0.835-1.918-0.835c-0.75,0-1.388,0.282-1.913,0.847c-0.525,0.565-0.788,1.226-0.788,1.984
		c0,0.766,0.261,1.437,0.782,2.013c0.521,0.576,1.161,0.865,1.919,0.865c0.789,0,1.441-0.288,1.954-0.865
		C52.38,31.429,52.629,30.754,52.629,29.956z"/>
</g>
</svg>
