<?xml version="1.0" encoding="UTF-8" standalone="no"?>
<!-- Generator: Adobe Illustrator 17.0.0, SVG Export Plug-In . SVG Version: 6.00 Build 0)  -->

<svg
   xmlns:dc="http://purl.org/dc/elements/1.1/"
   xmlns:cc="http://creativecommons.org/ns#"
   xmlns:rdf="http://www.w3.org/1999/02/22-rdf-syntax-ns#"
   xmlns:svg="http://www.w3.org/2000/svg"
   xmlns="http://www.w3.org/2000/svg"
   xmlns:sodipodi="http://sodipodi.sourceforge.net/DTD/sodipodi-0.dtd"
   xmlns:inkscape="http://www.inkscape.org/namespaces/inkscape"
   version="1.1"
   id="txt_icon"
   x="0px"
   y="0px"
   width="60px"
   height="60px"
   viewBox="0 0 60 60"
   style="enable-background:new 0 0 60 60;"
   xml:space="preserve"
   inkscape:version="0.48.4 r9939"
   sodipodi:docname="etxt.svg"><metadata
     id="metadata3252"><rdf:RDF><cc:Work
         rdf:about=""><dc:format>image/svg+xml</dc:format><dc:type
           rdf:resource="http://purl.org/dc/dcmitype/StillImage" /><dc:title></dc:title></cc:Work></rdf:RDF></metadata><defs
     id="defs3250" /><sodipodi:namedview
     pagecolor="#ffffff"
     bordercolor="#666666"
     borderopacity="1"
     objecttolerance="10"
     gridtolerance="10"
     guidetolerance="10"
     inkscape:pageopacity="0"
     inkscape:pageshadow="2"
     inkscape:window-width="1920"
     inkscape:window-height="1176"
     id="namedview3248"
     showgrid="false"
     inkscape:zoom="16.616667"
     inkscape:cx="30"
     inkscape:cy="30"
     inkscape:window-x="0"
     inkscape:window-y="24"
     inkscape:window-maximized="1"
     inkscape:current-layer="txt_icon" /><path
     style="fill-rule:evenodd;clip-rule:evenodd;fill:#80CFF4;"
     d="M30.004,60.008c16.526,0,30.004-13.478,30.004-30.004  C60.008,13.479,46.53,0,30.004,0C13.478,0,0,13.479,0,30.004C0,46.53,13.478,60.008,30.004,60.008z"
     id="path3222" /><path
     style="fill-rule:evenodd;clip-rule:evenodd;fill:#4ABBEC;"
     d="M30.004,0c16.571,0,30.004,13.433,30.004,30.004  c0,16.571-13.433,30.004-30.004,30.004l-0.041-0.001V0.001L30.004,0z"
     id="path3224" /><path
     style="fill-rule:evenodd;clip-rule:evenodd;fill:#1A1A18;"
     d="M43.101,37.375v4.126c0,0.302,0.027,0.549,0.08,0.741  c0.046,0.162,0.108,0.28,0.187,0.352l-0.001,0.001c0.082,0.074,0.218,0.133,0.408,0.177c0.219,0.051,0.499,0.076,0.841,0.076  c0.341,0,0.621-0.025,0.839-0.076c0.188-0.043,0.324-0.102,0.406-0.177l0,0c0.078-0.072,0.139-0.189,0.184-0.351  c0.053-0.191,0.079-0.439,0.079-0.742v-4.126v-0.321h0.321h0.792h0.321v0.321v4.338c0,0.427-0.058,0.8-0.172,1.118  c-0.122,0.337-0.306,0.609-0.554,0.816c-0.242,0.202-0.554,0.351-0.937,0.448c-0.362,0.091-0.79,0.137-1.282,0.137  c-0.492,0-0.92-0.046-1.282-0.137c-0.383-0.097-0.696-0.246-0.937-0.448c-0.248-0.207-0.432-0.478-0.553-0.814  c-0.115-0.318-0.173-0.692-0.173-1.12v-4.338v-0.321h0.321h0.792h0.321V37.375z"
     id="path3226" /><path
     style="fill-rule:evenodd;clip-rule:evenodd;fill:#1A1A18;"
     d="M34.738,43.747v-6.372v-0.321h0.321h3.656  c0.343,0,0.653,0.045,0.93,0.134c0.286,0.092,0.535,0.232,0.746,0.418h0.001c0.214,0.19,0.374,0.416,0.481,0.68  c0.104,0.255,0.157,0.542,0.157,0.86c0,0.538-0.163,1.001-0.489,1.39l-0.001,0.001c-0.164,0.194-0.354,0.352-0.57,0.473  c-0.092,0.052-0.188,0.096-0.289,0.134l1.389,2.444l0.272,0.479h-0.55h-0.875h-0.185l-0.093-0.163l-1.501-2.627h-1.966v2.469v0.321  h-0.321h-0.792h-0.321V43.747L34.738,43.747z M36.172,39.891h2.493c0.321,0,0.555-0.063,0.699-0.187l0.003-0.003  c0.063-0.053,0.11-0.12,0.142-0.199c0.036-0.09,0.053-0.202,0.053-0.335c0-0.127-0.018-0.236-0.055-0.329l0.001-0.001  c-0.033-0.083-0.082-0.154-0.148-0.213l-0.002-0.001c-0.069-0.063-0.153-0.11-0.253-0.142c-0.111-0.036-0.245-0.053-0.4-0.053  h-2.532V39.891z"
     id="path3228" /><path
     style="fill-rule:evenodd;clip-rule:evenodd;fill:#1A1A18;"
     d="M32.175,42.539c0.111,0,0.216,0.021,0.314,0.065  c0.098,0.044,0.185,0.108,0.261,0.192h0c0.074,0.081,0.129,0.174,0.166,0.278c0.035,0.1,0.053,0.207,0.053,0.321  c0,0.111-0.018,0.216-0.054,0.314c-0.038,0.103-0.093,0.195-0.167,0.275l-0.002,0.002c-0.075,0.08-0.161,0.141-0.259,0.183  c-0.098,0.043-0.202,0.064-0.311,0.064c-0.11,0-0.215-0.021-0.314-0.063c-0.099-0.041-0.187-0.103-0.263-0.182l-0.003-0.003  c-0.076-0.081-0.133-0.173-0.171-0.276c-0.036-0.098-0.054-0.204-0.054-0.316c0-0.234,0.076-0.435,0.227-0.599l0.002-0.002  c0.077-0.082,0.164-0.145,0.261-0.188C31.958,42.561,32.063,42.539,32.175,42.539z"
     id="path3230" /><path
     style="fill:#ffffff;fill-rule:evenodd;stroke:#ffffff;stroke-width:2.9999001;stroke-miterlimit:22.92560005"
     d="m 14.62,43.747 0,-5.639 -2.683,0 0,-0.733 6.159,0 0,0.733 -2.683,0 0,5.639 -0.793,0 z m 16.969777,-6.372 0,0.733 -2.159777,0 0,5.639 -0.792,0 0,-5.639 -2.683,0 0,-0.733 3.709,0 z M 18.947,43.747 l 2.597,-3.204 -2.561,-3.168 0.969,0 2.088,2.551 2.085,-2.551 0.957,0 -2.569,3.135 2.64,3.237 -1.017,0 -2.118,-2.626 -2.141,2.626 z"
     id="path3234"
     inkscape:connector-curvature="0"
     sodipodi:nodetypes="ccccccccccccccccccccccccccccccccc" /><path
     style="fill-rule:evenodd;clip-rule:evenodd;fill:#575656;"
     d="M23.076,13.684h13.838c0.923,0,1.761,0.377,2.368,0.984v0.004  c0.607,0.607,0.984,1.444,0.984,2.364v4.022c0,0.92-0.377,1.756-0.984,2.363v0.004c-0.607,0.607-1.445,0.984-2.368,0.984H23.076  c-0.923,0-1.761-0.377-2.368-0.984c-0.607-0.607-0.983-1.445-0.983-2.368v-4.022c0-0.923,0.377-1.761,0.983-2.368  C21.315,14.061,22.153,13.684,23.076,13.684L23.076,13.684z M36.915,15.957H23.076c-0.296,0-0.565,0.122-0.761,0.318  c-0.196,0.196-0.318,0.466-0.318,0.762v4.022c0,0.296,0.122,0.565,0.318,0.761c0.196,0.196,0.466,0.318,0.761,0.318h13.838  c0.296,0,0.566-0.122,0.761-0.318l0.002,0.002c0.195-0.196,0.316-0.466,0.316-0.763v-4.022c0-0.298-0.121-0.568-0.316-0.764  l-0.002,0.002C37.48,16.078,37.21,15.957,36.915,15.957z"
     id="path3236" /><path
     style="fill-rule:evenodd;clip-rule:evenodd;fill:#575656;"
     d="M20.827,27.869c-0.628,0-1.136-0.509-1.136-1.136  s0.509-1.136,1.136-1.136h7.021c0.628,0,1.136,0.509,1.136,1.136s-0.509,1.136-1.136,1.136H20.827z"
     id="path3238" /><path
     style="fill-rule:evenodd;clip-rule:evenodd;fill:#575656;"
     d="M20.827,31.465c-0.628,0-1.136-0.509-1.136-1.136  c0-0.628,0.509-1.136,1.136-1.136h18.354c0.628,0,1.136,0.509,1.136,1.136c0,0.627-0.509,1.136-1.136,1.136H20.827z"
     id="path3240" /><g
     id="g3242"><path
       style="fill-rule:evenodd;clip-rule:evenodd;fill:#1A1A18;"
       d="M30.002,13.684h6.913c0.923,0,1.761,0.377,2.368,0.984v0.004   c0.607,0.607,0.984,1.444,0.984,2.364v4.022c0,0.92-0.377,1.756-0.984,2.363v0.004c-0.607,0.607-1.445,0.984-2.368,0.984h-6.913   v-2.272h6.913c0.296,0,0.566-0.122,0.761-0.318l0.002,0.002c0.195-0.196,0.316-0.466,0.316-0.763v-4.022   c0-0.298-0.121-0.568-0.316-0.764l-0.002,0.002c-0.196-0.196-0.466-0.318-0.761-0.318h-6.913V13.684z"
       id="path3244" /><path
       style="fill-rule:evenodd;clip-rule:evenodd;fill:#1A1A18;"
       d="M30.002,29.192h9.179c0.628,0,1.136,0.509,1.136,1.136   c0,0.627-0.509,1.136-1.136,1.136h-9.179V29.192z"
       id="path3246" /></g></svg>