<?xml version="1.0" encoding="utf-8"?>
<!-- Generator: Adobe Illustrator 16.2.0, SVG Export Plug-In . SVG Version: 6.00 Build 0)  -->
<svg version="1.2" baseProfile="tiny" id="Слой_1"
	 xmlns="http://www.w3.org/2000/svg" xmlns:xlink="http://www.w3.org/1999/xlink" x="0px" y="0px" width="60px" height="60px"
	 viewBox="0 0 60 60" xml:space="preserve">
<rect x="11.54" y="4.923" fill-rule="evenodd" fill="#A5BAC4" width="41.158" height="54.568"/>
<polygon fill-rule="evenodd" fill="#E7F2F8" points="7.27,55.016 48.447,55.016 48.447,11.333 37.625,0.509 7.27,0.509 "/>
<polygon fill-rule="evenodd" fill="#C7D9E0" points="27.899,55.016 48.447,55.016 48.447,11.333 37.625,0.509 27.899,0.509 "/>
<polygon fill-rule="evenodd" fill="#E7F2F8" points="37.65,0.535 37.65,11.318 48.434,11.318 "/>
<rect x="22.769" y="9.802" fill-rule="evenodd" fill="#6B6C6C" width="10.589" height="1.378"/>
<rect x="27.922" y="9.802" fill-rule="evenodd" fill="#565656" width="5.436" height="1.378"/>
<rect x="16.063" y="15.071" fill-rule="evenodd" fill="#6B6C6C" width="24.003" height="1.378"/>
<rect x="27.922" y="15.07" fill-rule="evenodd" fill="#565656" width="12.143" height="1.379"/>
<rect x="16.063" y="18.101" fill-rule="evenodd" fill="#6B6C6C" width="17.509" height="1.378"/>
<rect x="27.922" y="18.101" fill-rule="evenodd" fill="#565656" width="5.649" height="1.378"/>
<rect x="17.699" y="23.945" fill-rule="evenodd" fill="#354859" width="1.043" height="27.419"/>
<rect x="15.939" y="48.464" fill-rule="evenodd" fill="#354859" width="24.78" height="1.042"/>
<polygon fill-rule="evenodd" fill="#354859" points="18.218,22.8 19.233,24.997 20.249,27.193 18.218,27.193 16.188,27.193 
	17.203,24.997 "/>
<polygon fill-rule="evenodd" fill="#354859" points="41.914,48.974 39.719,47.957 37.522,46.942 37.522,48.974 37.522,51.003 
	39.719,49.988 "/>
<rect x="19.972" y="36.802" fill-rule="evenodd" fill="#3E98D3" width="4.413" height="10.226"/>
<rect x="26.064" y="33.37" fill-rule="evenodd" fill="#27AE61" width="4.412" height="13.657"/>
<rect x="32.088" y="25.386" fill-rule="evenodd" fill="#CA3527" width="4.411" height="21.639"/>
<rect x="28.102" y="33.37" fill-rule="evenodd" fill="#1E944E" width="2.375" height="13.657"/>
</svg>
