<?xml version="1.0" encoding="utf-8"?>
<!-- Generator: Adobe Illustrator 16.2.0, SVG Export Plug-In . SVG Version: 6.00 Build 0)  -->
<svg version="1.2" baseProfile="tiny" id="Слой_1"
	 xmlns="http://www.w3.org/2000/svg" xmlns:xlink="http://www.w3.org/1999/xlink" x="0px" y="0px" width="60px" height="60px"
	 viewBox="0 0 60 60" xml:space="preserve">
<polygon fill-rule="evenodd" fill="#E7F2F8" points="4.424,59.494 48.998,59.494 48.998,12.21 48.997,0.51 37.282,0.493 
	4.424,0.493 "/>
<polygon fill-rule="evenodd" fill="#C7D9E0" points="26.753,59.494 48.998,59.494 48.998,12.21 48.998,0.51 37.282,0.493 
	26.753,0.493 "/>
<rect x="9.069" y="39.488" fill-rule="evenodd" fill="#F5DA80" width="46.388" height="10.594"/>
<rect x="28.752" y="4.717" transform="matrix(-0.885 -0.4656 0.4656 -0.885 54.9018 50.9742)" fill-rule="evenodd" fill="#E74D3D" width="9.991" height="27.977"/>
<rect x="29.171" y="3.015" transform="matrix(-0.885 -0.4656 0.4656 -0.885 49.6001 46.2593)" fill-rule="evenodd" fill="#EC7C71" width="2.684" height="27.977"/>
<rect x="35.584" y="6.405" transform="matrix(-0.885 -0.4656 0.4656 -0.885 60.1625 55.6488)" fill-rule="evenodd" fill="#CA3527" width="2.742" height="27.977"/>
<polygon fill-rule="evenodd" fill="#D6AF2C" points="22.877,39.366 27.28,36.39 31.683,33.414 27.24,31.076 22.797,28.738 
	22.837,34.054 "/>
<polygon fill-rule="evenodd" fill="#F5DA80" points="27.333,31.124 27.239,31.075 22.797,28.738 22.837,34.052 22.864,37.57 "/>
<polygon fill-rule="evenodd" fill="#EFC849" points="29.265,32.142 27.239,31.075 25.201,30.002 22.995,38.908 "/>
<polygon fill-rule="evenodd" fill="#495A6C" points="22.877,39.366 27.279,36.39 27.719,36.094 22.833,33.522 22.837,34.054 "/>
<polygon fill-rule="evenodd" fill="#354859" points="23.045,39.253 27.28,36.392 27.719,36.094 26.318,35.356 "/>
<polygon fill-rule="evenodd" fill="#586D80" points="24.155,34.219 22.833,33.522 22.837,34.054 22.875,39.18 "/>
<rect x="9.069" y="44.907" fill-rule="evenodd" fill="#D6AF2C" width="46.388" height="5.175"/>
<rect x="10.829" y="40.648" fill-rule="evenodd" fill="#495A6C" width="1.294" height="4.367"/>
<rect x="14.064" y="40.648" fill-rule="evenodd" fill="#495A6C" width="1.293" height="1.675"/>
<rect x="17.746" y="40.648" fill-rule="evenodd" fill="#495A6C" width="1.293" height="1.675"/>
<rect x="21.16" y="40.648" fill-rule="evenodd" fill="#495A6C" width="1.293" height="4.367"/>
<rect x="24.412" y="40.648" fill-rule="evenodd" fill="#495A6C" width="1.293" height="1.675"/>
<rect x="28.093" y="40.648" fill-rule="evenodd" fill="#495A6C" width="1.294" height="1.675"/>
<rect x="31.508" y="40.648" fill-rule="evenodd" fill="#495A6C" width="1.292" height="4.367"/>
<rect x="31.523" y="40.648" fill-rule="evenodd" fill="#495A6C" width="1.295" height="4.367"/>
<rect x="34.76" y="40.648" fill-rule="evenodd" fill="#495A6C" width="1.293" height="1.675"/>
<rect x="38.442" y="40.648" fill-rule="evenodd" fill="#495A6C" width="1.293" height="1.675"/>
<rect x="41.855" y="40.648" fill-rule="evenodd" fill="#495A6C" width="1.293" height="4.367"/>
<rect x="45.106" y="40.648" fill-rule="evenodd" fill="#495A6C" width="1.294" height="1.675"/>
<rect x="48.79" y="40.648" fill-rule="evenodd" fill="#495A6C" width="1.294" height="1.675"/>
<rect x="52.202" y="40.648" fill-rule="evenodd" fill="#495A6C" width="1.294" height="4.367"/>
</svg>
