<?xml version="1.0" encoding="utf-8"?>
<!-- Generator: Adobe Illustrator 16.2.0, SVG Export Plug-In . SVG Version: 6.00 Build 0)  -->
<svg version="1.2" baseProfile="tiny" id="Слой_1"
	 xmlns="http://www.w3.org/2000/svg" xmlns:xlink="http://www.w3.org/1999/xlink" x="0px" y="0px" width="60px" height="60px"
	 viewBox="0 0 60 60" xml:space="preserve">
<rect x="0.318" y="5.214" fill-rule="evenodd" fill="#E7F2F8" width="54.872" height="41.386"/>
<rect x="27.748" y="5.214" fill-rule="evenodd" fill="#C7D9E0" width="27.441" height="41.386"/>
<rect x="18.248" y="31.499" fill-rule="evenodd" fill="#6B6C6C" width="17.995" height="1.384"/>
<rect x="27.74" y="31.499" fill-rule="evenodd" fill="#565656" width="9.026" height="1.384"/>
<rect x="15.475" y="34.626" fill-rule="evenodd" fill="#6B6C6C" width="24.954" height="1.385"/>
<rect x="27.805" y="34.626" fill-rule="evenodd" fill="#565656" width="12.624" height="1.387"/>
<rect x="19.981" y="16.729" fill-rule="evenodd" fill="#6B6C6C" width="15.943" height="1.386"/>
<rect x="27.74" y="16.729" fill-rule="evenodd" fill="#565656" width="8.184" height="1.386"/>
<rect x="9.882" y="22.027" fill-rule="evenodd" fill="#6B6C6C" width="36.138" height="1.385"/>
<rect x="27.74" y="22.026" fill-rule="evenodd" fill="#565656" width="18.282" height="1.386"/>
<rect x="18.248" y="25.074" fill-rule="evenodd" fill="#6B6C6C" width="17.995" height="1.385"/>
<rect x="27.74" y="25.074" fill-rule="evenodd" fill="#565656" width="9.026" height="1.385"/>
<rect x="15.475" y="28.203" fill-rule="evenodd" fill="#6B6C6C" width="24.954" height="1.385"/>
<rect x="27.805" y="28.203" fill-rule="evenodd" fill="#565656" width="12.624" height="1.385"/>
<path fill-rule="evenodd" fill="#EFC849" d="M0.318,46.621V5.234h27.398v1.836c-4.661,0.006-9.026,0.939-12.78,2.564
	c-1.25-1.147-2.915-1.849-4.743-1.849c-3.871,0-7.009,3.138-7.009,7.009c0,1.399,0.411,2.703,1.118,3.797
	c-1.286,2.255-1.998,4.734-1.998,7.336c0,2.487,0.652,4.86,1.832,7.036c-0.604,1.034-0.952,2.241-0.952,3.526
	c0,3.87,3.139,7.008,7.009,7.008c1.62,0,3.111-0.549,4.298-1.474c3.852,1.749,8.38,2.757,13.225,2.761v1.836H0.318z"/>
<path fill-rule="evenodd" fill="#D6AF2C" d="M55.052,46.621V5.234H27.655v1.836c4.659,0.006,9.025,0.939,12.78,2.564
	c1.246-1.147,2.912-1.849,4.742-1.849c3.872,0,7.01,3.138,7.01,7.009c0,1.399-0.411,2.703-1.119,3.797c1.287,2.255,2,4.734,2,7.336
	c0,2.487-0.652,4.86-1.832,7.036c0.603,1.034,0.951,2.241,0.951,3.526c0,3.87-3.138,7.008-7.01,7.008
	c-1.619,0-3.111-0.549-4.299-1.474c-3.853,1.749-8.378,2.757-13.224,2.761v1.836H55.052z"/>
<polygon fill-rule="evenodd" fill="#354859" points="46.279,37.524 51.641,36.09 56.884,55.648 53.483,53.686 51.52,57.084 "/>
<polygon fill-rule="evenodd" fill="#495A6C" points="46.119,37.524 40.757,36.09 35.515,55.648 38.915,53.686 40.879,57.084 "/>
<polygon fill-rule="evenodd" fill="#E74D3D" points="44.68,17.62 47.121,18.319 49.644,17.977 51.659,19.493 54.133,20.067 
	55.45,22.197 57.541,23.609 57.982,26.066 59.41,28.126 58.914,30.575 59.484,33.007 58.12,35.118 57.754,37.591 55.705,39.081 
	54.454,41.261 51.999,41.927 50.032,43.521 47.5,43.271 45.081,44.063 42.815,42.938 40.273,42.819 38.579,40.964 36.255,39.953 
	35.362,37.62 33.571,35.854 33.6,33.358 32.583,31.073 33.529,28.754 33.426,26.26 35.162,24.428 35.984,22.062 38.275,20.965 
	39.913,19.045 42.449,18.832 "/>
<polygon fill-rule="evenodd" fill="#D43E2E" points="46.087,18.023 47.121,18.319 49.644,17.976 51.659,19.494 54.133,20.066 
	55.45,22.198 57.541,23.61 57.982,26.065 59.41,28.126 58.914,30.575 59.484,33.007 58.12,35.118 57.754,37.589 55.705,39.081 
	54.454,41.261 51.999,41.927 50.032,43.521 47.5,43.273 46.087,43.736 "/>
<path fill-rule="evenodd" fill="#DEDEDD" d="M46.034,20.947c2.732,0,5.206,1.107,6.997,2.898c1.79,1.791,2.896,4.264,2.896,6.996
	c0,2.732-1.106,5.206-2.896,6.997c-1.791,1.792-4.265,2.899-6.997,2.899s-5.206-1.107-6.998-2.899
	c-1.789-1.791-2.896-4.265-2.896-6.997c0-2.731,1.107-5.205,2.896-6.996C40.828,22.054,43.302,20.947,46.034,20.947 M52.176,24.699
	c-1.571-1.572-3.743-2.543-6.142-2.543s-4.57,0.972-6.142,2.543c-1.572,1.572-2.546,3.743-2.546,6.142s0.974,4.57,2.546,6.144
	c1.571,1.57,3.743,2.544,6.142,2.544s4.57-0.974,6.142-2.544c1.572-1.571,2.544-3.745,2.544-6.144S53.748,26.271,52.176,24.699"/>
<path fill-rule="evenodd" fill="#BEC3C7" d="M46.087,20.947c2.71,0.015,5.165,1.119,6.944,2.898c1.79,1.791,2.896,4.264,2.896,6.996
	c0,2.732-1.106,5.206-2.896,6.997c-1.779,1.779-4.234,2.885-6.944,2.899v-1.211c2.378-0.012,4.53-0.981,6.089-2.542
	c1.572-1.571,2.544-3.743,2.544-6.144c0-2.398-0.972-4.57-2.544-6.142c-1.559-1.561-3.711-2.53-6.089-2.543V20.947z"/>
<polygon fill-rule="evenodd" fill="#EFC849" points="46.034,24.746 47.978,28.06 51.728,28.884 49.178,31.756 49.554,35.579 
	46.034,34.039 42.514,35.579 42.891,31.756 40.338,28.884 44.093,28.06 "/>
<polygon fill-rule="evenodd" fill="#D6AF2C" points="46.097,24.852 47.978,28.06 51.728,28.884 49.178,31.756 49.554,35.577 
	46.097,34.065 "/>
</svg>
