<?xml version="1.0" encoding="utf-8"?>
<!-- Generator: Adobe Illustrator 16.2.0, SVG Export Plug-In . SVG Version: 6.00 Build 0)  -->
<svg version="1.2" baseProfile="tiny" id="Слой_1"
	 xmlns="http://www.w3.org/2000/svg" xmlns:xlink="http://www.w3.org/1999/xlink" x="0px" y="0px" width="60px" height="60px"
	 viewBox="0 0 60 60" xml:space="preserve">
<path fill-rule="evenodd" fill="#3E98D3" d="M12.006,7.94h36.417c1.742,0,3.166,1.425,3.166,3.167v45.125
	c0,1.742-1.424,3.167-3.166,3.167H12.006c-1.741,0-3.167-1.425-3.167-3.167V11.107C8.84,9.365,10.266,7.94,12.006,7.94"/>
<path fill-rule="evenodd" fill="#2285C7" d="M30.415,7.94h18.008c1.743,0,3.167,1.425,3.167,3.167v45.125
	c0,1.742-1.424,3.167-3.167,3.167H30.415V7.94z"/>
<path fill-rule="evenodd" fill="#E7F2F8" d="M13.954,8.734h35.518c1.172,0,2.131,0.958,2.131,2.131v43.622
	c0,1.172-0.959,2.13-2.131,2.13H13.954c-1.172,0-2.131-0.958-2.131-2.13V10.866C11.823,9.693,12.782,8.734,13.954,8.734"/>
<path fill-rule="evenodd" fill="#C7D9E0" d="M30.415,8.734h19.057c1.172,0,2.131,0.958,2.131,2.131v43.622
	c0,1.172-0.959,2.13-2.131,2.13H30.415V8.734z"/>
<path fill-rule="evenodd" fill="#3E98D3" d="M12.006,0.915h36.417c1.742,0,3.166,1.426,3.166,3.167v44.729
	c0,1.741-1.424,3.166-3.166,3.166H12.006c-1.741,0-3.167-1.425-3.167-3.166V4.081C8.84,2.34,10.266,0.915,12.006,0.915"/>
<path fill-rule="evenodd" fill="#2285C7" d="M30.415,0.915h18.008c1.743,0,3.167,1.426,3.167,3.167v44.729
	c0,1.741-1.424,3.166-3.167,3.166H30.415V0.915z"/>
<path fill-rule="evenodd" fill="#E7F2F8" d="M32.616,33.731h-5.131c-0.013-0.738-0.02-1.184-0.02-1.349
	c0-1.655,0.273-3.016,0.827-4.089c0.547-1.067,1.643-2.272,3.29-3.613c1.649-1.333,2.634-2.209,2.956-2.626
	c0.5-0.657,0.746-1.381,0.746-2.169c0-1.087-0.438-2.024-1.32-2.797c-0.876-0.779-2.059-1.169-3.55-1.169
	c-1.437,0-2.634,0.409-3.605,1.224c-0.965,0.82-1.628,2.065-1.991,3.743l-5.172-0.658c0.15-2.401,1.169-4.433,3.065-6.108
	c1.896-1.676,4.385-2.511,7.464-2.511c3.242,0,5.822,0.849,7.737,2.538c1.916,1.69,2.873,3.653,2.873,5.904
	c0,1.238-0.349,2.421-1.054,3.529c-0.705,1.108-2.203,2.62-4.509,4.536c-1.189,0.984-1.928,1.786-2.215,2.388
	C32.719,31.105,32.589,32.18,32.616,33.731 M27.485,35.661h5.131v5.622h-5.131V35.661z"/>
<path fill-rule="evenodd" fill="#C7D9E0" d="M32.616,33.731h-2.226v-8.015c0.358-0.335,0.756-0.681,1.191-1.036
	c1.649-1.333,2.634-2.209,2.956-2.626c0.5-0.657,0.746-1.381,0.746-2.169c0-1.087-0.438-2.024-1.32-2.797
	c-0.876-0.779-2.059-1.169-3.55-1.169h-0.023v-4.31c3.141,0.039,5.647,0.886,7.521,2.537c1.916,1.69,2.873,3.653,2.873,5.904
	c0,1.238-0.349,2.421-1.054,3.529c-0.705,1.108-2.203,2.62-4.509,4.536c-1.189,0.984-1.928,1.786-2.215,2.388
	C32.719,31.105,32.589,32.18,32.616,33.731 M30.391,41.283h2.226v-5.622h-2.226V41.283z"/>
</svg>
