<?xml version="1.0" encoding="utf-8"?>
<!-- Generator: Adobe Illustrator 16.2.0, SVG Export Plug-In . SVG Version: 6.00 Build 0)  -->
<svg version="1.2" baseProfile="tiny" id="Слой_1"
	 xmlns="http://www.w3.org/2000/svg" xmlns:xlink="http://www.w3.org/1999/xlink" x="0px" y="0px" width="60px" height="60px"
	 viewBox="0 0 60 60" xml:space="preserve">
<path fill-rule="evenodd" fill="#495A6C" d="M29.537,5.864c1.542,0,2.793-1.251,2.793-2.794s-1.252-2.794-2.793-2.794
	c-1.543,0-2.794,1.251-2.794,2.794S27.994,5.864,29.537,5.864 M29.537,4.229c0.639,0,1.159-0.519,1.159-1.159
	s-0.52-1.157-1.159-1.157c-0.64,0-1.159,0.518-1.159,1.157S28.897,4.229,29.537,4.229"/>
<path fill-rule="evenodd" fill="#354859" d="M29.567,5.864c1.529-0.016,2.763-1.261,2.763-2.793c0-1.533-1.234-2.777-2.763-2.794
	v1.636c0.625,0.017,1.128,0.529,1.128,1.158c0,0.629-0.503,1.141-1.128,1.158V5.864z"/>
<path fill-rule="evenodd" fill="#E74D3D" d="M11.583,7.304h36.009c1.277,0,2.322,1.045,2.322,2.322v47.777
	c0,1.278-1.045,2.321-2.322,2.321H11.583c-1.277,0-2.321-1.043-2.321-2.321V9.625C9.261,8.349,10.305,7.304,11.583,7.304"/>
<path fill-rule="evenodd" fill="#D43E2E" d="M29.615,7.304h17.977c1.277,0,2.322,1.045,2.322,2.322v47.777
	c0,1.278-1.045,2.321-2.322,2.321H29.615V7.304z"/>
<rect x="15.089" y="12.732" fill-rule="evenodd" fill="#A5BAC4" width="30.836" height="41.478"/>
<rect x="13.419" y="11.148" fill-rule="evenodd" fill="#FFFFFF" width="30.831" height="41.229"/>
<rect x="29.566" y="11.148" fill-rule="evenodd" fill="#D7E4EB" width="14.684" height="41.229"/>
<rect x="25.627" y="18.756" fill-rule="evenodd" fill="#6B6C6C" width="8.092" height="1.053"/>
<rect x="29.566" y="18.756" fill-rule="evenodd" fill="#565656" width="4.153" height="1.053"/>
<rect x="20.502" y="22.783" fill-rule="evenodd" fill="#6B6C6C" width="18.342" height="1.053"/>
<rect x="29.566" y="22.783" fill-rule="evenodd" fill="#565656" width="9.279" height="1.053"/>
<rect x="20.502" y="25.088" fill-rule="evenodd" fill="#6B6C6C" width="18.342" height="1.053"/>
<rect x="29.566" y="25.089" fill-rule="evenodd" fill="#565656" width="9.279" height="1.052"/>
<rect x="20.502" y="27.444" fill-rule="evenodd" fill="#6B6C6C" width="13.379" height="1.053"/>
<rect x="29.566" y="27.444" fill-rule="evenodd" fill="#565656" width="4.316" height="1.053"/>
<rect x="20.502" y="30.087" fill-rule="evenodd" fill="#6B6C6C" width="18.342" height="1.053"/>
<rect x="29.566" y="30.087" fill-rule="evenodd" fill="#565656" width="9.279" height="1.053"/>
<rect x="20.502" y="32.394" fill-rule="evenodd" fill="#6B6C6C" width="18.342" height="1.053"/>
<rect x="29.566" y="32.394" fill-rule="evenodd" fill="#565656" width="9.279" height="1.053"/>
<rect x="20.502" y="34.776" fill-rule="evenodd" fill="#6B6C6C" width="18.342" height="1.054"/>
<rect x="29.566" y="34.776" fill-rule="evenodd" fill="#565656" width="9.279" height="1.054"/>
<rect x="20.502" y="37.083" fill-rule="evenodd" fill="#6B6C6C" width="18.342" height="1.053"/>
<rect x="29.566" y="37.083" fill-rule="evenodd" fill="#565656" width="9.279" height="1.053"/>
<rect x="20.502" y="39.438" fill-rule="evenodd" fill="#6B6C6C" width="13.379" height="1.052"/>
<rect x="29.566" y="39.438" fill-rule="evenodd" fill="#565656" width="4.316" height="1.052"/>
<rect x="20.502" y="42.082" fill-rule="evenodd" fill="#6B6C6C" width="18.342" height="1.053"/>
<rect x="29.566" y="42.082" fill-rule="evenodd" fill="#565656" width="9.279" height="1.053"/>
<rect x="20.502" y="44.388" fill-rule="evenodd" fill="#6B6C6C" width="18.342" height="1.052"/>
<rect x="29.566" y="44.388" fill-rule="evenodd" fill="#565656" width="9.279" height="1.052"/>
<polygon fill-rule="evenodd" fill="#495A6C" points="29.587,5.03 39.764,9.235 41.323,12.959 17.75,12.959 19.411,9.235 "/>
<polygon fill-rule="evenodd" fill="#354859" points="29.587,5.03 39.764,9.235 41.323,12.959 29.557,12.959 29.557,5.036 "/>
<rect x="17.752" y="12.947" fill-rule="evenodd" fill="#354859" width="11.867" height="1.645"/>
<rect x="29.567" y="12.956" fill-rule="evenodd" fill="#223443" width="11.762" height="1.635"/>
</svg>
