<?xml version="1.0" encoding="utf-8"?>
<!-- Generator: Adobe Illustrator 16.2.0, SVG Export Plug-In . SVG Version: 6.00 Build 0)  -->
<svg version="1.2" baseProfile="tiny" id="Слой_1"
	 xmlns="http://www.w3.org/2000/svg" xmlns:xlink="http://www.w3.org/1999/xlink" x="0px" y="0px" width="60px" height="60px"
	 viewBox="0 0 60 60" xml:space="preserve">
<rect x="11.505" y="4.854" fill-rule="evenodd" fill="#A5BAC4" width="41.271" height="54.717"/>
<polygon fill-rule="evenodd" fill="#E7F2F8" points="7.224,55.084 48.515,55.084 48.515,11.282 37.661,0.428 7.224,0.428 "/>
<polygon fill-rule="evenodd" fill="#C7D9E0" points="27.911,55.084 48.515,55.084 48.515,11.282 37.661,0.428 27.911,0.428 "/>
<polygon fill-rule="evenodd" fill="#E7F2F8" points="37.687,0.454 37.687,11.267 48.501,11.267 "/>
<rect x="22.745" y="10.508" fill-rule="evenodd" fill="#6B6C6C" width="10.618" height="1.382"/>
<rect x="27.912" y="10.508" fill-rule="evenodd" fill="#565656" width="5.45" height="1.382"/>
<rect x="16.02" y="15.791" fill-rule="evenodd" fill="#6B6C6C" width="24.067" height="1.381"/>
<rect x="27.912" y="15.791" fill-rule="evenodd" fill="#565656" width="12.175" height="1.381"/>
<rect x="16.02" y="18.817" fill-rule="evenodd" fill="#6B6C6C" width="24.067" height="1.382"/>
<rect x="27.912" y="18.818" fill-rule="evenodd" fill="#565656" width="12.175" height="1.381"/>
<rect x="16.02" y="21.908" fill-rule="evenodd" fill="#6B6C6C" width="17.555" height="1.382"/>
<rect x="27.912" y="21.908" fill-rule="evenodd" fill="#565656" width="5.663" height="1.382"/>
<rect x="16.02" y="25.376" fill-rule="evenodd" fill="#6B6C6C" width="24.067" height="1.382"/>
<rect x="27.912" y="25.377" fill-rule="evenodd" fill="#565656" width="12.175" height="1.382"/>
<rect x="16.02" y="28.402" fill-rule="evenodd" fill="#6B6C6C" width="24.067" height="1.382"/>
<rect x="27.912" y="28.403" fill-rule="evenodd" fill="#565656" width="12.175" height="1.381"/>
<path fill-rule="evenodd" fill="#E74D3D" d="M30.794,45.02l2.691-0.278c0.078,0.608,0.305,1.093,0.68,1.449
	c0.381,0.357,0.816,0.535,1.311,0.535c0.563,0,1.041-0.229,1.432-0.691c0.391-0.461,0.586-1.155,0.586-2.083
	c0-0.87-0.193-1.521-0.584-1.957c-0.385-0.437-0.891-0.651-1.514-0.651c-0.773,0-1.473,0.341-2.088,1.021l-2.18-0.315l1.375-7.309
	h7.131v2.517H34.55l-0.426,2.393c0.598-0.298,1.215-0.449,1.842-0.449c1.199,0,2.215,0.436,3.045,1.311
	c0.836,0.872,1.252,2.004,1.252,3.398c0,1.163-0.336,2.197-1.01,3.11c-0.916,1.243-2.186,1.868-3.811,1.868
	c-1.299,0-2.359-0.353-3.178-1.049C31.442,47.137,30.954,46.202,30.794,45.02"/>
<path fill-rule="evenodd" fill="#D43E2E" d="M35.593,46.722c0.514-0.029,0.951-0.258,1.314-0.688
	c0.391-0.462,0.586-1.155,0.586-2.081c0-0.872-0.193-1.523-0.584-1.959c-0.344-0.39-0.783-0.603-1.316-0.645v-2.131
	c0.125-0.011,0.25-0.019,0.373-0.019c1.199,0,2.215,0.437,3.045,1.311c0.836,0.87,1.252,2.004,1.252,3.398
	c0,1.163-0.336,2.197-1.008,3.11c-0.889,1.205-2.109,1.828-3.662,1.864V46.722z M35.593,34.742h4.041v2.515h-4.041V34.742z"/>
</svg>
