<?xml version="1.0" encoding="utf-8"?>
<!-- Generator: Adobe Illustrator 16.2.0, SVG Export Plug-In . SVG Version: 6.00 Build 0)  -->
<svg version="1.2" baseProfile="tiny" id="Слой_1"
	 xmlns="http://www.w3.org/2000/svg" xmlns:xlink="http://www.w3.org/1999/xlink" x="0px" y="0px" width="60px" height="60px"
	 viewBox="0 0 60 60" xml:space="preserve">
<path fill-rule="evenodd" fill="#A5BAC4" d="M14.751,3.064h35.413c2.31,0,4.2,1.89,4.2,4.199v48.094c0,2.31-1.891,4.199-4.2,4.199
	H14.751c-2.309,0-4.199-1.89-4.199-4.199V7.263C10.552,4.954,12.442,3.064,14.751,3.064"/>
<path fill-rule="evenodd" fill="#E7F2F8" d="M10.903,0.763h38.808c1.376,0,2.501,1.125,2.501,2.502v51.489
	c0,1.375-1.125,2.502-2.501,2.502H10.903c-1.375,0-2.501-1.127-2.501-2.502V3.265C8.402,1.889,9.528,0.763,10.903,0.763"/>
<path fill-rule="evenodd" fill="#2285C7" d="M10.903,0.763h4.642v56.493h-4.642c-1.375,0-2.501-1.127-2.501-2.502V3.265
	C8.402,1.889,9.528,0.763,10.903,0.763"/>
<path fill-rule="evenodd" fill="#C7D9E0" d="M33.452,0.763H49.71c1.377,0,2.503,1.125,2.503,2.502v51.488
	c0,1.376-1.126,2.503-2.503,2.503H33.452V0.763z"/>
<rect x="28.552" y="10.334" fill-rule="evenodd" fill="#6B6C6C" width="10.12" height="1.662"/>
<rect x="33.478" y="10.334" fill-rule="evenodd" fill="#565656" width="5.194" height="1.662"/>
<rect x="22.142" y="16.688" fill-rule="evenodd" fill="#6B6C6C" width="22.941" height="1.66"/>
<rect x="33.478" y="16.688" fill-rule="evenodd" fill="#565656" width="11.605" height="1.66"/>
<rect x="27.452" y="20.34" fill-rule="evenodd" fill="#6B6C6C" width="11.424" height="1.661"/>
<rect x="33.478" y="20.34" fill-rule="evenodd" fill="#565656" width="5.729" height="1.661"/>
<rect x="25.692" y="24.09" fill-rule="evenodd" fill="#6B6C6C" width="15.842" height="1.66"/>
<rect x="33.52" y="24.089" fill-rule="evenodd" fill="#565656" width="8.014" height="1.661"/>
</svg>
