<?xml version="1.0" encoding="utf-8"?>
<!-- Generator: Adobe Illustrator 16.2.0, SVG Export Plug-In . SVG Version: 6.00 Build 0)  -->
<svg version="1.2" baseProfile="tiny" id="Слой_1"
	 xmlns="http://www.w3.org/2000/svg" xmlns:xlink="http://www.w3.org/1999/xlink" x="0px" y="0px" width="60px" height="60px"
	 viewBox="0 0 60 60" xml:space="preserve">
<path fill-rule="evenodd" fill="#E7F2F8" d="M14.797,15.015H27.05c0.971,0,1.766,0.795,1.766,1.765v2.7
	c0,0.971-0.794,1.766-1.766,1.766h-1.35v8.764c6.032,2.002,10.383,7.688,10.383,14.392c0,8.372-6.787,15.161-15.16,15.161
	S5.763,52.773,5.763,44.401c0-6.703,4.352-12.39,10.384-14.392v-8.764h-1.351c-0.97,0-1.765-0.795-1.765-1.766v-2.7
	C13.032,15.81,13.827,15.015,14.797,15.015"/>
<path fill-rule="evenodd" fill="#C7D9E0" d="M20.971,15.015h6.08c0.97,0,1.765,0.795,1.765,1.765v2.7
	c0,0.971-0.795,1.766-1.765,1.766H25.7v8.764c6.032,2.002,10.384,7.688,10.384,14.392c0,8.358-6.762,15.135-15.113,15.16V15.015z"/>
<path fill-rule="evenodd" fill="#27AE61" d="M33.695,44.405c0,7.051-5.719,12.769-12.771,12.769S8.154,51.456,8.152,44.405H33.695z"
	/>
<path fill-rule="evenodd" fill="#1E944E" d="M33.695,44.405c0,7.034-5.693,12.741-12.725,12.769V44.405H33.695z"/>
<path fill-rule="evenodd" fill="#62C086" d="M16.714,46.224c1.577,0,2.855,1.277,2.855,2.854s-1.279,2.856-2.855,2.856
	c-1.577,0-2.856-1.279-2.856-2.856S15.137,46.224,16.714,46.224"/>
<path fill-rule="evenodd" fill="#35B66C" d="M23.93,45.496c0.918,0,1.662,0.743,1.662,1.662c0,0.916-0.744,1.662-1.662,1.662
	s-1.662-0.746-1.662-1.662C22.269,46.239,23.012,45.496,23.93,45.496"/>
<path fill-rule="evenodd" fill="#35B66C" d="M18.349,40.979c0.645,0,1.168,0.523,1.168,1.168s-0.523,1.168-1.168,1.168
	s-1.168-0.523-1.168-1.168S17.704,40.979,18.349,40.979"/>
<path fill-rule="evenodd" fill="#62C086" d="M16.687,34.904c1.276,0,2.311,1.036,2.311,2.312s-1.035,2.31-2.311,2.31
	c-1.275,0-2.31-1.034-2.31-2.31S15.412,34.904,16.687,34.904"/>
<path fill-rule="evenodd" fill="#E7F2F8" d="M38.682,1.519h12.252c0.973,0,1.766,0.794,1.766,1.765v2.7
	c0,0.971-0.793,1.766-1.766,1.766h-0.313v45.999c0,3.196-2.615,5.814-5.814,5.814l0,0c-3.197,0-5.813-2.618-5.813-5.814V7.75h-0.313
	c-0.973,0-1.768-0.795-1.768-1.766v-2.7C36.914,2.313,37.709,1.519,38.682,1.519"/>
<path fill-rule="evenodd" fill="#C7D9E0" d="M44.752,1.519h6.182c0.973,0,1.766,0.794,1.766,1.765v2.7
	c0,0.971-0.793,1.766-1.766,1.766h-0.313v45.999c0,3.196-2.615,5.814-5.814,5.814l-0.055-0.001V1.519z"/>
<path fill-rule="evenodd" fill="#ED5B4C" d="M48.754,21.197v30.792c0,2.939-1.777,5.344-3.947,5.344l0,0
	c-2.172,0-3.945-2.404-3.945-5.344V21.197H48.754z"/>
<path fill-rule="evenodd" fill="#D43E2E" d="M48.754,21.197v30.792c0,2.939-1.777,5.344-3.947,5.344l0,0l-0.055-0.002V21.197H48.754
	z"/>
<path fill-rule="evenodd" fill="#F19289" d="M44.609,26.131c1.326,0,2.4,1.075,2.4,2.402c0,1.325-1.074,2.401-2.4,2.401
	c-1.328,0-2.402-1.076-2.402-2.401C42.207,27.206,43.281,26.131,44.609,26.131"/>
<path fill-rule="evenodd" fill="#ED5B4C" d="M48.775,44.502c-1.965-0.448-3.428-2.203-3.428-4.302c0-2.097,1.463-3.853,3.428-4.302
	V44.502z"/>
</svg>
