<?xml version="1.0" encoding="utf-8"?>
<!-- Generator: Adobe Illustrator 16.2.0, SVG Export Plug-In . SVG Version: 6.00 Build 0)  -->
<!DOCTYPE svg PUBLIC "-//W3C//DTD SVG 1.1//EN" "http://www.w3.org/Graphics/SVG/1.1/DTD/svg11.dtd">
<svg version="1.1" id="Layer_1" xmlns="http://www.w3.org/2000/svg" xmlns:xlink="http://www.w3.org/1999/xlink" x="0px" y="0px"
	 width="60px" height="60px" viewBox="43.497 46.497 60 60" enable-background="new 43.497 46.497 60 60" xml:space="preserve">
<g>
	<g>
		<ellipse fill="#A5BBC4" cx="73.854" cy="73.634" rx="27.968" ry="20.237"/>
	</g>
	<g>
		<path fill="#A5BBC4" d="M54.176,84.348c0.422,11.136,8.582,16.58,13.901,17.602c-2.917-6.319-2.266-8.143,0.645-12.313"/>
	</g>
	<g>
		<path fill="#E6F1F8" d="M53.074,80.432c-0.784,11.116,6.739,17.41,11.917,19.001c-2.216-6.6-1.372-8.341,1.97-12.172"/>
	</g>
	<g>
		<g>
			<path fill="#E6F1F8" d="M45.17,71.281c0,11.177,12.522,20.237,27.968,20.237V51.043C57.693,51.043,45.17,60.104,45.17,71.281z"/>
		</g>
		<g>
			<path fill="#D7E4EB" d="M73.139,51.043v40.476c15.446,0,27.967-9.062,27.967-20.238C101.106,60.105,88.584,51.043,73.139,51.043z
				"/>
		</g>
	</g>
	<g>
		<g>
			<path fill="#5EB130" d="M69.572,75.207l-0.064-0.844c-0.065-1.651,0.453-3.336,1.911-5.054c1.038-1.229,1.879-2.3,1.879-3.401
				s-0.746-1.879-2.333-1.912c-1.101,0-2.364,0.357-3.239,0.94l-1.069-3.499c1.167-0.682,3.078-1.329,5.41-1.329
				c4.243,0,6.221,2.365,6.221,5.022c0,2.493-1.555,4.082-2.785,5.474c-1.168,1.297-1.686,2.562-1.654,4.017v0.586H69.572z
				 M71.582,82.659c-1.718,0-2.884-1.263-2.884-2.949c0-1.749,1.199-2.947,2.884-2.947c1.748,0,2.882,1.198,2.915,2.947
				c0,1.687-1.133,2.949-2.884,2.949H71.582z"/>
		</g>
	</g>
</g>
</svg>
