<?xml version="1.0" encoding="utf-8"?>
<!-- Generator: Adobe Illustrator 16.2.0, SVG Export Plug-In . SVG Version: 6.00 Build 0)  -->
<svg version="1.2" baseProfile="tiny" id="Слой_1"
	 xmlns="http://www.w3.org/2000/svg" xmlns:xlink="http://www.w3.org/1999/xlink" x="0px" y="0px" width="60px" height="60px"
	 viewBox="0 0 60 60" xml:space="preserve">
<path fill-rule="evenodd" fill="#495A6C" d="M13.262,2.806h35.552c2.318,0,4.215,1.897,4.215,4.215v48.283
	c0,2.318-1.896,4.216-4.215,4.216H13.262c-2.319,0-4.215-1.897-4.215-4.216V7.021C9.047,4.703,10.942,2.806,13.262,2.806"/>
<path fill-rule="evenodd" fill="#27AE61" d="M9.399,0.497h38.957c1.382,0,2.513,1.13,2.513,2.512v51.689
	c0,1.383-1.131,2.513-2.513,2.513H9.399c-1.383,0-2.513-1.13-2.513-2.513V3.008C6.887,1.626,8.017,0.497,9.399,0.497"/>
<path fill-rule="evenodd" fill="#495A6C" d="M9.399,0.497h4.659V57.21H9.399c-1.383,0-2.513-1.13-2.513-2.513V3.008
	C6.887,1.626,8.017,0.497,9.399,0.497"/>
<path fill-rule="evenodd" fill="#1E944E" d="M32.035,0.497h16.321c1.382,0,2.513,1.13,2.513,2.512v51.689
	c0,1.381-1.131,2.513-2.513,2.513H32.035V0.497z"/>
<rect x="27.116" y="19.948" fill-rule="evenodd" fill="#E7F2F8" width="10.161" height="1.667"/>
<rect x="32.061" y="19.948" fill-rule="evenodd" fill="#C7D9E0" width="5.216" height="1.667"/>
<rect x="20.681" y="26.325" fill-rule="evenodd" fill="#E7F2F8" width="23.031" height="1.667"/>
<rect x="32.061" y="26.325" fill-rule="evenodd" fill="#C7D9E0" width="11.651" height="1.667"/>
<rect x="26.012" y="29.992" fill-rule="evenodd" fill="#E7F2F8" width="11.467" height="1.667"/>
<rect x="32.061" y="29.992" fill-rule="evenodd" fill="#C7D9E0" width="5.752" height="1.667"/>
<rect x="24.244" y="33.756" fill-rule="evenodd" fill="#E7F2F8" width="15.903" height="1.667"/>
<rect x="32.103" y="33.758" fill-rule="evenodd" fill="#C7D9E0" width="8.045" height="1.667"/>
</svg>
