<?xml version="1.0" encoding="utf-8"?>
<!-- Generator: Adobe Illustrator 16.2.0, SVG Export Plug-In . SVG Version: 6.00 Build 0)  -->
<svg version="1.2" baseProfile="tiny" id="Слой_1"
	 xmlns="http://www.w3.org/2000/svg" xmlns:xlink="http://www.w3.org/1999/xlink" x="0px" y="0px" width="60px" height="60px"
	 viewBox="0 0 60 60" xml:space="preserve">
<rect x="10.719" y="2.901" fill-rule="evenodd" fill="#A5BAC4" width="42.693" height="56.602"/>
<polygon fill-rule="evenodd" fill="#E7F2F8" points="8.217,56.926 50.931,56.926 50.931,11.616 39.703,0.388 8.217,0.388 "/>
<polygon fill-rule="evenodd" fill="#C7D9E0" points="29.616,56.926 50.931,56.926 50.931,11.616 39.703,0.388 29.616,0.388 "/>
<rect x="23.305" y="14.985" fill-rule="evenodd" fill="#6B6C6C" width="18.931" height="1.429"/>
<rect x="29.616" y="14.985" fill-rule="evenodd" fill="#565656" width="12.62" height="1.429"/>
<rect x="23.305" y="18.128" fill-rule="evenodd" fill="#6B6C6C" width="13.04" height="1.429"/>
<rect x="29.616" y="18.128" fill-rule="evenodd" fill="#565656" width="7.271" height="1.429"/>
<rect x="23.305" y="27.633" fill-rule="evenodd" fill="#6B6C6C" width="18.931" height="1.429"/>
<rect x="29.616" y="27.633" fill-rule="evenodd" fill="#565656" width="12.62" height="1.429"/>
<rect x="23.305" y="30.776" fill-rule="evenodd" fill="#6B6C6C" width="13.04" height="1.429"/>
<rect x="29.616" y="30.776" fill-rule="evenodd" fill="#565656" width="7.271" height="1.429"/>
<rect x="23.305" y="40.544" fill-rule="evenodd" fill="#6B6C6C" width="18.931" height="1.43"/>
<rect x="29.616" y="40.544" fill-rule="evenodd" fill="#565656" width="12.62" height="1.43"/>
<rect x="23.305" y="43.686" fill-rule="evenodd" fill="#6B6C6C" width="13.04" height="1.431"/>
<rect x="29.616" y="43.686" fill-rule="evenodd" fill="#565656" width="7.271" height="1.431"/>
<rect x="13.814" y="14.985" fill-rule="evenodd" fill="#565656" width="4.542" height="4.542"/>
<rect x="13.814" y="27.627" fill-rule="evenodd" fill="#565656" width="4.542" height="4.543"/>
<rect x="13.814" y="40.452" fill-rule="evenodd" fill="#565656" width="4.542" height="4.542"/>
</svg>
