<?xml version="1.0" encoding="utf-8"?>
<!-- Generator: Adobe Illustrator 16.2.0, SVG Export Plug-In . SVG Version: 6.00 Build 0)  -->
<svg version="1.2" baseProfile="tiny" id="Слой_1"
	 xmlns="http://www.w3.org/2000/svg" xmlns:xlink="http://www.w3.org/1999/xlink" x="0px" y="0px" width="60px" height="60px"
	 viewBox="0 0 60 60" xml:space="preserve">
<path fill-rule="evenodd" fill="#D43E2E" d="M12.932,6.947h34.322c1.641,0,2.984,1.343,2.984,2.984v42.529
	c0,1.641-1.344,2.984-2.984,2.984H12.932c-1.642,0-2.984-1.344-2.984-2.984V9.932C9.948,8.29,11.291,6.947,12.932,6.947"/>
<path fill-rule="evenodd" fill="#D43E2E" d="M30.28,6.947h16.974c1.641,0,2.984,1.343,2.984,2.984v42.529
	c0,1.641-1.344,2.984-2.984,2.984H30.28V6.947z"/>
<path fill-rule="evenodd" fill="#E7F2F8" d="M14.767,7.696h33.477c1.104,0,2.007,0.903,2.007,2.008v41.112
	c0,1.105-0.903,2.01-2.007,2.01H14.767c-1.106,0-2.009-0.904-2.009-2.01V9.704C12.757,8.599,13.661,7.696,14.767,7.696"/>
<path fill-rule="evenodd" fill="#C7D9E0" d="M30.28,7.696h17.963c1.104,0,2.007,0.903,2.007,2.008v41.112
	c0,1.105-0.903,2.01-2.007,2.01H30.28V7.696z"/>
<path fill-rule="evenodd" fill="#E74D3D" d="M12.932,0.325h34.322c1.641,0,2.984,1.343,2.984,2.984v42.155
	c0,1.645-1.344,2.984-2.984,2.984H12.932c-1.642,0-2.984-1.34-2.984-2.984V3.31C9.948,1.668,11.291,0.325,12.932,0.325"/>
<path fill-rule="evenodd" fill="#D43E2E" d="M30.28,0.325h16.974c1.641,0,2.984,1.343,2.984,2.984v42.155
	c0,1.645-1.344,2.984-2.984,2.984H30.28V0.325z"/>
<path fill="#E7F2F8" d="M27.4,28.491h-2.604l-1.031-2.718h-4.789l-0.992,2.718h-2.556l4.635-11.938h2.553L27.4,28.491z
	 M22.98,23.756l-1.658-4.418l-1.613,4.418H22.98z M28.403,23.022h4.5v2.285h-4.5V23.022z M33.188,28.491v-2.167l6.291-7.752h-5.573
	v-2.018h8.735v1.867l-6.535,8.054h6.785v2.017H33.188z"/>
<path fill-rule="evenodd" fill="#C7D9E0" d="M30.28,23.022h2.624v2.285H30.28V23.022z M33.188,28.491v-2.167l6.291-7.752h-5.573
	v-2.018h8.735v1.867l-6.535,8.054h6.785v2.017H33.188z"/>
<polygon fill-rule="evenodd" fill="#495A6C" points="17.975,48.445 25.348,48.445 25.348,59.674 21.661,55.986 17.975,59.674 "/>
<polygon fill-rule="evenodd" fill="#354859" points="21.7,48.445 25.349,48.445 25.349,59.674 21.7,56.025 "/>
</svg>
