<?xml version="1.0" encoding="utf-8"?>
<!-- Generator: Adobe Illustrator 16.2.0, SVG Export Plug-In . SVG Version: 6.00 Build 0)  -->
<svg version="1.2" baseProfile="tiny" id="Слой_1"
	 xmlns="http://www.w3.org/2000/svg" xmlns:xlink="http://www.w3.org/1999/xlink" x="0px" y="0px" width="60px" height="60px"
	 viewBox="0 0 60 60" xml:space="preserve">
<rect x="27.826" y="30.707" fill-rule="evenodd" fill="#3E98D3" width="4.845" height="24.796"/>
<rect x="30.177" y="30.707" fill-rule="evenodd" fill="#2285C7" width="2.494" height="24.796"/>
<polygon fill-rule="evenodd" fill="#3E98D3" points="19.88,37.683 24.261,39.749 15.023,59.336 9.666,59.336 "/>
<polygon fill-rule="evenodd" fill="#2285C7" points="40.047,37.683 35.665,39.749 44.903,59.336 50.261,59.336 "/>
<path fill-rule="evenodd" fill="#3E98D3" d="M6.874,0.61h46.509c3.532,0,6.421,2.89,6.421,6.421v32.556
	c0,3.533-2.889,6.422-6.421,6.422H6.874c-3.531,0-6.421-2.889-6.421-6.422V7.031C0.453,3.5,3.342,0.61,6.874,0.61"/>
<path fill-rule="evenodd" fill="#2285C7" d="M30.192,0.61h23.19c3.532,0,6.422,2.89,6.422,6.421v32.556
	c0,3.533-2.89,6.422-6.422,6.422h-23.19V0.61z"/>
<path fill-rule="evenodd" fill="#E7F2F8" d="M8.474,4.872H51.8c1.986,0,3.611,1.624,3.611,3.611v29.653
	c0,1.986-1.625,3.61-3.611,3.61H8.474c-1.986,0-3.611-1.624-3.611-3.61V8.482C4.863,6.496,6.488,4.872,8.474,4.872"/>
<path fill-rule="evenodd" fill="#C7D9E0" d="M8.474,4.872H51.8c1.703,0,3.14,1.194,3.515,2.787H4.958
	C5.334,6.066,6.771,4.872,8.474,4.872"/>
<path fill-rule="evenodd" fill="#C7D9E0" d="M30.192,4.872H51.8c1.986,0,3.611,1.624,3.611,3.611v29.653
	c0,1.986-1.625,3.611-3.611,3.611H30.192V4.872z"/>
<path fill-rule="evenodd" fill="#C7D9E0" d="M8.474,41.893H51.8c1.703,0,3.14-1.194,3.515-2.786H4.958
	C5.334,40.698,6.771,41.893,8.474,41.893"/>
<path fill-rule="evenodd" fill="#526678" d="M47.617,10.599c-1.164,0.01-2.108,0.943-2.108,2.09c0,0.624,0.282,1.184,0.724,1.566
	l-7.085,15.67c-0.156-0.038-0.319-0.06-0.487-0.06c-0.019,0-0.034,0.004-0.051,0.004l-5.358-9.248
	c0.689-0.344,1.167-1.05,1.167-1.862c0-1.152-0.954-2.089-2.128-2.089c-1.172,0-2.126,0.937-2.126,2.089
	c0,0.413,0.125,0.797,0.335,1.123l-5.186,7.245c-0.264-0.115-0.554-0.181-0.861-0.181c-0.618,0-1.172,0.26-1.561,0.674l-2.123-0.774
	c-0.053-1.105-0.982-1.989-2.121-1.989c-1.173,0-2.127,0.938-2.127,2.089c0,0.423,0.129,0.816,0.35,1.146l-3.537,3.866
	c-0.218-0.073-0.451-0.116-0.695-0.116c-1.173,0-2.127,0.938-2.127,2.089c0,1.152,0.954,2.089,2.127,2.089
	c1.172,0,2.127-0.937,2.127-2.089c0-0.486-0.172-0.933-0.457-1.288l3.47-3.792c0.266,0.118,0.559,0.185,0.869,0.185
	c0.783,0,1.465-0.417,1.835-1.037l1.875,0.684c-0.019,0.117-0.032,0.234-0.032,0.353c0,1.152,0.953,2.09,2.127,2.09
	c1.172,0,2.127-0.938,2.127-2.09c0-0.426-0.131-0.821-0.355-1.152l5.175-7.23c0.188,0.086,0.391,0.145,0.604,0.174l5.452,9.408
	c-0.557,0.378-0.923,1.007-0.923,1.721c0,1.152,0.955,2.089,2.128,2.089c1.174,0,2.127-0.937,2.127-2.089
	c0-0.566-0.231-1.079-0.604-1.456l7.122-15.75c0.108,0.017,0.218,0.027,0.331,0.027c1.173,0,2.128-0.937,2.128-2.089
	c0-1.146-0.946-2.08-2.11-2.09H47.617z"/>
<path fill-rule="evenodd" fill="#354859" d="M47.617,10.599c-1.164,0.01-2.108,0.943-2.108,2.09c0,0.624,0.282,1.184,0.725,1.566
	l-7.086,15.67c-0.156-0.038-0.319-0.06-0.487-0.06c-0.019,0-0.033,0.004-0.053,0.004l-5.358-9.248
	c0.691-0.344,1.169-1.05,1.169-1.862c0-1.152-0.954-2.089-2.128-2.089c-1.02,0-1.875,0.71-2.08,1.654v0.87
	c0.054,0.248,0.154,0.481,0.289,0.688l-0.289,0.403v2.03l1.189-1.662c0.188,0.086,0.391,0.145,0.604,0.174l5.452,9.408
	c-0.557,0.378-0.923,1.007-0.923,1.721c0,1.152,0.955,2.089,2.128,2.089c1.174,0,2.127-0.937,2.127-2.089
	c0-0.566-0.231-1.079-0.604-1.456l7.122-15.75c0.108,0.017,0.219,0.027,0.331,0.027c1.173,0,2.127-0.937,2.127-2.089
	c0-1.146-0.945-2.08-2.109-2.09H47.617z"/>
</svg>
