<?xml version="1.0" encoding="utf-8"?>
<!-- Generator: Adobe Illustrator 16.2.0, SVG Export Plug-In . SVG Version: 6.00 Build 0)  -->
<svg version="1.2" baseProfile="tiny" id="Слой_1"
	 xmlns="http://www.w3.org/2000/svg" xmlns:xlink="http://www.w3.org/1999/xlink" x="0px" y="0px" width="60px" height="60px"
	 viewBox="0 0 60 60" xml:space="preserve">
<rect x="9.751" y="2.921" fill-rule="evenodd" fill="#A5BAC4" width="42.746" height="56.675"/>
<polygon fill-rule="evenodd" fill="#E7F2F8" points="7.246,57.016 50.013,57.016 50.013,11.646 38.772,0.404 7.246,0.404 "/>
<polygon fill-rule="evenodd" fill="#C7D9E0" points="28.672,57.016 50.013,57.016 50.013,11.646 38.771,0.404 28.672,0.404 "/>
<polygon fill-rule="evenodd" fill="#E7F2F8" points="38.799,0.431 38.799,11.631 49.999,11.631 "/>
<rect x="23.344" y="22.711" fill-rule="evenodd" fill="#6B6C6C" width="10.998" height="1.431"/>
<rect x="28.696" y="22.711" fill-rule="evenodd" fill="#565656" width="5.646" height="1.431"/>
<rect x="16.378" y="28.183" fill-rule="evenodd" fill="#6B6C6C" width="24.929" height="1.43"/>
<rect x="28.696" y="28.183" fill-rule="evenodd" fill="#565656" width="12.611" height="1.432"/>
<rect x="16.378" y="31.329" fill-rule="evenodd" fill="#6B6C6C" width="18.184" height="1.432"/>
<rect x="28.696" y="31.329" fill-rule="evenodd" fill="#565656" width="5.866" height="1.432"/>
<rect x="16.559" y="34.446" fill-rule="evenodd" fill="#6B6C6C" width="24.428" height="1.479"/>
<rect x="28.63" y="34.446" fill-rule="evenodd" fill="#565656" width="12.358" height="1.479"/>
</svg>
