<?xml version="1.0" encoding="utf-8"?>
<!-- Generator: Adobe Illustrator 16.2.0, SVG Export Plug-In . SVG Version: 6.00 Build 0)  -->
<svg version="1.2" baseProfile="tiny" id="Слой_1"
	 xmlns="http://www.w3.org/2000/svg" xmlns:xlink="http://www.w3.org/1999/xlink" x="0px" y="0px" width="60px" height="60px"
	 viewBox="0 0 60 60" xml:space="preserve">
<polygon fill-rule="evenodd" fill="#E7F2F8" points="7.26,59.068 51.44,59.068 51.44,12.2 39.827,0.587 7.26,0.587 "/>
<rect x="11.255" y="38.902" fill="#C7D9E0" width="18.237" height="0.67"/>
<rect x="11.255" y="45.535" fill="#C7D9E0" width="18.237" height="0.67"/>
<rect x="11.255" y="26.177" fill="#C7D9E0" width="18.237" height="0.67"/>
<rect x="11.255" y="32.809" fill="#C7D9E0" width="18.237" height="0.67"/>
<rect x="22.78" y="6.941" fill="#C7D9E0" width="0.671" height="48.275"/>
<rect x="16.148" y="6.941" fill="#C7D9E0" width="0.67" height="48.275"/>
<polygon fill-rule="evenodd" fill="#C7D9E0" points="29.394,59.068 51.44,59.068 51.44,12.2 39.827,0.587 29.394,0.587 "/>
<rect x="29.393" y="38.902" fill="#E7F2F8" width="18.237" height="0.67"/>
<rect x="29.393" y="45.535" fill="#E7F2F8" width="18.237" height="0.67"/>
<rect x="29.393" y="26.177" fill="#E7F2F8" width="18.237" height="0.67"/>
<rect x="29.393" y="32.809" fill="#E7F2F8" width="18.237" height="0.67"/>
<rect x="29.393" y="12.912" fill="#E7F2F8" width="8.242" height="0.67"/>
<rect x="29.393" y="19.545" fill="#E7F2F8" width="18.237" height="0.67"/>
<rect x="42.759" y="14.915" fill="#E7F2F8" width="0.672" height="40.302"/>
<rect x="35.629" y="6.941" fill="#E7F2F8" width="0.672" height="48.275"/>
<polygon fill-rule="evenodd" fill="#E7F2F8" points="39.855,0.615 39.855,12.185 51.426,12.185 "/>
<rect x="11.255" y="12.912" fill="#C7D9E0" width="18.237" height="0.67"/>
<rect x="11.255" y="19.545" fill="#C7D9E0" width="18.237" height="0.67"/>
<rect x="15.837" y="14.077" fill-rule="evenodd" fill="#354859" width="1.326" height="34.86"/>
<rect x="13.599" y="45.248" fill-rule="evenodd" fill="#354859" width="31.501" height="1.326"/>
<rect x="11.255" y="52.125" fill="#C7D9E0" width="18.237" height="0.672"/>
<rect x="29.393" y="52.125" fill="#E7F2F8" width="18.237" height="0.672"/>
<polygon fill-rule="evenodd" fill="#354859" points="16.498,12.623 17.788,15.414 19.078,18.207 16.498,18.207 13.916,18.207 
	15.208,15.414 "/>
<polygon fill-rule="evenodd" fill="#354859" points="46.622,45.896 43.831,44.607 41.039,43.314 41.039,45.896 41.039,48.479 
	43.831,47.188 "/>
<path fill-rule="evenodd" fill="#1E944E" d="M46.822,40.117c-1.725,0.566-3.544,0.869-5.427,0.869
	c-5.499,0-10.471-2.584-14.058-6.76c-3.54-4.12-5.73-9.8-5.73-16.062c0-1.529,0.13-3.021,0.379-4.466h2.594
	c-0.274,1.436-0.419,2.931-0.419,4.466c0,5.637,1.954,10.73,5.112,14.406c3.112,3.621,7.399,5.863,12.123,5.863
	c1.896,0,3.72-0.361,5.427-1.027V40.117z"/>
<path fill-rule="evenodd" fill="#D43E2E" d="M47.778,18.327c-0.037,6.197-2.221,11.815-5.729,15.9
	c-3.589,4.178-8.56,6.76-14.059,6.76c-2.324,0-4.553-0.461-6.623-1.309v-2.797c2.04,1,4.277,1.551,6.623,1.551
	c4.723,0,9.011-2.24,12.123-5.861c3.129-3.641,5.076-8.671,5.112-14.244H47.778z"/>
</svg>
