<?xml version="1.0" encoding="UTF-8" standalone="no"?>
<!-- Generator: Adobe Illustrator 16.2.0, SVG Export Plug-In . SVG Version: 6.00 Build 0)  -->

<svg
   xmlns:dc="http://purl.org/dc/elements/1.1/"
   xmlns:cc="http://creativecommons.org/ns#"
   xmlns:rdf="http://www.w3.org/1999/02/22-rdf-syntax-ns#"
   xmlns:svg="http://www.w3.org/2000/svg"
   xmlns="http://www.w3.org/2000/svg"
   xmlns:sodipodi="http://sodipodi.sourceforge.net/DTD/sodipodi-0.dtd"
   xmlns:inkscape="http://www.inkscape.org/namespaces/inkscape"
   version="1.2"
   id="Слой_1"
   x="0px"
   y="0px"
   width="60px"
   height="60px"
   viewBox="0 0 60 60"
   xml:space="preserve"
   inkscape:version="0.48.4 r9939"
   sodipodi:docname="sochinenije.svg"><metadata
     id="metadata63"><rdf:RDF><cc:Work
         rdf:about=""><dc:format>image/svg+xml</dc:format><dc:type
           rdf:resource="http://purl.org/dc/dcmitype/StillImage" /><dc:title></dc:title></cc:Work></rdf:RDF></metadata><defs
     id="defs61" /><sodipodi:namedview
     pagecolor="#ffffff"
     bordercolor="#666666"
     borderopacity="1"
     objecttolerance="10"
     gridtolerance="10"
     guidetolerance="10"
     inkscape:pageopacity="0"
     inkscape:pageshadow="2"
     inkscape:window-width="1920"
     inkscape:window-height="1176"
     id="namedview59"
     showgrid="false"
     inkscape:zoom="3.9333333"
     inkscape:cx="-21.228814"
     inkscape:cy="30"
     inkscape:window-x="0"
     inkscape:window-y="24"
     inkscape:window-maximized="1"
     inkscape:current-layer="Слой_1" /><path
     d="m 8.676583,9.704 h 42.856758 c 1.787262,0 3.24843,1.648 3.24843,3.664 v 32.939 c 0,2.014 -1.461168,3.662 -3.24843,3.662 H 33.446383 l -3.240924,2.168 -1.82229,-0.008 -2.401086,-2.16 h -17.3055 c -1.786428,0 -3.247596,-1.648 -3.247596,-3.662 V 13.368 c 0,-2.016 1.462002,-3.664 3.247596,-3.664"
     id="path3"
     inkscape:connector-curvature="0"
     style="fill:#27ae61;fill-rule:evenodd" /><path
     d="m 30.209629,9.595 h 21.407112 c 1.791432,0 3.259272,1.653 3.259272,3.672 v 33.024 c 0,2.019 -1.469508,3.672 -3.259272,3.672 H 34.571449 l -2.278488,2.158 -2.083332,0.015 V 9.595 z"
     id="path5"
     inkscape:connector-curvature="0"
     style="fill:#1e944e;fill-rule:evenodd" /><polygon
     points="25.214,48.218 28.441,50.645 30.248,50.652 36.066,45.895 46.744,20.425 35.141,11.702 2.6,11.702 2.6,48.218 "
     id="polygon7"
     transform="matrix(0.834,0,0,1,5.005315,0)"
     style="fill:#c7d9e0;fill-rule:evenodd" /><polygon
     points="31.934,50.653 35.42,48.218 57.84,48.218 57.84,11.651 30.184,11.702 30.184,50.652 "
     id="polygon9"
     transform="matrix(0.834,0,0,1,5.005315,0)"
     style="fill:#96a5a5;fill-rule:evenodd" /><polygon
     points="30.248,48.993 36.066,42.464 46.744,17.659 35.141,8.936 2.6,8.936 2.6,46.558 26.32,46.558 "
     id="polygon11"
     transform="matrix(0.834,0,0,0.89844979,5.005315,4.9752493)"
     style="fill:#e7f2f8;fill-rule:evenodd" /><polygon
     points="57.84,46.558 57.84,8.886 30.184,8.936 30.184,48.993 34.176,46.558 "
     id="polygon13"
     transform="matrix(0.834,0,0,0.89857639,5.005315,4.9690468)"
     style="fill:#c7d9e0;fill-rule:evenodd" /><rect
     x="35.695683"
     y="17.695"
     width="12.419094"
     height="0.85399997"
     id="rect15"
     style="fill:#6b6c6c;fill-rule:evenodd" /><rect
     x="35.695683"
     y="19.742001"
     width="12.419094"
     height="0.85399997"
     id="rect17"
     style="fill:#6b6c6c;fill-rule:evenodd" /><rect
     x="35.695683"
     y="21.614"
     width="12.419094"
     height="0.85399997"
     id="rect19"
     style="fill:#6b6c6c;fill-rule:evenodd" /><rect
     x="35.695683"
     y="23.525999"
     width="9.056406"
     height="0.85399997"
     id="rect21"
     style="fill:#6b6c6c;fill-rule:evenodd" /><rect
     x="35.695683"
     y="25.673"
     width="12.419094"
     height="0.85399997"
     id="rect23"
     style="fill:#6b6c6c;fill-rule:evenodd" /><rect
     x="35.695683"
     y="27.542999"
     width="12.419094"
     height="0.85500002"
     id="rect25"
     style="fill:#6b6c6c;fill-rule:evenodd" /><rect
     x="35.695683"
     y="29.479"
     width="12.419094"
     height="0.85399997"
     id="rect27"
     style="fill:#6b6c6c;fill-rule:evenodd" /><rect
     x="35.695683"
     y="31.351"
     width="12.419094"
     height="0.85399997"
     id="rect29"
     style="fill:#6b6c6c;fill-rule:evenodd" /><rect
     x="35.695683"
     y="33.263"
     width="9.056406"
     height="0.85399997"
     id="rect31"
     style="fill:#6b6c6c;fill-rule:evenodd" /><rect
     x="35.695683"
     y="35.408001"
     width="12.419094"
     height="0.85500002"
     id="rect33"
     style="fill:#6b6c6c;fill-rule:evenodd" /><rect
     x="35.695683"
     y="37.280998"
     width="12.419094"
     height="0.85399997"
     id="rect35"
     style="fill:#6b6c6c;fill-rule:evenodd" /><rect
     x="15.727219"
     y="16.474001"
     width="5.4785457"
     height="0.85399997"
     id="rect37"
     style="fill:#6b6c6c;fill-rule:evenodd" /><rect
     x="12.256945"
     y="19.742001"
     width="12.418261"
     height="0.85399997"
     id="rect39"
     style="fill:#6b6c6c;fill-rule:evenodd" /><rect
     x="12.256945"
     y="21.614"
     width="12.418261"
     height="0.85399997"
     id="rect41"
     style="fill:#6b6c6c;fill-rule:evenodd" /><rect
     x="12.256945"
     y="23.525999"
     width="9.058074"
     height="0.85399997"
     id="rect43"
     style="fill:#6b6c6c;fill-rule:evenodd" /><rect
     x="12.256945"
     y="25.673"
     width="12.418261"
     height="0.85399997"
     id="rect45"
     style="fill:#6b6c6c;fill-rule:evenodd" /><rect
     x="12.256945"
     y="27.542999"
     width="12.418261"
     height="0.85500002"
     id="rect47"
     style="fill:#6b6c6c;fill-rule:evenodd" /><rect
     x="12.256945"
     y="29.479"
     width="12.418261"
     height="0.85399997"
     id="rect49"
     style="fill:#6b6c6c;fill-rule:evenodd" /><rect
     x="12.256945"
     y="31.351"
     width="12.418261"
     height="0.85399997"
     id="rect51"
     style="fill:#6b6c6c;fill-rule:evenodd" /><rect
     x="12.256945"
     y="33.263"
     width="9.058074"
     height="0.85399997"
     id="rect53"
     style="fill:#6b6c6c;fill-rule:evenodd" /><rect
     x="12.256945"
     y="35.408001"
     width="12.418261"
     height="0.85500002"
     id="rect55"
     style="fill:#6b6c6c;fill-rule:evenodd" /><rect
     x="12.256945"
     y="37.280998"
     width="12.418261"
     height="0.85399997"
     id="rect57"
     style="fill:#6b6c6c;fill-rule:evenodd" /></svg>