<?xml version="1.0" encoding="utf-8"?>
<!-- Generator: Adobe Illustrator 16.2.0, SVG Export Plug-In . SVG Version: 6.00 Build 0)  -->
<svg version="1.2" baseProfile="tiny" id="Слой_1"
	 xmlns="http://www.w3.org/2000/svg" xmlns:xlink="http://www.w3.org/1999/xlink" x="0px" y="0px" width="90px" height="90px"
	 viewBox="0 0 90 90" xml:space="preserve">
<path fill-rule="evenodd" fill="#E7F2F8" d="M44.992,89.791c24.693,0,44.833-20.14,44.833-44.833S69.686,0.125,44.992,0.125
	S0.159,20.265,0.159,44.958S20.299,89.791,44.992,89.791z"/>
<path fill-rule="evenodd" fill="#D7E4EB" d="M44.992,0.125c24.761,0,44.833,20.072,44.833,44.833S69.753,89.791,44.992,89.791
	c-0.063,0-0.125-0.002-0.188-0.003V0.127C44.867,0.127,44.929,0.125,44.992,0.125z"/>
<g>
	<path fill-rule="evenodd" fill="#EFC849" d="M23.043,23.533h43.896c3.336,0,6.062,2.728,6.062,6.062V60.32
		c0,3.336-2.726,6.062-6.062,6.062H23.043c-3.333,0-6.061-2.726-6.061-6.062V29.595C16.982,26.261,19.71,23.533,23.043,23.533z"/>
	<path fill-rule="evenodd" fill="#D6AF2C" d="M45.053,23.533h21.887c3.335,0,6.062,2.728,6.062,6.062V60.32
		c0,3.336-2.727,6.062-6.062,6.062H45.053V23.533z"/>
	<path fill-rule="evenodd" fill="#27AE61" d="M24.553,27.557h40.895c1.874,0,3.408,1.533,3.408,3.407v27.99
		c0,1.874-1.534,3.407-3.408,3.407H24.553c-1.874,0-3.407-1.533-3.407-3.407v-27.99C21.146,29.089,22.679,27.557,24.553,27.557z"/>
	<path fill-rule="evenodd" fill="#1E944E" d="M24.553,27.557h40.895c1.607,0,2.963,1.125,3.316,2.629H21.236
		C21.59,28.682,22.946,27.557,24.553,27.557z"/>
	<path fill-rule="evenodd" fill="#1E944E" d="M45.053,27.557h20.395c1.874,0,3.407,1.533,3.407,3.408v27.989
		c0,1.874-1.533,3.407-3.407,3.407H45.053V27.557z"/>
	<path fill-rule="evenodd" fill="#F5D774" d="M24.553,62.497h40.895c1.607,0,2.963-1.127,3.316-2.63H21.236
		C21.59,61.37,22.946,62.497,24.553,62.497z"/>
	<polygon fill-rule="evenodd" fill="#FFFFFF" points="60.615,55.584 60.621,60.902 40.552,60.924 40.552,60.918 40.546,60.924 
		37.878,58.261 40.542,55.592 40.553,55.604 	"/>
	<polygon fill-rule="evenodd" fill="#CDCCCC" points="60.617,58.242 60.621,60.902 40.552,60.924 40.552,60.918 40.546,60.924 
		37.884,58.266 	"/>
	<path fill-rule="evenodd" fill="#FFFFFF" d="M36.934,47.613h-2.042l-0.808-2.132h-3.755l-0.778,2.132h-2.005l3.636-9.363h2.002
		L36.934,47.613L36.934,47.613z M33.469,43.899l-1.301-3.465l-1.264,3.465H33.469L33.469,43.899z M41.616,38.25h6.996v1.583h-5.1
		v2.171h2.527c0.694,0,1.274,0.084,1.731,0.255c0.46,0.169,0.853,0.483,1.177,0.943c0.325,0.458,0.489,0.996,0.489,1.613
		c0,0.632-0.164,1.174-0.493,1.625c-0.327,0.449-0.698,0.758-1.12,0.925c-0.418,0.165-1.016,0.248-1.789,0.248h-4.417V38.25
		L41.616,38.25z M43.511,46.03h1.837c0.586,0,1-0.027,1.238-0.084c0.237-0.058,0.446-0.185,0.624-0.389
		c0.176-0.199,0.264-0.448,0.264-0.742c0-0.429-0.156-0.741-0.464-0.937c-0.309-0.194-0.834-0.293-1.579-0.293h-1.921V46.03
		L43.511,46.03z M54.609,38.25h3.744c0.742,0,1.294,0.031,1.659,0.092c0.365,0.063,0.689,0.191,0.978,0.386
		c0.288,0.196,0.527,0.455,0.719,0.78c0.192,0.325,0.288,0.69,0.288,1.093c0,0.436-0.118,0.839-0.354,1.203
		c-0.235,0.366-0.555,0.639-0.959,0.822c0.569,0.167,1.005,0.451,1.313,0.852c0.305,0.401,0.458,0.873,0.458,1.414
		c0,0.427-0.098,0.842-0.296,1.245c-0.199,0.403-0.47,0.726-0.813,0.969c-0.343,0.239-0.765,0.387-1.27,0.443
		c-0.313,0.032-1.073,0.056-2.278,0.063h-3.188V38.25L54.609,38.25z M56.505,39.807v2.158h1.238c0.734,0,1.192-0.011,1.37-0.033
		c0.323-0.038,0.578-0.148,0.763-0.333c0.187-0.186,0.277-0.427,0.277-0.729c0-0.289-0.081-0.522-0.239-0.704
		c-0.159-0.181-0.396-0.289-0.711-0.326c-0.187-0.023-0.726-0.033-1.613-0.033H56.505L56.505,39.807z M56.505,43.52v2.51h1.752
		c0.681,0,1.114-0.019,1.297-0.056c0.281-0.052,0.511-0.177,0.688-0.375c0.176-0.2,0.265-0.464,0.265-0.798
		c0-0.283-0.067-0.52-0.204-0.716c-0.136-0.196-0.333-0.34-0.591-0.429c-0.257-0.089-0.817-0.136-1.679-0.136H56.505z"/>
	<path fill-rule="evenodd" fill="#CDCCCC" d="M45.151,38.25v1.583h3.46V38.25H45.151L45.151,38.25z M45.151,42.004v1.582h0.281
		c0.745,0,1.27,0.099,1.579,0.293c0.308,0.196,0.464,0.508,0.464,0.937c0,0.294-0.088,0.543-0.264,0.742
		c-0.178,0.204-0.387,0.331-0.624,0.389c-0.238,0.057-0.652,0.084-1.238,0.084h-0.198v1.583h0.882c0.773,0,1.371-0.083,1.789-0.248
		c0.422-0.167,0.793-0.476,1.12-0.925c0.329-0.451,0.493-0.993,0.493-1.625c0-0.617-0.164-1.156-0.489-1.613
		c-0.324-0.46-0.717-0.774-1.177-0.943c-0.457-0.17-1.037-0.255-1.731-0.255H45.151L45.151,42.004z M54.609,38.25h3.744
		c0.742,0,1.294,0.031,1.659,0.092c0.365,0.063,0.689,0.191,0.978,0.386c0.288,0.196,0.527,0.455,0.719,0.78
		c0.192,0.325,0.288,0.69,0.288,1.093c0,0.436-0.118,0.839-0.354,1.203c-0.235,0.366-0.555,0.639-0.959,0.822
		c0.569,0.167,1.005,0.451,1.313,0.852c0.305,0.401,0.458,0.873,0.458,1.414c0,0.427-0.098,0.842-0.296,1.245
		c-0.199,0.403-0.47,0.726-0.813,0.969c-0.343,0.239-0.765,0.387-1.27,0.443c-0.313,0.032-1.073,0.056-2.278,0.063h-3.188V38.25
		L54.609,38.25z M56.505,39.807v2.158h1.238c0.734,0,1.192-0.011,1.37-0.033c0.323-0.038,0.578-0.148,0.763-0.333
		c0.187-0.186,0.277-0.427,0.277-0.729c0-0.289-0.081-0.522-0.239-0.704c-0.159-0.181-0.396-0.289-0.711-0.326
		c-0.187-0.023-0.726-0.033-1.613-0.033H56.505L56.505,39.807z M56.505,43.52v2.51h1.752c0.681,0,1.114-0.019,1.297-0.056
		c0.281-0.052,0.511-0.177,0.688-0.375c0.176-0.2,0.265-0.464,0.265-0.798c0-0.283-0.067-0.52-0.204-0.716
		c-0.136-0.196-0.333-0.34-0.591-0.429c-0.257-0.089-0.817-0.136-1.679-0.136H56.505z"/>
</g>
</svg>
