<?xml version="1.0" encoding="utf-8"?>
<!-- Generator: Adobe Illustrator 16.2.0, SVG Export Plug-In . SVG Version: 6.00 Build 0)  -->
<svg version="1.2" baseProfile="tiny" id="Слой_1"
	 xmlns="http://www.w3.org/2000/svg" xmlns:xlink="http://www.w3.org/1999/xlink" x="0px" y="0px" width="90px" height="90px"
	 viewBox="0 0 90 90" xml:space="preserve">
<path fill-rule="evenodd" fill="#E7F2F8" d="M45,89.52c24.608,0,44.677-20.069,44.677-44.676C89.678,20.235,69.608,0.165,45,0.165
	c-24.607,0-44.677,20.07-44.677,44.678C0.323,69.45,20.393,89.52,45,89.52z"/>
<path fill-rule="evenodd" fill="#D7E4EB" d="M45,0.165c24.674,0,44.677,20.003,44.677,44.678C89.678,69.517,69.675,89.52,45,89.52
	c-0.063,0-0.124-0.002-0.187-0.002V0.167C44.876,0.167,44.938,0.165,45,0.165z"/>
<g>
	<g>
		<path fill-rule="evenodd" fill="#DF9D51" d="M50.748,69.058c-3.161-1.752-7.1-4.358-11.223-4.358
			c-5.647,0-10.761-2.36-14.46-6.177c-3.696-3.811-5.982-9.072-5.982-14.88c0-4.751,1.531-9.138,4.111-12.663l1.177,1.106
			c-2.314,3.23-3.682,7.228-3.682,11.557c0,5.379,2.111,10.243,5.523,13.763c3.407,3.515,8.114,5.687,13.313,5.687
			c3.757,0,8.363,2.479,11.301,4.339L50.748,69.058z"/>
		<g>
			<path fill-rule="evenodd" fill="#DF9D51" d="M24.685,28.259c1.364,3.312,0.334,7.25-3.601,8.499
				C19.332,33.282,20.993,29.794,24.685,28.259z"/>
			<path fill-rule="evenodd" fill="#E8B16F" d="M24.691,28.273c1.354,3.305,0.324,7.229-3.596,8.48L24.691,28.273z"/>
		</g>
		<g>
			<path fill-rule="evenodd" fill="#DF9D51" d="M24.942,39.888c1.239,3.36,0.063,7.256-3.917,8.358
				C19.405,44.707,21.195,41.284,24.942,39.888z"/>
			<path fill-rule="evenodd" fill="#E8B16F" d="M24.947,39.902c1.229,3.353,0.055,7.236-3.908,8.341L24.947,39.902z"/>
		</g>
		<g>
			<path fill-rule="evenodd" fill="#DF9D51" d="M14.095,35.203c3.517,0.676,6.245,3.698,5.129,7.674
				C15.357,42.434,13.353,39.132,14.095,35.203z"/>
			<path fill-rule="evenodd" fill="#E8B16F" d="M14.109,35.206c3.506,0.681,6.222,3.694,5.118,7.657L14.109,35.206z"/>
		</g>
		<g>
			<path fill-rule="evenodd" fill="#DF9D51" d="M26.082,47.36c2.329,2.721,2.578,6.783-0.771,9.197
				C22.562,53.802,23.052,49.97,26.082,47.36z"/>
			<path fill-rule="evenodd" fill="#E8B16F" d="M26.091,47.372c2.317,2.717,2.563,6.766-0.771,9.178L26.091,47.372z"/>
		</g>
		<g>
			<path fill-rule="evenodd" fill="#DF9D51" d="M13.524,45.626c3.559-0.405,7.063,1.665,7.187,5.792
				C16.887,52.15,13.988,49.598,13.524,45.626z"/>
			<path fill-rule="evenodd" fill="#E8B16F" d="M13.539,45.625c3.549-0.397,7.041,1.667,7.171,5.78L13.539,45.625z"/>
		</g>
		<g>
			<path fill-rule="evenodd" fill="#DF9D51" d="M15.712,54.844c3.214-1.581,7.212-0.813,8.718,3.032
				C21.076,59.853,17.487,58.426,15.712,54.844z"/>
			<path fill-rule="evenodd" fill="#E8B16F" d="M15.726,54.837c3.208-1.57,7.191-0.803,8.699,3.026L15.726,54.837z"/>
		</g>
		<g>
			<path fill-rule="evenodd" fill="#DF9D51" d="M30.596,53.704c3.23,1.547,5.101,5.161,3.014,8.725
				C29.981,61.018,28.881,57.315,30.596,53.704z"/>
			<path fill-rule="evenodd" fill="#E8B16F" d="M30.609,53.711c3.218,1.549,5.08,5.152,3.007,8.704L30.609,53.711z"/>
		</g>
		<g>
			<path fill-rule="evenodd" fill="#DF9D51" d="M20.501,63.116c2.191-2.832,6.119-3.902,9.163-1.111
				C27.523,65.255,23.671,65.553,20.501,63.116z"/>
			<path fill-rule="evenodd" fill="#E8B16F" d="M20.511,63.105c2.19-2.821,6.105-3.885,9.143-1.11L20.511,63.105z"/>
		</g>
		<path fill-rule="evenodd" fill="#DF9D51" d="M36.42,56.047c3.538,0.556,6.368,3.482,5.391,7.493
			C37.931,63.23,35.813,60,36.42,56.047z"/>
		<path fill-rule="evenodd" fill="#E8B16F" d="M36.435,56.05c3.528,0.561,6.345,3.478,5.379,7.477L36.435,56.05z"/>
		<g>
			<path fill-rule="evenodd" fill="#DF9D51" d="M29.508,68.654c1.093-3.411,4.422-5.757,8.234-4.172
				C36.838,68.269,33.319,69.862,29.508,68.654z"/>
			<path fill-rule="evenodd" fill="#E8B16F" d="M29.513,68.641c1.098-3.4,4.415-5.735,8.216-4.163L29.513,68.641z"/>
		</g>
	</g>
	<g>
		<path fill-rule="evenodd" fill="#EFC849" d="M36.521,55.889c3.54,0.555,6.369,3.48,5.391,7.492
			C38.033,63.072,35.916,59.841,36.521,55.889z"/>
		<path fill-rule="evenodd" fill="#DFB836" d="M36.537,55.892c3.527,0.56,6.346,3.477,5.378,7.477L36.537,55.892z"/>
	</g>
	<path fill-rule="evenodd" fill="#DF9D51" d="M39.251,68.898c3.162-1.751,7.101-4.359,11.223-4.359
		c5.649,0,10.762-2.359,14.462-6.176c3.694-3.813,5.98-9.072,5.98-14.879c0-4.752-1.53-9.138-4.111-12.664l-1.177,1.106
		c2.314,3.23,3.683,7.227,3.683,11.557c0,5.377-2.111,10.244-5.523,13.762c-3.407,3.513-8.114,5.688-13.313,5.688
		c-3.757,0-8.361,2.479-11.301,4.338L39.251,68.898z"/>
	<g>
		<path fill-rule="evenodd" fill="#DF9D51" d="M65.315,28.1c-1.364,3.312-0.335,7.25,3.602,8.499
			C70.669,33.122,69.008,29.635,65.315,28.1z"/>
		<path fill-rule="evenodd" fill="#E8B16F" d="M65.311,28.114c-1.354,3.305-0.326,7.229,3.593,8.48L65.311,28.114z"/>
	</g>
	<g>
		<path fill-rule="evenodd" fill="#DF9D51" d="M65.058,39.729c-1.239,3.36-0.063,7.258,3.917,8.359
			C70.595,44.548,68.806,41.125,65.058,39.729z"/>
		<path fill-rule="evenodd" fill="#E8B16F" d="M65.053,39.743c-1.229,3.353-0.055,7.235,3.909,8.341L65.053,39.743z"/>
	</g>
	<g>
		<path fill-rule="evenodd" fill="#DF9D51" d="M75.905,35.044c-3.517,0.676-6.244,3.698-5.129,7.674
			C74.645,42.274,76.647,38.973,75.905,35.044z"/>
		<path fill-rule="evenodd" fill="#E8B16F" d="M75.891,35.046c-3.506,0.681-6.222,3.695-5.118,7.657L75.891,35.046z"/>
	</g>
	<g>
		<path fill-rule="evenodd" fill="#DF9D51" d="M63.919,47.201c-2.329,2.721-2.579,6.784,0.771,9.198
			C67.438,53.643,66.948,49.811,63.919,47.201z"/>
		<path fill-rule="evenodd" fill="#E8B16F" d="M63.909,47.214c-2.317,2.717-2.563,6.766,0.771,9.178L63.909,47.214z"/>
	</g>
	<g>
		<path fill-rule="evenodd" fill="#DF9D51" d="M76.477,45.467c-3.559-0.404-7.064,1.666-7.188,5.792
			C73.112,51.991,76.012,49.438,76.477,45.467z"/>
		<path fill-rule="evenodd" fill="#E8B16F" d="M76.461,45.466c-3.549-0.398-7.041,1.667-7.171,5.779L76.461,45.466z"/>
	</g>
	<g>
		<path fill-rule="evenodd" fill="#DF9D51" d="M74.289,54.684c-3.216-1.58-7.213-0.812-8.719,3.032
			C68.923,59.693,72.513,58.267,74.289,54.684z"/>
		<path fill-rule="evenodd" fill="#E8B16F" d="M74.274,54.677c-3.209-1.569-7.191-0.802-8.699,3.026L74.274,54.677z"/>
	</g>
	<g>
		<path fill-rule="evenodd" fill="#DF9D51" d="M59.404,53.545c-3.23,1.547-5.102,5.162-3.014,8.724
			C60.019,60.858,61.12,57.156,59.404,53.545z"/>
		<path fill-rule="evenodd" fill="#E8B16F" d="M59.391,53.551c-3.218,1.549-5.081,5.152-3.007,8.706L59.391,53.551z"/>
	</g>
	<g>
		<path fill-rule="evenodd" fill="#DF9D51" d="M69.499,62.958c-2.191-2.834-6.119-3.902-9.163-1.113
			C62.478,65.097,66.328,65.394,69.499,62.958z"/>
		<path fill-rule="evenodd" fill="#E8B16F" d="M69.489,62.945c-2.19-2.82-6.104-3.884-9.144-1.109L69.489,62.945z"/>
	</g>
	<path fill-rule="evenodd" fill="#DF9D51" d="M53.581,55.889c-3.539,0.555-6.37,3.48-5.392,7.492
		C52.069,63.072,54.187,59.841,53.581,55.889z"/>
	<path fill-rule="evenodd" fill="#E8B16F" d="M53.564,55.892c-3.526,0.56-6.345,3.477-5.378,7.477L53.564,55.892z"/>
	<g>
		<path fill-rule="evenodd" fill="#DF9D51" d="M60.492,68.494c-1.094-3.41-4.421-5.756-8.234-4.172
			C53.162,68.109,56.681,69.703,60.492,68.494z"/>
		<path fill-rule="evenodd" fill="#E8B16F" d="M60.487,68.48c-1.097-3.399-4.415-5.734-8.217-4.163L60.487,68.48z"/>
	</g>
	<path fill-rule="evenodd" fill="#E8B16F" d="M47.933,40.298c3.894-0.421,7.379-2.093,9.994-4.309
		c3.074-2.604,4.973-5.993,4.973-9.049c0-0.875-0.177-1.656-0.509-2.342c-0.526-1.089-1.422-1.896-2.605-2.424
		c-1.098-0.49-2.437-0.735-3.94-0.735c-2.297,0-5.032,0.568-7.912,1.696v2.224c2.906-1.234,5.66-1.855,7.912-1.855
		c1.227,0,2.281,0.183,3.102,0.549c0.737,0.329,1.284,0.81,1.59,1.44c0.194,0.402,0.299,0.885,0.299,1.447
		c0,2.456-1.618,5.257-4.239,7.477c-2.278,1.929-5.294,3.395-8.663,3.807V40.298z"/>
	<path fill-rule="evenodd" fill="#DF9D51" d="M41.911,40.298c-3.893-0.421-7.378-2.093-9.994-4.309
		c-3.074-2.604-4.972-5.993-4.972-9.049c0-0.875,0.177-1.656,0.508-2.342c0.527-1.089,1.423-1.896,2.606-2.424
		c1.098-0.49,2.436-0.735,3.941-0.735c2.296,0,5.033,0.568,7.911,1.696v2.224c-2.906-1.234-5.66-1.855-7.911-1.855
		c-1.228,0-2.282,0.183-3.103,0.549c-0.736,0.329-1.283,0.81-1.589,1.44c-0.194,0.402-0.298,0.885-0.298,1.447
		c0,2.456,1.618,5.257,4.238,7.477c2.278,1.929,5.294,3.395,8.663,3.807V40.298z"/>
	<path fill-rule="evenodd" fill="#E74D3D" d="M33.357,57.821h23.07c0.924,0,1.68,0.756,1.68,1.68v10.766
		c0,0.925-0.756,1.681-1.68,1.681h-23.07c-0.924,0-1.679-0.756-1.679-1.681V59.501C31.678,58.577,32.433,57.821,33.357,57.821z"/>
	<path fill-rule="evenodd" fill="#D43E2E" d="M44.839,57.821h11.589c0.924,0,1.68,0.756,1.68,1.68v10.766
		c0,0.925-0.756,1.681-1.68,1.681H44.839V57.821z"/>
	<path fill-rule="evenodd" fill="#EF695C" d="M33.357,57.821h23.07c0.924,0,1.68,0.756,1.68,1.68v1.37h-26.43v-1.37
		C31.678,58.577,32.433,57.821,33.357,57.821z"/>
	<path fill-rule="evenodd" fill="#E74D3D" d="M44.852,57.833l11.576-0.012c0.924-0.001,1.68,0.756,1.68,1.68v1.37l-13.256,0.012
		V57.833z"/>
	<path fill-rule="evenodd" fill="#E8B16F" d="M44.921,17.821c-3.798-0.027-8.542-0.055-12.255-0.083
		c-0.395,6.827,1.033,23.354,10.265,26.578c-0.014,4.665-2.129,10.032-6.395,11.397c0,0.701,0,1.404,0,2.106h8.385V17.821z"/>
	<path fill-rule="evenodd" fill="#DF9D51" d="M44.821,17.821c3.799-0.027,8.541-0.055,12.256-0.083
		c0.394,6.827-1.033,23.354-10.266,26.578c0.014,4.665,2.13,10.032,6.396,11.397c0,0.701,0,1.404,0,2.106h-8.386V17.821z"/>
	<rect x="35.933" y="55.67" fill-rule="evenodd" fill="#F5C389" width="17.891" height="2.15"/>
	<rect x="44.835" y="55.669" fill-rule="evenodd" fill="#E8B16F" width="8.989" height="2.15"/>
	<polygon fill-rule="evenodd" fill="#FFFFFF" points="44.761,23.283 46.896,26.927 51.021,27.832 48.217,30.989 48.631,35.191 
		44.761,33.499 40.891,35.191 41.306,30.989 38.5,27.832 42.626,26.927 	"/>
	<polygon fill-rule="evenodd" fill="#E6E6E5" points="44.829,23.4 46.896,26.927 51.021,27.832 48.217,30.989 48.631,35.191 
		44.829,33.529 	"/>
</g>
</svg>
