<?xml version="1.0" encoding="utf-8"?>
<!-- Generator: Adobe Illustrator 16.2.0, SVG Export Plug-In . SVG Version: 6.00 Build 0)  -->
<svg version="1.2" baseProfile="tiny" id="Слой_1"
	 xmlns="http://www.w3.org/2000/svg" xmlns:xlink="http://www.w3.org/1999/xlink" x="0px" y="0px" width="90px" height="90px"
	 viewBox="0 0 90 90" xml:space="preserve">
<path fill-rule="evenodd" fill="#E7F2F8" d="M45,89.644c24.613,0,44.688-20.074,44.688-44.688S69.613,0.268,45,0.268
	S0.313,20.343,0.313,44.956S20.387,89.644,45,89.644z"/>
<path fill-rule="evenodd" fill="#D7E4EB" d="M45,0.268c24.681,0,44.688,20.007,44.688,44.688c0,24.68-20.007,44.688-44.688,44.688
	c-0.063,0-0.125-0.002-0.187-0.002V0.271C44.875,0.27,44.937,0.268,45,0.268z"/>
<g>
	<path fill-rule="evenodd" fill="#EFC849" d="M28.666,22.47h32.503c1.152,0,2.096,0.942,2.096,2.095V67.69
		c0,1.152-0.943,2.095-2.096,2.095H28.666c-1.153,0-2.096-0.942-2.096-2.095V24.565C26.57,23.412,27.513,22.47,28.666,22.47z"/>
	<path fill-rule="evenodd" fill="#DFB836" d="M44.942,22.47h16.227c1.151,0,2.096,0.943,2.096,2.095V67.69
		c0,1.152-0.944,2.095-2.096,2.095H44.942V22.47z"/>
	<rect x="35.541" y="36.944" fill-rule="evenodd" fill="#FFFFFF" width="18.753" height="13.163"/>
	<rect x="44.968" y="36.944" fill-rule="evenodd" fill="#DEDEDD" width="9.213" height="13.163"/>
	<polygon fill-rule="evenodd" fill="#C8922B" points="63.246,64.917 60.71,55.454 60.449,55.428 58.525,56.058 58.023,55.809 
		55.181,66.42 53.618,63.714 50.913,65.276 53.887,54.178 53.351,53.592 51.502,52.787 50.791,50.932 49.366,49.524 49.389,47.539 
		48.58,45.721 49.333,43.874 49.25,41.891 50.631,40.431 51.285,38.55 53.108,37.676 54.411,36.15 56.431,35.979 58.205,35.015 
		60.147,35.571 62.156,35.298 63.758,36.506 65.448,36.897 63.246,36.897 	"/>
	<polygon fill-rule="evenodd" fill="#BEC3C7" points="50.003,50.152 49.366,49.524 49.389,47.539 48.58,45.721 49.333,43.874 
		49.25,41.891 50.631,40.431 51.285,38.55 53.108,37.676 53.732,36.945 57.906,36.945 57.906,50.152 	"/>
	<polygon fill-rule="evenodd" fill="#354859" points="60.965,50.179 65.232,49.035 69.402,64.601 66.698,63.039 65.137,65.744 	"/>
	<path fill-rule="evenodd" fill="#E74D3D" d="M28.666,22.47h32.503c1.151,0,2.096,0.943,2.096,2.095v4.216H26.57v-4.216
		C26.57,23.413,27.513,22.47,28.666,22.47z"/>
	<path fill-rule="evenodd" fill="#D43E2E" d="M44.942,22.47h16.227c1.151,0,2.096,0.943,2.096,2.095v4.216H44.942V22.47z"/>
	<path fill-rule="evenodd" fill="#DEDEDD" d="M44.477,20.125h1.112c0.415,0,0.754,0.339,0.754,0.754v4.983
		c0,0.415-0.34,0.754-0.754,0.754h-1.112c-0.416,0-0.754-0.34-0.754-0.754V20.88C43.723,20.465,44.062,20.125,44.477,20.125z"/>
	<path fill-rule="evenodd" fill="#BEC3C7" d="M44.993,20.125h0.596c0.415,0,0.754,0.388,0.754,0.862v4.767
		c0,0.474-0.34,0.862-0.754,0.862h-0.596V20.125z"/>
	<path fill-rule="evenodd" fill="#BEC3C7" d="M58.313,20.125h1.112c0.415,0,0.754,0.339,0.754,0.754v4.983
		c0,0.415-0.339,0.754-0.754,0.754h-1.112c-0.415,0-0.755-0.34-0.755-0.754V20.88C57.559,20.465,57.898,20.125,58.313,20.125z"/>
	<path fill-rule="evenodd" fill="#BEC3C7" d="M53.635,20.125h1.112c0.414,0,0.754,0.339,0.754,0.754v4.983
		c0,0.415-0.34,0.754-0.754,0.754h-1.112c-0.416,0-0.754-0.34-0.754-0.754V20.88C52.881,20.465,53.219,20.125,53.635,20.125z"/>
	<path fill-rule="evenodd" fill="#BEC3C7" d="M49.146,20.125h1.113c0.414,0,0.754,0.339,0.754,0.754v4.983
		c0,0.415-0.34,0.754-0.754,0.754h-1.113c-0.414,0-0.754-0.34-0.754-0.754V20.88C48.392,20.465,48.731,20.125,49.146,20.125z"/>
	<path fill-rule="evenodd" fill="#DEDEDD" d="M40.057,20.125h1.113c0.415,0,0.753,0.339,0.753,0.754v4.983
		c0,0.415-0.338,0.754-0.753,0.754h-1.113c-0.416,0-0.754-0.34-0.754-0.754V20.88C39.302,20.465,39.641,20.125,40.057,20.125z"/>
	<path fill-rule="evenodd" fill="#DEDEDD" d="M35.377,20.125h1.112c0.416,0,0.754,0.339,0.754,0.754v4.983
		c0,0.415-0.338,0.754-0.754,0.754h-1.112c-0.416,0-0.754-0.34-0.754-0.754V20.88C34.623,20.465,34.962,20.125,35.377,20.125z"/>
	<path fill-rule="evenodd" fill="#DEDEDD" d="M30.889,20.125h1.113c0.415,0,0.754,0.339,0.754,0.754v4.983
		c0,0.415-0.339,0.754-0.754,0.754h-1.113c-0.415,0-0.754-0.34-0.754-0.754V20.88C30.134,20.465,30.474,20.125,30.889,20.125z"/>
	<polygon fill-rule="evenodd" fill="#495A6C" points="60.838,50.179 56.57,49.035 52.4,64.601 55.105,63.039 56.668,65.744 	"/>
	<polygon fill-rule="evenodd" fill="#E74D3D" points="59.692,34.338 61.636,34.895 63.643,34.623 65.246,35.83 67.216,36.286 
		68.263,37.981 69.928,39.104 70.278,41.06 71.414,42.699 71.02,44.649 71.473,46.581 70.388,48.264 70.098,50.229 68.467,51.416 
		67.472,53.149 65.517,53.681 63.952,54.948 61.937,54.752 60.012,55.381 58.209,54.483 56.186,54.391 54.838,52.914 52.988,52.111 
		52.278,50.254 50.853,48.849 50.876,46.862 50.067,45.045 50.82,43.198 50.738,41.215 52.118,39.756 52.772,37.874 54.597,37 
		55.898,35.474 57.918,35.303 	"/>
	<polygon fill-rule="evenodd" fill="#D43E2E" points="60.812,34.659 61.636,34.895 63.643,34.623 65.246,35.83 67.217,36.286 
		68.263,37.981 69.928,39.104 70.278,41.06 71.414,42.699 71.02,44.649 71.473,46.581 70.388,48.264 70.098,50.229 68.467,51.416 
		67.472,53.149 65.517,53.681 63.952,54.948 61.937,54.752 60.812,55.121 	"/>
	<path fill-rule="evenodd" fill="#DEDEDD" d="M60.771,36.986c2.175,0,4.143,0.882,5.567,2.306c1.425,1.426,2.307,3.394,2.307,5.568
		c0,2.173-0.882,4.142-2.307,5.567c-1.425,1.426-3.393,2.308-5.567,2.308c-2.174,0-4.143-0.882-5.567-2.308
		c-1.426-1.425-2.307-3.394-2.307-5.567c0-2.175,0.881-4.142,2.307-5.568C56.628,37.868,58.597,36.986,60.771,36.986L60.771,36.986z
		 M65.658,39.972c-1.251-1.251-2.979-2.024-4.888-2.024c-1.908,0-3.637,0.773-4.889,2.024c-1.25,1.25-2.023,2.978-2.023,4.888
		c0,1.908,0.773,3.636,2.023,4.888c1.252,1.249,2.98,2.024,4.889,2.024c1.909,0,3.637-0.775,4.888-2.024
		c1.251-1.252,2.024-2.98,2.024-4.888C67.683,42.95,66.909,41.222,65.658,39.972z"/>
	<path fill-rule="evenodd" fill="#BEC3C7" d="M60.812,36.986c2.158,0.012,4.11,0.891,5.526,2.306
		c1.425,1.426,2.307,3.394,2.307,5.568c0,2.173-0.882,4.142-2.307,5.567c-1.416,1.417-3.368,2.296-5.526,2.308v-0.962
		c1.893-0.012,3.604-0.783,4.847-2.024c1.251-1.252,2.024-2.98,2.024-4.888c0-1.91-0.773-3.638-2.024-4.888
		c-1.242-1.241-2.954-2.013-4.847-2.024V36.986z"/>
	<polygon fill-rule="evenodd" fill="#EFC849" points="60.771,40.009 62.316,42.646 65.303,43.301 63.271,45.586 63.57,48.629 
		60.771,47.403 57.97,48.629 58.27,45.586 56.239,43.301 59.225,42.646 	"/>
	<polygon fill-rule="evenodd" fill="#D6AF2C" points="60.82,40.093 62.316,42.646 65.303,43.301 63.271,45.586 63.571,48.629 
		60.82,47.426 	"/>
</g>
</svg>
