<?xml version="1.0" encoding="utf-8"?>
<!-- Generator: Adobe Illustrator 16.2.0, SVG Export Plug-In . SVG Version: 6.00 Build 0)  -->
<svg version="1.2" baseProfile="tiny" id="Слой_1"
	 xmlns="http://www.w3.org/2000/svg" xmlns:xlink="http://www.w3.org/1999/xlink" x="0px" y="0px" width="90px" height="90px"
	 viewBox="0 0 90 90" xml:space="preserve">
<path fill-rule="evenodd" fill="#E7F2F8" d="M44.873,89.465c24.51,0,44.5-19.99,44.5-44.5c0-24.509-19.99-44.499-44.5-44.499
	c-24.509,0-44.5,19.99-44.5,44.499C0.374,69.475,20.364,89.465,44.873,89.465z"/>
<path fill-rule="evenodd" fill="#D7E4EB" d="M44.873,0.466c24.577,0,44.5,19.923,44.5,44.499c0,24.578-19.923,44.5-44.5,44.5
	c-0.063,0-0.124-0.002-0.186-0.002V0.468C44.75,0.468,44.811,0.466,44.873,0.466z"/>
<g>
	<path fill-rule="evenodd" fill="#495A6C" d="M28.651,17.961c0,0-4.023,2.282-4.457,3.37c-0.435,1.086,0,2.174-1.414,3.479
		c-1.413,1.305-4.398,4.197-5.138,4.917c-0.74,0.721,1.095,3.015,2.031,3.993c0.495,0.517,4.6-1.239,6.812-1.375
		c1.622-0.1,4.342,0.108,5.395-0.228c1.006-0.32,3.024-1.304,3.024-1.304c1.683,9.159-15.601,13.181-11.748,25.416
		c6.523-0.073,12.87,0.031,19.392-0.042c9.355-14,6.187-33.611-8.787-40.182c-1.659-1.333-3.931-2.535-6.206-3.604
		C27.995,14.56,28.389,16.195,28.651,17.961z"/>
	<path fill-rule="evenodd" fill="#354859" d="M32.641,56.206c3.288,0.007,6.576,0.018,9.908-0.021
		c9.355-14,6.187-33.611-8.787-40.182c-0.408-0.327-0.853-0.647-1.326-0.958L32.42,15.05C46.497,31.747,43.432,43.493,32.641,56.206
		z"/>
	<path fill-rule="evenodd" fill="#495A6C" d="M21.072,55.977h23.156c0.927,0,1.687,0.76,1.687,1.687V68.47
		c0,0.927-0.76,1.685-1.687,1.685H21.072c-0.928,0-1.686-0.758-1.686-1.685V57.663C19.386,56.736,20.144,55.977,21.072,55.977z"/>
	<path fill-rule="evenodd" fill="#354859" d="M32.596,55.977h11.632c0.927,0,1.685,0.76,1.685,1.687V68.47
		c0,0.927-0.758,1.685-1.685,1.685H32.596V55.977z"/>
	<path fill-rule="evenodd" fill="#586D80" d="M21.072,55.977h23.156c0.927,0,1.685,0.76,1.685,1.687v1.375H19.386v-1.375
		C19.386,56.736,20.144,55.977,21.072,55.977z"/>
	<path fill-rule="evenodd" fill="#495A6C" d="M32.608,55.989l11.62-0.013c0.927,0,1.685,0.76,1.685,1.687v1.375L32.608,59.05V55.989
		z"/>
	<path fill-rule="evenodd" fill="#C6C6C5" d="M37.643,59.871h34.463c-1.22,0.646-2.08,2.211-2.08,4.038
		c0,1.698,0.742,3.168,1.826,3.887H37.643V59.871z"/>
	<path fill-rule="evenodd" fill="#FFFFFF" d="M37.643,59.871h34.463c-1.148,0.608-1.978,2.03-2.071,3.718H37.643V59.871z"/>
	<path fill-rule="evenodd" fill="#C6C6C5" d="M42.147,47.661h24.682v7.925H41.56c1.324-0.573,2.279-2.208,2.279-4.132
		C43.839,49.827,43.157,48.408,42.147,47.661z"/>
	<path fill-rule="evenodd" fill="#FFFFFF" d="M42.147,47.663h24.682v3.789h-22.99C43.837,49.825,43.156,48.408,42.147,47.663z"/>
	<path fill-rule="evenodd" fill="#D6AF2C" d="M41,45.217h22.669c1.578,0,3.016,0.647,4.058,1.688l0.007,0.007
		c1.041,1.043,1.688,2.479,1.688,4.057v0.97c0,1.579-0.646,3.015-1.688,4.056l-0.007,0.007c-1.042,1.042-2.479,1.688-4.058,1.688H41
		v-3.425h22.669c0.642,0,1.224-0.261,1.646-0.68c0.421-0.422,0.682-1.005,0.682-1.646v-0.97c0-0.642-0.261-1.224-0.682-1.646
		c-0.423-0.419-1.005-0.682-1.646-0.682H41V45.217z"/>
	<path fill-rule="evenodd" fill="#EFC849" d="M41,45.217h22.669c1.578,0,3.016,0.647,4.058,1.688l0.007,0.007
		c1.041,1.043,1.688,2.479,1.688,4.057v0.483h-3.424v-0.483c0-0.642-0.261-1.224-0.682-1.646c-0.423-0.419-1.005-0.682-1.646-0.682
		H41V45.217z"/>
	<path fill-rule="evenodd" fill="#D43E2E" d="M40.724,57.674h31.551v3.424H40.724c-0.643,0-1.224,0.26-1.643,0.678v0.008
		c-0.422,0.422-0.685,1.003-0.685,1.641v0.97c0,0.644,0.26,1.224,0.678,1.643l0.006,0.007c0.418,0.418,1,0.679,1.643,0.679h31.551
		v3.424H40.724c-1.576,0-3.012-0.646-4.057-1.688l-0.003-0.004l-0.003-0.003c-1.042-1.045-1.688-2.482-1.688-4.058v-0.97
		c0-1.582,0.646-3.021,1.688-4.063l0.003,0.004C37.709,58.32,39.147,57.674,40.724,57.674z"/>
	<path fill-rule="evenodd" fill="#E74D3D" d="M40.724,57.674h31.551v3.424H40.724c-0.643,0-1.224,0.26-1.643,0.678v0.008
		c-0.422,0.422-0.685,1.003-0.685,1.641v0.165h-3.424v-0.165c0-1.582,0.646-3.021,1.688-4.063l0.003,0.004
		C37.709,58.32,39.147,57.674,40.724,57.674z"/>
	<polygon fill-rule="evenodd" fill="#495A6C" points="58.104,51.492 61.764,51.492 61.764,57.063 59.936,55.234 58.104,57.063 	"/>
	<path fill-rule="evenodd" fill="#C6C6C5" d="M63.927,37.631h-18.72v6.009h19.164c-1.003-0.437-1.728-1.674-1.728-3.134
		C62.644,39.273,63.161,38.198,63.927,37.631z"/>
	<path fill-rule="evenodd" fill="#FFFFFF" d="M63.927,37.631H45.208v2.874h17.435C62.646,39.272,63.161,38.197,63.927,37.631z"/>
	<path fill-rule="evenodd" fill="#2285C7" d="M64.797,35.777H47.604c-1.197,0-2.286,0.49-3.076,1.28l-0.005,0.005
		c-0.789,0.79-1.281,1.879-1.281,3.077v0.733c0,1.199,0.492,2.288,1.281,3.079l0.005,0.005c0.791,0.79,1.879,1.28,3.076,1.28h17.193
		v-2.597H47.604c-0.486,0-0.928-0.198-1.248-0.516c-0.317-0.32-0.516-0.763-0.516-1.25V40.14c0-0.487,0.199-0.928,0.516-1.248
		c0.32-0.319,0.762-0.518,1.248-0.518h17.193V35.777z"/>
	<path fill-rule="evenodd" fill="#3E98D3" d="M64.797,35.777H47.604c-1.197,0-2.286,0.49-3.076,1.28l-0.005,0.005
		c-0.789,0.79-1.279,1.879-1.279,3.077v0.366h2.597V40.14c0-0.487,0.199-0.928,0.516-1.248c0.32-0.319,0.762-0.518,1.248-0.518
		h17.193V35.777z"/>
	<polygon fill-rule="evenodd" fill="#354859" points="43.256,63.705 46.916,63.705 46.916,69.276 45.085,67.448 43.256,69.276 	"/>
</g>
</svg>
