<?xml version="1.0" encoding="utf-8"?>
<!-- Generator: Adobe Illustrator 16.2.0, SVG Export Plug-In . SVG Version: 6.00 Build 0)  -->
<svg version="1.2" baseProfile="tiny" id="Слой_1"
	 xmlns="http://www.w3.org/2000/svg" xmlns:xlink="http://www.w3.org/1999/xlink" x="0px" y="0px" width="90px" height="90px"
	 viewBox="0 0 90 90" xml:space="preserve">
<path fill-rule="evenodd" fill="#E7F2F8" d="M44.932,89.237c24.498,0,44.479-19.981,44.479-44.479
	c0-24.499-19.981-44.479-44.479-44.479c-24.498,0-44.479,19.98-44.479,44.479C0.453,69.256,20.434,89.237,44.932,89.237z"/>
<path fill-rule="evenodd" fill="#D7E4EB" d="M44.932,0.279c24.565,0,44.478,19.914,44.478,44.479
	c0,24.564-19.913,44.479-44.478,44.479c-0.063,0-0.124-0.002-0.186-0.004V0.281C44.809,0.281,44.87,0.279,44.932,0.279z"/>
<g>
	<polygon fill-rule="evenodd" fill="#BEC3C7" points="20.422,53.407 51.607,34.905 72.912,48.446 41.727,66.947 	"/>
	<polygon fill-rule="evenodd" fill="#FFFFFF" points="21.957,59.123 52.876,40.18 74.369,53.416 43.451,72.36 	"/>
	<path fill-rule="evenodd" fill="#354859" d="M62.738,47.203c-0.285,5.829-9.329,11.441-18.131,11.422
		c-9.009-0.02-17.952-5.31-17.768-12.579C26.975,40.69,26.931,35.358,26.931,30h35.798C62.729,35.523,63.004,41.773,62.738,47.203z"
		/>
	<path fill-rule="evenodd" fill="#283C4E" d="M62.738,47.203c-0.283,5.79-9.214,11.367-17.962,11.42V30h17.952
		C62.729,35.523,63.004,41.773,62.738,47.203z"/>
	<polygon fill-rule="evenodd" fill="#3E98D3" points="16.206,31.182 44.796,13.577 73.386,31.182 44.796,48.788 	"/>
	<polygon fill-rule="evenodd" fill="#2285C7" points="44.776,13.589 44.796,13.577 73.386,31.182 44.796,48.788 44.776,48.775 	"/>
	<polygon fill-rule="evenodd" fill="#586D80" points="16.282,31.175 44.823,48.716 44.823,52.143 16.282,34.632 	"/>
	<polygon fill-rule="evenodd" fill="#495A6C" points="73.325,31.131 44.796,48.683 44.796,52.143 73.325,34.588 	"/>
	<polygon fill-rule="evenodd" fill="#EFC849" points="29.44,39.258 43.365,30.776 45.873,32.205 31.857,40.755 	"/>
	<path fill-rule="evenodd" fill="#495A6C" d="M42.904,30.005l0.214-0.15c0.923-0.647,2.481-0.613,3.463,0.075l0,0
		c0.981,0.688,1.029,1.78,0.106,2.428l-0.214,0.15c-0.923,0.647-2.481,0.613-3.462-0.075l0-0.001
		C42.029,31.745,41.981,30.652,42.904,30.005z"/>
	<path fill-rule="evenodd" fill="#354859" d="M44.776,29.392c0.644,0.004,1.301,0.185,1.805,0.539l0,0
		c0.981,0.688,1.029,1.78,0.105,2.428l-0.212,0.15c-0.459,0.321-1.075,0.475-1.698,0.463V29.392z"/>
	<path fill-rule="evenodd" fill="#DFB836" d="M31.779,59.331c1.112,0.944,1.897,3.096,1.897,4.394c0,1.697-0.095,2.933-0.266,3.543
		H27.92c-0.17-0.61-0.266-1.846-0.266-3.543c0-1.298,0.786-3.449,1.897-4.394c-0.507-0.354-0.84-0.94-0.84-1.606
		c0-0.623,0.292-1.18,0.748-1.535V39.241l2.412,1.479v15.469c0.456,0.355,0.748,0.912,0.748,1.535
		C32.62,58.391,32.287,58.978,31.779,59.331z"/>
	<path fill-rule="evenodd" fill="#D0A22B" d="M31.779,59.331c1.112,0.944,1.897,3.096,1.897,4.394c0,1.697-0.095,2.933-0.266,3.543
		h-2.825V39.932l1.286,0.788v15.469c0.456,0.355,0.748,0.912,0.748,1.535C32.62,58.391,32.287,58.978,31.779,59.331z"/>
</g>
</svg>
