<?xml version="1.0" encoding="utf-8"?>
<!-- Generator: Adobe Illustrator 16.2.0, SVG Export Plug-In . SVG Version: 6.00 Build 0)  -->
<svg version="1.2" baseProfile="tiny" id="Слой_1"
	 xmlns="http://www.w3.org/2000/svg" xmlns:xlink="http://www.w3.org/1999/xlink" x="0px" y="0px" width="90px" height="90px"
	 viewBox="0 0 90 90" xml:space="preserve">
<path fill-rule="evenodd" fill="#E7F2F8" d="M45.007,89.688c24.647,0,44.75-20.103,44.75-44.75s-20.103-44.75-44.75-44.75
	S0.257,20.29,0.257,44.938S20.359,89.688,45.007,89.688z"/>
<path fill-rule="evenodd" fill="#D7E4EB" d="M45.007,0.188c24.715,0,44.75,20.035,44.75,44.75s-20.035,44.75-44.75,44.75
	c-0.063,0-0.125-0.002-0.187-0.003V0.19C44.882,0.189,44.944,0.188,45.007,0.188z"/>
<g>
	<rect x="68.477" y="44.978" fill-rule="evenodd" fill="#565656" width="0.999" height="4.462"/>
	<rect x="20.283" y="44.978" fill-rule="evenodd" fill="#6B6C6C" width="0.999" height="4.462"/>
	<path fill-rule="evenodd" fill="#6B6C6C" d="M19.783,44.155h-1.402c-0.313,0-0.571,0.256-0.571,0.571v4.966
		c0,0.313,0.257,0.57,0.571,0.57h1.402c0.314,0,0.571-0.257,0.571-0.57v-4.966C20.354,44.411,20.097,44.155,19.783,44.155z"/>
	<polygon fill-rule="evenodd" fill="#FFFFFF" points="27.19,42.174 62.577,42.174 62.577,28.491 53.275,19.189 27.19,19.189 	"/>
	<polygon fill-rule="evenodd" fill="#E7F2F8" points="44.918,42.174 62.577,42.174 62.577,28.491 53.275,19.189 44.918,19.189 	"/>
	<rect x="39.708" y="27.672" fill-rule="evenodd" fill="#6B6C6C" width="10.708" height="0.895"/>
	<rect x="44.918" y="27.672" fill-rule="evenodd" fill="#565656" width="5.497" height="0.895"/>
	<rect x="32.926" y="31.095" fill-rule="evenodd" fill="#6B6C6C" width="24.271" height="0.895"/>
	<rect x="44.918" y="31.096" fill-rule="evenodd" fill="#565656" width="12.279" height="0.894"/>
	<path fill-rule="evenodd" fill="#E74D3D" d="M68.583,49.564v16.847c0,2.905-2.378,5.283-5.283,5.283H26.466
		c-2.905,0-5.282-2.378-5.282-5.283V49.564H68.583z"/>
	<path fill-rule="evenodd" fill="#D43E2E" d="M68.583,49.564v16.847c0,2.905-2.378,5.283-5.283,5.283H44.921v-22.13H68.583z"/>
	<path fill-rule="evenodd" fill="#E74D3D" d="M68.583,51.563v-9.565c0-1.178-0.964-2.142-2.142-2.142H23.326
		c-1.178,0-2.141,0.964-2.141,2.142v9.565H68.583z"/>
	<path fill-rule="evenodd" fill="#E74D3D" d="M68.583,51.563v-9.565c0-1.178-0.964-2.142-2.142-2.142h-21.61v11.708H68.583z"/>
	<path fill-rule="evenodd" fill="#D43E2E" d="M68.583,51.563v-9.565c0-1.178-0.964-2.142-2.142-2.142H44.918v11.708H68.583z"/>
	<rect x="21.185" y="46.316" fill-rule="evenodd" fill="#6B6C6C" width="47.398" height="1.784"/>
	<rect x="44.918" y="46.316" fill-rule="evenodd" fill="#565656" width="23.665" height="1.784"/>
	<path fill-rule="evenodd" fill="#495A6C" d="M64.688,52.242V63.91c0,2.261-1.896,4.112-4.208,4.112H29.286
		c-2.313,0-4.207-1.851-4.207-4.112V52.242H64.688z"/>
	<path fill-rule="evenodd" fill="#354859" d="M64.688,52.242V63.91c0,2.261-1.896,4.112-4.208,4.112H44.918v-15.78H64.688z"/>
	<path fill-rule="evenodd" fill="#495A6C" d="M35.862,42.176h8.835h0.373h8.834c0.864,0,1.278,0.758,1.57,1.57l1.806,5.021
		c0.292,0.813-0.371,2.153-1.733,2.153H45.07h-0.373H34.22c-1.363,0-2.026-1.341-1.733-2.153l1.805-5.021
		C34.583,42.934,34.998,42.176,35.862,42.176z"/>
	<path fill-rule="evenodd" fill="#354859" d="M44.918,42.176h0.151h8.834c0.864,0,1.278,0.758,1.57,1.57l1.806,5.021
		c0.292,0.813-0.371,2.153-1.733,2.153H45.07h-0.151V42.176z"/>
	<rect x="27.751" y="41.605" fill-rule="evenodd" fill="#FFFFFF" width="34.148" height="2.248"/>
	<rect x="44.918" y="41.605" fill-rule="evenodd" fill="#DEDEDD" width="16.981" height="2.248"/>
	<path fill-rule="evenodd" fill="#495A6C" d="M27.698,41.586h2.07c0.433,0,0.786,0.353,0.786,0.785v1.213
		c0,0.433-0.353,0.786-0.786,0.786h-2.07c-0.432,0-0.786-0.353-0.786-0.786v-1.213C26.912,41.939,27.266,41.586,27.698,41.586z"/>
	<path fill-rule="evenodd" fill="#354859" d="M59.963,41.586h2.07c0.433,0,0.785,0.353,0.785,0.785v1.213
		c0,0.433-0.353,0.786-0.785,0.786h-2.07c-0.432,0-0.785-0.353-0.785-0.786v-1.213C59.178,41.939,59.531,41.586,59.963,41.586z"/>
	<rect x="32.873" y="39.211" fill-rule="evenodd" fill="#96A5A5" width="4.667" height="2.394"/>
	<rect x="39.474" y="39.211" fill-rule="evenodd" fill="#96A5A5" width="4.668" height="2.394"/>
	<rect x="45.937" y="39.211" fill-rule="evenodd" fill="#808F8F" width="4.667" height="2.394"/>
	<rect x="52.538" y="39.211" fill-rule="evenodd" fill="#808F8F" width="4.668" height="2.394"/>
	<path fill-rule="evenodd" fill="#FFFFFF" d="M32.446,59.046c1.151,0,2.09-0.939,2.09-2.091c0-1.15-0.939-2.09-2.09-2.09
		c-1.151,0-2.09,0.939-2.09,2.09C30.356,58.106,31.295,59.046,32.446,59.046z"/>
	<path fill-rule="evenodd" fill="#FFFFFF" d="M38.685,59.046c1.151,0,2.09-0.939,2.09-2.091c0-1.15-0.939-2.09-2.09-2.09
		s-2.09,0.939-2.09,2.09C36.595,58.106,37.534,59.046,38.685,59.046z"/>
	<path fill-rule="evenodd" fill="#FFFFFF" d="M44.884,59.046c1.151,0,2.09-0.939,2.09-2.091c0-1.15-0.939-2.09-2.09-2.09
		s-2.089,0.939-2.089,2.09C42.795,58.106,43.733,59.046,44.884,59.046z"/>
	<path fill-rule="evenodd" fill="#BEC3C7" d="M44.903,54.866c1.146,0.01,2.072,0.941,2.072,2.09c0,1.147-0.926,2.079-2.072,2.089
		V54.866z"/>
	<path fill-rule="evenodd" fill="#FFFFFF" d="M51.101,59.046c1.151,0,2.09-0.939,2.09-2.091c0-1.15-0.938-2.09-2.09-2.09
		c-1.152,0-2.091,0.939-2.091,2.09C49.01,58.106,49.948,59.046,51.101,59.046z"/>
	<path fill-rule="evenodd" fill="#FFFFFF" d="M57.339,59.046c1.151,0,2.09-0.939,2.09-2.091c0-1.15-0.938-2.09-2.09-2.09
		c-1.15,0-2.089,0.939-2.089,2.09C55.25,58.106,56.188,59.046,57.339,59.046z"/>
	<path fill-rule="evenodd" fill="#FFFFFF" d="M35.565,64.1c1.151,0,2.09-0.939,2.09-2.091s-0.938-2.09-2.09-2.09
		c-1.152,0-2.089,0.938-2.089,2.09S34.414,64.1,35.565,64.1z"/>
	<path fill-rule="evenodd" fill="#FFFFFF" d="M41.765,64.1c1.151,0,2.09-0.939,2.09-2.091s-0.939-2.09-2.09-2.09
		c-1.152,0-2.091,0.938-2.091,2.09S40.613,64.1,41.765,64.1z"/>
	<path fill-rule="evenodd" fill="#FFFFFF" d="M47.981,64.1c1.15,0,2.09-0.939,2.09-2.091s-0.939-2.09-2.09-2.09
		c-1.152,0-2.091,0.938-2.091,2.09S46.829,64.1,47.981,64.1z"/>
	<path fill-rule="evenodd" fill="#FFFFFF" d="M54.22,64.1c1.151,0,2.09-0.939,2.09-2.091s-0.938-2.09-2.09-2.09
		s-2.091,0.938-2.091,2.09S53.068,64.1,54.22,64.1z"/>
	<rect x="44.49" y="44.81" fill-rule="evenodd" fill="#FFFFFF" width="0.786" height="4.996"/>
	<polygon fill-rule="evenodd" fill="#FFFFFF" points="42.67,44.81 43.456,44.81 43.071,49.806 42.286,49.806 	"/>
	<polygon fill-rule="evenodd" fill="#FFFFFF" points="40.814,44.81 41.6,44.81 40.977,49.806 40.191,49.806 	"/>
	<polygon fill-rule="evenodd" fill="#FFFFFF" points="38.994,44.81 39.779,44.81 38.787,49.806 38.001,49.806 	"/>
	<polygon fill-rule="evenodd" fill="#FFFFFF" points="37.138,44.81 37.923,44.81 36.657,49.806 35.872,49.806 	"/>
	<polygon fill-rule="evenodd" fill="#FFFFFF" points="47.088,44.81 46.303,44.81 46.687,49.806 47.473,49.806 	"/>
	<polygon fill-rule="evenodd" fill="#FFFFFF" points="48.944,44.81 48.158,44.81 48.782,49.806 49.566,49.806 	"/>
	<polygon fill-rule="evenodd" fill="#FFFFFF" points="50.764,44.81 49.979,44.81 50.971,49.806 51.757,49.806 	"/>
	<polygon fill-rule="evenodd" fill="#FFFFFF" points="52.62,44.81 51.835,44.81 53.102,49.806 53.887,49.806 	"/>
	<path fill-rule="evenodd" fill="#FFFFFF" d="M57.344,66.955c0.063,0.803-0.596,1.847-1.797,1.847H45.07h-0.373H34.22
		c-1.202,0-1.86-1.044-1.797-1.847H57.344z"/>
	<path fill-rule="evenodd" fill="#BEC3C7" d="M57.344,66.955c0.063,0.803-0.596,1.847-1.797,1.847H45.07h-0.151v-1.847H57.344z"/>
	<path fill-rule="evenodd" fill="#FFFFFF" d="M60.518,64.1c1.15,0,2.091-0.939,2.091-2.091s-0.94-2.09-2.091-2.09
		c-1.151,0-2.09,0.938-2.09,2.09S59.366,64.1,60.518,64.1z"/>
	<path fill-rule="evenodd" fill="#FFFFFF" d="M29.268,64.1c1.151,0,2.09-0.939,2.09-2.091s-0.938-2.09-2.09-2.09
		c-1.151,0-2.09,0.938-2.09,2.09S28.117,64.1,29.268,64.1z"/>
	<polygon fill-rule="evenodd" fill="#FFFFFF" points="53.298,19.21 53.298,28.478 62.565,28.478 	"/>
	<path fill-rule="evenodd" fill="#565656" d="M71.357,44.155h-1.4c-0.315,0-0.572,0.257-0.572,0.571v7.125
		c0,0.314,0.257,0.571,0.572,0.571h1.4c0.315,0,0.571-0.257,0.571-0.571v-7.125C71.929,44.411,71.673,44.155,71.357,44.155z"/>
	<rect x="71.438" y="49.886" fill-rule="evenodd" fill="#565656" width="4.746" height="1.784"/>
	<rect x="32.926" y="33.056" fill-rule="evenodd" fill="#6B6C6C" width="24.271" height="0.894"/>
	<rect x="44.918" y="33.055" fill-rule="evenodd" fill="#565656" width="12.279" height="0.895"/>
	<rect x="32.926" y="35.059" fill-rule="evenodd" fill="#6B6C6C" width="17.704" height="0.895"/>
	<rect x="44.918" y="35.059" fill-rule="evenodd" fill="#565656" width="5.711" height="0.894"/>
	<path fill-rule="evenodd" fill="#BEC3C7" d="M38.692,54.866c1.146,0.01,2.072,0.941,2.072,2.09c0,1.147-0.926,2.079-2.072,2.089
		V54.866z"/>
	<path fill-rule="evenodd" fill="#BEC3C7" d="M32.446,54.866c1.146,0.01,2.071,0.941,2.071,2.09c0,1.147-0.925,2.079-2.071,2.089
		V54.866z"/>
	<path fill-rule="evenodd" fill="#BEC3C7" d="M51.112,54.866c1.146,0.01,2.073,0.941,2.073,2.09c0,1.147-0.927,2.079-2.073,2.089
		V54.866z"/>
	<path fill-rule="evenodd" fill="#BEC3C7" d="M57.323,54.866c1.146,0.01,2.071,0.941,2.071,2.09c0,1.147-0.925,2.079-2.071,2.089
		V54.866z"/>
	<path fill-rule="evenodd" fill="#BEC3C7" d="M29.288,59.925c1.146,0.011,2.071,0.942,2.071,2.09c0,1.148-0.925,2.081-2.071,2.09
		V59.925z"/>
	<path fill-rule="evenodd" fill="#BEC3C7" d="M35.569,59.925c1.146,0.011,2.071,0.942,2.071,2.09c0,1.148-0.926,2.081-2.071,2.09
		V59.925z"/>
	<path fill-rule="evenodd" fill="#BEC3C7" d="M41.779,59.925c1.146,0.011,2.072,0.942,2.072,2.09c0,1.148-0.927,2.081-2.072,2.09
		V59.925z"/>
	<path fill-rule="evenodd" fill="#BEC3C7" d="M47.99,59.925c1.146,0.011,2.071,0.942,2.071,2.09c0,1.148-0.926,2.081-2.071,2.09
		V59.925z"/>
	<path fill-rule="evenodd" fill="#BEC3C7" d="M54.235,59.925c1.146,0.011,2.072,0.942,2.072,2.09c0,1.148-0.926,2.081-2.072,2.09
		V59.925z"/>
	<path fill-rule="evenodd" fill="#BEC3C7" d="M60.554,59.925c1.146,0.011,2.071,0.942,2.071,2.09c0,1.148-0.926,2.081-2.071,2.09
		V59.925z"/>
</g>
</svg>
