<?xml version="1.0" encoding="utf-8"?>
<!-- Generator: Adobe Illustrator 16.2.0, SVG Export Plug-In . SVG Version: 6.00 Build 0)  -->
<svg version="1.2" baseProfile="tiny" id="Слой_1"
	 xmlns="http://www.w3.org/2000/svg" xmlns:xlink="http://www.w3.org/1999/xlink" x="0px" y="0px" width="90px" height="90px"
	 viewBox="0 0 90 90" xml:space="preserve">
<path fill-rule="evenodd" fill="#E7F2F8" d="M44.832,89.813c24.541,0,44.558-20.016,44.558-44.557
	c0-24.542-20.017-44.559-44.558-44.559c-24.542,0-44.558,20.016-44.558,44.559C0.274,69.797,20.29,89.813,44.832,89.813z"/>
<path fill-rule="evenodd" fill="#D7E4EB" d="M44.831,0.697c24.609,0,44.559,19.949,44.559,44.559
	c0,24.608-19.949,44.557-44.559,44.557c-0.061,0-0.124-0.004-0.185-0.004V0.699C44.708,0.699,44.77,0.697,44.831,0.697z"/>
<path fill-rule="evenodd" fill="#D0A92B" d="M61.124,46.15c3.836-0.859,12.132-4.157,16.586-11.297
	c4.547,13.951-7.14,28.204-18.954,24.24C52.619,57.035,52.924,47.988,61.124,46.15z"/>
<path fill-rule="evenodd" fill="#BE982E" d="M61.124,46.15c3.835-0.859,12.132-4.157,16.586-11.297
	c0.037,0.114,0.072,0.227,0.106,0.339C75.508,46.189,65.313,52.87,56.963,52.745l-1.181-3.085
	C56.463,48.135,58.162,46.813,61.124,46.15z"/>
<path fill-rule="evenodd" fill="#D0A92B" d="M32.779,70.769h23.986c0.961,0,1.748,0.784,1.748,1.745v1.425h-27.48v-1.425
	C31.032,71.553,31.817,70.769,32.779,70.769z"/>
<path fill-rule="evenodd" fill="#BE982E" d="M44.729,70.78l12.036-0.012c0.961-0.002,1.748,0.784,1.748,1.745v1.425L44.729,73.95
	V70.78z"/>
<path fill-rule="evenodd" fill="#DFB836" d="M52.259,28.981c1.68-1.317,5.292-2.057,8.063-1.98
	c-0.167,2.833-0.174,4.901-1.557,7.853C56.715,33.25,54.31,30.585,52.259,28.981z"/>
<path fill-rule="evenodd" fill="#DFB836" d="M29.423,46.15c-3.835-0.859-12.132-4.157-16.586-11.297
	c-4.547,13.951,7.14,28.204,18.955,24.24C37.927,57.035,37.623,47.988,29.423,46.15z"/>
<path fill-rule="evenodd" fill="#D0A92B" d="M29.423,46.15c-3.835-0.859-12.131-4.157-16.586-11.297
	c-0.037,0.114-0.071,0.227-0.105,0.339C15.04,46.189,25.236,52.87,33.584,52.745l1.181-3.085
	C34.084,48.135,32.385,46.813,29.423,46.15z"/>
<polygon fill-rule="evenodd" fill="#BE982E" points="29.862,23.607 44.804,17.729 59.822,23.409 44.88,29.288 "/>
<polygon fill-rule="evenodd" fill="#EFC849" points="29.857,23.612 44.776,17.807 44.754,16.867 29.873,22.829 "/>
<polygon fill-rule="evenodd" fill="#DFB836" points="59.77,23.415 44.755,17.792 44.748,16.858 59.743,22.631 "/>
<path fill-rule="evenodd" fill="#DFB836" d="M44.391,71.166c0.045,0,0.087,0,0.131,0c15.304-0.426,15.05-18.058,15.767-28.924
	c0.562-8.492-5.913-15.879-15.898-15.862V71.166z"/>
<path fill-rule="evenodd" fill="#EFC849" d="M36.894,28.981c-1.681-1.317-5.293-2.057-8.064-1.98
	c0.167,2.833,0.174,4.901,1.556,7.853C32.436,33.25,34.841,30.585,36.894,28.981z"/>
<path fill-rule="evenodd" fill="#EFC849" d="M44.692,71.166c-0.044,0-0.086,0-0.131,0C29.258,70.74,29.512,53.108,28.794,42.242
	c-0.561-8.492,5.914-15.879,15.898-15.862V71.166z"/>
<path fill-rule="evenodd" fill="#F7E094" d="M44.912,65.901c5.327,0,9.672-4.519,9.672-10.058c0-5.542-4.345-10.06-9.672-10.06
	c-5.327,0-9.672,4.518-9.672,10.06C35.24,61.383,39.585,65.901,44.912,65.901z"/>
<path fill-rule="evenodd" fill="#EFC849" d="M44.912,45.784c5.341,0,9.672,4.504,9.672,10.06c0,5.553-4.331,10.058-9.672,10.058
	c-0.065,0-0.128-0.002-0.193-0.004V45.786C44.784,45.785,44.847,45.784,44.912,45.784z"/>
<path fill-rule="evenodd" fill="#DFB836" d="M36.507,32.318c-5.763,0-10.436,4.673-10.436,10.436
	c0,5.764,4.672,10.437,10.436,10.437c3.624,0,6.481-1.908,8.104-4.758c1.893,2.646,4.991,4.372,8.493,4.372
	c5.764,0,10.436-4.673,10.436-10.436c0-5.764-4.672-10.437-10.436-10.437c-3.437,0-6.484,1.662-8.386,4.225
	C42.93,33.968,39.731,32.318,36.507,32.318z"/>
<path fill-rule="evenodd" fill="#D0A92B" d="M44.877,48.791c1.911,2.443,4.886,4.015,8.228,4.015
	c5.764,0,10.436-4.673,10.436-10.436c0-5.764-4.672-10.437-10.436-10.437c-3.342,0-6.316,1.572-8.228,4.016V48.791z"/>
<path fill-rule="evenodd" fill="#F7E8B9" d="M53.664,49.533c3.634,0,6.596-2.963,6.596-6.595s-2.962-6.596-6.596-6.596
	s-6.596,2.963-6.596,6.596S50.03,49.533,53.664,49.533z"/>
<path fill-rule="evenodd" fill="#D0A92B" d="M47.823,38.029l15.326-1.438l-2.206-1.997l3.782-0.946l-3.258-1.261l4.31-2.207
	c0,0-9.687,1.296-13.154,1.927c-3.469,0.63-4.099,1.681-5.149,2.522c-0.245,0.194-0.521,0.504-0.804,0.862
	C47.271,36.284,47.222,37.385,47.823,38.029z"/>
<path fill-rule="evenodd" fill="#F7E8B9" d="M36.163,49.533c3.632,0,6.595-2.963,6.595-6.595s-2.962-6.596-6.595-6.596
	s-6.596,2.963-6.596,6.596S32.53,49.533,36.163,49.533z"/>
<path fill-rule="evenodd" fill="#D0A92B" d="M41.763,48.658c0.9-1.155,2.352-2.857,3.181-3.699c1.152,1.091,2.198,2.49,3.213,3.717
	c-1.03,1.635-2.28,3.638-3.332,5.114C44.162,52.75,42.335,49.433,41.763,48.658z"/>
<path fill-rule="evenodd" fill="#BE982E" d="M44.783,45.125c0.055-0.058,0.11-0.113,0.162-0.166c1.152,1.091,2.198,2.49,3.213,3.717
	c-1.03,1.635-2.28,3.638-3.332,5.114l-0.042-0.066V45.125z"/>
<path fill-rule="evenodd" fill="#D0A92B" d="M36.676,28.199c4.182-0.859,10.708-1.428,15.833,0.098
	c0.147-4.961-2.478-7.073-7.264-7.062C38.921,21.25,36.575,23.433,36.676,28.199z"/>
<path fill-rule="evenodd" fill="#F2D679" d="M37.87,69.237l0.813,0.297c0.303,0.108,0.461,0.447,0.351,0.751l-0.924,2.536
	c-0.109,0.303-0.446,0.459-0.75,0.351l-0.815-0.299c-0.303-0.108-0.459-0.445-0.35-0.748l0.924-2.536
	C37.23,69.286,37.567,69.127,37.87,69.237z"/>
<path fill-rule="evenodd" fill="#DFB836" d="M37.87,69.237l0.374,0.137l-1.324,3.638l-0.375-0.139
	c-0.303-0.108-0.459-0.445-0.35-0.748l0.924-2.536C37.23,69.286,37.567,69.127,37.87,69.237z"/>
<path fill-rule="evenodd" fill="#F2D679" d="M39.917,69.386l0.813,0.295c0.303,0.112,0.459,0.45,0.349,0.753l-1.296,3.563
	c-0.11,0.305-0.45,0.461-0.752,0.351l-0.813-0.295c-0.303-0.112-0.46-0.449-0.35-0.752l1.297-3.565
	C39.275,69.433,39.614,69.275,39.917,69.386z"/>
<path fill-rule="evenodd" fill="#DFB836" d="M39.917,69.386l0.407,0.15l-1.697,4.665l-0.408-0.148
	c-0.303-0.112-0.46-0.449-0.35-0.752l1.297-3.565C39.275,69.433,39.614,69.275,39.917,69.386z"/>
<path fill-rule="evenodd" fill="#F2D679" d="M41.593,70.592l0.813,0.297c0.302,0.11,0.459,0.447,0.349,0.75l-0.922,2.536
	c-0.11,0.304-0.448,0.46-0.75,0.352l-0.814-0.297c-0.303-0.11-0.459-0.449-0.35-0.753l0.924-2.533
	C40.953,70.64,41.29,70.481,41.593,70.592z"/>
<path fill-rule="evenodd" fill="#DFB836" d="M41.593,70.592l0.428,0.156l-1.324,3.636l-0.428-0.154
	c-0.303-0.11-0.459-0.449-0.35-0.753l0.924-2.533C40.953,70.64,41.29,70.481,41.593,70.592z"/>
<path fill-rule="evenodd" fill="#EFC849" d="M47.142,70.837l0.813-0.295c0.303-0.11,0.64,0.046,0.751,0.351l0.922,2.536
	c0.111,0.303-0.047,0.64-0.35,0.75l-0.813,0.298c-0.304,0.107-0.641-0.049-0.752-0.352l-0.923-2.536
	C46.682,71.286,46.838,70.949,47.142,70.837z"/>
<path fill-rule="evenodd" fill="#D0A92B" d="M47.142,70.837l0.375-0.135l1.323,3.638l-0.374,0.137
	c-0.304,0.107-0.641-0.049-0.752-0.352l-0.923-2.536C46.682,71.286,46.838,70.949,47.142,70.837z"/>
<path fill-rule="evenodd" fill="#EFC849" d="M48.805,69.639l0.813-0.299c0.303-0.108,0.64,0.05,0.75,0.352l1.299,3.563
	c0.109,0.304-0.049,0.643-0.352,0.753l-0.813,0.297c-0.303,0.108-0.64-0.048-0.75-0.352l-1.298-3.563
	C48.344,70.086,48.503,69.747,48.805,69.639z"/>
<path fill-rule="evenodd" fill="#D0A92B" d="M48.805,69.639l0.407-0.15l1.699,4.665l-0.409,0.15c-0.303,0.108-0.64-0.048-0.75-0.352
	l-1.298-3.563C48.344,70.086,48.503,69.747,48.805,69.639z"/>
<path fill-rule="evenodd" fill="#EFC849" d="M50.864,69.484l0.813-0.297c0.302-0.11,0.641,0.046,0.751,0.349l0.922,2.536
	c0.111,0.303-0.046,0.643-0.349,0.751l-0.813,0.299c-0.302,0.108-0.641-0.051-0.752-0.354l-0.923-2.536
	C50.403,69.93,50.562,69.593,50.864,69.484z"/>
<path fill-rule="evenodd" fill="#D0A92B" d="M50.864,69.484l0.428-0.158l1.324,3.64l-0.428,0.156
	c-0.302,0.108-0.641-0.051-0.752-0.354l-0.923-2.536C50.403,69.93,50.562,69.593,50.864,69.484z"/>
<g>
	<path fill-rule="evenodd" fill="#BE982E" d="M53.664,46.506c1.966,0,3.569-1.603,3.569-3.568s-1.604-3.569-3.569-3.569
		s-3.569,1.604-3.569,3.569S51.698,46.506,53.664,46.506z"/>
	<path fill-rule="evenodd" fill="#FFFFFF" d="M55.269,42.03c0.537,0,0.975-0.439,0.975-0.975c0-0.537-0.438-0.975-0.975-0.975
		s-0.974,0.438-0.974,0.975C54.295,41.591,54.731,42.03,55.269,42.03z"/>
	<circle fill-rule="evenodd" fill="#FFFFFF" cx="54.203" cy="42" r="0.365"/>
</g>
<g>
	<path fill-rule="evenodd" fill="#D0A92B" d="M36.163,46.506c1.965,0,3.568-1.603,3.568-3.569c0-1.965-1.603-3.568-3.568-3.568
		c-1.966,0-3.57,1.603-3.57,3.568C32.593,44.903,34.196,46.506,36.163,46.506z"/>
	<ellipse fill-rule="evenodd" fill="#FFFFFF" cx="34.483" cy="41.24" rx="1.013" ry="0.975"/>
	<ellipse fill-rule="evenodd" fill="#FFFFFF" cx="35.589" cy="42.185" rx="0.378" ry="0.365"/>
</g>
<path fill-rule="evenodd" fill="#DFB836" d="M44.515,38.501l-18.303-1.717l2.207-1.996l-3.784-0.946l3.258-1.261l-4.309-2.207
	c0,0,9.687,1.296,13.153,1.927c3.469,0.63,4.099,1.682,5.15,2.522C42.94,35.663,44.622,38.606,44.515,38.501z"/>
<g>
	<polygon fill-rule="evenodd" fill="#DFB836" points="37.806,57.623 38.279,56.369 38.753,55.113 37.806,55.113 36.858,55.113 
		37.332,56.369 	"/>
	<polygon fill-rule="evenodd" fill="#DFB836" points="42.082,58.853 42.556,57.597 43.029,56.343 42.082,56.343 41.134,56.343 
		41.608,57.597 	"/>
	<polygon fill-rule="evenodd" fill="#DFB836" points="39.332,61.379 39.805,60.125 40.279,58.869 39.332,58.869 38.386,58.869 
		38.859,60.125 	"/>
	<polygon fill-rule="evenodd" fill="#DFB836" points="42.205,63.995 42.678,62.743 43.153,61.487 42.205,61.487 41.257,61.487 
		41.73,62.743 	"/>
</g>
<g>
	<polygon fill-rule="evenodd" fill="#BE982E" points="51.619,57.623 51.145,56.369 50.672,55.113 51.619,55.113 52.566,55.113 
		52.093,56.369 	"/>
	<polygon fill-rule="evenodd" fill="#BE982E" points="47.343,58.853 46.869,57.597 46.396,56.343 47.343,56.343 48.29,56.343 
		47.816,57.597 	"/>
	<polygon fill-rule="evenodd" fill="#BE982E" points="50.093,61.379 49.618,60.125 49.146,58.869 50.093,58.869 51.04,58.869 
		50.565,60.125 	"/>
	<polygon fill-rule="evenodd" fill="#BE982E" points="47.22,63.995 46.746,62.743 46.272,61.487 47.22,61.487 48.167,61.487 
		47.693,62.743 	"/>
</g>
</svg>
