<?xml version="1.0" encoding="utf-8"?>
<!-- Generator: Adobe Illustrator 16.2.0, SVG Export Plug-In . SVG Version: 6.00 Build 0)  -->
<svg version="1.2" baseProfile="tiny" id="Слой_1"
	 xmlns="http://www.w3.org/2000/svg" xmlns:xlink="http://www.w3.org/1999/xlink" x="0px" y="0px" width="90px" height="90px"
	 viewBox="0 0 90 90" xml:space="preserve">
<path fill-rule="evenodd" fill="#E7F2F8" d="M45.249,89.822c24.606,0,44.675-20.068,44.675-44.675S69.855,0.472,45.249,0.472
	c-24.606,0-44.675,20.069-44.675,44.675S20.643,89.822,45.249,89.822z"/>
<g>
	<path fill-rule="evenodd" fill="#A6B5B5" d="M29.788,68.798c1.093-3.411,4.421-5.756,8.233-4.171
		C37.117,68.414,33.599,70.006,29.788,68.798z"/>
	<path fill-rule="evenodd" fill="#BEC3C7" d="M29.793,68.783c1.097-3.399,4.414-5.733,8.215-4.162L29.793,68.783z"/>
</g>
<g>
	<path fill-rule="evenodd" fill="#A6B5B5" d="M30.875,53.849c3.23,1.548,5.101,5.161,3.013,8.724
		C30.261,61.162,29.16,57.459,30.875,53.849z"/>
	<path fill-rule="evenodd" fill="#BEC3C7" d="M30.889,53.855c3.219,1.548,5.08,5.151,3.007,8.705L30.889,53.855z"/>
</g>
<path fill-rule="evenodd" fill="#D7E4EB" d="M45.249,0.472c24.674,0,44.675,20.002,44.675,44.675
	c0,24.673-20.001,44.675-44.675,44.675c-0.063,0-0.124-0.002-0.187-0.004V0.475C45.125,0.474,45.186,0.472,45.249,0.472z"/>
<path fill-rule="evenodd" fill="#BEC3C7" d="M51.048,69.202c-3.162-1.752-7.1-4.359-11.222-4.359
	c-5.648,0-10.761-2.359-14.461-6.176c-3.694-3.812-5.981-9.071-5.981-14.879c0-4.751,1.531-9.137,4.112-12.662l1.177,1.106
	c-2.314,3.23-3.682,7.228-3.682,11.556c0,5.377,2.111,10.244,5.523,13.762c3.407,3.513,8.113,5.688,13.313,5.688
	c3.757,0,8.361,2.478,11.3,4.336L51.048,69.202z"/>
<g>
	<path fill-rule="evenodd" fill="#EFC849" d="M36.72,56.192c3.538,0.555,6.369,3.481,5.39,7.492
		C38.23,63.375,36.114,60.145,36.72,56.192z"/>
	<path fill-rule="evenodd" fill="#DFB836" d="M36.734,56.195c3.527,0.559,6.346,3.477,5.379,7.475L36.734,56.195z"/>
</g>
<path fill-rule="evenodd" fill="#A6B5B5" d="M39.45,69.202c3.161-1.752,7.1-4.359,11.223-4.359c5.646,0,10.76-2.359,14.461-6.176
	c3.694-3.812,5.98-9.071,5.98-14.879c0-4.751-1.53-9.137-4.112-12.662l-1.177,1.106c2.314,3.23,3.683,7.228,3.683,11.556
	c0,5.377-2.11,10.244-5.523,13.762c-3.406,3.513-8.112,5.688-13.312,5.688c-3.758,0-8.362,2.478-11.3,4.336L39.45,69.202z"/>
<path fill-rule="evenodd" fill="#A6B5B5" d="M65.513,28.405c-1.364,3.313-0.334,7.25,3.602,8.499
	C70.866,33.428,69.204,29.94,65.513,28.405z"/>
<path fill-rule="evenodd" fill="#BEC3C7" d="M65.508,28.42c-1.354,3.305-0.326,7.228,3.593,8.479L65.508,28.42z"/>
<g>
	<path fill-rule="evenodd" fill="#A6B5B5" d="M65.255,40.034c-1.239,3.36-0.063,7.256,3.916,8.358
		C70.791,44.853,69.002,41.43,65.255,40.034z"/>
	<path fill-rule="evenodd" fill="#BEC3C7" d="M65.25,40.048c-1.229,3.353-0.055,7.235,3.907,8.34L65.25,40.048z"/>
</g>
<g>
	<path fill-rule="evenodd" fill="#A6B5B5" d="M76.102,35.349c-3.517,0.676-6.244,3.698-5.128,7.673
		C74.84,42.58,76.844,39.278,76.102,35.349z"/>
	<path fill-rule="evenodd" fill="#BEC3C7" d="M76.087,35.352c-3.506,0.682-6.222,3.695-5.117,7.657L76.087,35.352z"/>
</g>
<g>
	<path fill-rule="evenodd" fill="#A6B5B5" d="M64.116,47.505c-2.329,2.721-2.579,6.785,0.771,9.199
		C67.636,53.946,67.146,50.116,64.116,47.505z"/>
	<path fill-rule="evenodd" fill="#BEC3C7" d="M64.105,47.517c-2.316,2.718-2.563,6.767,0.77,9.179L64.105,47.517z"/>
</g>
<g>
	<path fill-rule="evenodd" fill="#A6B5B5" d="M76.429,46.343c-3.56-0.404-7.064,1.665-7.187,5.792
		C73.064,52.866,75.963,50.315,76.429,46.343z"/>
	<path fill-rule="evenodd" fill="#BEC3C7" d="M76.413,46.341c-3.55-0.396-7.041,1.669-7.171,5.78L76.413,46.341z"/>
</g>
<g>
	<path fill-rule="evenodd" fill="#A6B5B5" d="M74.485,54.988c-3.215-1.581-7.212-0.812-8.718,3.031
		C69.121,59.997,72.71,58.571,74.485,54.988z"/>
	<path fill-rule="evenodd" fill="#BEC3C7" d="M74.471,54.981c-3.208-1.569-7.19-0.801-8.698,3.026L74.471,54.981z"/>
</g>
<g>
	<path fill-rule="evenodd" fill="#A6B5B5" d="M59.602,53.849c-3.229,1.548-5.101,5.161-3.014,8.724
		C60.216,61.162,61.316,57.459,59.602,53.849z"/>
	<path fill-rule="evenodd" fill="#BEC3C7" d="M59.588,53.855c-3.218,1.548-5.08,5.151-3.007,8.705L59.588,53.855z"/>
</g>
<g>
	<path fill-rule="evenodd" fill="#A6B5B5" d="M69.695,63.26c-2.19-2.832-6.119-3.9-9.162-1.111
		C62.674,65.4,66.525,65.698,69.695,63.26z"/>
	<path fill-rule="evenodd" fill="#BEC3C7" d="M69.687,63.249c-2.19-2.821-6.105-3.884-9.144-1.11L69.687,63.249z"/>
</g>
<path fill-rule="evenodd" fill="#DF9D51" d="M53.777,56.192c-3.538,0.555-6.367,3.481-5.39,7.492
	C52.267,63.375,54.384,60.145,53.777,56.192z"/>
<path fill-rule="evenodd" fill="#E8B16F" d="M53.763,56.195c-3.527,0.559-6.344,3.477-5.379,7.475L53.763,56.195z"/>
<g>
	<path fill-rule="evenodd" fill="#A6B5B5" d="M60.688,68.798c-1.093-3.411-4.42-5.756-8.233-4.171
		C53.359,68.414,56.877,70.006,60.688,68.798z"/>
	<path fill-rule="evenodd" fill="#BEC3C7" d="M60.685,68.783c-1.097-3.399-4.414-5.733-8.216-4.162L60.685,68.783z"/>
</g>
<path fill-rule="evenodd" fill="#BEC3C7" d="M48.131,40.604c3.893-0.422,7.377-2.093,9.993-4.309
	c3.073-2.604,4.972-5.992,4.972-9.049c0-0.875-0.177-1.656-0.509-2.342c-0.525-1.089-1.422-1.896-2.604-2.424
	c-1.099-0.49-2.438-0.734-3.94-0.734c-2.297,0-5.033,0.567-7.912,1.696v2.224c2.906-1.234,5.659-1.855,7.912-1.855
	c1.226,0,2.281,0.183,3.101,0.549c0.737,0.328,1.284,0.81,1.59,1.44c0.194,0.402,0.299,0.885,0.299,1.447
	c0,2.456-1.618,5.257-4.239,7.477c-2.277,1.929-5.294,3.395-8.662,3.807V40.604z"/>
<path fill-rule="evenodd" fill="#BEC3C7" d="M42.11,40.604c-3.894-0.422-7.378-2.093-9.994-4.309
	c-3.074-2.604-4.972-5.992-4.972-9.049c0-0.875,0.177-1.656,0.508-2.342c0.526-1.089,1.422-1.896,2.605-2.424
	c1.098-0.49,2.437-0.734,3.94-0.734c2.296,0,5.033,0.567,7.912,1.696v2.224c-2.907-1.234-5.66-1.855-7.912-1.855
	c-1.227,0-2.281,0.183-3.102,0.549c-0.737,0.328-1.284,0.81-1.589,1.44c-0.194,0.402-0.298,0.885-0.298,1.447
	c0,2.456,1.618,5.257,4.239,7.477c2.277,1.929,5.293,3.395,8.663,3.807V40.604z"/>
<path fill-rule="evenodd" fill="#586D80" d="M33.556,58.126h23.069c0.925,0,1.681,0.755,1.681,1.679V70.57
	c0,0.923-0.756,1.679-1.681,1.679H33.556c-0.923,0-1.679-0.756-1.679-1.679V59.805C31.877,58.881,32.632,58.126,33.556,58.126z"/>
<path fill-rule="evenodd" fill="#495A6C" d="M45.037,58.126h11.588c0.925,0,1.681,0.755,1.681,1.679V70.57
	c0,0.923-0.756,1.679-1.681,1.679H45.037V58.126z"/>
<path fill-rule="evenodd" fill="#6B8399" d="M33.556,58.126h23.069c0.925,0,1.681,0.755,1.681,1.679v1.37H31.876v-1.37
	C31.876,58.881,32.632,58.126,33.556,58.126z"/>
<path fill-rule="evenodd" fill="#586D80" d="M45.049,58.138l11.576-0.012c0.925-0.002,1.681,0.755,1.681,1.679v1.37l-13.256,0.012
	V58.138z"/>
<path fill-rule="evenodd" fill="#BEC3C7" d="M45.119,18.127c-3.798-0.027-8.541-0.055-12.255-0.083
	c-0.393,6.827,1.033,23.353,10.264,26.576C43.115,49.285,41,54.653,36.734,56.018c0,0.702,0,1.405,0,2.106h8.385V18.127z"/>
<path fill-rule="evenodd" fill="#A6B5B5" d="M45.02,18.127c3.798-0.027,8.541-0.055,12.256-0.083
	c0.393,6.827-1.033,23.353-10.266,26.576c0.014,4.665,2.13,10.033,6.394,11.397c0,0.702,0,1.405,0,2.106H45.02V18.127z"/>
<rect x="36.131" y="55.974" fill-rule="evenodd" fill="#BEC3C7" width="17.89" height="2.15"/>
<rect x="45.033" y="55.974" fill-rule="evenodd" fill="#A6B5B5" width="8.988" height="2.15"/>
<polygon fill-rule="evenodd" fill="#FFFFFF" points="44.959,23.589 47.095,27.232 51.219,28.138 48.413,31.294 48.828,35.497 
	44.959,33.805 41.09,35.497 41.504,31.294 38.699,28.138 42.823,27.232 "/>
<polygon fill-rule="evenodd" fill="#E6E6E5" points="45.027,23.706 47.095,27.232 51.219,28.138 48.413,31.294 48.828,35.497 
	45.027,33.834 "/>
<path fill-rule="evenodd" fill="#A6B5B5" d="M24.964,28.405c1.364,3.313,0.334,7.25-3.602,8.499
	C19.611,33.428,21.272,29.94,24.964,28.405z"/>
<path fill-rule="evenodd" fill="#BEC3C7" d="M24.97,28.42c1.354,3.305,0.325,7.228-3.594,8.479L24.97,28.42z"/>
<g>
	<path fill-rule="evenodd" fill="#A6B5B5" d="M25.222,40.034c1.239,3.36,0.063,7.256-3.916,8.358
		C19.685,44.853,21.475,41.43,25.222,40.034z"/>
	<path fill-rule="evenodd" fill="#BEC3C7" d="M25.227,40.048c1.23,3.353,0.056,7.235-3.907,8.34L25.227,40.048z"/>
</g>
<g>
	<path fill-rule="evenodd" fill="#A6B5B5" d="M14.375,35.349c3.517,0.676,6.244,3.698,5.129,7.673
		C15.637,42.58,13.633,39.278,14.375,35.349z"/>
	<path fill-rule="evenodd" fill="#BEC3C7" d="M14.39,35.352c3.507,0.682,6.221,3.695,5.118,7.657L14.39,35.352z"/>
</g>
<g>
	<path fill-rule="evenodd" fill="#A6B5B5" d="M26.361,47.505c2.33,2.721,2.579,6.785-0.771,9.199
		C22.842,53.946,23.332,50.116,26.361,47.505z"/>
	<path fill-rule="evenodd" fill="#BEC3C7" d="M26.371,47.517c2.317,2.718,2.563,6.767-0.771,9.179L26.371,47.517z"/>
</g>
<g>
	<path fill-rule="evenodd" fill="#A6B5B5" d="M14.049,46.343c3.559-0.404,7.064,1.665,7.187,5.792
		C17.412,52.866,14.514,50.315,14.049,46.343z"/>
	<path fill-rule="evenodd" fill="#BEC3C7" d="M14.063,46.341c3.55-0.396,7.042,1.669,7.171,5.78L14.063,46.341z"/>
</g>
<g>
	<path fill-rule="evenodd" fill="#A6B5B5" d="M15.992,54.988c3.214-1.581,7.212-0.812,8.717,3.031
		C21.356,59.997,17.767,58.571,15.992,54.988z"/>
	<path fill-rule="evenodd" fill="#BEC3C7" d="M16.006,54.981c3.208-1.569,7.191-0.801,8.699,3.026L16.006,54.981z"/>
</g>
<g>
	<path fill-rule="evenodd" fill="#A6B5B5" d="M20.782,63.26c2.191-2.832,6.119-3.9,9.162-1.111
		C27.803,65.4,23.952,65.698,20.782,63.26z"/>
	<path fill-rule="evenodd" fill="#BEC3C7" d="M20.791,63.249c2.191-2.821,6.105-3.884,9.143-1.11L20.791,63.249z"/>
</g>
</svg>
