<?xml version="1.0" encoding="utf-8"?>
<!-- Generator: Adobe Illustrator 16.2.0, SVG Export Plug-In . SVG Version: 6.00 Build 0)  -->
<svg version="1.2" baseProfile="tiny" id="Слой_1"
	 xmlns="http://www.w3.org/2000/svg" xmlns:xlink="http://www.w3.org/1999/xlink" x="0px" y="0px" width="90px" height="90px"
	 viewBox="0 0 90 90" xml:space="preserve">
<path fill-rule="evenodd" fill="#E7F2F8" d="M45,89.385c24.446,0,44.385-19.938,44.385-44.385S69.446,0.615,45,0.615
	C20.553,0.615,0.615,20.554,0.615,45S20.553,89.385,45,89.385z"/>
<path fill-rule="evenodd" fill="#D7E4EB" d="M45,0.615c24.514,0,44.385,19.872,44.385,44.385c0,24.513-19.871,44.385-44.385,44.385
	c-0.062,0-0.123-0.002-0.185-0.002V0.617C44.877,0.617,44.938,0.615,45,0.615z"/>
<g>
	<path fill-rule="evenodd" fill="#EFC849" d="M47.042,11.169c5.69,0.846,10.003,4.904,10.003,9.785c0,4.744-4.075,8.712-9.527,9.707
		c0.51,0.458,0.815,1.048,0.815,1.692c0,0.868-0.556,1.637-1.413,2.117c0.477,0.375,0.768,0.879,0.768,1.433
		c0,0.569-0.307,1.084-0.806,1.461v19.661c0.499,0.378,0.806,0.894,0.806,1.462c0,0.567-0.307,1.084-0.806,1.461v16.337
		c0,1.124-0.919,2.043-2.043,2.043l0,0c-1.124,0-2.043-0.919-2.043-2.043v-2.903h-9.84v-2.636h4.194
		c1.124,0,2.042-0.919,2.042-2.043l0,0c0-1.123-0.919-2.043-2.042-2.043h-4.194v-2.635h9.84v-4.077
		c-0.5-0.377-0.806-0.894-0.806-1.461c0-0.568,0.307-1.084,0.806-1.462V37.364c-0.5-0.377-0.806-0.893-0.806-1.461
		c0-0.554,0.291-1.058,0.768-1.433c-0.858-0.479-1.414-1.249-1.414-2.117c0-0.644,0.307-1.234,0.816-1.692
		c-5.452-0.995-9.526-4.963-9.526-9.707c0-4.881,4.313-8.939,10.002-9.785c0.471-0.951,1.282-1.58,2.204-1.58
		C45.76,9.589,46.572,10.218,47.042,11.169L47.042,11.169z M47.05,14.985c-0.471,0.959-1.285,1.594-2.211,1.594
		c-0.927,0-1.741-0.635-2.211-1.594c-3.59,0.712-6.231,3.114-6.231,5.969c0,3.416,3.78,6.184,8.442,6.184s8.441-2.769,8.441-6.184
		C53.28,18.099,50.64,15.698,47.05,14.985z"/>
	<path fill-rule="evenodd" fill="#D0A22B" d="M47.042,11.169c5.69,0.846,10.003,4.904,10.003,9.785c0,4.744-4.075,8.712-9.527,9.707
		c0.51,0.458,0.815,1.048,0.815,1.692c0,0.868-0.556,1.637-1.413,2.117c0.477,0.375,0.768,0.879,0.768,1.433
		c0,0.569-0.307,1.084-0.806,1.461v19.661c0.499,0.378,0.806,0.894,0.806,1.462c0,0.567-0.307,1.084-0.806,1.461v16.337
		c0,1.124-0.919,2.043-2.043,2.043l0,0h-0.005V27.138h0.005c4.662,0,8.441-2.769,8.441-6.184c0-2.855-2.641-5.256-6.23-5.969
		c-0.471,0.959-1.285,1.594-2.211,1.594h-0.005v-6.99h0.005C45.76,9.589,46.572,10.218,47.042,11.169z"/>
</g>
</svg>
