<?xml version="1.0" encoding="utf-8"?>
<!-- Generator: Adobe Illustrator 16.2.0, SVG Export Plug-In . SVG Version: 6.00 Build 0)  -->
<svg version="1.2" baseProfile="tiny" id="Слой_1"
	 xmlns="http://www.w3.org/2000/svg" xmlns:xlink="http://www.w3.org/1999/xlink" x="0px" y="0px" width="90px" height="90px"
	 viewBox="0 0 90 90" xml:space="preserve">
<path fill-rule="evenodd" fill="#E7F2F8" d="M45.148,89.709c24.613,0,44.688-20.074,44.688-44.688S69.762,0.333,45.148,0.333
	S0.46,20.408,0.46,45.021S20.535,89.709,45.148,89.709z"/>
<path fill-rule="evenodd" fill="#D7E4EB" d="M45.147,0.333c24.68,0,44.687,20.007,44.687,44.688
	c0,24.679-20.007,44.688-44.687,44.688c-0.062,0-0.124-0.002-0.186-0.002V0.336C45.023,0.336,45.085,0.333,45.147,0.333z"/>
<g>
	<path fill-rule="evenodd" fill="#DFB836" d="M39.434,69.083c3.162-1.753,7.101-4.36,11.227-4.36c5.647,0,10.762-2.36,14.463-6.178
		c3.696-3.813,5.982-9.074,5.982-14.883c0-4.752-1.531-9.14-4.111-12.666l-1.178,1.106c2.314,3.231,3.684,7.229,3.684,11.559
		c0,5.378-2.112,10.247-5.525,13.766c-3.407,3.514-8.115,5.688-13.314,5.688c-3.76,0-8.366,2.479-11.305,4.338L39.434,69.083z"/>
	<g>
		<path fill-rule="evenodd" fill="#EFC849" d="M65.502,28.274c-1.363,3.313-0.333,7.252,3.603,8.501
			C70.857,33.298,69.196,29.81,65.502,28.274z"/>
		<path fill-rule="evenodd" fill="#DFB836" d="M65.497,28.289c-1.354,3.306-0.324,7.23,3.596,8.482L65.497,28.289z"/>
	</g>
	<g>
		<path fill-rule="evenodd" fill="#EFC849" d="M65.245,39.905c-1.24,3.362-0.063,7.26,3.918,8.361
			C70.782,44.727,68.993,41.301,65.245,39.905z"/>
		<path fill-rule="evenodd" fill="#DFB836" d="M65.24,39.92c-1.23,3.354-0.056,7.238,3.908,8.343L65.24,39.92z"/>
	</g>
	<g>
		<path fill-rule="evenodd" fill="#EFC849" d="M76.094,35.22c-3.517,0.677-6.245,3.699-5.13,7.675
			C74.832,42.452,76.838,39.149,76.094,35.22z"/>
		<path fill-rule="evenodd" fill="#DFB836" d="M76.08,35.223c-3.506,0.682-6.223,3.695-5.119,7.659L76.08,35.223z"/>
	</g>
	<g>
		<path fill-rule="evenodd" fill="#EFC849" d="M64.105,47.38c-2.329,2.722-2.579,6.787,0.772,9.201
			C67.627,53.823,67.137,49.991,64.105,47.38z"/>
		<path fill-rule="evenodd" fill="#DFB836" d="M64.096,47.392c-2.317,2.719-2.563,6.769,0.771,9.181L64.096,47.392z"/>
	</g>
	<g>
		<path fill-rule="evenodd" fill="#EFC849" d="M76.421,46.217c-3.559-0.405-7.065,1.666-7.188,5.794
			C73.057,52.742,75.956,50.188,76.421,46.217z"/>
		<path fill-rule="evenodd" fill="#DFB836" d="M76.405,46.215c-3.549-0.395-7.041,1.669-7.172,5.782L76.405,46.215z"/>
	</g>
	<g>
		<path fill-rule="evenodd" fill="#EFC849" d="M74.479,54.865c-3.216-1.582-7.215-0.813-8.721,3.032
			C69.111,59.875,72.701,58.449,74.479,54.865z"/>
		<path fill-rule="evenodd" fill="#DFB836" d="M74.464,54.858c-3.21-1.569-7.193-0.802-8.701,3.026L74.464,54.858z"/>
	</g>
	<g>
		<path fill-rule="evenodd" fill="#EFC849" d="M59.59,53.726c-3.23,1.548-5.103,5.163-3.014,8.726
			C60.205,61.041,61.306,57.337,59.59,53.726z"/>
		<path fill-rule="evenodd" fill="#DFB836" d="M59.577,53.732c-3.219,1.549-5.082,5.153-3.009,8.706L59.577,53.732z"/>
	</g>
	<g>
		<path fill-rule="evenodd" fill="#EFC849" d="M69.687,63.139c-2.19-2.832-6.12-3.901-9.164-1.111
			C62.664,65.279,66.517,65.578,69.687,63.139z"/>
		<path fill-rule="evenodd" fill="#DFB836" d="M69.678,63.128c-2.19-2.821-6.106-3.885-9.146-1.109L69.678,63.128z"/>
	</g>
	<g>
		<path fill-rule="evenodd" fill="#EFC849" d="M53.765,56.069c-3.539,0.556-6.369,3.482-5.392,7.494
			C52.254,63.254,54.372,60.023,53.765,56.069z"/>
		<path fill-rule="evenodd" fill="#DFB836" d="M53.749,56.073c-3.527,0.559-6.345,3.477-5.38,7.476L53.749,56.073z"/>
	</g>
	<g>
		<path fill-rule="evenodd" fill="#EFC849" d="M60.678,68.679c-1.093-3.412-4.423-5.758-8.235-4.173
			C53.347,68.294,56.865,69.888,60.678,68.679z"/>
		<path fill-rule="evenodd" fill="#DFB836" d="M60.674,68.664c-1.098-3.4-4.416-5.734-8.218-4.163L60.674,68.664z"/>
	</g>
	<path fill-rule="evenodd" fill="#DFB836" d="M51.005,69.083c-3.161-1.753-7.101-4.36-11.226-4.36
		c-5.649,0-10.763-2.36-14.464-6.178c-3.696-3.813-5.982-9.074-5.982-14.883c0-4.752,1.531-9.14,4.112-12.666l1.177,1.106
		c-2.314,3.231-3.683,7.229-3.683,11.559c0,5.378,2.111,10.247,5.524,13.766c3.408,3.514,8.116,5.688,13.315,5.688
		c3.758,0,8.365,2.479,11.304,4.338L51.005,69.083z"/>
	<g>
		<path fill-rule="evenodd" fill="#EFC849" d="M24.936,28.274c1.364,3.313,0.333,7.252-3.603,8.501
			C19.581,33.298,21.243,29.81,24.936,28.274z"/>
		<path fill-rule="evenodd" fill="#DFB836" d="M24.941,28.289c1.354,3.306,0.326,7.23-3.594,8.482L24.941,28.289z"/>
	</g>
	<g>
		<path fill-rule="evenodd" fill="#EFC849" d="M25.193,39.905c1.24,3.362,0.063,7.26-3.917,8.361
			C19.656,44.727,21.445,41.301,25.193,39.905z"/>
		<path fill-rule="evenodd" fill="#DFB836" d="M25.198,39.92c1.23,3.354,0.056,7.238-3.908,8.343L25.198,39.92z"/>
	</g>
	<g>
		<path fill-rule="evenodd" fill="#EFC849" d="M14.343,35.22c3.519,0.677,6.247,3.699,5.13,7.675
			C15.606,42.452,13.601,39.149,14.343,35.22z"/>
		<path fill-rule="evenodd" fill="#DFB836" d="M14.358,35.223c3.507,0.682,6.223,3.695,5.119,7.659L14.358,35.223z"/>
	</g>
	<g>
		<path fill-rule="evenodd" fill="#EFC849" d="M26.333,47.38c2.33,2.722,2.579,6.787-0.771,9.201
			C22.813,53.823,23.303,49.991,26.333,47.38z"/>
		<path fill-rule="evenodd" fill="#DFB836" d="M26.342,47.392c2.318,2.719,2.564,6.769-0.77,9.181L26.342,47.392z"/>
	</g>
	<g>
		<path fill-rule="evenodd" fill="#EFC849" d="M14.018,46.217c3.56-0.405,7.065,1.666,7.188,5.794
			C17.382,52.742,14.482,50.188,14.018,46.217z"/>
		<path fill-rule="evenodd" fill="#DFB836" d="M14.033,46.215c3.55-0.395,7.042,1.669,7.172,5.782L14.033,46.215z"/>
	</g>
	<g>
		<path fill-rule="evenodd" fill="#EFC849" d="M15.96,54.865c3.215-1.582,7.214-0.813,8.72,3.032
			C21.327,59.875,17.736,58.449,15.96,54.865z"/>
		<path fill-rule="evenodd" fill="#DFB836" d="M15.975,54.858c3.209-1.569,7.193-0.802,8.701,3.026L15.975,54.858z"/>
	</g>
	<g>
		<path fill-rule="evenodd" fill="#EFC849" d="M30.849,53.726c3.231,1.548,5.103,5.163,3.014,8.726
			C30.234,61.041,29.132,57.337,30.849,53.726z"/>
		<path fill-rule="evenodd" fill="#DFB836" d="M30.862,53.732c3.219,1.549,5.081,5.153,3.007,8.706L30.862,53.732z"/>
	</g>
	<g>
		<path fill-rule="evenodd" fill="#EFC849" d="M20.751,63.139c2.192-2.832,6.121-3.901,9.165-1.111
			C27.775,65.279,23.923,65.578,20.751,63.139z"/>
		<path fill-rule="evenodd" fill="#DFB836" d="M20.76,63.128c2.192-2.821,6.107-3.885,9.146-1.109L20.76,63.128z"/>
	</g>
	<g>
		<path fill-rule="evenodd" fill="#EFC849" d="M36.673,56.069c3.54,0.556,6.37,3.482,5.392,7.494
			C38.185,63.254,36.067,60.023,36.673,56.069z"/>
		<path fill-rule="evenodd" fill="#DFB836" d="M36.688,56.073c3.529,0.559,6.347,3.477,5.381,7.476L36.688,56.073z"/>
	</g>
	<g>
		<path fill-rule="evenodd" fill="#EFC849" d="M29.76,68.679c1.094-3.412,4.422-5.758,8.236-4.173
			C37.092,68.294,33.573,69.888,29.76,68.679z"/>
		<path fill-rule="evenodd" fill="#DFB836" d="M29.765,68.664c1.098-3.4,4.415-5.734,8.218-4.163L29.765,68.664z"/>
	</g>
	<path fill-rule="evenodd" fill="#DF9D51" d="M53.736,56.069c-3.539,0.556-6.369,3.482-5.392,7.494
		C52.225,63.254,54.343,60.023,53.736,56.069z"/>
	<path fill-rule="evenodd" fill="#E8B16F" d="M53.722,56.073c-3.528,0.559-6.348,3.477-5.381,7.476L53.722,56.073z"/>
	<path fill-rule="evenodd" fill="#EFC849" d="M48.087,40.476c3.895-0.422,7.382-2.095,9.996-4.31
		c3.076-2.605,4.974-5.994,4.974-9.052c0-0.875-0.177-1.657-0.509-2.343c-0.525-1.088-1.422-1.896-2.605-2.423
		c-1.098-0.491-2.437-0.736-3.941-0.736c-2.296,0-5.034,0.568-7.914,1.697v2.225c2.907-1.235,5.661-1.856,7.914-1.856
		c1.228,0,2.282,0.183,3.104,0.55c0.737,0.328,1.284,0.809,1.589,1.44c0.194,0.403,0.299,0.885,0.299,1.448
		c0,2.457-1.619,5.259-4.239,7.479c-2.279,1.93-5.296,3.396-8.666,3.808V40.476z"/>
	<path fill-rule="evenodd" fill="#DFB836" d="M42.064,40.476c-3.894-0.422-7.38-2.095-9.996-4.31
		c-3.075-2.605-4.973-5.994-4.973-9.052c0-0.875,0.177-1.657,0.508-2.343c0.526-1.088,1.423-1.896,2.606-2.423
		c1.098-0.491,2.437-0.736,3.941-0.736c2.298,0,5.034,0.568,7.914,1.697v2.225c-2.907-1.235-5.661-1.856-7.914-1.856
		c-1.227,0-2.282,0.183-3.102,0.55c-0.737,0.328-1.285,0.809-1.59,1.44c-0.194,0.403-0.298,0.885-0.298,1.448
		c0,2.457,1.618,5.259,4.239,7.479c2.278,1.93,5.295,3.396,8.665,3.808V40.476z"/>
	<path fill-rule="evenodd" fill="#E74D3D" d="M33.509,58.004h23.076c0.924,0,1.68,0.756,1.68,1.679v10.769
		c0,0.925-0.756,1.68-1.68,1.68H33.509c-0.924,0-1.68-0.755-1.68-1.68V59.683C31.829,58.76,32.584,58.004,33.509,58.004z"/>
	<path fill-rule="evenodd" fill="#D43E2E" d="M44.993,58.004h11.592c0.924,0,1.68,0.756,1.68,1.679v10.769
		c0,0.925-0.756,1.68-1.68,1.68H44.993V58.004z"/>
	<path fill-rule="evenodd" fill="#EF695C" d="M33.509,58.004h23.076c0.924,0,1.68,0.756,1.68,1.679v1.37H31.829v-1.37
		C31.829,58.76,32.584,58.004,33.509,58.004z"/>
	<path fill-rule="evenodd" fill="#E74D3D" d="M45.005,58.016l11.58-0.012c0.924-0.002,1.68,0.756,1.68,1.679v1.37l-13.259,0.013
		V58.016z"/>
	<path fill-rule="evenodd" fill="#EFC849" d="M45.075,17.993c-3.799-0.027-8.543-0.055-12.258-0.083
		c-0.394,6.829,1.033,23.36,10.268,26.584c-0.013,4.666-2.129,10.036-6.396,11.4c0,0.702,0,1.405,0,2.107h8.387V17.993z"/>
	<path fill-rule="evenodd" fill="#DFB836" d="M44.976,17.993c3.799-0.027,8.543-0.055,12.258-0.083
		c0.395,6.829-1.032,23.36-10.267,26.584c0.013,4.666,2.13,10.036,6.396,11.4c0,0.702,0,1.405,0,2.107h-8.388V17.993z"/>
	<rect x="36.085" y="55.851" fill-rule="evenodd" fill="#F2D679" width="17.895" height="2.151"/>
	<rect x="44.989" y="55.851" fill-rule="evenodd" fill="#EFC849" width="8.99" height="2.151"/>
	<polygon fill-rule="evenodd" fill="#FFFFFF" points="44.915,23.457 47.051,27.102 51.177,28.007 48.371,31.163 48.785,35.368 
		44.915,33.675 41.045,35.368 41.458,31.163 38.653,28.007 42.78,27.102 	"/>
	<polygon fill-rule="evenodd" fill="#E6E6E5" points="44.984,23.574 47.051,27.102 51.177,28.007 48.371,31.163 48.785,35.368 
		44.984,33.705 	"/>
</g>
</svg>
