<?xml version="1.0" encoding="UTF-8" standalone="no"?>
<!-- Generator: Adobe Illustrator 16.2.0, SVG Export Plug-In . SVG Version: 6.00 Build 0)  -->

<svg
   xmlns:dc="http://purl.org/dc/elements/1.1/"
   xmlns:cc="http://creativecommons.org/ns#"
   xmlns:rdf="http://www.w3.org/1999/02/22-rdf-syntax-ns#"
   xmlns:svg="http://www.w3.org/2000/svg"
   xmlns="http://www.w3.org/2000/svg"
   xmlns:sodipodi="http://sodipodi.sourceforge.net/DTD/sodipodi-0.dtd"
   xmlns:inkscape="http://www.inkscape.org/namespaces/inkscape"
   version="1.2"
   id="Слой_1"
   x="0px"
   y="0px"
   width="26"
   height="33"
   viewBox="0 0 26 33"
   xml:space="preserve"
   inkscape:version="0.48.4 r9939"
   sodipodi:docname="biznes_plan.svg"><metadata
     id="metadata43"><rdf:RDF><cc:Work
         rdf:about=""><dc:format>image/svg+xml</dc:format><dc:type
           rdf:resource="http://purl.org/dc/dcmitype/StillImage" /><dc:title></dc:title></cc:Work></rdf:RDF></metadata><defs
     id="defs41" /><sodipodi:namedview
     pagecolor="#ffffff"
     bordercolor="#666666"
     borderopacity="1"
     objecttolerance="10"
     gridtolerance="10"
     guidetolerance="10"
     inkscape:pageopacity="0"
     inkscape:pageshadow="2"
     inkscape:window-width="1920"
     inkscape:window-height="1176"
     id="namedview39"
     showgrid="true"
     inkscape:zoom="11.125147"
     inkscape:cx="24.121886"
     inkscape:cy="22.036884"
     inkscape:window-x="0"
     inkscape:window-y="24"
     inkscape:window-maximized="1"
     inkscape:current-layer="Слой_1"><inkscape:grid
       type="xygrid"
       id="grid3020"
       empspacing="5"
       visible="true"
       enabled="true"
       snapvisiblegridlinesonly="true" /></sodipodi:namedview><rect
     x="2.8276973"
     y="2.5893693"
     width="23.027931"
     height="30.530838"
     id="rect3"
     style="fill:#a5bac4;fill-rule:evenodd" /><polygon
     points="7.27,0.509 7.27,55.016 48.447,55.016 48.447,11.333 37.625,0.509 "
     id="polygon5"
     style="fill:#e7f2f8;fill-rule:evenodd"
     transform="matrix(0.55950074,0,0,0.55950074,-3.628941,-0.16505298)" /><polygon
     points="27.899,0.509 27.899,55.016 48.447,55.016 48.447,11.333 37.625,0.509 "
     id="polygon7"
     style="fill:#c7d9e0;fill-rule:evenodd"
     transform="matrix(0.55950074,0,0,0.55950074,-3.628941,-0.16505298)" /><polygon
     points="37.65,11.318 48.434,11.318 37.65,0.535 "
     id="polygon9"
     style="fill:#e7f2f8;fill-rule:evenodd"
     transform="matrix(0.55950074,0,0,0.55950074,-3.628941,-0.16505298)" /><rect
     x="9.1103315"
     y="5.3191738"
     width="5.9245529"
     height="0.77099198"
     id="rect11"
     style="fill:#6b6c6c;fill-rule:evenodd" /><rect
     x="11.99344"
     y="5.3191738"
     width="3.041446"
     height="0.77099198"
     id="rect13"
     style="fill:#565656;fill-rule:evenodd" /><rect
     x="5.3583193"
     y="8.2671833"
     width="13.429696"
     height="0.77099198"
     id="rect15"
     style="fill:#6b6c6c;fill-rule:evenodd" /><rect
     x="11.99344"
     y="8.2666235"
     width="6.7940173"
     height="0.77155149"
     id="rect17"
     style="fill:#565656;fill-rule:evenodd" /><rect
     x="5.3583193"
     y="9.962471"
     width="9.796299"
     height="0.77099198"
     id="rect19"
     style="fill:#6b6c6c;fill-rule:evenodd" /><rect
     x="11.99344"
     y="9.962471"
     width="3.1606197"
     height="0.77099198"
     id="rect21"
     style="fill:#565656;fill-rule:evenodd" /><rect
     x="6.2736626"
     y="13.232193"
     width="0.58355922"
     height="15.340951"
     id="rect23"
     style="fill:#354859;fill-rule:evenodd" /><rect
     x="5.2889414"
     y="26.95059"
     width="13.864429"
     height="0.58299977"
     id="rect25"
     style="fill:#354859;fill-rule:evenodd" /><polygon
     points="19.233,24.997 20.249,27.193 18.218,27.193 16.188,27.193 17.203,24.997 18.218,22.8 "
     id="polygon27"
     style="fill:#354859;fill-rule:evenodd"
     transform="matrix(0.55950074,0,0,0.55950074,-3.628941,-0.16505298)" /><polygon
     points="39.719,47.957 37.522,46.942 37.522,48.974 37.522,51.003 39.719,49.988 41.914,48.974 "
     id="polygon29"
     style="fill:#354859;fill-rule:evenodd"
     transform="matrix(0.55950074,0,0,0.55950074,-3.628941,-0.16505298)" /><rect
     x="7.5454082"
     y="20.425692"
     width="2.4690766"
     height="5.7214546"
     id="rect31"
     style="fill:#3e98d3;fill-rule:evenodd" /><rect
     x="10.953885"
     y="18.505486"
     width="2.4685173"
     height="7.6411014"
     id="rect33"
     style="fill:#27ae61;fill-rule:evenodd" /><rect
     x="14.324318"
     y="14.038433"
     width="2.4679577"
     height="12.107037"
     id="rect35"
     style="fill:#ca3527;fill-rule:evenodd" /><rect
     x="12.094149"
     y="18.505486"
     width="1.3288143"
     height="7.6411014"
     id="rect37"
     style="fill:#1e944e;fill-rule:evenodd" /></svg>