<?xml version="1.0" encoding="UTF-8" standalone="no"?>
<!-- Generator: Adobe Illustrator 16.2.0, SVG Export Plug-In . SVG Version: 6.00 Build 0)  -->

<svg
   xmlns:dc="http://purl.org/dc/elements/1.1/"
   xmlns:cc="http://creativecommons.org/ns#"
   xmlns:rdf="http://www.w3.org/1999/02/22-rdf-syntax-ns#"
   xmlns:svg="http://www.w3.org/2000/svg"
   xmlns="http://www.w3.org/2000/svg"
   xmlns:sodipodi="http://sodipodi.sourceforge.net/DTD/sodipodi-0.dtd"
   xmlns:inkscape="http://www.inkscape.org/namespaces/inkscape"
   version="1.2"
   id="Слой_1"
   x="0px"
   y="0px"
   width="29"
   height="33"
   viewBox="0 0 29 33"
   xml:space="preserve"
   inkscape:version="0.48.4 r9939"
   sodipodi:docname="chertezh.svg"><metadata
     id="metadata3249"><rdf:RDF><cc:Work
         rdf:about=""><dc:format>image/svg+xml</dc:format><dc:type
           rdf:resource="http://purl.org/dc/dcmitype/StillImage" /><dc:title></dc:title></cc:Work></rdf:RDF></metadata><defs
     id="defs3247" /><sodipodi:namedview
     pagecolor="#ffffff"
     bordercolor="#666666"
     borderopacity="1"
     objecttolerance="10"
     gridtolerance="10"
     guidetolerance="10"
     inkscape:pageopacity="0"
     inkscape:pageshadow="2"
     inkscape:window-width="1920"
     inkscape:window-height="1176"
     id="namedview3245"
     showgrid="false"
     inkscape:zoom="11.125147"
     inkscape:cx="35.626633"
     inkscape:cy="27.323855"
     inkscape:window-x="0"
     inkscape:window-y="24"
     inkscape:window-maximized="1"
     inkscape:current-layer="Слой_1" /><polygon
     points="48.998,59.494 48.998,12.21 48.997,0.51 37.282,0.493 4.424,0.493 4.424,59.494 "
     id="polygon3191"
     transform="matrix(0.55983839,0,0,0.55983839,-2.4660071,-0.18381967)"
     style="fill:#e7f2f8;fill-rule:evenodd" /><polygon
     points="48.998,59.494 48.998,12.21 48.998,0.51 37.282,0.493 26.753,0.493 26.753,59.494 "
     id="polygon3193"
     transform="matrix(0.55983839,0,0,0.55983839,-2.4660071,-0.18381967)"
     style="fill:#c7d9e0;fill-rule:evenodd" /><rect
     x="2.6111667"
     y="21.92308"
     width="25.969784"
     height="5.9309282"
     id="rect3195"
     style="fill:#f5da80;fill-rule:evenodd" /><rect
     x="-22.123749"
     y="-9.2894526"
     transform="matrix(-0.8849963,-0.46559805,0.46559805,-0.8849963,0,0)"
     width="5.593369"
     height="15.662664"
     id="rect3197"
     style="fill:#e74d3d;fill-rule:evenodd" /><rect
     x="-18.033436"
     y="-9.2882195"
     transform="matrix(-0.8849963,-0.46559805,0.46559805,-0.8849963,0,0)"
     width="1.5026125"
     height="15.662664"
     id="rect3199"
     style="fill:#ec7c71;fill-rule:evenodd" /><rect
     x="-22.123837"
     y="-9.2892427"
     transform="matrix(-0.8849963,-0.46559805,0.46559805,-0.8849963,0,0)"
     width="1.5350833"
     height="15.662664"
     id="rect3201"
     style="fill:#ca3527;fill-rule:evenodd" /><polygon
     points="27.28,36.39 31.683,33.414 27.24,31.076 22.797,28.738 22.837,34.054 22.877,39.366 "
     id="polygon3203"
     transform="matrix(0.55983839,0,0,0.55983839,-2.4660071,-0.18381967)"
     style="fill:#d6af2c;fill-rule:evenodd" /><polygon
     points="22.864,37.57 27.333,31.124 27.239,31.075 22.797,28.738 22.837,34.052 "
     id="polygon3205"
     transform="matrix(0.55983839,0,0,0.55983839,-2.4660071,-0.18381967)"
     style="fill:#f5da80;fill-rule:evenodd" /><polygon
     points="22.995,38.908 29.265,32.142 27.239,31.075 25.201,30.002 "
     id="polygon3207"
     transform="matrix(0.55983839,0,0,0.55983839,-2.4660071,-0.18381967)"
     style="fill:#efc849;fill-rule:evenodd" /><polygon
     points="22.837,34.054 22.877,39.366 27.279,36.39 27.719,36.094 22.833,33.522 "
     id="polygon3209"
     transform="matrix(0.55983839,0,0,0.55983839,-2.4660071,-0.18381967)"
     style="fill:#495a6c;fill-rule:evenodd" /><polygon
     points="26.318,35.356 23.045,39.253 27.28,36.392 27.719,36.094 "
     id="polygon3211"
     transform="matrix(0.55983839,0,0,0.55983839,-2.4660071,-0.18381967)"
     style="fill:#354859;fill-rule:evenodd" /><polygon
     points="22.875,39.18 24.155,34.219 22.833,33.522 22.837,34.054 "
     id="polygon3213"
     transform="matrix(0.55983839,0,0,0.55983839,-2.4660071,-0.18381967)"
     style="fill:#586d80;fill-rule:evenodd" /><rect
     x="2.6111667"
     y="24.956844"
     width="25.969784"
     height="2.8971636"
     id="rect3215"
     style="fill:#d6af2c;fill-rule:evenodd" /><rect
     x="3.5964839"
     y="22.572489"
     width="0.72443092"
     height="2.4448142"
     id="rect3217"
     style="fill:#495a6c;fill-rule:evenodd" /><rect
     x="5.4075575"
     y="22.572489"
     width="0.72387099"
     height="0.93772924"
     id="rect3219"
     style="fill:#495a6c;fill-rule:evenodd" /><rect
     x="7.4688826"
     y="22.572489"
     width="0.72387099"
     height="0.93772924"
     id="rect3221"
     style="fill:#495a6c;fill-rule:evenodd" /><rect
     x="9.3801756"
     y="22.572489"
     width="0.72387099"
     height="2.4448142"
     id="rect3223"
     style="fill:#495a6c;fill-rule:evenodd" /><rect
     x="11.200767"
     y="22.572489"
     width="0.72387099"
     height="0.93772924"
     id="rect3225"
     style="fill:#495a6c;fill-rule:evenodd" /><rect
     x="13.261531"
     y="22.572489"
     width="0.72443092"
     height="0.93772924"
     id="rect3227"
     style="fill:#495a6c;fill-rule:evenodd" /><rect
     x="15.173381"
     y="22.572489"
     width="0.72331125"
     height="2.4448142"
     id="rect3229"
     style="fill:#495a6c;fill-rule:evenodd" /><rect
     x="15.181777"
     y="22.572489"
     width="0.72499067"
     height="2.4448142"
     id="rect3231"
     style="fill:#495a6c;fill-rule:evenodd" /><rect
     x="16.993971"
     y="22.572489"
     width="0.72387099"
     height="0.93772924"
     id="rect3233"
     style="fill:#495a6c;fill-rule:evenodd" /><rect
     x="19.0553"
     y="22.572489"
     width="0.72387099"
     height="0.93772924"
     id="rect3235"
     style="fill:#495a6c;fill-rule:evenodd" /><rect
     x="20.966024"
     y="22.572489"
     width="0.72387099"
     height="2.4448142"
     id="rect3237"
     style="fill:#495a6c;fill-rule:evenodd" /><rect
     x="22.786062"
     y="22.572489"
     width="0.72443092"
     height="0.93772924"
     id="rect3239"
     style="fill:#495a6c;fill-rule:evenodd" /><rect
     x="24.848509"
     y="22.572489"
     width="0.72443092"
     height="0.93772924"
     id="rect3241"
     style="fill:#495a6c;fill-rule:evenodd" /><rect
     x="26.758677"
     y="22.572489"
     width="0.72443092"
     height="2.4448142"
     id="rect3243"
     style="fill:#495a6c;fill-rule:evenodd" /></svg>