<?xml version="1.0" encoding="UTF-8" standalone="no"?>
<!-- Generator: Adobe Illustrator 16.2.0, SVG Export Plug-In . SVG Version: 6.00 Build 0)  -->

<svg
   xmlns:dc="http://purl.org/dc/elements/1.1/"
   xmlns:cc="http://creativecommons.org/ns#"
   xmlns:rdf="http://www.w3.org/1999/02/22-rdf-syntax-ns#"
   xmlns:svg="http://www.w3.org/2000/svg"
   xmlns="http://www.w3.org/2000/svg"
   xmlns:sodipodi="http://sodipodi.sourceforge.net/DTD/sodipodi-0.dtd"
   xmlns:inkscape="http://www.inkscape.org/namespaces/inkscape"
   version="1.2"
   id="Слой_1"
   x="0px"
   y="0px"
   width="40"
   height="33"
   viewBox="0 0 40 33"
   xml:space="preserve"
   inkscape:version="0.48.4 r9939"
   sodipodi:docname="diplom.svg"><metadata
     id="metadata55"><rdf:RDF><cc:Work
         rdf:about=""><dc:format>image/svg+xml</dc:format><dc:type
           rdf:resource="http://purl.org/dc/dcmitype/StillImage" /><dc:title></dc:title></cc:Work></rdf:RDF></metadata><defs
     id="defs53" /><sodipodi:namedview
     pagecolor="#ffffff"
     bordercolor="#666666"
     borderopacity="1"
     objecttolerance="10"
     gridtolerance="10"
     guidetolerance="10"
     inkscape:pageopacity="0"
     inkscape:pageshadow="2"
     inkscape:window-width="1920"
     inkscape:window-height="1176"
     id="namedview51"
     showgrid="false"
     inkscape:zoom="7.8666667"
     inkscape:cx="21.897709"
     inkscape:cy="22.582214"
     inkscape:window-x="0"
     inkscape:window-y="24"
     inkscape:window-maximized="1"
     inkscape:current-layer="Слой_1" /><rect
     x="2.3518982"
     y="0.13484757"
     width="34.909893"
     height="26.330019"
     id="rect3"
     style="fill:#e7f2f8;fill-rule:evenodd" /><rect
     x="19.803024"
     y="0.13484757"
     width="17.458126"
     height="26.330019"
     id="rect5"
     style="fill:#c7d9e0;fill-rule:evenodd" /><rect
     x="13.759069"
     y="16.857519"
     width="11.448525"
     height="0.88050896"
     id="rect7"
     style="fill:#6b6c6c;fill-rule:evenodd" /><rect
     x="19.797935"
     y="16.857519"
     width="5.7423944"
     height="0.88050896"
     id="rect9"
     style="fill:#565656;fill-rule:evenodd" /><rect
     x="11.994871"
     y="18.846935"
     width="15.875882"
     height="0.88114518"
     id="rect11"
     style="fill:#6b6c6c;fill-rule:evenodd" /><rect
     x="19.839289"
     y="18.846935"
     width="8.0314627"
     height="0.88241756"
     id="rect13"
     style="fill:#565656;fill-rule:evenodd" /><rect
     x="14.861616"
     y="7.4607582"
     width="10.143031"
     height="0.8817814"
     id="rect15"
     style="fill:#6b6c6c;fill-rule:evenodd" /><rect
     x="19.797935"
     y="7.4607582"
     width="5.2067094"
     height="0.8817814"
     id="rect17"
     style="fill:#565656;fill-rule:evenodd" /><rect
     x="8.4365711"
     y="10.831377"
     width="22.991209"
     height="0.88114518"
     id="rect19"
     style="fill:#6b6c6c;fill-rule:evenodd" /><rect
     x="19.797935"
     y="10.83074"
     width="11.631116"
     height="0.8817814"
     id="rect21"
     style="fill:#565656;fill-rule:evenodd" /><rect
     x="13.759069"
     y="12.769896"
     width="11.448525"
     height="0.88114518"
     id="rect23"
     style="fill:#6b6c6c;fill-rule:evenodd" /><rect
     x="19.797935"
     y="12.769896"
     width="5.7423944"
     height="0.88114518"
     id="rect25"
     style="fill:#565656;fill-rule:evenodd" /><rect
     x="11.994871"
     y="14.760584"
     width="15.875882"
     height="0.88114518"
     id="rect27"
     style="fill:#6b6c6c;fill-rule:evenodd" /><rect
     x="19.839289"
     y="14.760584"
     width="8.0314627"
     height="0.88114518"
     id="rect29"
     style="fill:#565656;fill-rule:evenodd" /><path
     d="M 2.3518983,26.478225 V 0.14757116 H 19.782667 V 1.3156452 c -2.965355,0.00382 -5.742394,0.5973974 -8.130711,1.6312319 -0.795257,-0.7297282 -1.85454,-1.1763447 -3.0175244,-1.1763447 -2.462753,0 -4.4591672,1.9964141 -4.4591672,4.4591673 0,0.890052 0.2614807,1.7196645 0.7112782,2.4156738 -0.8181608,1.4346445 -1.2711394,3.0117985 -1.2711394,4.6672065 0,1.582244 0.4148063,3.09196 1.1655293,4.476344 -0.3842684,0.657837 -0.6056681,1.425738 -0.6056681,2.243262 0,2.462117 1.9970504,4.458531 4.4591672,4.458531 1.0306536,0 1.9792364,-0.349277 2.7344134,-0.937767 2.450664,1.112724 5.331405,1.75402 8.413822,1.756564 v 1.168074 H 2.3518983 z"
     id="path31"
     inkscape:connector-curvature="0"
     style="fill:#efc849;fill-rule:evenodd" /><path
     d="M 37.173992,26.478225 V 0.14757116 H 19.743859 V 1.3156452 c 2.964083,0.00382 5.741758,0.5973974 8.130711,1.6312319 0.792713,-0.7297282 1.852632,-1.1763447 3.016889,-1.1763447 2.463389,0 4.459803,1.9964141 4.459803,4.4591673 0,0.890052 -0.26148,1.7196645 -0.711914,2.4156738 0.818797,1.4346445 1.272412,3.0117985 1.272412,4.6672065 0,1.582244 -0.414807,3.09196 -1.16553,4.476344 0.383633,0.657837 0.605032,1.425738 0.605032,2.243262 0,2.462117 -1.996414,4.458531 -4.459803,4.458531 -1.030018,0 -1.979237,-0.349277 -2.735049,-0.937767 -2.451302,1.112724 -5.330133,1.75402 -8.413187,1.756564 v 1.168074 h 17.430769 z"
     id="path33"
     inkscape:connector-curvature="0"
     style="fill:#d6af2c;fill-rule:evenodd" /><polygon
     points="53.483,53.686 51.52,57.084 46.279,37.524 51.641,36.09 56.884,55.648 "
     id="polygon35"
     style="fill:#354859;fill-rule:evenodd"
     transform="matrix(0.63620591,0,0,0.63620591,2.1495848,-3.1823306)" /><polygon
     points="38.915,53.686 40.879,57.084 46.119,37.524 40.757,36.09 35.515,55.648 "
     id="polygon37"
     style="fill:#495a6c;fill-rule:evenodd"
     transform="matrix(0.63620591,0,0,0.63620591,2.1495848,-3.1823306)" /><polygon
     points="59.41,28.126 58.914,30.575 59.484,33.007 58.12,35.118 57.754,37.591 55.705,39.081 54.454,41.261 51.999,41.927 50.032,43.521 47.5,43.271 45.081,44.063 42.815,42.938 40.273,42.819 38.579,40.964 36.255,39.953 35.362,37.62 33.571,35.854 33.6,33.358 32.583,31.073 33.529,28.754 33.426,26.26 35.162,24.428 35.984,22.062 38.275,20.965 39.913,19.045 42.449,18.832 44.68,17.62 47.121,18.319 49.644,17.977 51.659,19.493 54.133,20.067 55.45,22.197 57.541,23.609 57.982,26.066 "
     id="polygon39"
     style="fill:#e74d3d;fill-rule:evenodd"
     transform="matrix(0.63620591,0,0,0.63620591,2.1495848,-3.1823306)" /><polygon
     points="59.41,28.126 58.914,30.575 59.484,33.007 58.12,35.118 57.754,37.589 55.705,39.081 54.454,41.261 51.999,41.927 50.032,43.521 47.5,43.273 46.087,43.736 46.087,18.023 47.121,18.319 49.644,17.976 51.659,19.494 54.133,20.066 55.45,22.198 57.541,23.61 57.982,26.065 "
     id="polygon41"
     style="fill:#d43e2e;fill-rule:evenodd"
     transform="matrix(0.63620591,0,0,0.63620591,2.1495848,-3.1823306)" /><path
     d="m 31.436687,10.144275 c 1.738115,0 3.312088,0.704279 4.451533,1.843724 1.138809,1.139445 1.842452,2.712782 1.842452,4.450896 0,1.738115 -0.703643,3.312088 -1.842452,4.451533 -1.139445,1.140081 -2.713418,1.844361 -4.451533,1.844361 -1.738114,0 -3.312088,-0.70428 -4.452169,-1.844361 -1.138172,-1.139445 -1.842452,-2.713418 -1.842452,-4.451533 0,-1.737478 0.70428,-3.311451 1.842452,-4.450896 1.140081,-1.139445 2.714055,-1.843724 4.452169,-1.843724 m 3.907577,2.387044 c -0.99948,-1.000116 -2.381319,-1.617872 -3.907577,-1.617872 -1.526258,0 -2.907461,0.618393 -3.907576,1.617872 -1.000116,1.000115 -1.619781,2.381318 -1.619781,3.907576 0,1.526258 0.619665,2.907461 1.619781,3.908849 0.999479,0.998844 2.381318,1.618508 3.907576,1.618508 1.526258,0 2.907461,-0.619664 3.907577,-1.618508 1.000116,-0.999479 1.618508,-2.382591 1.618508,-3.908849 0,-1.526258 -0.618392,-2.907461 -1.618508,-3.907576"
     id="path43"
     inkscape:connector-curvature="0"
     style="fill:#dededd;fill-rule:evenodd" /><path
     d="m 31.470406,10.144275 c 1.724118,0.0095 3.286004,0.711914 4.417814,1.843724 1.138809,1.139445 1.842452,2.712782 1.842452,4.450896 0,1.738115 -0.703643,3.312088 -1.842452,4.451533 -1.13181,1.13181 -2.693696,1.835454 -4.417814,1.844361 v -0.770445 c 1.512898,-0.0076 2.882013,-0.624118 3.873858,-1.617236 1.000116,-0.999479 1.618508,-2.381318 1.618508,-3.908849 0,-1.525622 -0.618392,-2.907461 -1.618508,-3.907576 -0.991845,-0.993118 -2.36096,-1.609601 -3.873858,-1.617872 v -0.768536 z"
     id="path45"
     inkscape:connector-curvature="0"
     style="fill:#bec3c7;fill-rule:evenodd" /><polygon
     points="40.338,28.884 44.093,28.06 46.034,24.746 47.978,28.06 51.728,28.884 49.178,31.756 49.554,35.579 46.034,34.039 42.514,35.579 42.891,31.756 "
     id="polygon47"
     style="fill:#efc849;fill-rule:evenodd"
     transform="matrix(0.63620591,0,0,0.63620591,2.1495848,-3.1823306)" /><polygon
     points="51.728,28.884 49.178,31.756 49.554,35.577 46.097,34.065 46.097,24.852 47.978,28.06 "
     id="polygon49"
     style="fill:#d6af2c;fill-rule:evenodd"
     transform="matrix(0.63620591,0,0,0.63620591,2.1495848,-3.1823306)" /></svg>