<?xml version="1.0" encoding="UTF-8" standalone="no"?>
<!-- Generator: Adobe Illustrator 16.2.0, SVG Export Plug-In . SVG Version: 6.00 Build 0)  -->

<svg
   xmlns:dc="http://purl.org/dc/elements/1.1/"
   xmlns:cc="http://creativecommons.org/ns#"
   xmlns:rdf="http://www.w3.org/1999/02/22-rdf-syntax-ns#"
   xmlns:svg="http://www.w3.org/2000/svg"
   xmlns="http://www.w3.org/2000/svg"
   xmlns:sodipodi="http://sodipodi.sourceforge.net/DTD/sodipodi-0.dtd"
   xmlns:inkscape="http://www.inkscape.org/namespaces/inkscape"
   version="1.2"
   id="Слой_1"
   x="0px"
   y="0px"
   width="24"
   height="33"
   viewBox="0 0 24 33"
   xml:space="preserve"
   inkscape:version="0.48.4 r9939"
   sodipodi:docname="dissertacija.svg"><metadata
     id="metadata41"><rdf:RDF><cc:Work
         rdf:about=""><dc:format>image/svg+xml</dc:format><dc:type
           rdf:resource="http://purl.org/dc/dcmitype/StillImage" /><dc:title></dc:title></cc:Work></rdf:RDF></metadata><defs
     id="defs39" /><sodipodi:namedview
     pagecolor="#ffffff"
     bordercolor="#666666"
     borderopacity="1"
     objecttolerance="10"
     gridtolerance="10"
     guidetolerance="10"
     inkscape:pageopacity="0"
     inkscape:pageshadow="2"
     inkscape:window-width="1920"
     inkscape:window-height="1176"
     id="namedview37"
     showgrid="false"
     inkscape:zoom="11.125147"
     inkscape:cx="26.765372"
     inkscape:cy="22.707063"
     inkscape:window-x="0"
     inkscape:window-y="24"
     inkscape:window-maximized="1"
     inkscape:current-layer="Слой_1" /><path
     d="M 1.8081131,4.0180576 H 22.354696 c 0.983516,0 1.786442,0.8040377 1.786442,1.7869976 V 31.264214 c 0,0.983516 -0.802926,1.786998 -1.786442,1.786998 H 1.8081131 c -0.98295949,0 -1.78588589,-0.803482 -1.78588589,-1.786998 V 5.8050552 C 0.02167151,4.8220953 0.82515361,4.0180576 1.8081131,4.0180576"
     id="path3"
     inkscape:connector-curvature="0"
     style="fill:#495a6c;fill-rule:evenodd" /><path
     d="m 13.48861,4.0208359 8.86553,-0.00222 c 0.98296,-5.556e-4 1.786998,0.8045935 1.786998,1.7869976 V 31.264773 c 0,0.98296 -0.804038,1.787553 -1.786998,1.787553 l -8.86553,0.0022 V 4.0208359 z"
     id="path5"
     inkscape:connector-curvature="0"
     style="fill:#354859;fill-rule:evenodd" /><path
     d="M 2.9066501,4.4664739 H 22.946472 c 0.661234,0 1.20189,0.5412114 1.20189,1.2030006 V 30.280699 c 0,0.661234 -0.540656,1.202445 -1.20189,1.202445 H 2.9066501 c -0.661789,0 -1.2030004,-0.541211 -1.2030004,-1.202445 V 5.6694745 C 1.7042053,5.0076853 2.2448611,4.4664739 2.9066501,4.4664739"
     id="path7"
     inkscape:connector-curvature="0"
     style="fill:#e7f2f8;fill-rule:evenodd" /><path
     d="m 13.48861,4.4686966 9.457862,-0.00222 c 0.661234,0 1.20189,0.5412114 1.20189,1.2024449 V 30.281258 c 0,0.660122 -0.540656,1.201889 -1.20189,1.201889 l -9.457862,0.0017 V 4.4686966 z"
     id="path9"
     inkscape:connector-curvature="0"
     style="fill:#c7d9e0;fill-rule:evenodd" /><path
     d="M 1.8081131,0.05454582 H 22.354696 c 0.983516,0 1.786442,0.80348213 1.786442,1.78699758 V 27.077884 c 0,0.982959 -0.802926,1.786997 -1.786442,1.786997 H 1.8081131 c -0.98295949,0 -1.78588589,-0.804038 -1.78588589,-1.786997 V 1.8409877 C 0.02167151,0.85802795 0.82515361,0.05454582 1.8081131,0.05454582"
     id="path11"
     inkscape:connector-curvature="0"
     style="fill:#efc849;fill-rule:evenodd" /><path
     d="m 13.48861,0.05454582 h 8.86553 c 0.983516,0 1.786998,0.80403778 1.786998,1.78699758 V 27.077884 c 0,0.982959 -0.804038,1.786997 -1.786998,1.786997 H 13.48861 V 0.05454582 z"
     id="path13"
     inkscape:connector-curvature="0"
     style="fill:#d6af2c;fill-rule:evenodd" /><rect
     x="6.2061505"
     y="4.2147603"
     width="14.357659"
     height="9.3072796"
     id="rect15"
     style="fill:#e7f2f8;fill-rule:evenodd" /><rect
     x="13.510838"
     y="4.2147603"
     width="7.0524173"
     height="9.3072796"
     id="rect17"
     style="fill:#c7d9e0;fill-rule:evenodd" /><rect
     x="11.345991"
     y="7.2553239"
     width="4.3919244"
     height="0.90294498"
     id="rect19"
     style="fill:#495a6c;fill-rule:evenodd" /><rect
     x="13.483051"
     y="7.2558794"
     width="2.2548621"
     height="0.90294498"
     id="rect21"
     style="fill:#354859;fill-rule:evenodd" /><rect
     x="8.5899258"
     y="9.6629915"
     width="9.9540653"
     height="0.92405999"
     id="rect23"
     style="fill:#495a6c;fill-rule:evenodd" /><rect
     x="13.508059"
     y="9.6629915"
     width="5.0359325"
     height="0.92405999"
     id="rect25"
     style="fill:#354859;fill-rule:evenodd" /><rect
     x="9.2339325"
     y="19.845434"
     width="8.6143732"
     height="0.90238929"
     id="rect27"
     style="fill:#495a6c;fill-rule:evenodd" /><rect
     x="13.490276"
     y="19.845434"
     width="4.3580294"
     height="0.90294498"
     id="rect29"
     style="fill:#354859;fill-rule:evenodd" /><rect
     x="9.2339325"
     y="22.2381"
     width="8.6143732"
     height="0.90350068"
     id="rect31"
     style="fill:#495a6c;fill-rule:evenodd" /><rect
     x="13.490276"
     y="22.2381"
     width="4.3580294"
     height="0.90350068"
     id="rect33"
     style="fill:#354859;fill-rule:evenodd" /><path
     d="m 1.3580301,0.05454582 h 2.511576 V 28.913224 h -2.511576 c -0.74402669,0 -1.35358399,-0.609002 -1.35358399,-1.353584 V 1.4075741 c 0,-0.74347095 0.6090017,-1.35302828 1.35358399,-1.35302828"
     id="path35"
     inkscape:connector-curvature="0"
     style="fill:#495a6c;fill-rule:evenodd" /></svg>