<?xml version="1.0" encoding="utf-8"?>
<!-- Generator: Adobe Illustrator 16.2.0, SVG Export Plug-In . SVG Version: 6.00 Build 0)  -->
<!DOCTYPE svg PUBLIC "-//W3C//DTD SVG 1.1//EN" "http://www.w3.org/Graphics/SVG/1.1/DTD/svg11.dtd">
<svg version="1.1" id="Layer_1" xmlns="http://www.w3.org/2000/svg" xmlns:xlink="http://www.w3.org/1999/xlink" x="0px" y="0px"
	 width="60px" height="60px" viewBox="43.497 46.497 60 60" enable-background="new 43.497 46.497 60 60" xml:space="preserve">
<g>
	<g>
		<path fill="#38627F" d="M94.056,100.481c0,2.529-2.051,4.581-4.581,4.581H54.154c-2.53,0-4.581-2.052-4.581-4.581V54.977
			c0-2.53,2.051-4.581,4.581-4.581h35.321c2.53,0,4.581,2.051,4.581,4.581V100.481z"/>
	</g>
	<g>
		<g>
			<rect x="52.17" y="47.931" fill="#0092D1" width="18.636" height="54.667"/>
		</g>
		<g>
			<path fill="#2985C7" d="M87.293,47.931H70.806v54.667h16.487c2.529,0,4.581-2.051,4.581-4.581V52.512
				C91.875,49.981,89.823,47.931,87.293,47.931z"/>
		</g>
	</g>
	<g>
		<path fill="#38627F" d="M99.604,63.884c0,1.788-1.041,3.413-2.664,4.161l-5.336,2.457V51.785l4.949,1.753
			c1.829,0.648,3.051,2.378,3.051,4.318V63.884z"/>
	</g>
	<g>
		<path fill="#38627F" d="M51.97,47.931c-2.529,0-4.581,2.051-4.581,4.581v45.505c0,2.53,2.052,4.581,4.581,4.581h0.199V47.931
			H51.97z"/>
	</g>
	<g>
		<rect x="60.113" y="56.751" fill="#D7E4EB" width="22.667" height="15.234"/>
	</g>
	<g>
		<rect x="64.511" y="59.152" fill="#575756" width="13.251" height="2"/>
	</g>
	<g>
		<rect x="67.469" y="63.229" fill="#575756" width="7.335" height="2"/>
	</g>
	<g>
		<rect x="64.511" y="67.221" fill="#575756" width="13.251" height="2"/>
	</g>
</g>
</svg>
