<?xml version="1.0" encoding="UTF-8" standalone="no"?>
<!-- Generator: Adobe Illustrator 16.2.0, SVG Export Plug-In . SVG Version: 6.00 Build 0)  -->

<svg
   xmlns:dc="http://purl.org/dc/elements/1.1/"
   xmlns:cc="http://creativecommons.org/ns#"
   xmlns:rdf="http://www.w3.org/1999/02/22-rdf-syntax-ns#"
   xmlns:svg="http://www.w3.org/2000/svg"
   xmlns="http://www.w3.org/2000/svg"
   xmlns:sodipodi="http://sodipodi.sourceforge.net/DTD/sodipodi-0.dtd"
   xmlns:inkscape="http://www.inkscape.org/namespaces/inkscape"
   version="1.2"
   id="Слой_1"
   x="0px"
   y="0px"
   width="23"
   height="33"
   viewBox="0 0 23 33"
   xml:space="preserve"
   inkscape:version="0.48.4 r9939"
   sodipodi:docname="esse.svg"><metadata
     id="metadata73"><rdf:RDF><cc:Work
         rdf:about=""><dc:format>image/svg+xml</dc:format><dc:type
           rdf:resource="http://purl.org/dc/dcmitype/StillImage" /><dc:title></dc:title></cc:Work></rdf:RDF></metadata><defs
     id="defs71" /><sodipodi:namedview
     pagecolor="#ffffff"
     bordercolor="#666666"
     borderopacity="1"
     objecttolerance="10"
     gridtolerance="10"
     guidetolerance="10"
     inkscape:pageopacity="0"
     inkscape:pageshadow="2"
     inkscape:window-width="1920"
     inkscape:window-height="1176"
     id="namedview69"
     showgrid="false"
     inkscape:zoom="11.125147"
     inkscape:cx="14.925536"
     inkscape:cy="29.297161"
     inkscape:window-x="0"
     inkscape:window-y="24"
     inkscape:window-maximized="1"
     inkscape:current-layer="Слой_1" /><path
     d="m 11.348376,3.0955972 c 0.855975,0 1.550414,-0.6944388 1.550414,-1.5509689 0,-0.85653009 -0.694994,-1.55096893 -1.550414,-1.55096893 -0.85653,0 -1.5509695,0.69443884 -1.5509695,1.55096893 0,0.8565301 0.6944395,1.5509689 1.5509695,1.5509689 m 0,-0.9075999 c 0.354713,0 0.643369,-0.2881005 0.643369,-0.643369 0,-0.3552685 -0.288656,-0.6422588 -0.643369,-0.6422588 -0.355269,0 -0.643369,0.2875454 -0.643369,0.6422588 0,0.3547134 0.2881,0.643369 0.643369,0.643369"
     id="path3"
     inkscape:connector-curvature="0"
     style="fill:#495a6c;fill-rule:evenodd" /><path
     d="m 11.365029,3.0955972 c 0.848759,-0.00888 1.533761,-0.6999899 1.533761,-1.5504138 0,-0.85097902 -0.685002,-1.5415321 -1.533761,-1.55096892 V 0.9023695 c 0.346942,0.009437 0.626161,0.2936516 0.626161,0.6428139 0,0.3491623 -0.279219,0.6333771 -0.626161,0.6428139 v 0.9075999 z"
     id="path5"
     inkscape:connector-curvature="0"
     style="fill:#354859;fill-rule:evenodd" /><path
     d="M 1.3819845,3.8949513 H 21.370832 c 0.708872,0 1.288959,0.5800868 1.288959,1.2889584 V 31.705256 c 0,0.709426 -0.580087,1.288403 -1.288959,1.288403 H 1.3819845 c -0.70887155,0 -1.28840325,-0.578977 -1.28840325,-1.288403 V 5.1833546 C 0.09302615,4.4750381 0.67255785,3.8949513 1.3819845,3.8949513"
     id="path7"
     inkscape:connector-curvature="0"
     style="fill:#e74d3d;fill-rule:evenodd" /><path
     d="m 11.391674,3.8949513 h 9.979158 c 0.708872,0 1.288959,0.5800868 1.288959,1.2889584 V 31.705256 c 0,0.709426 -0.580087,1.288403 -1.288959,1.288403 H 11.391674 V 3.8949513 z"
     id="path9"
     inkscape:connector-curvature="0"
     style="fill:#d43e2e;fill-rule:evenodd" /><rect
     x="3.3281894"
     y="6.9080725"
     width="17.117279"
     height="23.024729"
     id="rect11"
     style="fill:#a5bac4;fill-rule:evenodd" /><rect
     x="2.4011607"
     y="6.0287824"
     width="17.114504"
     height="22.886505"
     id="rect13"
     style="fill:#ffffff;fill-rule:evenodd" /><rect
     x="11.364473"
     y="6.0287824"
     width="8.1511908"
     height="22.886505"
     id="rect15"
     style="fill:#d7e4eb;fill-rule:evenodd" /><rect
     x="9.1779079"
     y="10.252036"
     width="4.4919257"
     height="0.58452761"
     id="rect17"
     style="fill:#6b6c6c;fill-rule:evenodd" /><rect
     x="11.364473"
     y="10.252036"
     width="2.3053591"
     height="0.58452761"
     id="rect19"
     style="fill:#565656;fill-rule:evenodd" /><rect
     x="6.332984"
     y="12.487453"
     width="10.181772"
     height="0.58452761"
     id="rect21"
     style="fill:#6b6c6c;fill-rule:evenodd" /><rect
     x="11.364473"
     y="12.487453"
     width="5.1508379"
     height="0.58452761"
     id="rect23"
     style="fill:#565656;fill-rule:evenodd" /><rect
     x="6.332984"
     y="13.766973"
     width="10.181772"
     height="0.58452761"
     id="rect25"
     style="fill:#6b6c6c;fill-rule:evenodd" /><rect
     x="11.364473"
     y="13.767529"
     width="5.1508379"
     height="0.58397257"
     id="rect27"
     style="fill:#565656;fill-rule:evenodd" /><rect
     x="6.332984"
     y="15.074805"
     width="7.4267764"
     height="0.58452761"
     id="rect29"
     style="fill:#6b6c6c;fill-rule:evenodd" /><rect
     x="11.364473"
     y="15.074805"
     width="2.3958418"
     height="0.58452761"
     id="rect31"
     style="fill:#565656;fill-rule:evenodd" /><rect
     x="6.332984"
     y="16.541954"
     width="10.181772"
     height="0.58452761"
     id="rect33"
     style="fill:#6b6c6c;fill-rule:evenodd" /><rect
     x="11.364473"
     y="16.541954"
     width="5.1508379"
     height="0.58452761"
     id="rect35"
     style="fill:#565656;fill-rule:evenodd" /><rect
     x="6.332984"
     y="17.822586"
     width="10.181772"
     height="0.58452761"
     id="rect37"
     style="fill:#6b6c6c;fill-rule:evenodd" /><rect
     x="11.364473"
     y="17.822586"
     width="5.1508379"
     height="0.58452761"
     id="rect39"
     style="fill:#565656;fill-rule:evenodd" /><rect
     x="6.332984"
     y="19.14485"
     width="10.181772"
     height="0.58508277"
     id="rect41"
     style="fill:#6b6c6c;fill-rule:evenodd" /><rect
     x="11.364473"
     y="19.14485"
     width="5.1508379"
     height="0.58508277"
     id="rect43"
     style="fill:#565656;fill-rule:evenodd" /><rect
     x="6.332984"
     y="20.425482"
     width="10.181772"
     height="0.58452761"
     id="rect45"
     style="fill:#6b6c6c;fill-rule:evenodd" /><rect
     x="11.364473"
     y="20.425482"
     width="5.1508379"
     height="0.58452761"
     id="rect47"
     style="fill:#565656;fill-rule:evenodd" /><rect
     x="6.332984"
     y="21.732759"
     width="7.4267764"
     height="0.58397257"
     id="rect49"
     style="fill:#6b6c6c;fill-rule:evenodd" /><rect
     x="11.364473"
     y="21.732759"
     width="2.3958418"
     height="0.58397257"
     id="rect51"
     style="fill:#565656;fill-rule:evenodd" /><rect
     x="6.332984"
     y="23.200462"
     width="10.181772"
     height="0.58452761"
     id="rect53"
     style="fill:#6b6c6c;fill-rule:evenodd" /><rect
     x="11.364473"
     y="23.200462"
     width="5.1508379"
     height="0.58452761"
     id="rect55"
     style="fill:#565656;fill-rule:evenodd" /><rect
     x="6.332984"
     y="24.480539"
     width="10.181772"
     height="0.58397257"
     id="rect57"
     style="fill:#6b6c6c;fill-rule:evenodd" /><rect
     x="11.364473"
     y="24.480539"
     width="5.1508379"
     height="0.58397257"
     id="rect59"
     style="fill:#565656;fill-rule:evenodd" /><polygon
     points="41.323,12.959 17.75,12.959 19.411,9.235 29.587,5.03 39.764,9.235 "
     id="polygon61"
     style="fill:#495a6c;fill-rule:evenodd"
     transform="matrix(0.55510698,0,0,0.55510698,-5.0478197,-0.15955016)" /><polygon
     points="41.323,12.959 29.557,12.959 29.557,5.036 29.587,5.03 39.764,9.235 "
     id="polygon63"
     style="fill:#354859;fill-rule:evenodd"
     transform="matrix(0.55510698,0,0,0.55510698,-5.0478197,-0.15955016)" /><rect
     x="4.8064394"
     y="7.02742"
     width="6.5874543"
     height="0.91315097"
     id="rect65"
     style="fill:#354859;fill-rule:evenodd" /><rect
     x="11.365028"
     y="7.0324163"
     width="6.5291686"
     height="0.90759993"
     id="rect67"
     style="fill:#223443;fill-rule:evenodd" /></svg>