<?xml version="1.0" encoding="UTF-8" standalone="no"?>
<!-- Generator: Adobe Illustrator 16.2.0, SVG Export Plug-In . SVG Version: 6.00 Build 0)  -->

<svg
   xmlns:dc="http://purl.org/dc/elements/1.1/"
   xmlns:cc="http://creativecommons.org/ns#"
   xmlns:rdf="http://www.w3.org/1999/02/22-rdf-syntax-ns#"
   xmlns:svg="http://www.w3.org/2000/svg"
   xmlns="http://www.w3.org/2000/svg"
   xmlns:sodipodi="http://sodipodi.sourceforge.net/DTD/sodipodi-0.dtd"
   xmlns:inkscape="http://www.inkscape.org/namespaces/inkscape"
   version="1.2"
   id="Слой_1"
   x="0px"
   y="0px"
   width="26"
   height="33"
   viewBox="0 0 26 33"
   xml:space="preserve"
   inkscape:version="0.48.4 r9939"
   sodipodi:docname="kontroljnaja.svg"><metadata
     id="metadata43"><rdf:RDF><cc:Work
         rdf:about=""><dc:format>image/svg+xml</dc:format><dc:type
           rdf:resource="http://purl.org/dc/dcmitype/StillImage" /><dc:title></dc:title></cc:Work></rdf:RDF></metadata><defs
     id="defs41" /><sodipodi:namedview
     pagecolor="#ffffff"
     bordercolor="#666666"
     borderopacity="1"
     objecttolerance="10"
     gridtolerance="10"
     guidetolerance="10"
     inkscape:pageopacity="0"
     inkscape:pageshadow="2"
     inkscape:window-width="1920"
     inkscape:window-height="1176"
     id="namedview39"
     showgrid="false"
     inkscape:zoom="20.886995"
     inkscape:cx="15.190678"
     inkscape:cy="18.082627"
     inkscape:window-x="0"
     inkscape:window-y="24"
     inkscape:window-maximized="1"
     inkscape:current-layer="Слой_1" /><rect
     x="2.7482612"
     y="2.5639012"
     width="23.027966"
     height="30.530426"
     id="rect3"
     style="fill:#a5bac4;fill-rule:evenodd" /><polygon
     points="48.515,55.084 48.515,11.282 37.661,0.428 7.224,0.428 7.224,55.084 "
     id="polygon5"
     style="fill:#e7f2f8;fill-rule:evenodd"
     transform="matrix(0.55796967,0,0,0.55796967,-3.6711797,-0.14448342)" /><polygon
     points="48.515,55.084 48.515,11.282 37.661,0.428 27.911,0.428 27.911,55.084 "
     id="polygon7"
     style="fill:#c7d9e0;fill-rule:evenodd"
     transform="matrix(0.55796967,0,0,0.55796967,-3.6711797,-0.14448342)" /><polygon
     points="37.687,0.454 37.687,11.267 48.501,11.267 "
     id="polygon9"
     style="fill:#e7f2f8;fill-rule:evenodd"
     transform="matrix(0.55796967,0,0,0.55796967,-3.6711797,-0.14448342)" /><rect
     x="9.0198412"
     y="5.7186618"
     width="5.9245219"
     height="0.77111405"
     id="rect11"
     style="fill:#6b6c6c;fill-rule:evenodd" /><rect
     x="11.90287"
     y="5.7186618"
     width="3.0409346"
     height="0.77111405"
     id="rect13"
     style="fill:#565656;fill-rule:evenodd" /><rect
     x="5.2674952"
     y="8.6664152"
     width="13.428656"
     height="0.77055615"
     id="rect15"
     style="fill:#6b6c6c;fill-rule:evenodd" /><rect
     x="11.90287"
     y="8.6664152"
     width="6.7932811"
     height="0.77055615"
     id="rect17"
     style="fill:#565656;fill-rule:evenodd" /><rect
     x="5.2674952"
     y="10.354831"
     width="13.428656"
     height="0.77111405"
     id="rect19"
     style="fill:#6b6c6c;fill-rule:evenodd" /><rect
     x="11.90287"
     y="10.35539"
     width="6.7932811"
     height="0.77055615"
     id="rect21"
     style="fill:#565656;fill-rule:evenodd" /><rect
     x="5.2674952"
     y="12.079516"
     width="9.7951574"
     height="0.77111405"
     id="rect23"
     style="fill:#6b6c6c;fill-rule:evenodd" /><rect
     x="11.90287"
     y="12.079516"
     width="3.1597824"
     height="0.77111405"
     id="rect25"
     style="fill:#565656;fill-rule:evenodd" /><rect
     x="5.2674952"
     y="14.014554"
     width="13.428656"
     height="0.77111405"
     id="rect27"
     style="fill:#6b6c6c;fill-rule:evenodd" /><rect
     x="11.90287"
     y="14.015113"
     width="6.7932811"
     height="0.77111405"
     id="rect29"
     style="fill:#565656;fill-rule:evenodd" /><rect
     x="5.2674952"
     y="15.702971"
     width="13.428656"
     height="0.77111405"
     id="rect31"
     style="fill:#6b6c6c;fill-rule:evenodd" /><rect
     x="11.90287"
     y="15.703528"
     width="6.7932811"
     height="0.77055615"
     id="rect33"
     style="fill:#565656;fill-rule:evenodd" /><path
     d="m 13.510938,24.975312 1.501497,-0.155116 c 0.04352,0.339246 0.17018,0.609861 0.379419,0.808498 0.212586,0.199196 0.455303,0.298514 0.731498,0.298514 0.314137,0 0.580847,-0.127775 0.799013,-0.385557 0.218166,-0.257224 0.32697,-0.644455 0.32697,-1.162251 0,-0.485433 -0.107688,-0.848672 -0.325854,-1.091946 -0.214819,-0.243833 -0.497151,-0.363239 -0.844766,-0.363239 -0.431311,0 -0.82189,0.190268 -1.165041,0.569687 l -1.216374,-0.17576 0.767208,-4.0782 h 3.978882 v 1.404409 h -2.836718 l -0.237695,1.335222 c 0.333666,-0.166275 0.677933,-0.250529 1.02778,-0.250529 0.669006,0 1.235903,0.243275 1.699018,0.731499 0.466463,0.486549 0.698578,1.118171 0.698578,1.895981 0,0.648918 -0.187478,1.225859 -0.563549,1.735285 -0.511101,0.693557 -1.219722,1.042288 -2.126423,1.042288 -0.724802,0 -1.31625,-0.196964 -1.773227,-0.585311 -0.458651,-0.392252 -0.730941,-0.913954 -0.820216,-1.573474"
     id="path35"
     inkscape:connector-curvature="0"
     style="fill:#e74d3d;fill-rule:evenodd" /><path
     d="m 16.188635,25.924976 c 0.286796,-0.01618 0.530629,-0.143956 0.733172,-0.383883 0.218166,-0.257782 0.32697,-0.644455 0.32697,-1.161135 0,-0.486549 -0.107688,-0.849788 -0.325854,-1.093062 -0.191942,-0.217609 -0.43689,-0.336456 -0.734288,-0.359891 v -1.189033 c 0.06975,-0.0061 0.139492,-0.0106 0.208122,-0.0106 0.669006,0 1.235903,0.243833 1.699018,0.731499 0.466463,0.485433 0.698578,1.118171 0.698578,1.895981 0,0.648918 -0.187478,1.225859 -0.562433,1.735285 -0.496035,0.672354 -1.176758,1.019969 -2.043285,1.040056 v -1.205215 z m 0,-6.684476 h 2.254755 v 1.403293 H 16.188635 V 19.2405 z"
     id="path37"
     inkscape:connector-curvature="0"
     style="fill:#d43e2e;fill-rule:evenodd" /></svg>