<?xml version="1.0" encoding="UTF-8" standalone="no"?>
<!-- Generator: Adobe Illustrator 16.2.0, SVG Export Plug-In . SVG Version: 6.00 Build 0)  -->

<svg
   xmlns:dc="http://purl.org/dc/elements/1.1/"
   xmlns:cc="http://creativecommons.org/ns#"
   xmlns:rdf="http://www.w3.org/1999/02/22-rdf-syntax-ns#"
   xmlns:svg="http://www.w3.org/2000/svg"
   xmlns="http://www.w3.org/2000/svg"
   xmlns:sodipodi="http://sodipodi.sourceforge.net/DTD/sodipodi-0.dtd"
   xmlns:inkscape="http://www.inkscape.org/namespaces/inkscape"
   version="1.2"
   id="Слой_1"
   x="0px"
   y="0px"
   width="26"
   height="33"
   viewBox="0 0 26 33"
   xml:space="preserve"
   inkscape:version="0.48.4 r9939"
   sodipodi:docname="kursovaja.svg"><metadata
     id="metadata31"><rdf:RDF><cc:Work
         rdf:about=""><dc:format>image/svg+xml</dc:format><dc:type
           rdf:resource="http://purl.org/dc/dcmitype/StillImage" /><dc:title></dc:title></cc:Work></rdf:RDF></metadata><defs
     id="defs29" /><sodipodi:namedview
     pagecolor="#ffffff"
     bordercolor="#666666"
     borderopacity="1"
     objecttolerance="10"
     gridtolerance="10"
     guidetolerance="10"
     inkscape:pageopacity="0"
     inkscape:pageshadow="2"
     inkscape:window-width="1920"
     inkscape:window-height="1176"
     id="namedview27"
     showgrid="false"
     inkscape:zoom="7.8666667"
     inkscape:cx="32.902451"
     inkscape:cy="24.846348"
     inkscape:window-x="0"
     inkscape:window-y="24"
     inkscape:window-maximized="1"
     inkscape:current-layer="Слой_1" /><path
     d="M 3.7029271,1.3560059 H 23.579936 c 1.296583,0 2.357423,1.0608406 2.357423,2.3568622 V 30.707613 c 0,1.296583 -1.061402,2.356862 -2.357423,2.356862 H 3.7029271 c -1.296022,0 -2.3568627,-1.060841 -2.3568627,-2.356862 V 3.7128681 c 0,-1.2960216 1.0608407,-2.3568622 2.3568627,-2.3568622"
     id="path3"
     inkscape:connector-curvature="0"
     style="fill:#a5bac4;fill-rule:evenodd" /><path
     d="M 1.5430777,0.06447458 H 23.325671 c 0.772337,0 1.403789,0.63145272 1.403789,1.40435082 V 30.369154 c 0,0.771776 -0.631452,1.404351 -1.403789,1.404351 H 1.5430777 c -0.77177557,0 -1.40378957,-0.632575 -1.40378957,-1.404351 V 1.4688254 c 0,-0.7723368 0.632014,-1.40435082 1.40378957,-1.40435082"
     id="path5"
     inkscape:connector-curvature="0"
     style="fill:#e7f2f8;fill-rule:evenodd" /><path
     d="M 1.5430777,0.06447458 H 4.1485921 V 31.773505 H 1.5430777 c -0.77177557,0 -1.40378957,-0.632575 -1.40378957,-1.404351 V 1.4688254 c 0,-0.7723368 0.632014,-1.40435082 1.40378957,-1.40435082"
     id="path7"
     inkscape:connector-curvature="0"
     style="fill:#2285c7;fill-rule:evenodd" /><path
     d="m 14.199635,0.06447458 h 9.125474 c 0.772899,0 1.404913,0.63145272 1.404913,1.40435082 V 30.368593 c 0,0.772337 -0.632014,1.404912 -1.404913,1.404912 H 14.199635 V 0.06447458 z"
     id="path9"
     inkscape:connector-curvature="0"
     style="fill:#c7d9e0;fill-rule:evenodd" /><rect
     x="11.449309"
     y="5.4365931"
     width="5.6802678"
     height="0.9328661"
     id="rect11"
     style="fill:#6b6c6c;fill-rule:evenodd" /><rect
     x="14.214231"
     y="5.4365931"
     width="2.9153469"
     height="0.9328661"
     id="rect13"
     style="fill:#565656;fill-rule:evenodd" /><rect
     x="7.8514314"
     y="9.0030384"
     width="12.876584"
     height="0.93174356"
     id="rect15"
     style="fill:#6b6c6c;fill-rule:evenodd" /><rect
     x="14.214231"
     y="9.0030384"
     width="6.5137854"
     height="0.93174356"
     id="rect17"
     style="fill:#565656;fill-rule:evenodd" /><rect
     x="10.831887"
     y="11.052875"
     width="6.4121919"
     height="0.93230486"
     id="rect19"
     style="fill:#6b6c6c;fill-rule:evenodd" /><rect
     x="14.214231"
     y="11.052875"
     width="3.2156379"
     height="0.93230486"
     id="rect21"
     style="fill:#565656;fill-rule:evenodd" /><rect
     x="9.8440142"
     y="13.157717"
     width="8.8919773"
     height="0.93174356"
     id="rect23"
     style="fill:#6b6c6c;fill-rule:evenodd" /><rect
     x="14.237803"
     y="13.157156"
     width="4.4981885"
     height="0.93230486"
     id="rect25"
     style="fill:#565656;fill-rule:evenodd" /></svg>