<?xml version="1.0" encoding="UTF-8" standalone="no"?>
<!-- Generator: Adobe Illustrator 16.2.0, SVG Export Plug-In . SVG Version: 6.00 Build 0)  -->

<svg
   xmlns:dc="http://purl.org/dc/elements/1.1/"
   xmlns:cc="http://creativecommons.org/ns#"
   xmlns:rdf="http://www.w3.org/1999/02/22-rdf-syntax-ns#"
   xmlns:svg="http://www.w3.org/2000/svg"
   xmlns="http://www.w3.org/2000/svg"
   xmlns:sodipodi="http://sodipodi.sourceforge.net/DTD/sodipodi-0.dtd"
   xmlns:inkscape="http://www.inkscape.org/namespaces/inkscape"
   version="1.2"
   id="Слой_1"
   x="0px"
   y="0px"
   width="27"
   height="33"
   viewBox="0 0 27 33"
   xml:space="preserve"
   inkscape:version="0.48.4 r9939"
   sodipodi:docname="laboratornaja.svg"><metadata
     id="metadata35"><rdf:RDF><cc:Work
         rdf:about=""><dc:format>image/svg+xml</dc:format><dc:type
           rdf:resource="http://purl.org/dc/dcmitype/StillImage" /><dc:title></dc:title></cc:Work></rdf:RDF></metadata><defs
     id="defs33" /><sodipodi:namedview
     pagecolor="#ffffff"
     bordercolor="#666666"
     borderopacity="1"
     objecttolerance="10"
     gridtolerance="10"
     guidetolerance="10"
     inkscape:pageopacity="0"
     inkscape:pageshadow="2"
     inkscape:window-width="1920"
     inkscape:window-height="1176"
     id="namedview31"
     showgrid="false"
     inkscape:zoom="7.8666667"
     inkscape:cx="29.532578"
     inkscape:cy="20.581352"
     inkscape:window-x="0"
     inkscape:window-y="24"
     inkscape:window-maximized="1"
     inkscape:current-layer="Слой_1" /><path
     d="m 5.3059177,7.6172937 h 6.9662503 c 0.552047,0 1.004031,0.4519847 1.004031,1.0034629 v 1.5350424 c 0,0.552047 -0.451416,1.004031 -1.004031,1.004031 h -0.767521 v 4.982634 c 3.429398,1.138206 5.90309,4.370891 5.90309,8.182345 0,4.759768 -3.858641,8.619547 -8.6189783,8.619547 -4.7603373,0 -8.61897904,-3.860347 -8.61897904,-8.620116 0,-3.810885 2.47426094,-7.044139 5.90365904,-8.182344 v -4.982634 h -0.768089 c -0.551479,0 -1.0034633,-0.451985 -1.0034633,-1.004032 V 8.620188 C 4.3024549,8.0692784 4.7544397,7.6172937 5.3059177,7.6172937"
     id="path3"
     inkscape:connector-curvature="0"
     style="fill:#e7f2f8;fill-rule:evenodd" /><path
     d="m 8.8160477,7.6172937 h 3.4566883 c 0.551479,0 1.003463,0.4519847 1.003463,1.0034629 v 1.5350424 c 0,0.552047 -0.451984,1.004031 -1.003463,1.004031 h -0.768089 v 4.982634 c 3.429398,1.138206 5.903659,4.370891 5.903659,8.182345 0,4.751809 -3.844428,8.604765 -8.5922583,8.618978 V 7.6172937 z"
     id="path5"
     inkscape:connector-curvature="0"
     style="fill:#c7d9e0;fill-rule:evenodd" /><path
     d="m 16.050078,24.326514 c 0,4.008735 -3.251447,7.259614 -7.2607513,7.259614 -4.009303,0 -7.2601817,-3.250879 -7.2613188,-7.259614 H 16.050078 z"
     id="path7"
     inkscape:connector-curvature="0"
     style="fill:#27ae61;fill-rule:evenodd" /><path
     d="m 16.050078,24.326514 c 0,3.99907 -3.236666,7.243695 -7.2345983,7.259614 v -7.259614 h 7.2345983 z"
     id="path9"
     inkscape:connector-curvature="0"
     style="fill:#1e944e;fill-rule:evenodd" /><path
     d="m 6.3957977,25.360678 c 0.896579,0 1.623165,0.726018 1.623165,1.622597 0,0.896578 -0.727155,1.623733 -1.623165,1.623733 -0.896578,0 -1.623734,-0.727155 -1.623734,-1.623733 0,-0.896579 0.727156,-1.622597 1.623734,-1.622597"
     id="path11"
     inkscape:connector-curvature="0"
     style="fill:#62c086;fill-rule:evenodd" /><path
     d="m 10.498341,24.946785 c 0.521915,0 0.944904,0.422421 0.944904,0.944904 0,0.520777 -0.422989,0.944904 -0.944904,0.944904 -0.5219143,0 -0.9449043,-0.424127 -0.9449043,-0.944904 5.69e-4,-0.522483 0.42299,-0.944904 0.9449043,-0.944904"
     id="path13"
     inkscape:connector-curvature="0"
     style="fill:#35b66c;fill-rule:evenodd" /><path
     d="m 7.3253517,22.378716 c 0.366704,0 0.664048,0.297344 0.664048,0.664048 0,0.366705 -0.297344,0.664048 -0.664048,0.664048 -0.366705,0 -0.664048,-0.297343 -0.664048,-0.664048 0,-0.366704 0.297343,-0.664048 0.664048,-0.664048"
     id="path15"
     inkscape:connector-curvature="0"
     style="fill:#35b66c;fill-rule:evenodd" /><path
     d="m 6.3804477,18.924871 c 0.725449,0 1.313882,0.589001 1.313882,1.314451 0,0.72545 -0.588433,1.313314 -1.313882,1.313314 -0.724881,0 -1.313314,-0.587864 -1.313314,-1.313314 0,-0.72545 0.588433,-1.314451 1.313314,-1.314451"
     id="path17"
     inkscape:connector-curvature="0"
     style="fill:#62c086;fill-rule:evenodd" /><path
     d="m 18.885358,-0.05564407 h 6.965681 c 0.553184,0 1.004031,0.45141617 1.004031,1.00346289 V 2.4828612 c 0,0.5520467 -0.450847,1.0040314 -1.004031,1.0040314 H 25.673088 V 29.638898 c 0,1.817035 -1.486717,3.305458 -3.305458,3.305458 l 0,0 c -1.817604,0 -3.304889,-1.488423 -3.304889,-3.305458 V 3.4868926 h -0.177952 c -0.553183,0 -1.005168,-0.4519847 -1.005168,-1.0040314 V 0.94781882 c 5.68e-4,-0.55204672 0.452553,-1.00346289 1.005737,-1.00346289"
     id="path19"
     inkscape:connector-curvature="0"
     style="fill:#e7f2f8;fill-rule:evenodd" /><path
     d="m 22.336361,-0.05564407 h 3.514678 c 0.553184,0 1.004031,0.45141617 1.004031,1.00346289 V 2.4828612 c 0,0.5520467 -0.450847,1.0040314 -1.004031,1.0040314 H 25.673088 V 29.638898 c 0,1.817035 -1.486717,3.305458 -3.305458,3.305458 l -0.03127,-5.69e-4 V -0.05564407 z"
     id="path21"
     inkscape:connector-curvature="0"
     style="fill:#c7d9e0;fill-rule:evenodd" /><path
     d="m 24.611634,11.131972 v 17.506306 c 0,1.670922 -1.010285,3.038247 -2.244004,3.038247 l 0,0 c -1.234856,0 -2.242868,-1.366757 -2.242868,-3.038247 V 11.131972 h 4.486872 z"
     id="path23"
     inkscape:connector-curvature="0"
     style="fill:#ed5b4c;fill-rule:evenodd" /><path
     d="m 24.611634,11.131972 v 17.506306 c 0,1.670922 -1.010285,3.038247 -2.244004,3.038247 l 0,0 -0.03127,-0.0011 V 11.131972 h 2.275273 z"
     id="path25"
     inkscape:connector-curvature="0"
     style="fill:#d43e2e;fill-rule:evenodd" /><path
     d="m 22.25506,13.93712 c 0.753877,0 1.364482,0.611174 1.364482,1.365619 0,0.753308 -0.610605,1.365051 -1.364482,1.365051 -0.755013,0 -1.365619,-0.611743 -1.365619,-1.365051 0,-0.754445 0.610606,-1.365619 1.365619,-1.365619"
     id="path27"
     inkscape:connector-curvature="0"
     style="fill:#f19289;fill-rule:evenodd" /><path
     d="m 24.623574,24.381662 c -1.11717,-0.254703 -1.948936,-1.252481 -1.948936,-2.445834 0,-1.192216 0.831766,-2.190562 1.948936,-2.445834 v 4.891668 z"
     id="path29"
     inkscape:connector-curvature="0"
     style="fill:#ed5b4c;fill-rule:evenodd" /></svg>