<?xml version="1.0" encoding="utf-8"?>
<!-- Generator: Adobe Illustrator 16.2.0, SVG Export Plug-In . SVG Version: 6.00 Build 0)  -->
<!DOCTYPE svg PUBLIC "-//W3C//DTD SVG 1.1//EN" "http://www.w3.org/Graphics/SVG/1.1/DTD/svg11.dtd">
<svg version="1.1" id="Layer_1" xmlns="http://www.w3.org/2000/svg" xmlns:xlink="http://www.w3.org/1999/xlink" x="0px" y="0px"
	 width="60px" height="60px" viewBox="43.496 46.497 60 60" enable-background="new 43.496 46.497 60 60" xml:space="preserve">
<g>
	<path fill="#38627F" d="M93.235,54.604H77.631H59.988H59.8c-2.396,0-4.338,1.942-4.338,4.337v43.079
		c0,2.396,1.941,4.336,4.338,4.336h0.188h17.643h15.604c2.397,0,4.339-1.94,4.339-4.336V58.94
		C97.576,56.545,95.634,54.604,93.235,54.604z"/>
</g>
<g>
	<path fill="#E6F1F8" d="M93.96,98.489c0,2.604-2.11,4.716-4.714,4.716H60.141c-2.604,0-4.714-2.111-4.714-4.716v-3.567H93.96
		V98.489z"/>
</g>
<g>
	<path fill="#2985C7" d="M93.235,47.504H77.498l0.134,51.75h15.606c2.396,0,4.338-1.94,4.338-4.335V51.841
		C97.576,49.445,95.634,47.504,93.235,47.504z"/>
</g>
<g>
	<path fill="#0092D1" d="M59.988,47.504H59.8c-2.396,0-4.338,1.941-4.338,4.337v43.079c0,2.395,1.941,4.335,4.338,4.335h0.188
		h17.643v-51.75H59.988z"/>
</g>
<g>
	<circle fill="#A5BBC4" cx="59.231" cy="54.112" r="1.974"/>
</g>
<g>
	<path fill="#C7D9E0" d="M55.425,59.225c-2.621,0-4.753-2.19-4.753-4.883c0-2.694,2.132-4.883,4.753-4.883
		c2.622,0,4.754,2.189,4.754,4.883h-1.894c0-1.648-1.283-2.99-2.86-2.99s-2.859,1.342-2.859,2.99c0,1.647,1.282,2.989,2.859,2.989
		V59.225z"/>
</g>
<g>
	<circle fill="#A5BBC4" cx="59.231" cy="61.986" r="1.974"/>
</g>
<g>
	<path fill="#C7D9E0" d="M55.425,67.098c-2.621,0-4.753-2.19-4.753-4.883s2.132-4.883,4.753-4.883c2.622,0,4.754,2.19,4.754,4.883
		h-1.894c0-1.648-1.283-2.99-2.86-2.99s-2.859,1.341-2.859,2.99c0,1.648,1.282,2.989,2.859,2.989V67.098z"/>
</g>
<g>
	<circle fill="#A5BBC4" cx="59.231" cy="69.859" r="1.974"/>
</g>
<g>
	<path fill="#C7D9E0" d="M55.425,74.972c-2.621,0-4.753-2.19-4.753-4.884c0-2.693,2.132-4.883,4.753-4.883
		c2.622,0,4.754,2.189,4.754,4.883h-1.894c0-1.648-1.283-2.99-2.86-2.99s-2.859,1.341-2.859,2.99c0,1.649,1.282,2.991,2.859,2.991
		V74.972z"/>
</g>
<g>
	<circle fill="#A5BBC4" cx="59.231" cy="77.733" r="1.974"/>
</g>
<g>
	<path fill="#C7D9E0" d="M55.425,82.845c-2.621,0-4.753-2.19-4.753-4.884s2.132-4.883,4.753-4.883c2.622,0,4.754,2.189,4.754,4.883
		h-1.894c0-1.648-1.283-2.989-2.86-2.989s-2.859,1.341-2.859,2.989s1.282,2.991,2.859,2.991V82.845z"/>
</g>
<g>
	<circle fill="#A5BBC4" cx="59.231" cy="85.605" r="1.974"/>
</g>
<g>
	<path fill="#C7D9E0" d="M55.425,90.717c-2.621,0-4.753-2.19-4.753-4.883s2.132-4.882,4.753-4.882c2.622,0,4.754,2.189,4.754,4.882
		h-1.894c0-1.649-1.283-2.989-2.86-2.989s-2.859,1.34-2.859,2.989c0,1.648,1.282,2.99,2.859,2.99V90.717z"/>
</g>
<g>
	<circle fill="#A5BBC4" cx="59.231" cy="93.479" r="1.975"/>
</g>
<g>
	<path fill="#C7D9E0" d="M55.425,98.591c-2.621,0-4.753-2.189-4.753-4.883c0-2.694,2.132-4.884,4.753-4.884
		c2.622,0,4.754,2.189,4.754,4.884h-1.894c0-1.648-1.283-2.989-2.86-2.989s-2.859,1.341-2.859,2.989
		c0,1.646,1.282,2.989,2.859,2.989V98.591z"/>
</g>
<g>
	<g>
		<path fill="#C7D9E0" d="M77.632,56.834L77.632,56.834l-0.001,18.958c0.001,0,0.001,0,0.001,0c5.235,0,9.479-4.243,9.479-9.479
			C87.111,61.078,82.867,56.834,77.632,56.834z"/>
	</g>
	<g>
		<path fill="#E6F1F8" d="M68.152,66.314c0,5.235,4.242,9.478,9.479,9.479V56.834C72.396,56.835,68.152,61.079,68.152,66.314z"/>
	</g>
</g>
<g>
	<rect x="72.891" y="61.67" fill="#575756" width="9.479" height="1.894"/>
</g>
<g>
	<rect x="72.891" y="65.598" fill="#575756" width="9.479" height="1.893"/>
</g>
<g>
	<rect x="72.891" y="69.544" fill="#575756" width="9.479" height="1.894"/>
</g>
</svg>
