<?xml version="1.0" encoding="UTF-8" standalone="no"?>
<!-- Generator: Adobe Illustrator 16.2.0, SVG Export Plug-In . SVG Version: 6.00 Build 0)  -->

<svg
   xmlns:dc="http://purl.org/dc/elements/1.1/"
   xmlns:cc="http://creativecommons.org/ns#"
   xmlns:rdf="http://www.w3.org/1999/02/22-rdf-syntax-ns#"
   xmlns:svg="http://www.w3.org/2000/svg"
   xmlns="http://www.w3.org/2000/svg"
   xmlns:sodipodi="http://sodipodi.sourceforge.net/DTD/sodipodi-0.dtd"
   xmlns:inkscape="http://www.inkscape.org/namespaces/inkscape"
   version="1.2"
   id="Слой_1"
   x="0px"
   y="0px"
   width="26"
   height="33"
   viewBox="0 0 26 33"
   xml:space="preserve"
   inkscape:version="0.48.4 r9939"
   sodipodi:docname="otchet_po_praktike.svg"><metadata
     id="metadata31"><rdf:RDF><cc:Work
         rdf:about=""><dc:format>image/svg+xml</dc:format><dc:type
           rdf:resource="http://purl.org/dc/dcmitype/StillImage" /><dc:title></dc:title></cc:Work></rdf:RDF></metadata><defs
     id="defs29" /><sodipodi:namedview
     pagecolor="#ffffff"
     bordercolor="#666666"
     borderopacity="1"
     objecttolerance="10"
     gridtolerance="10"
     guidetolerance="10"
     inkscape:pageopacity="0"
     inkscape:pageshadow="2"
     inkscape:window-width="1920"
     inkscape:window-height="1176"
     id="namedview27"
     showgrid="false"
     inkscape:zoom="14.470603"
     inkscape:cx="11.377119"
     inkscape:cy="22.627119"
     inkscape:window-x="0"
     inkscape:window-y="24"
     inkscape:window-maximized="1"
     inkscape:current-layer="Слой_1" /><path
     d="M 3.7476027,1.3638163 H 23.624871 c 1.296003,0 2.356623,1.0606205 2.356623,2.3566237 v 26.995222 c 0,1.296003 -1.060061,2.357183 -2.356623,2.357183 H 3.7476027 c -1.2965628,0 -2.3566241,-1.06062 -2.3566241,-2.357183 V 3.72044 c 0,-1.2960032 1.0595022,-2.3566237 2.3566241,-2.3566237"
     id="path3"
     inkscape:connector-curvature="0"
     style="fill:#495a6c;fill-rule:evenodd" /><path
     d="M 1.5877832,0.07284498 H 23.368801 c 0.772682,0 1.405029,0.63178761 1.405029,1.40446942 V 30.376845 c 0,0.773241 -0.632347,1.405029 -1.405029,1.405029 H 1.5877832 c -0.77324093,0 -1.40502853,-0.631788 -1.40502853,-1.405029 V 1.4767553 C 0.18331377,0.70407348 0.81510137,0.07284498 1.5877832,0.07284498"
     id="path5"
     inkscape:connector-curvature="0"
     style="fill:#27ae61;fill-rule:evenodd" /><path
     d="M 1.5877832,0.07284498 H 4.1926487 V 31.781315 H 1.5877832 c -0.77324093,0 -1.40502853,-0.631788 -1.40502853,-1.405029 V 1.4767553 C 0.18331377,0.70407348 0.81510137,0.07284498 1.5877832,0.07284498"
     id="path7"
     inkscape:connector-curvature="0"
     style="fill:#495a6c;fill-rule:evenodd" /><path
     d="m 14.243663,0.07284498 h 9.125138 c 0.772682,0 1.405029,0.63178761 1.405029,1.40446942 V 30.376845 c 0,0.772123 -0.632347,1.405029 -1.405029,1.405029 H 14.243663 V 0.07284498 z"
     id="path9"
     inkscape:connector-curvature="0"
     style="fill:#1e944e;fill-rule:evenodd" /><rect
     x="11.493429"
     y="10.947978"
     width="5.6810565"
     height="0.93202651"
     id="rect11"
     style="fill:#e7f2f8;fill-rule:evenodd" /><rect
     x="14.2582"
     y="10.947978"
     width="2.9162869"
     height="0.93202651"
     id="rect13"
     style="fill:#c7d9e0;fill-rule:evenodd" /><rect
     x="7.8955956"
     y="14.513386"
     width="12.876726"
     height="0.93202651"
     id="rect15"
     style="fill:#e7f2f8;fill-rule:evenodd" /><rect
     x="14.2582"
     y="14.513386"
     width="6.5141215"
     height="0.93202651"
     id="rect17"
     style="fill:#c7d9e0;fill-rule:evenodd" /><rect
     x="10.876179"
     y="16.56362"
     width="6.4112463"
     height="0.93202651"
     id="rect19"
     style="fill:#e7f2f8;fill-rule:evenodd" /><rect
     x="14.2582"
     y="16.56362"
     width="3.2159665"
     height="0.93202651"
     id="rect21"
     style="fill:#c7d9e0;fill-rule:evenodd" /><rect
     x="9.8876839"
     y="18.668087"
     width="8.8914318"
     height="0.93202651"
     id="rect23"
     style="fill:#e7f2f8;fill-rule:evenodd" /><rect
     x="14.281683"
     y="18.669205"
     width="4.4979925"
     height="0.93202651"
     id="rect25"
     style="fill:#c7d9e0;fill-rule:evenodd" /></svg>