<?xml version="1.0" encoding="UTF-8" standalone="no"?>
<!-- Generator: Adobe Illustrator 16.2.0, SVG Export Plug-In . SVG Version: 6.00 Build 0)  -->

<svg
   xmlns:dc="http://purl.org/dc/elements/1.1/"
   xmlns:cc="http://creativecommons.org/ns#"
   xmlns:rdf="http://www.w3.org/1999/02/22-rdf-syntax-ns#"
   xmlns:svg="http://www.w3.org/2000/svg"
   xmlns="http://www.w3.org/2000/svg"
   xmlns:sodipodi="http://sodipodi.sourceforge.net/DTD/sodipodi-0.dtd"
   xmlns:inkscape="http://www.inkscape.org/namespaces/inkscape"
   version="1.2"
   id="Слой_1"
   x="0px"
   y="0px"
   width="23"
   height="33"
   viewBox="0 0 23 33"
   xml:space="preserve"
   inkscape:version="0.48.4 r9939"
   sodipodi:docname="perevod.svg"><metadata
     id="metadata27"><rdf:RDF><cc:Work
         rdf:about=""><dc:format>image/svg+xml</dc:format><dc:type
           rdf:resource="http://purl.org/dc/dcmitype/StillImage" /><dc:title></dc:title></cc:Work></rdf:RDF></metadata><defs
     id="defs25" /><sodipodi:namedview
     pagecolor="#ffffff"
     bordercolor="#666666"
     borderopacity="1"
     objecttolerance="10"
     gridtolerance="10"
     guidetolerance="10"
     inkscape:pageopacity="0"
     inkscape:pageshadow="2"
     inkscape:window-width="1920"
     inkscape:window-height="1176"
     id="namedview23"
     showgrid="false"
     inkscape:zoom="11.125147"
     inkscape:cx="16.563752"
     inkscape:cy="16.452055"
     inkscape:window-x="0"
     inkscape:window-y="24"
     inkscape:window-maximized="1"
     inkscape:current-layer="Слой_1" /><path
     d="M 1.7196919,3.715596 H 20.803856 c 0.91245,0 1.659202,0.7467523 1.659202,1.6592024 V 29.022324 c 0,0.91245 -0.747308,1.659203 -1.659202,1.659203 H 1.7196919 c -0.91300598,0 -1.65920198,-0.747309 -1.65920198,-1.659203 V 5.3753544 c 0,-0.9130061 0.746752,-1.6597584 1.65920198,-1.6597584"
     id="path3"
     inkscape:connector-curvature="0"
     style="fill:#d43e2e;fill-rule:evenodd" /><path
     d="m 11.365752,3.715596 h 9.438104 c 0.91245,0 1.659202,0.7467523 1.659202,1.6592024 V 29.022324 c 0,0.91245 -0.747308,1.659203 -1.659202,1.659203 H 11.365752 V 3.715596 z"
     id="path5"
     inkscape:connector-curvature="0"
     style="fill:#d43e2e;fill-rule:evenodd" /><path
     d="M 2.7400129,4.1320647 H 21.354328 c 0.613861,0 1.115958,0.5020978 1.115958,1.1165142 V 28.108206 c 0,0.614416 -0.502097,1.117626 -1.115958,1.117626 H 2.7400129 c -0.614973,0 -1.11707,-0.502653 -1.11707,-1.117626 V 5.2485789 c -5.56e-4,-0.6144164 0.502097,-1.1165142 1.11707,-1.1165142"
     id="path7"
     inkscape:connector-curvature="0"
     style="fill:#e7f2f8;fill-rule:evenodd" /><path
     d="m 11.365752,4.1320647 h 9.98802 c 0.61386,0 1.115958,0.5020978 1.115958,1.1165142 V 28.108206 c 0,0.614416 -0.502098,1.117626 -1.115958,1.117626 h -9.98802 V 4.1320647 z"
     id="path9"
     inkscape:connector-curvature="0"
     style="fill:#c7d9e0;fill-rule:evenodd" /><path
     d="M 1.7196919,0.03354582 H 20.803856 c 0.91245,0 1.659202,0.74675226 1.659202,1.65920228 V 25.132318 c 0,0.914674 -0.747308,1.659202 -1.659202,1.659202 H 1.7196919 c -0.91300598,0 -1.65920198,-0.745084 -1.65920198,-1.659202 V 1.6933042 c 0,-0.91300612 0.746752,-1.65975838 1.65920198,-1.65975838"
     id="path11"
     inkscape:connector-curvature="0"
     style="fill:#e74d3d;fill-rule:evenodd" /><path
     d="m 11.365752,0.03354582 h 9.438104 c 0.91245,0 1.659202,0.74675226 1.659202,1.65920228 V 25.132318 c 0,0.914674 -0.747308,1.659202 -1.659202,1.659202 H 11.365752 V 0.03354582 z"
     id="path13"
     inkscape:connector-curvature="0"
     style="fill:#d43e2e;fill-rule:evenodd" /><path
     d="m 9.7643769,15.69477 h -1.44791 l -0.57327,-1.511297 h -2.662841 l -0.551585,1.511297 h -1.42122 l 2.577212,-6.6379214 h 1.419553 l 2.660061,6.6379214 z m -2.457665,-2.632816 -0.921903,-2.456553 -0.896881,2.456553 h 1.818784 z m 3.0153661,-0.408128 h 2.502149 v 1.270535 h -2.502149 v -1.270535 z m 2.660618,3.040944 v -1.204923 l 3.498003,-4.310368 H 13.381928 V 9.0574047 h 4.856947 v 1.0381133 l -3.633675,4.47829 h 3.772684 v 1.121518 h -5.395188 z"
     id="path15"
     inkscape:connector-curvature="0"
     style="fill:#e7f2f8" /><path
     d="m 11.365752,12.653826 h 1.459031 v 1.270535 h -1.459031 v -1.270535 z m 1.616944,3.040944 v -1.204923 l 3.498003,-4.310368 H 13.381928 V 9.0574047 h 4.856947 v 1.0381133 l -3.633675,4.47829 h 3.772684 v 1.121518 h -5.395188 z"
     id="path17"
     inkscape:connector-curvature="0"
     style="fill:#c7d9e0;fill-rule:evenodd" /><polygon
     points="17.975,59.674 17.975,48.445 25.348,48.445 25.348,59.674 21.661,55.986 "
     id="polygon19"
     style="fill:#495a6c;fill-rule:evenodd"
     transform="matrix(0.55603296,0,0,0.55603296,-5.470926,-0.14716489)" /><polygon
     points="25.349,59.674 21.7,56.025 21.7,48.445 25.349,48.445 "
     id="polygon21"
     style="fill:#354859;fill-rule:evenodd"
     transform="matrix(0.55603296,0,0,0.55603296,-5.470926,-0.14716489)" /></svg>