<?xml version="1.0" encoding="UTF-8" standalone="no"?>
<!-- Generator: Adobe Illustrator 16.2.0, SVG Export Plug-In . SVG Version: 6.00 Build 0)  -->

<svg
   xmlns:dc="http://purl.org/dc/elements/1.1/"
   xmlns:cc="http://creativecommons.org/ns#"
   xmlns:rdf="http://www.w3.org/1999/02/22-rdf-syntax-ns#"
   xmlns:svg="http://www.w3.org/2000/svg"
   xmlns="http://www.w3.org/2000/svg"
   xmlns:sodipodi="http://sodipodi.sourceforge.net/DTD/sodipodi-0.dtd"
   xmlns:inkscape="http://www.inkscape.org/namespaces/inkscape"
   version="1.2"
   id="Слой_1"
   x="0px"
   y="0px"
   width="33"
   height="33"
   viewBox="0 0 33 33"
   xml:space="preserve"
   inkscape:version="0.48.4 r9939"
   sodipodi:docname="prezentacija.svg"><metadata
     id="metadata31"><rdf:RDF><cc:Work
         rdf:about=""><dc:format>image/svg+xml</dc:format><dc:type
           rdf:resource="http://purl.org/dc/dcmitype/StillImage" /><dc:title></dc:title></cc:Work></rdf:RDF></metadata><defs
     id="defs29" /><sodipodi:namedview
     pagecolor="#ffffff"
     bordercolor="#666666"
     borderopacity="1"
     objecttolerance="10"
     gridtolerance="10"
     guidetolerance="10"
     inkscape:pageopacity="0"
     inkscape:pageshadow="2"
     inkscape:window-width="1920"
     inkscape:window-height="1176"
     id="namedview27"
     showgrid="false"
     inkscape:zoom="11.125147"
     inkscape:cx="22.48367"
     inkscape:cy="21.739026"
     inkscape:window-x="0"
     inkscape:window-y="24"
     inkscape:window-maximized="1"
     inkscape:current-layer="Слой_1" /><rect
     x="15.382876"
     y="16.974237"
     width="2.7062159"
     height="13.850009"
     id="rect3"
     style="fill:#3e98d3;fill-rule:evenodd" /><rect
     x="16.696045"
     y="16.974237"
     width="1.3930436"
     height="13.850009"
     id="rect5"
     style="fill:#2285c7;fill-rule:evenodd" /><polygon
     points="24.261,39.749 15.023,59.336 9.666,59.336 19.88,37.683 "
     id="polygon7"
     style="fill:#3e98d3;fill-rule:evenodd"
     transform="matrix(0.55855839,0,0,0.55855839,-0.15957278,-0.17741699)" /><polygon
     points="35.665,39.749 44.903,59.336 50.261,59.336 40.047,37.683 "
     id="polygon9"
     style="fill:#2285c7;fill-rule:evenodd"
     transform="matrix(0.55855839,0,0,0.55855839,-0.15957278,-0.17741699)" /><path
     d="M 3.6799579,0.16330412 H 29.657949 c 1.972829,0 3.586505,1.61423438 3.586505,3.58650488 v 18.184425 c 0,1.97339 -1.613676,3.587072 -3.586505,3.587072 H 3.6799579 c -1.9722702,0 -3.58650372,-1.613682 -3.58650372,-3.587072 V 3.749809 c 0,-1.9722705 1.61367512,-3.58650488 3.58650372,-3.58650488"
     id="path11"
     inkscape:connector-curvature="0"
     style="fill:#3e98d3;fill-rule:evenodd" /><path
     d="m 16.704421,0.16330412 h 12.952972 c 1.972825,0 3.587061,1.61423438 3.587061,3.58650488 v 18.184425 c 0,1.97339 -1.614236,3.587072 -3.587061,3.587072 H 16.704421 V 0.16330412 z"
     id="path13"
     inkscape:connector-curvature="0"
     style="fill:#2285c7;fill-rule:evenodd" /><path
     d="M 4.5736514,2.543881 H 28.773754 c 1.109295,0 2.016948,0.9070985 2.016948,2.0169533 V 21.123769 c 0,1.109292 -0.907653,2.016394 -2.016948,2.016394 H 4.5736514 c -1.109297,0 -2.0169549,-0.907102 -2.0169549,-2.016394 V 4.5602758 c 0,-1.1092963 0.9076579,-2.0163948 2.0169549,-2.0163948"
     id="path15"
     inkscape:connector-curvature="0"
     style="fill:#e7f2f8;fill-rule:evenodd" /><path
     d="M 4.5736514,2.543881 H 28.773754 c 0.951221,0 1.753872,0.6669164 1.963333,1.5567023 H 2.6097596 C 2.8197777,3.2107974 3.6224261,2.543881 4.5736514,2.543881"
     id="path17"
     inkscape:connector-curvature="0"
     style="fill:#c7d9e0;fill-rule:evenodd" /><path
     d="m 16.704421,2.543881 h 12.069333 c 1.109295,0 2.016948,0.9070985 2.016948,2.0169533 V 21.123769 c 0,1.109292 -0.907653,2.016959 -2.016948,2.016959 H 16.704421 V 2.543881 z"
     id="path19"
     inkscape:connector-curvature="0"
     style="fill:#c7d9e0;fill-rule:evenodd" /><path
     d="M 4.5736514,23.222269 H 28.773754 c 0.951221,0 1.753872,-0.666913 1.963333,-1.556143 H 2.6097596 c 0.2100181,0.888667 1.0126665,1.556143 1.9638918,1.556143"
     id="path21"
     inkscape:connector-curvature="0"
     style="fill:#c7d9e0;fill-rule:evenodd" /><path
     d="m 26.437298,5.7427441 c -0.650156,0.00546 -1.177434,0.5267195 -1.177434,1.1673885 0,0.3485381 0.157508,0.6613284 0.404391,0.8747015 l -3.957381,8.7526079 c -0.08714,-0.02122 -0.178187,-0.0335 -0.272015,-0.0335 -0.01062,0 -0.01899,0.0021 -0.02848,0.0021 l -2.992753,-5.165379 c 0.384849,-0.192146 0.651835,-0.586487 0.651835,-1.040036 0,-0.6434599 -0.532864,-1.1668294 -1.188611,-1.1668294 -0.654628,0 -1.187494,0.5233695 -1.187494,1.1668294 0,0.230683 0.06983,0.44517 0.187117,0.627261 l -2.896695,4.046757 c -0.147452,-0.06424 -0.309446,-0.101104 -0.480916,-0.101104 -0.345185,0 -0.654627,0.145227 -0.87191,0.376468 l -1.185816,-0.432331 c -0.02966,-0.617207 -0.548505,-1.110975 -1.184701,-1.110975 -0.6551849,0 -1.1880614,0.52393 -1.1880614,1.166833 0,0.236266 0.072028,0.455783 0.1954957,0.640105 l -1.9756128,2.159384 c -0.1217684,-0.04077 -0.2519116,-0.0648 -0.3882019,-0.0648 -0.6551872,0 -1.188052,0.523926 -1.188052,1.166828 0,0.64346 0.5328648,1.166829 1.188052,1.166829 0.6546318,0 1.1880497,-0.523369 1.1880497,-1.166829 0,-0.271455 -0.096066,-0.521133 -0.2552546,-0.719424 l 1.9381939,-2.118048 c 0.1485777,0.06589 0.3122384,0.103334 0.4853914,0.103334 0.437349,0 0.818282,-0.23292 1.024953,-0.579228 l 1.047297,0.382055 c -0.01062,0.06537 -0.0179,0.130708 -0.0179,0.197175 0,0.643454 0.532307,1.167384 1.188057,1.167384 0.654629,0 1.188049,-0.52393 1.188049,-1.167384 0,-0.237947 -0.07317,-0.458576 -0.198285,-0.64346 l 2.890543,-4.038381 c 0.105009,0.04805 0.218398,0.081 0.337365,0.0972 l 3.045263,5.254916 c -0.311109,0.211137 -0.515547,0.562471 -0.515547,0.961284 0,0.643462 0.533428,1.166825 1.188615,1.166825 0.65574,0 1.188053,-0.523363 1.188053,-1.166825 0,-0.316148 -0.129032,-0.602681 -0.337374,-0.813266 l 3.978059,-8.7973234 c 0.06032,0.00948 0.12176,0.015065 0.184878,0.015065 0.655191,0 1.188611,-0.5233662 1.188611,-1.1668257 0,-0.6401104 -0.528396,-1.1618011 -1.178556,-1.1673862 h -0.02124 z"
     id="path23"
     inkscape:connector-curvature="0"
     style="fill:#526678;fill-rule:evenodd" /><path
     d="m 26.437298,5.7427441 c -0.650156,0.00546 -1.177434,0.5267195 -1.177434,1.1673885 0,0.3485381 0.157508,0.6613284 0.404948,0.8747015 l -3.957938,8.7526079 c -0.08714,-0.02122 -0.178187,-0.0335 -0.272015,-0.0335 -0.01062,0 -0.01841,0.0021 -0.02966,0.0021 l -2.992713,-5.165381 c 0.385955,-0.192146 0.652951,-0.586487 0.652951,-1.040037 0,-0.6434589 -0.532869,-1.1668287 -1.18861,-1.1668287 -0.569734,0 -1.047302,0.3965769 -1.161807,0.9238567 v 0.485944 c 0.03017,0.138522 0.08602,0.268669 0.161423,0.38429 l -0.161421,0.225098 v 1.133869 l 0.664129,-0.928322 c 0.105007,0.04805 0.2184,0.08098 0.337368,0.0972 l 3.045259,5.254914 c -0.311117,0.211134 -0.515549,0.562467 -0.515549,0.961278 0,0.643459 0.533434,1.166834 1.188618,1.166834 0.655743,0 1.188052,-0.523375 1.188052,-1.166834 0,-0.316142 -0.129027,-0.602685 -0.337374,-0.813261 l 3.978059,-8.7973007 c 0.06033,0.00948 0.122324,0.015066 0.184881,0.015066 0.655192,0 1.188056,-0.5233695 1.188056,-1.1668277 0,-0.6401099 -0.527839,-1.1618023 -1.178001,-1.1673872 h -0.02123 z"
     id="path25"
     inkscape:connector-curvature="0"
     style="fill:#354859;fill-rule:evenodd" /></svg>