<?xml version="1.0" encoding="utf-8"?>
<!-- Generator: Adobe Illustrator 16.2.0, SVG Export Plug-In . SVG Version: 6.00 Build 0)  -->
<!DOCTYPE svg PUBLIC "-//W3C//DTD SVG 1.1//EN" "http://www.w3.org/Graphics/SVG/1.1/DTD/svg11.dtd">
<svg version="1.1" id="Layer_1" xmlns="http://www.w3.org/2000/svg" xmlns:xlink="http://www.w3.org/1999/xlink" x="0px" y="0px"
	 width="60px" height="60px" viewBox="43.496 46.497 60 60" enable-background="new 43.496 46.497 60 60" xml:space="preserve">
<g>
	<g>
		<rect x="51.255" y="49.164" fill="#E6F1F8" width="44.482" height="54.666"/>
	</g>
	<g>
		<rect x="73.497" y="49.164" fill="#C7D9E0" width="22.24" height="54.666"/>
	</g>
	<g>
		<path fill="#E94C3D" d="M90.325,54.662v43.67H55.533v-43.67H90.325 M90.325,52.662H55.533c-1.104,0-2,0.896-2,2v43.67
			c0,1.104,0.896,2,2,2h34.792c1.104,0,2-0.896,2-2v-43.67C92.325,53.557,91.431,52.662,90.325,52.662L90.325,52.662z"/>
	</g>
	<g>
		<rect x="68.419" y="59.245" fill="#575756" width="9" height="2"/>
	</g>
	<g>
		<rect x="60.169" y="64.912" fill="#575756" width="25.5" height="2"/>
	</g>
	<g>
		<rect x="60.169" y="68.662" fill="#575756" width="25.5" height="2"/>
	</g>
	<g>
		<rect x="60.169" y="76.611" fill="#575756" width="25.5" height="2"/>
	</g>
	<g>
		<rect x="60.169" y="72.627" fill="#575756" width="17.461" height="2"/>
	</g>
	<g>
		<rect x="60.169" y="80.611" fill="#575756" width="17.461" height="2"/>
	</g>
	<g>
		<path fill="#60648F" d="M64.857,96.17c-2.659,0-4.822-2.163-4.822-4.821s2.163-4.822,4.822-4.822c2.658,0,4.821,2.164,4.821,4.822
			C69.679,94.007,67.516,96.17,64.857,96.17z M64.857,88.027c-1.832,0-3.322,1.49-3.322,3.322s1.49,3.321,3.322,3.321
			c1.831,0,3.321-1.489,3.321-3.321C68.179,89.517,66.688,88.027,64.857,88.027z"/>
	</g>
	<g>
		<path fill="#60648F" d="M63.728,95.814l-1.18-5.14c-0.092-0.403,0.16-0.808,0.563-0.899c0.404-0.09,0.807,0.16,0.899,0.563
			l0.432,1.886l4.255-5.969c0.238-0.337,0.709-0.417,1.046-0.175c0.337,0.239,0.416,0.708,0.175,1.046L63.728,95.814z"/>
	</g>
	<g>
		<rect x="75.104" y="94.515" fill="#575756" width="11.025" height="1.5"/>
	</g>
	<g>
		<path fill="#60648F" d="M77.089,94.295c-0.795,0-1.595-0.756-2.021-1.494c-0.57-0.993-0.569-2.056,0.006-2.843
			c1.283-1.755,5.152-1.945,11.496-0.572c0.404,0.088,0.662,0.487,0.574,0.893c-0.086,0.404-0.487,0.656-0.893,0.574
			c-3.656-0.793-5.986-0.945-7.469-0.844c0.636,0.217,0.961,1.04,1.232,1.727c0.076,0.195,0.189,0.479,0.291,0.684
			c0.014-0.021,0.028-0.041,0.041-0.059c0.199-0.282,0.534-0.756,1.258-0.832c0.734-0.069,1.174,0.355,1.433,0.615
			c0.065,0.066,0.165,0.166,0.205,0.185l0.151-0.007c0.521,0.025,1.082-0.01,1.588-0.094c0.412-0.076,0.795,0.207,0.863,0.614
			c0.068,0.408-0.207,0.796-0.615,0.863c-0.614,0.104-1.271,0.147-1.902,0.114c-0.68,0.088-1.096-0.358-1.354-0.619
			c-0.066-0.066-0.166-0.168-0.207-0.184c-0.063,0.024-0.146,0.141-0.194,0.211c-0.2,0.281-0.535,0.756-1.259,0.832
			c-0.938,0.118-1.346-0.896-1.692-1.773c-0.024-0.063-0.054-0.131-0.082-0.204c-0.013,0.062-0.021,0.12-0.031,0.173
			c-0.151,0.861-0.343,1.934-1.29,2.033C77.175,94.293,77.132,94.295,77.089,94.295z M77.845,90.125
			c-0.953,0.178-1.348,0.479-1.498,0.645c-0.08,0.09-0.324,0.356-0.144,0.918c0.142,0.438,0.457,0.801,0.69,0.983
			c0.055-0.207,0.104-0.483,0.138-0.676C77.153,91.302,77.3,90.476,77.845,90.125z"/>
	</g>
</g>
</svg>
