<?xml version="1.0" encoding="UTF-8" standalone="no"?>
<!-- Generator: Adobe Illustrator 16.2.0, SVG Export Plug-In . SVG Version: 6.00 Build 0)  -->

<svg
   xmlns:dc="http://purl.org/dc/elements/1.1/"
   xmlns:cc="http://creativecommons.org/ns#"
   xmlns:rdf="http://www.w3.org/1999/02/22-rdf-syntax-ns#"
   xmlns:svg="http://www.w3.org/2000/svg"
   xmlns="http://www.w3.org/2000/svg"
   xmlns:sodipodi="http://sodipodi.sourceforge.net/DTD/sodipodi-0.dtd"
   xmlns:inkscape="http://www.inkscape.org/namespaces/inkscape"
   version="1.2"
   id="Слой_1"
   x="0px"
   y="0px"
   width="25"
   height="33"
   viewBox="0 0 25 33"
   xml:space="preserve"
   inkscape:version="0.48.4 r9939"
   sodipodi:docname="reshenie_zadach_1.svg"><metadata
     id="metadata61"><rdf:RDF><cc:Work
         rdf:about=""><dc:format>image/svg+xml</dc:format><dc:type
           rdf:resource="http://purl.org/dc/dcmitype/StillImage" /><dc:title></dc:title></cc:Work></rdf:RDF></metadata><defs
     id="defs59" /><sodipodi:namedview
     pagecolor="#ffffff"
     bordercolor="#666666"
     borderopacity="1"
     objecttolerance="10"
     gridtolerance="10"
     guidetolerance="10"
     inkscape:pageopacity="0"
     inkscape:pageshadow="2"
     inkscape:window-width="1920"
     inkscape:window-height="1176"
     id="namedview57"
     showgrid="false"
     inkscape:zoom="15.733333"
     inkscape:cx="13.107679"
     inkscape:cy="17.346348"
     inkscape:window-x="0"
     inkscape:window-y="24"
     inkscape:window-maximized="1"
     inkscape:current-layer="Слой_1" /><polygon
     points="7.26,0.587 7.26,59.068 51.44,59.068 51.44,12.2 39.827,0.587 "
     id="polygon3"
     style="fill:#e7f2f8;fill-rule:evenodd"
     transform="matrix(0.56428584,0,0,0.56428584,-4.1460372,-0.1827273)" /><rect
     x="2.2050002"
     y="21.769121"
     width="10.29088"
     height="0.37807152"
     id="rect5"
     style="fill:#c7d9e0" /><rect
     x="2.2050002"
     y="25.51203"
     width="10.29088"
     height="0.37807152"
     id="rect7"
     style="fill:#c7d9e0" /><rect
     x="2.2050002"
     y="14.588583"
     width="10.29088"
     height="0.37807152"
     id="rect9"
     style="fill:#c7d9e0" /><rect
     x="2.2050002"
     y="18.330927"
     width="10.29088"
     height="0.37807152"
     id="rect11"
     style="fill:#c7d9e0" /><rect
     x="8.708395"
     y="3.7339807"
     width="0.37863579"
     height="27.2409"
     id="rect13"
     style="fill:#c7d9e0" /><rect
     x="4.9660516"
     y="3.7339807"
     width="0.37807152"
     height="27.2409"
     id="rect15"
     style="fill:#c7d9e0" /><polygon
     points="29.394,0.587 29.394,59.068 51.44,59.068 51.44,12.2 39.827,0.587 "
     id="polygon17"
     style="fill:#c7d9e0;fill-rule:evenodd"
     transform="matrix(0.56428584,0,0,0.56428584,-4.1460372,-0.1827273)" /><rect
     x="12.440016"
     y="21.769121"
     width="10.29088"
     height="0.37807152"
     id="rect19"
     style="fill:#e7f2f8" /><rect
     x="12.440016"
     y="25.51203"
     width="10.29088"
     height="0.37807152"
     id="rect21"
     style="fill:#e7f2f8" /><rect
     x="12.440016"
     y="14.588583"
     width="10.29088"
     height="0.37807152"
     id="rect23"
     style="fill:#e7f2f8" /><rect
     x="12.440016"
     y="18.330927"
     width="10.29088"
     height="0.37807152"
     id="rect25"
     style="fill:#e7f2f8" /><rect
     x="12.440016"
     y="7.1033316"
     width="4.6508436"
     height="0.37807152"
     id="rect27"
     style="fill:#e7f2f8" /><rect
     x="12.440016"
     y="10.846239"
     width="10.29088"
     height="0.37807152"
     id="rect29"
     style="fill:#e7f2f8" /><rect
     x="19.98226"
     y="8.2335968"
     width="0.37920007"
     height="22.741846"
     id="rect31"
     style="fill:#e7f2f8" /><rect
     x="15.958904"
     y="3.7339807"
     width="0.37920007"
     height="27.2409"
     id="rect33"
     style="fill:#e7f2f8" /><polygon
     points="51.426,12.185 39.855,0.615 39.855,12.185 "
     id="polygon35"
     style="fill:#e7f2f8;fill-rule:evenodd"
     transform="matrix(0.56428584,0,0,0.56428584,-4.1460372,-0.1827273)" /><rect
     x="2.2050002"
     y="7.1033316"
     width="10.29088"
     height="0.37807152"
     id="rect37"
     style="fill:#c7d9e0" /><rect
     x="2.2050002"
     y="10.846239"
     width="10.29088"
     height="0.37807152"
     id="rect39"
     style="fill:#c7d9e0" /><rect
     x="4.7905574"
     y="7.7607245"
     width="0.74824303"
     height="19.671005"
     id="rect41"
     style="fill:#354859;fill-rule:evenodd" /><rect
     x="3.5276864"
     y="25.35008"
     width="17.775568"
     height="0.74824303"
     id="rect43"
     style="fill:#354859;fill-rule:evenodd" /><rect
     x="2.2050002"
     y="29.230673"
     width="10.29088"
     height="0.37920007"
     id="rect45"
     style="fill:#c7d9e0" /><rect
     x="12.440016"
     y="29.230673"
     width="10.29088"
     height="0.37920007"
     id="rect47"
     style="fill:#e7f2f8" /><polygon
     points="19.078,18.207 16.498,18.207 13.916,18.207 15.208,15.414 16.498,12.623 17.788,15.414 "
     id="polygon49"
     style="fill:#354859;fill-rule:evenodd"
     transform="matrix(0.56428584,0,0,0.56428584,-4.1460372,-0.1827273)" /><polygon
     points="41.039,43.314 41.039,45.896 41.039,48.479 43.831,47.188 46.622,45.896 43.831,44.607 "
     id="polygon51"
     style="fill:#354859;fill-rule:evenodd"
     transform="matrix(0.56428584,0,0,0.56428584,-4.1460372,-0.1827273)" /><path
     d="m 22.274954,22.454727 c -0.973393,0.319386 -1.999829,0.490365 -3.062379,0.490365 -3.103008,0 -5.908637,-1.458115 -7.93273,-3.814573 -1.997572,-2.324857 -3.233358,-5.530001 -3.233358,-9.063558 0,-0.8627934 0.07336,-1.7047079 0.213864,-2.5201009 H 9.724109 C 9.569494,8.3571746 9.487673,9.2007819 9.487673,10.066961 c 0,3.180878 1.102614,6.054786 2.884629,8.129101 1.756058,2.043279 4.175151,3.308408 6.840837,3.308408 1.069886,0 2.099144,-0.203707 3.06238,-0.579522 v 1.529779 z"
     id="path53"
     inkscape:connector-curvature="0"
     style="fill:#1e944e;fill-rule:evenodd" /><path
     d="m 22.814412,10.158939 c -0.02088,3.496879 -1.253279,6.667037 -3.232794,8.972145 -2.025222,2.357586 -4.830287,3.814572 -7.933295,3.814572 -1.3114,0 -2.569193,-0.260136 -3.737265,-0.73865 v -1.578308 c 1.151143,0.564286 2.413451,0.875207 3.737265,0.875207 2.665122,0 5.08478,-1.264 6.840838,-3.307279 1.76565,-2.054565 2.864314,-4.892922 2.884629,-8.037687 h 1.440622 z"
     id="path55"
     inkscape:connector-curvature="0"
     style="fill:#d43e2e;fill-rule:evenodd" /></svg>