<?xml version="1.0" encoding="UTF-8" standalone="no"?>
<!-- Generator: Adobe Illustrator 16.2.0, SVG Export Plug-In . SVG Version: 6.00 Build 0)  -->

<svg
   xmlns:dc="http://purl.org/dc/elements/1.1/"
   xmlns:cc="http://creativecommons.org/ns#"
   xmlns:rdf="http://www.w3.org/1999/02/22-rdf-syntax-ns#"
   xmlns:svg="http://www.w3.org/2000/svg"
   xmlns="http://www.w3.org/2000/svg"
   xmlns:sodipodi="http://sodipodi.sourceforge.net/DTD/sodipodi-0.dtd"
   xmlns:inkscape="http://www.inkscape.org/namespaces/inkscape"
   version="1.2"
   id="Слой_1"
   x="0px"
   y="0px"
   width="33"
   height="24"
   viewBox="0 0 33 24"
   xml:space="preserve"
   inkscape:version="0.48.4 r9939"
   sodipodi:docname="sochinenije.svg"><metadata
     id="metadata63"><rdf:RDF><cc:Work
         rdf:about=""><dc:format>image/svg+xml</dc:format><dc:type
           rdf:resource="http://purl.org/dc/dcmitype/StillImage" /><dc:title></dc:title></cc:Work></rdf:RDF></metadata><defs
     id="defs61" /><sodipodi:namedview
     pagecolor="#ffffff"
     bordercolor="#666666"
     borderopacity="1"
     objecttolerance="10"
     gridtolerance="10"
     guidetolerance="10"
     inkscape:pageopacity="0"
     inkscape:pageshadow="2"
     inkscape:window-width="1920"
     inkscape:window-height="1176"
     id="namedview59"
     showgrid="false"
     inkscape:zoom="15.733333"
     inkscape:cx="7.5404373"
     inkscape:cy="12.396847"
     inkscape:window-x="0"
     inkscape:window-y="24"
     inkscape:window-maximized="1"
     inkscape:current-layer="Слой_1" /><path
     d="M 4.3168013,0.2732133 H 28.628314 c 1.013868,0 1.84275,0.91727 1.84275,2.039367 V 20.646285 c 0,1.120983 -0.828882,2.038253 -1.84275,2.038253 H 18.368058 l -1.838491,1.206699 -1.033737,-0.0044 -1.362073,-1.202247 H 4.3168013 C 3.3034076,22.684538 2.4745254,21.767268 2.4745254,20.646285 V 2.3125803 c 0,-1.122097 0.8293554,-2.039367 1.8422759,-2.039367"
     id="path3"
     inkscape:connector-curvature="0"
     style="fill:#27ae61;fill-rule:evenodd" /><path
     d="m 16.531933,0.2125453 h 12.143693 c 1.016231,0 1.848899,0.920052 1.848899,2.043818 V 20.637379 c 0,1.123766 -0.833614,2.043819 -1.848899,2.043819 h -9.669347 l -1.292526,1.201133 -1.18182,0.0084 V 0.2125453 z"
     id="path5"
     inkscape:connector-curvature="0"
     style="fill:#1e944e;fill-rule:evenodd" /><polygon
     points="36.066,45.895 46.744,20.425 35.141,11.702 2.6,11.702 2.6,48.218 25.214,48.218 28.441,50.645 30.248,50.652 "
     id="polygon7"
     transform="matrix(0.47310631,0,0,0.55659566,2.2341874,-5.1279907)"
     style="fill:#c7d9e0;fill-rule:evenodd" /><polygon
     points="30.184,50.652 31.934,50.653 35.42,48.218 57.84,48.218 57.84,11.651 30.184,11.702 "
     id="polygon9"
     transform="matrix(0.47310631,0,0,0.55659566,2.2341874,-5.1279907)"
     style="fill:#96a5a5;fill-rule:evenodd" /><polygon
     points="2.6,8.936 2.6,46.558 26.32,46.558 30.248,48.993 36.066,42.464 46.744,17.659 35.141,8.936 "
     id="polygon11"
     transform="matrix(0.47310631,0,0,0.49947367,2.2341874,-2.3294127)"
     style="fill:#e7f2f8;fill-rule:evenodd" /><polygon
     points="30.184,8.936 30.184,48.993 34.176,46.558 57.84,46.558 57.84,8.886 "
     id="polygon13"
     transform="matrix(0.47310631,0,0,0.50112962,2.2341874,-2.4105427)"
     style="fill:#c7d9e0;fill-rule:evenodd" /><rect
     x="19.644026"
     y="4.7209692"
     width="7.0450253"
     height="0.47533271"
     id="rect15"
     style="fill:#6b6c6c;fill-rule:evenodd" /><rect
     x="19.644026"
     y="5.8603201"
     width="7.0450253"
     height="0.47533271"
     id="rect17"
     style="fill:#6b6c6c;fill-rule:evenodd" /><rect
     x="19.644026"
     y="6.9022665"
     width="7.0450253"
     height="0.47533271"
     id="rect19"
     style="fill:#6b6c6c;fill-rule:evenodd" /><rect
     x="19.644026"
     y="7.9664793"
     width="5.1374612"
     height="0.47533271"
     id="rect21"
     style="fill:#6b6c6c;fill-rule:evenodd" /><rect
     x="19.644026"
     y="9.1614904"
     width="7.0450253"
     height="0.47533271"
     id="rect23"
     style="fill:#6b6c6c;fill-rule:evenodd" /><rect
     x="19.644026"
     y="10.202327"
     width="7.0450253"
     height="0.47588935"
     id="rect25"
     style="fill:#6b6c6c;fill-rule:evenodd" /><rect
     x="19.644026"
     y="11.279895"
     width="7.0450253"
     height="0.47533271"
     id="rect27"
     style="fill:#6b6c6c;fill-rule:evenodd" /><rect
     x="19.644026"
     y="12.321841"
     width="7.0450253"
     height="0.47533271"
     id="rect29"
     style="fill:#6b6c6c;fill-rule:evenodd" /><rect
     x="19.644026"
     y="13.38605"
     width="5.1374612"
     height="0.47533271"
     id="rect31"
     style="fill:#6b6c6c;fill-rule:evenodd" /><rect
     x="19.644026"
     y="14.579947"
     width="7.0450253"
     height="0.47588935"
     id="rect33"
     style="fill:#6b6c6c;fill-rule:evenodd" /><rect
     x="19.644026"
     y="15.622451"
     width="7.0450253"
     height="0.47533271"
     id="rect35"
     style="fill:#6b6c6c;fill-rule:evenodd" /><rect
     x="8.3164425"
     y="4.0413656"
     width="3.1078353"
     height="0.47533271"
     id="rect37"
     style="fill:#6b6c6c;fill-rule:evenodd" /><rect
     x="6.3478465"
     y="5.8603201"
     width="7.0445538"
     height="0.47533271"
     id="rect39"
     style="fill:#6b6c6c;fill-rule:evenodd" /><rect
     x="6.3478465"
     y="6.9022665"
     width="7.0445538"
     height="0.47533271"
     id="rect41"
     style="fill:#6b6c6c;fill-rule:evenodd" /><rect
     x="6.3478465"
     y="7.9664793"
     width="5.1384072"
     height="0.47533271"
     id="rect43"
     style="fill:#6b6c6c;fill-rule:evenodd" /><rect
     x="6.3478465"
     y="9.1614904"
     width="7.0445538"
     height="0.47533271"
     id="rect45"
     style="fill:#6b6c6c;fill-rule:evenodd" /><rect
     x="6.3478465"
     y="10.202327"
     width="7.0445538"
     height="0.47588935"
     id="rect47"
     style="fill:#6b6c6c;fill-rule:evenodd" /><rect
     x="6.3478465"
     y="11.279895"
     width="7.0445538"
     height="0.47533271"
     id="rect49"
     style="fill:#6b6c6c;fill-rule:evenodd" /><rect
     x="6.3478465"
     y="12.321841"
     width="7.0445538"
     height="0.47533271"
     id="rect51"
     style="fill:#6b6c6c;fill-rule:evenodd" /><rect
     x="6.3478465"
     y="13.38605"
     width="5.1384072"
     height="0.47533271"
     id="rect53"
     style="fill:#6b6c6c;fill-rule:evenodd" /><rect
     x="6.3478465"
     y="14.579947"
     width="7.0445538"
     height="0.47588935"
     id="rect55"
     style="fill:#6b6c6c;fill-rule:evenodd" /><rect
     x="6.3478465"
     y="15.622451"
     width="7.0445538"
     height="0.47533271"
     id="rect57"
     style="fill:#6b6c6c;fill-rule:evenodd" /></svg>