<?xml version="1.0" encoding="utf-8"?>
<!-- Generator: Adobe Illustrator 16.2.0, SVG Export Plug-In . SVG Version: 6.00 Build 0)  -->
<!DOCTYPE svg PUBLIC "-//W3C//DTD SVG 1.1//EN" "http://www.w3.org/Graphics/SVG/1.1/DTD/svg11.dtd">
<svg version="1.1" id="Layer_1" xmlns="http://www.w3.org/2000/svg" xmlns:xlink="http://www.w3.org/1999/xlink" x="0px" y="0px"
	 width="60px" height="60px" viewBox="43.497 46.497 60 60" enable-background="new 43.497 46.497 60 60" xml:space="preserve">
<g>
	<g>
		<rect x="54.59" y="52.853" fill="#A5BBC4" width="41.907" height="51.5"/>
	</g>
	<g>
		<polygon fill="#E6F1F8" points="92.404,100.259 50.496,100.259 50.496,48.759 80.308,48.759 92.404,59.917 		"/>
	</g>
	<g>
		<polygon fill="#C7D9E0" points="92.404,100.259 71.449,100.259 71.449,48.759 81.243,48.759 92.404,59.917 		"/>
	</g>
	<g>
		<rect x="65.595" y="58.256" fill="#575756" width="12.246" height="1.884"/>
	</g>
	<g>
		<rect x="59.707" y="64.93" fill="#575756" width="24.024" height="1.884"/>
	</g>
	<g>
		<rect x="59.707" y="68.463" fill="#575756" width="24.024" height="1.884"/>
	</g>
	<g>
		<rect x="59.707" y="75.951" fill="#575756" width="24.024" height="1.885"/>
	</g>
	<g>
		<rect x="59.707" y="72.199" fill="#575756" width="16.45" height="1.884"/>
	</g>
	<g>
		<rect x="59.707" y="83.615" fill="#575756" width="24.024" height="1.885"/>
	</g>
	<g>
		<rect x="59.707" y="87.149" fill="#575756" width="24.024" height="1.885"/>
	</g>
	<g>
		<rect x="59.707" y="90.884" fill="#575756" width="16.45" height="1.885"/>
	</g>
	<g>
		<rect x="59.707" y="79.72" fill="#575756" width="16.45" height="1.883"/>
	</g>
	<g>
		<polyline fill="#E6F1F8" points="81.196,48.64 81.196,59.905 92.537,59.905 		"/>
	</g>
</g>
</svg>
