<svg id="e9f3e64c-ed2e-4dc4-8e1e-efa5883701c4" data-name="Objects" xmlns="http://www.w3.org/2000/svg" xmlns:xlink="http://www.w3.org/1999/xlink" viewBox="0 0 115.23 114.24"><defs><clipPath id="cd919e8f-f5d7-4e8b-87a3-b332e37daac9"><circle cx="57.44" cy="55.5" r="55.48" transform="translate(-15.74 87.49) rotate(-67.63)" style="fill:#ffd01f"/></clipPath></defs><title>funny</title><circle cx="57.44" cy="55.5" r="55.48" transform="translate(-15.74 87.49) rotate(-67.63)" style="fill:#ffd01f"/><g style="clip-path:url(#cd919e8f-f5d7-4e8b-87a3-b332e37daac9)"><path d="M131.27,22.28c-3.23-3.75-10.53-3.87-13.73,0a20.45,20.45,0,0,0-5.14,10.95c-0.58,3.72-.89,9-1.24,11.15a86.45,86.45,0,0,1-2,9.13c-0.45,1.67-1,3.31-1.55,4.94-0.13.38-1.36,3.49-1.26,3.33a78.37,78.37,0,0,1-3.81,7.41c-0.81,1.41-1.7,2.77-2.59,4.12-0.2.3-2.07,2.85-2,2.75a77,77,0,0,1-6.17,6.77C90.66,83.94,89.47,85,88.27,86q-0.9.77-1.83,1.52L86,87.89c-20.46,15.23-45,18-70.58,19.48-3.61.2-5.35,5.13-1.91,7,25.87,14.41,60.3,10.2,84.27-6.38a88.46,88.46,0,0,0,29-33.27,94.54,94.54,0,0,0,7.8-22.53,120.41,120.41,0,0,0,2-14.3C137.08,31.77,135.22,26.87,131.27,22.28Z" style="fill:#ffb200"/><path d="M146.23,5.16C143.68,1.3,141.15-3,137.1-5.36a81.38,81.38,0,0,0-13-6.07c-8.3-3.1-17.7-4.16-26.48-4.7A127.64,127.64,0,0,0,44.31-7.45C27.47-.92,10.49,10-0.18,24.85-10,38.45-16,56.33-10.85,72.85c1.68,5.35,4.46,10.07,7.37,14.82a1,1,0,0,0,1.92-.52C-1.87,79,.24,71.33,2,63.52a53.82,53.82,0,0,1,9-20.1c0-.06.9-1.21,1.08-1.47q0.7-.87,1.43-1.72c1.23-1.45,2.56-2.81,3.85-4.21A79.41,79.41,0,0,1,26,28.08l0.24-.2,0.73-.53c0.8-.59,1.62-1.16,2.44-1.72,1.66-1.14,3.37-2.21,5.1-3.24a105.22,105.22,0,0,1,11.14-5.74l1.87-.79c1-.39,1.95-0.75,2.92-1.11,2-.73,3.93-1.46,5.93-2.12a122.92,122.92,0,0,1,12.2-3.33c2.06-.46,4.13-0.84,6.21-1.19C75.47,8,76.18,7.9,76.88,7.8c-0.11,0,1.86-.22,2.1-0.25a115.43,115.43,0,0,1,13.49-.62c2,0,4.09.12,6.14,0.26,1,0.07,2,.16,3,0.26l1.76,0.21a90,90,0,0,1,11.68,2.57c3.34,1,6.66,2,9.9,3.29,0.2,0.1,1.49.65,1.72,0.76a15.67,15.67,0,0,0,6.42,1.65l1.54,0.18c0.88,0.18,1.76.43,2.63,0.66C143.7,18.43,150.2,11.15,146.23,5.16Z" style="fill:#ffe544"/></g><path d="M36.14,5.39L39.79,4c0.6-.21,1.25-0.51,2-0.73l2.49-.69c0.9-.23,1.86-0.56,2.9-0.79l3.34-.62,1.82-.34,1.94-.18,2-.21A16.66,16.66,0,0,1,58.45.31l4.55,0c1.57,0.09,3.2.25,4.89,0.39A55.37,55.37,0,0,1,89.56,7.94,53.7,53.7,0,0,1,108.5,27.56a13.79,13.79,0,0,1,.84,1.63l0.79,1.67,0.79,1.68,0.4,0.85,0.09,0.22,0,0.11,0.07,0.21,0.15,0.42a55.69,55.69,0,0,1,2.13,7.11A54.75,54.75,0,0,1,115.19,57l-0.31,3.93c-0.12,1.31-.42,2.61-0.63,3.91l-0.34,2-0.51,1.93c-0.36,1.28-.64,2.59-1.06,3.85a69.26,69.26,0,0,1-6.89,14.58l-2.34,3.35c-0.2.28-.38,0.56-0.59,0.83l-0.67.78-1.33,1.57-1.32,1.58c-0.45.51-1,1-1.45,1.46-1,1-1.94,2-3,2.87l-3.21,2.64-0.81.66-0.86.58-1.73,1.16-1.73,1.17a20.7,20.7,0,0,1-1.82,1l-3.77,2-3.76,1.57a20.1,20.1,0,0,1-1.92.75l-2,.62-2.05.62-1,.31-1,.21-4.15.81A58.67,58.67,0,0,1,48,113.57a61.89,61.89,0,0,1-15.87-5c-1.25-.59-2.42-1.31-3.63-2-0.6-.34-1.21-0.66-1.79-1L25,104.44c-1.11-.79-2.27-1.51-3.32-2.37l-3.1-2.61A54.73,54.73,0,0,1,8.51,87.31a56.49,56.49,0,0,1-3.62-6.78l-0.21-.43-0.1-.21-0.05-.11s-0.14-.35-0.1-0.26l-0.31-.84L3.51,77,2.9,75.36a13.85,13.85,0,0,1-.56-1.72L1.41,70C1.27,69.37,1.08,68.77,1,68.17L0.73,66.38,0.22,62.86c-0.09-1.17-.1-2.34-0.16-3.5a47.45,47.45,0,0,1,.22-6.8,23,23,0,0,1,.46-3.27L1.31,46.1a56,56,0,0,1,9.6-20.79C12,24,13,22.68,14,21.47l3.13-3.31a16.69,16.69,0,0,1,1.57-1.45l1.54-1.34,1.46-1.29L23.17,13l2.74-2c0.88-.6,1.77-1.07,2.56-1.57l2.21-1.33c0.68-.4,1.35-0.67,1.91-1L36.13,5.4h0Zm0.22,0.56L32.89,7.7c-0.56.3-1.22,0.57-1.87,1l-2.13,1.39c-0.76.51-1.61,1-2.44,1.65l-2.58,2.12A49,49,0,0,0,13.15,26.79,56.44,56.44,0,0,0,6.28,47a61.42,61.42,0,0,0-.33,12.06L6.21,62.2l0.55,3.14L7,66.93c0.1,0.53.27,1,.41,1.53l0.84,3.07a11.76,11.76,0,0,0,.55,1.61l0.63,1.65,0.64,1.66,0.32,0.83c0.07,0.17,0-.11,0,0l0,0.09,0.1,0.19,0.19,0.38a51.75,51.75,0,0,0,3.25,6,53.46,53.46,0,0,0,8.86,11l2.71,2.4c0.91,0.8,1.95,1.45,2.92,2.19L30,100.55l1.58,0.95c1.07,0.61,2.1,1.3,3.21,1.86a57.74,57.74,0,0,0,14.2,5l3.78,0.6c0.32,0,.63.11,1,0.14l1,0.06,1.92,0.12,1.93,0.14c0.64,0,1.29,0,1.93,0,1.29-.05,2.59,0,3.88-0.14l3.88-.46,1-.12,0.94-.21L72,108l1.89-.41a19,19,0,0,0,1.93-.59l3.87-1.29,3.54-1.59a19.07,19.07,0,0,0,1.79-.85l1.72-1,1.71-1,0.86-.5,0.8-.58,3.21-2.35a54.33,54.33,0,0,0,10.59-11.73,52.2,52.2,0,0,0,6.37-14.2c0.35-1.24.55-2.51,0.84-3.75,0.13-.62.28-1.24,0.38-1.87l0.19-1.89c0.1-1.26.3-2.5,0.32-3.76s0-2.49,0-3.73V56l-0.09-.92-0.19-1.83a28.12,28.12,0,0,0-.49-3.61l-0.72-3.53a13.27,13.27,0,0,0-.47-1.69l-0.51-1.66A55,55,0,0,0,107,36.1l-0.17-.42-0.08-.21,0-.1c0-.06.06,0.16,0,0l-0.4-.76-0.79-1.51-0.78-1.5a11.67,11.67,0,0,0-.83-1.45A61.1,61.1,0,0,0,87,12c-0.8-.55-1.64-1-2.44-1.55s-1.59-1.06-2.42-1.5L79.63,7.65a22.4,22.4,0,0,0-2.46-1.18l-2.47-1a19.47,19.47,0,0,0-2.44-.9l-2.43-.73a20.15,20.15,0,0,0-2.38-.64c-1.59-.3-3.13-0.63-4.63-0.88l-4.38-.38a15.84,15.84,0,0,0-2.07,0l-2,0L52.47,2l-1.8.22-3.32.44c-1,.17-2,0.45-2.87.66L42,3.9c-0.75.19-1.41,0.49-2,.69L36.35,6h0Z" style="fill:#191919"/><path d="M85.22,66.35L85,67.07l-0.33.86a7.72,7.72,0,0,1-.51,1.14l-0.72,1.41c-0.28.5-.63,1-1,1.58a27.5,27.5,0,0,1-2.81,3.52c-0.56.62-1.22,1.18-1.87,1.81s-1.41,1.18-2.2,1.73a31.1,31.1,0,0,1-5.28,3,33.26,33.26,0,0,1-6.23,2,35.69,35.69,0,0,1-6.73.71,35.62,35.62,0,0,1-6.73-.71,33.19,33.19,0,0,1-6.23-2,31.18,31.18,0,0,1-5.28-3c-0.79-.55-1.51-1.16-2.2-1.73S35.53,76.22,35,75.6a27.54,27.54,0,0,1-2.81-3.53c-0.35-.57-0.7-1.08-1-1.58l-0.71-1.4a17.63,17.63,0,0,1-.85-2l-0.26-.72,0.55,0.54c0.36,0.35.84,0.88,1.53,1.5l1.1,1,1.35,1.12a40.43,40.43,0,0,0,3.33,2.42c0.62,0.42,1.3.79,2,1.21s1.41,0.78,2.18,1.12a39.3,39.3,0,0,0,4.86,1.93,43.42,43.42,0,0,0,5.39,1.25,41.42,41.42,0,0,0,5.67.44A41.27,41.27,0,0,0,63,78.45a43.24,43.24,0,0,0,5.39-1.25,39.47,39.47,0,0,0,4.86-1.93c0.77-.34,1.46-0.77,2.18-1.12s1.36-.79,2-1.21a40.51,40.51,0,0,0,3.33-2.42L82,69.41l1.1-1c0.68-.61,1.18-1.17,1.53-1.51Z" style="fill:#191919"/><path d="M35.08,50.73l-0.16-.26a3.33,3.33,0,0,1-.36-0.75,5.75,5.75,0,0,1-.29-1.34,6.55,6.55,0,0,1,.12-1.8,7.08,7.08,0,0,1,.82-2.06,7.52,7.52,0,0,1,1.65-1.95,8.31,8.31,0,0,1,2.43-1.41,9,9,0,0,1,2.89-.51l0.67,0a6.09,6.09,0,0,1,.72.09,8.05,8.05,0,0,1,1.5.38,8.32,8.32,0,0,1,2.43,1.41,7.55,7.55,0,0,1,1.65,1.95A7.11,7.11,0,0,1,50,46.57a6.57,6.57,0,0,1,.12,1.81,5.23,5.23,0,0,1-.29,1.32,3.72,3.72,0,0,1-.36.78,2.79,2.79,0,0,1-.16.26l-0.18-.24c-0.11-.16-0.27-0.38-0.48-0.63A9.5,9.5,0,0,0,47.85,49a10,10,0,0,0-1-.83,8.09,8.09,0,0,0-1.12-.69,7.68,7.68,0,0,0-1.19-.5,8.68,8.68,0,0,0-1.2-.28c-0.2,0-.42-0.06-0.52-0.05a1.82,1.82,0,0,0-.32,0H42.08l0-.24,0-.24h0c0.07,0-.16.23,0.14,0.24a10.92,10.92,0,0,0-1.21.21,9.06,9.06,0,0,0-1.21.34,8,8,0,0,0-1.19.53,8.27,8.27,0,0,0-1.12.71,10.17,10.17,0,0,0-1,.83c-0.28.29-.55,0.56-0.74,0.81s-0.37.51-.48,0.65Z" style="fill:#191919"/><path d="M68.08,50.73l-0.16-.26a3.33,3.33,0,0,1-.36-0.75,5.75,5.75,0,0,1-.29-1.34,6.55,6.55,0,0,1,.12-1.8,7.08,7.08,0,0,1,.82-2.06,7.52,7.52,0,0,1,1.65-1.95,8.31,8.31,0,0,1,2.43-1.41,9,9,0,0,1,2.89-.51l0.67,0a6.09,6.09,0,0,1,.72.09,8.05,8.05,0,0,1,1.5.38,8.32,8.32,0,0,1,2.43,1.41,7.55,7.55,0,0,1,1.65,1.95A7.11,7.11,0,0,1,83,46.57a6.57,6.57,0,0,1,.12,1.81,5.23,5.23,0,0,1-.29,1.32,3.72,3.72,0,0,1-.36.78,2.79,2.79,0,0,1-.16.26l-0.18-.24c-0.11-.16-0.27-0.38-0.48-0.63A9.5,9.5,0,0,0,80.85,49a10,10,0,0,0-1-.83,8.09,8.09,0,0,0-1.12-.69,7.68,7.68,0,0,0-1.19-.5,8.68,8.68,0,0,0-1.2-.28c-0.2,0-.42-0.06-0.52-0.05a1.82,1.82,0,0,0-.32,0H75.08l0-.24,0-.24h0c0.07,0-.16.23,0.14,0.24a10.92,10.92,0,0,0-1.21.21,9.06,9.06,0,0,0-1.21.34,8,8,0,0,0-1.19.53,8.27,8.27,0,0,0-1.12.71,10.17,10.17,0,0,0-1,.83c-0.28.29-.55,0.56-0.74,0.81s-0.37.51-.48,0.65Z" style="fill:#191919"/></svg>