<svg id="11c9957f-208c-4612-b765-cf9eaf94f0a8" data-name="Objects" xmlns="http://www.w3.org/2000/svg" xmlns:xlink="http://www.w3.org/1999/xlink" viewBox="0 0 115.23 114.24"><defs><clipPath id="82fef505-26b8-42a4-a955-ff7cfe912322"><circle cx="57.44" cy="55.5" r="55.48" transform="translate(-15.74 87.49) rotate(-67.63)" style="fill:#ffd01f"/></clipPath></defs><title>ha-ha</title><circle cx="57.44" cy="55.5" r="55.48" transform="translate(-15.74 87.49) rotate(-67.63)" style="fill:#ffd01f"/><g style="clip-path:url(#82fef505-26b8-42a4-a955-ff7cfe912322)"><path d="M131.27,22.28c-3.23-3.75-10.53-3.87-13.73,0a20.46,20.46,0,0,0-5.14,10.95c-0.58,3.72-.89,9-1.24,11.15a86.3,86.3,0,0,1-2,9.13c-0.45,1.67-1,3.31-1.55,4.94-0.13.38-1.36,3.49-1.26,3.33a78.59,78.59,0,0,1-3.81,7.41c-0.81,1.41-1.7,2.77-2.59,4.12-0.2.3-2.07,2.85-2,2.75a76.86,76.86,0,0,1-6.17,6.77C90.66,83.94,89.47,85,88.27,86q-0.9.77-1.83,1.52L86,87.89c-20.46,15.23-45,18-70.58,19.48-3.61.2-5.35,5.13-1.91,7,25.87,14.42,60.29,10.2,84.27-6.38a88.46,88.46,0,0,0,29-33.27,94.51,94.51,0,0,0,7.8-22.53,120.3,120.3,0,0,0,2-14.3C137.08,31.77,135.22,26.87,131.27,22.28Z" style="fill:#ffb200"/><path d="M146.23,5.16C143.68,1.3,141.15-3,137.1-5.36a81.4,81.4,0,0,0-13-6.07c-8.3-3.1-17.71-4.16-26.48-4.7A127.64,127.64,0,0,0,44.31-7.45C27.47-.92,10.49,10-0.18,24.85-10,38.45-16,56.33-10.85,72.85c1.68,5.35,4.46,10.07,7.37,14.82a1,1,0,0,0,1.92-.52C-1.87,79,.24,71.33,2,63.52a53.82,53.82,0,0,1,9-20.1c0-.06.9-1.21,1.08-1.47q0.7-.87,1.43-1.72c1.23-1.45,2.56-2.81,3.85-4.21A79.35,79.35,0,0,1,26,28.08l0.24-.2,0.73-.53c0.8-.59,1.62-1.16,2.44-1.72,1.66-1.14,3.37-2.21,5.1-3.24a105.08,105.08,0,0,1,11.14-5.74l1.87-.79c1-.39,1.95-0.75,2.92-1.11,2-.73,3.94-1.46,5.93-2.12a122.88,122.88,0,0,1,12.2-3.33c2.06-.46,4.13-0.84,6.21-1.19C75.47,8,76.18,7.9,76.88,7.8c-0.11,0,1.86-.22,2.1-0.25a115.42,115.42,0,0,1,13.49-.62c2,0,4.09.12,6.14,0.26,1,0.07,2,.16,3,0.26l1.76,0.21a90,90,0,0,1,11.68,2.57c3.34,1,6.66,2,9.9,3.29,0.2,0.1,1.5.65,1.72,0.76a15.67,15.67,0,0,0,6.42,1.65l1.54,0.18c0.88,0.18,1.76.43,2.63,0.66C143.7,18.43,150.2,11.15,146.23,5.16Z" style="fill:#ffe544"/></g><path d="M36.14,5.39L39.79,4c0.6-.21,1.25-0.51,2-0.73l2.49-.69c0.9-.23,1.86-0.56,2.9-0.79l3.34-.62,1.82-.34,1.94-.18,2-.21A16.66,16.66,0,0,1,58.45.31l4.55,0c1.57,0.09,3.2.25,4.89,0.39A55.37,55.37,0,0,1,89.56,7.94,53.7,53.7,0,0,1,108.5,27.56a13.78,13.78,0,0,1,.84,1.63l0.79,1.67,0.79,1.68,0.4,0.85,0.09,0.22,0,0.11,0.07,0.21,0.15,0.42a55.68,55.68,0,0,1,2.13,7.11A54.75,54.75,0,0,1,115.19,57l-0.31,3.93c-0.12,1.31-.42,2.61-0.63,3.91l-0.34,2-0.51,1.93c-0.36,1.28-.64,2.59-1.06,3.85a69.26,69.26,0,0,1-6.89,14.58l-2.34,3.35c-0.2.28-.38,0.56-0.59,0.83l-0.67.78-1.33,1.57-1.32,1.58c-0.45.51-1,1-1.45,1.46-1,1-1.94,2-3,2.87l-3.21,2.64-0.81.66-0.86.58-1.73,1.16-1.73,1.17a20.71,20.71,0,0,1-1.82,1l-3.77,2-3.76,1.57a20.1,20.1,0,0,1-1.92.75l-2,.62-2.05.62-1,.31-1,.21-4.15.81A58.67,58.67,0,0,1,48,113.57a61.89,61.89,0,0,1-15.87-5c-1.25-.59-2.42-1.31-3.63-2-0.6-.34-1.21-0.66-1.79-1L25,104.44c-1.11-.79-2.27-1.51-3.32-2.37l-3.1-2.61A54.73,54.73,0,0,1,8.51,87.31a56.48,56.48,0,0,1-3.62-6.78l-0.21-.43-0.1-.21-0.05-.11s-0.14-.36-0.1-0.26l-0.31-.84L3.51,77,2.9,75.36a13.87,13.87,0,0,1-.56-1.72L1.41,70C1.27,69.37,1.08,68.77,1,68.17L0.73,66.38,0.22,62.86c-0.09-1.17-.1-2.34-0.16-3.5a47.45,47.45,0,0,1,.22-6.8,23,23,0,0,1,.46-3.27L1.31,46.1a56,56,0,0,1,9.6-20.79C12,24,13,22.68,14,21.47l3.13-3.31a16.69,16.69,0,0,1,1.57-1.45l1.54-1.34,1.46-1.29L23.17,13l2.74-2c0.88-.6,1.77-1.07,2.56-1.57l2.21-1.33c0.68-.4,1.35-0.67,1.91-1L36.13,5.4h0Zm0.22,0.56L32.89,7.7c-0.56.3-1.22,0.57-1.87,1l-2.13,1.39c-0.76.51-1.61,1-2.44,1.65l-2.58,2.12A49,49,0,0,0,13.15,26.79,56.44,56.44,0,0,0,6.28,47a61.42,61.42,0,0,0-.33,12.06L6.21,62.2l0.55,3.14L7,66.93c0.1,0.53.27,1,.41,1.53l0.84,3.07a11.76,11.76,0,0,0,.55,1.61l0.63,1.65,0.64,1.66,0.32,0.83c0.07,0.17,0-.11,0,0l0,0.09,0.1,0.19,0.19,0.38a51.75,51.75,0,0,0,3.25,6,53.46,53.46,0,0,0,8.86,11l2.71,2.4c0.91,0.8,1.95,1.45,2.92,2.19L30,100.55l1.58,0.95c1.07,0.61,2.1,1.3,3.21,1.86a57.74,57.74,0,0,0,14.2,5l3.78,0.6c0.32,0,.63.11,1,0.14l1,0.06,1.92,0.12,1.93,0.14c0.64,0,1.29,0,1.93,0,1.29-.05,2.59,0,3.88-0.14l3.88-.46,1-.12,0.94-.21L72,108l1.89-.41a18.94,18.94,0,0,0,1.93-.59l3.87-1.29,3.54-1.59a19.09,19.09,0,0,0,1.79-.85l1.72-1,1.71-1,0.86-.5,0.8-.58,3.21-2.35a54.33,54.33,0,0,0,10.59-11.73,52.2,52.2,0,0,0,6.37-14.2c0.35-1.24.55-2.51,0.84-3.75,0.13-.62.28-1.24,0.38-1.87l0.19-1.89c0.1-1.26.3-2.5,0.32-3.76s0-2.49,0-3.73V56l-0.09-.92-0.19-1.83a28.12,28.12,0,0,0-.49-3.61l-0.72-3.53a13.28,13.28,0,0,0-.47-1.69l-0.51-1.66A55,55,0,0,0,107,36.1l-0.17-.42-0.08-.21,0-.1c0-.06.06,0.16,0,0l-0.4-.76-0.79-1.51-0.78-1.5a11.67,11.67,0,0,0-.83-1.45A61.1,61.1,0,0,0,87,12c-0.8-.55-1.64-1-2.44-1.55s-1.59-1.06-2.42-1.5L79.63,7.65a22.39,22.39,0,0,0-2.46-1.18l-2.47-1a19.47,19.47,0,0,0-2.44-.9l-2.43-.73a20.15,20.15,0,0,0-2.38-.64c-1.59-.3-3.13-0.63-4.63-0.88l-4.38-.38a15.84,15.84,0,0,0-2.07,0l-2,0L52.47,2l-1.8.22-3.32.44c-1,.17-2,0.45-2.87.66L42,3.9c-0.75.19-1.41,0.49-2,.69L36.35,6h0Z" style="fill:#191919"/><path d="M21.49,61.6a36.06,36.06,0,0,0,71.92,0H21.49Z" style="fill:#fff"/><path d="M21.49,61.6l0.68,3.31,1,3.19c0.38,1,.82,2.06,1.22,3.08s1,2,1.49,2.94S27,76,27.55,76.92l2,2.6,2.18,2.4,2.36,2.2c0.85,0.65,1.69,1.33,2.55,2s1.79,1.16,2.7,1.71,1.88,1,2.83,1.45,1.94,0.84,2.93,1.2,2,0.65,3,.92,2.05,0.45,3.09.63,2.08,0.25,3.12.34l1.57,0,0.78,0h0.66l3.36-.23c1-.15,2-0.34,3-0.49s2-.53,3-0.78,1.95-.71,2.92-1.06,1.87-.89,2.81-1.31,1.79-1,2.69-1.54,1.68-1.2,2.53-1.79,1.57-1.35,2.35-2L82.12,81l1.94-2.41L85.76,76c0.49-.91,1-1.8,1.48-2.71s0.83-1.88,1.22-2.84l1-2.94,0.69-3,0.41-3.07L93.4,64.5c-3,0-6-.09-9-0.14l-9-.17c-3,0-6-.16-9-0.24l-9-.28-9-.39c-3-.12-6-0.28-9-0.45s-6-.33-9-0.54S24.48,61.86,21.49,61.6Zm0,0q4.49-.39,9-0.68c3-.21,6-0.38,9-0.54s6-.33,9-0.45l9-.39,9-.28c3-.09,6-0.21,9-0.24l9-.17c3-.05,6-0.13,9-0.14l3.25,0-0.36,3.13-0.41,3.62c-0.23,1.19-.49,2.38-0.75,3.57s-0.73,2.32-1.1,3.48-0.94,2.24-1.42,3.36S91.47,78,90.89,79.06s-1.36,2-2,3l-2.32,2.82c-0.85.86-1.7,1.74-2.57,2.58s-1.85,1.58-2.8,2.33-2,1.41-3,2.06-2.1,1.22-3.18,1.77-2.21,1-3.34,1.44-2.3.79-3.46,1.11-2.35.56-3.55,0.78-2.5.33-3.7,0.45l-3.37.1H57l-0.45,0-0.9-.06-1.8-.13c-1.19-.17-2.37-0.4-3.55-0.61s-2.32-.62-3.47-0.93-2.24-.83-3.36-1.25-2.15-1-3.22-1.55-2-1.24-3-1.87-1.89-1.43-2.83-2.14-1.74-1.6-2.61-2.39l-2.36-2.61-2.07-2.83c-0.6-1-1.21-2-1.78-3S24.56,76,24.08,75s-0.79-2.17-1.15-3.26-0.58-2.22-.83-3.34S21.76,66.1,21.62,65Z" style="fill:#191919"/><path d="M36.83,31.93a20.08,20.08,0,0,1,2.09,1c0.67,0.35,1.31.74,1.94,1.14a39.27,39.27,0,0,1,3.56,2.56c1.14,0.9,2.21,1.86,3.25,2.85,0.51,0.51,1,1,1.52,1.52s1,1,1.46,1.58l2,2.36L50.4,46.85c-1.07.9-2.16,1.76-3.29,2.57s-2.3,1.6-3.49,2.34-2.45,1.42-3.74,2.06c-0.65.31-1.3,0.62-2,.89a20.7,20.7,0,0,1-2.1.76,20.7,20.7,0,0,1,1.07-2c0.37-.64.77-1.24,1.18-1.83,0.82-1.18,1.69-2.3,2.59-3.39s1.85-2.11,2.84-3.1,2-2,3-2.87l-0.25,4.28c-0.5-.51-1-1.05-1.45-1.59s-0.92-1.1-1.39-1.64c-0.9-1.12-1.76-2.27-2.56-3.48a39.27,39.27,0,0,1-2.25-3.77c-0.34-.66-0.67-1.33-1-2A20.08,20.08,0,0,1,36.83,31.93Z" style="fill:#191919"/><path d="M78.41,31.93a20.08,20.08,0,0,1-.81,2.17c-0.3.7-.63,1.37-1,2a39.27,39.27,0,0,1-2.25,3.77c-0.8,1.21-1.67,2.36-2.56,3.48-0.46.55-.9,1.12-1.39,1.64S69.49,46.1,69,46.61l-0.25-4.28c1,0.92,2.06,1.87,3,2.87s1.92,2,2.84,3.1,1.78,2.2,2.59,3.39c0.41,0.59.81,1.19,1.18,1.83a20.7,20.7,0,0,1,1.07,2,20.7,20.7,0,0,1-2.1-.76c-0.69-.27-1.34-0.58-2-0.89-1.29-.63-2.53-1.32-3.74-2.06s-2.37-1.51-3.49-2.34-2.23-1.68-3.29-2.57l-2.29-1.92,2-2.36c0.47-.54,1-1.06,1.46-1.58s1-1,1.52-1.52c1-1,2.11-1.95,3.25-2.85a39.27,39.27,0,0,1,3.56-2.56c0.63-.39,1.27-0.78,1.94-1.14A20.08,20.08,0,0,1,78.41,31.93Z" style="fill:#191919"/></svg>