<svg id="6b07061e-1bc3-49b0-9c09-8ffb50102727" data-name="Objects" xmlns="http://www.w3.org/2000/svg" xmlns:xlink="http://www.w3.org/1999/xlink" viewBox="0 0 115.23 114.24"><defs><clipPath id="fc60380c-484d-4495-85cb-e0b0d017685b"><circle cx="57.44" cy="55.5" r="55.48" transform="translate(-15.74 87.49) rotate(-67.63)" style="fill:#ffd01f"/></clipPath></defs><title>in-love</title><circle cx="57.44" cy="55.5" r="55.48" transform="translate(-15.74 87.49) rotate(-67.63)" style="fill:#ffd01f"/><g style="clip-path:url(#fc60380c-484d-4495-85cb-e0b0d017685b)"><path d="M131.27,22.28c-3.23-3.75-10.53-3.87-13.73,0a20.46,20.46,0,0,0-5.14,10.95c-0.58,3.72-.89,9-1.24,11.15a86.3,86.3,0,0,1-2,9.13c-0.45,1.67-1,3.31-1.55,4.94-0.13.38-1.36,3.49-1.26,3.33a78.59,78.59,0,0,1-3.81,7.41c-0.81,1.41-1.7,2.77-2.59,4.12-0.2.3-2.07,2.85-2,2.75a76.86,76.86,0,0,1-6.17,6.77C90.66,83.94,89.47,85,88.27,86q-0.9.77-1.83,1.52L86,87.89c-20.46,15.23-45,18-70.58,19.48-3.61.2-5.35,5.13-1.91,7,25.87,14.42,60.29,10.2,84.27-6.38a88.46,88.46,0,0,0,29-33.27,94.51,94.51,0,0,0,7.8-22.53,120.3,120.3,0,0,0,2-14.3C137.08,31.77,135.22,26.87,131.27,22.28Z" style="fill:#ffb200"/><path d="M146.23,5.16C143.68,1.3,141.15-3,137.1-5.36a81.4,81.4,0,0,0-13-6.07c-8.3-3.1-17.71-4.16-26.48-4.7A127.64,127.64,0,0,0,44.31-7.45C27.47-.92,10.49,10-0.18,24.85-10,38.45-16,56.33-10.85,72.85c1.68,5.35,4.46,10.07,7.37,14.82a1,1,0,0,0,1.92-.52C-1.87,79,.24,71.33,2,63.52a53.82,53.82,0,0,1,9-20.1c0-.06.9-1.21,1.08-1.47q0.7-.87,1.43-1.72c1.23-1.45,2.56-2.81,3.85-4.21A79.35,79.35,0,0,1,26,28.08l0.24-.2,0.73-.53c0.8-.59,1.62-1.16,2.44-1.72,1.66-1.14,3.37-2.21,5.1-3.24a105.08,105.08,0,0,1,11.14-5.74l1.87-.79c1-.39,1.95-0.75,2.92-1.11,2-.73,3.94-1.46,5.93-2.12a122.88,122.88,0,0,1,12.2-3.33c2.06-.46,4.13-0.84,6.21-1.19C75.47,8,76.18,7.9,76.88,7.8c-0.11,0,1.86-.22,2.1-0.25a115.42,115.42,0,0,1,13.49-.62c2,0,4.09.12,6.14,0.26,1,0.07,2,.16,3,0.26l1.76,0.21a90,90,0,0,1,11.68,2.57c3.34,1,6.66,2,9.9,3.29,0.2,0.1,1.5.65,1.72,0.76a15.67,15.67,0,0,0,6.42,1.65l1.54,0.18c0.88,0.18,1.76.43,2.63,0.66C143.7,18.43,150.2,11.15,146.23,5.16Z" style="fill:#ffe544"/></g><path d="M36.14,5.39L39.79,4c0.6-.21,1.25-0.51,2-0.73l2.49-.69c0.9-.23,1.86-0.56,2.9-0.79l3.34-.62,1.82-.34,1.94-.18,2-.21A16.66,16.66,0,0,1,58.45.31l4.55,0c1.57,0.09,3.2.25,4.89,0.39A55.37,55.37,0,0,1,89.56,7.94,53.7,53.7,0,0,1,108.5,27.56a13.78,13.78,0,0,1,.84,1.63l0.79,1.67,0.79,1.68,0.4,0.85,0.09,0.22,0,0.11,0.07,0.21,0.15,0.42a55.68,55.68,0,0,1,2.13,7.11A54.75,54.75,0,0,1,115.19,57l-0.31,3.93c-0.12,1.31-.42,2.61-0.63,3.91l-0.34,2-0.51,1.93c-0.36,1.28-.64,2.59-1.06,3.85a69.26,69.26,0,0,1-6.89,14.58l-2.34,3.35c-0.2.28-.38,0.56-0.59,0.83l-0.67.78-1.33,1.57-1.32,1.58c-0.45.51-1,1-1.45,1.46-1,1-1.94,2-3,2.87l-3.21,2.64-0.81.66-0.86.58-1.73,1.16-1.73,1.17a20.71,20.71,0,0,1-1.82,1l-3.77,2-3.76,1.57a20.09,20.09,0,0,1-1.92.75l-2,.62-2.05.62-1,.31-1,.21-4.15.81A58.67,58.67,0,0,1,48,113.57a61.89,61.89,0,0,1-15.87-5c-1.25-.59-2.42-1.31-3.63-2-0.6-.34-1.21-0.66-1.79-1L25,104.44c-1.11-.79-2.27-1.51-3.32-2.37l-3.1-2.61A54.73,54.73,0,0,1,8.51,87.31a56.49,56.49,0,0,1-3.62-6.78l-0.21-.43-0.1-.21-0.05-.11s-0.14-.36-0.1-0.26l-0.31-.84L3.51,77,2.9,75.36a13.87,13.87,0,0,1-.56-1.72L1.41,70C1.27,69.37,1.08,68.77,1,68.17L0.73,66.38,0.22,62.86c-0.09-1.17-.1-2.34-0.16-3.5a47.45,47.45,0,0,1,.22-6.8,23,23,0,0,1,.46-3.27L1.31,46.1a56,56,0,0,1,9.6-20.79C12,24,13,22.68,14,21.47l3.13-3.31a16.69,16.69,0,0,1,1.57-1.45l1.54-1.34,1.46-1.29L23.18,13l2.74-2c0.88-.6,1.77-1.07,2.56-1.57l2.21-1.33c0.68-.4,1.35-0.67,1.91-1L36.13,5.4h0Zm0.22,0.56L32.89,7.7c-0.56.3-1.22,0.57-1.87,1l-2.13,1.39c-0.76.51-1.61,1-2.44,1.65l-2.58,2.12A49,49,0,0,0,13.15,26.79,56.44,56.44,0,0,0,6.28,47a61.42,61.42,0,0,0-.33,12.06L6.21,62.2l0.55,3.14L7,66.93c0.1,0.53.27,1,.41,1.53l0.84,3.07a11.76,11.76,0,0,0,.55,1.61l0.63,1.65,0.64,1.66,0.32,0.83c0.07,0.17,0-.11,0,0l0,0.09,0.1,0.19,0.19,0.38a51.75,51.75,0,0,0,3.25,6,53.46,53.46,0,0,0,8.86,11l2.71,2.4c0.91,0.8,1.95,1.45,2.92,2.19L30,100.55l1.58,0.95c1.07,0.61,2.1,1.3,3.21,1.86a57.74,57.74,0,0,0,14.2,5l3.78,0.6c0.32,0,.63.11,1,0.14l1,0.06,1.92,0.12,1.93,0.14c0.64,0,1.29,0,1.93,0,1.29-.05,2.59,0,3.88-0.14l3.88-.46,1-.12,0.94-.21L72,108l1.89-.41a18.94,18.94,0,0,0,1.93-.59l3.87-1.29,3.54-1.59a19.09,19.09,0,0,0,1.79-.85l1.72-1,1.71-1,0.86-.5,0.8-.58,3.21-2.35a54.33,54.33,0,0,0,10.59-11.73,52.2,52.2,0,0,0,6.37-14.2c0.35-1.24.55-2.51,0.84-3.75,0.13-.62.28-1.24,0.38-1.87l0.19-1.89c0.1-1.26.3-2.5,0.32-3.76s0-2.49,0-3.73V56l-0.09-.92-0.19-1.83a28.12,28.12,0,0,0-.49-3.61l-0.72-3.53a13.28,13.28,0,0,0-.47-1.69l-0.51-1.66A55,55,0,0,0,107,36.1l-0.17-.42-0.08-.21,0-.1c0-.06.06,0.16,0,0l-0.4-.76-0.79-1.51-0.78-1.5a11.67,11.67,0,0,0-.83-1.45A61.1,61.1,0,0,0,87,12c-0.8-.55-1.64-1-2.44-1.55s-1.59-1.06-2.42-1.5L79.63,7.65a22.39,22.39,0,0,0-2.46-1.18l-2.47-1a19.47,19.47,0,0,0-2.44-.9l-2.43-.73a20.15,20.15,0,0,0-2.38-.64c-1.59-.3-3.13-0.63-4.63-0.88l-4.38-.38a15.84,15.84,0,0,0-2.07,0l-2,0L52.47,2l-1.8.22-3.32.44c-1,.17-2,0.45-2.87.66L42,3.9c-0.75.19-1.41,0.49-2,.69L36.35,6h0Z" style="fill:#191919"/><path d="M87.22,67.35L87,68.07l-0.33.86a7.72,7.72,0,0,1-.51,1.14l-0.72,1.41c-0.28.5-.63,1-1,1.58a27.51,27.51,0,0,1-2.81,3.52c-0.56.62-1.22,1.18-1.87,1.81s-1.41,1.18-2.2,1.73a31.1,31.1,0,0,1-5.28,3,33.26,33.26,0,0,1-6.23,2,35.69,35.69,0,0,1-6.73.71,35.61,35.61,0,0,1-6.73-.71,33.19,33.19,0,0,1-6.23-2,31.18,31.18,0,0,1-5.28-3c-0.79-.55-1.51-1.16-2.2-1.73S37.53,77.22,37,76.6a27.54,27.54,0,0,1-2.81-3.53c-0.35-.57-0.7-1.08-1-1.58l-0.71-1.4a17.64,17.64,0,0,1-.85-2l-0.26-.72,0.55,0.54c0.36,0.35.84,0.88,1.53,1.5l1.1,1,1.35,1.12a40.43,40.43,0,0,0,3.33,2.42c0.62,0.42,1.3.79,2,1.21s1.41,0.78,2.18,1.12a39.29,39.29,0,0,0,4.86,1.93,43.41,43.41,0,0,0,5.39,1.25,41.42,41.42,0,0,0,5.67.44A41.28,41.28,0,0,0,65,79.45a43.24,43.24,0,0,0,5.39-1.25,39.47,39.47,0,0,0,4.86-1.93c0.77-.34,1.46-0.77,2.18-1.12s1.36-.79,2-1.21a40.52,40.52,0,0,0,3.33-2.42L84,70.41l1.09-1c0.68-.61,1.18-1.17,1.53-1.51Z" style="fill:#191919"/><path d="M53.59,37.48C50.51,30.83,40.07,32.86,40.07,41c0-8.17-10.44-10.2-13.51-3.55C21.59,48.22,40.07,59,40.07,59S58.55,48.22,53.59,37.48Z" style="fill:#f60"/><path d="M53.41,37.58L52.8,36.53c-0.23-.32-0.51-0.59-0.76-0.88a11.57,11.57,0,0,0-.92-0.72c-0.33-.2-0.7-0.34-1-0.52s-0.75-.19-1.12-0.28-0.76-.07-1.14-0.07-0.75.06-1.12,0.15a6.81,6.81,0,0,0-1.06.33,5.75,5.75,0,0,0-1,.5,5,5,0,0,0-.84.64,4.29,4.29,0,0,0-.7.75,4.07,4.07,0,0,0-.54.84,3.68,3.68,0,0,0-.38.9,4.47,4.47,0,0,0-.24.93,6.85,6.85,0,0,0-.1,1,3.63,3.63,0,0,1,0,1h-3.6V39.91c-0.08-.37-0.11-0.8-0.2-1.18a5.86,5.86,0,0,0-1-2.1A6.15,6.15,0,0,0,35.18,35a6.35,6.35,0,0,0-2.47-.68,6,6,0,0,0-1.31,0,7.66,7.66,0,0,0-1.27.36,4.84,4.84,0,0,0-1.14.66l-0.52.41-0.44.5a4.71,4.71,0,0,0-.74,1.12l-0.15.26L27,38.06l-0.25.69a8.43,8.43,0,0,0-.23,2.66A9.23,9.23,0,0,0,27.21,44a13.36,13.36,0,0,0,1.35,2.35,30.9,30.9,0,0,0,3.62,4.15c1.32,1.3,2.71,2.51,4.12,3.79s2.85,2.88,4.22,3.88H39.63A19.7,19.7,0,0,1,42,55.69c0.81-.79,1.63-1.5,2.45-2.23l2.48-2.14c0.82-.72,1.64-1.43,2.42-2.19,0.4-.37.78-0.75,1.16-1.15s0.74-.8,1.08-1.22a14.28,14.28,0,0,0,1-1.32,9.74,9.74,0,0,0,.8-1.43,11.27,11.27,0,0,0,.55-1.55,7.94,7.94,0,0,0,.21-1.64A4.87,4.87,0,0,0,54,40a4.48,4.48,0,0,0-.13-0.83,9,9,0,0,0-.51-1.6v0Zm0.35-.18a12.59,12.59,0,0,1,.62,1.65,4.88,4.88,0,0,1,.21.86,6.1,6.1,0,0,1,.15.88,13,13,0,0,1,.08,1.8,12.45,12.45,0,0,1-.19,1.82,15.75,15.75,0,0,1-.42,1.8A17.83,17.83,0,0,1,53.6,48a17.44,17.44,0,0,1-.79,1.67c-0.3.54-.6,1.08-0.94,1.59A23,23,0,0,1,47,56.56a20,20,0,0,1-3,2,15.34,15.34,0,0,1-1.65.74,10.59,10.59,0,0,1-1.77.54h0a0.52,0.52,0,0,1-.51.12l-0.38-.12a16.92,16.92,0,0,1-2.83-1.22A26.68,26.68,0,0,1,34.2,57c-0.82-.6-1.64-1.21-2.41-1.89a27.08,27.08,0,0,1-2.18-2.18,20.75,20.75,0,0,1-3.43-5.25,13.83,13.83,0,0,1-1.27-6.24,11.19,11.19,0,0,1,.64-3.14l0.29-.68L26,37.27c0.09-.18.14-0.25,0.21-0.38a7.32,7.32,0,0,1,.88-1.33l0.52-.62,0.62-.52a8.2,8.2,0,0,1,1.35-.89,8.4,8.4,0,0,1,3.12-.84,9.1,9.1,0,0,1,3.28.36,8.54,8.54,0,0,1,3,1.69A8.37,8.37,0,0,1,41,37.59a16.85,16.85,0,0,1,.57,1.69c0.09,0.58.17,1.16,0.25,1.75a1.81,1.81,0,1,1-3.6.26V41a8.33,8.33,0,0,1,.17-1.45,9.43,9.43,0,0,1,.43-1.42,8.17,8.17,0,0,1,1.52-2.51,6,6,0,0,1,1.05-1,6.51,6.51,0,0,1,1.19-.78,7,7,0,0,1,1.28-.55A7.53,7.53,0,0,1,45.24,33a10.46,10.46,0,0,1,1.34-.11A12.27,12.27,0,0,1,47.9,33c0.43,0.07.85,0.19,1.27,0.29s0.8,0.33,1.19.51,0.73,0.44,1.08.68,0.65,0.54.94,0.85,0.55,0.66.79,1l0.6,1.06v0Z" style="fill:#191919"/><path d="M92.59,37.48C89.51,30.83,79.07,32.86,79.07,41c0-8.17-10.44-10.2-13.51-3.55C60.59,48.22,79.07,59,79.07,59S97.55,48.22,92.59,37.48Z" style="fill:#f60"/><path d="M92.41,37.58L91.8,36.53c-0.23-.32-0.51-0.59-0.76-0.88a11.59,11.59,0,0,0-.92-0.72c-0.33-.2-0.7-0.34-1-0.52s-0.75-.19-1.12-0.28-0.76-.07-1.14-0.07-0.75.06-1.12,0.15a6.81,6.81,0,0,0-1.06.33,5.75,5.75,0,0,0-1,.5,5,5,0,0,0-.84.64,4.29,4.29,0,0,0-.7.75,4.07,4.07,0,0,0-.54.84,3.68,3.68,0,0,0-.38.9,4.47,4.47,0,0,0-.24.93,6.85,6.85,0,0,0-.1,1,3.63,3.63,0,0,1,0,1h-3.6V39.91c-0.08-.37-0.11-0.8-0.2-1.18a5.86,5.86,0,0,0-1-2.1A6.15,6.15,0,0,0,74.18,35a6.35,6.35,0,0,0-2.47-.68,6,6,0,0,0-1.31,0,7.66,7.66,0,0,0-1.27.36,4.84,4.84,0,0,0-1.14.66l-0.52.41-0.44.5a4.71,4.71,0,0,0-.74,1.12l-0.15.26L66,38.06l-0.25.69a8.43,8.43,0,0,0-.23,2.66A9.23,9.23,0,0,0,66.21,44a13.36,13.36,0,0,0,1.35,2.35,30.9,30.9,0,0,0,3.62,4.15c1.32,1.3,2.71,2.51,4.12,3.79s2.85,2.88,4.22,3.88H78.63A19.7,19.7,0,0,1,81,55.69c0.81-.79,1.63-1.5,2.45-2.23l2.48-2.14c0.82-.72,1.64-1.43,2.42-2.19,0.4-.37.78-0.75,1.16-1.15s0.74-.8,1.08-1.22a14.28,14.28,0,0,0,1-1.32,9.74,9.74,0,0,0,.8-1.43,11.27,11.27,0,0,0,.55-1.55,7.94,7.94,0,0,0,.21-1.64A4.87,4.87,0,0,0,93,40a4.48,4.48,0,0,0-.13-0.83,9,9,0,0,0-.51-1.6v0Zm0.35-.18a12.59,12.59,0,0,1,.62,1.65,4.88,4.88,0,0,1,.21.86,6.1,6.1,0,0,1,.15.88,13,13,0,0,1,.08,1.8,12.45,12.45,0,0,1-.19,1.82,15.75,15.75,0,0,1-.42,1.8A17.83,17.83,0,0,1,92.6,48a17.44,17.44,0,0,1-.79,1.67c-0.3.54-.6,1.08-0.94,1.59A23,23,0,0,1,86,56.56a20,20,0,0,1-3,2,15.34,15.34,0,0,1-1.65.74,10.59,10.59,0,0,1-1.77.54h0a0.52,0.52,0,0,1-.51.12l-0.38-.12a16.92,16.92,0,0,1-2.83-1.22A26.68,26.68,0,0,1,73.2,57c-0.82-.6-1.64-1.21-2.41-1.89a27.08,27.08,0,0,1-2.18-2.18,20.75,20.75,0,0,1-3.43-5.25,13.83,13.83,0,0,1-1.27-6.24,11.2,11.2,0,0,1,.64-3.14l0.29-.68L65,37.27c0.09-.18.14-0.25,0.21-0.38a7.32,7.32,0,0,1,.88-1.33l0.52-.62,0.62-.52a8.2,8.2,0,0,1,1.35-.89,8.4,8.4,0,0,1,3.12-.84,9.1,9.1,0,0,1,3.28.36,8.54,8.54,0,0,1,3,1.69A8.37,8.37,0,0,1,80,37.59a16.83,16.83,0,0,1,.57,1.69c0.09,0.58.17,1.16,0.25,1.75a1.81,1.81,0,1,1-3.6.26V41a8.33,8.33,0,0,1,.17-1.45,9.43,9.43,0,0,1,.43-1.42,8.17,8.17,0,0,1,1.52-2.51,6,6,0,0,1,1.05-1,6.51,6.51,0,0,1,1.19-.78,7,7,0,0,1,1.28-.55A7.53,7.53,0,0,1,84.24,33a10.46,10.46,0,0,1,1.34-.11A12.27,12.27,0,0,1,86.9,33c0.43,0.07.85,0.19,1.27,0.29s0.8,0.33,1.19.51,0.73,0.44,1.08.68,0.65,0.54.94,0.85,0.55,0.66.79,1l0.6,1.06v0Z" style="fill:#191919"/></svg>