<svg id="0e5873bc-ff0f-40b0-a5d4-42540900b373" data-name="Objects" xmlns="http://www.w3.org/2000/svg" xmlns:xlink="http://www.w3.org/1999/xlink" viewBox="0 0 118.01 114.24"><defs><clipPath id="6839a8a2-8e58-4a86-a9fd-9173c6dc4dd1"><circle cx="57.45" cy="55.5" r="55.48" transform="translate(-15.74 87.49) rotate(-67.63)" style="fill:#ffd01f"/></clipPath></defs><title>kiss</title><circle cx="57.45" cy="55.5" r="55.48" transform="translate(-15.74 87.49) rotate(-67.63)" style="fill:#ffd01f"/><g style="clip-path:url(#6839a8a2-8e58-4a86-a9fd-9173c6dc4dd1)"><path d="M131.27,22.28c-3.23-3.75-10.53-3.87-13.73,0a20.46,20.46,0,0,0-5.14,10.95c-0.58,3.72-.89,9-1.24,11.15a86.3,86.3,0,0,1-2,9.13c-0.45,1.67-1,3.31-1.55,4.94-0.13.38-1.36,3.49-1.26,3.33a78.59,78.59,0,0,1-3.81,7.41c-0.81,1.41-1.7,2.77-2.59,4.12-0.2.3-2.07,2.85-2,2.75a76.88,76.88,0,0,1-6.17,6.77C90.66,83.94,89.47,85,88.28,86q-0.9.77-1.83,1.52L86,87.89c-20.46,15.23-45,18-70.58,19.48-3.61.2-5.35,5.13-1.91,7,25.87,14.41,60.3,10.2,84.27-6.38a88.46,88.46,0,0,0,29-33.27,94.5,94.5,0,0,0,7.8-22.53,120.3,120.3,0,0,0,2-14.3C137.08,31.77,135.22,26.87,131.27,22.28Z" style="fill:#ffb200"/><path d="M146.23,5.16C143.68,1.3,141.15-3,137.1-5.36a81.4,81.4,0,0,0-13-6.07c-8.3-3.1-17.71-4.16-26.48-4.7A127.64,127.64,0,0,0,44.31-7.45C27.47-.92,10.49,10-0.18,24.85-10,38.45-16,56.33-10.85,72.85c1.68,5.35,4.46,10.07,7.37,14.82a1,1,0,0,0,1.92-.52C-1.87,79,.24,71.33,2,63.52a53.82,53.82,0,0,1,9-20.1c0-.06.9-1.21,1.08-1.47q0.7-.87,1.43-1.72c1.23-1.45,2.56-2.81,3.85-4.21A79.41,79.41,0,0,1,26,28.08l0.24-.2,0.73-.53c0.8-.59,1.62-1.16,2.44-1.72,1.66-1.14,3.37-2.21,5.1-3.24a105.22,105.22,0,0,1,11.14-5.74l1.87-.79c1-.39,1.95-0.75,2.92-1.11,2-.73,3.93-1.46,5.93-2.12a122.93,122.93,0,0,1,12.2-3.33c2.06-.46,4.13-0.84,6.21-1.19C75.47,8,76.18,7.9,76.88,7.8c-0.11,0,1.86-.22,2.1-0.25a115.42,115.42,0,0,1,13.49-.62c2,0,4.09.12,6.14,0.26,1,0.07,2,.16,3,0.26l1.76,0.21a90,90,0,0,1,11.68,2.57c3.34,1,6.66,2,9.9,3.29,0.2,0.1,1.5.65,1.72,0.76a15.67,15.67,0,0,0,6.42,1.65l1.54,0.18c0.88,0.18,1.76.43,2.63,0.66C143.7,18.43,150.2,11.15,146.23,5.16Z" style="fill:#ffe544"/></g><path d="M36.14,5.39L39.79,4c0.6-.21,1.25-0.51,2-0.73l2.49-.69c0.9-.23,1.86-0.56,2.9-0.79l3.34-.62,1.82-.34,1.94-.18,2-.21A16.66,16.66,0,0,1,58.45.31l4.55,0c1.57,0.09,3.2.25,4.89,0.39A55.37,55.37,0,0,1,89.56,7.94,53.7,53.7,0,0,1,108.5,27.56a13.78,13.78,0,0,1,.84,1.63l0.79,1.67,0.79,1.68,0.4,0.85,0.09,0.22,0,0.11,0.07,0.21,0.15,0.42a55.68,55.68,0,0,1,2.13,7.11A54.75,54.75,0,0,1,115.19,57l-0.31,3.93c-0.12,1.31-.42,2.61-0.63,3.91l-0.34,2-0.51,1.93c-0.36,1.28-.64,2.59-1.06,3.85a69.26,69.26,0,0,1-6.89,14.58l-2.34,3.35c-0.2.28-.38,0.56-0.59,0.83l-0.67.78-1.33,1.57-1.32,1.58c-0.45.51-1,1-1.45,1.46-1,1-1.94,2-3,2.87l-3.21,2.64-0.81.66-0.86.58-1.73,1.16-1.73,1.17a20.7,20.7,0,0,1-1.82,1l-3.77,2-3.76,1.57a20.1,20.1,0,0,1-1.92.75l-2,.62-2.05.62-1,.31-1,.21-4.15.81A58.67,58.67,0,0,1,48,113.57a61.89,61.89,0,0,1-15.87-5c-1.25-.59-2.42-1.31-3.63-2-0.6-.34-1.21-0.66-1.79-1L25,104.44c-1.11-.79-2.27-1.51-3.32-2.37l-3.1-2.61A54.73,54.73,0,0,1,8.51,87.31a56.48,56.48,0,0,1-3.62-6.78l-0.21-.43-0.1-.21-0.05-.11s-0.14-.35-0.1-0.26l-0.31-.84L3.51,77,2.9,75.36a13.85,13.85,0,0,1-.56-1.72L1.41,70C1.27,69.37,1.08,68.77,1,68.17L0.73,66.38,0.22,62.86c-0.09-1.17-.1-2.34-0.16-3.5a47.45,47.45,0,0,1,.22-6.8,23.05,23.05,0,0,1,.46-3.27L1.31,46.1a56,56,0,0,1,9.6-20.79C12,24,13,22.68,14,21.47l3.13-3.31a16.68,16.68,0,0,1,1.57-1.45l1.54-1.34,1.46-1.29L23.17,13l2.74-2c0.88-.6,1.77-1.07,2.56-1.57l2.21-1.33c0.68-.4,1.35-0.67,1.91-1L36.13,5.4h0Zm0.22,0.56L32.89,7.7c-0.56.3-1.22,0.57-1.87,1l-2.13,1.39c-0.76.51-1.61,1-2.44,1.65l-2.58,2.12A49,49,0,0,0,13.15,26.79,56.44,56.44,0,0,0,6.28,47a61.42,61.42,0,0,0-.33,12.06L6.21,62.2l0.55,3.14L7,66.93c0.1,0.53.27,1,.41,1.53l0.84,3.07a11.75,11.75,0,0,0,.55,1.61l0.63,1.65,0.64,1.66,0.32,0.83c0.07,0.17,0-.11,0,0l0,0.09,0.1,0.19,0.19,0.38a51.76,51.76,0,0,0,3.25,6,53.46,53.46,0,0,0,8.86,11l2.71,2.4c0.91,0.8,1.95,1.45,2.92,2.19L30,100.55l1.58,0.95c1.07,0.61,2.1,1.3,3.21,1.86a57.73,57.73,0,0,0,14.2,5l3.78,0.6c0.32,0,.63.11,1,0.14l1,0.06,1.92,0.12,1.93,0.14c0.64,0,1.29,0,1.93,0,1.29-.05,2.59,0,3.88-0.14l3.88-.46,1-.12,0.94-.21L72,108l1.89-.41a19,19,0,0,0,1.93-.59l3.87-1.29,3.54-1.59a19.08,19.08,0,0,0,1.79-.85l1.72-1,1.71-1,0.86-.5,0.8-.58,3.21-2.35a54.33,54.33,0,0,0,10.59-11.73,52.2,52.2,0,0,0,6.37-14.2c0.35-1.24.55-2.51,0.84-3.75,0.13-.62.28-1.24,0.38-1.87l0.19-1.89c0.1-1.26.3-2.5,0.32-3.76s0-2.49,0-3.73V56l-0.09-.92-0.19-1.83a28.12,28.12,0,0,0-.49-3.61l-0.72-3.53a13.27,13.27,0,0,0-.47-1.69l-0.51-1.66A55,55,0,0,0,107,36.1l-0.17-.42-0.08-.21,0-.1c0-.06.06,0.16,0,0l-0.4-.76-0.79-1.51-0.78-1.5a11.66,11.66,0,0,0-.83-1.45A61.1,61.1,0,0,0,87,12c-0.8-.55-1.64-1-2.44-1.55s-1.59-1.06-2.42-1.5L79.63,7.65a22.39,22.39,0,0,0-2.46-1.18l-2.47-1a19.47,19.47,0,0,0-2.44-.9l-2.43-.73a20.15,20.15,0,0,0-2.38-.64c-1.59-.3-3.13-0.63-4.63-0.88l-4.38-.38a15.84,15.84,0,0,0-2.07,0l-2,0L52.47,2l-1.8.22-3.32.44c-1,.17-2,0.45-2.87.66L42,3.9c-0.75.19-1.41,0.49-2,.69L36.35,6h0Z" style="fill:#191919"/><path d="M66.35,46.73l-0.16-.26a3.33,3.33,0,0,1-.36-0.75,5.76,5.76,0,0,1-.29-1.34,6.55,6.55,0,0,1,.12-1.8,7.08,7.08,0,0,1,.82-2.05,7.52,7.52,0,0,1,1.65-1.95,8.31,8.31,0,0,1,2.43-1.41,9,9,0,0,1,2.89-.51l0.67,0a6.1,6.1,0,0,1,.72.09,8.05,8.05,0,0,1,1.5.38,8.32,8.32,0,0,1,2.43,1.41,7.55,7.55,0,0,1,1.65,1.95,7.11,7.11,0,0,1,.82,2.06,6.57,6.57,0,0,1,.12,1.81A5.23,5.23,0,0,1,81,45.7a3.72,3.72,0,0,1-.36.78,2.79,2.79,0,0,1-.16.26l-0.18-.24c-0.11-.16-0.27-0.38-0.48-0.63A9.5,9.5,0,0,0,79.12,45a10,10,0,0,0-1-.83A8.09,8.09,0,0,0,77,43.52a7.69,7.69,0,0,0-1.19-.5,8.69,8.69,0,0,0-1.2-.28c-0.2,0-.42-0.06-0.52-0.05a1.83,1.83,0,0,0-.32,0H73.35l0-.24,0-.24h0c0.07,0-.16.23,0.14,0.24a10.93,10.93,0,0,0-1.21.21A9.06,9.06,0,0,0,71,43a8,8,0,0,0-1.19.53,8.26,8.26,0,0,0-1.12.71,10.16,10.16,0,0,0-1,.83c-0.28.29-.55,0.56-0.74,0.81s-0.37.51-.48,0.65Z" style="fill:#191919"/><circle cx="40.98" cy="42.86" r="5.93" style="fill:#191919"/><path d="M117.36,72.05c-2.09-7.43-13.29-7-14.65,1.45,1.35-8.5-9.17-12.34-13.47-5.93C82.29,77.93,99.73,92.24,99.73,92.24S120.75,84,117.36,72.05Z" style="fill:#f60"/><path d="M117.17,72.12l-0.46-1.2c-0.19-.37-0.44-0.7-0.64-1a11.47,11.47,0,0,0-.84-0.9c-0.31-.26-0.67-0.48-1-0.72s-0.75-.33-1.12-0.49-0.78-.21-1.17-0.27-0.8-.07-1.19,0a7.25,7.25,0,0,0-1.16.16,6.11,6.11,0,0,0-1.09.36,5.27,5.27,0,0,0-1,.52,4.57,4.57,0,0,0-.86.67,4.34,4.34,0,0,0-.72.78,3.94,3.94,0,0,0-.56.87,4.76,4.76,0,0,0-.41.94,6.39,6.39,0,0,0-.27,1,4.22,4.22,0,0,1-.2,1l-3.56-.57,0.2-1.25c0-.41,0-0.83,0-1.24a6.17,6.17,0,0,0-.76-2.37,6.53,6.53,0,0,0-1.71-2,6.76,6.76,0,0,0-2.48-1.11,6.41,6.41,0,0,0-1.38-.16,8.11,8.11,0,0,0-1.39.17,5.17,5.17,0,0,0-1.31.51l-0.62.34-0.54.46a5,5,0,0,0-1,1l-0.2.25-0.19.34-0.37.68a9,9,0,0,0-.69,2.74,9.81,9.81,0,0,0,.28,2.83,14.14,14.14,0,0,0,1,2.69,32,32,0,0,0,3.07,4.94c1.16,1.58,2.4,3.13,3.66,4.69s2.56,3,3.77,4.64l-0.88-.27h0a14.7,14.7,0,0,1,2.87-2.08c1-.68,2-1.25,2.94-1.87l2.95-1.81c1-.62,1.94-1.22,2.88-1.89,0.48-.32.94-0.66,1.39-1s0.89-.72,1.32-1.1A15.1,15.1,0,0,0,115,80.19,10.36,10.36,0,0,0,116,78.82a11.91,11.91,0,0,0,.82-1.53,8.47,8.47,0,0,0,.48-1.68,5.16,5.16,0,0,0,.1-0.87,4.73,4.73,0,0,0,0-.88,9.51,9.51,0,0,0-.27-1.75v0Zm0.38-.13a13.16,13.16,0,0,1,.36,1.82,5.14,5.14,0,0,1,.08.93,6.41,6.41,0,0,1,0,.94,13.51,13.51,0,0,1-.22,1.88l-0.21.94c-0.08.31-.19,0.61-0.29,0.92a16.37,16.37,0,0,1-.75,1.79,18.88,18.88,0,0,1-2,3.3c-0.4.51-.81,1-1.24,1.49a24.64,24.64,0,0,1-6,4.71,21.7,21.7,0,0,1-3.45,1.54,16.66,16.66,0,0,1-1.83.51,11.43,11.43,0,0,1-1.92.29h0a0.55,0.55,0,0,1-.55,0l-0.33-.17a18.28,18.28,0,0,1-2.72-1.76A28.76,28.76,0,0,1,94,89.08c-0.75-.76-1.5-1.53-2.18-2.36a28.91,28.91,0,0,1-1.9-2.63,22,22,0,0,1-2.71-6,14.48,14.48,0,0,1-.31-6.67,11.71,11.71,0,0,1,1.17-3.15l0.41-.66,0.21-.33c0.12-.17.18-0.23,0.28-0.35a7.63,7.63,0,0,1,1.13-1.23l0.64-.55,0.73-.43A8.52,8.52,0,0,1,93,64a8.77,8.77,0,0,1,3.37-.35,9.52,9.52,0,0,1,3.33.93,8.94,8.94,0,0,1,2.78,2.24,8.75,8.75,0,0,1,1.71,3.27,17.81,17.81,0,0,1,.31,1.84c0,0.61,0,1.23,0,1.84a1.81,1.81,0,1,1-3.59-.32l0-.24a9.08,9.08,0,0,1,.41-1.47,9.83,9.83,0,0,1,.67-1.39A8.55,8.55,0,0,1,104,68a6.26,6.26,0,0,1,1.25-.86,6.8,6.8,0,0,1,1.36-.61,7.28,7.28,0,0,1,1.41-.36,7.89,7.89,0,0,1,1.43-.12,10.91,10.91,0,0,1,1.4.1,12.89,12.89,0,0,1,1.35.32c0.44,0.14.85,0.34,1.27,0.51s0.77,0.48,1.15.71,0.7,0.56,1,.88,0.58,0.68.83,1,0.47,0.77.65,1.16l0.45,1.2v0Z" style="fill:#191919"/><path d="M53.14,62.51A26,26,0,0,1,57,61.14a28.75,28.75,0,0,1,4-.81,17.17,17.17,0,0,1,4.31,0,9.85,9.85,0,0,1,2.29.56,7.07,7.07,0,0,1,2.27,1.36,6.26,6.26,0,0,1,1.64,2.39A6.63,6.63,0,0,1,71.9,66a7.26,7.26,0,0,1,.08.74l0,0.5a5.62,5.62,0,0,1,0,.58c0,0.22,0,.44,0,0.65a9.42,9.42,0,0,1-.15,1.25A9.12,9.12,0,0,1,71,72.23a8.42,8.42,0,0,1-4,3.72,11,11,0,0,1-2.45.77,12.11,12.11,0,0,1-1.24.18,9.6,9.6,0,0,1-1.36,0L62.82,72a20.87,20.87,0,0,1,2.35.88,18.16,18.16,0,0,1,2.19,1.14,12.39,12.39,0,0,1,3.94,3.58,7.86,7.86,0,0,1,1.2,2.82,7.19,7.19,0,0,1-.09,3.09,8.42,8.42,0,0,1-1.18,2.68,6.66,6.66,0,0,1-2.29,2,8.16,8.16,0,0,1-2.65.85,11.6,11.6,0,0,1-2.51.09,19.7,19.7,0,0,1-4.57-.9A32.32,32.32,0,0,1,55,86.67a30,30,0,0,1-3.86-2.17c1.43,0.33,2.85.64,4.27,0.89s2.83,0.48,4.23.59a22.09,22.09,0,0,0,4.06,0,6.54,6.54,0,0,0,3.2-1A2.62,2.62,0,0,0,67.76,84a5.43,5.43,0,0,0,.4-1.35,3,3,0,0,0-.69-2.34,8.78,8.78,0,0,0-2.59-2.06c-0.54-.3-1.11-0.57-1.69-0.82a16.56,16.56,0,0,0-1.73-.63,2.49,2.49,0,0,1,.74-4.89h0.1l0.63,0a7.13,7.13,0,0,0,.74-0.09A6.06,6.06,0,0,0,65,71.43a3.8,3.8,0,0,0,1.84-1.5,4.39,4.39,0,0,0,.52-1.2c0.07-.23.11-0.47,0.16-0.72s0-.23.05-0.34a2.38,2.38,0,0,0,0-.41l0-.5a2.23,2.23,0,0,0,0-.26,4,4,0,0,0-.06-0.57,2.2,2.2,0,0,0-.45-1,5.3,5.3,0,0,0-2.51-1.51,18.57,18.57,0,0,0-3.6-.74,38.87,38.87,0,0,0-3.89-.25C55.83,62.46,54.5,62.47,53.14,62.51Z" style="fill:#191919"/></svg>