<svg id="4686201e-c755-460c-80f2-f37d0b977551" data-name="Objects" xmlns="http://www.w3.org/2000/svg" xmlns:xlink="http://www.w3.org/1999/xlink" viewBox="0 0 115.23 114.24"><defs><clipPath id="e9f85bef-ee7d-4c0e-a316-f5878796077e"><circle cx="57.44" cy="55.5" r="55.48" transform="translate(-15.74 87.49) rotate(-67.63)" style="fill:#ffd01f"/></clipPath></defs><title>laugh-tears</title><circle cx="57.44" cy="55.5" r="55.48" transform="translate(-15.74 87.49) rotate(-67.63)" style="fill:#ffd01f"/><g style="clip-path:url(#e9f85bef-ee7d-4c0e-a316-f5878796077e)"><path d="M131.27,22.28c-3.23-3.75-10.53-3.87-13.73,0a20.45,20.45,0,0,0-5.14,10.95c-0.58,3.72-.89,9-1.24,11.15a86.45,86.45,0,0,1-2,9.13c-0.45,1.67-1,3.31-1.55,4.94-0.13.38-1.36,3.49-1.26,3.33a78.37,78.37,0,0,1-3.81,7.41c-0.81,1.41-1.7,2.77-2.59,4.12-0.2.3-2.07,2.85-2,2.75a77,77,0,0,1-6.17,6.77C90.66,83.94,89.47,85,88.27,86q-0.9.77-1.83,1.52L86,87.89c-20.46,15.23-45,18-70.58,19.48-3.61.2-5.35,5.13-1.91,7,25.87,14.42,60.3,10.2,84.27-6.38a88.46,88.46,0,0,0,29-33.27,94.55,94.55,0,0,0,7.8-22.53,120.41,120.41,0,0,0,2-14.3C137.08,31.77,135.22,26.87,131.27,22.28Z" style="fill:#ffb200"/><path d="M146.23,5.16C143.68,1.3,141.15-3,137.1-5.36a81.38,81.38,0,0,0-13-6.07c-8.3-3.1-17.7-4.16-26.48-4.7A127.64,127.64,0,0,0,44.31-7.45C27.47-.92,10.49,10-0.18,24.85-10,38.45-16,56.33-10.85,72.85c1.68,5.35,4.46,10.07,7.37,14.82a1,1,0,0,0,1.92-.52C-1.87,79,.24,71.33,2,63.52a53.82,53.82,0,0,1,9-20.1c0-.06.9-1.21,1.08-1.47q0.7-.87,1.43-1.72c1.23-1.45,2.56-2.81,3.85-4.21A79.41,79.41,0,0,1,26,28.08l0.24-.2,0.73-.53c0.8-.59,1.62-1.16,2.44-1.72,1.66-1.14,3.37-2.21,5.1-3.24a105.22,105.22,0,0,1,11.14-5.74l1.87-.79c1-.39,1.95-0.75,2.92-1.11,2-.73,3.93-1.46,5.93-2.12a122.92,122.92,0,0,1,12.2-3.33c2.06-.46,4.13-0.84,6.21-1.19C75.47,8,76.18,7.9,76.88,7.8c-0.11,0,1.86-.22,2.1-0.25a115.43,115.43,0,0,1,13.49-.62c2,0,4.09.12,6.14,0.26,1,0.07,2,.16,3,0.26l1.76,0.21a90,90,0,0,1,11.68,2.57c3.34,1,6.66,2,9.9,3.29,0.2,0.1,1.49.65,1.72,0.76a15.67,15.67,0,0,0,6.42,1.65l1.54,0.18c0.88,0.18,1.76.43,2.63,0.66C143.7,18.43,150.2,11.15,146.23,5.16Z" style="fill:#ffe544"/></g><path d="M36.14,5.39L39.79,4c0.6-.21,1.25-0.51,2-0.73l2.49-.69c0.9-.23,1.86-0.56,2.9-0.79l3.34-.62,1.82-.34,1.94-.18,2-.21A16.66,16.66,0,0,1,58.45.31l4.55,0c1.57,0.09,3.2.25,4.89,0.39A55.37,55.37,0,0,1,89.56,7.94,53.7,53.7,0,0,1,108.5,27.56a13.78,13.78,0,0,1,.84,1.63l0.79,1.67,0.79,1.68,0.4,0.85,0.09,0.22,0,0.11,0.07,0.21,0.15,0.42a55.67,55.67,0,0,1,2.13,7.11A54.75,54.75,0,0,1,115.19,57l-0.31,3.93c-0.12,1.31-.42,2.61-0.63,3.91l-0.34,2-0.51,1.93c-0.36,1.28-.64,2.59-1.06,3.85a69.27,69.27,0,0,1-6.89,14.58l-2.34,3.35c-0.2.28-.38,0.56-0.59,0.83l-0.67.78-1.33,1.57-1.32,1.58c-0.45.51-1,1-1.45,1.46-1,1-1.94,2-3,2.87l-3.21,2.64-0.81.66-0.86.58-1.73,1.16-1.73,1.17a20.71,20.71,0,0,1-1.82,1l-3.77,2-3.76,1.57a20.11,20.11,0,0,1-1.92.75l-2,.62-2.05.62-1,.31-1,.21-4.15.81A58.67,58.67,0,0,1,48,113.57a61.89,61.89,0,0,1-15.87-5c-1.25-.59-2.42-1.31-3.63-2-0.6-.34-1.21-0.66-1.79-1L25,104.44c-1.11-.79-2.27-1.51-3.32-2.37l-3.1-2.61A54.73,54.73,0,0,1,8.51,87.31a56.49,56.49,0,0,1-3.62-6.78l-0.21-.43-0.1-.21-0.05-.11s-0.14-.35-0.1-0.26l-0.31-.84L3.51,77,2.9,75.36a13.86,13.86,0,0,1-.56-1.72L1.41,70C1.27,69.37,1.08,68.77,1,68.17L0.73,66.38,0.22,62.86c-0.09-1.17-.1-2.34-0.16-3.5a47.45,47.45,0,0,1,.22-6.8,23,23,0,0,1,.46-3.27L1.31,46.1a56,56,0,0,1,9.6-20.79C12,24,13,22.68,14,21.47l3.13-3.31a16.68,16.68,0,0,1,1.57-1.45l1.54-1.34,1.46-1.29L23.17,13l2.74-2c0.88-.6,1.77-1.07,2.56-1.57l2.21-1.33c0.68-.4,1.35-0.67,1.91-1L36.13,5.4h0Zm0.22,0.56L32.89,7.7c-0.56.3-1.22,0.57-1.87,1l-2.13,1.39c-0.76.51-1.61,1-2.44,1.65l-2.58,2.12A49,49,0,0,0,13.15,26.79,56.44,56.44,0,0,0,6.28,47a61.42,61.42,0,0,0-.33,12.06L6.21,62.2l0.55,3.14L7,66.93c0.1,0.53.27,1,.41,1.53l0.84,3.07a11.76,11.76,0,0,0,.55,1.61l0.63,1.65,0.64,1.66,0.32,0.83c0.07,0.17,0-.11,0,0l0,0.09,0.1,0.19,0.19,0.38a51.75,51.75,0,0,0,3.25,6,53.46,53.46,0,0,0,8.86,11l2.71,2.4c0.91,0.8,1.95,1.45,2.92,2.19L30,100.55l1.58,0.95c1.07,0.61,2.1,1.3,3.21,1.86a57.73,57.73,0,0,0,14.2,5l3.78,0.6c0.32,0,.63.11,1,0.14l1,0.06,1.92,0.12,1.93,0.14c0.64,0,1.29,0,1.93,0,1.29-.05,2.59,0,3.88-0.14l3.88-.46,1-.12,0.94-.21L72,108l1.89-.41a19,19,0,0,0,1.93-.59l3.87-1.29,3.54-1.59a19.07,19.07,0,0,0,1.79-.85l1.72-1,1.71-1,0.86-.5,0.8-.58,3.21-2.35a54.33,54.33,0,0,0,10.59-11.73,52.2,52.2,0,0,0,6.37-14.2c0.35-1.24.55-2.51,0.84-3.75,0.13-.62.28-1.24,0.38-1.87l0.19-1.89c0.1-1.26.3-2.5,0.32-3.76s0-2.49,0-3.73V56l-0.09-.92-0.19-1.83a28.12,28.12,0,0,0-.49-3.61l-0.72-3.53a13.28,13.28,0,0,0-.47-1.69l-0.51-1.66A55,55,0,0,0,107,36.1l-0.17-.42-0.08-.21,0-.1c0-.06.06,0.16,0,0l-0.4-.76-0.79-1.51-0.78-1.5a11.66,11.66,0,0,0-.83-1.45A61.1,61.1,0,0,0,87,12c-0.8-.55-1.64-1-2.44-1.55s-1.59-1.06-2.42-1.5L79.63,7.65a22.39,22.39,0,0,0-2.46-1.18l-2.47-1a19.48,19.48,0,0,0-2.44-.9l-2.43-.73a20.15,20.15,0,0,0-2.38-.64c-1.59-.3-3.13-0.63-4.63-0.88l-4.38-.38a15.84,15.84,0,0,0-2.07,0l-2,0L52.47,2l-1.8.22-3.32.44c-1,.17-2,0.45-2.87.66L42,3.9c-0.75.19-1.41,0.49-2,.69L36.35,6h0Z" style="fill:#191919"/><path d="M25.79,62.13a32.59,32.59,0,0,0,65,0h-65Z" style="fill:#fff"/><path d="M25.79,62.13l0.65,3L27.32,68c0.35,0.94.75,1.86,1.12,2.78s0.92,1.76,1.36,2.64,1,1.67,1.56,2.5l1.78,2.33,2,2.15,2.14,2c0.77,0.58,1.52,1.18,2.3,1.75s1.62,1,2.44,1.52,1.7,0.88,2.55,1.29,1.75,0.75,2.64,1.07,1.8,0.58,2.72.81,1.85,0.4,2.77.55,1.87,0.21,2.8.29,1.88,0,2.81.06l2.92-.21,2.65-.45c0.89-.2,1.79-0.48,2.69-0.7s1.74-.64,2.61-1,1.67-.81,2.52-1.18,1.6-.93,2.41-1.38,1.51-1.07,2.27-1.6l2.11-1.8,1.93-2,1.73-2.16L83.64,75,85,72.54c0.36-.85.75-1.69,1.09-2.54l0.85-2.63,0.62-2.7,0.37-2.75L90.79,65c-2.71,0-5.42-.09-8.13-0.14l-8.13-.17c-2.71,0-5.42-.16-8.13-0.24l-8.13-.28-8.13-.39c-2.71-.12-5.42-0.28-8.13-0.45s-5.42-.33-8.13-0.54S28.49,62.39,25.79,62.13Zm0,0q4.06-.39,8.13-0.68c2.71-.21,5.42-0.38,8.13-0.54s5.42-.33,8.13-0.45l8.13-.39,8.13-.28c2.71-.09,5.42-0.21,8.13-0.24l8.13-.17c2.71-.05,5.42-0.13,8.13-0.14l3.24,0-0.35,3.13-0.37,3.3c-0.21,1.09-.45,2.17-0.68,3.25S92,71,91.64,72.07s-0.86,2-1.29,3.07-1,2-1.57,2.93-1.24,1.84-1.86,2.76L84.8,83.39l-2.34,2.35c-0.85.71-1.68,1.44-2.55,2.12s-1.81,1.28-2.73,1.88-1.91,1.11-2.9,1.61-2,.92-3,1.31-2.09.71-3.15,1-2.14.51-3.24,0.7-2.28.3-3.38,0.4l-3.17.09c-1.09-.07-2.19-0.13-3.27-0.23s-2.16-.37-3.23-0.56-2.11-.57-3.15-0.86-2-.76-3.05-1.15-2-.95-2.92-1.42-1.84-1.14-2.75-1.71-1.71-1.31-2.56-2S35.77,85.53,35,84.81l-2.14-2.38c-0.64-.86-1.25-1.72-1.87-2.58l-1.6-2.73c-0.45-1-.91-1.9-1.33-2.86s-0.71-2-1-3-0.51-2-.73-3S26,66.2,25.88,65.19Z" style="fill:#191919"/><path d="M32.53,48.92l-0.15-.34a4.64,4.64,0,0,1-.34-1c0-.23-0.1-0.49-0.15-0.78s0-.58-0.06-0.92a8.9,8.9,0,0,1,.3-2.24,9.35,9.35,0,0,1,1.14-2.51,9.77,9.77,0,0,1,2.12-2.36,10.45,10.45,0,0,1,3-1.69A11.57,11.57,0,0,1,42,36.47h0.5l0.35,0a8.48,8.48,0,0,1,.89.11,9.77,9.77,0,0,1,1.84.46,10.43,10.43,0,0,1,3,1.69,9.81,9.81,0,0,1,2.12,2.36,9.39,9.39,0,0,1,1.14,2.52,8.92,8.92,0,0,1,.3,2.24c0,0.34,0,.64-0.06.92l-0.15.76a5,5,0,0,1-.34,1c-0.09.22-.16,0.34-0.16,0.34l-0.19-.33c-0.12-.21-0.27-0.51-0.5-0.86a12.38,12.38,0,0,0-.82-1.18,13.43,13.43,0,0,0-1.14-1.26,10.74,10.74,0,0,0-1.44-1.15,9.89,9.89,0,0,0-1.66-.91,11.37,11.37,0,0,0-1.81-.57c-0.31-.05-0.64-0.11-0.86-0.12a2.31,2.31,0,0,0-.49,0H41.92l0-.15,0-.15h0c0.06,0-.16.14,0.14,0.15a11,11,0,0,0-1.89.26,11.4,11.4,0,0,0-1.81.61,10.06,10.06,0,0,0-1.66.93,10.87,10.87,0,0,0-1.44,1.16A13.54,13.54,0,0,0,34,46.54c-0.16.21-.3,0.42-0.46,0.62l-0.36.55c-0.23.34-.38,0.69-0.5,0.89Z" style="fill:#191919"/><path d="M64.72,48.92l-0.15-.34a4.65,4.65,0,0,1-.34-1c0-.23-0.1-0.49-0.15-0.78s0-.58-0.06-0.92a8.9,8.9,0,0,1,.3-2.24,9.36,9.36,0,0,1,1.14-2.51,9.77,9.77,0,0,1,2.12-2.36,10.45,10.45,0,0,1,3-1.69,11.57,11.57,0,0,1,3.57-.62h0.5l0.35,0a8.47,8.47,0,0,1,.89.11,9.76,9.76,0,0,1,1.84.46,10.43,10.43,0,0,1,3,1.69,9.8,9.8,0,0,1,2.12,2.36A9.38,9.38,0,0,1,84,43.64a8.92,8.92,0,0,1,.3,2.24c0,0.34,0,.64-0.06.92l-0.16.76a5,5,0,0,1-.34,1c-0.09.22-.16,0.34-0.16,0.34l-0.19-.33c-0.12-.21-0.27-0.51-0.5-0.86a12.4,12.4,0,0,0-.82-1.18A13.43,13.43,0,0,0,81,45.28a10.74,10.74,0,0,0-1.44-1.15,9.88,9.88,0,0,0-1.66-.91,11.35,11.35,0,0,0-1.81-.57c-0.31-.05-0.64-0.11-0.86-0.12a2.31,2.31,0,0,0-.49,0H74.11l0-.15,0-.15h0c0.06,0-.16.14,0.14,0.15a11,11,0,0,0-1.89.26,11.4,11.4,0,0,0-1.81.61,10.06,10.06,0,0,0-1.66.93,10.87,10.87,0,0,0-1.44,1.16,13.55,13.55,0,0,0-1.14,1.27c-0.16.21-.3,0.42-0.46,0.62l-0.36.55c-0.23.34-.38,0.69-0.5,0.89Z" style="fill:#191919"/><path d="M24.54,75.68A11.48,11.48,0,1,1,7.08,60.8c4.11-4.82,20.48-6.34,20.48-6.34S28.66,70.86,24.54,75.68Z" style="fill:#00ced6"/><path d="M24.69,75.82a18.46,18.46,0,0,1-2.7,2.5,14.66,14.66,0,0,1-3.32,1.88,11.16,11.16,0,0,1-3.89.86,10.28,10.28,0,0,1-4.06-.62,10.58,10.58,0,0,1-1.87-.92A7.44,7.44,0,0,1,8,78.95l-0.41-.33-0.2-.16-0.1-.08-0.05,0-0.11-.1a12.51,12.51,0,0,1-1.3-1.47,5.51,5.51,0,0,1-.59-0.89c-0.17-.3-0.36-0.59-0.49-0.9a11.91,11.91,0,0,1-1.1-3.87,14,14,0,0,1,.06-3.88,17.08,17.08,0,0,1,1-3.68,14.75,14.75,0,0,1,.85-1.7A6.59,6.59,0,0,1,6,61l0.27-.39,0.14-.2,0.07-.1,0.12-.14A8.41,8.41,0,0,1,8,58.85c0.26-.21.54-0.47,0.81-0.64l0.8-.53a26.78,26.78,0,0,1,3.36-1.8,32.31,32.31,0,0,1,3.52-1.3c1.19-.37,2.39-0.67,3.59-1s2.41-.53,3.62-0.75,2.41-.41,3.69-0.54l2.21-.23,0.13,2.23c0.06,1,.08,1.88.08,2.81s0,1.86-.08,2.79a30.33,30.33,0,0,1-.79,5.55c-0.22.92-.46,1.83-0.76,2.73-0.13.45-.28,0.9-0.44,1.34s-0.29.89-.47,1.33l-0.52,1.3c-0.19.43-.39,0.85-0.56,1.28l-0.66,1.23c-0.25.39-.54,0.77-0.81,1.15h0Zm-0.3-.27c0.23-.37.5-0.72,0.71-1.11s0.35-.82.49-1.23,0.21-.87.31-1.3,0.11-.89.16-1.33a10.79,10.79,0,0,0,.07-1.34c0-.45,0-0.89,0-1.34C26.1,67,26,66.1,26,65.21c-0.14-1.79-.25-3.56-0.31-5.33L25.42,54.6l2.34,2L24.28,57c-1.17.13-2.34,0.29-3.5,0.44s-2.32.37-3.47,0.58-2.29.44-3.42,0.7a24.3,24.3,0,0,0-3.31.94l-0.79.31c-0.27.1-.46,0.23-0.7,0.35a6.83,6.83,0,0,0-1.41,1l0,0,0,0,0,0h0l-0.07.08-0.14.16-0.28.32a5.54,5.54,0,0,0-.52.68A9.89,9.89,0,0,0,5.8,64a8.63,8.63,0,0,0-.13,6.61,10.35,10.35,0,0,0,1.61,2.79,10,10,0,0,0,1,1.13c0.28,0.3.77,0.71,1.23,1.1l0,0h0l-0.06-.05,0,0,0.08,0.06L9.8,75.82,10.11,76a5.61,5.61,0,0,0,.63.42c0.42,0.29.88,0.5,1.33,0.75A15.75,15.75,0,0,0,15,78.27a10.51,10.51,0,0,0,3.28.3,8.88,8.88,0,0,0,3.33-.86,9.13,9.13,0,0,0,2.78-2.17h0Z" style="fill:#191919"/><path d="M90.7,75.68A11.48,11.48,0,1,0,108.17,60.8c-4.11-4.82-20.48-6.34-20.48-6.34S86.59,70.86,90.7,75.68Z" style="fill:#00ced6"/><path d="M90.85,75.55a9.14,9.14,0,0,0,2.78,2.17,8.88,8.88,0,0,0,3.33.86,10.51,10.51,0,0,0,3.28-.3,15.75,15.75,0,0,0,2.94-1.06c0.45-.25.91-0.46,1.33-0.75a5.6,5.6,0,0,0,.63-0.42l0.31-.22,0.16-.11,0.08-.06,0,0-0.06.05h0l0,0c0.46-.39.95-0.8,1.23-1.1a10,10,0,0,0,1-1.13,10.35,10.35,0,0,0,1.61-2.79,8.63,8.63,0,0,0-.13-6.61,9.9,9.9,0,0,0-.83-1.49,5.54,5.54,0,0,0-.52-0.68l-0.28-.32-0.14-.16-0.07-.08h0l0,0,0,0,0,0a6.83,6.83,0,0,0-1.41-1c-0.24-.12-0.44-0.24-0.7-0.35l-0.79-.31a24.3,24.3,0,0,0-3.31-.94c-1.13-.26-2.28-0.47-3.42-0.7s-2.31-.41-3.47-0.58S92.14,57.09,91,57l-3.48-.36,2.34-2-0.26,5.28c-0.06,1.77-.17,3.54-0.31,5.33-0.06.89-.12,1.79-0.14,2.68,0,0.45,0,.9,0,1.34a10.79,10.79,0,0,0,.07,1.34c0.05,0.44.08,0.89,0.16,1.33s0.2,0.87.31,1.3S90,74,90.15,74.44s0.47,0.74.71,1.11h0Zm-0.3.27c-0.27-.38-0.56-0.75-0.81-1.15l-0.66-1.23c-0.18-.43-0.37-0.85-0.56-1.28L88,70.85c-0.18-.44-0.31-0.88-0.47-1.33s-0.31-.89-0.44-1.34c-0.29-.9-0.54-1.81-0.76-2.73a30.33,30.33,0,0,1-.79-5.55c0-.93-0.08-1.86-0.08-2.79s0-1.84.08-2.81l0.13-2.23,2.21,0.23c1.27,0.13,2.47.31,3.69,0.54s2.42,0.47,3.62.75,2.4,0.59,3.59,1a32.31,32.31,0,0,1,3.52,1.3,26.78,26.78,0,0,1,3.36,1.8l0.8,0.53c0.27,0.18.54,0.43,0.81,0.64a8.41,8.41,0,0,1,1.34,1.34l0.12,0.14,0.07,0.1,0.14,0.2L109.23,61a6.59,6.59,0,0,1,.5.82,14.75,14.75,0,0,1,.85,1.7,17.08,17.08,0,0,1,1,3.68,14,14,0,0,1,.06,3.88,11.91,11.91,0,0,1-1.1,3.87c-0.13.32-.33,0.6-0.49,0.9a5.51,5.51,0,0,1-.59.89,12.51,12.51,0,0,1-1.3,1.47l-0.11.1-0.05,0-0.1.08-0.2.16-0.41.33a7.43,7.43,0,0,1-.87.58,10.57,10.57,0,0,1-1.87.92,10.28,10.28,0,0,1-4.06.62,11.16,11.16,0,0,1-3.89-.86,14.66,14.66,0,0,1-3.32-1.88,18.46,18.46,0,0,1-2.7-2.5h0Z" style="fill:#191919"/></svg>