<?xml version="1.0" encoding="utf-8"?>
<!-- Generator: Adobe Illustrator 19.2.1, SVG Export Plug-In . SVG Version: 6.00 Build 0)  -->
<svg version="1.1" xmlns="http://www.w3.org/2000/svg" xmlns:xlink="http://www.w3.org/1999/xlink" x="0px" y="0px" width="115.2px"
	 height="114.2px" viewBox="0 0 115.2 114.2" style="enable-background:new 0 0 115.2 114.2;" xml:space="preserve">
<style type="text/css">
	.st0{fill:#FFFFFF;}
	.st1{clip-path:url(#SVGID_2_);fill:#FFB200;}
	.st2{clip-path:url(#SVGID_2_);fill:#FFE544;}
	.st3{fill:#191919;}
	.st4{clip-path:url(#SVGID_4_);fill:#FFB200;}
	.st5{clip-path:url(#SVGID_4_);fill:#FFE544;}
	.st6{clip-path:url(#SVGID_6_);fill:#FFB200;}
	.st7{clip-path:url(#SVGID_6_);fill:#FFE544;}
	.st8{clip-path:url(#SVGID_8_);fill:#FFB200;}
	.st9{clip-path:url(#SVGID_8_);fill:#FFE544;}
	.st10{clip-path:url(#SVGID_10_);fill:#FFB200;}
	.st11{clip-path:url(#SVGID_10_);fill:#FFE544;}
	.st12{fill:#00CED6;}
	.st13{clip-path:url(#SVGID_12_);fill:#FFB200;}
	.st14{clip-path:url(#SVGID_12_);fill:#FFE544;}
	.st15{clip-path:url(#SVGID_14_);fill:#FFB200;}
	.st16{clip-path:url(#SVGID_14_);fill:#FFE544;}
	.st17{clip-path:url(#SVGID_16_);fill:#FFB200;}
	.st18{clip-path:url(#SVGID_16_);fill:#FFE544;}
	.st19{fill:#FF6600;}
	.st20{clip-path:url(#SVGID_18_);fill:#FFB200;}
	.st21{clip-path:url(#SVGID_18_);fill:#FFE544;}
	.st22{clip-path:url(#SVGID_20_);fill:#FFB200;}
	.st23{clip-path:url(#SVGID_20_);fill:#FFE544;}
	.st24{clip-path:url(#SVGID_22_);fill:#FFB200;}
	.st25{clip-path:url(#SVGID_22_);fill:#FFE544;}
	.st26{clip-path:url(#SVGID_24_);fill:#FFB200;}
	.st27{clip-path:url(#SVGID_24_);fill:#FFE544;}
	.st28{clip-path:url(#SVGID_26_);fill:#FFB200;}
	.st29{clip-path:url(#SVGID_26_);fill:#FFE544;}
	.st30{clip-path:url(#SVGID_28_);fill:#FFB200;}
	.st31{clip-path:url(#SVGID_28_);fill:#FFE544;}
	.st32{clip-path:url(#SVGID_30_);fill:#FFB200;}
	.st33{clip-path:url(#SVGID_30_);fill:#FFE544;}
</style>
<g id="Background">
</g>
<g id="Objects">
	<g>
		<g>
			<g>
				<defs>
					
						<ellipse id="SVGID_23_" transform="matrix(0.3806 -0.9247 0.9247 0.3806 -15.7425 87.4941)" cx="57.4" cy="55.5" rx="55.5" ry="55.5"/>
				</defs>
				<use xlink:href="#SVGID_23_"  style="overflow:visible;fill:#FFD01F;"/>
				<clipPath id="SVGID_2_">
					<use xlink:href="#SVGID_23_"  style="overflow:visible;"/>
				</clipPath>
				<path class="st1" d="M131.3,22.3c-3.2-3.7-10.5-3.9-13.7,0c-2.9,3.6-4.4,6.4-5.1,10.9c-0.6,3.7-0.9,9-1.2,11.2
					c-0.5,3.1-1.2,6.1-2,9.1c-0.5,1.7-1,3.3-1.6,4.9c-0.1,0.4-1.4,3.5-1.3,3.3c-1.1,2.5-2.4,5-3.8,7.4c-0.8,1.4-1.7,2.8-2.6,4.1
					c-0.2,0.3-2.1,2.8-2,2.8c-1.9,2.4-4,4.6-6.2,6.8c-1.1,1.1-2.3,2.2-3.5,3.2c-0.6,0.5-1.2,1-1.8,1.5c0.8-0.6,0.7-0.5-0.5,0.3
					c-20.5,15.2-45,18-70.6,19.5c-3.6,0.2-5.4,5.1-1.9,7c25.9,14.4,60.3,10.2,84.3-6.4c12.3-8.5,22.4-19.9,29-33.3
					c3.5-7.1,6.2-14.7,7.8-22.5c1-4.7,1.6-9.5,2-14.3C137.1,31.8,135.2,26.9,131.3,22.3z"/>
				<path class="st2" d="M146.2,5.2c-2.6-3.9-5.1-8.1-9.1-10.5c-4.1-2.4-8.6-4.4-13-6.1c-8.3-3.1-17.7-4.2-26.5-4.7
					C79.6-17.2,61-13.9,44.3-7.4C27.5-0.9,10.5,10-0.2,24.8C-10,38.5-16,56.3-10.9,72.8c1.7,5.3,4.5,10.1,7.4,14.8
					c0.5,0.8,2,0.5,1.9-0.5C-1.9,79,0.2,71.3,2,63.5c1.8-7.9,4.4-13.4,9-20.1c0-0.1,0.9-1.2,1.1-1.5c0.5-0.6,0.9-1.2,1.4-1.7
					c1.2-1.4,2.6-2.8,3.8-4.2c2.6-2.9,5.5-5.5,8.6-7.9c0.1-0.1,0.2-0.1,0.2-0.2c0.1-0.1,0.4-0.3,0.7-0.5c0.8-0.6,1.6-1.2,2.4-1.7
					c1.7-1.1,3.4-2.2,5.1-3.2c3.6-2.2,7.3-4,11.1-5.7c0.3-0.1,1.7-0.7,1.9-0.8c1-0.4,1.9-0.7,2.9-1.1c2-0.7,3.9-1.5,5.9-2.1
					c4-1.3,8.1-2.4,12.2-3.3c2.1-0.5,4.1-0.8,6.2-1.2c0.7-0.1,1.4-0.2,2.1-0.3c-0.1,0,1.9-0.2,2.1-0.2c4.5-0.5,9-0.7,13.5-0.6
					c2,0,4.1,0.1,6.1,0.3c1,0.1,2,0.2,3,0.3c0.2,0,1.3,0.2,1.8,0.2c3.9,0.6,7.8,1.5,11.7,2.6c3.3,1,6.7,2,9.9,3.3
					c0.2,0.1,1.5,0.7,1.7,0.8c2.4,1.1,3.8,1.4,6.4,1.7c0.2,0,1.2,0.1,1.5,0.2c0.9,0.2,1.8,0.4,2.6,0.7
					C143.7,18.4,150.2,11.1,146.2,5.2z"/>
			</g>
			<g>
				<path class="st3" d="M36.1,5.4c0,0,1.3-0.5,3.7-1.4c0.6-0.2,1.2-0.5,2-0.7c0.8-0.2,1.6-0.4,2.5-0.7c0.9-0.2,1.9-0.6,2.9-0.8
					c1-0.2,2.2-0.4,3.3-0.6c0.6-0.1,1.2-0.2,1.8-0.3c0.6-0.1,1.3-0.1,1.9-0.2c0.7-0.1,1.3-0.1,2-0.2c0.7-0.1,1.4-0.2,2.1-0.1
					c1.5,0,3,0,4.6,0c1.6,0.1,3.2,0.3,4.9,0.4c6.7,0.8,14.3,2.9,21.7,7.3c7.3,4.4,14.1,11.1,18.9,19.6c0.3,0.5,0.6,1.1,0.8,1.6
					c0.3,0.6,0.5,1.1,0.8,1.7c0.3,0.6,0.5,1.1,0.8,1.7l0.4,0.8c0-0.1,0.1,0.2,0.1,0.2l0,0.1l0.1,0.2l0.1,0.4
					c0.8,2.3,1.6,4.5,2.1,7.1c1.3,5.1,1.6,10.2,1.4,15.5c-0.1,1.3-0.2,2.6-0.3,3.9c-0.1,1.3-0.4,2.6-0.6,3.9l-0.3,2l-0.5,1.9
					c-0.4,1.3-0.6,2.6-1.1,3.9c-1.7,5.1-4,10-6.9,14.6c-0.8,1.1-1.6,2.2-2.3,3.3c-0.2,0.3-0.4,0.6-0.6,0.8l-0.7,0.8l-1.3,1.6
					l-1.3,1.6c-0.5,0.5-1,1-1.5,1.5c-1,1-1.9,2-3,2.9l-3.2,2.6l-0.8,0.7l-0.9,0.6l-1.7,1.2l-1.7,1.2c-0.6,0.4-1.2,0.7-1.8,1l-3.8,2
					l-3.8,1.6c-0.6,0.2-1.2,0.6-1.9,0.8l-2,0.6l-2.1,0.6l-1,0.3l-1,0.2l-4.1,0.8c-5.6,0.7-11.3,0.8-16.8-0.1c-5.5-1-10.9-2.6-15.9-5
					c-1.2-0.6-2.4-1.3-3.6-2c-0.6-0.3-1.2-0.7-1.8-1l-1.7-1.2c-1.1-0.8-2.3-1.5-3.3-2.4c-1-0.9-2.1-1.7-3.1-2.6
					c-3.9-3.7-7.5-7.7-10.1-12.1C7,85.2,6,82.8,4.9,80.5l-0.2-0.4l-0.1-0.2l-0.1-0.1c0,0-0.1-0.4-0.1-0.3l-0.3-0.8
					c-0.2-0.6-0.4-1.1-0.6-1.7s-0.4-1.1-0.6-1.7c-0.2-0.6-0.4-1.1-0.6-1.7C2,72.4,1.7,71.2,1.4,70c-0.1-0.6-0.3-1.2-0.4-1.8
					c-0.1-0.6-0.2-1.2-0.3-1.8c-0.2-1.2-0.3-2.4-0.5-3.5c-0.1-1.2-0.1-2.3-0.2-3.5c-0.2-2.3,0.1-4.6,0.2-6.8c0-1.1,0.3-2.2,0.5-3.3
					c0.2-1.1,0.4-2.1,0.6-3.2c1.9-8.3,5.6-15.3,9.6-20.8C12,24,13,22.7,14,21.5c1.1-1.1,2.1-2.2,3.1-3.3c0.5-0.5,1-1,1.6-1.5
					c0.5-0.5,1-0.9,1.5-1.3c0.5-0.4,1-0.9,1.5-1.3c0.5-0.4,1-0.7,1.5-1.1c1-0.7,1.9-1.4,2.7-2c0.9-0.6,1.8-1.1,2.6-1.6
					c0.8-0.5,1.5-0.9,2.2-1.3c0.7-0.4,1.3-0.7,1.9-1C34.9,6,36.1,5.4,36.1,5.4L36.1,5.4z M36.4,5.9c0,0-1.2,0.6-3.5,1.7
					c-0.6,0.3-1.2,0.6-1.9,1c-0.7,0.4-1.4,0.9-2.1,1.4c-0.8,0.5-1.6,1-2.4,1.7c-0.8,0.7-1.7,1.4-2.6,2.1c-3.5,3.1-7.5,7.3-10.7,12.9
					C9.9,32.4,7.4,39.3,6.3,47c-0.4,3.9-0.7,7.9-0.3,12.1c0.1,1,0.2,2.1,0.3,3.1c0.2,1,0.4,2.1,0.6,3.1c0.1,0.5,0.2,1.1,0.3,1.6
					c0.1,0.5,0.3,1,0.4,1.5c0.3,1,0.6,2,0.8,3.1c0.1,0.5,0.3,1.1,0.6,1.6c0.2,0.5,0.4,1.1,0.6,1.7c0.2,0.6,0.4,1.1,0.6,1.7l0.3,0.8
					c0.1,0.2,0-0.1,0,0l0,0.1l0.1,0.2l0.2,0.4c1,2,1.9,4.1,3.3,6c2.3,4,5.5,7.6,8.9,11c0.9,0.8,1.8,1.6,2.7,2.4
					c0.9,0.8,1.9,1.4,2.9,2.2l1.5,1.1l1.6,0.9c1.1,0.6,2.1,1.3,3.2,1.9c4.4,2.3,9.2,3.9,14.2,5c1.3,0.2,2.5,0.4,3.8,0.6
					c0.3,0,0.6,0.1,1,0.1l1,0.1l1.9,0.1l1.9,0.1c0.6,0,1.3,0,1.9,0c1.3-0.1,2.6,0,3.9-0.1l3.9-0.5l1-0.1l0.9-0.2L72,108l1.9-0.4
					c0.6-0.1,1.3-0.4,1.9-0.6l3.9-1.3l3.5-1.6c0.6-0.3,1.2-0.5,1.8-0.9l1.7-1l1.7-1l0.9-0.5l0.8-0.6l3.2-2.3
					c4.1-3.4,7.7-7.3,10.6-11.7c2.8-4.4,5-9.2,6.4-14.2c0.3-1.2,0.6-2.5,0.8-3.7c0.1-0.6,0.3-1.2,0.4-1.9l0.2-1.9
					c0.1-1.3,0.3-2.5,0.3-3.8c0-1.2,0-2.5,0-3.7l0-0.9l-0.1-0.9l-0.2-1.8c-0.1-1.2-0.2-2.4-0.5-3.6c-0.2-1.2-0.5-2.4-0.7-3.5
					c-0.1-0.6-0.3-1.1-0.5-1.7l-0.5-1.7c-0.5-2.2-1.6-4.4-2.5-6.7l-0.2-0.4l-0.1-0.2l0-0.1c0-0.1,0.1,0.2,0,0l-0.4-0.8l-0.8-1.5
					l-0.8-1.5c-0.3-0.5-0.5-1-0.8-1.5C99.3,22.6,93.3,16.5,87,12c-0.8-0.6-1.6-1-2.4-1.6c-0.8-0.5-1.6-1.1-2.4-1.5
					c-0.8-0.4-1.7-0.9-2.5-1.3c-0.8-0.4-1.6-0.9-2.5-1.2c-0.8-0.3-1.7-0.7-2.5-1c-0.8-0.3-1.6-0.7-2.4-0.9c-0.8-0.2-1.6-0.5-2.4-0.7
					c-0.8-0.2-1.6-0.5-2.4-0.6c-1.6-0.3-3.1-0.6-4.6-0.9c-1.5-0.1-3-0.3-4.4-0.4c-0.7-0.1-1.4,0-2.1,0c-0.7,0-1.3,0-2,0
					c-0.7,0-1.3,0-1.9,0c-0.6,0.1-1.2,0.1-1.8,0.2c-1.2,0.2-2.3,0.3-3.3,0.4c-1,0.2-2,0.5-2.9,0.7c-0.9,0.2-1.7,0.4-2.5,0.6
					c-0.8,0.2-1.4,0.5-2,0.7C37.6,5.5,36.3,6,36.4,5.9L36.4,5.9z"/>
			</g>
		</g>
		<g>
			
				<ellipse transform="matrix(0.4816 -0.8764 0.8764 0.4816 -26.5776 58.1434)" class="st0" cx="35.9" cy="51.5" rx="16.3" ry="16.3"/>
			<path class="st3" d="M28,65.8c0,0-0.3-0.2-1-0.6c-0.3-0.2-0.7-0.5-1.1-0.8c-0.2-0.2-0.5-0.3-0.7-0.5c-0.2-0.2-0.5-0.4-0.7-0.7
				c-1-1-2.2-2.2-3.2-3.9c-1-1.7-1.9-3.8-2.3-6.3c-0.4-2.5-0.3-5.3,0.6-8.1c0.1-0.4,0.3-0.7,0.4-1.1c0.2-0.4,0.2-0.7,0.5-1.1
				c0.3-0.6,0.6-1.2,1.1-2c0.9-1.5,1.9-2.6,3.2-3.8c1.3-1.1,2.7-2.1,4.3-2.8c1.6-0.7,3.4-1.2,5.2-1.5c1.8-0.2,3.7-0.2,5.6,0.2
				c1.9,0.3,3.6,1,5.3,1.9l0.4,0.2l0.3,0.2l0.5,0.3c0.2,0.1,0.3,0.2,0.5,0.3l0.6,0.5c0.9,0.6,1.5,1.3,2.2,1.9
				c1.3,1.4,2.3,2.9,3.1,4.6c0.8,1.7,1.3,3.4,1.5,5.2c0.2,1.8,0.2,3.5-0.1,5.2c-0.5,3.3-2.1,6.4-3.9,8.5c-0.5,0.6-1,1.2-1.6,1.6
				c-0.3,0.2-0.5,0.5-0.8,0.7c-0.3,0.2-0.6,0.4-0.8,0.6c-1.1,0.8-2.3,1.4-3.4,1.9c-2.3,1-4.5,1.4-6.5,1.4c-2,0.1-3.7-0.2-5-0.6
				c-0.3-0.1-0.7-0.2-1-0.3c-0.3-0.1-0.6-0.2-0.8-0.3c-0.5-0.2-0.9-0.4-1.3-0.5C28.4,66,28,65.8,28,65.8z M28,65.8
				c0,0,0.4,0.2,1,0.5c0.3,0.2,0.8,0.3,1.3,0.5c0.3,0.1,0.5,0.2,0.8,0.3c0.3,0.1,0.6,0.1,1,0.2c1.4,0.3,3.1,0.5,5,0.2
				c1.9-0.2,4-0.9,6-2.1c1-0.6,1.9-1.4,2.8-2.2c0.2-0.2,0.4-0.4,0.6-0.7c0.2-0.2,0.4-0.5,0.6-0.7c0.4-0.5,0.7-1,1-1.5
				c0.2-0.3,0.3-0.6,0.5-0.9l0.2-0.5l0.1-0.2c0-0.1,0,0.1,0,0l0,0l0-0.1l0-0.1c0.2-0.6,0.5-1.2,0.6-1.8c0.4-1.2,0.4-2.6,0.5-3.9
				c0-1.3-0.2-2.6-0.6-3.9c-0.4-1.3-0.9-2.5-1.5-3.6c-0.7-1.1-1.5-2.1-2.4-3.1c-0.5-0.4-1-0.9-1.4-1.2l-0.3-0.3
				c-0.1-0.1-0.3-0.2-0.5-0.3l-0.5-0.3L42.4,40l-0.1-0.1l-0.1,0l0,0c0,0-0.2-0.1,0.1,0.1c-1.2-0.6-2.4-1.1-3.6-1.4
				c-1.3-0.3-2.6-0.4-3.9-0.4c-1.3,0.1-2.6,0.2-3.9,0.6c-1.2,0.4-2.5,0.9-3.6,1.6c-1.1,0.7-2.2,1.5-3,2.4c-0.4,0.4-0.9,1-1.3,1.6
				c-0.2,0.2-0.3,0.5-0.5,0.8c-0.2,0.3-0.4,0.5-0.5,0.8c-1.2,2.2-1.8,4.7-1.7,7c0,2.3,0.6,4.4,1.4,6.2c0.8,1.8,1.9,3.1,2.8,4.1
				c0.2,0.2,0.5,0.5,0.7,0.7c0.2,0.2,0.5,0.4,0.7,0.5c0.4,0.3,0.8,0.6,1.1,0.8C27.7,65.6,28,65.8,28,65.8z"/>
		</g>
		<g>
			
				<ellipse transform="matrix(0.4816 -0.8764 0.8764 0.4816 -4.8038 94.9524)" class="st0" cx="77.9" cy="51.5" rx="16.3" ry="16.3"/>
			<path class="st3" d="M70,65.8c0,0-0.3-0.2-1-0.6c-0.3-0.2-0.7-0.5-1.1-0.8c-0.2-0.2-0.5-0.3-0.7-0.5c-0.2-0.2-0.5-0.4-0.7-0.7
				c-1-1-2.2-2.2-3.2-3.9c-1-1.7-1.9-3.8-2.3-6.3c-0.4-2.5-0.3-5.3,0.6-8.1c0.1-0.4,0.3-0.7,0.4-1.1c0.2-0.4,0.2-0.7,0.5-1.1
				c0.3-0.6,0.6-1.2,1.1-2c0.9-1.5,1.9-2.6,3.2-3.8c1.3-1.1,2.7-2.1,4.3-2.8c1.6-0.7,3.4-1.2,5.2-1.5c1.8-0.2,3.7-0.2,5.6,0.2
				c1.9,0.3,3.6,1,5.3,1.9l0.4,0.2l0.3,0.2l0.5,0.3c0.2,0.1,0.3,0.2,0.5,0.3l0.6,0.5c0.9,0.6,1.5,1.3,2.2,1.9
				c1.3,1.4,2.3,2.9,3.1,4.6c0.8,1.7,1.3,3.4,1.5,5.2c0.2,1.8,0.2,3.5-0.1,5.2c-0.5,3.3-2.1,6.4-3.9,8.5c-0.5,0.6-1,1.2-1.6,1.6
				c-0.3,0.2-0.5,0.5-0.8,0.7c-0.3,0.2-0.6,0.4-0.8,0.6c-1.1,0.8-2.3,1.4-3.4,1.9c-2.3,1-4.5,1.4-6.5,1.4c-2,0.1-3.7-0.2-5-0.6
				c-0.3-0.1-0.7-0.2-1-0.3c-0.3-0.1-0.6-0.2-0.8-0.3c-0.5-0.2-0.9-0.4-1.3-0.5C70.4,66,70,65.8,70,65.8z M70,65.8
				c0,0,0.4,0.2,1,0.5c0.3,0.2,0.8,0.3,1.3,0.5c0.3,0.1,0.5,0.2,0.8,0.3c0.3,0.1,0.6,0.1,1,0.2c1.4,0.3,3.1,0.5,5,0.2
				c1.9-0.2,4-0.9,6-2.1c1-0.6,1.9-1.4,2.8-2.2c0.2-0.2,0.4-0.4,0.6-0.7c0.2-0.2,0.4-0.5,0.6-0.7c0.4-0.5,0.7-1,1-1.5
				c0.2-0.3,0.3-0.6,0.5-0.9l0.2-0.5l0.1-0.2c0-0.1,0,0.1,0,0l0,0l0-0.1l0-0.1c0.2-0.6,0.5-1.2,0.6-1.8c0.4-1.2,0.4-2.6,0.5-3.9
				c0-1.3-0.2-2.6-0.6-3.9c-0.4-1.3-0.9-2.5-1.5-3.6c-0.7-1.1-1.5-2.1-2.4-3.1c-0.5-0.4-1-0.9-1.4-1.2l-0.3-0.3
				c-0.1-0.1-0.3-0.2-0.5-0.3l-0.5-0.3L84.4,40l-0.1-0.1l-0.1,0l0,0c0,0-0.2-0.1,0.1,0.1c-1.2-0.6-2.4-1.1-3.6-1.4
				c-1.3-0.3-2.6-0.4-3.9-0.4c-1.3,0.1-2.6,0.2-3.9,0.6c-1.2,0.4-2.5,0.9-3.6,1.6c-1.1,0.7-2.2,1.5-3,2.4c-0.4,0.4-0.9,1-1.3,1.6
				c-0.2,0.2-0.3,0.5-0.5,0.8c-0.2,0.3-0.4,0.5-0.5,0.8c-1.2,2.2-1.8,4.7-1.7,7c0,2.3,0.6,4.4,1.4,6.2c0.8,1.8,1.9,3.1,2.8,4.1
				c0.2,0.2,0.5,0.5,0.7,0.7c0.2,0.2,0.5,0.4,0.7,0.5c0.4,0.3,0.8,0.6,1.1,0.8C69.7,65.6,70,65.8,70,65.8z"/>
		</g>
		<g>
			<circle class="st3" cx="36.2" cy="51.9" r="5.9"/>
			<circle class="st3" cx="76.4" cy="51.9" r="5.9"/>
		</g>
		<g>
			<path class="st3" d="M46.8,78.9c0,0,0.1-0.1,0.2-0.2c0.2-0.1,0.4-0.3,0.7-0.4c0.6-0.3,1.4-0.8,2.4-1.1c1-0.4,2.1-0.7,3.4-0.9
				c1.2-0.2,2.5-0.3,3.9-0.3c2.6,0,5.3,0.5,7.2,1.3c1,0.4,1.8,0.8,2.4,1.1c0.3,0.2,0.5,0.3,0.7,0.4c0.2,0.1,0.2,0.2,0.2,0.2
				s-0.1,0.1-0.2,0.2c-0.2,0.1-0.4,0.3-0.7,0.4c-0.6,0.3-1.4,0.8-2.4,1.1c-2,0.8-4.6,1.3-7.2,1.3c-1.3,0-2.6-0.1-3.9-0.3
				c-1.2-0.2-2.4-0.5-3.4-0.9c-1-0.4-1.8-0.8-2.4-1.1c-0.3-0.2-0.5-0.3-0.7-0.4C46.9,79,46.8,78.9,46.8,78.9z"/>
		</g>
	</g>
</g>
</svg>
