<?xml version="1.0" encoding="utf-8"?>
<!-- Generator: Adobe Illustrator 16.2.0, SVG Export Plug-In . SVG Version: 6.00 Build 0)  -->
<svg version="1.2" baseProfile="tiny" id="Слой_1"
	 xmlns="http://www.w3.org/2000/svg" xmlns:xlink="http://www.w3.org/1999/xlink" x="0px" y="0px" width="90px" height="90px"
	 viewBox="0 0 90 90" xml:space="preserve">
<path fill-rule="evenodd" fill="#E7F2F8" d="M44.965,89.644c24.64,0,44.736-20.095,44.736-44.733
	c0-24.639-20.096-44.734-44.736-44.734c-24.637,0-44.732,20.095-44.732,44.734C0.233,69.549,20.328,89.644,44.965,89.644z"/>
<path fill-rule="evenodd" fill="#D7E4EB" d="M44.965,0.177c24.707,0,44.736,20.028,44.736,44.734
	c0,24.705-20.029,44.733-44.736,44.733c-0.062,0-0.123-0.002-0.185-0.002V0.179C44.842,0.178,44.903,0.177,44.965,0.177z"/>
<g>
	<path fill-rule="evenodd" fill="#EDB785" d="M56.654,38.873c-0.953,5.931,0.939,4.153-5.242,8.696
		c0.164,4.819,0.449,7.324,5.098,9.302c-3.849,3.525-7.698,7.051-11.55,10.578c0-17.645-0.013-46.113-0.008-51.914l9.733,2.002
		l5.441,4.786c0,0-1.008,6.408-1.627,8.968c3.97-1.155,4.127,2.789,2.621,5.198C60.198,37.965,58.543,39.815,56.654,38.873z"/>
	<path fill-rule="evenodd" fill="#F5CBA4" d="M33.277,38.873c0.954,5.931-0.938,4.153,5.243,8.696
		c-0.163,4.819-0.449,7.324-5.097,9.302c3.849,3.525,7.698,7.051,11.549,10.578c0-17.645,0.014-46.113,0.008-51.914l-9.732,2.002
		l-5.441,4.786c0,0,1.008,6.408,1.627,8.968c-3.972-1.155-4.127,2.789-2.621,5.198C29.735,37.965,31.39,39.815,33.277,38.873z"/>
	<path fill-rule="evenodd" fill="#956F52" d="M56.582,36.137c1.567-3.171,3.908-11.573,4.292-16.465
		c2.755-1.724,4.117-4.406,4.682-6.042c-2.259,1.293-4.792,1.582-7.43,0.858c0.49-0.404,1.446-1.575,2.021-2.694
		c-6.457,1.065-6.666-0.288-12.546-1.508c-5.105-1.061-9.71,0.611-11.323,2.844c-4.149,0.841-5.355,3.055-6.044,6.318
		c-1.065,5.05,1.215,13.314,3.185,17.444c0.391-0.366,0.883-0.825,1.291-1.068c-0.439-7.212-0.016-16.658,3.123-17.02
		c2.198-0.253,8.523,2.144,13.89,6.993c0.195-1.852,0.645-2.213-0.179-4.435c6.152,2.475,4.227,10.786,3.952,13.553
		C55.938,35.454,56.349,35.878,56.582,36.137z"/>
	<path fill-rule="evenodd" fill="#7E593D" d="M56.582,36.137c1.567-3.171,3.908-11.573,4.292-16.465
		c2.755-1.724,4.117-4.406,4.682-6.042c-2.259,1.293-4.792,1.582-7.43,0.858c0.49-0.404,1.446-1.575,2.021-2.694
		c-6.457,1.065-6.666-0.288-12.546-1.508c-0.791-0.165-1.571-0.263-2.332-0.305v11.253c2.094,1.135,4.349,2.661,6.453,4.563
		c0.195-1.852,0.645-2.213-0.179-4.435c6.152,2.474,4.227,10.786,3.952,13.553C55.938,35.454,56.349,35.878,56.582,36.137z"/>
	<path fill-rule="evenodd" fill="#EFC849" d="M37.373,52.419c2.225,2.494,4.279,3.976,7.6,4.386
		c-0.01,7.677-0.022,15.355-0.032,23.031c-9.137-0.301-16.251-1.848-24.145-4.174c0,0-0.177-4.253-0.073-12.173
		c0.078-5.932,3.547-6.15,9.773-8.079C33.6,54.447,37.373,52.419,37.373,52.419z"/>
	<path fill-rule="evenodd" fill="#565656" d="M44.991,56.793l-2.549,0.048l-1.106,2.438l1.977,2.372L41.506,72.51l3.545,5.375
		C45.051,77.885,44.991,56.715,44.991,56.793z"/>
	<path fill-rule="evenodd" fill="#FFFFFF" d="M40.574,41.393c1.635,0.188,6.938,0.359,8.938,0.059
		c-0.606,1.014-2.667,2.589-4.44,2.704C43.298,44.269,41.131,42.103,40.574,41.393z"/>
	<path fill-rule="evenodd" fill="#D7B02E" d="M52.898,52.55c-2.225,2.491-4.616,3.845-7.938,4.255
		c0.012,7.677-0.051,15.379-0.041,23.058c9.138-0.304,16.326-1.874,24.217-4.2c0,0,0.18-4.253,0.075-12.173
		c-0.079-5.932-3.547-6.15-9.774-8.079C56.334,54.447,52.898,52.55,52.898,52.55z"/>
	<path fill-rule="evenodd" fill="#3E3E3E" d="M44.88,56.807l2.291-0.182l1.442,2.711l-1.977,2.372l1.807,10.861l-3.545,5.376
		C44.898,77.945,44.88,56.727,44.88,56.807z"/>
	<path fill-rule="evenodd" fill="#FADD7D" d="M38.328,51.191c-4.053,2.592-0.829,8.443,1.738,9.642
		c1.378-1.808,2.567-2.708,4.41-4.079C43.05,56.312,38.384,54.781,38.328,51.191z"/>
	<path fill-rule="evenodd" fill="#EFC849" d="M51.504,51.015c4.055,2.595,0.953,8.62-1.613,9.818
		c-1.379-1.808-2.569-2.708-4.412-4.079C46.904,56.312,51.448,54.606,51.504,51.015z"/>
	<path fill-rule="evenodd" fill="#EDB785" d="M38.536,47.564c3.509,2.127,3.832,2.225,6.46,2.186
		c0.026,0.906-0.022,0.824,0.003,1.732C43.286,51.271,40.848,50.998,38.536,47.564z"/>
	<path fill-rule="evenodd" fill="#E0A670" d="M51.482,47.564c-3.511,2.127-3.833,2.225-6.46,2.186
		c-0.026,0.906,0.022,0.824-0.005,1.732C46.731,51.271,49.169,50.998,51.482,47.564z"/>
	<polygon fill-rule="evenodd" fill="#EFC849" points="52.098,67.726 60.273,67.726 60.273,75.131 56.187,76.445 52.098,75.131 	"/>
	<rect x="51.908" y="67.594" fill-rule="evenodd" fill="#FADD7D" width="8.488" height="2.492"/>
</g>
</svg>
