<?xml version="1.0" encoding="utf-8"?>
<!-- Generator: Adobe Illustrator 16.2.0, SVG Export Plug-In . SVG Version: 6.00 Build 0)  -->
<svg version="1.2" baseProfile="tiny" id="Слой_1"
	 xmlns="http://www.w3.org/2000/svg" xmlns:xlink="http://www.w3.org/1999/xlink" x="0px" y="0px" width="90px" height="90px"
	 viewBox="0 0 90 90" xml:space="preserve">
<path fill-rule="evenodd" fill="#E7F2F8" d="M45.034,89.665c24.546,0,44.563-20.02,44.563-44.564
	c0-24.546-20.018-44.564-44.563-44.564c-24.545,0-44.565,20.019-44.565,44.564C0.469,69.646,20.489,89.665,45.034,89.665z"/>
<path fill-rule="evenodd" fill="#D7E4EB" d="M45.034,0.536c24.611,0,44.563,19.952,44.563,44.564S69.646,89.665,45.034,89.665
	c-0.064,0-0.124-0.003-0.186-0.003V0.538C44.91,0.538,44.97,0.536,45.034,0.536z"/>
<g>
	<path fill-rule="evenodd" fill="#F5CBA4" d="M33.446,39.547c0.708,3.123,2.942,6.681,5.343,8.664
		c-0.162,4.801-0.567,7.297-5.199,9.267c3.835,3.513,7.669,7.025,11.507,10.537c0-17.577,0.013-45.938,0.008-51.717l-9.697,1.995
		l-5.42,4.768c0,0,1.004,6.385,1.621,8.934c-3.956-1.15-4.112,2.778-2.612,5.178C29.917,38.643,31.566,40.486,33.446,39.547z"/>
	<path fill-rule="evenodd" fill="#EDB785" d="M56.742,39.547c-0.708,3.123-2.942,6.681-5.344,8.664
		c0.162,4.801,0.568,7.297,5.198,9.267c-3.834,3.513-7.67,7.025-11.504,10.537c0-17.577-0.015-45.938-0.01-51.717l9.697,1.995
		l5.419,4.768c0,0-1.004,6.385-1.62,8.934c3.956-1.15,4.111,2.778,2.612,5.178C60.271,38.643,58.622,40.486,56.742,39.547z"/>
	<path fill-rule="evenodd" fill="#565656" d="M52.683,20.333c0,0-5.076,3.072-11.684,3.564c-9.814,0.731-7.55,11.394-7.55,11.394
		c-5.629-5.512-4.656-18.745,1.889-22.913c7.044-4.485,17.169-2.476,18.834,1.827c4.134,0.838,6.013,2.557,6.699,5.81
		c1.061,5.031-0.648,10.691-3.187,14.35C59.009,25.984,53.972,25.708,52.683,20.333z"/>
	<path fill-rule="evenodd" fill="#3E3E3E" d="M52.683,20.333c0,0-3.036,1.836-7.466,2.897V9.862
		c4.308,0.185,8.006,1.892,8.955,4.343c4.134,0.838,6.013,2.557,6.699,5.81c1.061,5.031-0.648,10.69-3.187,14.35
		C59.009,25.984,53.972,25.708,52.683,20.333z"/>
	<path fill-rule="evenodd" fill="#3E98D3" d="M37.526,53.044c2.216,2.482,4.263,3.961,7.572,4.368
		c-0.01,7.647-0.022,15.297-0.032,22.944c-9.104-0.301-16.191-1.843-24.053-4.158c0,0-0.179-4.238-0.074-12.127
		c0.078-5.909,3.534-6.126,9.738-8.05C33.769,55.063,37.526,53.044,37.526,53.044z"/>
	<g>
		<path fill="none" d="M21.013,76.198c1.192,0.351,2.363,0.678,3.529,0.991H45.07c0.001-1.195,0.003-2.392,0.005-3.587h-24.13
			C20.976,75.308,21.013,76.198,21.013,76.198z"/>
		<path fill="none" d="M21.042,62.683H45.09c0.002-1.324,0.004-2.649,0.005-3.974H23.288C22.058,59.554,21.297,60.737,21.042,62.683
			z"/>
		<path fill="none" d="M39.717,55.158c-0.745-0.598-1.46-1.296-2.191-2.114c0,0-2.123,1.141-4.49,2.114H39.717z"/>
		<path fill="none" d="M20.908,70.053H45.08c0.002-1.273,0.003-2.546,0.005-3.819H20.917C20.906,67.652,20.904,68.928,20.908,70.053
			z"/>
		<path fill="#59AADE" d="M20.938,64.071c-0.01,0.758-0.017,1.472-0.022,2.162h24.169c0.001-1.184,0.003-2.367,0.005-3.551H21.042
			C20.986,63.111,20.945,63.563,20.938,64.071z"/>
		<path fill="#59AADE" d="M20.945,73.603h24.13c0.002-1.184,0.003-2.366,0.005-3.55H20.908
			C20.914,71.479,20.928,72.665,20.945,73.603z"/>
		<path fill="#59AADE" d="M45.066,80.356c0.001-1.056,0.003-2.111,0.004-3.167H24.542C31.067,78.946,37.342,80.102,45.066,80.356z"
			/>
		<path fill="#59AADE" d="M30.676,56.021c-3.25,1.008-5.737,1.553-7.388,2.688h21.808c0.001-0.433,0.001-0.864,0.002-1.297
			c-2.218-0.273-3.866-1.038-5.381-2.254h-6.681C32.253,55.48,31.444,55.783,30.676,56.021z"/>
	</g>
	<path fill-rule="evenodd" fill="#FFFFFF" d="M40.716,42.059c0.807,0.303,2.385,0.812,4.395,0.869
		c2.01,0.057,3.55-0.408,4.508-0.811c-0.605,1.009-2.655,2.578-4.423,2.692C43.429,44.924,41.271,42.765,40.716,42.059z"/>
	<path fill-rule="evenodd" fill="#2884C2" d="M52.876,53.173c-2.215,2.481-4.597,3.832-7.907,4.239
		c0.012,7.647,0.023,15.297,0.033,22.944c9.103-0.301,16.19-1.843,24.053-4.158c0,0,0.178-4.238,0.075-12.127
		c-0.079-5.909-3.534-6.126-9.738-8.05C56.299,55.063,52.876,53.173,52.876,53.173z"/>
	<g>
		<path fill="none" d="M44.987,70.07h24.172c0.004-1.125,0.003-2.4-0.008-3.819h-24.17C44.983,67.524,44.985,68.797,44.987,70.07z"
			/>
		<path fill="none" d="M44.977,62.7h24.052c-0.251-1.942-1.005-3.127-2.225-3.974H44.971C44.973,60.051,44.975,61.376,44.977,62.7z"
			/>
		<path fill="none" d="M44.998,77.207h20.46c1.188-0.319,2.382-0.651,3.597-1.009c0,0,0.036-0.883,0.067-2.576h-24.13
			C44.994,74.817,44.996,76.012,44.998,77.207z"/>
		<path fill="none" d="M57.077,55.176c-2.271-0.937-4.201-2.003-4.201-2.003c-0.698,0.782-1.418,1.439-2.173,2.003H57.077z"/>
		<path fill="#3E98D3" d="M44.981,66.251h24.17c-0.005-0.695-0.012-1.415-0.021-2.18c-0.007-0.501-0.047-0.947-0.102-1.371H44.977
			C44.978,63.884,44.98,65.067,44.981,66.251z"/>
		<path fill="#3E98D3" d="M44.992,73.622h24.13c0.017-0.937,0.031-2.124,0.037-3.552H44.987
			C44.989,71.254,44.991,72.438,44.992,73.622z"/>
		<path fill="#3E98D3" d="M45.002,80.356c7.696-0.254,13.955-1.403,20.456-3.149h-20.46C44.999,78.257,45,79.307,45.002,80.356z"/>
		<path fill="#3E98D3" d="M44.969,57.412c0,0.438,0.001,0.876,0.002,1.314h21.833c-1.65-1.146-4.146-1.692-7.412-2.705
			c-0.771-0.238-1.561-0.535-2.314-0.846h-6.374C49.063,56.399,47.235,57.133,44.969,57.412z"/>
	</g>
	<path fill-rule="evenodd" fill="#F5F6F6" d="M38.479,51.82c-4.04,2.582-0.826,8.413,1.73,9.604
		c1.373-1.801,2.559-2.696,4.394-4.064C43.183,56.92,38.534,55.396,38.479,51.82z"/>
	<path fill-rule="evenodd" fill="#DEDEDD" d="M51.606,51.646c4.038,2.583,0.946,8.588-1.61,9.779
		c-1.373-1.801-2.558-2.696-4.393-4.064C47.022,56.92,51.549,55.222,51.606,51.646z"/>
	<path fill-rule="evenodd" fill="#EDB785" d="M38.861,48.34c2.1,1.483,4.2,2.038,6.233,1.999c0.024,0.904-0.022,0.973,0.005,1.878
		C43.416,52.006,39.692,51.479,38.861,48.34z"/>
	<path fill-rule="evenodd" fill="#E0A670" d="M51.362,48.34c-2.099,1.483-4.197,2.038-6.231,1.999
		c-0.027,0.904,0.02,0.973-0.007,1.878C46.808,52.006,50.533,51.479,51.362,48.34z"/>
</g>
</svg>
