<?xml version="1.0" encoding="iso-8859-1"?>
<!-- Generator: Adobe Illustrator 13.0.0, SVG Export Plug-In . SVG Version: 6.00 Build 14948)  -->
<!DOCTYPE svg PUBLIC "-//W3C//DTD SVG 1.1//EN" "http://www.w3.org/Graphics/SVG/1.1/DTD/svg11.dtd">
<svg version="1.1" id="Layer_1" xmlns="http://www.w3.org/2000/svg" xmlns:xlink="http://www.w3.org/1999/xlink" x="0px" y="0px"
	 width="90px" height="90px" viewBox="0 0 90 90" style="enable-background:new 0 0 90 90;" xml:space="preserve">
<g>
	<path style="fill:#D7E4EB;" d="M45,90c24.853,0,45-20.147,45-45C90,20.147,69.853,0,45,0"/>
	<path style="fill:#E7F2F8;" d="M45,0C20.147,0,0,20.147,0,45c0,24.853,20.147,45,45,45"/>
</g>
<g>
	<path style="fill:#EDB785;" d="M56.547,30.037l0.959-9.957l-12.504,1.81c-0.006,4.938,0.005,28.169,0.005,43.19
		c3.449-3.004,6.89-6.003,10.332-9.003c-4.158-1.687-4.047-3.846-4.191-7.947c5.195-2.279,4.033-1.822,4.99-8.46
		c0,0,1.232,0.911,2.326-1.432C59.557,35.894,63.521,28.735,56.547,30.037z"/>
	<path style="fill:#F0C9A5;" d="M31.537,38.236c1.094,2.343,2.326,1.432,2.326,1.432c0.957,6.638-0.205,6.182,4.99,8.46
		c-0.145,4.102-0.033,6.261-4.191,7.947c3.441,3,6.883,5.999,10.331,9.003c0-15.021,0.011-38.251,0.005-43.19l-12.504-1.81
		l0.959,9.957C26.479,28.735,30.443,35.894,31.537,38.236z"/>
</g>
<g>
	<path style="fill:#565656;" d="M45,59.857l-8.456-4.839c0,0-12.184,4.045-15.517,6.708c-3.333,2.663-3.021,13.219-3.021,13.219
		s8.957,8.481,26.659,10.06c0.118,0.011,0.219,0.006,0.334,0.014V59.857z"/>
	<path style="fill:#3E3E3E;" d="M45,59.857l8.456-4.839c0,0,12.184,4.045,15.518,6.708c3.332,2.663,3.02,13.219,3.02,13.219
		s-8.955,8.481-26.658,10.06c-0.118,0.011-0.22,0.006-0.335,0.014V59.857z"/>
</g>
<g>
	<path style="fill:#F6B800;" d="M45,56.855c0,0-2.18,1.951-2.592,3.706l1.97,0.879c0,0-2.253,12.665-3.009,17.074L45,82.855"/>
	<path style="fill:#CF8D00;" d="M45,56.855c0,0,2.178,1.951,2.592,3.706l-1.971,0.879c0,0,2.043,12.665,3.01,17.074L45,82.855"/>
</g>
<path style="fill:#FFFFFF;" d="M39.807,41.326c0.942,0.331,2.782,0.886,5.127,0.946c2.343,0.063,4.138-0.444,5.257-0.882
	c-0.705,1.097-3.096,2.808-5.162,2.931C42.973,44.448,40.456,42.096,39.807,41.326z"/>
<g>
	<path style="fill:#DCDCDC;" d="M42.483,62.977c0,0-0.534-3.465,2.518-6.106c0,0-5.128-0.14-8.438-1.89c0,0-1.979,0.406-3.505,1.313
		C33.057,56.293,36.66,60.324,42.483,62.977z"/>
	<path style="fill:#C9C9C9;" d="M47.518,62.977c0,0,0.533-3.465-2.518-6.106c0,0,5.127-0.14,8.438-1.89c0,0,1.98,0.406,3.504,1.313
		C56.941,56.293,53.34,60.324,47.518,62.977z"/>
</g>
<g>
	<path style="fill:#EDB785;" d="M38.854,48.143c0,0,4.334,2.19,6.146,2.19v1.209C45,51.542,42.27,51.143,38.854,48.143z"/>
	<path style="fill:#E0A670;" d="M51.146,48.143c0,0-4.334,2.19-6.147,2.19v1.209C45,51.542,47.73,51.143,51.146,48.143z"/>
</g>
<g>
	<path style="fill:#D7B02E;" d="M57.869,17.883c-1.145-1.409-2.704-1.518-3.017-1.409c-1.517-2.927-5.261-3.686-5.261-3.686
		l1.04-0.976c-2.107-0.824-3.979-1.145-5.632-1.135V24.72c2.769,0.14,5.24-0.407,5.24-0.407c-1.192-0.759-0.435-2.819-0.435-2.819
		c5.529,1.734,6.295,10.748,6.295,10.748l0.56-0.65C56.66,31.591,59.013,19.292,57.869,17.883z"/>
	<path style="fill:#EFC82B;" d="M45,10.677c-6.829,0.039-9.865,5.797-9.865,5.797c-0.312-0.108-1.872,0-3.016,1.409
		s1.336,13.836,1.336,13.836l0.56,0.65c-0.18-10.624,4.733-10.117,4.733-10.117c1.472,1.766,3.963,2.351,6.252,2.467V10.677z"/>
</g>
</svg>
