<?xml version="1.0" encoding="utf-8"?>
<!-- Generator: Adobe Illustrator 16.0.0, SVG Export Plug-In . SVG Version: 6.00 Build 0)  -->
<!DOCTYPE svg PUBLIC "-//W3C//DTD SVG 1.1//EN" "http://www.w3.org/Graphics/SVG/1.1/DTD/svg11.dtd">
<svg version="1.1" id="Слой_1" xmlns="http://www.w3.org/2000/svg" xmlns:xlink="http://www.w3.org/1999/xlink" x="0px" y="0px"
	 width="90px" height="90px" viewBox="0 0 90 90" enable-background="new 0 0 90 90" xml:space="preserve">
<path fill="#E7F2F8" d="M11.043,15.499C19.416,5.686,32.258-0.155,45.149,0.003c0.035,3.113,0,6.225,0.031,9.337
	c-3.396-0.214-6.949,0.241-9.837,2.174c-2.688,1.725-4.763,4.55-5.167,7.77C29.583,28.49,29.169,37.699,28.59,46.9
	c-0.145,4.51-0.61,9.008-0.627,13.527c-1.906,1.475-3.088,3.736-3.198,6.148c-0.183,3.582-0.263,7.191-0.101,10.771
	c5.663,2.795,11.83,4.43,18.041,5.455c0.803,0.156,2.276,0.188,2.695,0.252c0.017,0.607-0.248,6.941-0.248,6.941
	c-12.978,0.16-25.903-5.752-34.282-15.674c-4.874-5.641-8.29-12.541-9.84-19.836C-2.027,40.884,1.83,25.951,11.043,15.499z"/>
<path fill="#D7E4EB" d="M45.149,0.003c9.129-0.11,18.225,2.868,25.687,8.109c7.912,5.569,14.003,13.729,16.967,22.958
	c3.359,10.311,2.87,21.867-1.493,31.805c-3.566,8.395-9.829,15.578-17.549,20.396c-7.026,4.379-15.313,6.846-23.608,6.725
	l0.248-6.941c4.112-0.252,8.124-1.297,12.08-2.383c2.957-0.889,5.904-1.93,8.609-3.432c-0.049-3.801,0.131-7.625-0.279-11.406
	c-0.189-2.184-1.465-4.094-3.129-5.449c0.003-3.586-0.39-7.15-0.504-10.73c-0.562-9.658-1.065-19.322-1.627-28.983
	c0.008-2.853-1.251-5.651-3.315-7.598c-1.861-1.842-4.313-2.999-6.86-3.512c-1.71-0.359-3.465-0.215-5.195-0.221
	C45.149,6.228,45.184,3.116,45.149,0.003z"/>
<path fill="#753D0F" d="M35.343,11.515c2.888-1.933,6.442-2.388,9.837-2.174c0.002,0.052,0.072,2.208,0.072,2.208
	c-0.463,0-0.986-0.014-1.492,0.139c-6.218,0.883-10.944,7.234-10.147,13.439c0.093,2.677,0.662,5.443,2.041,7.766
	c0.293,2.864,0.613,11.071,0.627,12.299c0.076,2.488,0.328,4.966,0.417,7.457c0.017,0.715,0.147,1.424,0.393,2.102
	c-0.865,0.635-1.565,1.463-2.433,2.09c-2.292,1.066-4.65,2.074-6.694,3.588c0.017-4.52,0.482-9.018,0.627-13.527
	c0.579-9.201,0.993-18.411,1.586-27.616C30.58,16.064,32.655,13.239,35.343,11.515z"/>
<path fill="#512A0A" d="M45.18,9.34c1.589-0.218,3.598,0.097,5.195,0.221c2.548,0.514,4.999,1.67,6.86,3.512
	c2.064,1.946,3.323,4.745,3.315,7.598c0.562,9.662,1.065,19.327,1.627,28.983c0.114,3.58,0.507,7.145,0.504,10.73
	c-1.975-1.496-4.281-2.455-6.508-3.502c-1.41-1.236-2.792-2.516-4.386-3.52c-0.479-2.35-0.489-4.789-0.575-7.178
	c1.369-1.773,3.045-3.536,3.413-5.87c0.394-3.551,0.293-7.14,0.651-10.693c-2.589-2.912-6.337-4.282-9.77-5.896
	c-1.883-0.98-3.485-2.412-4.792-4.073c-2.771,1.219-5.09,3.796-5.322,6.912c-0.062,2.115,0.272,4.213,0.259,6.328
	c-1.378-2.323-1.947-5.089-2.041-7.766c0.29-3.679,2.316-7.167,5.377-9.224c0.882-0.648,1.992-0.931,2.747-1.755
	c1.703-1.122,3.919-1.457,5.887-0.922c3.928,0.869,7.31,3.629,9.188,7.159c-1.404-5.017-6.353-8.899-11.558-8.836
	C45.242,11.172,45.146,9.781,45.18,9.34z"/>
<path fill="#FFFFFF" d="M33.613,25.126c-0.796-6.205,3.929-12.556,10.147-13.439c5.752-0.957,11.507,3.188,13.051,8.697
	c-1.878-3.53-5.261-6.29-9.188-7.159c-1.968-0.535-4.184-0.2-5.888,0.922c-0.754,0.824-1.864,1.106-2.747,1.755
	C35.929,17.959,33.902,21.448,33.613,25.126z"/>
<path fill="#F5CBA4" d="M35.395,26.565c0.231-3.115,2.551-5.692,5.322-6.912c1.306,1.661,2.909,3.092,4.791,4.073
	c-0.269,5.398-0.076,10.813-0.096,16.219c-1.693-0.132-3.327,0.386-4.981,0.621c1.686,1.004,2.761,3.401,5.012,3.24
	c-0.004,0.107-0.141,17-0.152,17.038c-0.11,0.037,0.107-0.039,0,0c-1.813-0.197-3.181-1.02-4.29-2.545
	c-1.144-1.402-1.493-3.219-2.202-4.836c0.6-0.885,0.334-2.092,0.541-3.102c-0.031-1.48,0.304-2.992,0.063-4.449
	c-1.193-1.314-2.389-2.69-2.951-4.408c-0.824-2.781-0.503-5.748-0.796-8.612C35.667,30.778,35.333,28.68,35.395,26.565z"/>
<path fill="#EDB785" d="M45.508,23.726c3.433,1.614,7.181,2.984,9.771,5.896c-0.358,3.553-0.259,7.142-0.651,10.693
	c-0.369,2.334-2.045,4.097-3.413,5.87c0.085,2.389,0.096,4.828,0.575,7.178c-0.313,1.869-1.021,3.715-2.221,5.201
	c-0.824,1.053-2.124,1.533-3.326,1.998c-0.145,0.051-0.769,0.357-0.953,0.281c-0.004-0.043,0.152-17.038,0.152-17.038
	c2.152,0.172,3.137-2.267,4.843-3.257c-1.638-0.142-3.209-0.805-4.874-0.604C45.432,34.539,45.239,29.125,45.508,23.726z"/>
<path fill="#E98C86" d="M40.43,40.566c1.655-0.235,3.288-0.753,4.981-0.621c-0.007,0.339-0.011,0.68-0.021,1.018
	c-1.142-0.021-2.286-0.1-3.43-0.063c1.22,1.194,2.982,1.476,4.611,1.194c-0.428,0.156-0.596,0.49-1.023,0.63
	c0.049,0.425-0.158,0.656-0.107,1.081h-0.18C43.012,43.967,42.116,41.571,40.43,40.566z"/>
<path fill="#D86F6A" d="M45.412,39.945c1.665-0.201,3.236,0.462,4.874,0.604c-1.706,0.991-2.592,3.433-4.843,3.257
	c-0.051-0.425,0.048-1.186-0.001-1.611c0.428-0.142,0.704,0.054,1.131-0.101c0.804-0.293,1.562-0.701,2.258-1.19
	c-1.148-0.031-2.292,0.038-3.439,0.059C45.401,40.625,45.405,40.284,45.412,39.945z"/>
<path fill="#FFFFFF" d="M41.961,40.901c1.144-0.037,2.289,0.042,3.43,0.063c1.147-0.021,2.291-0.09,3.439-0.059
	c-0.696,0.489-1.455,0.897-2.258,1.19C44.943,42.377,43.181,42.095,41.961,40.901z"/>
<path fill="#512A0A" d="M36.248,45.179c-0.014-1.229-0.303-5.609-0.231-5.808c0.562,1.719,2.19,5.227,3.383,6.543
	c0.242,1.455-0.093,2.967-0.062,4.447c-0.207,1.01,0.058,2.219-0.542,3.102c-0.565,0.43-1.185,0.881-1.746,1.316
	c-0.246-0.678-0.391-1.41-0.408-2.125C36.553,50.162,36.274,47.65,36.248,45.179z"/>
<path fill="#DFDFDF" d="M51.789,53.363c1.593,1.004,2.976,2.283,4.385,3.52c1.096,1.625,0.769,3.725,0.555,5.557
	c-0.078,0.988-0.523,2.061-1.513,2.43c-1.396,0.535-2.879,0.01-4.233-0.395c-2.135-0.697-3.59-2.49-5.438-3.674l0.266-0.084
	c0.107-0.037,0.32-0.115,0.432-0.154c1.202-0.465,2.502-0.945,3.326-1.998C50.769,57.078,51.476,55.232,51.789,53.363z"/>
<path fill="#FFFFFF" d="M37.09,54.75c0.562-0.436,1.141-0.857,1.706-1.287c0.71,1.617,1.058,3.434,2.203,4.838
	c1.109,1.523,2.402,2.359,4.215,2.555l0.331-0.055c-0.083,0.014-0.248,0.043-0.331,0.055c-1.927,1.016-3.278,2.93-5.412,3.578
	c-1.523,0.539-3.495,1.172-4.884,0.008c-0.972-0.959-0.917-2.457-1.023-3.719c0.003-1.318-0.148-2.799,0.762-3.883
	C35.525,56.213,36.226,55.385,37.09,54.75z"/>
<path fill="#F6B800" d="M27.963,60.428c2.044-1.514,4.401-2.521,6.694-3.588c-0.91,1.084-0.759,2.564-0.762,3.881
	c0.107,1.264,0.052,2.762,1.023,3.721c1.39,1.162,3.361,0.531,4.884-0.008c0.114,0.248,0.231,0.496,0.352,0.742
	c1.069,1.936,2.13,3.873,3.233,5.793c0.635,1.238,1.321,2.451,2.027,3.654c-0.086,2.811-0.038,5.623-0.014,8.432
	c-0.903-0.049-1.802-0.143-2.695-0.252c-6.211-1.025-12.378-2.66-18.041-5.455c-0.162-3.582-0.083-7.191,0.101-10.771
	C24.875,64.164,26.057,61.902,27.963,60.428z"/>
<path fill="#CF8D00" d="M56.174,56.883c2.227,1.047,4.533,2.006,6.508,3.502c1.664,1.355,2.939,3.266,3.129,5.449
	c0.41,3.781,0.23,7.605,0.279,11.406c-2.705,1.502-5.652,2.543-8.608,3.432c-3.957,1.086-7.968,2.131-12.081,2.383
	c-0.023-2.809-0.072-5.621,0.015-8.432c0.048-0.121,0.145-0.363,0.196-0.484c0.58-1.068,1.154-2.139,1.751-3.197
	c1.199-2.088,2.327-4.213,3.513-6.307c0.028-0.039,0.08-0.117,0.107-0.16c1.355,0.404,2.838,0.93,4.233,0.395
	c0.989-0.369,1.435-1.441,1.513-2.43C56.942,60.607,57.27,58.508,56.174,56.883z"/>
<path fill="#444444" d="M39.803,64.434c2.134-0.648,3.485-2.563,5.412-3.578c0.376,4.279,0.008,8.615,0.204,12.912l0.193,0.371
	c-0.053,0.121-0.149,0.363-0.197,0.484c-0.706-1.201-1.392-2.416-2.027-3.654c0.531-2.447,0.621-4.996,1.472-7.359
	c-0.748-0.193-1.427-0.576-2.172-0.773c-0.717,0.719-1.558,1.367-2.561,1.607c0.007,0.184,0.021,0.551,0.027,0.732
	C40.034,64.932,39.917,64.682,39.803,64.434z"/>
<path d="M45.214,60.855c0.083-0.012,0.248-0.041,0.331-0.055c1.848,1.184,3.303,2.979,5.438,3.674
	c-0.027,0.041-0.079,0.121-0.107,0.16c-1.011-0.561-2.114-1.004-2.924-1.857c-0.68,0.318-1.365,0.631-2.092,0.814
	c0.858,2.354,0.893,4.92,1.502,7.35c-0.596,1.059-1.367,2.611-1.947,3.682l0.004-0.855C45.222,69.471,45.591,65.135,45.214,60.855z"
	/>
<path fill="#FFFFFF" d="M42.688,62.836c0.745,0.197,1.424,0.58,2.172,0.773c-0.852,2.363-0.941,4.912-1.472,7.359
	c-1.103-1.918-2.165-3.857-3.233-5.793c-0.385-0.811-0.024-0.664-0.027-0.732C41.13,64.203,41.971,63.555,42.688,62.836z"/>
<path fill="#DFDFDF" d="M45.859,63.592c0.727-0.182,1.412-0.496,2.092-0.814c0.81,0.854,1.913,1.297,2.924,1.857
	c-1.186,2.094-2.313,4.219-3.514,6.307C46.752,68.512,46.718,65.945,45.859,63.592z"/>
<path fill="#EDB785" d="M39.399,45.914c0,0,3.469,2.814,5.997,2.111v1.279C41.433,48.809,39.399,45.914,39.399,45.914z"/>
</svg>
