<?xml version="1.0" encoding="utf-8"?>
<!-- Generator: Adobe Illustrator 13.0.0, SVG Export Plug-In . SVG Version: 6.00 Build 14948)  -->
<!DOCTYPE svg PUBLIC "-//W3C//DTD SVG 1.1//EN" "http://www.w3.org/Graphics/SVG/1.1/DTD/svg11.dtd">
<svg version="1.1" id="Layer_1" xmlns="http://www.w3.org/2000/svg" xmlns:xlink="http://www.w3.org/1999/xlink" x="0px" y="0px"
	 width="89.287px" height="89px" viewBox="0 0 89.287 89" enable-background="new 0 0 89.287 89" xml:space="preserve">
<g>
	<path fill="#CBDFE7" d="M44.766,0c24.588,0,44.521,19.924,44.521,44.5S69.354,89,44.766,89c-0.041,0-0.081-0.002-0.122-0.002V0.002
		C44.685,0.002,44.725,0,44.766,0z"/>
	<path fill="#E2F0F5" d="M44.521,0C19.934,0,0,19.924,0,44.5S19.934,89,44.521,89c0.041,0,0.081-0.002,0.122-0.002V0.002
		C44.603,0.002,44.563,0,44.521,0z"/>
</g>
<g>
	<path fill="#F5CBA4" d="M44.644,49.145l-6.096-1.464c0,6.034-1.106,7.393-1.106,7.393s-6.173,9.142-6.548,9.505
		c-0.375,0.365,10.625,5.103,10.625,5.103l3.125-1.716V49.145z"/>
	<path fill="#EDB785" d="M44.644,49.145l6.096-1.464c0,6.034,1.106,7.393,1.106,7.393s6.173,9.142,6.548,9.505
		c0.375,0.365-10.625,5.103-10.625,5.103l-3.125-1.716V49.145z"/>
	<path fill="#FADD7D" d="M37.547,54.892c-0.348,0.067-0.999,0.198-1.882,0.393c0.907,4.126,4.578,7.216,8.978,7.216v-1.916
		C41.169,60.584,38.274,58.146,37.547,54.892z"/>
	<path fill="#F5CBA4" d="M44.644,16.5l-4.5-4.5l-9.5,9.5l-0.5,3l0.108,4.902c-1.141,0.133-2.072,1.018-1.788,3.462
		c0.285,2.445,1.979,5.405,3.12,5.272c0.129-0.016,0.247-0.061,0.357-0.121c2.112,10.675,11.75,11.855,11.75,11.855l0.952-0.042
		V16.5z"/>
	<path fill="#EDB785" d="M44.644,16.5l4.5-4.5l8.5,6.5l1.5,6l-0.108,4.902c1.141,0.133,2.072,1.018,1.788,3.462
		c-0.285,2.445-1.979,5.405-3.12,5.272c-0.129-0.016-0.247-0.061-0.357-0.121c-2.112,10.675-11.75,11.855-11.75,11.855l-0.952-0.042
		V16.5z"/>
	<path fill="#E74D3D" d="M35.666,55.259c-3.822,0.838-11.57,2.781-13.921,5.203c-3.162,3.258-4.12,10.923-4.12,10.923l-0.165,0.526
		c7.218,6.494,16.735,10.477,27.183,10.589V62.475C40.244,62.475,36.572,59.385,35.666,55.259z"/>
	<path fill="#D7B02E" d="M51.74,54.892c0.348,0.067,0.999,0.198,1.882,0.393c-0.907,4.126-4.578,7.216-8.978,7.216v-1.916
		C48.118,60.584,51.013,58.146,51.74,54.892z"/>
	<path fill="#C03B2B" d="M53.622,55.259c3.822,0.838,11.57,2.781,13.921,5.203c3.162,3.258,4.12,10.923,4.12,10.923l0.165,0.526
		C64.608,78.405,55.091,82.388,44.644,82.5V62.475C49.043,62.475,52.715,59.385,53.622,55.259z"/>
	<rect x="55.144" y="63.5" fill="#D7B02E" width="8" height="2"/>
	<path fill="#565656" d="M44.644,45.563v5.903c0,0-6.726-0.422-6.852-2.953c-0.125-2.529,0.88-3.449,0.88-3.449
		s1.509,2.031,3.269,1.994C43.701,47.02,41.878,45.448,44.644,45.563z"/>
	<path fill="#3E3E3E" d="M44.644,45.563v5.903c0,0,6.726-0.422,6.852-2.953c0.125-2.529-0.88-3.449-0.88-3.449
		s-1.509,2.031-3.269,1.994C45.586,47.02,47.409,45.448,44.644,45.563z"/>
	<path fill="#FFFFFF" d="M39.644,42.5c0.907,0.33,2.679,0.886,4.937,0.945c2.257,0.063,3.985-0.443,5.063-0.881
		c-0.679,1.096-2.981,2.807-4.971,2.93C42.692,45.621,40.269,43.27,39.644,42.5z"/>
	<path fill="#3E3E3E" d="M44.644,7.891v10.998c3.022,0.503,5.197-0.266,7.609-1.453c4.783-2.35,4.783,5.215,4.579,7.673
		c-0.149,1.816,1.171,4.575,1.871,5.892c0.171-0.746,0.374-1.709,0.595-2.936C59.297,28.064,63.222,9.334,44.644,7.891z"/>
	<path fill="#565656" d="M29.99,28.064c0.214,1.188,0.41,2.121,0.577,2.857c0.652-1.322,1.817-4.1,2.018-7.411
		c0.289-4.772,6.942-5.931,10.703-4.919c0.472,0.127,0.922,0.225,1.356,0.297V7.891C26.065,9.334,29.99,28.064,29.99,28.064z"/>
</g>
</svg>
