<?xml version="1.0" encoding="utf-8"?>
<!-- Generator: Adobe Illustrator 16.0.0, SVG Export Plug-In . SVG Version: 6.00 Build 0)  -->
<!DOCTYPE svg PUBLIC "-//W3C//DTD SVG 1.1//EN" "http://www.w3.org/Graphics/SVG/1.1/DTD/svg11.dtd">
<svg version="1.1" id="Слой_1" xmlns="http://www.w3.org/2000/svg" xmlns:xlink="http://www.w3.org/1999/xlink" x="0px" y="0px"
	 width="90px" height="90px" viewBox="0 0 90 90" enable-background="new 0 0 90 90" xml:space="preserve">
<g>
	<path fill="#E6F1F7" d="M16.689,10.156C24.664,3.713,34.875,0.022,45.144,0.144c0.023,3.073,0.004,6.15,0.021,9.229l-0.351-0.004
		c-3.983-0.192-8.156,0.905-11.158,3.627c-2.081,1.63-2.954,4.278-3.449,6.777c-0.822,4.729,0.371,9.607,2.451,13.864
		c-0.856-0.653-1.632-1.474-2.664-1.839c-1.249-0.413-2.696,0.677-2.521,2.022c0.013,3.384,3.187,5.808,6.309,6.268
		c1.148,3.198,2.489,6.508,5.123,8.793c-0.01,0.273-0.03,0.818-0.038,1.094c-0.027,0.824-0.041,1.654-0.007,2.479
		c-0.321,0.035-2.146,1.111-2.658,1.971c-5.144,1.189-10.201,2.91-14.833,5.469c-1.541,0.766-2.05,2.598-2.073,4.193
		c-0.021,3.26,0.12,6.533,0.543,9.77c0.176,1.068,0.299,2.287,1.179,3.037c1.517,1.314,3.462,1.99,5.336,2.629
		c6.058,1.996,12.502,2.014,18.802,2.438c-0.014,2.631,0.014,5.26-0.008,7.891c-9.364,0.109-18.691-2.953-26.312-8.377
		c-7.214-5.17-12.854-12.523-15.905-20.863c-3.453-9.186-3.735-19.529-0.809-28.892C4.713,23.298,9.87,15.719,16.689,10.156z"/>
	<path fill="#D6E2E9" d="M45.144,0.144c10.989-0.107,21.91,4.205,30.011,11.604c6.609,5.993,11.398,13.978,13.473,22.663
		c2.248,9.318,1.472,19.378-2.332,28.188c-4.587,10.893-13.686,19.77-24.671,24.113c-5.223,2.055-10.846,3.23-16.475,3.139
		c0.021-2.631-0.006-5.26,0.008-7.893c7.148-0.498,14.577-0.512,21.243-3.492c1.475-0.693,3.262-1.586,3.514-3.391
		c0.653-3.512,0.733-7.098,0.771-10.66c0.014-1.678-0.42-3.672-2.049-4.504c-4.63-2.568-9.688-4.285-14.83-5.484
		c-0.676-0.941-1.397-1.859-2.298-2.602c-0.003-0.123-0.006-0.365-0.01-0.49c-0.014-0.439-0.032-0.877-0.045-1.313
		c-0.011-0.336-0.031-1.004-0.041-1.332c2.379-2.359,3.752-5.477,4.804-8.604c2.459-0.554,4.906-2.005,5.88-4.432
		c0.25-0.995,0.763-1.565,0.076-3.067c-0.688-1.502-3.092-0.493-4.243,0.449c2.159-4.583,3.218-9.95,1.801-14.909
		c-0.406-1.385-0.952-2.761-1.836-3.912c-3.104-3.628-8.063-5.155-12.729-4.846C45.147,6.294,45.167,3.217,45.144,0.144z"/>
	<path fill="#6C4736" d="M33.655,12.996c3.002-2.723,7.525-3.816,11.509-3.624l-0.011,8.624c-2.973,0.25-6.008,0.642-8.741,1.903
		c-1.131,0.582-2.531,1.459-2.406,2.921c0.009,4.304,0.735,8.564,1.186,12.835c-0.574-0.097-1.207-0.099-1.685-0.47
		c-0.333-0.489-0.575-1.03-0.85-1.548c-2.08-4.257-3.273-9.135-2.451-13.864C30.702,17.274,31.575,14.626,33.655,12.996z"/>
	<path fill="#3D2B25" d="M45.164,9.373c4.666-0.31,9.625,1.216,12.729,4.845c0.884,1.151,1.43,2.527,1.836,3.912
		c1.417,4.958,0.358,10.325-1.801,14.911c-0.354,0.724-0.657,1.478-1.118,2.146c-0.481,0.371-1.113,0.373-1.685,0.466
		c0.454-4.267,1.172-8.523,1.186-12.822c0.128-1.479-1.29-2.356-2.428-2.936c-2.729-1.255-5.763-1.651-8.73-1.899L45.164,9.373z"/>
	<path fill="#F0C9A5" d="M36.413,19.899c2.732-1.261,5.768-1.653,8.741-1.903c0.004,8.369,0.008,16.737,0,25.104
		c-1.564-0.162-3.038-0.718-4.496-1.267c0.891,1.752,2.616,2.886,4.49,3.336c0.01,1.997,0.071,4.004-0.093,5.998
		c-2.221-0.203-4.365-0.92-6.149-2.287c-2.634-2.285-3.975-5.595-5.123-8.793c-3.123-0.46-6.296-2.884-6.309-6.268
		c-0.175-1.345,1.271-2.435,2.521-2.022c1.031,0.366,1.808,1.187,2.664,1.839c0.275,0.521,0.517,1.06,0.85,1.548
		c0.478,0.371,1.111,0.373,1.685,0.47c-0.451-4.271-1.176-8.531-1.186-12.835C33.881,21.358,35.281,20.481,36.413,19.899z"/>
	<path fill="#E7B687" d="M45.153,17.997c2.968,0.247,6,0.642,8.73,1.897c1.138,0.582,2.555,1.457,2.428,2.936
		c-0.014,4.298-0.731,8.555-1.186,12.822c0.57-0.093,1.203-0.095,1.685-0.466c0.461-0.668,0.763-1.421,1.118-2.146
		c0.576-0.472,2.659-1.767,3.745-1.019c1.476,0.896,0.647,3.041,0.422,3.634c-0.974,2.429-3.421,3.88-5.88,4.432
		c-1.052,3.126-2.425,6.245-4.804,8.604c-1.834,1.42-4.01,2.412-6.357,2.477c0.164-1.994,0.103-3.999,0.093-5.996
		c2.063-0.26,3.924-1.532,4.893-3.375c-1.568,0.63-3.178,1.239-4.887,1.304C45.161,34.734,45.157,26.365,45.153,17.997z"/>
	<path fill="#FFFFFF" d="M40.657,41.834c1.458,0.549,2.932,1.104,4.496,1.267c1.709-0.065,3.318-0.675,4.887-1.304
		c-0.97,1.843-2.83,3.115-4.893,3.373C43.273,44.72,41.548,43.586,40.657,41.834z"/>
	<path fill="#E2A978" d="M38.905,48.881c1.784,1.367,3.929,2.084,6.149,2.287c2.169,0.881,4.393-0.379,6.398-1.145
		c0.013,0.436,0.031,0.873,0.045,1.313c-1.949,1.086-4.172,1.395-6.354,1.648c-0.048-0.352-0.101-0.701-0.158-1.049
		c-2.12-0.369-4.23-0.885-6.118-1.961C38.875,49.699,38.896,49.154,38.905,48.881z"/>
	<path fill="#DA9360" d="M45.055,51.168c2.348-0.064,4.523-1.057,6.357-2.477c0.01,0.328,0.03,0.996,0.041,1.332
		C49.447,50.789,47.224,52.049,45.055,51.168z"/>
	<path fill="#F1C8A3" d="M38.867,49.975c1.888,1.076,3.998,1.592,6.118,1.961c0.058,0.348,0.11,0.697,0.158,1.049
		c0.027,1.34,0,2.686,0.109,4.025c-2.599-0.648-5.059-2.176-6.393-4.557C38.826,51.629,38.84,50.801,38.867,49.975z"/>
	<path fill="#E7B687" d="M45.144,52.984c2.183-0.254,4.405-0.561,6.354-1.648c0.004,0.125,0.007,0.367,0.01,0.49
		c-1.065,2.646-3.614,4.363-6.255,5.184C45.144,55.67,45.171,54.324,45.144,52.984z"/>
	<path fill="#FFFFFF" d="M38.86,52.453c1.334,2.381,3.794,3.908,6.393,4.557c-0.003,0.076-0.017,0.225-0.023,0.297
		c-1.007,0.975-1.994,1.969-2.946,3.004c-0.635,0.512-1.195,1.547-2.131,1.338c-1.055-0.629-1.859-1.586-2.571-2.568
		c-0.743-1.447-1.551-2.969-1.379-4.656C36.708,53.479,38.627,52.242,38.86,52.453z"/>
	<path fill="#B8B8B8" d="M51.508,51.826c0.9,0.742,1.622,1.66,2.298,2.602c0.024,1.627-0.515,3.182-1.31,4.564
		c-0.804,1.057-1.827,1.961-2.894,2.748c-0.584-0.385-1.148-0.801-1.65-1.291c-0.938-0.908-2.726-3.057-2.723-3.143
		c0.007-0.072-0.018-0.221-0.015-0.297C47.856,56.189,50.442,54.473,51.508,51.826z"/>
	<path fill="#954B4D" d="M21.371,59.893c4.632-2.559,9.69-4.279,14.834-5.469c-0.171,1.688,0.636,3.209,1.378,4.656
		c0.93,4,2.98,7.568,4.847,11.182c0.88,1.68,1.807,3.424,2.782,5.051c0.059,2.23-0.06,4.416-0.053,6.648
		c-6.3-0.424-12.743-0.441-18.803-2.439c-1.874-0.639-3.82-1.313-5.337-2.629c-0.88-0.75-1.004-1.967-1.179-3.037
		c-0.422-3.234-0.563-6.508-0.542-9.768C19.323,62.49,19.832,60.658,21.371,59.893z"/>
	<path fill="#5C343B" d="M53.806,54.428c5.143,1.199,10.288,2.959,14.916,5.527c1.63,0.832,2.063,2.826,2.051,4.506
		c-0.039,3.561-0.118,7.148-0.771,10.658c-0.252,1.805-2.039,2.697-3.515,3.391c-6.667,2.98-14.182,2.951-21.33,3.449l0.056-6.646
		c0.021-0.172,0.069-0.525,0.094-0.699c0.914-1.557,1.74-3.166,2.574-4.77c1.796-3.5,3.77-6.965,4.615-10.852
		C53.29,57.609,53.83,56.055,53.806,54.428z"/>
	<path fill="#515151" d="M42.283,60.311c0.953-1.035,1.939-2.029,2.946-3.004c0,0-0.015,14.053-0.017,17.469v0.537
		c-0.976-1.627-1.906-3.373-2.785-5.051c0.461-2.51,0.901-5.023,1.355-7.537C43.291,61.914,42.793,61.109,42.283,60.311z"/>
	<path fill="#2B2B2B" d="M45.213,75.313l0.017-18.006c0.914,0.928,1.785,2.234,2.723,3.143c-0.491,0.748-0.965,1.51-1.416,2.283
		c0.412,2.359,0.915,4.799,1.321,7.158C47.022,71.494,45.213,75.313,45.213,75.313z"/>
	<path fill="#4DA5E1" d="M37.582,59.08c0.711,0.982,1.516,1.939,2.571,2.568c0.936,0.209,1.496-0.826,2.131-1.338
		c0.51,0.799,1.007,1.604,1.5,2.414c-0.454,2.514-0.894,5.027-1.355,7.537C40.562,66.648,38.51,63.08,37.582,59.08z"/>
	<path fill="#4B7097" d="M49.603,61.74c1.066-0.787,2.09-1.691,2.894-2.748c-0.846,3.887-2.843,7.396-4.639,10.898
		c-0.406-2.359-0.909-4.799-1.321-7.158c0.451-0.773,0.925-1.535,1.416-2.283C48.454,60.939,49.019,61.355,49.603,61.74z"/>
</g>
</svg>
