<?xml version="1.0" encoding="utf-8"?>
<!-- Generator: Adobe Illustrator 16.2.0, SVG Export Plug-In . SVG Version: 6.00 Build 0)  -->
<svg version="1.2" baseProfile="tiny" id="Слой_1"
	 xmlns="http://www.w3.org/2000/svg" xmlns:xlink="http://www.w3.org/1999/xlink" x="0px" y="0px" width="90px" height="90px"
	 viewBox="0 0 90 90" xml:space="preserve">
<path fill-rule="evenodd" fill="#E7F2F8" d="M45.122,89.561c24.567,0,44.604-20.036,44.604-44.603S69.689,0.354,45.122,0.354
	c-24.566,0-44.604,20.037-44.604,44.604S20.556,89.561,45.122,89.561z"/>
<path fill-rule="evenodd" fill="#D7E4EB" d="M45.122,0.354c24.635,0,44.604,19.97,44.604,44.604
	c0,24.634-19.97,44.603-44.604,44.603c-0.062,0-0.124-0.002-0.186-0.002V0.356C44.998,0.356,45.06,0.354,45.122,0.354z"/>
<g>
	<path fill-rule="evenodd" fill="#BA5B27" d="M35.492,51.972c1.002-0.363,2.767-0.802,4.793-1.028
		c2.025-0.226,2.448-1.187,2.448-1.187L32.053,36.629l0.594,12.163C32.646,48.792,34.641,50.526,35.492,51.972z"/>
	<path fill-rule="evenodd" fill="#AB5325" d="M55.156,51.305c-0.69-0.368-2.01-0.881-5.45-1.028
		c-3.442-0.148,2.743-13.722,2.743-13.722l7.342-1.483l1.188,6.155L55.156,51.305z"/>
	<path fill-rule="evenodd" fill="#F5CBA4" d="M33.915,39.829c0.708,3.126,3.597,7.102,6.001,9.087
		c-0.163,4.805-1.221,6.887-5.856,8.859c3.838,3.515,7.676,7.03,11.516,10.546c0-17.593,0.015-45.979,0.009-51.762l-9.705,1.996
		l-5.424,4.772c0,0,1.005,6.39,1.622,8.941c-3.96-1.151-4.116,2.78-2.614,5.183C30.384,38.924,32.033,40.768,33.915,39.829z"/>
	<path fill-rule="evenodd" fill="#EDB785" d="M57.232,39.829c-0.709,3.126-3.597,6.983-6.001,8.968
		c0.162,4.805,1.22,7.006,5.854,8.979c-3.838,3.515-7.677,7.03-11.515,10.546c0-17.593-0.015-45.979-0.01-51.762l9.706,1.996
		l5.424,4.772c0,0-1.005,6.39-1.62,8.941c3.958-1.151,4.114,2.78,2.613,5.183C60.764,38.924,59.113,40.768,57.232,39.829z"/>
	<path fill-rule="evenodd" fill="#E3742B" d="M52.736,23.491c-4.676,5.373-11.445,2.446-14.772,8.003
		c-0.892-1.434-1.246-2.437-1.096-5.364c-5.721,5.699-1.288,25.865-1.288,25.865c-17.484-11.536-10.582-34.077,0.228-39.359
		c7.509-3.669,17.187-2.478,18.852,1.83c14.598,4.292,10.205,29.238,0.481,36.874C58.171,41.88,57.784,28.293,52.736,23.491z"/>
	<path fill-rule="evenodd" fill="#D16628" d="M52.736,23.491c-2.125,2.44-4.679,3.168-7.146,3.757V10.456
		c4.401,0.046,8.098,1.498,9.068,4.01c14.598,4.292,10.205,29.238,0.481,36.874C58.171,41.88,57.784,28.293,52.736,23.491z"/>
	<path fill-rule="evenodd" fill="#28B99B" d="M36.562,56.428c1.041,2.677,3.648,6.782,9.004,6.728
		c-0.009,7.655-0.018,8.652-0.027,16.306c-7.596-0.3-14.723-1.843-21.284-4.161c0,0-0.147-3.029-0.061-10.926
		C24.284,56.126,32.202,59.021,36.562,56.428z"/>
	<path fill-rule="evenodd" fill="#FFFFFF" d="M41.931,43.509c0.92,0.015,6.377,0.028,7.446-0.035
		c-0.602,0.615-2.198,1.748-3.705,1.748C44.166,45.223,42.394,43.975,41.931,43.509z"/>
	<path fill-rule="evenodd" fill="#EDB785" d="M39.791,48.751c2.101,1.484,4.201,2.374,5.781,2.333
		c0.026,0.906-0.02,1.005,0.006,1.91C43.954,52.814,41.289,51.135,39.791,48.751z"/>
	<path fill-rule="evenodd" fill="#E0A670" d="M51.164,48.933c-2.1,1.484-3.958,2.192-5.539,2.151
		c-0.026,0.906,0.021,1.005-0.005,1.91C47.243,52.814,49.665,51.316,51.164,48.933z"/>
	<path fill-rule="evenodd" fill="#F6989A" d="M41.834,43.504c0.978-0.518,2.703-1.51,3.763-0.68c0.008,0.243-0.007,0.535,0,0.778
		C44.335,43.569,43.097,43.537,41.834,43.504z"/>
	<path fill-rule="evenodd" fill="#E67C7C" d="M49.368,43.504c-0.977-0.518-2.702-1.51-3.762-0.68
		c-0.008,0.243-0.011,0.529-0.02,0.772C46.85,43.564,48.107,43.537,49.368,43.504z"/>
	<path fill-rule="evenodd" fill="#F6989A" d="M41.915,43.497c0.916,0.938,2.578,1.505,3.653,1.523c0,0.357,0.03,0.854,0.03,1.211
		C44.339,46.22,42.351,45.079,41.915,43.497z"/>
	<path fill-rule="evenodd" fill="#E67C7C" d="M49.32,43.497c-0.918,0.938-2.691,1.515-3.767,1.534c0,0.356,0.006,0.844,0.006,1.201
		C46.82,46.22,48.886,45.079,49.32,43.497z"/>
	<path fill-rule="evenodd" fill="#179A81" d="M54.501,56.428c-1.04,2.677-3.647,6.782-9.004,6.728
		c0.009,7.655,0.018,8.652,0.027,16.306c7.596-0.3,14.572-1.843,21.131-4.161c0,0,0.148-3.029,0.062-10.926
		C66.627,56.126,58.861,59.021,54.501,56.428z"/>
	<g>
		<circle fill-rule="evenodd" fill="#3E98D3" cx="38.556" cy="55.418" r="0.893"/>
		<circle fill-rule="evenodd" fill="#3E98D3" cx="39.467" cy="57.126" r="0.893"/>
		<circle fill-rule="evenodd" fill="#3E98D3" cx="40.796" cy="58.57" r="0.893"/>
		<path fill-rule="evenodd" fill="#3E98D3" d="M42.504,60.524c0.491,0,0.894-0.399,0.894-0.893c0-0.491-0.403-0.894-0.894-0.894
			c-0.493,0-0.894,0.402-0.894,0.894C41.611,60.125,42.012,60.524,42.504,60.524z"/>
		<circle fill-rule="evenodd" fill="#3E98D3" cx="44.403" cy="60.164" r="0.893"/>
	</g>
	<g>
		<circle fill-rule="evenodd" fill="#2884C2" cx="52.565" cy="55.418" r="0.893"/>
		<circle fill-rule="evenodd" fill="#2884C2" cx="51.653" cy="57.126" r="0.893"/>
		<circle fill-rule="evenodd" fill="#2884C2" cx="50.325" cy="58.57" r="0.893"/>
		<circle fill-rule="evenodd" fill="#2884C2" cx="48.617" cy="59.631" r="0.893"/>
		<circle fill-rule="evenodd" fill="#2884C2" cx="46.718" cy="60.164" r="0.893"/>
	</g>
	<path fill-rule="evenodd" fill="#EFC849" d="M29.166,16.869c0.454-0.908,0.908-1.362,1.816-1.362c1.003,0,1.816,0.814,1.816,1.816
		c0,0.076-0.003,0.152-0.01,0.228c0.076-0.007,0.151-0.01,0.227-0.01c1.002,0,1.816,0.813,1.816,1.815
		c0,0.908-0.454,1.362-1.362,1.816c0.908,0.453,1.362,0.908,1.362,1.815c0,1.003-0.814,1.816-1.816,1.816
		c-0.075,0-0.15-0.004-0.227-0.01c0.006,0.076,0.01,0.152,0.01,0.228c0,1.002-0.813,1.816-1.816,1.816
		c-0.908,0-1.362-0.454-1.816-1.362c-0.454,0.908-0.909,1.362-1.815,1.362c-1.002,0-1.816-0.814-1.816-1.816
		c0-0.076,0.003-0.152,0.01-0.228c-0.076,0.006-0.152,0.01-0.228,0.01c-1.002,0-1.816-0.813-1.816-1.816
		c0-0.908,0.455-1.362,1.362-1.815c-0.907-0.455-1.362-0.909-1.362-1.816c0-1.002,0.814-1.815,1.816-1.815
		c0.076,0,0.152,0.003,0.228,0.01c-0.006-0.076-0.01-0.152-0.01-0.228c0-1.002,0.814-1.816,1.816-1.816
		C28.257,15.507,28.711,15.961,29.166,16.869z"/>
	<path fill-rule="evenodd" fill="#EFC849" d="M57.618,64.972c0.264-0.528,0.53-0.794,1.058-0.794c0.583,0,1.059,0.475,1.059,1.058
		c0,0.045-0.002,0.089-0.006,0.133c0.044-0.004,0.087-0.006,0.132-0.006c0.585,0,1.058,0.474,1.058,1.059
		c0,0.527-0.264,0.792-0.792,1.057c0.528,0.264,0.792,0.528,0.792,1.057c0,0.584-0.473,1.058-1.058,1.058
		c-0.045,0-0.088-0.002-0.132-0.005c0.004,0.043,0.006,0.087,0.006,0.132c0,0.584-0.476,1.058-1.059,1.058
		c-0.527,0-0.794-0.265-1.058-0.794c-0.264,0.529-0.528,0.794-1.056,0.794c-0.583,0-1.059-0.474-1.059-1.058
		c0-0.045,0.004-0.089,0.006-0.132c-0.044,0.003-0.089,0.005-0.132,0.005c-0.583,0-1.058-0.474-1.058-1.058
		c0-0.528,0.266-0.793,0.794-1.057c-0.528-0.265-0.794-0.529-0.794-1.057c0-0.585,0.475-1.059,1.058-1.059
		c0.043,0,0.088,0.002,0.132,0.006c-0.002-0.044-0.006-0.088-0.006-0.133c0-0.583,0.476-1.058,1.059-1.058
		C57.09,64.178,57.354,64.443,57.618,64.972z"/>
</g>
</svg>
