<?xml version="1.0" encoding="utf-8"?>
<!-- Generator: Adobe Illustrator 16.2.0, SVG Export Plug-In . SVG Version: 6.00 Build 0)  -->
<svg version="1.2" baseProfile="tiny" id="Слой_1"
	 xmlns="http://www.w3.org/2000/svg" xmlns:xlink="http://www.w3.org/1999/xlink" x="0px" y="0px" width="90px" height="90px"
	 viewBox="0 0 90 90" xml:space="preserve">
<path fill-rule="evenodd" fill="#E7F2F8" d="M44.931,89.738c24.591,0,44.649-20.058,44.649-44.65
	c0-24.592-20.058-44.649-44.649-44.649c-24.593,0-44.65,20.057-44.65,44.649C0.281,69.681,20.338,89.738,44.931,89.738z"/>
<path fill-rule="evenodd" fill="#D7E4EB" d="M44.931,0.439c24.66,0,44.649,19.99,44.649,44.649c0,24.66-19.989,44.65-44.649,44.65
	c-0.062,0-0.124-0.002-0.186-0.002V0.442C44.807,0.441,44.869,0.439,44.931,0.439z"/>
<g>
	<rect x="30.371" y="32.705" fill-rule="evenodd" fill="#C98B2B" width="28.526" height="27.616"/>
	<path fill-rule="evenodd" fill="#F5CBA4" d="M34.609,37.638c0.709,3.13,2.42,6.977,5.759,9.739
		c-0.162,4.811-2.076,9.743-6.716,11.717c3.843,3.52,7.685,7.038,11.527,10.557c0-17.61,0.015-50.254,0.01-56.044l-9.715,1.998
		l-5.43,4.776c0,0,2.715,6.164,3.333,8.719c-3.964-1.153-4.12,2.782-2.617,5.188C31.681,35.762,32.727,38.579,34.609,37.638z"/>
	<path fill-rule="evenodd" fill="#FFFFFF" d="M37.535,57.836c0,0,1.897,1.243,3.998,1.554c2.101,0.311,3.591,0.311,3.591,0.311
		v9.014l-6.64-4.724L37.535,57.836z"/>
	<path fill-rule="evenodd" fill="#EDB785" d="M55.848,37.507c-0.709,3.129-3.066,7.841-5.706,9.829
		c0.164,4.81,1.921,9.784,6.561,11.758c-3.843,3.52-7.685,7.038-11.527,10.557c0-17.61-0.015-50.254-0.009-56.044l9.715,1.998
		l5.431,4.776c0,0-2.249,6.397-2.867,8.952c3.964-1.152,4.12,2.783,2.617,5.188C59.141,35.994,57.731,38.447,55.848,37.507z"/>
	<path fill-rule="evenodd" fill="#E6E6E5" d="M52.712,57.836c0,0-1.896,1.243-3.997,1.554C46.614,59.7,45.124,59.7,45.124,59.7
		v13.243l6.639-8.953L52.712,57.836z"/>
	<path fill-rule="evenodd" fill="#E74D3D" d="M37.734,55.875c0.799,3.53,3.289,8.157,7.436,11.743
		c-0.009,7.661-0.019,6.111-0.027,13.774c-7.604-0.302-13.018-2.307-19.586-4.628c0,0-0.148-3.032-0.062-10.936
		C25.586,57.571,33.492,59.201,37.734,55.875z"/>
	<path fill-rule="evenodd" fill="#C03B2B" d="M52.543,55.875c-0.8,3.53-3.288,8.157-7.436,11.743
		c0.009,7.661,0.018,6.111,0.028,13.774c7.604-0.302,12.601-1.847,19.169-4.167c0,0,0.147-3.033,0.062-10.936
		C64.276,58.032,56.785,59.201,52.543,55.875z"/>
	<path fill-rule="evenodd" fill="#D7B02E" d="M45.115,22.654c-0.037-0.016,0.05-0.029,0.014-0.045v-10.76
		C52.291,9.816,59.922,14.408,62.023,25c2.026,10.217,2.785,26.216-1.635,39.474c-0.678-1.847-0.983-4.301-1.306-3.576
		c-0.627,2.604-3.291,6.727-4.785,8.429c1.262-3.938,3.473-13.372,2.622-23.625c-0.742,1.218-1.89,2.126-3.345,2.635
		C56.282,41.22,57.456,18.315,45.115,22.654z"/>
	<path fill-rule="evenodd" fill="#FFFFFF" d="M40.819,41.782c1.101,0.013,7.62,0.025,8.896-0.035
		c-0.718,0.593-2.624,1.685-4.426,1.685C43.489,43.433,41.373,42.23,40.819,41.782z"/>
	<path fill-rule="evenodd" fill="#EDB785" d="M40.116,47.192c1.834,1.486,3.67,2.377,5.049,2.338
		c0.022,0.905-0.019,1.005,0.004,1.91C43.752,51.262,41.424,49.578,40.116,47.192z"/>
	<path fill-rule="evenodd" fill="#E0A670" d="M50.049,47.375c-1.835,1.486-3.459,2.194-4.838,2.155
		c-0.023,0.905,0.018,1.005-0.005,1.91C46.623,51.262,48.74,49.762,50.049,47.375z"/>
	<path fill-rule="evenodd" fill="#F6989A" d="M40.704,41.777c1.168-0.5,3.23-1.766,4.496-0.965c0.01,0.234-0.009,0.825,0,1.059
		C43.691,41.839,42.212,41.808,40.704,41.777z"/>
	<path fill-rule="evenodd" fill="#E67C7C" d="M49.708,41.777c-1.169-0.5-3.23-1.766-4.497-0.965c-0.01,0.234-0.014,0.82-0.023,1.054
		C46.696,41.834,48.199,41.808,49.708,41.777z"/>
	<path fill-rule="evenodd" fill="#F6989A" d="M40.801,41.77c1.095,0.904,3.079,1.451,4.364,1.468c0,0.344,0.037,1.264,0.037,1.608
		C43.697,44.834,41.321,43.295,40.801,41.77z"/>
	<path fill-rule="evenodd" fill="#E67C7C" d="M49.647,41.77c-1.095,0.904-3.215,1.461-4.5,1.478c0,0.345,0.008,1.254,0.008,1.599
		C46.661,44.834,49.127,43.295,49.647,41.77z"/>
	<path fill-rule="evenodd" fill="#EFC849" d="M45.017,22.654c0.036-0.016,0.071-0.029,0.107-0.045l0.078-10.683
		C38.04,9.894,30.331,14.408,28.231,25c-2.027,10.217-2.787,26.216,1.634,39.474c0.678-1.847,0.983-4.301,1.305-3.576
		c0.628,2.604,3.292,6.727,4.786,8.429c-1.262-3.938-3.316-13.45-2.466-23.702c0.743,1.218,3.079,2.17,4.534,2.678
		c-2.1-4.092-3.957-12.909-2.807-19.443c0.441,0.643,1.543,2.332,2.608,3.375C37.855,25.636,39.579,20.244,45.017,22.654z"/>
	<path fill-rule="evenodd" fill="#E74D3D" d="M33.563,25.924c1.65-5.33,6.953-8.388,11.715-8.14c0-0.81-0.078-2.163-0.078-2.973
		C35.513,14.813,33.408,21.806,33.563,25.924z"/>
	<path fill-rule="evenodd" fill="#C03B2B" d="M56.798,25.924c-1.649-5.33-6.953-8.388-11.715-8.14c0-0.81,0.078-2.163,0.078-2.973
		C54.85,14.813,56.953,21.806,56.798,25.924z"/>
	<path fill-rule="evenodd" fill="#F37368" d="M45.083,73.52c1.145,0,2.078-0.932,2.078-2.078c0-1.144-0.933-2.077-2.078-2.077
		c-1.145,0-2.078,0.934-2.078,2.077C43.005,72.588,43.939,73.52,45.083,73.52z"/>
	<path fill-rule="evenodd" fill="#EB6A5E" d="M45.143,69.365c1.121,0.032,2.018,0.95,2.018,2.078s-0.897,2.043-2.018,2.076V69.365z"
		/>
	<path fill-rule="evenodd" fill="#F37368" d="M45.124,79.882c1.145,0,2.078-0.935,2.078-2.078c0-1.145-0.933-2.078-2.078-2.078
		s-2.079,0.934-2.079,2.078C43.045,78.947,43.979,79.882,45.124,79.882z"/>
	<path fill-rule="evenodd" fill="#EB6A5E" d="M45.143,75.726c1.138,0.011,2.058,0.937,2.058,2.078c0,1.141-0.92,2.066-2.058,2.078
		V75.726z"/>
</g>
</svg>
