<?xml version="1.0" encoding="utf-8"?>
<!-- Generator: Adobe Illustrator 16.2.0, SVG Export Plug-In . SVG Version: 6.00 Build 0)  -->
<svg version="1.2" baseProfile="tiny" id="Слой_1"
	 xmlns="http://www.w3.org/2000/svg" xmlns:xlink="http://www.w3.org/1999/xlink" x="0px" y="0px" width="90px" height="90px"
	 viewBox="0 0 90 90" xml:space="preserve">
<path fill-rule="evenodd" fill="#E2F0F5" d="M45.002,89.403c24.521,0,44.521-20,44.521-44.521c0-24.521-19.999-44.52-44.521-44.52
	c-24.521,0-44.52,20-44.52,44.52C0.482,69.403,20.481,89.403,45.002,89.403z"/>
<path fill-rule="evenodd" fill="#CBDFE7" d="M45.002,0.362c24.588,0,44.521,19.933,44.521,44.52S69.59,89.403,45.002,89.403
	c-0.041,0-0.081-0.002-0.122-0.002V0.364C44.921,0.364,44.961,0.362,45.002,0.362z"/>
<path fill-rule="evenodd" fill="#704F33" d="M31.22,43.801c1.165,4.552,2.773,8.086,5.081,11.147
	c6.126,0.04,12.201-0.054,18.327-0.012c2.017-3.903,2.703-6.694,3.861-10.951c-2.369-0.088-6.598-2.444-7.782-2.488
	S31.22,43.668,31.22,43.801z"/>
<polygon fill-rule="evenodd" fill="#B2BABF" points="50.838,57.862 57.423,61.932 44.802,78.725 44.67,60.603 "/>
<polygon fill-rule="evenodd" fill="#D6D7D8" points="38.935,57.862 32.466,61.916 44.958,78.275 45.103,60.603 "/>
<path fill-rule="evenodd" fill="#1C7CC1" d="M44.861,59.541l2.778,0.869l1.216,1.91l-2.171,2.604l1.65,16.498l-3.561,5.905
	C44.774,87.328,44.861,59.454,44.861,59.541z"/>
<path fill-rule="evenodd" fill="#3193D1" d="M44.899,59.541l-2.779,0.869l-1.215,1.91l2.171,2.604l-1.65,16.498l3.56,5.905
	C44.986,87.328,44.899,59.454,44.899,59.541z"/>
<polygon fill-rule="evenodd" fill="#58595B" points="15.162,24.877 45.007,13.362 74.854,24.877 45.007,36.393 "/>
<path fill-rule="evenodd" fill="#F6C79D" d="M50.591,54.704v5.316H39.16v-5.407c-3.149-1.853-5.593-5.226-6.87-9.471
	c-0.233,0.11-0.481,0.179-0.741,0.198c-1.608,0.12-3.053-1.672-3.227-4.002c-0.174-2.33,0.989-4.316,2.597-4.436
	c0.15-0.011,0.298-0.006,0.443,0.015c0.201-2.927,0.964-5.93,2.14-8.656c2.477-5.749,7.226-3.172,11.904-3.172
	c4.688,0,8.544-2.913,10.974,2.785c1.176,2.755,1.912,5.863,2.04,9.023c0.038,0,0.075,0.002,0.114,0.005
	c1.607,0.12,2.771,2.106,2.597,4.436c-0.174,2.33-1.618,4.122-3.227,4.002c-0.168-0.013-0.332-0.046-0.489-0.098
	C56.13,49.665,53.723,52.94,50.591,54.704z"/>
<path fill-rule="evenodd" fill="#EEB281" d="M50.591,54.704v5.316h-5.629V25.082c0.148,0.005,0.296,0.007,0.444,0.007
	c4.688,0,8.544-2.913,10.974,2.785c1.176,2.755,1.912,5.863,2.04,9.023c0.038,0,0.075,0.002,0.114,0.005
	c1.607,0.12,2.771,2.106,2.597,4.436c-0.174,2.33-1.618,4.122-3.227,4.002c-0.168-0.013-0.332-0.046-0.489-0.098
	C56.13,49.665,53.723,52.94,50.591,54.704z"/>
<path fill-rule="evenodd" fill="#89664C" d="M36.318,31.594c0,0,2.063,2.065,6.567,3.926c4.329,1.788,7.3,1.864,11.906,2.189
	c-1.134-1.357-1.608-1.912-2.224-2.923c2.41,0.847,3.632,1.481,5.9,2.202c-0.095-0.842-0.173-1.85-0.257-2.805
	c-2.835-2.069-7.567-4.433-13.046-6.928C39.614,28.948,36.166,31.67,36.318,31.594z"/>
<path fill-rule="evenodd" fill="#704F33" d="M44.979,36.332c3.257,1.032,6.011,1.108,9.813,1.377
	c-1.134-1.357-1.608-1.912-2.224-2.923c2.41,0.847,3.632,1.481,5.9,2.202c-0.095-0.842-0.173-1.85-0.257-2.805
	c-2.835-2.069-7.634-4.411-13.112-6.906l-0.121,0.038V36.332z"/>
<path fill-rule="evenodd" fill="#939598" d="M31.675,30.462c0.029,4.085,0.058-0.552,0.086,3.465
	c6.768-4.915,18.999-5.379,26.565,0.276c-0.01-4.534,0.067-1.722,0.012-3.742c-0.009-4.972-5.28-11.541-13.353-11.482
	C35.485,19.05,31.684,25.691,31.675,30.462z"/>
<path fill-rule="evenodd" fill="#6D6E71" d="M44.963,30.103c4.736,0.016,9.688,1.343,13.38,4.129c-0.01-4.534-0.071-1.75-0.126-3.77
	c0.29-4.972-5.135-11.541-13.23-11.482l-0.024,0V30.103z"/>
<path fill-rule="evenodd" fill="#F1F1F1" d="M39.209,56.997l-2.678,2.409l3.245,5.284l5.077-4.655
	C44.853,60.035,39.281,56.997,39.209,56.997z"/>
<path fill-rule="evenodd" fill="#D6D7D8" d="M50.563,56.997l2.678,2.409l-3.244,5.284l-5.077-4.655
	C44.92,60.035,50.492,56.997,50.563,56.997z"/>
<path fill-rule="evenodd" fill="#939598" d="M32.824,61.693c-4.115,2.626-5.165,2.61-7.905,3.506
	c-4.632,1.514-5.427,6.663-6.272,15.443c7.358,5.466,16.462,8.715,26.324,8.758c0.005-4.386-0.028-7.163-0.01-12.123
	C41.306,72.571,35.565,65.318,32.824,61.693z"/>
<path fill-rule="evenodd" fill="#6D6E71" d="M57.083,61.693c4.114,2.626,5.165,2.61,7.905,3.506c4.684,1.53,5.444,6.778,6.3,15.737
	c-7.337,5.323-16.36,8.467-26.119,8.467c-0.078,0-0.155-0.003-0.233-0.004c-0.005-4.385,0.028-7.162,0.01-12.122
	C48.602,72.571,54.342,65.318,57.083,61.693z"/>
<polygon fill-rule="evenodd" fill="#939598" points="15.151,24.887 44.918,13.506 44.918,11.646 15.192,23.327 "/>
<polygon fill-rule="evenodd" fill="#6D6E71" points="74.745,24.887 44.907,13.489 44.907,11.628 74.704,23.327 "/>
<rect x="21.7" y="20.122" fill-rule="evenodd" fill="#3193D1" width="1.607" height="17.784"/>
<circle fill-rule="evenodd" fill="#3193D1" cx="22.503" cy="38.919" r="1.714"/>
<path fill-rule="evenodd" fill="#3193D1" d="M22.503,39.715c1.212,0,2.195,2.524,2.195,5.638c0,0.618-0.04,1.212-0.111,1.769h-4.168
	c-0.072-0.557-0.111-1.151-0.111-1.769C20.309,42.239,21.292,39.715,22.503,39.715z"/>
<path fill-rule="evenodd" fill="#89664C" d="M36.458,31.554c-1.038,2.143-1.994,4.755-2.866,6.953
	c-0.619-0.667-1.349-1.556-2.327-1.589c0.169-1.123,0.339-1.704,0.533-2.927C32.904,33.071,34.992,31.912,36.458,31.554z"/>
<path fill-rule="evenodd" fill="#FFFFFF" d="M40.676,49.309c0.777,0.291,2.293,0.78,4.226,0.836c1.934,0.056,3.412-0.392,4.335-0.78
	c-0.582,0.97-2.555,2.479-4.253,2.589S41.21,49.988,40.676,49.309z"/>
</svg>
