<?xml version="1.0" standalone="no"?>
<!DOCTYPE svg PUBLIC "-//W3C//DTD SVG 1.1//EN" "http://www.w3.org/Graphics/SVG/1.1/DTD/svg11.dtd" >
<svg xmlns="http://www.w3.org/2000/svg">
<metadata></metadata>
<defs>
<font id="pf_bulletin_sans_proLtIt" horiz-adv-x="972" >
<font-face units-per-em="2048" ascent="1536" descent="-512" />
<missing-glyph horiz-adv-x="450" />
<glyph unicode="&#xfb01;" horiz-adv-x="909" d="M-6 -424l252 1307h-137l12 61l147 39l37 195q27 133 101.5 206.5t203.5 73.5q49 0 127 -13t148 -44l-37 -84q-16 4 -45 10t-62.5 11t-68.5 8.5t-64 3.5q-82 0 -124 -42t-58 -126l-39 -201h471l-190 -981h-121l170 883h-350l-246 -1268z" />
<glyph unicode="&#xfb02;" horiz-adv-x="862" d="M-6 -424l252 1307h-137l12 61l147 39l37 195q27 133 102.5 206.5t204.5 73.5q18 0 49 -3t63 -7t62.5 -11t53.5 -16h82l-275 -1421h-121l258 1333q-31 6 -74.5 11.5t-78.5 5.5q-98 0 -143.5 -42t-61.5 -126l-39 -201h244l-21 -98h-243l-246 -1268z" />
<glyph unicode="&#xfb03;" horiz-adv-x="1400" d="M-6 -424l252 1307h-137l12 61l147 39l37 195q12 66 33.5 118t54.5 87.5t80 55t113 19.5q39 0 88 -6t94 -29l-25 -88q-31 6 -66.5 10.5t-66.5 4.5q-88 0 -128 -42t-56 -126l-39 -201h373l37 195q27 133 101.5 206.5t203.5 73.5q49 0 127 -13t147 -44l-37 -84 q-16 4 -44.5 10t-62.5 11t-69 8.5t-63 3.5q-82 0 -124 -42t-58 -126l-39 -201l471 2l-191 -981h-121l170 883h-350l-242 -1268h-120l241 1268h-370l-246 -1268z" />
<glyph unicode="&#xfb04;" horiz-adv-x="1357" d="M-8 -424l252 1307h-138l13 61l147 39l37 195q27 133 99.5 206.5t195.5 73.5q39 0 81 -6t87 -29l-25 -88q-31 6 -66.5 10.5t-66.5 4.5q-80 0 -124 -42t-60 -126l-39 -201h348l37 197q25 133 101.5 206.5t205.5 73.5q18 0 49 -3t63 -7t62.5 -11t53.5 -16h81l-274 -1421 h-121l258 1333q-31 6 -75 11.5t-78 5.5q-98 0 -143.5 -42t-61.5 -126l-39 -201h244l-21 -98h-244l-245 -1268h-119l244 1268h-346l-246 -1268z" />
<glyph horiz-adv-x="0" />
<glyph horiz-adv-x="682" />
<glyph unicode=" "  horiz-adv-x="450" />
<glyph unicode="&#x09;" horiz-adv-x="450" />
<glyph unicode="&#xa0;" horiz-adv-x="450" />
<glyph unicode="!" horiz-adv-x="628" d="M137 72q0 55 42 95t93 40q41 0 64.5 -24.5t23.5 -65.5q0 -55 -41 -96t-90 -41q-41 0 -66.5 25.5t-25.5 66.5zM266 387l154 1012h162l-238 -1012h-78z" />
<glyph unicode="&#x22;" horiz-adv-x="698" d="M283 922l75 526h123l-127 -526h-71zM541 922l75 526h123l-127 -526h-71z" />
<glyph unicode="#" d="M29 324l30 88h158l135 407h-176l29 84h174l125 367h84l-123 -367h299l125 367h84l-123 -367h168l-29 -84h-168l-135 -407h184l-30 -88h-185l-112 -338h-84l112 338h-301l-112 -338h-86l114 338h-157zM301 412h301l135 407h-301z" />
<glyph unicode="$" d="M90 20l33 97q68 -25 135.5 -33t103.5 -8q63 0 130 15t121.5 54t88 103.5t33.5 161.5q0 55 -19.5 94t-51 65.5t-70.5 44t-78 31.5q-53 18 -105.5 41t-94.5 55.5t-67.5 80.5t-25.5 120q0 96 33 168t87 120t125 75.5t144 35.5l33 160h90l-30 -155q59 -4 120.5 -16.5 t102.5 -29.5l-29 -96q-25 8 -53.5 16.5t-57 12.5t-55 7t-45.5 3q-53 0 -112.5 -12t-109.5 -44t-84 -87.5t-34 -141.5q0 -49 24.5 -83.5t63.5 -59t85 -42t89 -34.5q49 -20 94.5 -43.5t79 -59.5t54 -88t20.5 -126q0 -109 -33.5 -188.5t-91 -133t-134.5 -83t-163 -37.5 l-26 -154h-91l29 149q-72 2 -144.5 15.5t-113.5 29.5z" />
<glyph unicode="%" horiz-adv-x="1474" d="M98 924q41 207 128 320.5t235 113.5q154 0 208 -114t13 -320q-16 -88 -44 -167t-70 -138.5t-100 -94.5t-138 -35q-164 0 -217.5 117t-14.5 318zM191.5 787.5q-3.5 -62.5 9 -108.5t42 -71.5t85.5 -25.5q51 0 91 25.5t68.5 71.5t49 108.5t34.5 136.5q14 72 18.5 134t-7 108 t-40 73t-81.5 27q-55 0 -97 -27t-72 -73t-49.5 -108.5t-33.5 -133.5q-14 -74 -17.5 -136.5zM317 -70l730 1469h88l-734 -1469h-84zM752 214q0 81 18 181q41 207 130 320.5t249 113.5q80 0 129 -29.5t72.5 -85t23.5 -136t-20 -183.5q-20 -102 -50 -182t-74 -137.5t-105.5 -87 t-143.5 -29.5t-132 30.5t-73.5 87t-23.5 137.5zM862.5 258q-4.5 -63 8 -109.5t42 -72t84.5 -25.5q51 0 91 25.5t70 72t50.5 110t34.5 136.5q14 72 18.5 134.5t-6 108.5t-40.5 72.5t-85 26.5t-96 -26.5t-70.5 -72.5t-49 -108.5t-33.5 -134.5q-14 -74 -18.5 -137z" />
<glyph unicode="&#x26;" horiz-adv-x="1232" d="M47 258q0 88 31 162t84 137.5t125.5 116.5t158.5 100q-88 139 -88 277q0 78 26 142t71 110.5t107.5 72t133.5 25.5q121 0 191.5 -65.5t70.5 -166.5q0 -78 -33.5 -142t-83.5 -116.5t-111.5 -95.5t-117.5 -76q23 -45 42.5 -81.5t39 -71.5t40 -72t46.5 -80q45 74 87 133.5 t87 100.5t96.5 62.5t118.5 21.5q16 0 23.5 -1t24.5 -3l-19 -109q-10 2 -20.5 2h-20.5q-59 0 -98 -23.5t-72 -65.5t-66.5 -101.5t-78.5 -131.5q16 -29 42.5 -71.5t55.5 -88.5t55.5 -89t44.5 -70h-153q-8 10 -22.5 33.5t-33 53.5t-38 63.5t-35.5 66.5q-51 -59 -98.5 -104 t-95.5 -77t-102 -48.5t-118 -16.5q-135 0 -216 74t-81 213zM172 276q0 -96 48 -148t142 -52q45 0 91.5 22.5t89.5 57t83 76.5t70 81l-204 367q-61 -37 -119 -76t-103 -87t-71.5 -107.5t-26.5 -133.5zM483 1065q0 -66 27 -129.5t55 -114.5q45 25 92.5 57.5t86 72.5t62 88 t23.5 102q0 66 -33.5 111.5t-105.5 45.5q-41 0 -78 -17t-65.5 -48t-46 -74t-17.5 -94z" />
<glyph unicode="'" horiz-adv-x="442" d="M285 922l75 526h123l-127 -526h-71z" />
<glyph unicode="(" horiz-adv-x="704" d="M156 223q0 170 34.5 321.5t90 282.5t123 240t133 192.5t122 142t89.5 89.5l51 -43q-254 -260 -390.5 -589t-136.5 -693q0 -154 30 -299.5t99 -267.5l-67 -41q-25 35 -55.5 96t-58 147t-46 192.5t-18.5 229.5z" />
<glyph unicode=")" horiz-adv-x="704" d="M49 -393q236 268 357.5 579.5t121.5 642.5q0 168 -39.5 319.5t-119.5 299.5l67 43q23 -33 57.5 -94.5t68.5 -151.5t58.5 -205.5t24.5 -255.5q0 -150 -29.5 -290t-76.5 -265t-107.5 -232.5t-121 -193.5t-116 -148.5t-94.5 -96.5z" />
<glyph unicode="*" horiz-adv-x="970" d="M285 1028l20 109l258 -33l-119 244l103 55l61 -268l166 272l82 -55l-219 -250l276 37l-22 -111l-262 33l125 -242l-105 -57l-63 272l-172 -278l-74 61l215 246z" />
<glyph unicode="+" d="M33 471l20 100h389l80 412h101l-80 -412h397l-20 -100h-398l-80 -414h-100l80 414h-389z" />
<glyph unicode="," horiz-adv-x="552" d="M20 -211l134 414h188l-244 -443z" />
<glyph unicode="-" horiz-adv-x="667" d="M104 451l29 145h469l-29 -145h-469z" />
<glyph unicode="." horiz-adv-x="552" d="M88 72q0 55 42 95t93 40q41 0 64.5 -24.5t23.5 -65.5q0 -55 -41 -96t-90 -41q-41 0 -66.5 25.5t-25.5 66.5z" />
<glyph unicode="/" horiz-adv-x="856" d="M-53 -221l1034 1691h100l-1034 -1691h-100z" />
<glyph unicode="0" d="M82 377q0 63 9 134t24 148q31 162 74.5 290t107 216t148.5 134.5t198 46.5q172 0 250 -103.5t78 -298.5q0 -125 -31 -285q-31 -164 -75 -290.5t-107.5 -216t-150.5 -135.5t-204 -46q-90 0 -150 28t-99 80t-55.5 128t-16.5 170zM201 367q0 -137 48 -217t167 -80 q86 0 151.5 44t112.5 122.5t81 187t58 235.5q16 80 25.5 154t9.5 139q0 66 -11.5 120t-37 93t-66.5 60.5t-102 21.5q-90 0 -155.5 -46t-112.5 -126t-79 -186.5t-57 -229.5q-16 -82 -24 -155.5t-8 -136.5z" />
<glyph unicode="1" d="M86 0l20 111h279l213 1091h-242l15 74l381 78l-242 -1243h287l-21 -111h-690z" />
<glyph unicode="2" d="M39 0v94l383 352q82 74 155.5 154t130 158t89 152.5t32.5 140.5q0 86 -51 138t-153 52q-66 0 -137.5 -18.5t-163.5 -65.5l-37 90q92 47 177 73t175 26q68 0 126 -16.5t101 -48.5t67.5 -82t24.5 -118q0 -84 -37.5 -174t-101 -181t-146.5 -180t-173 -171l-281 -258l2 -6 h570l-21 -111h-731z" />
<glyph unicode="3" d="M10 74l56 82q59 -39 129.5 -61.5t148.5 -22.5q88 0 161 24.5t125 70.5t80.5 113.5t28.5 151.5q0 45 -15 90t-57 83t-117 62.5t-192 26.5l29 148l447 372h-555l20 111h694l-24 -133l-475 -399q98 -6 167.5 -37t115.5 -78t67.5 -106.5t21.5 -122.5q0 -111 -40 -200 t-109.5 -151.5t-163 -95.5t-197.5 -33q-123 0 -208 29t-138 76z" />
<glyph unicode="4" d="M27 297l20 104l784 932h121l-180 -927h174l-20 -109h-174l-58 -297h-127l58 297h-598zM180 406h465l137 704h-8z" />
<glyph unicode="5" d="M29 70l57 84q57 -39 120.5 -59.5t141.5 -20.5q82 0 153.5 29.5t124 82t82 123t29.5 150.5q0 117 -65.5 184.5t-190.5 67.5q-55 0 -104 -9.5t-98 -25.5l-62 37l162 612h602l-20 -113h-492l-113 -421q47 16 82 23t88 7q72 0 134.5 -21.5t108.5 -64.5t72.5 -108.5 t26.5 -151.5q0 -123 -43 -217t-114.5 -157.5t-164 -95.5t-188.5 -32q-121 0 -193.5 23.5t-135.5 73.5z" />
<glyph unicode="6" d="M78 387q0 180 48 354t140 310.5t228.5 219.5t314.5 83q39 0 77 -4t62 -9l-24 -96q-18 4 -48 6t-57 2q-121 0 -219 -48t-173 -128t-125 -185.5t-75 -221.5l236 98q39 16 77 24.5t81 8.5q125 0 206.5 -76t81.5 -223q0 -123 -39 -222.5t-105.5 -168t-153.5 -105.5t-183 -37 q-92 0 -158.5 30t-109.5 85t-62.5 132t-19.5 171zM188 383q0 -59 15.5 -115.5t46.5 -99.5t77 -69.5t107 -26.5q78 0 142.5 33.5t110.5 90t70.5 132t24.5 159.5q0 33 -8 68t-31.5 63.5t-66.5 48t-111 19.5q-23 0 -63.5 -9t-91 -26.5t-103.5 -41t-98 -52.5q-14 -63 -17.5 -106 t-3.5 -68z" />
<glyph unicode="7" d="M172 0l711 1212h-578l21 115h702l-20 -115l-705 -1212h-131z" />
<glyph unicode="8" d="M63 268q0 88 34 159t89.5 123t127 88t149.5 56q-41 18 -78 45t-64.5 63t-45 80t-17.5 99q0 74 32 140.5t87 116.5t132 79t167 29q80 0 135 -21.5t91 -56.5t51.5 -82t15.5 -99q0 -82 -31 -145t-78 -110.5t-104.5 -80t-110.5 -53.5q51 -16 95 -42.5t78 -66.5t53.5 -90 t19.5 -112q0 -72 -26.5 -146.5t-83 -134t-144.5 -97.5t-213 -38q-178 0 -269.5 81t-91.5 216zM184 283q0 -106 71 -159.5t175 -53.5q68 0 129.5 21.5t107.5 62.5t73.5 99t27.5 132q0 51 -19.5 91t-51 71t-74.5 53.5t-88 38.5q-61 -16 -124 -46t-113 -73t-82 -102.5 t-32 -134.5zM379 983q0 -45 16.5 -81t43 -64.5t59 -51t65.5 -41.5q51 23 101.5 51.5t90.5 66.5t65.5 91.5t25.5 124.5q0 78 -48 123t-134 45q-49 0 -100.5 -18.5t-92.5 -52t-66.5 -83t-25.5 -110.5z" />
<glyph unicode="9" d="M94 -18l25 96q18 -4 48 -6t56 -2q121 0 219.5 47t173 127t125 186.5t74.5 222.5l-235 -98q-39 -16 -77 -24.5t-81 -8.5q-125 0 -207 76t-82 223q0 123 39 222.5t105.5 168t153.5 105.5t183 37q92 0 159 -30t110 -85t62.5 -132t19.5 -171q0 -180 -48.5 -354t-140.5 -310.5 t-228 -219.5t-315 -83q-39 0 -76.5 4t-62.5 9zM260 836q0 -33 8 -68t32 -64.5t66.5 -48t110.5 -18.5q23 0 64 9t91 25.5t103 41t99 53.5q14 63 17 106t3 68q0 59 -15.5 115.5t-46 99.5t-76.5 69.5t-108 26.5q-78 0 -142.5 -33.5t-110.5 -90t-70.5 -132t-24.5 -159.5z" />
<glyph unicode=":" horiz-adv-x="552" d="M100 78q0 55 41 95t95 40q41 0 64.5 -24.5t23.5 -65.5q0 -55 -42.5 -96t-91.5 -41q-41 0 -65.5 25.5t-24.5 66.5zM250 844q0 55 41 95t92 40q41 0 65.5 -25.5t24.5 -64.5q0 -55 -42 -96t-91 -41q-41 0 -65.5 25.5t-24.5 66.5z" />
<glyph unicode=";" horiz-adv-x="552" d="M20 -213l127 389h189l-238 -418zM268 844q0 55 41 95t92 40q41 0 66 -25.5t25 -64.5q0 -55 -42.5 -96t-91.5 -41q-41 0 -65.5 25.5t-24.5 66.5z" />
<glyph unicode="&#x3c;" d="M6 469l19 96l915 414l27 -96l-813 -363l-2 -10l669 -363l-61 -86z" />
<glyph unicode="=" d="M-4 276l18 99h889l-18 -99h-889zM72 668l18 98h889l-18 -98h-889z" />
<glyph unicode="&#x3e;" d="M8 160l809 362l2 10l-669 363l59 84l756 -414l-19 -96l-913 -408z" />
<glyph unicode="?" horiz-adv-x="819" d="M182 72q0 55 42 95t93 40q41 0 65 -24.5t24 -65.5q0 -55 -41.5 -96t-90.5 -41q-41 0 -66.5 25.5t-25.5 66.5zM258 1358q59 29 137 51.5t176 22.5q135 0 210 -71t75 -200q0 -104 -45 -205.5t-141 -167.5q-74 -49 -120 -82.5t-72.5 -65.5t-41 -67.5t-22.5 -89.5l-17 -94 h-112l24 141q12 74 39 122t65 84t85 65.5t100 66.5q68 47 99.5 125t31.5 144q0 92 -40 141t-136 49q-66 0 -133.5 -18.5t-122.5 -44.5z" />
<glyph unicode="@" horiz-adv-x="1871" d="M166 340q0 209 75.5 400.5t209 338t317.5 234.5t399 88q141 0 255 -44t194 -123t122 -189.5t42 -241.5q0 -176 -41 -307t-106.5 -219.5t-148.5 -132.5t-167 -44q-66 0 -120 35t-83 96l-156 -96q-31 -18 -75.5 -31.5t-73.5 -13.5q-63 0 -103 22.5t-64 61.5t-32 90t-8 107 q0 125 26.5 239.5t78 201.5t126.5 139.5t173 52.5q29 0 61.5 -12.5t52.5 -28.5l86 -72l47 88h74l-119 -614q-2 -10 -3 -20.5t-1 -20.5q0 -53 30 -91t95 -38q94 0 159.5 59t106.5 148.5t59.5 193.5t18.5 195q0 113 -34.5 208t-102.5 164.5t-167 107.5t-228 38 q-160 0 -316.5 -72t-280.5 -201t-201 -308t-77 -396q0 -123 36 -224.5t106.5 -174t174 -112.5t240.5 -40q90 0 185.5 18.5t185.5 61.5l37 -76q-104 -53 -210 -74.5t-216 -21.5q-154 0 -272.5 48t-199.5 134t-124 206t-43 263zM713 371q0 -74 26.5 -128.5t104.5 -54.5 q31 0 64.5 11.5t66.5 29t63.5 38t55.5 40.5l96 494q-35 37 -88 71.5t-103 34.5q-63 0 -116.5 -42t-91 -114.5t-58 -170t-20.5 -209.5z" />
<glyph unicode="A" d="M-70 0l670 1401h141l136 -1401h-127l-39 428h-447l-192 -428h-142zM317 541h385l-38 438l-17 262h-6l-121 -270z" />
<glyph unicode="B" horiz-adv-x="987" d="M43 0l270 1401h375q141 0 230.5 -67.5t89.5 -215.5q0 -129 -64.5 -225t-189.5 -150v-6q172 -84 172 -276q0 -96 -34 -180t-91.5 -146.5t-135 -98.5t-163.5 -36h-459zM186 113h267q72 0 134 21.5t109 64.5t75 108.5t28 153.5q0 115 -79 167t-196 52h-227zM317 788h220 q61 0 121.5 19.5t108.5 59.5t77.5 97.5t29.5 135.5q0 57 -22.5 94t-57 58.5t-75.5 29.5t-80 8h-223z" />
<glyph unicode="C" horiz-adv-x="907" d="M113 410q0 70 8 145.5t22 159.5q25 143 68 273t110.5 228.5t164 157t229.5 58.5q109 0 180.5 -24t118.5 -52l-49 -88q-47 27 -119 43t-137 16q-90 0 -160 -46t-122 -127t-89 -188.5t-62 -230.5q-34 -181 -34 -306v-7q0 -174 54 -260t177 -86q80 0 160 24.5t145 65.5 l49 -86q-66 -45 -156.5 -77t-207.5 -32q-98 0 -166 31t-109 88t-58 138t-17 182z" />
<glyph unicode="D" horiz-adv-x="1075" d="M47 0l272 1403h277q88 0 171 -13.5t148.5 -57.5t105.5 -130t40 -231q0 -53 -6 -118t-21 -138q-33 -182 -83 -316.5t-128 -223.5t-187.5 -132t-262.5 -43h-326zM190 115h197q113 0 198 34.5t147.5 108.5t105.5 186.5t73 268.5q14 72 20.5 131t6.5 108q0 100 -24.5 166 t-70.5 104t-110.5 52t-144.5 14h-168z" />
<glyph unicode="E" horiz-adv-x="872" d="M47 0l272 1403h658l-23 -113h-534l-98 -502h489l-20 -108h-490l-111 -567h582l-20 -113h-705z" />
<glyph unicode="F" horiz-adv-x="827" d="M45 0l268 1403h672l-22 -113h-545l-99 -502h480l-21 -108h-481l-131 -680h-121z" />
<glyph unicode="G" horiz-adv-x="1036" d="M123 410q0 70 8 145.5t23 159.5q25 143 73.5 273t123.5 228.5t176.5 157t234.5 58.5q109 0 180.5 -24t118.5 -52l-49 -88q-47 27 -119 43t-137 16q-90 0 -166 -46t-135.5 -127t-101.5 -188.5t-66 -230.5q-35 -186 -35 -313q0 -174 62.5 -260t179.5 -86q92 0 149 18.5 t98 36.5l90 473l-120 17l16 88h252l-125 -639q-90 -55 -178 -77t-193 -22q-98 0 -166.5 31t-111.5 88t-62.5 138t-19.5 182z" />
<glyph unicode="H" horiz-adv-x="1062" d="M49 0l273 1403h127l-121 -619h587l121 619h127l-272 -1403h-127l131 676h-588l-131 -676h-127z" />
<glyph unicode="I" horiz-adv-x="444" d="M80 0l270 1401h123l-270 -1401h-123z" />
<glyph unicode="J" horiz-adv-x="595" d="M-53 2l28 98q35 -4 63 -7t52 -3q84 0 131 37t70 147l196 1014l-149 17l18 96h275l-213 -1102q-12 -61 -30.5 -118.5t-54.5 -101.5t-91.5 -71.5t-141.5 -27.5q-31 0 -68.5 5t-84.5 17z" />
<glyph unicode="K" horiz-adv-x="946" d="M43 0l270 1401h127l-121 -643h5l641 643h153l-676 -672l398 -729h-146l-383 719h-4l-137 -719h-127z" />
<glyph unicode="L" horiz-adv-x="827" d="M51 0l273 1403h122l-251 -1290h559l-21 -113h-682z" />
<glyph unicode="M" horiz-adv-x="1263" d="M37 0l272 1403h166l129 -647l41 -232h6l131 230l381 649h176l-272 -1403h-117l234 1206h-15l-120 -217l-385 -645h-91l-139 653l-35 209h-12l-233 -1206h-117z" />
<glyph unicode="N" horiz-adv-x="1042" d="M33 0l272 1403h160l244 -942l53 -225h12l227 1167h117l-272 -1403h-141l-246 926l-68 282h-10l-234 -1208h-114z" />
<glyph unicode="O" horiz-adv-x="1036" d="M98 389q0 133 35 313q33 172 83 308.5t121 229.5t163 142.5t213 49.5q180 0 261 -106.5t81 -305.5q0 -70 -10.5 -148.5t-26.5 -169.5q-35 -172 -81 -308t-113.5 -230t-161 -143.5t-218.5 -49.5q-184 0 -265 108.5t-81 309.5zM225 389q0 -143 51.5 -228t178.5 -85 q94 0 163.5 47t121 131t87 198.5t62.5 249.5q16 88 26.5 168t10.5 150q0 139 -50.5 223t-179.5 84q-96 0 -166.5 -49t-122 -133t-87 -199t-60.5 -244q-16 -86 -25.5 -164.5t-9.5 -148.5z" />
<glyph unicode="P" horiz-adv-x="935" d="M47 0l272 1403h306q53 0 117.5 -12.5t120 -46t93 -92t37.5 -150.5q0 -154 -48 -250t-122.5 -151.5t-164 -75t-171.5 -19.5h-198l-117 -606h-125zM311 717h174q55 0 120 13t122 53t95 111t38 187q0 66 -28.5 107t-69.5 63.5t-86 30.5t-80 8h-174z" />
<glyph unicode="Q" horiz-adv-x="1009" d="M72 389q0 133 34 313q33 172 83.5 308.5t121 229.5t162.5 142.5t213 49.5q180 0 261 -106.5t81 -305.5q0 -70 -10 -148.5t-27 -169.5q-31 -156 -71.5 -281.5t-98 -217.5t-134.5 -148.5t-177 -74.5l104 -99l43 -213h-149l-53 305q-10 -2 -18.5 -2h-18.5q-184 0 -265 108.5 t-81 309.5zM199 389q0 -143 51 -228t178 -85q94 0 164 47t121 131t87 198.5t62 249.5q16 88 26.5 168t10.5 150q0 139 -50 223t-179 84q-96 0 -167 -49t-122 -133t-87 -199t-61 -244q-16 -86 -25 -164.5t-9 -148.5z" />
<glyph unicode="R" horiz-adv-x="923" d="M31 0l272 1403h313q166 0 261.5 -74t95.5 -237q0 -186 -94.5 -306t-280.5 -157l92 -92l113 -537h-127l-125 621h-277l-118 -621h-125zM297 729h182q74 0 140.5 21.5t116.5 64.5t79 108.5t29 155.5q0 66 -25.5 107t-64.5 64.5t-87.5 31.5t-91.5 8h-169z" />
<glyph unicode="S" horiz-adv-x="995" d="M70 18l34 105q72 -27 145 -36t113 -9q70 0 140.5 17.5t128 58.5t94.5 109.5t37 170.5q0 57 -20.5 98t-54.5 71t-76 48.5t-85 34.5q-55 20 -111.5 44t-101.5 58.5t-72.5 86t-27.5 129.5q0 115 44 196.5t114.5 132.5t160 75t179.5 24q66 0 138.5 -14.5t119.5 -33.5 l-31 -104q-51 20 -118.5 31.5t-106.5 11.5q-57 0 -122 -13.5t-119 -47t-90 -92t-36 -150.5q0 -55 26.5 -91t68.5 -61.5t91.5 -44t96.5 -37.5q53 -20 101 -46.5t84 -64.5t57.5 -93.5t21.5 -135.5q0 -127 -42 -216t-113.5 -147t-166 -85t-198.5 -27q-39 0 -82 4.5t-84 10.5 t-77 14t-60 18z" />
<glyph unicode="T" horiz-adv-x="858" d="M201 1290l22 113h797l-23 -113h-338l-249 -1290h-127l249 1290h-331z" />
<glyph unicode="U" horiz-adv-x="1085" d="M92 287q0 53 12 114l193 1000h123l-197 -1028q-8 -41 -8 -86q0 -98 56.5 -154.5t183.5 -56.5q147 0 244.5 70.5t125.5 224.5l199 1030h123l-197 -1020q-39 -201 -158 -305.5t-346 -104.5q-186 0 -270 88t-84 228z" />
<glyph unicode="V" horiz-adv-x="917" d="M207 1401h121l53 -856l20 -393h11l170 389l385 860h127l-629 -1399h-164z" />
<glyph unicode="W" horiz-adv-x="1378" d="M213 1399h127l-4 -899l-6 -361h6q35 92 69.5 184.5t69.5 182.5l336 893h127l8 -893v-367h6q33 90 69 181.5t66 181.5l334 897h127l-538 -1399h-162l-21 848l2 272h-4l-102 -276l-336 -844h-162z" />
<glyph unicode="X" horiz-adv-x="944" d="M-51 0l514 731q-55 164 -109.5 335t-107.5 335h127l121 -385l55 -189h2q31 43 63.5 92.5t65.5 96.5q68 96 137.5 194.5t132.5 190.5h135l-475 -662q57 -180 119 -369.5t121 -369.5h-129l-139 449l-60 194l-129 -199q-78 -111 -154.5 -225.5t-152.5 -218.5h-137z" />
<glyph unicode="Y" horiz-adv-x="882" d="M166 1401h131l104 -397l66 -271h6l199 283l243 385h146l-549 -803l-115 -598h-127l115 594z" />
<glyph unicode="Z" horiz-adv-x="856" d="M-43 0l20 113l854 1177h-573l23 113h704l-22 -113l-852 -1177h649l-21 -113h-782z" />
<glyph unicode="[" horiz-adv-x="704" d="M119 -391l358 1841h326l-19 -96h-213l-319 -1647h213l-19 -98h-327z" />
<glyph unicode="\" horiz-adv-x="856" d="M274 1470h101l379 -1691h-101z" />
<glyph unicode="]" horiz-adv-x="704" d="M-8 -389l18 96h213l320 1647h-213l18 96h326l-359 -1839h-323z" />
<glyph unicode="^" horiz-adv-x="970" d="M72 623l563 804h96l256 -804h-106l-213 667h-11l-464 -667h-121z" />
<glyph unicode="_" horiz-adv-x="962" d="M-139 -246l18 92h981l-18 -92h-981z" />
<glyph unicode="`" horiz-adv-x="847" d="M459 1462l114 33l136 -369l-60 -18z" />
<glyph unicode="a" horiz-adv-x="882" d="M63 289q0 143 31 273t89.5 230.5t144 160t196.5 59.5q35 0 72 -13.5t59 -33.5l99 -82l55 100h84l-193 -983h-88l-16 94l-125 -76q-51 -27 -88 -38t-70 -11q-74 0 -122 24.5t-76.5 67.5t-40 101.5t-11.5 126.5zM190 287q0 -41 6.5 -79t24 -66.5t46 -45t73.5 -16.5 q37 0 75 12t74.5 31.5t71.5 44.5t64 47l110 565q-18 20 -44.5 42t-55.5 39.5t-59.5 28.5t-57.5 11q-74 0 -134 -48t-103 -131t-67 -194.5t-24 -240.5z" />
<glyph unicode="b" horiz-adv-x="886" d="M12 0l273 1411l127 39l-107 -551q102 68 181 91.5t128 23.5q68 0 112 -20.5t69.5 -57.5t37 -88t11.5 -111q0 -150 -30 -288t-87 -244.5t-142 -170t-196 -63.5q-31 0 -73 11.5t-87 46.5l-84 63l-49 -92h-84zM170 193q39 -41 96.5 -80t126.5 -39q80 0 140.5 60.5 t101.5 152.5t61.5 201.5t20.5 205.5q0 41 -7.5 80t-23.5 68.5t-46 48t-75 18.5q-72 0 -145.5 -35.5t-132.5 -70.5z" />
<glyph unicode="c" horiz-adv-x="768" d="M76 342q0 160 38 284t102.5 210t152.5 131t188 45q82 0 153.5 -16.5t125.5 -45.5l-29 -82q-47 16 -107.5 28.5t-130.5 12.5q-94 0 -163.5 -49t-115.5 -131t-68.5 -186.5t-22.5 -214.5q0 -51 13 -97.5t41 -81t73 -55t110 -20.5q72 0 137.5 15t124.5 36l25 -86 q-63 -29 -140.5 -48.5t-183.5 -19.5q-147 0 -235 96.5t-88 274.5z" />
<glyph unicode="d" horiz-adv-x="921" d="M76 289q0 143 30.5 273t89 230.5t144.5 160t197 59.5q33 0 90 -15.5t147 -78.5l96 493l125 39l-282 -1450h-88l-17 94l-125 -76q-51 -27 -88 -38t-69 -11q-74 0 -122 24.5t-77 67.5t-40 101.5t-11 126.5zM203 287q0 -41 6 -79t23.5 -66.5t46 -45t73.5 -16.5q37 0 75 12 t75 31.5t71.5 44.5t63.5 47l119 606q-47 33 -102.5 58.5t-110.5 25.5q-74 0 -135.5 -48t-107.5 -132t-71.5 -196.5t-25.5 -241.5z" />
<glyph unicode="e" horiz-adv-x="868" d="M78 295q0 68 9 147.5t31.5 158.5t59.5 153.5t94.5 131t135.5 91.5t182 35q123 0 200.5 -63.5t77.5 -172.5q0 -84 -35.5 -143.5t-94 -100t-131 -66.5t-145.5 -39t-140.5 -18.5t-112.5 -5.5q-4 -35 -5 -56t-1 -38q0 -47 9 -89t34.5 -75.5t73 -53t122.5 -19.5q57 0 127 10 t136 33l24 -82q-68 -29 -149.5 -45.5t-163.5 -16.5q-100 0 -166 26t-103.5 69t-53 102t-15.5 127zM219 494q35 0 87 4t111.5 14t119 28.5t106.5 48t77 70.5t30 99q0 68 -49.5 110.5t-133.5 42.5q-86 0 -146.5 -44t-101 -107.5t-64.5 -136t-36 -129.5z" />
<glyph unicode="f" horiz-adv-x="557" d="M-8 -426l254 1309h-137l12 61l147 39l37 195q27 139 91.5 209.5t187.5 70.5q39 0 90 -6t96 -29l-27 -86q-31 6 -73.5 10.5t-73.5 4.5q-80 0 -117 -43t-53 -127l-39 -201h244l-21 -98h-243l-246 -1268z" />
<glyph unicode="g" horiz-adv-x="931" d="M-4 -369q10 27 18.5 46.5t16.5 41.5q47 -20 129 -39.5t180 -19.5q119 0 170 58.5t70 156.5l36 197q-102 -68 -184 -91.5t-131 -23.5q-68 0 -112 20.5t-69.5 57.5t-36.5 88t-11 110q0 150 29.5 288t87 244.5t142.5 170t195 63.5q31 0 72 -12t88 -45l90 -63l49 92h84 l-219 -1141q-29 -145 -126 -209.5t-238 -64.5q-170 0 -330 75zM199 276q0 -41 7 -79.5t23.5 -68.5t46 -48.5t74.5 -18.5q37 0 74 10.5t74 26t71.5 34t65.5 36.5l117 610q-39 41 -99.5 80t-130.5 39q-80 0 -140 -60.5t-101 -152.5t-61.5 -201.5t-20.5 -206.5z" />
<glyph unicode="h" horiz-adv-x="913" d="M33 0l272 1411l125 39l-108 -563l153 76q96 47 160 47q70 0 115 -17.5t71.5 -48.5t37.5 -72t11 -86q0 -61 -16 -137l-125 -649h-119l125 647q4 27 7 51.5t3 49.5q0 66 -32.5 110.5t-124.5 44.5q-35 0 -75 -12t-78 -30.5t-72.5 -39t-59.5 -37.5l-151 -784h-119z" />
<glyph unicode="i" horiz-adv-x="444" d="M96 0l170 885l-102 28l14 68h228l-191 -981h-119zM311 1339q0 45 32 76t73 31q35 0 54 -20.5t19 -51.5q0 -43 -34.5 -73.5t-73.5 -30.5q-31 0 -50.5 19.5t-19.5 49.5z" />
<glyph unicode="j" horiz-adv-x="423" d="M-115 -399q51 37 84 75.5t52.5 74.5t29.5 66.5t15 55.5l196 1012l-106 30l14 66h231l-204 -1051q-8 -43 -23.5 -94t-45.5 -103t-79 -102.5t-123 -93.5zM309 1343q0 43 35 73t74 30q31 0 50 -18.5t19 -49.5q0 -41 -31.5 -73.5t-72.5 -32.5q-33 0 -53.5 20.5t-20.5 50.5z " />
<glyph unicode="k" horiz-adv-x="804" d="M31 0l274 1411l125 39l-172 -881l467 414h156l-504 -446l325 -537h-141l-313 526l-101 -526h-116z" />
<glyph unicode="l" horiz-adv-x="378" d="M51 0l273 1411l125 39l-281 -1450h-117z" />
<glyph unicode="m" horiz-adv-x="1396" d="M31 0l190 983h84l14 -96l127 63q55 29 106.5 44.5t88.5 15.5q96 0 135 -39t53 -103l148 84q45 27 89 42.5t81 15.5q207 0 207 -201q0 -59 -15 -129l-131 -680h-118l127 655q12 55 12 107q0 61 -27.5 101t-103.5 40q-35 0 -71 -12t-71.5 -31.5t-69.5 -42t-61 -43.5 l-149 -774h-119l127 655q8 37 13 72t5 66q0 49 -23.5 79.5t-88.5 30.5q-33 0 -71 -11t-77 -27.5t-75.5 -38t-65.5 -42.5l-151 -784h-119z" />
<glyph unicode="n" horiz-adv-x="911" d="M31 0l190 983h84l14 -96l154 76q96 47 160 47q70 0 115 -17.5t71.5 -48.5t37.5 -72t11 -86q0 -61 -16 -137l-125 -649h-119l125 647q4 27 7 51.5t3 49.5q0 66 -32.5 110.5t-124.5 44.5q-35 0 -75 -12t-78 -30.5t-72.5 -39t-59.5 -37.5l-151 -784h-119z" />
<glyph unicode="o" horiz-adv-x="915" d="M72 305q0 141 31.5 269t94 225.5t153.5 155t210 57.5q164 0 234.5 -93.5t70.5 -250.5q0 -139 -30.5 -266.5t-93 -222.5t-154.5 -151.5t-215 -56.5q-158 0 -229.5 91.5t-71.5 242.5zM190 307q0 -104 44.5 -168.5t152.5 -64.5q72 0 129 31.5t100 88t72 133t47 167.5 q10 43 13.5 85t3.5 83q0 51 -11.5 96t-35 78.5t-62.5 53t-94 19.5q-98 0 -167 -59t-111 -148.5t-61.5 -195t-19.5 -199.5z" />
<glyph unicode="p" horiz-adv-x="903" d="M-53 -428l276 1411h88l17 -94l125 76q51 27 88 38t69 11q74 0 122 -24.5t77 -67.5t40 -101.5t11 -126.5q0 -143 -30.5 -274t-89 -230.5t-144.5 -159t-197 -59.5q-16 0 -38.5 3t-51 12.5t-65.5 28t-82 51.5l-90 -455zM180 162q47 -33 102.5 -58.5t110.5 -25.5 q74 0 135.5 48t107.5 132t71.5 196.5t25.5 241.5q0 41 -7 79t-23.5 66.5t-45 45t-73.5 16.5q-37 0 -75 -12t-75 -31.5t-71.5 -44t-63.5 -47.5z" />
<glyph unicode="q" horiz-adv-x="882" d="M61 246q0 150 30 288t87.5 244.5t142 170t195.5 63.5q31 0 73 -11.5t87 -46.5l84 -63l49 92h84l-266 -1374l-127 -39l100 514q-102 -68 -181 -91.5t-128 -23.5q-68 0 -112 20.5t-69.5 57.5t-37 88t-11.5 111zM188 289q0 -41 7.5 -80t24 -68.5t46 -48t74.5 -18.5 q72 0 145.5 35.5t132.5 70.5l117 611q-39 41 -96 79.5t-127 38.5q-80 0 -140.5 -60.5t-101.5 -152.5t-61.5 -201.5t-20.5 -205.5z" />
<glyph unicode="r" horiz-adv-x="585" d="M47 0l191 985h84l10 -127q102 78 191 115t179 47l-8 -158q-59 -6 -109 -12t-95.5 -13.5t-86.5 -17.5t-84 -22l-153 -797h-119z" />
<glyph unicode="s" horiz-adv-x="675" d="M-25 18l33 99q106 -45 213 -45q57 0 106.5 11t86.5 37.5t57.5 71t20.5 111.5q0 78 -49.5 118t-135.5 66q-31 8 -65.5 22.5t-62 39t-46 61.5t-18.5 95q0 84 31.5 143t80.5 96t109.5 54.5t120.5 17.5q72 0 129 -13.5t92 -27.5l-29 -96q-41 16 -91 24t-89 8q-49 0 -92 -11 t-75 -34.5t-51.5 -61.5t-19.5 -89q0 -31 12.5 -52.5t31 -37t43 -24.5t49.5 -17q35 -10 77.5 -27.5t79.5 -47.5t62.5 -78t25.5 -120q0 -90 -30.5 -154.5t-84 -105.5t-123 -60.5t-149.5 -19.5q-72 0 -138.5 12.5t-111.5 34.5z" />
<glyph unicode="t" horiz-adv-x="604" d="M109 883l12 57l178 43l90 260h82l-49 -262h252l-21 -98h-252l-118 -617q-4 -29 -8.5 -52.5t-4.5 -45.5q0 -47 22.5 -70.5t82.5 -23.5q35 0 77 4t80 12l15 -80q-53 -23 -116.5 -31t-108.5 -8q-106 0 -143.5 42t-37.5 110q0 49 13 108l127 652h-172z" />
<glyph unicode="u" horiz-adv-x="919" d="M82 197q0 61 16 137l125 649h119l-125 -647q-4 -27 -7 -51.5t-3 -48.5q0 -66 32.5 -111t125.5 -45q35 0 74.5 12t77.5 30.5t73 39t59 37.5l152 784h119l-191 -983h-84l-14 96l-154 -76q-96 -47 -160 -47q-70 0 -114.5 17.5t-71.5 48.5t-38 71t-11 87z" />
<glyph unicode="v" horiz-adv-x="813" d="M119 985h121l122 -819h5q104 201 207.5 408.5t205.5 410.5h133l-524 -985h-110z" />
<glyph unicode="w" horiz-adv-x="1189" d="M129 983h115l30 -811h5l362 811h115l28 -811h4l365 811h123l-469 -983h-119l-31 778l-350 -778h-119z" />
<glyph unicode="x" horiz-adv-x="794" d="M-72 0l430 502l-194 481h131l139 -379l299 379h150l-391 -463l215 -520h-136l-157 410l-336 -410h-150z" />
<glyph unicode="y" horiz-adv-x="792" d="M47 -410l240 473l-70 91l-82 829h123l72 -833h6l418 833h125l-711 -1393h-121z" />
<glyph unicode="z" horiz-adv-x="735" d="M-51 0l16 94l678 776v4h-483l20 109h627l-21 -100l-661 -770l4 -4h508l-21 -109h-667z" />
<glyph unicode="{" horiz-adv-x="819" d="M201 465l16 92h8q86 0 131 52.5t66 154.5l78 405q33 170 130 234.5t249 64.5h32l-18 -94h-39q-106 0 -159.5 -50t-73.5 -153l-80 -405q-10 -55 -24.5 -97t-35 -72t-50.5 -51.5t-73 -37.5q96 -27 97 -148q0 -45 -13 -102l-71 -371q-8 -39 -9 -73q0 -72 41 -102.5 t134 -30.5h26l-18 -95h-33q-59 0 -108.5 10.5t-84 35t-55 66.5t-20.5 103q0 20 2 42t6 46l72 371q4 25 7 45.5t3 38.5q0 121 -127 121h-6z" />
<glyph unicode="|" horiz-adv-x="569" d="M231 -512v2048h107v-2048h-107z" />
<glyph unicode="}" horiz-adv-x="819" d="M35 -414l12 95h27q113 0 169 47t79 159l71 371q23 111 65 171t117 79q-53 23 -74.5 56.5t-21.5 90.5q0 45 13 111l79 405q8 35 9 70q0 66 -39 99.5t-125 33.5h-39l14 94h33q129 0 201.5 -45t72.5 -159q0 -23 -3 -45.5t-7 -49.5l-78 -405q-8 -41 -8 -82q0 -61 28.5 -93 t94.5 -32h8l-16 -92h-6q-86 0 -132.5 -50t-66.5 -155l-72 -371q-16 -88 -49 -146t-80 -93t-108.5 -49.5t-134.5 -14.5h-33z" />
<glyph unicode="~" d="M14 487q72 74 148 109t168 35q51 0 95 -16.5t86 -36t86 -36t93 -16.5q57 0 106.5 27t96.5 74l65 -88q-66 -63 -142.5 -101.5t-141.5 -38.5q-55 0 -102.5 16.5t-93.5 35t-92 35t-101 16.5q-41 0 -98.5 -29t-104.5 -78z" />
<glyph unicode="&#xa1;" horiz-adv-x="628" d="M139 -418l238 1012h78l-154 -1012h-162zM360 864q0 55 41.5 96t90.5 41q41 0 66.5 -25.5t25.5 -66.5q0 -55 -42 -95t-93 -40q-41 0 -65 24.5t-24 65.5z" />
<glyph unicode="&#xa2;" d="M147 342q0 158 37 282t101.5 210t150.5 131t187 47l43 223h69l-43 -225q131 -12 215 -60l-28 -82q-47 16 -107.5 28.5t-130.5 12.5q-94 0 -163.5 -49t-116 -131t-69 -186.5t-22.5 -214.5q0 -51 9.5 -97.5t33 -81t63.5 -55t101 -20.5q72 0 137.5 15t124.5 36l25 -86 q-55 -27 -122 -44.5t-153 -21.5l-43 -227h-69l43 225q-137 8 -205 103.5t-68 267.5z" />
<glyph unicode="&#xa3;" d="M41 0l18 102h91q82 115 125.5 241t43.5 263v20.5t-2 20.5h-149l18 98h129q-2 31 -3 57.5t-1 51.5q0 109 31 199t89 155.5t141 101.5t186 36q63 0 134 -14.5t118 -37.5l-29 -92q-55 16 -115.5 25.5t-101.5 9.5q-80 0 -142.5 -28.5t-106.5 -78t-66.5 -117t-22.5 -145.5 q0 -23 1 -51.5t1 -71.5h350l-18 -98h-328q2 -10 2 -22.5v-22.5q0 -154 -46 -287t-122 -213h574l-19 -102h-780z" />
<glyph unicode="&#xa4;" horiz-adv-x="1011" d="M94 182l119 117q-74 100 -74 215q0 53 18.5 109.5t53.5 103.5l-117 115l74 73l115 -112q53 33 106 52t111 19q119 0 213 -63l112 104l72 -69l-109 -109q33 -51 51.5 -104t18.5 -109q0 -59 -18.5 -114.5t-53.5 -106.5l113 -115l-72 -71l-116 119q-51 -35 -105.5 -53.5 t-105.5 -18.5q-59 0 -112.5 17.5t-106.5 51.5l-119 -118zM252 514q0 -51 19.5 -96t53 -78t79 -51.5t96.5 -18.5t96 20.5t79 55.5t53.5 81t19.5 97t-19.5 94.5t-53.5 76t-79 51t-96 18.5t-96.5 -19.5t-79 -53.5t-53 -80t-19.5 -97z" />
<glyph unicode="&#xa5;" d="M76 426l16 90h807l-16 -90h-342l-82 -426h-127l82 426h-338zM111 602l16 92h264l-174 652h127l102 -398l72 -276h6l195 289l254 385h139l-446 -652h268l-16 -92h-807z" />
<glyph unicode="&#xa6;" horiz-adv-x="569" d="M231 459h107v-971h-107v971zM231 567v969h107v-969h-107z" />
<glyph unicode="&#xa7;" horiz-adv-x="1005" d="M76 -160l28 92q72 -23 132.5 -32t95.5 -9q70 0 129 11.5t104 37t71 65.5t26 95q0 33 -10.5 59.5t-36 49t-71.5 45t-116 47.5q-45 14 -92 36.5t-87 57.5t-65.5 85t-25.5 120q0 45 19.5 88t50 81t69.5 69.5t80 56.5q-59 39 -77.5 81t-18.5 89q0 76 30.5 140.5t86 111.5 t133.5 73.5t174 26.5q59 0 138 -8t146 -37l-26 -98q-70 23 -134.5 33t-117.5 10q-47 0 -100.5 -13.5t-97.5 -42t-72.5 -73.5t-28.5 -109q0 -31 12 -54.5t38.5 -42.5t69.5 -37.5t107 -37.5q139 -41 215 -107.5t76 -178.5q0 -121 -67.5 -195t-174.5 -113q111 -70 111 -182 q0 -84 -38 -148.5t-100.5 -107.5t-142.5 -64.5t-166 -21.5q-31 0 -67.5 3t-73.5 10.5t-73 16.5t-62 21zM287 592q0 -47 22.5 -82t64.5 -60.5t99 -44t127 -34.5q45 23 83 46t65.5 52t43 63.5t15.5 79.5q0 37 -16.5 66t-54.5 55.5t-100.5 50t-152.5 47.5q-84 -37 -140 -94 t-56 -145z" />
<glyph unicode="&#xa8;" horiz-adv-x="856" d="M362 1245q0 41 31 67.5t66 26.5q29 0 47 -17t18 -44q0 -41 -30.5 -69.5t-67.5 -28.5q-29 0 -46.5 17t-17.5 48zM676 1245q0 41 30.5 67.5t65.5 26.5q29 0 47.5 -17t18.5 -44q0 -41 -31 -69.5t-68 -28.5q-29 0 -46 17t-17 48z" />
<glyph unicode="&#xa9;" horiz-adv-x="1587" d="M78 725q0 162 54 300t149.5 237.5t225.5 156t284 56.5q152 0 280.5 -55.5t224 -156t149.5 -237.5t54 -301t-52 -301t-144.5 -238.5t-220 -158t-279.5 -56.5q-170 0 -304 56.5t-227.5 158t-143.5 238.5t-50 301zM168 725q0 -141 43 -264t124 -213t195.5 -142.5 t260.5 -52.5q137 0 250.5 52.5t195.5 142.5t127 213t45 264q0 139 -45 261t-127 212t-195.5 141.5t-250.5 51.5q-135 0 -250 -51.5t-198 -141.5t-129 -212t-46 -261zM467 715q0 98 17.5 187t57.5 155.5t104.5 106.5t158.5 40q66 0 122 -16.5t97 -36.5q-8 -16 -18.5 -35.5 t-20.5 -36.5q-33 14 -76 26.5t-102 12.5q-61 0 -103 -30.5t-68 -84t-37 -124t-11 -150.5q0 -205 48 -320.5t167 -115.5q53 0 104 18.5t99 42.5q10 -14 21 -31.5t22 -31.5q-41 -31 -104.5 -57.5t-145.5 -26.5q-90 0 -153.5 38t-103.5 105.5t-57.5 160.5t-17.5 204z" />
<glyph unicode="&#xaa;" horiz-adv-x="608" d="M119 707q0 94 20.5 180t60.5 152.5t100 105.5t140 39q23 0 51.5 -10.5t45.5 -24.5l51 -41l35 55h84l-123 -655h-88l-11 49l-51 -29q-45 -27 -74.5 -34t-50.5 -7q-106 0 -148 63.5t-42 156.5zM238 715q0 -47 16.5 -86t69.5 -39q43 0 92 24.5t84 53.5l67 348 q-25 23 -61.5 44t-67.5 21q-45 0 -82 -28.5t-63.5 -77.5t-40.5 -116.5t-14 -143.5z" />
<glyph unicode="&#xab;" horiz-adv-x="931" d="M61 477l5 27l428 448l67 -45l-352 -418l207 -405l-82 -45zM436 477l4 27l428 448l68 -45l-354 -418l209 -405l-82 -45z" />
<glyph unicode="&#xac;" d="M33 471l20 102h887l-100 -516h-99l80 414h-788z" />
<glyph unicode="&#xad;" horiz-adv-x="667" d="M104 451l29 145h469l-29 -145h-469z" />
<glyph unicode="&#xae;" horiz-adv-x="1085" d="M68 946q0 100 35.5 188.5t97 155t146.5 104.5t183 38q102 0 188.5 -38t149 -104.5t97 -154.5t34.5 -189q0 -102 -36.5 -191t-99 -154.5t-149 -103.5t-184.5 -38q-106 0 -191 38t-145.5 103.5t-93 154.5t-32.5 191zM131 946q0 -86 29.5 -162.5t83 -135t127 -92.5 t159.5 -34q82 0 156 34t129 92.5t87 135t32 162.5q0 84 -32 161t-87 135t-129 93t-156 35q-84 0 -157.5 -35t-126.5 -93t-84 -135t-31 -161zM369 647v602h161q182 0 183 -164q0 -59 -28 -106t-99 -76l49 -33l94 -223h-90l-98 256h-101v-256h-71zM440 967h82q111 0 111 118 q0 31 -11.5 50.5t-27.5 31t-35.5 15.5t-36.5 4h-82v-219z" />
<glyph unicode="&#xaf;" horiz-adv-x="897" d="M354 1253l23 107h477l-23 -107h-477z" />
<glyph unicode="&#xb0;" horiz-adv-x="970" d="M240 1139q0 55 20.5 104t54 84t79.5 55.5t98 20.5q117 0 184 -76t67 -188q0 -55 -19 -103.5t-53 -84.5t-80 -56.5t-99 -20.5q-55 0 -102.5 20.5t-80.5 56.5t-51 84t-18 104zM326 1139q0 -74 44 -128.5t122 -54.5t121.5 54.5t43.5 128.5t-43.5 127t-121.5 53 q-74 0 -120 -52.5t-46 -127.5z" />
<glyph unicode="&#xb1;" d="M-27 20l19 93h887l-19 -93h-887zM96 647l19 101h389l82 411h100l-82 -411h397l-18 -101h-397l-80 -414h-100l79 414h-389z" />
<glyph unicode="&#xb2;" horiz-adv-x="663" d="M131 692v76l256 221q51 45 99.5 90t84 90t57 88t21.5 84q0 47 -31.5 76t-95.5 29q-41 0 -91 -10.5t-118 -42.5l-26 82q63 31 124.5 49t133.5 18q96 0 160.5 -42t64.5 -132q0 -53 -25.5 -109.5t-68.5 -111.5t-99.5 -111.5t-115.5 -109.5l-148 -133h359l-19 -101h-522z" />
<glyph unicode="&#xb3;" horiz-adv-x="663" d="M86 758l59 73q41 -23 97.5 -39t103.5 -16q113 0 181.5 59.5t68.5 151.5q0 23 -10.5 46.5t-38 42t-78.5 30.5t-133 14l20 111l269 211h-349l19 98h496l-21 -106l-285 -222q127 -14 178.5 -72.5t51.5 -131.5q0 -74 -30 -134.5t-82 -102.5t-120.5 -65.5t-144.5 -23.5 q-86 0 -147.5 20.5t-104.5 55.5z" />
<glyph unicode="&#xb4;" horiz-adv-x="847" d="M543 1151l196 340l101 -53l-248 -316z" />
<glyph unicode="&#xb6;" horiz-adv-x="911" d="M168 912.5q-12 66.5 2 142.5t52 144.5t91.5 118.5t118 79.5t129.5 29.5h514l-18 -92h-82l-309 -1597h-93l310 1597h-176l-310 -1597h-94l184 952h-69q-66 0 -118 29t-86 78t-46 115.5z" />
<glyph unicode="&#xb7;" horiz-adv-x="552" d="M182 504q0 55 42 95t93 40q41 0 65 -24.5t24 -65.5q0 -55 -41.5 -96t-90.5 -41q-41 0 -66.5 25.5t-25.5 66.5z" />
<glyph unicode="&#xb8;" horiz-adv-x="671" d="M76 -369l30 60q31 -14 62 -20.5t57 -6.5q14 0 36 4t42.5 16.5t33.5 34t13 56.5q0 37 -25.5 50t-48.5 13q-31 0 -63 -16l-39 31l115 180h69l-84 -131h15q43 0 70.5 -11.5t44 -28t23.5 -38t7 -41.5q0 -33 -13 -65.5t-40 -60.5t-67 -45.5t-93 -17.5q-41 0 -79 9.5t-66 27.5z " />
<glyph unicode="&#xb9;" horiz-adv-x="550" d="M92 696l19 101h188l123 630h-164l14 76l289 53l-147 -759h190l-18 -101h-494z" />
<glyph unicode="&#xba;" horiz-adv-x="630" d="M117 717q0 94 21.5 178t63.5 148.5t105.5 102.5t149.5 38q119 0 173 -63.5t54 -172.5q0 -92 -20.5 -175t-61.5 -146.5t-106.5 -100.5t-153.5 -37q-115 0 -170 62.5t-55 165.5zM231 727q0 -61 26 -101t91 -40q53 0 94 28.5t70 78.5t44 115.5t15 139.5q0 57 -26 98t-92 41 q-61 0 -103.5 -34.5t-68 -88t-38 -117t-12.5 -120.5z" />
<glyph unicode="&#xbb;" horiz-adv-x="931" d="M-8 84l368 405l-190 418l84 45l252 -448l-4 -27l-445 -438zM367 84l366 405l-188 418l84 45l252 -448l-4 -27l-445 -438z" />
<glyph unicode="&#xbc;" horiz-adv-x="1474" d="M82 508l18 100h189l123 631h-164l14 76l289 53l-148 -760h191l-19 -100h-493zM360 -70l730 1469h88l-734 -1469h-84zM700 160l17 88l520 573h106l-108 -563h115l-19 -98h-114l-37 -183h-119l37 183h-398zM854 258h262l70 358z" />
<glyph unicode="&#xbd;" horiz-adv-x="1474" d="M35 508l18 100h189l123 631h-164l14 76l289 53l-148 -760h191l-19 -100h-493zM319 -70l730 1469h88l-734 -1469h-84zM760 -23v76l256 223q53 45 100 92.5t83 92.5t57.5 88t21.5 82q0 47 -33 73.5t-94 26.5q-41 0 -91 -10t-118 -41l-27 80q72 33 129.5 51t129.5 18 q96 0 159.5 -43t63.5 -135q0 -53 -27 -108.5t-70 -110.5t-98 -110.5t-112 -108.5l-148 -135h358l-20 -101h-520z" />
<glyph unicode="&#xbe;" horiz-adv-x="1474" d="M51 565l60 74q41 -23 97 -39t103 -16q113 0 181.5 59t68.5 152q0 23 -10 46t-38 41.5t-79 31t-133 14.5l21 110l268 211h-348l18 99h496l-21 -107l-284 -221q127 -14 178 -72.5t51 -132.5t-29.5 -134t-82 -102t-121 -66t-144.5 -24q-86 0 -147.5 20.5t-104.5 55.5z M395 -70l729 1469h88l-733 -1469h-84zM725 160l16 88l521 573h106l-108 -563h114l-18 -98h-115l-37 -183h-119l37 183h-397zM879 258h262l69 358z" />
<glyph unicode="&#xbf;" horiz-adv-x="819" d="M47 -178q0 104 45 205.5t141 167.5q74 49 120 82.5t73 65.5t40 67.5t23 89.5l17 94h112l-24 -141q-12 -74 -39 -122t-64.5 -84t-85 -65.5t-100.5 -66.5q-68 -47 -99.5 -125t-31.5 -144q0 -92 40 -141t136 -49q66 0 133.5 18.5t122.5 44.5l39 -94q-59 -29 -137 -51.5 t-176 -22.5q-135 0 -210 71t-75 200zM498 866q0 55 41 96.5t90 41.5q41 0 66.5 -26t25.5 -67q0 -55 -42 -95t-93 -40q-41 0 -64.5 24.5t-23.5 65.5z" />
<glyph unicode="&#xc0;" d="M-70 0l670 1401h141l136 -1401h-127l-39 428h-447l-192 -428h-142zM317 541h385l-38 438l-17 262h-6l-121 -270zM352 1645l54 100l284 -205l-26 -55z" />
<glyph unicode="&#xc1;" d="M-70 0l670 1401h141l136 -1401h-127l-39 428h-447l-192 -428h-142zM317 541h385l-38 438l-17 262h-6l-121 -270zM647 1540l303 205l54 -100l-330 -160z" />
<glyph unicode="&#xc2;" d="M-70 0l670 1401h141l136 -1401h-127l-39 428h-447l-192 -428h-142zM317 541h385l-38 438l-17 262h-6l-121 -270zM367 1534l321 225h60l223 -225l-58 -47l-213 155l-297 -157z" />
<glyph unicode="&#xc3;" d="M-70 0l670 1401h141l136 -1401h-127l-39 428h-447l-192 -428h-142zM317 541h385l-38 438l-17 262h-6l-121 -270zM401 1569q12 18 30 39.5t40.5 40t50 31t58.5 12.5q33 0 60.5 -12.5t52 -26t48 -25.5t52.5 -12q70 0 116 59l47 -37q-29 -37 -72 -74.5t-104 -37.5 q-33 0 -59.5 11t-51 24.5t-49 24.5t-55.5 11q-35 0 -64.5 -19t-54.5 -46z" />
<glyph unicode="&#xc4;" d="M-70 0l670 1401h141l136 -1401h-127l-39 428h-447l-192 -428h-142zM317 541h385l-38 438l-17 262h-6l-121 -270zM451 1573q0 41 30.5 67.5t65.5 26.5q29 0 47 -17.5t18 -43.5q0 -41 -30.5 -70t-67.5 -29q-29 0 -46 17.5t-17 48.5zM764 1573q0 41 30.5 67.5t65.5 26.5 q29 0 47.5 -17.5t18.5 -43.5q0 -41 -31 -70t-68 -29q-29 0 -46 17.5t-17 48.5z" />
<glyph unicode="&#xc5;" d="M-70 0l670 1401h141l136 -1401h-127l-39 428h-447l-192 -428h-142zM317 541h385l-38 438l-17 262h-6l-121 -270zM535 1569q0 86 59 142t143 56q66 0 106 -43t40 -102q0 -41 -16.5 -77t-43 -62.5t-63.5 -42t-76 -15.5q-61 0 -105 42t-44 102zM610 1579q0 -35 21.5 -60.5 t60.5 -25.5q47 0 82 35t35 82q0 43 -23.5 65.5t-60.5 22.5q-47 0 -81 -36t-34 -83z" />
<glyph unicode="&#xc6;" horiz-adv-x="1554" d="M-55 0l946 1403h739l-16 -113h-539l-69 -502h489l-16 -108h-490l-80 -567h582l-14 -113h-705l59 428h-460l-293 -428h-133zM451 541h397l104 747h-6z" />
<glyph unicode="&#xc7;" horiz-adv-x="907" d="M113 410q0 70 8 145.5t22 159.5q25 143 68 273t110.5 228.5t164 157t229.5 58.5q109 0 180.5 -24t118.5 -52l-49 -88q-47 27 -119 43t-137 16q-90 0 -160 -46t-122 -127t-89 -188.5t-62 -230.5q-35 -186 -34 -313q0 -174 54 -260t177 -86q80 0 160 24.5t145 65.5l49 -86 q-59 -41 -140 -72t-183 -35l-45 -71h14q43 0 70.5 -11.5t44 -28t23.5 -38t7 -41.5q0 -33 -13 -65.5t-39.5 -60.5t-66.5 -45.5t-93 -17.5q-41 0 -79 9.5t-67 27.5l31 60q31 -14 61.5 -20.5t57.5 -6.5q14 0 35.5 4t42 16.5t34 34t13.5 56.5q0 37 -26 50t-48 13q-31 0 -64 -16 l-39 31l76 118q-90 4 -151.5 38t-99.5 90.5t-54 135t-16 175.5z" />
<glyph unicode="&#xc8;" horiz-adv-x="872" d="M47 0l272 1403h658l-23 -113h-534l-98 -502h489l-20 -108h-490l-111 -567h582l-20 -113h-705zM377 1645l53 100l285 -205l-27 -55z" />
<glyph unicode="&#xc9;" horiz-adv-x="872" d="M47 0l272 1403h658l-23 -113h-534l-98 -502h489l-20 -108h-490l-111 -567h582l-20 -113h-705zM567 1540l303 205l54 -100l-330 -160z" />
<glyph unicode="&#xca;" horiz-adv-x="872" d="M47 0l272 1403h658l-23 -113h-534l-98 -502h489l-20 -108h-490l-111 -567h582l-20 -113h-705zM371 1534l321 225h60l223 -225l-57 -47l-213 155l-297 -157z" />
<glyph unicode="&#xcb;" horiz-adv-x="872" d="M47 0l272 1403h658l-23 -113h-534l-98 -502h489l-20 -108h-490l-111 -567h582l-20 -113h-705zM469 1593q0 41 30.5 68t65.5 27q29 0 47.5 -17.5t18.5 -44.5q0 -41 -31 -69.5t-68 -28.5q-29 0 -46 17.5t-17 47.5zM782 1593q0 41 31 68t66 27q29 0 47 -17.5t18 -44.5 q0 -41 -30.5 -69.5t-67.5 -28.5q-29 0 -46.5 17.5t-17.5 47.5z" />
<glyph unicode="&#xcc;" horiz-adv-x="444" d="M80 0l270 1401h123l-270 -1401h-123zM104 1645l54 100l284 -205l-26 -55z" />
<glyph unicode="&#xcd;" horiz-adv-x="444" d="M80 0l270 1401h123l-270 -1401h-123zM393 1540l303 205l54 -100l-330 -160z" />
<glyph unicode="&#xce;" horiz-adv-x="444" d="M80 0l270 1401h123l-270 -1401h-123zM123 1534l321 225h60l223 -225l-57 -47l-213 155l-297 -157z" />
<glyph unicode="&#xcf;" horiz-adv-x="444" d="M80 0l270 1401h123l-270 -1401h-123zM201 1573q0 41 30.5 67.5t65.5 26.5q29 0 47 -17.5t18 -43.5q0 -41 -30.5 -70t-67.5 -29q-29 0 -46 17.5t-17 48.5zM514 1573q0 41 30.5 67.5t65.5 26.5q29 0 47.5 -17.5t18.5 -43.5q0 -41 -30.5 -70t-67.5 -29q-29 0 -46.5 17.5 t-17.5 48.5z" />
<glyph unicode="&#xd0;" horiz-adv-x="1075" d="M16 643l19 96h155l129 664h277q88 0 171 -13.5t148.5 -57.5t105.5 -130t40 -231q0 -53 -6 -118t-21 -138q-33 -182 -83 -316.5t-128 -223.5t-187.5 -132t-262.5 -43h-326l125 643h-156zM190 115h197q113 0 198 34.5t147.5 108.5t105.5 186.5t73 268.5q14 72 20.5 131 t6.5 108q0 100 -24.5 166t-70.5 104t-110.5 52t-144.5 14h-168l-109 -549h234l-19 -96h-233z" />
<glyph unicode="&#xd1;" horiz-adv-x="1042" d="M33 0l272 1403h160l244 -942l53 -225h12l227 1167h117l-272 -1403h-141l-246 926l-68 282h-10l-234 -1208h-114zM453 1546q12 18 29.5 40t40 40.5t50 30.5t58.5 12q33 0 60.5 -12t52 -25.5t48 -26t52.5 -12.5q70 0 117 60l47 -37q-29 -37 -72.5 -75t-104.5 -38 q-33 0 -59.5 11.5t-51 24.5t-49 24.5t-55.5 11.5q-35 0 -64.5 -19.5t-53.5 -46.5z" />
<glyph unicode="&#xd2;" horiz-adv-x="1036" d="M98 389q0 133 35 313q33 172 83 308.5t121 229.5t163 142.5t213 49.5q180 0 261 -106.5t81 -305.5q0 -70 -10.5 -148.5t-26.5 -169.5q-35 -172 -81 -308t-113.5 -230t-161 -143.5t-218.5 -49.5q-184 0 -265 108.5t-81 309.5zM225 389q0 -143 51.5 -228t178.5 -85 q94 0 163.5 47t121 131t87 198.5t62.5 249.5q16 88 26.5 168t10.5 150q0 139 -50.5 223t-179.5 84q-96 0 -166.5 -49t-122 -133t-87 -199t-60.5 -244q-16 -86 -25.5 -164.5t-9.5 -148.5zM463 1655l53 100l285 -205l-27 -55z" />
<glyph unicode="&#xd3;" horiz-adv-x="1036" d="M98 389q0 133 35 313q33 172 83 308.5t121 229.5t163 142.5t213 49.5q180 0 261 -106.5t81 -305.5q0 -70 -10.5 -148.5t-26.5 -169.5q-35 -172 -81 -308t-113.5 -230t-161 -143.5t-218.5 -49.5q-184 0 -265 108.5t-81 309.5zM225 389q0 -143 51.5 -228t178.5 -85 q94 0 163.5 47t121 131t87 198.5t62.5 249.5q16 88 26.5 168t10.5 150q0 139 -50.5 223t-179.5 84q-96 0 -166.5 -49t-122 -133t-87 -199t-60.5 -244q-16 -86 -25.5 -164.5t-9.5 -148.5zM666 1550l303 205l53 -100l-330 -160z" />
<glyph unicode="&#xd4;" horiz-adv-x="1036" d="M98 389q0 133 35 313q33 172 83 308.5t121 229.5t163 142.5t213 49.5q180 0 261 -106.5t81 -305.5q0 -70 -10.5 -148.5t-26.5 -169.5q-35 -172 -81 -308t-113.5 -230t-161 -143.5t-218.5 -49.5q-184 0 -265 108.5t-81 309.5zM225 389q0 -143 51.5 -228t178.5 -85 q94 0 163.5 47t121 131t87 198.5t62.5 249.5q16 88 26.5 168t10.5 150q0 139 -50.5 223t-179.5 84q-96 0 -166.5 -49t-122 -133t-87 -199t-60.5 -244q-16 -86 -25.5 -164.5t-9.5 -148.5zM424 1534l321 225h60l223 -225l-57 -47l-213 155l-297 -157z" />
<glyph unicode="&#xd5;" horiz-adv-x="1036" d="M98 389q0 133 35 313q33 172 83 308.5t121 229.5t163 142.5t213 49.5q180 0 261 -106.5t81 -305.5q0 -70 -10.5 -148.5t-26.5 -169.5q-35 -172 -81 -308t-113.5 -230t-161 -143.5t-218.5 -49.5q-184 0 -265 108.5t-81 309.5zM225 389q0 -143 51.5 -228t178.5 -85 q94 0 163.5 47t121 131t87 198.5t62.5 249.5q16 88 26.5 168t10.5 150q0 139 -50.5 223t-179.5 84q-96 0 -166.5 -49t-122 -133t-87 -199t-60.5 -244q-16 -86 -25.5 -164.5t-9.5 -148.5zM500 1569q12 18 29.5 39.5t40 40t50 31t58.5 12.5q33 0 60.5 -12.5t52 -26t48 -25.5 t52.5 -12q70 0 117 59l47 -37q-29 -37 -72 -74.5t-104 -37.5q-33 0 -59.5 11t-51.5 24.5t-49.5 24.5t-54.5 11q-35 0 -65 -19t-54 -46z" />
<glyph unicode="&#xd6;" horiz-adv-x="1036" d="M98 389q0 133 35 313q33 172 83 308.5t121 229.5t163 142.5t213 49.5q180 0 261 -106.5t81 -305.5q0 -70 -10.5 -148.5t-26.5 -169.5q-35 -172 -81 -308t-113.5 -230t-161 -143.5t-218.5 -49.5q-184 0 -265 108.5t-81 309.5zM225 389q0 -143 51.5 -228t178.5 -85 q94 0 163.5 47t121 131t87 198.5t62.5 249.5q16 88 26.5 168t10.5 150q0 139 -50.5 223t-179.5 84q-96 0 -166.5 -49t-122 -133t-87 -199t-60.5 -244q-16 -86 -25.5 -164.5t-9.5 -148.5zM516 1573q0 41 31 67.5t65 26.5q29 0 47.5 -17.5t18.5 -43.5q0 -41 -30.5 -70 t-67.5 -29q-29 0 -46.5 17.5t-17.5 48.5zM829 1573q0 41 31 67.5t66 26.5q29 0 47 -17.5t18 -43.5q0 -41 -30.5 -70t-67.5 -29q-29 0 -46.5 17.5t-17.5 48.5z" />
<glyph unicode="&#xd7;" d="M14 186l402 336l-258 320l86 71l256 -319l401 334l55 -70l-399 -336l260 -323l-82 -72l-264 326l-399 -336z" />
<glyph unicode="&#xd8;" horiz-adv-x="1036" d="M88 14l66 103q-29 53 -42.5 119.5t-13.5 152.5q0 133 35 313q33 172 83 308.5t121 229.5t163 142.5t213 49.5q156 0 239 -84l56 86l57 -41l-68 -105q57 -100 58 -268q0 -70 -10.5 -148.5t-26.5 -169.5q-35 -172 -81 -308t-113.5 -230t-161 -143.5t-218.5 -49.5 q-160 0 -243 84l-56 -84zM225 389q0 -84 15 -141l639 987q-54 92 -183 92q-96 0 -166.5 -49t-122 -133t-87 -199t-60.5 -244q-16 -86 -25.5 -164.5t-9.5 -148.5zM272 166q55 -90 183 -90q94 0 163.5 47t121 131t87 198.5t62.5 249.5q16 88 26.5 168t10.5 150q0 37 -4 71.5 t-11 63.5z" />
<glyph unicode="&#xd9;" horiz-adv-x="1085" d="M92 287q0 53 12 114l193 1000h123l-197 -1028q-8 -41 -8 -86q0 -98 56.5 -154.5t183.5 -56.5q147 0 244.5 70.5t125.5 224.5l199 1030h123l-197 -1020q-39 -201 -158 -305.5t-346 -104.5q-186 0 -270 88t-84 228zM459 1642l53 101l285 -205l-27 -55z" />
<glyph unicode="&#xda;" horiz-adv-x="1085" d="M92 287q0 53 12 114l193 1000h123l-197 -1028q-8 -41 -8 -86q0 -98 56.5 -154.5t183.5 -56.5q147 0 244.5 70.5t125.5 224.5l199 1030h123l-197 -1020q-39 -201 -158 -305.5t-346 -104.5q-186 0 -270 88t-84 228zM680 1540l303 205l53 -100l-329 -160z" />
<glyph unicode="&#xdb;" horiz-adv-x="1085" d="M92 287q0 53 12 114l193 1000h123l-197 -1028q-8 -41 -8 -86q0 -98 56.5 -154.5t183.5 -56.5q147 0 244.5 70.5t125.5 224.5l199 1030h123l-197 -1020q-39 -201 -158 -305.5t-346 -104.5q-186 0 -270 88t-84 228zM412 1534l321 225h60l223 -225l-58 -47l-213 155 l-296 -157z" />
<glyph unicode="&#xdc;" horiz-adv-x="1085" d="M92 287q0 53 12 114l193 1000h123l-197 -1028q-8 -41 -8 -86q0 -98 56.5 -154.5t183.5 -56.5q147 0 244.5 70.5t125.5 224.5l199 1030h123l-197 -1020q-39 -201 -158 -305.5t-346 -104.5q-186 0 -270 88t-84 228zM502 1573q0 41 30.5 67.5t65.5 26.5q29 0 47.5 -17.5 t18.5 -43.5q0 -41 -31 -70t-68 -29q-29 0 -46 17.5t-17 48.5zM815 1573q0 41 31 67.5t65 26.5q29 0 47.5 -17.5t18.5 -43.5q0 -41 -30.5 -70t-67.5 -29q-29 0 -46.5 17.5t-17.5 48.5z" />
<glyph unicode="&#xdd;" horiz-adv-x="882" d="M166 1401h131l104 -397l66 -271h6l199 283l243 385h146l-549 -803l-115 -598h-127l115 594zM565 1540l303 205l54 -100l-330 -160z" />
<glyph unicode="&#xde;" horiz-adv-x="935" d="M49 0l270 1403h125l-59 -305h162q55 0 120.5 -11.5t123 -45t95.5 -94t38 -161.5q0 -147 -51.5 -242t-128 -148.5t-168 -74t-173.5 -20.5h-174l-57 -301h-123zM252 412h151q76 0 147 15t125 55t87 108.5t33 175.5q0 80 -26 124t-64.5 65.5t-85 25.5t-87.5 4h-170z" />
<glyph unicode="&#xdf;" horiz-adv-x="876" d="M10 0l203 1049q14 80 43 156.5t76 136t115.5 96.5t162.5 37q76 0 129.5 -21.5t87 -58.5t49 -87.5t15.5 -107.5q0 -35 -6 -81t-25.5 -94t-57.5 -90t-100 -69l-2 -6q74 -31 102.5 -97.5t28.5 -156.5q0 -72 -12 -147q-35 -229 -131 -357.5t-276 -128.5q-23 0 -55.5 2 t-59.5 9l27 88q18 -4 37.5 -4h35.5q82 0 140.5 52t95.5 129t53 167t16 168q0 45 -7 85t-24.5 69.5t-46 47t-69.5 17.5h-10l14 82q86 16 147.5 92t61.5 211q0 35 -9 68.5t-29.5 59t-54.5 42t-83 16.5q-55 0 -97 -25.5t-75 -72.5t-56.5 -112.5t-39.5 -147.5l-197 -1016h-117z " />
<glyph unicode="&#xe0;" horiz-adv-x="882" d="M63 289q0 143 31 273t89.5 230.5t144 160t196.5 59.5q35 0 72 -13.5t59 -33.5l99 -82l55 100h84l-193 -983h-88l-16 94l-125 -76q-51 -27 -88 -38t-70 -11q-74 0 -122 24.5t-76.5 67.5t-40 101.5t-11.5 126.5zM190 287q0 -41 6.5 -79t24 -66.5t46 -45t73.5 -16.5 q37 0 75 12t74.5 31.5t71.5 44.5t64 47l110 565q-18 20 -44.5 42t-55.5 39.5t-59.5 28.5t-57.5 11q-74 0 -134 -48t-103 -131t-67 -194.5t-24 -240.5zM422 1462l115 33l135 -369l-60 -18z" />
<glyph unicode="&#xe1;" horiz-adv-x="882" d="M63 289q0 143 31 273t89.5 230.5t144 160t196.5 59.5q35 0 72 -13.5t59 -33.5l99 -82l55 100h84l-193 -983h-88l-16 94l-125 -76q-51 -27 -88 -38t-70 -11q-74 0 -122 24.5t-76.5 67.5t-40 101.5t-11.5 126.5zM190 287q0 -41 6.5 -79t24 -66.5t46 -45t73.5 -16.5 q37 0 75 12t74.5 31.5t71.5 44.5t64 47l110 565q-18 20 -44.5 42t-55.5 39.5t-59.5 28.5t-57.5 11q-74 0 -134 -48t-103 -131t-67 -194.5t-24 -240.5zM514 1151l197 340l100 -53l-248 -316z" />
<glyph unicode="&#xe2;" horiz-adv-x="882" d="M63 289q0 143 31 273t89.5 230.5t144 160t196.5 59.5q35 0 72 -13.5t59 -33.5l99 -82l55 100h84l-193 -983h-88l-16 94l-125 -76q-51 -27 -88 -38t-70 -11q-74 0 -122 24.5t-76.5 67.5t-40 101.5t-11.5 126.5zM190 287q0 -41 6.5 -79t24 -66.5t46 -45t73.5 -16.5 q37 0 75 12t74.5 31.5t71.5 44.5t64 47l110 565q-18 20 -44.5 42t-55.5 39.5t-59.5 28.5t-57.5 11q-74 0 -134 -48t-103 -131t-67 -194.5t-24 -240.5zM258 1147l334 303h57l209 -295l-55 -39l-205 197l-299 -205z" />
<glyph unicode="&#xe3;" horiz-adv-x="882" d="M63 289q0 143 31 273t89.5 230.5t144 160t196.5 59.5q35 0 72 -13.5t59 -33.5l99 -82l55 100h84l-193 -983h-88l-16 94l-125 -76q-51 -27 -88 -38t-70 -11q-74 0 -122 24.5t-76.5 67.5t-40 101.5t-11.5 126.5zM190 287q0 -41 6.5 -79t24 -66.5t46 -45t73.5 -16.5 q37 0 75 12t74.5 31.5t71.5 44.5t64 47l110 565q-18 20 -44.5 42t-55.5 39.5t-59.5 28.5t-57.5 11q-74 0 -134 -48t-103 -131t-67 -194.5t-24 -240.5zM381 1221q12 18 29.5 39.5t40 40t50 30.5t58.5 12q33 0 60.5 -12t52 -25.5t48 -25.5t52.5 -12q70 0 117 59l47 -37 q-29 -37 -72 -74.5t-104 -37.5q-33 0 -59.5 11t-51 24.5t-49.5 24.5t-55 11q-35 0 -64.5 -19.5t-54.5 -45.5z" />
<glyph unicode="&#xe4;" horiz-adv-x="882" d="M63 289q0 143 31 273t89.5 230.5t144 160t196.5 59.5q35 0 72 -13.5t59 -33.5l99 -82l55 100h84l-193 -983h-88l-16 94l-125 -76q-51 -27 -88 -38t-70 -11q-74 0 -122 24.5t-76.5 67.5t-40 101.5t-11.5 126.5zM190 287q0 -41 6.5 -79t24 -66.5t46 -45t73.5 -16.5 q37 0 75 12t74.5 31.5t71.5 44.5t64 47l110 565q-18 20 -44.5 42t-55.5 39.5t-59.5 28.5t-57.5 11q-74 0 -134 -48t-103 -131t-67 -194.5t-24 -240.5zM362 1245q0 41 31 67.5t66 26.5q29 0 47 -17t18 -44q0 -41 -30.5 -69.5t-67.5 -28.5q-29 0 -46.5 17t-17.5 48zM676 1245 q0 41 30.5 67.5t65.5 26.5q29 0 47.5 -17t18.5 -44q0 -41 -31 -69.5t-68 -28.5q-29 0 -46 17t-17 48z" />
<glyph unicode="&#xe5;" horiz-adv-x="882" d="M63 289q0 143 31 273t89.5 230.5t144 160t196.5 59.5q35 0 72 -13.5t59 -33.5l99 -82l55 100h84l-193 -983h-88l-16 94l-125 -76q-51 -27 -88 -38t-70 -11q-74 0 -122 24.5t-76.5 67.5t-40 101.5t-11.5 126.5zM190 287q0 -41 6.5 -79t24 -66.5t46 -45t73.5 -16.5 q37 0 75 12t74.5 31.5t71.5 44.5t64 47l110 565q-18 20 -44.5 42t-55.5 39.5t-59.5 28.5t-57.5 11q-74 0 -134 -48t-103 -131t-67 -194.5t-24 -240.5zM471 1253q0 86 59.5 142.5t143.5 56.5q66 0 105.5 -43t39.5 -102q0 -41 -16.5 -77t-43 -62.5t-63 -42t-75.5 -15.5 q-61 0 -105.5 42t-44.5 101zM547 1264q0 -35 21.5 -60.5t60.5 -25.5q47 0 81.5 34.5t34.5 81.5q0 43 -23 65.5t-60 22.5q-47 0 -81 -35.5t-34 -82.5z" />
<glyph unicode="&#xe6;" horiz-adv-x="1384" d="M29 186q0 92 34.5 162t95 118t143.5 72.5t181 24.5q72 0 150 -12q14 61 22.5 99t12.5 59.5t5 32t1 18.5q0 70 -40 109.5t-138 39.5q-72 0 -139.5 -15t-114.5 -36l-23 78q72 35 152 55.5t155 20.5q113 0 179.5 -36t85.5 -99q59 61 137.5 98t189.5 37q123 0 201 -63.5 t78 -172.5q0 -104 -53.5 -171.5t-133.5 -107.5t-175 -55.5t-177 -15.5q-66 0 -115 6q-8 -41 -10 -73.5t-2 -49.5q0 -47 9.5 -89t35 -75.5t72.5 -53t123 -19.5q57 0 126.5 10t135.5 33l24 -82q-68 -29 -149.5 -45.5t-163.5 -16.5q-135 0 -206.5 43t-102.5 115l-195 -109 q-53 -29 -105 -39t-93 -10q-61 0 -102.5 19.5t-66 50.5t-34.5 70t-10 75zM145 203q0 -61 34 -95t100 -34q37 0 82 13t91 33.5t86.5 44.5t67.5 44q-6 43 -6 84q0 35 4 74t12 84q-66 12 -135 12q-63 0 -123.5 -13.5t-107.5 -43t-76 -80t-29 -123.5zM754 526q49 -6 112 -6 q68 0 140.5 11.5t133 39t99.5 72.5t39 115q0 68 -49 110.5t-133 42.5q-86 0 -145.5 -38.5t-99.5 -96t-62.5 -125t-34.5 -125.5z" />
<glyph unicode="&#xe7;" horiz-adv-x="768" d="M76 342q0 160 38 284t102.5 210t152.5 131t188 45q82 0 153.5 -16.5t125.5 -45.5l-29 -82q-47 16 -107.5 28.5t-130.5 12.5q-94 0 -163.5 -49t-115.5 -131t-68.5 -186.5t-22.5 -214.5q0 -51 13 -97.5t41 -81t73 -55t110 -20.5q72 0 137.5 15t124.5 36l25 -86 q-59 -29 -132 -46.5t-171 -21.5l-45 -69h14q43 0 70.5 -11.5t44 -28t24 -38t7.5 -41.5q0 -33 -13.5 -65.5t-40 -60.5t-66.5 -45.5t-93 -17.5q-41 0 -79 9.5t-67 27.5l31 60q31 -14 61.5 -20.5t57.5 -6.5q14 0 35.5 4t42 16.5t34 34t13.5 56.5q0 37 -26 50t-48 13 q-31 0 -64 -16l-39 31l76 122q-127 16 -200.5 109.5t-73.5 257.5z" />
<glyph unicode="&#xe8;" horiz-adv-x="868" d="M78 295q0 68 9 147.5t31.5 158.5t59.5 153.5t94.5 131t135.5 91.5t182 35q123 0 200.5 -63.5t77.5 -172.5q0 -84 -35.5 -143.5t-94 -100t-131 -66.5t-145.5 -39t-140.5 -18.5t-112.5 -5.5q-4 -35 -5 -56t-1 -38q0 -47 9 -89t34.5 -75.5t73 -53t122.5 -19.5q57 0 127 10 t136 33l24 -82q-68 -29 -149.5 -45.5t-163.5 -16.5q-100 0 -166 26t-103.5 69t-53 102t-15.5 127zM219 494q35 0 87 4t111.5 14t119 28.5t106.5 48t77 70.5t30 99q0 68 -49.5 110.5t-133.5 42.5q-86 0 -146.5 -44t-101 -107.5t-64.5 -136t-36 -129.5zM369 1462l114 33 l135 -369l-59 -18z" />
<glyph unicode="&#xe9;" horiz-adv-x="868" d="M78 295q0 68 9 147.5t31.5 158.5t59.5 153.5t94.5 131t135.5 91.5t182 35q123 0 200.5 -63.5t77.5 -172.5q0 -84 -35.5 -143.5t-94 -100t-131 -66.5t-145.5 -39t-140.5 -18.5t-112.5 -5.5q-4 -35 -5 -56t-1 -38q0 -47 9 -89t34.5 -75.5t73 -53t122.5 -19.5q57 0 127 10 t136 33l24 -82q-68 -29 -149.5 -45.5t-163.5 -16.5q-100 0 -166 26t-103.5 69t-53 102t-15.5 127zM219 494q35 0 87 4t111.5 14t119 28.5t106.5 48t77 70.5t30 99q0 68 -49.5 110.5t-133.5 42.5q-86 0 -146.5 -44t-101 -107.5t-64.5 -136t-36 -129.5zM543 1151l196 340 l101 -53l-248 -316z" />
<glyph unicode="&#xea;" horiz-adv-x="868" d="M78 295q0 68 9 147.5t31.5 158.5t59.5 153.5t94.5 131t135.5 91.5t182 35q123 0 200.5 -63.5t77.5 -172.5q0 -84 -35.5 -143.5t-94 -100t-131 -66.5t-145.5 -39t-140.5 -18.5t-112.5 -5.5q-4 -35 -5 -56t-1 -38q0 -47 9 -89t34.5 -75.5t73 -53t122.5 -19.5q57 0 127 10 t136 33l24 -82q-68 -29 -149.5 -45.5t-163.5 -16.5q-100 0 -166 26t-103.5 69t-53 102t-15.5 127zM219 494q35 0 87 4t111.5 14t119 28.5t106.5 48t77 70.5t30 99q0 68 -49.5 110.5t-133.5 42.5q-86 0 -146.5 -44t-101 -107.5t-64.5 -136t-36 -129.5zM279 1147l333 303h58 l209 -295l-56 -39l-205 197l-299 -205z" />
<glyph unicode="&#xeb;" horiz-adv-x="868" d="M78 295q0 68 9 147.5t31.5 158.5t59.5 153.5t94.5 131t135.5 91.5t182 35q123 0 200.5 -63.5t77.5 -172.5q0 -84 -35.5 -143.5t-94 -100t-131 -66.5t-145.5 -39t-140.5 -18.5t-112.5 -5.5q-4 -35 -5 -56t-1 -38q0 -47 9 -89t34.5 -75.5t73 -53t122.5 -19.5q57 0 127 10 t136 33l24 -82q-68 -29 -149.5 -45.5t-163.5 -16.5q-100 0 -166 26t-103.5 69t-53 102t-15.5 127zM219 494q35 0 87 4t111.5 14t119 28.5t106.5 48t77 70.5t30 99q0 68 -49.5 110.5t-133.5 42.5q-86 0 -146.5 -44t-101 -107.5t-64.5 -136t-36 -129.5zM352 1245q0 41 31 67.5 t66 26.5q29 0 47 -17t18 -44q0 -41 -30.5 -69.5t-67.5 -28.5q-29 0 -46.5 17t-17.5 48zM666 1245q0 41 30.5 67.5t65.5 26.5q29 0 47 -17t18 -44q0 -41 -30.5 -69.5t-67.5 -28.5q-29 0 -46 17t-17 48z" />
<glyph unicode="&#xec;" horiz-adv-x="444" d="M96 0l170 885l-102 28l14 68h228l-191 -981h-119zM121 1462l115 33l135 -369l-60 -18z" />
<glyph unicode="&#xed;" horiz-adv-x="444" d="M96 0l170 885l-102 28l14 68h228l-191 -981h-119zM315 1151l197 340l100 -53l-247 -316z" />
<glyph unicode="&#xee;" horiz-adv-x="460" d="M55 1147l334 303h57l209 -295l-55 -39l-205 197l-299 -205zM113 0l170 885l-103 28l15 68h227l-191 -981h-118z" />
<glyph unicode="&#xef;" horiz-adv-x="452" d="M104 0l170 885l-102 28l14 68h228l-191 -981h-119zM117 1245q0 41 30.5 67.5t65.5 26.5q29 0 47.5 -17t18.5 -44q0 -41 -31 -69.5t-68 -28.5q-29 0 -46 17t-17 48zM430 1245q0 41 31 67.5t65 26.5q29 0 47.5 -17t18.5 -44q0 -41 -30.5 -69.5t-67.5 -28.5q-29 0 -46.5 17 t-17.5 48z" />
<glyph unicode="&#xf0;" horiz-adv-x="925" d="M68 307q0 76 18 168q45 233 157.5 369.5t288.5 136.5q113 0 178.5 -51t92.5 -127l6 2q4 37 6 85t2 77q0 59 -10 117.5t-37 109.5l-152 -125l-55 70l158 127q-35 37 -87 58.5t-124 21.5q-16 0 -30.5 -1.5t-30.5 -3.5l-5 89q33 6 56.5 8t52.5 2q84 0 146.5 -27t109.5 -74 l154 125l55 -69l-156 -127q37 -61 53.5 -137t16.5 -158q0 -78 -8.5 -154t-22.5 -147q-37 -188 -87 -321.5t-114.5 -217.5t-145.5 -123t-179 -39q-145 0 -226 89.5t-81 246.5zM188 311q0 -115 47.5 -177t145.5 -62q123 0 212 99.5t132 322.5q6 35 10 67.5t4 63.5 q0 113 -48 185.5t-154 72.5q-72 0 -125.5 -30t-93 -84t-67.5 -130t-46 -170q-8 -43 -12.5 -83t-4.5 -75z" />
<glyph unicode="&#xf1;" horiz-adv-x="901" d="M20 0l191 983h84l14 -96l154 76q96 47 160 47q70 0 114.5 -17.5t71.5 -48.5t38 -72t11 -86q0 -61 -16 -137l-125 -649h-119l125 647q4 27 7 51.5t3 49.5q0 66 -32.5 110.5t-125.5 44.5q-35 0 -74.5 -12t-77.5 -30.5t-73 -39t-59 -37.5l-152 -784h-119zM315 1221 q12 18 29.5 39.5t40.5 40t50.5 30.5t58.5 12q33 0 60.5 -12t52 -25.5t48 -25.5t52.5 -12q70 0 116 59l47 -37q-29 -37 -72 -74.5t-104 -37.5q-33 0 -59.5 11t-51 24.5t-49 24.5t-55.5 11q-35 0 -64.5 -19.5t-54.5 -45.5z" />
<glyph unicode="&#xf2;" horiz-adv-x="915" d="M72 305q0 141 31.5 269t94 225.5t153.5 155t210 57.5q164 0 234.5 -93.5t70.5 -250.5q0 -139 -30.5 -266.5t-93 -222.5t-154.5 -151.5t-215 -56.5q-158 0 -229.5 91.5t-71.5 242.5zM190 307q0 -104 44.5 -168.5t152.5 -64.5q72 0 129 31.5t100 88t72 133t47 167.5 q10 43 13.5 85t3.5 83q0 51 -11.5 96t-35 78.5t-62.5 53t-94 19.5q-98 0 -167 -59t-111 -148.5t-61.5 -195t-19.5 -199.5zM446 1462l115 33l135 -369l-59 -18z" />
<glyph unicode="&#xf3;" horiz-adv-x="915" d="M72 305q0 141 31.5 269t94 225.5t153.5 155t210 57.5q164 0 234.5 -93.5t70.5 -250.5q0 -139 -30.5 -266.5t-93 -222.5t-154.5 -151.5t-215 -56.5q-158 0 -229.5 91.5t-71.5 242.5zM190 307q0 -104 44.5 -168.5t152.5 -64.5q72 0 129 31.5t100 88t72 133t47 167.5 q10 43 13.5 85t3.5 83q0 51 -11.5 96t-35 78.5t-62.5 53t-94 19.5q-98 0 -167 -59t-111 -148.5t-61.5 -195t-19.5 -199.5zM551 1151l197 340l100 -53l-248 -316z" />
<glyph unicode="&#xf4;" horiz-adv-x="915" d="M72 305q0 141 31.5 269t94 225.5t153.5 155t210 57.5q164 0 234.5 -93.5t70.5 -250.5q0 -139 -30.5 -266.5t-93 -222.5t-154.5 -151.5t-215 -56.5q-158 0 -229.5 91.5t-71.5 242.5zM190 307q0 -104 44.5 -168.5t152.5 -64.5q72 0 129 31.5t100 88t72 133t47 167.5 q10 43 13.5 85t3.5 83q0 51 -11.5 96t-35 78.5t-62.5 53t-94 19.5q-98 0 -167 -59t-111 -148.5t-61.5 -195t-19.5 -199.5zM295 1147l334 303h57l209 -295l-55 -39l-205 197l-299 -205z" />
<glyph unicode="&#xf5;" horiz-adv-x="915" d="M72 305q0 141 31.5 269t94 225.5t153.5 155t210 57.5q164 0 234.5 -93.5t70.5 -250.5q0 -139 -30.5 -266.5t-93 -222.5t-154.5 -151.5t-215 -56.5q-158 0 -229.5 91.5t-71.5 242.5zM190 307q0 -104 44.5 -168.5t152.5 -64.5q72 0 129 31.5t100 88t72 133t47 167.5 q10 43 13.5 85t3.5 83q0 51 -11.5 96t-35 78.5t-62.5 53t-94 19.5q-98 0 -167 -59t-111 -148.5t-61.5 -195t-19.5 -199.5zM332 1221q12 18 29.5 39.5t40 40t50 30.5t58.5 12q33 0 60.5 -12t52 -25.5t48 -25.5t52.5 -12q70 0 117 59l47 -37q-29 -37 -72 -74.5t-104 -37.5 q-33 0 -59.5 11t-51.5 24.5t-49.5 24.5t-54.5 11q-35 0 -65 -19.5t-54 -45.5z" />
<glyph unicode="&#xf6;" horiz-adv-x="915" d="M72 305q0 141 31.5 269t94 225.5t153.5 155t210 57.5q164 0 234.5 -93.5t70.5 -250.5q0 -139 -30.5 -266.5t-93 -222.5t-154.5 -151.5t-215 -56.5q-158 0 -229.5 91.5t-71.5 242.5zM190 307q0 -104 44.5 -168.5t152.5 -64.5q72 0 129 31.5t100 88t72 133t47 167.5 q10 43 13.5 85t3.5 83q0 51 -11.5 96t-35 78.5t-62.5 53t-94 19.5q-98 0 -167 -59t-111 -148.5t-61.5 -195t-19.5 -199.5zM367 1245q0 41 30.5 67.5t65.5 26.5q29 0 47 -17t18 -44q0 -41 -30.5 -69.5t-67.5 -28.5q-29 0 -46 17t-17 48zM680 1245q0 41 30.5 67.5t65.5 26.5 q29 0 47.5 -17t18.5 -44q0 -41 -31 -69.5t-68 -28.5q-29 0 -46 17t-17 48z" />
<glyph unicode="&#xf7;" d="M33 471l20 102h887l-20 -102h-887zM319 154q0 51 37 86.5t82 35.5q35 0 56.5 -23.5t21.5 -57.5q0 -47 -37 -84t-82 -37q-35 0 -56.5 22.5t-21.5 57.5zM455 842q0 49 34.5 86t81.5 37q35 0 57.5 -23.5t22.5 -58.5q0 -49 -38 -85t-81 -36q-35 0 -56 22.5t-21 57.5z" />
<glyph unicode="&#xf8;" horiz-adv-x="915" d="M57 10l64 82q-49 82 -49 213q0 141 31.5 269t94 225.5t153.5 155t210 57.5q137 0 213 -70l57 74l50 -43l-66 -84q51 -84 51 -221q0 -139 -30.5 -266.5t-93 -222.5t-154.5 -151.5t-215 -56.5q-72 0 -123 18.5t-88 53.5l-58 -74zM190 307q0 -63 15 -106l493 643 q-25 31 -60.5 48t-88.5 17q-98 0 -167 -59t-111 -148.5t-61.5 -195t-19.5 -199.5zM236 137q47 -63 151 -63q72 0 129 31.5t100 88t72 133t47 167.5q10 43 13.5 85t3.5 83q0 66 -19 120z" />
<glyph unicode="&#xf9;" horiz-adv-x="919" d="M82 197q0 61 16 137l125 649h119l-125 -647q-4 -27 -7 -51.5t-3 -48.5q0 -66 32.5 -111t125.5 -45q35 0 74.5 12t77.5 30.5t73 39t59 37.5l152 784h119l-191 -983h-84l-14 96l-154 -76q-96 -47 -160 -47q-70 0 -114.5 17.5t-71.5 48.5t-38 71t-11 87zM430 1462l115 33 l135 -369l-59 -18z" />
<glyph unicode="&#xfa;" horiz-adv-x="919" d="M82 197q0 61 16 137l125 649h119l-125 -647q-4 -27 -7 -51.5t-3 -48.5q0 -66 32.5 -111t125.5 -45q35 0 74.5 12t77.5 30.5t73 39t59 37.5l152 784h119l-191 -983h-84l-14 96l-154 -76q-96 -47 -160 -47q-70 0 -114.5 17.5t-71.5 48.5t-38 71t-11 87zM582 1151l196 340 l101 -53l-248 -316z" />
<glyph unicode="&#xfb;" horiz-adv-x="919" d="M82 197q0 61 16 137l125 649h119l-125 -647q-4 -27 -7 -51.5t-3 -48.5q0 -66 32.5 -111t125.5 -45q35 0 74.5 12t77.5 30.5t73 39t59 37.5l152 784h119l-191 -983h-84l-14 96l-154 -76q-96 -47 -160 -47q-70 0 -114.5 17.5t-71.5 48.5t-38 71t-11 87zM287 1147l334 303 h57l209 -295l-56 -39l-204 197l-299 -205z" />
<glyph unicode="&#xfc;" horiz-adv-x="919" d="M82 197q0 61 16 137l125 649h119l-125 -647q-4 -27 -7 -51.5t-3 -48.5q0 -66 32.5 -111t125.5 -45q35 0 74.5 12t77.5 30.5t73 39t59 37.5l152 784h119l-191 -983h-84l-14 96l-154 -76q-96 -47 -160 -47q-70 0 -114.5 17.5t-71.5 48.5t-38 71t-11 87zM379 1245 q0 41 30.5 67.5t65.5 26.5q29 0 47.5 -17t18.5 -44q0 -41 -31 -69.5t-68 -28.5q-29 0 -46 17t-17 48zM692 1245q0 41 31 67.5t65 26.5q29 0 47.5 -17t18.5 -44q0 -41 -30.5 -69.5t-67.5 -28.5q-29 0 -46.5 17t-17.5 48z" />
<glyph unicode="&#xfd;" horiz-adv-x="792" d="M47 -410l240 473l-70 91l-82 829h123l72 -833h6l418 833h125l-711 -1393h-121zM492 1151l196 340l100 -53l-247 -316z" />
<glyph unicode="&#xfe;" horiz-adv-x="903" d="M-53 -428l360 1837l125 33l-110 -553l131 76q51 27 88 38t69 11q74 0 122 -24.5t77 -67.5t40 -101.5t11 -126.5q0 -143 -30.5 -274t-89 -230.5t-144.5 -159t-197 -59.5q-16 0 -38.5 3t-51 12.5t-65.5 28t-82 51.5l-90 -455zM180 162q47 -33 102.5 -58.5t110.5 -25.5 q74 0 135.5 48t107.5 132t71.5 196.5t25.5 241.5q0 41 -7 79t-23.5 66.5t-45 45t-73.5 16.5q-37 0 -75 -12t-75 -31.5t-71.5 -44t-63.5 -47.5z" />
<glyph unicode="&#xff;" horiz-adv-x="792" d="M47 -410l240 473l-70 91l-82 829h123l72 -833h6l418 833h125l-711 -1393h-121zM309 1245q0 41 31 67.5t66 26.5q29 0 47 -17t18 -44q0 -41 -30.5 -69.5t-67.5 -28.5q-29 0 -46.5 17t-17.5 48zM623 1245q0 41 30.5 67.5t65.5 26.5q29 0 47 -17t18 -44q0 -41 -30.5 -69.5 t-67.5 -28.5q-29 0 -46 17t-17 48z" />
<glyph unicode="&#x152;" horiz-adv-x="1388" d="M82 379q0 72 10 151.5t27 171.5q33 172 84 308.5t121.5 229.5t163.5 142.5t214 49.5q88 0 158 -29h656l-23 -113h-535l-98 -502h490l-21 -108h-489l-111 -567h582l-21 -113h-698q-80 -29 -172 -29q-180 0 -259 105.5t-79 302.5zM211 389q0 -143 51 -228t178 -85 q49 0 90 13t80 38l224 1149q-57 51 -152 51q-96 0 -167 -49t-122 -133t-87 -199t-60 -244q-16 -86 -25.5 -164.5t-9.5 -148.5z" />
<glyph unicode="&#x153;" horiz-adv-x="1511" d="M72 305q0 141 31.5 269t94 225.5t153.5 155t210 57.5q125 0 194.5 -54.5t94.5 -152.5q59 90 151.5 148.5t231.5 58.5q123 0 200.5 -63.5t77.5 -172.5q0 -84 -35.5 -143.5t-94 -100t-131 -66.5t-145.5 -39t-140.5 -18.5t-112.5 -5.5q-4 -35 -5 -56t-1 -38q0 -47 9 -89 t34.5 -75.5t73 -53t122.5 -19.5q57 0 127 10t136 33l24 -82q-68 -29 -149.5 -45.5t-163.5 -16.5q-152 0 -225.5 54.5t-98.5 144.5q-61 -92 -151 -145.5t-211 -53.5q-158 0 -229.5 91.5t-71.5 242.5zM195 307q0 -102 42 -167.5t150 -65.5q72 0 128 32.5t97 90t70 135.5 t47 168q10 43 13 85t3 83q0 51 -10 95t-32.5 76.5t-60.5 51t-93 18.5q-98 0 -166 -59t-110 -148.5t-60 -195t-18 -199.5zM862 494q35 0 87 4t111.5 14t119 28.5t106.5 48t77 70.5t30 99q0 68 -49.5 110.5t-133.5 42.5q-86 0 -146 -44t-101 -107.5t-65 -136t-36 -129.5z" />
<glyph unicode="&#x178;" horiz-adv-x="882" d="M166 1401h131l104 -397l66 -271h6l199 283l243 385h146l-549 -803l-115 -598h-127l115 594zM399 1532q0 41 31 67.5t66 26.5q29 0 47 -17.5t18 -43.5q0 -41 -30.5 -70t-67.5 -29q-29 0 -46.5 17.5t-17.5 48.5zM713 1532q0 41 30.5 67.5t65.5 26.5q29 0 47 -17.5t18 -43.5 q0 -41 -30.5 -70t-67.5 -29q-29 0 -46 17.5t-17 48.5z" />
<glyph unicode="&#x2c6;" horiz-adv-x="819" d="M244 1147l334 303h57l209 -295l-56 -39l-204 197l-299 -205z" />
<glyph unicode="&#x2dc;" horiz-adv-x="915" d="M403 1221q12 18 30 39.5t40.5 40t50 30.5t58.5 12q33 0 60.5 -12t52 -25.5t48 -25.5t52.5 -12q70 0 116 59l47 -37q-29 -37 -72 -74.5t-104 -37.5q-33 0 -59.5 11t-51 24.5t-49 24.5t-55.5 11q-35 0 -64.5 -19.5t-53.5 -45.5z" />
<glyph unicode="&#x2000;" horiz-adv-x="883" />
<glyph unicode="&#x2001;" horiz-adv-x="1767" />
<glyph unicode="&#x2002;" horiz-adv-x="883" />
<glyph unicode="&#x2003;" horiz-adv-x="1767" />
<glyph unicode="&#x2004;" horiz-adv-x="589" />
<glyph unicode="&#x2005;" horiz-adv-x="441" />
<glyph unicode="&#x2006;" horiz-adv-x="294" />
<glyph unicode="&#x2007;" horiz-adv-x="294" />
<glyph unicode="&#x2008;" horiz-adv-x="220" />
<glyph unicode="&#x2009;" horiz-adv-x="353" />
<glyph unicode="&#x200a;" horiz-adv-x="98" />
<glyph unicode="&#x2010;" horiz-adv-x="667" d="M104 451l29 145h469l-29 -145h-469z" />
<glyph unicode="&#x2011;" horiz-adv-x="667" d="M104 451l29 145h469l-29 -145h-469z" />
<glyph unicode="&#x2012;" horiz-adv-x="667" d="M104 451l29 145h469l-29 -145h-469z" />
<glyph unicode="&#x2013;" horiz-adv-x="970" d="M96 477l19 96h798l-18 -96h-799z" />
<glyph unicode="&#x2014;" horiz-adv-x="1994" d="M88 475l18 96h1799l-19 -96h-1798z" />
<glyph unicode="&#x2018;" horiz-adv-x="325" d="M150 979l264 479l47 -18l-142 -457z" />
<glyph unicode="&#x2019;" horiz-adv-x="325" d="M147 1006l142 456l170 4l-264 -479z" />
<glyph unicode="&#x201a;" horiz-adv-x="552" d="M20 -211l134 414h188l-244 -443z" />
<glyph unicode="&#x201c;" horiz-adv-x="743" d="M190 983l277 496l49 -21l-156 -475h-170zM506 983l274 496l49 -21l-155 -475h-168z" />
<glyph unicode="&#x201d;" horiz-adv-x="743" d="M190 1012l156 475h168l-274 -496zM504 1012l155 475h170l-276 -496z" />
<glyph unicode="&#x201e;" horiz-adv-x="739" d="M20 -211l134 414h188l-244 -443zM336 -211l133 414h188l-243 -443z" />
<glyph unicode="&#x2022;" horiz-adv-x="874" d="M207 524q0 47 18.5 89t49 73t71.5 49.5t88 18.5t89 -18.5t73 -49.5t49.5 -73t18.5 -89t-18.5 -88t-49.5 -71.5t-73 -48t-89 -17.5t-88 17.5t-71.5 48t-49 71.5t-18.5 88z" />
<glyph unicode="&#x2026;" horiz-adv-x="1603" d="M61 72q0 55 42 95t94 40q41 0 64.5 -24.5t23.5 -65.5q0 -55 -41 -96t-90 -41q-41 0 -67 25.5t-26 66.5zM602 72q0 55 42 95t93 40q41 0 64.5 -24.5t23.5 -65.5q0 -55 -41 -96t-90 -41q-41 0 -66.5 25.5t-25.5 66.5zM1157 72q0 55 42 95t93 40q41 0 64.5 -24.5t23.5 -65.5 q0 -55 -41 -96t-90 -41q-41 0 -66.5 25.5t-25.5 66.5z" />
<glyph unicode="&#x202f;" horiz-adv-x="353" />
<glyph unicode="&#x2039;" horiz-adv-x="538" d="M-20 487l4 27l444 438l64 -55l-369 -405l192 -408l-84 -45z" />
<glyph unicode="&#x203a;" horiz-adv-x="538" d="M-20 106l368 398l-192 403l84 45l252 -448l-5 -27l-444 -438z" />
<glyph unicode="&#x205f;" horiz-adv-x="441" />
<glyph unicode="&#x20ac;" d="M45 526l16 86h732l-17 -86h-469q-4 -35 -6 -67.5t-2 -61.5q0 -166 57.5 -246.5t163.5 -80.5q80 0 160 23.5t145 62.5l52 -82q-68 -41 -159 -72t-208 -31q-92 0 -156.5 30t-105.5 83t-59.5 130t-18.5 171q0 33 2 67.5t6 73.5h-133zM82 707l16 88h129q29 115 74 216 t111.5 176t155.5 119t206 44q111 0 182.5 -21.5t118.5 -50.5l-49 -84q-47 27 -119.5 42t-138.5 15q-80 0 -143.5 -34.5t-113.5 -96t-88 -144.5t-65 -181h471l-16 -88h-731z" />
<glyph unicode="&#x2122;" horiz-adv-x="1120" d="M70 1329v74h374v-74h-151v-532h-80v532h-143zM518 797v606h100l146 -340l137 340h100v-606h-71v493l-137 -344h-60l-141 326v-475h-74z" />
<glyph unicode="&#x25fc;" horiz-adv-x="983" d="M0 0v983h983v-983h-983z" />
</font>
</defs>
</svg>
